<svg width="793" height="345" viewBox="0 0 793 345" fill="none" xmlns="http://www.w3.org/2000/svg">
<g clip-path="url(#clip0_2477_3)">
<rect width="793" height="345" fill="black"/>
<g clip-path="url(#clip1_2477_3)">
<rect width="793" height="345" fill="url(#paint0_linear_2477_3)" fill-opacity="0.16"/>
<path d="M446.035 136.353V128.341C446.035 125.391 448.426 123 451.376 123H558.867H650.334C653.284 123 655.675 125.391 655.675 128.341V136.353H446.035Z" fill="url(#paint1_linear_2477_3)" fill-opacity="0.36"/>
<path d="M446.035 136.353V128.341C446.035 125.391 448.426 123 451.376 123H558.867H650.334C653.284 123 655.675 125.391 655.675 128.341V136.353M446.035 136.353H655.675M446.035 136.353V209.126H502.117V277.893H650.334C653.284 277.893 655.675 275.502 655.675 272.552V253.858M655.675 136.353V167.732M655.675 175.076V184.423M655.675 191.767V246.514" stroke="#E9393F" stroke-opacity="0.62"/>
<circle cx="455.383" cy="129.676" r="2.67057" fill="#982B2F"/>
<circle cx="466.065" cy="129.676" r="2.67057" fill="white" fill-opacity="0.46"/>
<circle cx="476.749" cy="129.676" r="2.67057" fill="white" fill-opacity="0.46"/>
<path d="M655.677 136.354H451.378C448.428 136.354 446.037 138.745 446.037 141.695V209.127H502.119V277.894H650.336C653.285 277.894 655.677 275.502 655.677 272.553V253.859V246.514V191.768V184.424V175.077V167.733V136.354Z" fill="url(#paint2_linear_2477_3)" fill-opacity="0.36"/>
<circle cx="455.383" cy="129.676" r="2.67057" fill="#982B2F"/>
<circle cx="466.065" cy="129.676" r="2.67057" fill="white" fill-opacity="0.46"/>
<circle cx="476.749" cy="129.676" r="2.67057" fill="white" fill-opacity="0.46"/>
<path d="M380.609 209.344L508.796 209.344L508.813 202.247L501.716 202.23L501.848 303.035L508.945 303.052L508.962 295.955L380.61 295.956M380.609 209.344L373.93 209.344L373.93 202.231L380.609 202.23L380.609 209.344ZM380.61 295.956L373.93 295.955L373.93 303.052L380.61 303.052L380.61 295.956Z" stroke="#E9393F" stroke-opacity="0.62" stroke-linecap="round"/>
<path d="M501.723 209.331L380.607 209.329L380.607 295.974L501.836 295.974L501.723 209.331Z" fill="url(#paint3_linear_2477_3)" fill-opacity="0.36" stroke="#E9393F" stroke-opacity="0.62" stroke-linecap="round"/>
<path d="M464.73 271.068V232.642C464.73 229.623 462.259 227.152 459.24 227.152H420.814C417.794 227.152 415.324 229.623 415.324 232.642V271.068C415.324 274.088 417.794 276.558 420.814 276.558H459.24C462.259 276.558 464.73 274.088 464.73 271.068ZM431.518 257.29L437.282 264.234L445.791 253.282C446.34 252.569 447.438 252.569 447.987 253.31L457.621 266.155C457.774 266.359 457.867 266.602 457.89 266.855C457.913 267.109 457.864 267.364 457.75 267.592C457.636 267.82 457.461 268.012 457.244 268.146C457.028 268.28 456.778 268.351 456.523 268.351H423.613C422.461 268.351 421.829 267.034 422.543 266.128L429.377 257.345C429.899 256.631 430.942 256.604 431.518 257.29Z" fill="#D03A3F" fill-opacity="0.46"/>
<circle cx="664.355" cy="210.461" r="36.7203" fill="#DF393F" fill-opacity="0.12"/>
<path d="M664.627 182.931C657.25 182.932 650.175 185.863 644.958 191.08C639.742 196.297 636.811 203.372 636.811 210.75C636.811 211.632 637.161 212.479 637.785 213.103C638.409 213.727 639.256 214.078 640.138 214.078C641.021 214.078 641.867 213.727 642.491 213.103C643.115 212.479 643.466 211.632 643.466 210.75C643.466 205.137 645.696 199.754 649.664 195.785C653.633 191.816 659.016 189.586 664.629 189.585C665.512 189.585 666.358 189.235 666.982 188.611C667.606 187.986 667.957 187.14 667.957 186.257C667.957 185.375 667.606 184.528 666.982 183.904C666.358 183.28 665.512 182.93 664.629 182.93" fill="#E9393F" fill-opacity="0.25"/>
<path d="M664.627 182.931C657.25 182.932 650.175 185.863 644.958 191.08C639.742 196.297 636.811 203.372 636.811 210.75C636.811 211.632 637.161 212.479 637.785 213.103C638.409 213.727 639.256 214.078 640.138 214.078C641.021 214.078 641.867 213.727 642.491 213.103C643.115 212.479 643.466 211.632 643.466 210.75C643.466 205.137 645.696 199.754 649.664 195.785C653.633 191.816 659.016 189.586 664.629 189.585C665.512 189.585 666.358 189.235 666.982 188.611C667.606 187.986 667.957 187.14 667.957 186.257C667.957 185.375 667.606 184.528 666.982 183.904C666.358 183.28 665.512 182.93 664.629 182.93" stroke="#E9393F" stroke-opacity="0.62" stroke-linecap="round" stroke-linejoin="round"/>
<path d="M622.448 199.45C624.139 193.129 627.229 187.27 631.489 182.304C635.749 177.338 641.07 173.392 647.059 170.759C653.049 168.125 659.553 166.871 666.092 167.089C672.631 167.306 679.038 168.99 684.839 172.016C690.64 175.042 695.687 179.332 699.608 184.57C703.528 189.808 706.221 195.86 707.489 202.279C708.757 208.697 708.566 215.319 706.932 221.654C705.297 227.989 702.26 233.876 698.045 238.88L716.541 257.376C716.85 257.685 717.095 258.052 717.262 258.456C717.429 258.859 717.516 259.292 717.516 259.729C717.516 260.166 717.43 260.599 717.263 261.003C717.095 261.406 716.85 261.773 716.541 262.082C716.232 262.391 715.866 262.637 715.462 262.804C715.058 262.971 714.625 263.057 714.188 263.058C713.751 263.058 713.319 262.972 712.915 262.804C712.511 262.637 712.144 262.392 711.835 262.083L693.384 243.631C686.335 249.795 677.491 253.531 668.157 254.286C658.823 255.042 649.493 252.777 641.544 247.826C633.595 242.876 627.447 235.501 624.009 226.791C620.57 218.08 620.024 208.495 622.448 199.45ZM655.053 174.997C650.357 176.255 645.955 178.426 642.098 181.386C638.241 184.345 635.005 188.035 632.574 192.246C630.144 196.456 628.566 201.104 627.931 205.924C627.297 210.744 627.618 215.641 628.876 220.337C630.134 225.033 632.305 229.435 635.265 233.292C638.224 237.149 641.915 240.385 646.125 242.816C650.335 245.247 654.983 246.824 659.803 247.459C664.623 248.094 669.52 247.773 674.216 246.514C683.7 243.973 691.786 237.769 696.695 229.266C701.604 220.763 702.935 210.658 700.393 201.174C697.852 191.69 691.648 183.605 683.145 178.695C674.642 173.786 664.537 172.456 655.053 174.997Z" fill="#E9393F" fill-opacity="0.25" stroke="#E9393F" stroke-opacity="0.62" stroke-linecap="round" stroke-linejoin="round"/>
<rect x="40" y="246" width="51" height="51" fill="#E9393F" fill-opacity="0.12"/>
<rect x="92" y="194" width="51" height="51" fill="#E9393F" fill-opacity="0.12"/>
<path d="M-116 -66.9688H1327V-65.9688H1288V-14.9688H1327V-13.9688H1288V37.0312H1327V38.0312H1288V89.0312H1327V90.0312H1288V141.031H1327V142.031H1288V193.031H1327V194.031H1288V245.031H1327V246.031H1288V297.031H1327V298.031H1288V349.031H1327V350.031H1288V401.031H1327V402.031H1288V453.031H1327V454.031H1288V472.905H1287V454.031H1236V472.874H1235V454.031H1184V472.843H1183V454.031H1132V472.812H1131V454.031H1080V472.78H1079V454.031H1028V472.749H1027V454.031H976V472.718H975V454.031H924V472.687H923V454.031H872V472.655H871V454.031H820V472.624H819V454.031H768V472.593H767V454.031H716V472.562H715V454.031H664V472.53H663V454.031H612V472.499H611V454.031H560V472.468H559V454.031H508V472.437H507V454.031H456V472.405H455V454.031H404V472.374H403V454.031H352V472.343H351V454.031H300V472.312H299V454.031H248V472.28H247V454.031H196V472.249H195V454.031H144V472.218H143V454.031H92V472.187H91V454.031H40V472.155H39V454.031H-12V472.124H-13V454.031H-64V472.093H-65V454.031H-116V472.062H-117V454.031H-165V453.031H-117V402.031H-165V401.031H-117V350.031H-165V349.031H-117V298.031H-165V297.031H-117V246.031H-165V245.031H-117V194.031H-165V193.031H-117V142.031H-165V141.031H-117V90.0312H-165V89.0312H-117V38.0312H-165V37.0312H-117V-13.9688H-165V-14.9688H-117V-65.9688H-165V-66.9688H-117V-67H-116V-66.9688ZM-116 453.031H-65V402.031H-116V453.031ZM-64 453.031H-13V402.031H-64V453.031ZM-12 453.031H39V402.031H-12V453.031ZM40 453.031H91V402.031H40V453.031ZM92 453.031H143V402.031H92V453.031ZM144 453.031H195V402.031H144V453.031ZM196 453.031H247V402.031H196V453.031ZM248 453.031H299V402.031H248V453.031ZM300 453.031H351V402.031H300V453.031ZM352 453.031H403V402.031H352V453.031ZM404 453.031H455V402.031H404V453.031ZM456 453.031H507V402.031H456V453.031ZM508 453.031H559V402.031H508V453.031ZM560 453.031H611V402.031H560V453.031ZM612 453.031H663V402.031H612V453.031ZM664 453.031H715V402.031H664V453.031ZM716 453.031H767V402.031H716V453.031ZM768 453.031H819V402.031H768V453.031ZM820 453.031H871V402.031H820V453.031ZM872 453.031H923V402.031H872V453.031ZM924 453.031H975V402.031H924V453.031ZM976 453.031H1027V402.031H976V453.031ZM1028 453.031H1079V402.031H1028V453.031ZM1080 453.031H1131V402.031H1080V453.031ZM1132 453.031H1183V402.031H1132V453.031ZM1184 453.031H1235V402.031H1184V453.031ZM1236 453.031H1287V402.031H1236V453.031ZM-116 401.031H-65V350.031H-116V401.031ZM-64 401.031H-13V350.031H-64V401.031ZM-12 401.031H39V350.031H-12V401.031ZM40 401.031H91V350.031H40V401.031ZM92 401.031H143V350.031H92V401.031ZM144 401.031H195V350.031H144V401.031ZM196 401.031H247V350.031H196V401.031ZM248 401.031H299V350.031H248V401.031ZM300 401.031H351V350.031H300V401.031ZM352 401.031H403V350.031H352V401.031ZM404 401.031H455V350.031H404V401.031ZM456 401.031H507V350.031H456V401.031ZM508 401.031H559V350.031H508V401.031ZM560 401.031H611V350.031H560V401.031ZM612 401.031H663V350.031H612V401.031ZM664 401.031H715V350.031H664V401.031ZM716 401.031H767V350.031H716V401.031ZM768 401.031H819V350.031H768V401.031ZM820 401.031H871V350.031H820V401.031ZM872 401.031H923V350.031H872V401.031ZM924 401.031H975V350.031H924V401.031ZM976 401.031H1027V350.031H976V401.031ZM1028 401.031H1079V350.031H1028V401.031ZM1080 401.031H1131V350.031H1080V401.031ZM1132 401.031H1183V350.031H1132V401.031ZM1184 401.031H1235V350.031H1184V401.031ZM1236 401.031H1287V350.031H1236V401.031ZM-116 349.031H-65V298.031H-116V349.031ZM-64 349.031H-13V298.031H-64V349.031ZM-12 349.031H39V298.031H-12V349.031ZM40 349.031H91V298.031H40V349.031ZM92 349.031H143V298.031H92V349.031ZM144 349.031H195V298.031H144V349.031ZM196 349.031H247V298.031H196V349.031ZM248 349.031H299V298.031H248V349.031ZM300 349.031H351V298.031H300V349.031ZM352 349.031H403V298.031H352V349.031ZM404 349.031H455V298.031H404V349.031ZM456 349.031H507V298.031H456V349.031ZM508 349.031H559V298.031H508V349.031ZM560 349.031H611V298.031H560V349.031ZM612 349.031H663V298.031H612V349.031ZM664 349.031H715V298.031H664V349.031ZM716 349.031H767V298.031H716V349.031ZM768 349.031H819V298.031H768V349.031ZM820 349.031H871V298.031H820V349.031ZM872 349.031H923V298.031H872V349.031ZM924 349.031H975V298.031H924V349.031ZM976 349.031H1027V298.031H976V349.031ZM1028 349.031H1079V298.031H1028V349.031ZM1080 349.031H1131V298.031H1080V349.031ZM1132 349.031H1183V298.031H1132V349.031ZM1184 349.031H1235V298.031H1184V349.031ZM1236 349.031H1287V298.031H1236V349.031ZM-116 297.031H-65V246.031H-116V297.031ZM-64 297.031H-13V246.031H-64V297.031ZM-12 297.031H39V246.031H-12V297.031ZM40 297.031H91V246.031H40V297.031ZM92 297.031H143V246.031H92V297.031ZM144 297.031H195V246.031H144V297.031ZM196 297.031H247V246.031H196V297.031ZM248 297.031H299V246.031H248V297.031ZM300 297.031H351V246.031H300V297.031ZM352 297.031H403V246.031H352V297.031ZM404 297.031H455V246.031H404V297.031ZM456 297.031H507V246.031H456V297.031ZM508 297.031H559V246.031H508V297.031ZM560 297.031H611V246.031H560V297.031ZM612 297.031H663V246.031H612V297.031ZM664 297.031H715V246.031H664V297.031ZM716 297.031H767V246.031H716V297.031ZM768 297.031H819V246.031H768V297.031ZM820 297.031H871V246.031H820V297.031ZM872 297.031H923V246.031H872V297.031ZM924 297.031H975V246.031H924V297.031ZM976 297.031H1027V246.031H976V297.031ZM1028 297.031H1079V246.031H1028V297.031ZM1080 297.031H1131V246.031H1080V297.031ZM1132 297.031H1183V246.031H1132V297.031ZM1184 297.031H1235V246.031H1184V297.031ZM1236 297.031H1287V246.031H1236V297.031ZM-116 245.031H-65V194.031H-116V245.031ZM-64 245.031H-13V194.031H-64V245.031ZM-12 245.031H39V194.031H-12V245.031ZM40 245.031H91V194.031H40V245.031ZM92 245.031H143V194.031H92V245.031ZM144 245.031H195V194.031H144V245.031ZM196 245.031H247V194.031H196V245.031ZM248 245.031H299V194.031H248V245.031ZM300 245.031H351V194.031H300V245.031ZM352 245.031H403V194.031H352V245.031ZM404 245.031H455V194.031H404V245.031ZM456 245.031H507V194.031H456V245.031ZM508 245.031H559V194.031H508V245.031ZM560 245.031H611V194.031H560V245.031ZM612 245.031H663V194.031H612V245.031ZM664 245.031H715V194.031H664V245.031ZM716 245.031H767V194.031H716V245.031ZM768 245.031H819V194.031H768V245.031ZM820 245.031H871V194.031H820V245.031ZM872 245.031H923V194.031H872V245.031ZM924 245.031H975V194.031H924V245.031ZM976 245.031H1027V194.031H976V245.031ZM1028 245.031H1079V194.031H1028V245.031ZM1080 245.031H1131V194.031H1080V245.031ZM1132 245.031H1183V194.031H1132V245.031ZM1184 245.031H1235V194.031H1184V245.031ZM1236 245.031H1287V194.031H1236V245.031ZM-116 193.031H-65V142.031H-116V193.031ZM-64 193.031H-13V142.031H-64V193.031ZM-12 193.031H39V142.031H-12V193.031ZM40 193.031H91V142.031H40V193.031ZM92 193.031H143V142.031H92V193.031ZM144 193.031H195V142.031H144V193.031ZM196 193.031H247V142.031H196V193.031ZM248 193.031H299V142.031H248V193.031ZM300 193.031H351V142.031H300V193.031ZM352 193.031H403V142.031H352V193.031ZM404 193.031H455V142.031H404V193.031ZM456 193.031H507V142.031H456V193.031ZM508 193.031H559V142.031H508V193.031ZM560 193.031H611V142.031H560V193.031ZM612 193.031H663V142.031H612V193.031ZM664 193.031H715V142.031H664V193.031ZM716 193.031H767V142.031H716V193.031ZM768 193.031H819V142.031H768V193.031ZM820 193.031H871V142.031H820V193.031ZM872 193.031H923V142.031H872V193.031ZM924 193.031H975V142.031H924V193.031ZM976 193.031H1027V142.031H976V193.031ZM1028 193.031H1079V142.031H1028V193.031ZM1080 193.031H1131V142.031H1080V193.031ZM1132 193.031H1183V142.031H1132V193.031ZM1184 193.031H1235V142.031H1184V193.031ZM1236 193.031H1287V142.031H1236V193.031ZM-116 141.031H-65V90.0312H-116V141.031ZM-64 141.031H-13V90.0312H-64V141.031ZM-12 141.031H39V90.0312H-12V141.031ZM40 141.031H91V90.0312H40V141.031ZM92 141.031H143V90.0312H92V141.031ZM144 141.031H195V90.0312H144V141.031ZM196 141.031H247V90.0312H196V141.031ZM248 141.031H299V90.0312H248V141.031ZM300 141.031H351V90.0312H300V141.031ZM352 141.031H403V90.0312H352V141.031ZM404 141.031H455V90.0312H404V141.031ZM456 141.031H507V90.0312H456V141.031ZM508 141.031H559V90.0312H508V141.031ZM560 141.031H611V90.0312H560V141.031ZM612 141.031H663V90.0312H612V141.031ZM664 141.031H715V90.0312H664V141.031ZM716 141.031H767V90.0312H716V141.031ZM768 141.031H819V90.0312H768V141.031ZM820 141.031H871V90.0312H820V141.031ZM872 141.031H923V90.0312H872V141.031ZM924 141.031H975V90.0312H924V141.031ZM976 141.031H1027V90.0312H976V141.031ZM1028 141.031H1079V90.0312H1028V141.031ZM1080 141.031H1131V90.0312H1080V141.031ZM1132 141.031H1183V90.0312H1132V141.031ZM1184 141.031H1235V90.0312H1184V141.031ZM1236 141.031H1287V90.0312H1236V141.031ZM-116 89.0312H-65V38.0312H-116V89.0312ZM-64 89.0312H-13V38.0312H-64V89.0312ZM-12 89.0312H39V38.0312H-12V89.0312ZM40 89.0312H91V38.0312H40V89.0312ZM92 89.0312H143V38.0312H92V89.0312ZM144 89.0312H195V38.0312H144V89.0312ZM196 89.0312H247V38.0312H196V89.0312ZM248 89.0312H299V38.0312H248V89.0312ZM300 89.0312H351V38.0312H300V89.0312ZM352 89.0312H403V38.0312H352V89.0312ZM404 89.0312H455V38.0312H404V89.0312ZM456 89.0312H507V38.0312H456V89.0312ZM508 89.0312H559V38.0312H508V89.0312ZM560 89.0312H611V38.0312H560V89.0312ZM612 89.0312H663V38.0312H612V89.0312ZM664 89.0312H715V38.0312H664V89.0312ZM716 89.0312H767V38.0312H716V89.0312ZM768 89.0312H819V38.0312H768V89.0312ZM820 89.0312H871V38.0312H820V89.0312ZM872 89.0312H923V38.0312H872V89.0312ZM924 89.0312H975V38.0312H924V89.0312ZM976 89.0312H1027V38.0312H976V89.0312ZM1028 89.0312H1079V38.0312H1028V89.0312ZM1080 89.0312H1131V38.0312H1080V89.0312ZM1132 89.0312H1183V38.0312H1132V89.0312ZM1184 89.0312H1235V38.0312H1184V89.0312ZM1236 89.0312H1287V38.0312H1236V89.0312ZM-116 37.0312H-65V-13.9688H-116V37.0312ZM-64 37.0312H-13V-13.9688H-64V37.0312ZM-12 37.0312H39V-13.9688H-12V37.0312ZM40 37.0312H91V-13.9688H40V37.0312ZM92 37.0312H143V-13.9688H92V37.0312ZM144 37.0312H195V-13.9688H144V37.0312ZM196 37.0312H247V-13.9688H196V37.0312ZM248 37.0312H299V-13.9688H248V37.0312ZM300 37.0312H351V-13.9688H300V37.0312ZM352 37.0312H403V-13.9688H352V37.0312ZM404 37.0312H455V-13.9688H404V37.0312ZM456 37.0312H507V-13.9688H456V37.0312ZM508 37.0312H559V-13.9688H508V37.0312ZM560 37.0312H611V-13.9688H560V37.0312ZM612 37.0312H663V-13.9688H612V37.0312ZM664 37.0312H715V-13.9688H664V37.0312ZM716 37.0312H767V-13.9688H716V37.0312ZM768 37.0312H819V-13.9688H768V37.0312ZM820 37.0312H871V-13.9688H820V37.0312ZM872 37.0312H923V-13.9688H872V37.0312ZM924 37.0312H975V-13.9688H924V37.0312ZM976 37.0312H1027V-13.9688H976V37.0312ZM1028 37.0312H1079V-13.9688H1028V37.0312ZM1080 37.0312H1131V-13.9688H1080V37.0312ZM1132 37.0312H1183V-13.9688H1132V37.0312ZM1184 37.0312H1235V-13.9688H1184V37.0312ZM1236 37.0312H1287V-13.9688H1236V37.0312ZM-116 -14.9688H-65V-65.9688H-116V-14.9688ZM-64 -14.9688H-13V-65.9688H-64V-14.9688ZM-12 -14.9688H39V-65.9688H-12V-14.9688ZM40 -14.9688H91V-65.9688H40V-14.9688ZM92 -14.9688H143V-65.9688H92V-14.9688ZM144 -14.9688H195V-65.9688H144V-14.9688ZM196 -14.9688H247V-65.9688H196V-14.9688ZM248 -14.9688H299V-65.9688H248V-14.9688ZM300 -14.9688H351V-65.9688H300V-14.9688ZM352 -14.9688H403V-65.9688H352V-14.9688ZM404 -14.9688H455V-65.9688H404V-14.9688ZM456 -14.9688H507V-65.9688H456V-14.9688ZM508 -14.9688H559V-65.9688H508V-14.9688ZM560 -14.9688H611V-65.9688H560V-14.9688ZM612 -14.9688H663V-65.9688H612V-14.9688ZM664 -14.9688H715V-65.9688H664V-14.9688ZM716 -14.9688H767V-65.9688H716V-14.9688ZM768 -14.9688H819V-65.9688H768V-14.9688ZM820 -14.9688H871V-65.9688H820V-14.9688ZM872 -14.9688H923V-65.9688H872V-14.9688ZM924 -14.9688H975V-65.9688H924V-14.9688ZM976 -14.9688H1027V-65.9688H976V-14.9688ZM1028 -14.9688H1079V-65.9688H1028V-14.9688ZM1080 -14.9688H1131V-65.9688H1080V-14.9688ZM1132 -14.9688H1183V-65.9688H1132V-14.9688ZM1184 -14.9688H1235V-65.9688H1184V-14.9688ZM1236 -14.9688H1287V-65.9688H1236V-14.9688Z" fill="#E9393F" fill-opacity="0.06"/>
<path d="M663.5 35V37.5M663.5 37.5H661M663.5 37.5H666M663.5 37.5V40M661 89.5H663.5M663.5 89.5V87M663.5 89.5V92M663.5 89.5H666M713 89.5H715.5M718 89.5H715.5M715.5 89.5V87V92V89.5ZM715.5 40V37.5M715.5 35V37.5M715.5 37.5H718M715.5 37.5H713" stroke="#E9393F" stroke-opacity="0.62"/>
</g>
</g>
<defs>
<linearGradient id="paint0_linear_2477_3" x1="793" y1="0" x2="172" y2="322" gradientUnits="userSpaceOnUse">
<stop stop-color="#E9393F"/>
<stop offset="0.640246" stop-color="#202020"/>
</linearGradient>
<linearGradient id="paint1_linear_2477_3" x1="493.438" y1="88.2826" x2="493.438" y2="277.893" gradientUnits="userSpaceOnUse">
<stop stop-color="#E9393F"/>
<stop offset="1" stop-color="#202020"/>
</linearGradient>
<linearGradient id="paint2_linear_2477_3" x1="493.44" y1="88.2833" x2="493.44" y2="277.894" gradientUnits="userSpaceOnUse">
<stop stop-color="#E9393F"/>
<stop offset="1" stop-color="#202020"/>
</linearGradient>
<linearGradient id="paint3_linear_2477_3" x1="501.918" y1="247.202" x2="254.574" y2="251.877" gradientUnits="userSpaceOnUse">
<stop stop-color="#E9393F"/>
<stop offset="1" stop-color="#202020"/>
</linearGradient>
<clipPath id="clip0_2477_3">
<rect width="793" height="345" fill="white"/>
</clipPath>
<clipPath id="clip1_2477_3">
<rect width="793" height="345" fill="white"/>
</clipPath>
</defs>
</svg>
