<svg width="520" height="345" viewBox="0 0 520 345" fill="none" xmlns="http://www.w3.org/2000/svg">
<g clip-path="url(#clip0_2477_73)">
<rect width="520" height="345" fill="black"/>
<g clip-path="url(#clip1_2477_73)">
<rect width="520" height="345" fill="url(#paint0_linear_2477_73)" fill-opacity="0.16"/>
<path d="M-261 -23.9688H1182V-22.9688H1143V28.0312H1182V29.0312H1143V80.0312H1182V81.0312H1143V132.031H1182V133.031H1143V184.031H1182V185.031H1143V236.031H1182V237.031H1143V288.031H1182V289.031H1143V340.031H1182V341.031H1143V392.031H1182V393.031H1143V444.031H1182V445.031H1143V496.031H1182V497.031H1143V515.905H1142V497.031H1091V515.874H1090V497.031H1039V515.843H1038V497.031H987V515.812H986V497.031H935V515.78H934V497.031H883V515.749H882V497.031H831V515.718H830V497.031H779V515.687H778V497.031H727V515.655H726V497.031H675V515.624H674V497.031H623V515.593H622V497.031H571V515.562H570V497.031H519V515.53H518V497.031H467V515.499H466V497.031H415V515.468H414V497.031H363V515.437H362V497.031H311V515.405H310V497.031H259V515.374H258V497.031H207V515.343H206V497.031H155V515.312H154V497.031H103V515.28H102V497.031H51V515.249H50V497.031H-1V515.218H-2V497.031H-53V515.187H-54V497.031H-105V515.155H-106V497.031H-157V515.124H-158V497.031H-209V515.093H-210V497.031H-261V515.062H-262V497.031H-310V496.031H-262V445.031H-310V444.031H-262V393.031H-310V392.031H-262V341.031H-310V340.031H-262V289.031H-310V288.031H-262V237.031H-310V236.031H-262V185.031H-310V184.031H-262V133.031H-310V132.031H-262V81.0312H-310V80.0312H-262V29.0312H-310V28.0312H-262V-22.9688H-310V-23.9688H-262V-24H-261V-23.9688ZM-261 496.031H-210V445.031H-261V496.031ZM-209 496.031H-158V445.031H-209V496.031ZM-157 496.031H-106V445.031H-157V496.031ZM-105 496.031H-54V445.031H-105V496.031ZM-53 496.031H-2V445.031H-53V496.031ZM-1 496.031H50V445.031H-1V496.031ZM51 496.031H102V445.031H51V496.031ZM103 496.031H154V445.031H103V496.031ZM155 496.031H206V445.031H155V496.031ZM207 496.031H258V445.031H207V496.031ZM259 496.031H310V445.031H259V496.031ZM311 496.031H362V445.031H311V496.031ZM363 496.031H414V445.031H363V496.031ZM415 496.031H466V445.031H415V496.031ZM467 496.031H518V445.031H467V496.031ZM519 496.031H570V445.031H519V496.031ZM571 496.031H622V445.031H571V496.031ZM623 496.031H674V445.031H623V496.031ZM675 496.031H726V445.031H675V496.031ZM727 496.031H778V445.031H727V496.031ZM779 496.031H830V445.031H779V496.031ZM831 496.031H882V445.031H831V496.031ZM883 496.031H934V445.031H883V496.031ZM935 496.031H986V445.031H935V496.031ZM987 496.031H1038V445.031H987V496.031ZM1039 496.031H1090V445.031H1039V496.031ZM1091 496.031H1142V445.031H1091V496.031ZM-261 444.031H-210V393.031H-261V444.031ZM-209 444.031H-158V393.031H-209V444.031ZM-157 444.031H-106V393.031H-157V444.031ZM-105 444.031H-54V393.031H-105V444.031ZM-53 444.031H-2V393.031H-53V444.031ZM-1 444.031H50V393.031H-1V444.031ZM51 444.031H102V393.031H51V444.031ZM103 444.031H154V393.031H103V444.031ZM155 444.031H206V393.031H155V444.031ZM207 444.031H258V393.031H207V444.031ZM259 444.031H310V393.031H259V444.031ZM311 444.031H362V393.031H311V444.031ZM363 444.031H414V393.031H363V444.031ZM415 444.031H466V393.031H415V444.031ZM467 444.031H518V393.031H467V444.031ZM519 444.031H570V393.031H519V444.031ZM571 444.031H622V393.031H571V444.031ZM623 444.031H674V393.031H623V444.031ZM675 444.031H726V393.031H675V444.031ZM727 444.031H778V393.031H727V444.031ZM779 444.031H830V393.031H779V444.031ZM831 444.031H882V393.031H831V444.031ZM883 444.031H934V393.031H883V444.031ZM935 444.031H986V393.031H935V444.031ZM987 444.031H1038V393.031H987V444.031ZM1039 444.031H1090V393.031H1039V444.031ZM1091 444.031H1142V393.031H1091V444.031ZM-261 392.031H-210V341.031H-261V392.031ZM-209 392.031H-158V341.031H-209V392.031ZM-157 392.031H-106V341.031H-157V392.031ZM-105 392.031H-54V341.031H-105V392.031ZM-53 392.031H-2V341.031H-53V392.031ZM-1 392.031H50V341.031H-1V392.031ZM51 392.031H102V341.031H51V392.031ZM103 392.031H154V341.031H103V392.031ZM155 392.031H206V341.031H155V392.031ZM207 392.031H258V341.031H207V392.031ZM259 392.031H310V341.031H259V392.031ZM311 392.031H362V341.031H311V392.031ZM363 392.031H414V341.031H363V392.031ZM415 392.031H466V341.031H415V392.031ZM467 392.031H518V341.031H467V392.031ZM519 392.031H570V341.031H519V392.031ZM571 392.031H622V341.031H571V392.031ZM623 392.031H674V341.031H623V392.031ZM675 392.031H726V341.031H675V392.031ZM727 392.031H778V341.031H727V392.031ZM779 392.031H830V341.031H779V392.031ZM831 392.031H882V341.031H831V392.031ZM883 392.031H934V341.031H883V392.031ZM935 392.031H986V341.031H935V392.031ZM987 392.031H1038V341.031H987V392.031ZM1039 392.031H1090V341.031H1039V392.031ZM1091 392.031H1142V341.031H1091V392.031ZM-261 340.031H-210V289.031H-261V340.031ZM-209 340.031H-158V289.031H-209V340.031ZM-157 340.031H-106V289.031H-157V340.031ZM-105 340.031H-54V289.031H-105V340.031ZM-53 340.031H-2V289.031H-53V340.031ZM-1 340.031H50V289.031H-1V340.031ZM51 340.031H102V289.031H51V340.031ZM103 340.031H154V289.031H103V340.031ZM155 340.031H206V289.031H155V340.031ZM207 340.031H258V289.031H207V340.031ZM259 340.031H310V289.031H259V340.031ZM311 340.031H362V289.031H311V340.031ZM363 340.031H414V289.031H363V340.031ZM415 340.031H466V289.031H415V340.031ZM467 340.031H518V289.031H467V340.031ZM519 340.031H570V289.031H519V340.031ZM571 340.031H622V289.031H571V340.031ZM623 340.031H674V289.031H623V340.031ZM675 340.031H726V289.031H675V340.031ZM727 340.031H778V289.031H727V340.031ZM779 340.031H830V289.031H779V340.031ZM831 340.031H882V289.031H831V340.031ZM883 340.031H934V289.031H883V340.031ZM935 340.031H986V289.031H935V340.031ZM987 340.031H1038V289.031H987V340.031ZM1039 340.031H1090V289.031H1039V340.031ZM1091 340.031H1142V289.031H1091V340.031ZM-261 288.031H-210V237.031H-261V288.031ZM-209 288.031H-158V237.031H-209V288.031ZM-157 288.031H-106V237.031H-157V288.031ZM-105 288.031H-54V237.031H-105V288.031ZM-53 288.031H-2V237.031H-53V288.031ZM-1 288.031H50V237.031H-1V288.031ZM51 288.031H102V237.031H51V288.031ZM103 288.031H154V237.031H103V288.031ZM155 288.031H206V237.031H155V288.031ZM207 288.031H258V237.031H207V288.031ZM259 288.031H310V237.031H259V288.031ZM311 288.031H362V237.031H311V288.031ZM363 288.031H414V237.031H363V288.031ZM415 288.031H466V237.031H415V288.031ZM467 288.031H518V237.031H467V288.031ZM519 288.031H570V237.031H519V288.031ZM571 288.031H622V237.031H571V288.031ZM623 288.031H674V237.031H623V288.031ZM675 288.031H726V237.031H675V288.031ZM727 288.031H778V237.031H727V288.031ZM779 288.031H830V237.031H779V288.031ZM831 288.031H882V237.031H831V288.031ZM883 288.031H934V237.031H883V288.031ZM935 288.031H986V237.031H935V288.031ZM987 288.031H1038V237.031H987V288.031ZM1039 288.031H1090V237.031H1039V288.031ZM1091 288.031H1142V237.031H1091V288.031ZM-261 236.031H-210V185.031H-261V236.031ZM-209 236.031H-158V185.031H-209V236.031ZM-157 236.031H-106V185.031H-157V236.031ZM-105 236.031H-54V185.031H-105V236.031ZM-53 236.031H-2V185.031H-53V236.031ZM-1 236.031H50V185.031H-1V236.031ZM51 236.031H102V185.031H51V236.031ZM103 236.031H154V185.031H103V236.031ZM155 236.031H206V185.031H155V236.031ZM207 236.031H258V185.031H207V236.031ZM259 236.031H310V185.031H259V236.031ZM311 236.031H362V185.031H311V236.031ZM363 236.031H414V185.031H363V236.031ZM415 236.031H466V185.031H415V236.031ZM467 236.031H518V185.031H467V236.031ZM519 236.031H570V185.031H519V236.031ZM571 236.031H622V185.031H571V236.031ZM623 236.031H674V185.031H623V236.031ZM675 236.031H726V185.031H675V236.031ZM727 236.031H778V185.031H727V236.031ZM779 236.031H830V185.031H779V236.031ZM831 236.031H882V185.031H831V236.031ZM883 236.031H934V185.031H883V236.031ZM935 236.031H986V185.031H935V236.031ZM987 236.031H1038V185.031H987V236.031ZM1039 236.031H1090V185.031H1039V236.031ZM1091 236.031H1142V185.031H1091V236.031ZM-261 184.031H-210V133.031H-261V184.031ZM-209 184.031H-158V133.031H-209V184.031ZM-157 184.031H-106V133.031H-157V184.031ZM-105 184.031H-54V133.031H-105V184.031ZM-53 184.031H-2V133.031H-53V184.031ZM-1 184.031H50V133.031H-1V184.031ZM51 184.031H102V133.031H51V184.031ZM103 184.031H154V133.031H103V184.031ZM155 184.031H206V133.031H155V184.031ZM207 184.031H258V133.031H207V184.031ZM259 184.031H310V133.031H259V184.031ZM311 184.031H362V133.031H311V184.031ZM363 184.031H414V133.031H363V184.031ZM415 184.031H466V133.031H415V184.031ZM467 184.031H518V133.031H467V184.031ZM519 184.031H570V133.031H519V184.031ZM571 184.031H622V133.031H571V184.031ZM623 184.031H674V133.031H623V184.031ZM675 184.031H726V133.031H675V184.031ZM727 184.031H778V133.031H727V184.031ZM779 184.031H830V133.031H779V184.031ZM831 184.031H882V133.031H831V184.031ZM883 184.031H934V133.031H883V184.031ZM935 184.031H986V133.031H935V184.031ZM987 184.031H1038V133.031H987V184.031ZM1039 184.031H1090V133.031H1039V184.031ZM1091 184.031H1142V133.031H1091V184.031ZM-261 132.031H-210V81.0312H-261V132.031ZM-209 132.031H-158V81.0312H-209V132.031ZM-157 132.031H-106V81.0312H-157V132.031ZM-105 132.031H-54V81.0312H-105V132.031ZM-53 132.031H-2V81.0312H-53V132.031ZM-1 132.031H50V81.0312H-1V132.031ZM51 132.031H102V81.0312H51V132.031ZM103 132.031H154V81.0312H103V132.031ZM155 132.031H206V81.0312H155V132.031ZM207 132.031H258V81.0312H207V132.031ZM259 132.031H310V81.0312H259V132.031ZM311 132.031H362V81.0312H311V132.031ZM363 132.031H414V81.0312H363V132.031ZM415 132.031H466V81.0312H415V132.031ZM467 132.031H518V81.0312H467V132.031ZM519 132.031H570V81.0312H519V132.031ZM571 132.031H622V81.0312H571V132.031ZM623 132.031H674V81.0312H623V132.031ZM675 132.031H726V81.0312H675V132.031ZM727 132.031H778V81.0312H727V132.031ZM779 132.031H830V81.0312H779V132.031ZM831 132.031H882V81.0312H831V132.031ZM883 132.031H934V81.0312H883V132.031ZM935 132.031H986V81.0312H935V132.031ZM987 132.031H1038V81.0312H987V132.031ZM1039 132.031H1090V81.0312H1039V132.031ZM1091 132.031H1142V81.0312H1091V132.031ZM-261 80.0312H-210V29.0312H-261V80.0312ZM-209 80.0312H-158V29.0312H-209V80.0312ZM-157 80.0312H-106V29.0312H-157V80.0312ZM-105 80.0312H-54V29.0312H-105V80.0312ZM-53 80.0312H-2V29.0312H-53V80.0312ZM-1 80.0312H50V29.0312H-1V80.0312ZM51 80.0312H102V29.0312H51V80.0312ZM103 80.0312H154V29.0312H103V80.0312ZM155 80.0312H206V29.0312H155V80.0312ZM207 80.0312H258V29.0312H207V80.0312ZM259 80.0312H310V29.0312H259V80.0312ZM311 80.0312H362V29.0312H311V80.0312ZM363 80.0312H414V29.0312H363V80.0312ZM415 80.0312H466V29.0312H415V80.0312ZM467 80.0312H518V29.0312H467V80.0312ZM519 80.0312H570V29.0312H519V80.0312ZM571 80.0312H622V29.0312H571V80.0312ZM623 80.0312H674V29.0312H623V80.0312ZM675 80.0312H726V29.0312H675V80.0312ZM727 80.0312H778V29.0312H727V80.0312ZM779 80.0312H830V29.0312H779V80.0312ZM831 80.0312H882V29.0312H831V80.0312ZM883 80.0312H934V29.0312H883V80.0312ZM935 80.0312H986V29.0312H935V80.0312ZM987 80.0312H1038V29.0312H987V80.0312ZM1039 80.0312H1090V29.0312H1039V80.0312ZM1091 80.0312H1142V29.0312H1091V80.0312ZM-261 28.0312H-210V-22.9688H-261V28.0312ZM-209 28.0312H-158V-22.9688H-209V28.0312ZM-157 28.0312H-106V-22.9688H-157V28.0312ZM-105 28.0312H-54V-22.9688H-105V28.0312ZM-53 28.0312H-2V-22.9688H-53V28.0312ZM-1 28.0312H50V-22.9688H-1V28.0312ZM51 28.0312H102V-22.9688H51V28.0312ZM103 28.0312H154V-22.9688H103V28.0312ZM155 28.0312H206V-22.9688H155V28.0312ZM207 28.0312H258V-22.9688H207V28.0312ZM259 28.0312H310V-22.9688H259V28.0312ZM311 28.0312H362V-22.9688H311V28.0312ZM363 28.0312H414V-22.9688H363V28.0312ZM415 28.0312H466V-22.9688H415V28.0312ZM467 28.0312H518V-22.9688H467V28.0312ZM519 28.0312H570V-22.9688H519V28.0312ZM571 28.0312H622V-22.9688H571V28.0312ZM623 28.0312H674V-22.9688H623V28.0312ZM675 28.0312H726V-22.9688H675V28.0312ZM727 28.0312H778V-22.9688H727V28.0312ZM779 28.0312H830V-22.9688H779V28.0312ZM831 28.0312H882V-22.9688H831V28.0312ZM883 28.0312H934V-22.9688H883V28.0312ZM935 28.0312H986V-22.9688H935V28.0312ZM987 28.0312H1038V-22.9688H987V28.0312ZM1039 28.0312H1090V-22.9688H1039V28.0312ZM1091 28.0312H1142V-22.9688H1091V28.0312Z" fill="#E9393F" fill-opacity="0.06"/>
<path d="M320.5 426L197 211.5L302 151L415.5 349" stroke="#E9393F" stroke-opacity="0.62" stroke-linecap="round" stroke-dasharray="3 3"/>
<path d="M197 211.5L320.5 426L415.5 349L302 151L197 211.5Z" fill="url(#paint1_linear_2477_73)" fill-opacity="0.36"/>
<path d="M294 137L302 151L315.5 142.5L307.5 129L294 137Z" stroke="#E9393F" stroke-opacity="0.62" stroke-linecap="round"/>
<path d="M189 197.5L197 211.5L183 220L175 206L189 197.5Z" stroke="#E9393F" stroke-opacity="0.62" stroke-linecap="round"/>
<path d="M-4.5 244L83 144L79 140.5L75.5 144.5L132.5 194L136 190L132 186.5L-5 344.5" stroke="#E9393F" stroke-opacity="0.62" stroke-linecap="round"/>
<path d="M79.5131 147.984L-4.5 243.999L-5 344.499L128.505 190.53L79.5131 147.984Z" fill="url(#paint2_linear_2477_73)" fill-opacity="0.36" stroke="#E9393F" stroke-opacity="0.62" stroke-linecap="round"/>
<rect x="467" y="133" width="51" height="51" fill="#E9393F" fill-opacity="0.12"/>
<rect x="415" y="185" width="51" height="51" fill="#E9393F" fill-opacity="0.12"/>
<path d="M102.5 234V236.5M102.5 236.5H100M102.5 236.5H105M102.5 236.5V239M100 288.5H102.5M102.5 288.5V286M102.5 288.5V291M102.5 288.5H105M152 288.5H154.5M157 288.5H154.5M154.5 288.5V286V291V288.5ZM154.5 239V236.5M154.5 234V236.5M154.5 236.5H157M154.5 236.5H152" stroke="#E9393F" stroke-opacity="0.62"/>
</g>
</g>
<defs>
<linearGradient id="paint0_linear_2477_73" x1="0" y1="0" x2="260" y2="345" gradientUnits="userSpaceOnUse">
<stop stop-color="#E9393F"/>
<stop offset="1" stop-color="#202020"/>
</linearGradient>
<linearGradient id="paint1_linear_2477_73" x1="247" y1="185" x2="373.5" y2="392.5" gradientUnits="userSpaceOnUse">
<stop stop-color="#E9393F"/>
<stop offset="1" stop-color="#202020"/>
</linearGradient>
<linearGradient id="paint2_linear_2477_73" x1="101" y1="166.5" x2="-18" y2="308.5" gradientUnits="userSpaceOnUse">
<stop stop-color="#E9393F"/>
<stop offset="1" stop-color="#202020"/>
</linearGradient>
<clipPath id="clip0_2477_73">
<rect width="520" height="345" fill="white"/>
</clipPath>
<clipPath id="clip1_2477_73">
<rect width="520" height="345" fill="white"/>
</clipPath>
</defs>
</svg>
