<svg width="1920" height="1080" viewBox="0 0 1920 1080" fill="none" xmlns="http://www.w3.org/2000/svg">
<g clip-path="url(#clip0_5_178)">
<rect width="1920" height="1080" fill="#131313"/>
<g opacity="0.48" filter="url(#filter0_f_5_178)" style="mix-blend-mode:plus-lighter">
<ellipse cx="959.69" cy="1301.41" rx="521.689" ry="343.206" transform="rotate(-180 959.69 1301.41)" fill="#2388FF"/>
</g>
<g opacity="0.8" filter="url(#filter1_f_5_178)" style="mix-blend-mode:plus-lighter">
<path d="M1107.11 1365.19L810.68 1365.19L856.361 91.0001L1037.72 91.0001L1107.11 1365.19Z" fill="url(#paint0_linear_5_178)"/>
</g>
<g opacity="0.3" filter="url(#filter2_f_5_178)" style="mix-blend-mode:plus-lighter">
<rect width="296.265" height="1255.29" transform="matrix(-0.999696 -0.024643 0.06488 -0.997893 1344.9 1732.09)" fill="url(#paint1_linear_5_178)"/>
</g>
<g opacity="0.3" filter="url(#filter3_f_5_178)" style="mix-blend-mode:plus-lighter">
<rect width="296.265" height="1255.29" transform="matrix(0.999696 -0.0246428 -0.0648798 -0.997893 539.925 1716.68)" fill="url(#paint2_linear_5_178)"/>
</g>
<g opacity="0.3" filter="url(#filter4_f_5_178)">
<path d="M1347.02 1629.18L1050.67 1633.61L1006.05 380.33L1302.4 375.897L1347.02 1629.18Z" fill="url(#paint3_linear_5_178)"/>
</g>
<g opacity="0.3" filter="url(#filter5_f_5_178)">
<path d="M856.277 1633.61L560.312 1622.95L667.63 371.266L963.595 381.927L856.277 1633.61Z" fill="url(#paint4_linear_5_178)"/>
</g>
<path d="M645.619 632.403C643.133 632.403 640.885 631.978 638.876 631.126C636.901 630.275 635.335 629.049 634.177 627.449C633.019 625.848 632.423 623.958 632.389 621.779H640.051C640.153 623.243 640.664 624.401 641.583 625.252C642.537 626.104 643.831 626.529 645.465 626.529C647.134 626.529 648.445 626.138 649.399 625.354C650.352 624.537 650.829 623.481 650.829 622.187C650.829 621.132 650.505 620.264 649.858 619.582C649.211 618.901 648.394 618.374 647.406 617.999C646.453 617.59 645.125 617.148 643.422 616.671C641.107 615.99 639.217 615.326 637.753 614.679C636.322 613.998 635.079 612.993 634.024 611.665C633.002 610.303 632.491 608.498 632.491 606.251C632.491 604.14 633.019 602.301 634.075 600.734C635.131 599.168 636.612 597.976 638.519 597.159C640.426 596.308 642.605 595.882 645.057 595.882C648.735 595.882 651.714 596.784 653.996 598.589C656.311 600.36 657.588 602.846 657.826 606.047H649.96C649.892 604.821 649.364 603.816 648.377 603.033C647.423 602.216 646.147 601.807 644.546 601.807C643.15 601.807 642.026 602.165 641.175 602.88C640.358 603.595 639.949 604.633 639.949 605.996C639.949 606.949 640.255 607.749 640.868 608.396C641.515 609.009 642.299 609.52 643.218 609.929C644.171 610.303 645.5 610.746 647.202 611.257C649.518 611.938 651.408 612.619 652.872 613.3C654.336 613.981 655.596 615.002 656.652 616.365C657.707 617.727 658.235 619.514 658.235 621.728C658.235 623.635 657.741 625.405 656.754 627.04C655.766 628.674 654.319 629.985 652.412 630.973C650.505 631.926 648.241 632.403 645.619 632.403Z" fill="white"/>
<path d="M691.558 603.748V632.046H684.355V628.47C683.436 629.696 682.227 630.667 680.729 631.382C679.265 632.063 677.664 632.403 675.927 632.403C673.714 632.403 671.756 631.943 670.053 631.024C668.351 630.071 667.006 628.691 666.018 626.887C665.065 625.048 664.588 622.869 664.588 620.349V603.748H671.739V619.327C671.739 621.575 672.301 623.311 673.425 624.537C674.548 625.729 676.081 626.325 678.022 626.325C679.997 626.325 681.546 625.729 682.67 624.537C683.794 623.311 684.355 621.575 684.355 619.327V603.748H691.558Z" fill="white"/>
<path d="M709.85 632.505C707.535 632.505 705.458 632.097 703.619 631.279C701.78 630.428 700.316 629.287 699.226 627.857C698.17 626.427 697.592 624.844 697.489 623.107H704.692C704.828 624.197 705.356 625.099 706.275 625.814C707.228 626.529 708.403 626.887 709.799 626.887C711.161 626.887 712.217 626.614 712.966 626.069C713.749 625.525 714.141 624.827 714.141 623.975C714.141 623.056 713.664 622.375 712.711 621.932C711.791 621.455 710.31 620.945 708.267 620.4C706.156 619.889 704.419 619.361 703.057 618.816C701.729 618.271 700.571 617.437 699.584 616.313C698.63 615.19 698.153 613.674 698.153 611.767C698.153 610.201 698.596 608.771 699.482 607.477C700.401 606.183 701.695 605.161 703.363 604.412C705.066 603.663 707.058 603.288 709.34 603.288C712.711 603.288 715.401 604.14 717.41 605.842C719.419 607.511 720.526 609.775 720.73 612.636H713.886C713.784 611.512 713.307 610.627 712.455 609.98C711.638 609.299 710.532 608.958 709.135 608.958C707.841 608.958 706.837 609.196 706.122 609.673C705.441 610.15 705.1 610.814 705.1 611.665C705.1 612.619 705.577 613.351 706.53 613.862C707.484 614.338 708.965 614.832 710.974 615.343C713.017 615.854 714.703 616.382 716.031 616.926C717.359 617.471 718.5 618.323 719.453 619.48C720.441 620.604 720.952 622.102 720.986 623.975C720.986 625.61 720.526 627.074 719.606 628.368C718.721 629.662 717.427 630.684 715.725 631.433C714.056 632.148 712.098 632.505 709.85 632.505Z" fill="white"/>
<path d="M735.59 609.622V623.311C735.59 624.265 735.811 624.963 736.254 625.405C736.731 625.814 737.514 626.018 738.604 626.018H741.924V632.046H737.429C731.402 632.046 728.388 629.117 728.388 623.26V609.622H725.017V603.748H728.388V596.75H735.59V603.748H741.924V609.622H735.59Z" fill="white"/>
<path d="M745.637 617.795C745.637 614.934 746.199 612.397 747.323 610.184C748.48 607.971 750.03 606.268 751.971 605.076C753.946 603.884 756.142 603.288 758.56 603.288C760.671 603.288 762.51 603.714 764.076 604.565C765.677 605.417 766.954 606.489 767.907 607.783V603.748H775.109V632.046H767.907V627.908C766.988 629.236 765.711 630.343 764.076 631.228C762.476 632.08 760.62 632.505 758.509 632.505C756.125 632.505 753.946 631.892 751.971 630.667C750.03 629.441 748.48 627.721 747.323 625.508C746.199 623.26 745.637 620.689 745.637 617.795ZM767.907 617.897C767.907 616.16 767.567 614.679 766.886 613.453C766.205 612.193 765.285 611.24 764.128 610.593C762.97 609.912 761.727 609.571 760.399 609.571C759.071 609.571 757.845 609.895 756.721 610.542C755.597 611.189 754.678 612.142 753.963 613.402C753.282 614.628 752.941 616.092 752.941 617.795C752.941 619.497 753.282 620.996 753.963 622.29C754.678 623.55 755.597 624.52 756.721 625.201C757.879 625.882 759.105 626.223 760.399 626.223C761.727 626.223 762.97 625.899 764.128 625.252C765.285 624.571 766.205 623.618 766.886 622.392C767.567 621.132 767.907 619.634 767.907 617.897Z" fill="white"/>
<path d="M786.129 600.377C784.869 600.377 783.813 599.985 782.962 599.202C782.145 598.385 781.736 597.38 781.736 596.188C781.736 594.997 782.145 594.009 782.962 593.226C783.813 592.409 784.869 592 786.129 592C787.389 592 788.427 592.409 789.245 593.226C790.096 594.009 790.522 594.997 790.522 596.188C790.522 597.38 790.096 598.385 789.245 599.202C788.427 599.985 787.389 600.377 786.129 600.377ZM789.653 603.748V632.046H782.502V603.748H789.653Z" fill="white"/>
<path d="M812.808 603.339C816.179 603.339 818.904 604.412 820.981 606.557C823.058 608.669 824.097 611.631 824.097 615.445V632.046H816.946V616.416C816.946 614.168 816.384 612.448 815.26 611.257C814.136 610.031 812.604 609.418 810.663 609.418C808.688 609.418 807.121 610.031 805.964 611.257C804.84 612.448 804.278 614.168 804.278 616.416V632.046H797.127V603.748H804.278V607.273C805.232 606.047 806.44 605.093 807.905 604.412C809.403 603.697 811.038 603.339 812.808 603.339Z" fill="white"/>
<path d="M829.467 617.795C829.467 614.934 830.029 612.397 831.152 610.184C832.31 607.971 833.859 606.268 835.8 605.076C837.775 603.884 839.972 603.288 842.39 603.288C844.501 603.288 846.34 603.714 847.906 604.565C849.507 605.417 850.783 606.489 851.737 607.783V603.748H858.939V632.046H851.737V627.908C850.818 629.236 849.541 630.343 847.906 631.228C846.306 632.08 844.45 632.505 842.338 632.505C839.955 632.505 837.775 631.892 835.8 630.667C833.859 629.441 832.31 627.721 831.152 625.508C830.029 623.26 829.467 620.689 829.467 617.795ZM851.737 617.897C851.737 616.16 851.396 614.679 850.715 613.453C850.034 612.193 849.115 611.24 847.957 610.593C846.799 609.912 845.556 609.571 844.228 609.571C842.9 609.571 841.674 609.895 840.551 610.542C839.427 611.189 838.508 612.142 837.792 613.402C837.111 614.628 836.771 616.092 836.771 617.795C836.771 619.497 837.111 620.996 837.792 622.29C838.508 623.55 839.427 624.52 840.551 625.201C841.709 625.882 842.934 626.223 844.228 626.223C845.556 626.223 846.799 625.899 847.957 625.252C849.115 624.571 850.034 623.618 850.715 622.392C851.396 621.132 851.737 619.634 851.737 617.897Z" fill="white"/>
<path d="M873.483 607.885C874.402 606.523 875.662 605.417 877.263 604.565C878.897 603.714 880.753 603.288 882.83 603.288C885.248 603.288 887.427 603.884 889.368 605.076C891.343 606.268 892.893 607.971 894.016 610.184C895.174 612.363 895.753 614.9 895.753 617.795C895.753 620.689 895.174 623.26 894.016 625.508C892.893 627.721 891.343 629.441 889.368 630.667C887.427 631.892 885.248 632.505 882.83 632.505C880.719 632.505 878.863 632.097 877.263 631.279C875.696 630.428 874.436 629.338 873.483 628.01V632.046H866.332V594.247H873.483V607.885ZM888.449 617.795C888.449 616.092 888.091 614.628 887.376 613.402C886.695 612.142 885.776 611.189 884.618 610.542C883.494 609.895 882.268 609.571 880.94 609.571C879.646 609.571 878.42 609.912 877.263 610.593C876.139 611.24 875.22 612.193 874.504 613.453C873.823 614.713 873.483 616.194 873.483 617.897C873.483 619.599 873.823 621.081 874.504 622.341C875.22 623.601 876.139 624.571 877.263 625.252C878.42 625.899 879.646 626.223 880.94 626.223C882.268 626.223 883.494 625.882 884.618 625.201C885.776 624.52 886.695 623.55 887.376 622.29C888.091 621.03 888.449 619.531 888.449 617.795Z" fill="white"/>
<path d="M904.985 600.377C903.725 600.377 902.669 599.985 901.818 599.202C901.001 598.385 900.592 597.38 900.592 596.188C900.592 594.997 901.001 594.009 901.818 593.226C902.669 592.409 903.725 592 904.985 592C906.245 592 907.283 592.409 908.101 593.226C908.952 594.009 909.378 594.997 909.378 596.188C909.378 597.38 908.952 598.385 908.101 599.202C907.283 599.985 906.245 600.377 904.985 600.377ZM908.509 603.748V632.046H901.358V603.748H908.509Z" fill="white"/>
<path d="M923.134 594.247V632.046H915.983V594.247H923.134Z" fill="white"/>
<path d="M934.234 600.377C932.975 600.377 931.919 599.985 931.068 599.202C930.25 598.385 929.842 597.38 929.842 596.188C929.842 594.997 930.25 594.009 931.068 593.226C931.919 592.409 932.975 592 934.234 592C935.494 592 936.533 592.409 937.35 593.226C938.202 594.009 938.627 594.997 938.627 596.188C938.627 597.38 938.202 598.385 937.35 599.202C936.533 599.985 935.494 600.377 934.234 600.377ZM937.759 603.748V632.046H930.608V603.748H937.759Z" fill="white"/>
<path d="M953.559 609.622V623.311C953.559 624.265 953.78 624.963 954.223 625.405C954.699 625.814 955.483 626.018 956.572 626.018H959.892V632.046H955.397C949.37 632.046 946.357 629.117 946.357 623.26V609.622H942.985V603.748H946.357V596.75H953.559V603.748H959.892V609.622H953.559Z" fill="white"/>
<path d="M992.516 603.748L974.996 645.428H967.385L973.515 631.331L962.175 603.748H970.195L977.499 623.516L984.905 603.748H992.516Z" fill="white"/>
<path d="M1016.51 602.165V611.103H1028.51V616.773H1016.51V626.223H1030.05V632.046H1009.36V596.342H1030.05V602.165H1016.51Z" fill="white"/>
<path d="M1035.11 617.897C1035.11 614.968 1035.71 612.414 1036.9 610.235C1038.09 608.022 1039.75 606.319 1041.86 605.127C1043.97 603.901 1046.39 603.288 1049.11 603.288C1052.62 603.288 1055.51 604.174 1057.79 605.944C1060.11 607.681 1061.66 610.133 1062.44 613.3H1054.73C1054.32 612.074 1053.62 611.12 1052.63 610.439C1051.68 609.724 1050.49 609.367 1049.06 609.367C1047.02 609.367 1045.4 610.116 1044.21 611.614C1043.01 613.078 1042.42 615.173 1042.42 617.897C1042.42 620.587 1043.01 622.681 1044.21 624.18C1045.4 625.644 1047.02 626.376 1049.06 626.376C1051.95 626.376 1053.84 625.082 1054.73 622.494H1062.44C1061.66 625.559 1060.11 627.993 1057.79 629.798C1055.48 631.603 1052.58 632.505 1049.11 632.505C1046.39 632.505 1043.97 631.909 1041.86 630.718C1039.75 629.492 1038.09 627.789 1036.9 625.61C1035.71 623.396 1035.11 620.825 1035.11 617.897Z" fill="white"/>
<path d="M1080.65 632.505C1077.93 632.505 1075.48 631.909 1073.3 630.718C1071.12 629.492 1069.4 627.772 1068.14 625.559C1066.91 623.345 1066.3 620.791 1066.3 617.897C1066.3 615.002 1066.93 612.448 1068.19 610.235C1069.49 608.022 1071.24 606.319 1073.45 605.127C1075.67 603.901 1078.13 603.288 1080.86 603.288C1083.58 603.288 1086.05 603.901 1088.26 605.127C1090.48 606.319 1092.21 608.022 1093.47 610.235C1094.77 612.448 1095.42 615.002 1095.42 617.897C1095.42 620.791 1094.75 623.345 1093.42 625.559C1092.13 627.772 1090.36 629.492 1088.11 630.718C1085.9 631.909 1083.41 632.505 1080.65 632.505ZM1080.65 626.274C1081.95 626.274 1083.16 625.967 1084.28 625.354C1085.44 624.707 1086.36 623.754 1087.04 622.494C1087.72 621.234 1088.06 619.702 1088.06 617.897C1088.06 615.207 1087.35 613.147 1085.92 611.716C1084.52 610.252 1082.8 609.52 1080.76 609.52C1078.71 609.52 1076.99 610.252 1075.6 611.716C1074.24 613.147 1073.55 615.207 1073.55 617.897C1073.55 620.587 1074.22 622.664 1075.55 624.128C1076.91 625.559 1078.61 626.274 1080.65 626.274Z" fill="white"/>
<path d="M1116.75 603.339C1120.12 603.339 1122.85 604.412 1124.92 606.557C1127 608.669 1128.04 611.631 1128.04 615.445V632.046H1120.89V616.416C1120.89 614.168 1120.33 612.448 1119.2 611.257C1118.08 610.031 1116.55 609.418 1114.61 609.418C1112.63 609.418 1111.06 610.031 1109.91 611.257C1108.78 612.448 1108.22 614.168 1108.22 616.416V632.046H1101.07V603.748H1108.22V607.273C1109.17 606.047 1110.38 605.093 1111.85 604.412C1113.35 603.697 1114.98 603.339 1116.75 603.339Z" fill="white"/>
<path d="M1147.81 632.505C1145.09 632.505 1142.64 631.909 1140.46 630.718C1138.28 629.492 1136.56 627.772 1135.3 625.559C1134.07 623.345 1133.46 620.791 1133.46 617.897C1133.46 615.002 1134.09 612.448 1135.35 610.235C1136.64 608.022 1138.4 606.319 1140.61 605.127C1142.83 603.901 1145.29 603.288 1148.02 603.288C1150.74 603.288 1153.21 603.901 1155.42 605.127C1157.64 606.319 1159.37 608.022 1160.63 610.235C1161.93 612.448 1162.58 615.002 1162.58 617.897C1162.58 620.791 1161.91 623.345 1160.58 625.559C1159.29 627.772 1157.52 629.492 1155.27 630.718C1153.06 631.909 1150.57 632.505 1147.81 632.505ZM1147.81 626.274C1149.11 626.274 1150.32 625.967 1151.44 625.354C1152.6 624.707 1153.52 623.754 1154.2 622.494C1154.88 621.234 1155.22 619.702 1155.22 617.897C1155.22 615.207 1154.51 613.147 1153.07 611.716C1151.68 610.252 1149.96 609.52 1147.92 609.52C1145.87 609.52 1144.15 610.252 1142.76 611.716C1141.39 613.147 1140.71 615.207 1140.71 617.897C1140.71 620.587 1141.38 622.664 1142.71 624.128C1144.07 625.559 1145.77 626.274 1147.81 626.274Z" fill="white"/>
<path d="M1203.37 603.339C1206.85 603.339 1209.64 604.412 1211.75 606.557C1213.89 608.669 1214.97 611.631 1214.97 615.445V632.046H1207.82V616.416C1207.82 614.202 1207.25 612.517 1206.13 611.359C1205.01 610.167 1203.47 609.571 1201.53 609.571C1199.59 609.571 1198.04 610.167 1196.88 611.359C1195.76 612.517 1195.2 614.202 1195.2 616.416V632.046H1188.05V616.416C1188.05 614.202 1187.49 612.517 1186.36 611.359C1185.24 610.167 1183.71 609.571 1181.77 609.571C1179.79 609.571 1178.22 610.167 1177.07 611.359C1175.94 612.517 1175.38 614.202 1175.38 616.416V632.046H1168.23V603.748H1175.38V607.17C1176.3 605.979 1177.47 605.042 1178.91 604.361C1180.37 603.68 1181.97 603.339 1183.71 603.339C1185.92 603.339 1187.89 603.816 1189.63 604.77C1191.37 605.689 1192.71 607.017 1193.67 608.754C1194.59 607.119 1195.91 605.808 1197.65 604.821C1199.42 603.833 1201.33 603.339 1203.37 603.339Z" fill="white"/>
<path d="M1225.79 600.377C1224.53 600.377 1223.47 599.985 1222.62 599.202C1221.8 598.385 1221.39 597.38 1221.39 596.188C1221.39 594.997 1221.8 594.009 1222.62 593.226C1223.47 592.409 1224.53 592 1225.79 592C1227.05 592 1228.09 592.409 1228.9 593.226C1229.75 594.009 1230.18 594.997 1230.18 596.188C1230.18 597.38 1229.75 598.385 1228.9 599.202C1228.09 599.985 1227.05 600.377 1225.79 600.377ZM1229.31 603.748V632.046H1222.16V603.748H1229.31Z" fill="white"/>
<path d="M1234.95 617.897C1234.95 614.968 1235.54 612.414 1236.73 610.235C1237.93 608.022 1239.58 606.319 1241.69 605.127C1243.8 603.901 1246.22 603.288 1248.94 603.288C1252.45 603.288 1255.34 604.174 1257.63 605.944C1259.94 607.681 1261.49 610.133 1262.27 613.3H1254.56C1254.15 612.074 1253.45 611.12 1252.47 610.439C1251.51 609.724 1250.32 609.367 1248.89 609.367C1246.85 609.367 1245.23 610.116 1244.04 611.614C1242.85 613.078 1242.25 615.173 1242.25 617.897C1242.25 620.587 1242.85 622.681 1244.04 624.18C1245.23 625.644 1246.85 626.376 1248.89 626.376C1251.79 626.376 1253.68 625.082 1254.56 622.494H1262.27C1261.49 625.559 1259.94 627.993 1257.63 629.798C1255.31 631.603 1252.42 632.505 1248.94 632.505C1246.22 632.505 1243.8 631.909 1241.69 630.718C1239.58 629.492 1237.93 627.789 1236.73 625.61C1235.54 623.396 1234.95 620.825 1234.95 617.897Z" fill="white"/>
<path d="M1278.75 632.505C1276.43 632.505 1274.36 632.097 1272.52 631.279C1270.68 630.428 1269.22 629.287 1268.13 627.857C1267.07 626.427 1266.49 624.844 1266.39 623.107H1273.59C1273.73 624.197 1274.26 625.099 1275.17 625.814C1276.13 626.529 1277.3 626.887 1278.7 626.887C1280.06 626.887 1281.12 626.614 1281.87 626.069C1282.65 625.525 1283.04 624.827 1283.04 623.975C1283.04 623.056 1282.56 622.375 1281.61 621.932C1280.69 621.455 1279.21 620.945 1277.17 620.4C1275.06 619.889 1273.32 619.361 1271.96 618.816C1270.63 618.271 1269.47 617.437 1268.48 616.313C1267.53 615.19 1267.05 613.674 1267.05 611.767C1267.05 610.201 1267.5 608.771 1268.38 607.477C1269.3 606.183 1270.59 605.161 1272.26 604.412C1273.97 603.663 1275.96 603.288 1278.24 603.288C1281.61 603.288 1284.3 604.14 1286.31 605.842C1288.32 607.511 1289.43 609.775 1289.63 612.636H1282.79C1282.68 611.512 1282.21 610.627 1281.36 609.98C1280.54 609.299 1279.43 608.958 1278.04 608.958C1276.74 608.958 1275.74 609.196 1275.02 609.673C1274.34 610.15 1274 610.814 1274 611.665C1274 612.619 1274.48 613.351 1275.43 613.862C1276.38 614.338 1277.86 614.832 1279.87 615.343C1281.92 615.854 1283.6 616.382 1284.93 616.926C1286.26 617.471 1287.4 618.323 1288.35 619.48C1289.34 620.604 1289.85 622.102 1289.89 623.975C1289.89 625.61 1289.43 627.074 1288.51 628.368C1287.62 629.662 1286.33 630.684 1284.62 631.433C1282.96 632.148 1281 632.505 1278.75 632.505Z" fill="white"/>
<path d="M647.876 660.757V663.403H641.083V685.678H637.829V663.403H631V660.757H647.876Z" fill="#D4D4D4"/>
<path d="M655.636 669.267C656.208 668.146 657.018 667.276 658.067 666.657C659.14 666.037 660.439 665.727 661.964 665.727V669.088H661.106C657.459 669.088 655.636 671.066 655.636 675.023V685.678H652.382V666.084H655.636V669.267Z" fill="#D4D4D4"/>
<path d="M683.598 666.084V685.678H680.344V682.782C679.724 683.783 678.854 684.57 677.734 685.142C676.638 685.69 675.422 685.964 674.087 685.964C672.562 685.964 671.191 685.654 669.975 685.035C668.76 684.391 667.794 683.438 667.079 682.174C666.388 680.911 666.042 679.373 666.042 677.562V666.084H669.26V677.133C669.26 679.064 669.749 680.553 670.726 681.602C671.703 682.627 673.038 683.14 674.731 683.14C676.471 683.14 677.841 682.603 678.842 681.531C679.844 680.458 680.344 678.897 680.344 676.847V666.084H683.598Z" fill="#D4D4D4"/>
<path d="M696.529 686C695.027 686 693.68 685.75 692.488 685.249C691.296 684.725 690.355 684.01 689.664 683.104C688.972 682.174 688.591 681.113 688.52 679.922H691.88C691.976 680.899 692.429 681.697 693.239 682.317C694.073 682.937 695.158 683.247 696.493 683.247C697.732 683.247 698.71 682.973 699.425 682.424C700.14 681.876 700.497 681.185 700.497 680.351C700.497 679.493 700.116 678.861 699.353 678.456C698.591 678.027 697.411 677.609 695.814 677.204C694.36 676.823 693.168 676.441 692.238 676.06C691.332 675.655 690.546 675.071 689.878 674.308C689.235 673.521 688.913 672.497 688.913 671.233C688.913 670.232 689.211 669.314 689.807 668.48C690.403 667.646 691.249 666.99 692.345 666.514C693.442 666.013 694.693 665.763 696.1 665.763C698.269 665.763 700.021 666.311 701.356 667.407C702.69 668.504 703.406 670.006 703.501 671.913H700.247C700.176 670.888 699.759 670.065 698.996 669.445C698.257 668.826 697.256 668.516 695.992 668.516C694.824 668.516 693.895 668.766 693.203 669.267C692.512 669.767 692.167 670.423 692.167 671.233C692.167 671.877 692.369 672.413 692.774 672.842C693.203 673.247 693.728 673.581 694.348 673.843C694.991 674.082 695.873 674.356 696.993 674.666C698.4 675.047 699.544 675.428 700.426 675.81C701.308 676.167 702.059 676.716 702.679 677.455C703.322 678.193 703.656 679.159 703.68 680.351C703.68 681.423 703.382 682.389 702.786 683.247C702.19 684.105 701.344 684.784 700.247 685.285C699.175 685.762 697.935 686 696.529 686Z" fill="#D4D4D4"/>
<path d="M712.742 668.766V680.315C712.742 681.268 712.945 681.948 713.35 682.353C713.755 682.734 714.458 682.925 715.46 682.925H717.855V685.678H714.923C713.112 685.678 711.753 685.261 710.847 684.427C709.941 683.592 709.488 682.222 709.488 680.315V668.766H706.95V666.084H709.488V661.15H712.742V666.084H717.855V668.766H712.742Z" fill="#D4D4D4"/>
<path d="M740.176 675.13C740.176 675.75 740.14 676.406 740.068 677.097H724.408C724.527 679.028 725.182 680.541 726.374 681.638C727.59 682.711 729.056 683.247 730.772 683.247C732.178 683.247 733.346 682.925 734.276 682.281C735.229 681.614 735.897 680.732 736.278 679.636H739.782C739.258 681.519 738.209 683.056 736.636 684.248C735.063 685.416 733.108 686 730.772 686C728.913 686 727.244 685.583 725.766 684.749C724.312 683.914 723.168 682.734 722.334 681.209C721.499 679.659 721.082 677.872 721.082 675.846C721.082 673.819 721.488 672.044 722.298 670.518C723.108 668.993 724.241 667.825 725.695 667.014C727.173 666.18 728.865 665.763 730.772 665.763C732.631 665.763 734.276 666.168 735.706 666.978C737.136 667.789 738.233 668.909 738.996 670.339C739.782 671.746 740.176 673.343 740.176 675.13ZM736.815 674.451C736.815 673.212 736.54 672.151 735.992 671.269C735.444 670.363 734.693 669.684 733.74 669.231C732.81 668.754 731.773 668.516 730.629 668.516C728.984 668.516 727.578 669.04 726.41 670.089C725.266 671.138 724.61 672.592 724.443 674.451H736.815Z" fill="#D4D4D4"/>
<path d="M743.755 675.81C743.755 673.808 744.16 672.056 744.971 670.554C745.781 669.028 746.89 667.848 748.296 667.014C749.726 666.18 751.323 665.763 753.087 665.763C754.613 665.763 756.031 666.12 757.342 666.835C758.653 667.527 759.654 668.444 760.346 669.588V659.219H763.635V685.678H760.346V681.995C759.702 683.163 758.748 684.129 757.485 684.892C756.222 685.631 754.744 686 753.051 686C751.311 686 749.726 685.571 748.296 684.713C746.89 683.855 745.781 682.651 744.971 681.102C744.16 679.552 743.755 677.788 743.755 675.81ZM760.346 675.846C760.346 674.368 760.048 673.081 759.452 671.984C758.856 670.888 758.045 670.053 757.02 669.481C756.019 668.885 754.911 668.587 753.695 668.587C752.479 668.587 751.371 668.873 750.37 669.445C749.369 670.018 748.57 670.852 747.974 671.948C747.378 673.045 747.08 674.332 747.08 675.81C747.08 677.312 747.378 678.623 747.974 679.743C748.57 680.839 749.369 681.686 750.37 682.281C751.371 682.854 752.479 683.14 753.695 683.14C754.911 683.14 756.019 682.854 757.02 682.281C758.045 681.686 758.856 680.839 759.452 679.743C760.048 678.623 760.346 677.323 760.346 675.846Z" fill="#D4D4D4"/>
<path d="M799.261 685.678H796.007L782.921 665.834V685.678H779.667V660.721H782.921L796.007 680.529V660.721H799.261V685.678Z" fill="#D4D4D4"/>
<path d="M823.185 675.13C823.185 675.75 823.15 676.406 823.078 677.097H807.417C807.537 679.028 808.192 680.541 809.384 681.638C810.6 682.711 812.065 683.247 813.782 683.247C815.188 683.247 816.356 682.925 817.286 682.281C818.239 681.614 818.907 680.732 819.288 679.636H822.792C822.268 681.519 821.219 683.056 819.646 684.248C818.072 685.416 816.118 686 813.782 686C811.922 686 810.254 685.583 808.776 684.749C807.322 683.914 806.178 682.734 805.344 681.209C804.509 679.659 804.092 677.872 804.092 675.846C804.092 673.819 804.497 672.044 805.308 670.518C806.118 668.993 807.25 667.825 808.704 667.014C810.182 666.18 811.875 665.763 813.782 665.763C815.641 665.763 817.286 666.168 818.716 666.978C820.146 667.789 821.243 668.909 822.005 670.339C822.792 671.746 823.185 673.343 823.185 675.13ZM819.824 674.451C819.824 673.212 819.55 672.151 819.002 671.269C818.454 670.363 817.703 669.684 816.749 669.231C815.82 668.754 814.783 668.516 813.639 668.516C811.994 668.516 810.588 669.04 809.42 670.089C808.275 671.138 807.62 672.592 807.453 674.451H819.824Z" fill="#D4D4D4"/>
<path d="M831.949 668.766V680.315C831.949 681.268 832.152 681.948 832.557 682.353C832.963 682.734 833.666 682.925 834.667 682.925H837.062V685.678H834.131C832.319 685.678 830.96 685.261 830.054 684.427C829.149 683.592 828.696 682.222 828.696 680.315V668.766H826.157V666.084H828.696V661.15H831.949V666.084H837.062V668.766H831.949Z" fill="#D4D4D4"/>
<path d="M855.092 671.197V673.951H840.826V671.197H855.092Z" fill="#D4D4D4"/>
<path d="M864.452 682.854H876.609V685.678H860.591V683.104L872.676 663.582H860.734V660.757H876.537V663.331L864.452 682.854Z" fill="#D4D4D4"/>
<path d="M899.421 675.13C899.421 675.75 899.385 676.406 899.314 677.097H883.653C883.772 679.028 884.428 680.541 885.62 681.638C886.835 682.711 888.301 683.247 890.018 683.247C891.424 683.247 892.592 682.925 893.522 682.281C894.475 681.614 895.143 680.732 895.524 679.636H899.028C898.503 681.519 897.455 683.056 895.881 684.248C894.308 685.416 892.354 686 890.018 686C888.158 686 886.49 685.583 885.012 684.749C883.558 683.914 882.414 682.734 881.579 681.209C880.745 679.659 880.328 677.872 880.328 675.846C880.328 673.819 880.733 672.044 881.544 670.518C882.354 668.993 883.486 667.825 884.94 667.014C886.418 666.18 888.111 665.763 890.018 665.763C891.877 665.763 893.522 666.168 894.952 666.978C896.382 667.789 897.478 668.909 898.241 670.339C899.028 671.746 899.421 673.343 899.421 675.13ZM896.06 674.451C896.06 673.212 895.786 672.151 895.238 671.269C894.69 670.363 893.939 669.684 892.985 669.231C892.056 668.754 891.019 668.516 889.875 668.516C888.23 668.516 886.823 669.04 885.655 670.089C884.511 671.138 883.856 672.592 883.689 674.451H896.06Z" fill="#D4D4D4"/>
<path d="M907.47 669.267C908.042 668.146 908.853 667.276 909.902 666.657C910.974 666.037 912.273 665.727 913.799 665.727V669.088H912.941C909.294 669.088 907.47 671.066 907.47 675.023V685.678H904.217V666.084H907.47V669.267Z" fill="#D4D4D4"/>
<path d="M926.601 686C924.765 686 923.097 685.583 921.595 684.749C920.117 683.914 918.949 682.734 918.091 681.209C917.257 679.659 916.84 677.872 916.84 675.846C916.84 673.843 917.269 672.079 918.127 670.554C919.009 669.004 920.201 667.825 921.702 667.014C923.204 666.18 924.885 665.763 926.744 665.763C928.603 665.763 930.284 666.18 931.785 667.014C933.287 667.825 934.467 668.993 935.325 670.518C936.207 672.044 936.648 673.819 936.648 675.846C936.648 677.872 936.195 679.659 935.289 681.209C934.407 682.734 933.204 683.914 931.678 684.749C930.153 685.583 928.46 686 926.601 686ZM926.601 683.14C927.769 683.14 928.865 682.865 929.89 682.317C930.915 681.769 931.738 680.947 932.357 679.85C933.001 678.754 933.323 677.419 933.323 675.846C933.323 674.272 933.013 672.938 932.393 671.841C931.773 670.745 930.963 669.934 929.962 669.41C928.961 668.861 927.876 668.587 926.708 668.587C925.516 668.587 924.42 668.861 923.419 669.41C922.441 669.934 921.655 670.745 921.059 671.841C920.463 672.938 920.165 674.272 920.165 675.846C920.165 677.443 920.451 678.789 921.023 679.886C921.619 680.982 922.406 681.805 923.383 682.353C924.36 682.877 925.433 683.14 926.601 683.14Z" fill="#D4D4D4"/>
<path d="M966.798 660.757V663.403H960.005V685.678H956.751V663.403H949.922V660.757H966.798Z" fill="#D4D4D4"/>
<path d="M974.558 669.267C975.13 668.146 975.94 667.276 976.989 666.657C978.062 666.037 979.361 665.727 980.887 665.727V669.088H980.028C976.381 669.088 974.558 671.066 974.558 675.023V685.678H971.304V666.084H974.558V669.267Z" fill="#D4D4D4"/>
<path d="M983.927 675.81C983.927 673.808 984.333 672.056 985.143 670.554C985.954 669.028 987.062 667.848 988.468 667.014C989.898 666.18 991.484 665.763 993.224 665.763C994.94 665.763 996.43 666.132 997.693 666.871C998.956 667.61 999.898 668.54 1000.52 669.66V666.084H1003.81V685.678H1000.52V682.031C999.874 683.175 998.909 684.129 997.622 684.892C996.358 685.631 994.88 686 993.188 686C991.448 686 989.875 685.571 988.468 684.713C987.062 683.855 985.954 682.651 985.143 681.102C984.333 679.552 983.927 677.788 983.927 675.81ZM1000.52 675.846C1000.52 674.368 1000.22 673.081 999.624 671.984C999.028 670.888 998.217 670.053 997.193 669.481C996.191 668.885 995.083 668.587 993.867 668.587C992.652 668.587 991.543 668.873 990.542 669.445C989.541 670.018 988.742 670.852 988.146 671.948C987.551 673.045 987.253 674.332 987.253 675.81C987.253 677.312 987.551 678.623 988.146 679.743C988.742 680.839 989.541 681.686 990.542 682.281C991.543 682.854 992.652 683.14 993.867 683.14C995.083 683.14 996.191 682.854 997.193 682.281C998.217 681.686 999.028 680.839 999.624 679.743C1000.22 678.623 1000.52 677.323 1000.52 675.846Z" fill="#D4D4D4"/>
<path d="M1019.35 665.727C1021.74 665.727 1023.67 666.454 1025.15 667.908C1026.62 669.338 1027.36 671.412 1027.36 674.129V685.678H1024.14V674.594C1024.14 672.64 1023.66 671.15 1022.68 670.125C1021.7 669.076 1020.37 668.552 1018.67 668.552C1016.96 668.552 1015.59 669.088 1014.56 670.161C1013.56 671.233 1013.06 672.794 1013.06 674.844V685.678H1009.81V666.084H1013.06V668.873C1013.7 667.872 1014.57 667.098 1015.67 666.549C1016.79 666.001 1018.02 665.727 1019.35 665.727Z" fill="#D4D4D4"/>
<path d="M1040.11 686C1038.61 686 1037.27 685.75 1036.07 685.249C1034.88 684.725 1033.94 684.01 1033.25 683.104C1032.56 682.174 1032.18 681.113 1032.1 679.922H1035.47C1035.56 680.899 1036.01 681.697 1036.82 682.317C1037.66 682.937 1038.74 683.247 1040.08 683.247C1041.32 683.247 1042.29 682.973 1043.01 682.424C1043.73 681.876 1044.08 681.185 1044.08 680.351C1044.08 679.493 1043.7 678.861 1042.94 678.456C1042.18 678.027 1041 677.609 1039.4 677.204C1037.94 676.823 1036.75 676.441 1035.82 676.06C1034.92 675.655 1034.13 675.071 1033.46 674.308C1032.82 673.521 1032.5 672.497 1032.5 671.233C1032.5 670.232 1032.8 669.314 1033.39 668.48C1033.99 667.646 1034.83 666.99 1035.93 666.514C1037.03 666.013 1038.28 665.763 1039.68 665.763C1041.85 665.763 1043.61 666.311 1044.94 667.407C1046.28 668.504 1046.99 670.006 1047.09 671.913H1043.83C1043.76 670.888 1043.34 670.065 1042.58 669.445C1041.84 668.826 1040.84 668.516 1039.58 668.516C1038.41 668.516 1037.48 668.766 1036.79 669.267C1036.1 669.767 1035.75 670.423 1035.75 671.233C1035.75 671.877 1035.95 672.413 1036.36 672.842C1036.79 673.247 1037.31 673.581 1037.93 673.843C1038.58 674.082 1039.46 674.356 1040.58 674.666C1041.99 675.047 1043.13 675.428 1044.01 675.81C1044.89 676.167 1045.64 676.716 1046.26 677.455C1046.91 678.193 1047.24 679.159 1047.26 680.351C1047.26 681.423 1046.97 682.389 1046.37 683.247C1045.78 684.105 1044.93 684.784 1043.83 685.285C1042.76 685.762 1041.52 686 1040.11 686Z" fill="#D4D4D4"/>
<path d="M1054.04 662.902C1053.42 662.902 1052.89 662.688 1052.47 662.259C1052.04 661.83 1051.82 661.305 1051.82 660.685C1051.82 660.066 1052.04 659.541 1052.47 659.112C1052.89 658.683 1053.42 658.469 1054.04 658.469C1054.64 658.469 1055.14 658.683 1055.54 659.112C1055.97 659.541 1056.18 660.066 1056.18 660.685C1056.18 661.305 1055.97 661.83 1055.54 662.259C1055.14 662.688 1054.64 662.902 1054.04 662.902ZM1055.61 666.084V685.678H1052.36V666.084H1055.61Z" fill="#D4D4D4"/>
<path d="M1065.63 668.766V680.315C1065.63 681.268 1065.83 681.948 1066.23 682.353C1066.64 682.734 1067.34 682.925 1068.34 682.925H1070.74V685.678H1067.81C1066 685.678 1064.64 685.261 1063.73 684.427C1062.83 683.592 1062.37 682.222 1062.37 680.315V668.766H1059.83V666.084H1062.37V661.15H1065.63V666.084H1070.74V668.766H1065.63Z" fill="#D4D4D4"/>
<path d="M1076.86 662.902C1076.24 662.902 1075.72 662.688 1075.29 662.259C1074.86 661.83 1074.65 661.305 1074.65 660.685C1074.65 660.066 1074.86 659.541 1075.29 659.112C1075.72 658.683 1076.24 658.469 1076.86 658.469C1077.46 658.469 1077.96 658.683 1078.37 659.112C1078.79 659.541 1079.01 660.066 1079.01 660.685C1079.01 661.305 1078.79 661.83 1078.37 662.259C1077.96 662.688 1077.46 662.902 1076.86 662.902ZM1078.44 666.084V685.678H1075.18V666.084H1078.44Z" fill="#D4D4D4"/>
<path d="M1093.03 686C1091.19 686 1089.52 685.583 1088.02 684.749C1086.54 683.914 1085.38 682.734 1084.52 681.209C1083.68 679.659 1083.27 677.872 1083.27 675.846C1083.27 673.843 1083.7 672.079 1084.55 670.554C1085.44 669.004 1086.63 667.825 1088.13 667.014C1089.63 666.18 1091.31 665.763 1093.17 665.763C1095.03 665.763 1096.71 666.18 1098.21 667.014C1099.71 667.825 1100.89 668.993 1101.75 670.518C1102.63 672.044 1103.08 673.819 1103.08 675.846C1103.08 677.872 1102.62 679.659 1101.72 681.209C1100.83 682.734 1099.63 683.914 1098.11 684.749C1096.58 685.583 1094.89 686 1093.03 686ZM1093.03 683.14C1094.2 683.14 1095.29 682.865 1096.32 682.317C1097.34 681.769 1098.16 680.947 1098.78 679.85C1099.43 678.754 1099.75 677.419 1099.75 675.846C1099.75 674.272 1099.44 672.938 1098.82 671.841C1098.2 670.745 1097.39 669.934 1096.39 669.41C1095.39 668.861 1094.3 668.587 1093.14 668.587C1091.94 668.587 1090.85 668.861 1089.85 669.41C1088.87 669.934 1088.08 670.745 1087.49 671.841C1086.89 672.938 1086.59 674.272 1086.59 675.846C1086.59 677.443 1086.88 678.789 1087.45 679.886C1088.05 680.982 1088.83 681.805 1089.81 682.353C1090.79 682.877 1091.86 683.14 1093.03 683.14Z" fill="#D4D4D4"/>
<path d="M1117.4 665.727C1119.78 665.727 1121.71 666.454 1123.19 667.908C1124.67 669.338 1125.41 671.412 1125.41 674.129V685.678H1122.19V674.594C1122.19 672.64 1121.7 671.15 1120.73 670.125C1119.75 669.076 1118.41 668.552 1116.72 668.552C1115 668.552 1113.63 669.088 1112.61 670.161C1111.61 671.233 1111.11 672.794 1111.11 674.844V685.678H1107.85V666.084H1111.11V668.873C1111.75 667.872 1112.62 667.098 1113.72 666.549C1114.84 666.001 1116.07 665.727 1117.4 665.727Z" fill="#D4D4D4"/>
<path d="M1138.16 686C1136.66 686 1135.31 685.75 1134.12 685.249C1132.93 684.725 1131.99 684.01 1131.3 683.104C1130.61 682.174 1130.22 681.113 1130.15 679.922H1133.51C1133.61 680.899 1134.06 681.697 1134.87 682.317C1135.71 682.937 1136.79 683.247 1138.13 683.247C1139.37 683.247 1140.34 682.973 1141.06 682.424C1141.77 681.876 1142.13 681.185 1142.13 680.351C1142.13 679.493 1141.75 678.861 1140.99 678.456C1140.22 678.027 1139.04 677.609 1137.45 677.204C1135.99 676.823 1134.8 676.441 1133.87 676.06C1132.97 675.655 1132.18 675.071 1131.51 674.308C1130.87 673.521 1130.55 672.497 1130.55 671.233C1130.55 670.232 1130.84 669.314 1131.44 668.48C1132.04 667.646 1132.88 666.99 1133.98 666.514C1135.07 666.013 1136.33 665.763 1137.73 665.763C1139.9 665.763 1141.65 666.311 1142.99 667.407C1144.32 668.504 1145.04 670.006 1145.13 671.913H1141.88C1141.81 670.888 1141.39 670.065 1140.63 669.445C1139.89 668.826 1138.89 668.516 1137.63 668.516C1136.46 668.516 1135.53 668.766 1134.84 669.267C1134.15 669.767 1133.8 670.423 1133.8 671.233C1133.8 671.877 1134 672.413 1134.41 672.842C1134.84 673.247 1135.36 673.581 1135.98 673.843C1136.62 674.082 1137.51 674.356 1138.63 674.666C1140.03 675.047 1141.18 675.428 1142.06 675.81C1142.94 676.167 1143.69 676.716 1144.31 677.455C1144.95 678.193 1145.29 679.159 1145.31 680.351C1145.31 681.423 1145.01 682.389 1144.42 683.247C1143.82 684.105 1142.98 684.784 1141.88 685.285C1140.81 685.762 1139.57 686 1138.16 686Z" fill="#D4D4D4"/>
<path d="M1177.1 668.051C1177.1 670.125 1176.39 671.853 1174.96 673.235C1173.55 674.594 1171.39 675.273 1168.48 675.273H1163.69V685.678H1160.44V660.757H1168.48C1171.3 660.757 1173.43 661.436 1174.88 662.795C1176.36 664.154 1177.1 665.906 1177.1 668.051ZM1168.48 672.592C1170.3 672.592 1171.63 672.199 1172.49 671.412C1173.35 670.625 1173.78 669.505 1173.78 668.051C1173.78 664.976 1172.01 663.439 1168.48 663.439H1163.69V672.592H1168.48Z" fill="#D4D4D4"/>
<path d="M1180.43 675.81C1180.43 673.808 1180.84 672.056 1181.65 670.554C1182.46 669.028 1183.56 667.848 1184.97 667.014C1186.4 666.18 1187.99 665.763 1189.73 665.763C1191.44 665.763 1192.93 666.132 1194.2 666.871C1195.46 667.61 1196.4 668.54 1197.02 669.66V666.084H1200.31V685.678H1197.02V682.031C1196.38 683.175 1195.41 684.129 1194.12 684.892C1192.86 685.631 1191.38 686 1189.69 686C1187.95 686 1186.38 685.571 1184.97 684.713C1183.56 683.855 1182.46 682.651 1181.65 681.102C1180.84 679.552 1180.43 677.788 1180.43 675.81ZM1197.02 675.846C1197.02 674.368 1196.72 673.081 1196.13 671.984C1195.53 670.888 1194.72 670.053 1193.7 669.481C1192.69 668.885 1191.59 668.587 1190.37 668.587C1189.15 668.587 1188.05 668.873 1187.04 669.445C1186.04 670.018 1185.24 670.852 1184.65 671.948C1184.05 673.045 1183.76 674.332 1183.76 675.81C1183.76 677.312 1184.05 678.623 1184.65 679.743C1185.24 680.839 1186.04 681.686 1187.04 682.281C1188.05 682.854 1189.15 683.14 1190.37 683.14C1191.59 683.14 1192.69 682.854 1193.7 682.281C1194.72 681.686 1195.53 680.839 1196.13 679.743C1196.72 678.623 1197.02 677.323 1197.02 675.846Z" fill="#D4D4D4"/>
<path d="M1209.56 669.267C1210.13 668.146 1210.94 667.276 1211.99 666.657C1213.07 666.037 1214.37 665.727 1215.89 665.727V669.088H1215.03C1211.39 669.088 1209.56 671.066 1209.56 675.023V685.678H1206.31V666.084H1209.56V669.267Z" fill="#D4D4D4"/>
<path d="M1224.12 668.766V680.315C1224.12 681.268 1224.32 681.948 1224.72 682.353C1225.13 682.734 1225.83 682.925 1226.83 682.925H1229.23V685.678H1226.3C1224.49 685.678 1223.13 685.261 1222.22 684.427C1221.32 683.592 1220.86 682.222 1220.86 680.315V668.766H1218.32V666.084H1220.86V661.15H1224.12V666.084H1229.23V668.766H1224.12Z" fill="#D4D4D4"/>
<path d="M1243.22 665.727C1245.6 665.727 1247.53 666.454 1249.01 667.908C1250.49 669.338 1251.23 671.412 1251.23 674.129V685.678H1248.01V674.594C1248.01 672.64 1247.52 671.15 1246.54 670.125C1245.57 669.076 1244.23 668.552 1242.54 668.552C1240.82 668.552 1239.45 669.088 1238.43 670.161C1237.43 671.233 1236.93 672.794 1236.93 674.844V685.678H1233.67V666.084H1236.93V668.873C1237.57 667.872 1238.44 667.098 1239.54 666.549C1240.66 666.001 1241.88 665.727 1243.22 665.727Z" fill="#D4D4D4"/>
<path d="M1274.92 675.13C1274.92 675.75 1274.89 676.406 1274.81 677.097H1259.15C1259.27 679.028 1259.93 680.541 1261.12 681.638C1262.34 682.711 1263.8 683.247 1265.52 683.247C1266.92 683.247 1268.09 682.925 1269.02 682.281C1269.97 681.614 1270.64 680.732 1271.02 679.636H1274.53C1274 681.519 1272.95 683.056 1271.38 684.248C1269.81 685.416 1267.85 686 1265.52 686C1263.66 686 1261.99 685.583 1260.51 684.749C1259.06 683.914 1257.91 682.734 1257.08 681.209C1256.24 679.659 1255.83 677.872 1255.83 675.846C1255.83 673.819 1256.23 672.044 1257.04 670.518C1257.85 668.993 1258.99 667.825 1260.44 667.014C1261.92 666.18 1263.61 665.763 1265.52 665.763C1267.38 665.763 1269.02 666.168 1270.45 666.978C1271.88 667.789 1272.98 668.909 1273.74 670.339C1274.53 671.746 1274.92 673.343 1274.92 675.13ZM1271.56 674.451C1271.56 673.212 1271.29 672.151 1270.74 671.269C1270.19 670.363 1269.44 669.684 1268.48 669.231C1267.56 668.754 1266.52 668.516 1265.37 668.516C1263.73 668.516 1262.32 669.04 1261.16 670.089C1260.01 671.138 1259.36 672.592 1259.19 674.451H1271.56Z" fill="#D4D4D4"/>
<path d="M1282.97 669.267C1283.54 668.146 1284.35 667.276 1285.4 666.657C1286.47 666.037 1287.77 665.727 1289.3 665.727V669.088H1288.44C1284.79 669.088 1282.97 671.066 1282.97 675.023V685.678H1279.72V666.084H1282.97V669.267Z" fill="#D4D4D4"/>
<path fill-rule="evenodd" clip-rule="evenodd" d="M856.637 380C876.067 380 905.782 385.816 929.495 404.982C940.385 413.784 949.303 424.797 955.52 435.986C956.99 438.632 958.323 441.312 959.5 443.999C960.677 441.312 962.01 438.632 963.48 435.986C969.697 424.797 978.615 413.784 989.505 404.982C1013.22 385.816 1042.93 380 1062.36 380H1066.27L1067.9 383.534C1070.78 389.782 1071.22 398.568 1070.92 406.28C1070.61 414.28 1069.45 422.331 1068.33 427.843C1064.47 446.919 1052.19 471.763 1024.99 481.23C1024 481.578 1023 481.903 1022.01 482.21C1030.7 487.952 1037.44 497.083 1038.78 509.604C1040.82 528.656 1028.56 548.267 1005.17 550.797C991.276 552.299 981.034 545.223 974.278 537.959C970.479 533.873 967.422 529.286 965.302 525.805C963.559 522.944 964.528 519.115 967.36 517.312C970.193 515.509 973.86 516.39 975.576 519.267C977.439 522.391 979.868 526.128 983.219 529.731C988.622 535.541 995.331 539.673 1003.85 538.752C1019.83 537.024 1028.08 524.053 1026.67 510.885C1025.04 495.656 1011.09 487.023 997.81 487.023C989.06 487.023 983.78 488.352 979.985 490.403C976.23 492.432 973.298 495.498 969.78 500.299L958.006 519.33L958.061 519.366C956.901 521.169 952.383 529.978 945.634 537.325C945.289 537.7 944.936 538.075 944.574 538.448C942.616 540.618 940.44 542.715 938.259 544.161L938.18 544.043C931.911 548.605 923.951 551.839 914.314 550.797C890.916 548.267 878.663 528.656 880.7 509.604C882.031 497.156 888.703 488.059 897.32 482.31C896.219 481.975 895.114 481.616 894.006 481.23C866.814 471.763 854.534 446.919 850.667 427.843C849.55 422.331 848.385 414.28 848.079 406.28C847.783 398.568 848.222 389.782 851.101 383.534L852.729 380H856.637ZM1057.96 392.223C1040.58 393.052 1016.44 398.82 997.185 414.385C987.578 422.15 979.647 431.936 974.14 441.847C970.01 449.279 967.373 456.543 966.295 462.879C965.72 466.257 962.945 469.051 959.5 469.051C956.055 469.051 953.28 466.257 952.705 462.879C951.627 456.543 948.99 449.279 944.86 441.847C939.353 431.936 931.422 422.15 921.815 414.385C902.557 398.82 878.418 393.052 861.041 392.223C860.303 395.739 860.044 400.455 860.25 405.818C860.527 413.063 861.596 420.46 862.607 425.448C866.025 442.316 876.504 462.3 898.03 469.795C915.089 475.734 932.243 473.493 939.865 476.691C941.026 477.03 942.134 477.43 943.2 477.899C947.04 479.59 950.024 482.054 952.893 485.023C955.224 487.435 954.889 491.303 952.339 493.484C949.789 495.666 946 495.321 943.636 492.942C941.614 490.906 940.069 489.77 938.27 488.978C935.31 487.674 930.982 487.023 921.671 487.023C908.386 487.023 894.44 495.656 892.812 510.885C891.403 524.053 899.647 537.024 915.63 538.752C923.564 539.61 930.148 535.827 935.636 530.215C936.337 529.432 937.067 528.569 937.811 527.642C940.128 524.755 942.178 521.764 943.323 519.949L959.535 493.742L959.656 493.546L959.792 493.36C963.728 487.964 967.977 483.103 974.172 479.755C975.738 478.91 977.386 478.182 979.135 477.567C987.863 474.497 1003.91 475.734 1020.97 469.795C1042.5 462.3 1052.97 442.316 1056.39 425.448C1057.4 420.46 1058.47 413.063 1058.75 405.818C1058.96 400.455 1058.7 395.739 1057.96 392.223Z" fill="url(#paint5_linear_5_178)"/>
</g>
<defs>
<filter id="filter0_f_5_178" x="138.001" y="658.209" width="1643.38" height="1286.41" filterUnits="userSpaceOnUse" color-interpolation-filters="sRGB">
<feFlood flood-opacity="0" result="BackgroundImageFix"/>
<feBlend mode="normal" in="SourceGraphic" in2="BackgroundImageFix" result="shape"/>
<feGaussianBlur stdDeviation="150" result="effect1_foregroundBlur_5_178"/>
</filter>
<filter id="filter1_f_5_178" x="716.68" y="-3" width="484.428" height="1462.19" filterUnits="userSpaceOnUse" color-interpolation-filters="sRGB">
<feFlood flood-opacity="0" result="BackgroundImageFix"/>
<feBlend mode="normal" in="SourceGraphic" in2="BackgroundImageFix" result="shape"/>
<feGaussianBlur stdDeviation="47" result="effect1_foregroundBlur_5_178"/>
</filter>
<filter id="filter2_f_5_178" x="956.826" y="380.239" width="561.419" height="1443.75" filterUnits="userSpaceOnUse" color-interpolation-filters="sRGB">
<feFlood flood-opacity="0" result="BackgroundImageFix"/>
<feBlend mode="normal" in="SourceGraphic" in2="BackgroundImageFix" result="shape"/>
<feGaussianBlur stdDeviation="45.95" result="effect1_foregroundBlur_5_178"/>
</filter>
<filter id="filter3_f_5_178" x="366.581" y="364.827" width="561.419" height="1443.75" filterUnits="userSpaceOnUse" color-interpolation-filters="sRGB">
<feFlood flood-opacity="0" result="BackgroundImageFix"/>
<feBlend mode="normal" in="SourceGraphic" in2="BackgroundImageFix" result="shape"/>
<feGaussianBlur stdDeviation="45.95" result="effect1_foregroundBlur_5_178"/>
</filter>
<filter id="filter4_f_5_178" x="976.055" y="345.897" width="400.961" height="1317.71" filterUnits="userSpaceOnUse" color-interpolation-filters="sRGB">
<feFlood flood-opacity="0" result="BackgroundImageFix"/>
<feBlend mode="normal" in="SourceGraphic" in2="BackgroundImageFix" result="shape"/>
<feGaussianBlur stdDeviation="15" result="effect1_foregroundBlur_5_178"/>
</filter>
<filter id="filter5_f_5_178" x="530.312" y="341.266" width="463.282" height="1322.34" filterUnits="userSpaceOnUse" color-interpolation-filters="sRGB">
<feFlood flood-opacity="0" result="BackgroundImageFix"/>
<feBlend mode="normal" in="SourceGraphic" in2="BackgroundImageFix" result="shape"/>
<feGaussianBlur stdDeviation="15" result="effect1_foregroundBlur_5_178"/>
</filter>
<linearGradient id="paint0_linear_5_178" x1="958.894" y1="1365.19" x2="958.894" y2="91.0001" gradientUnits="userSpaceOnUse">
<stop stop-color="#2388FF"/>
<stop offset="0.88" stop-color="#2388FF" stop-opacity="0"/>
</linearGradient>
<linearGradient id="paint1_linear_5_178" x1="148.133" y1="0" x2="148.133" y2="1255.29" gradientUnits="userSpaceOnUse">
<stop stop-color="#3BA55D"/>
<stop offset="0.88" stop-color="#31884D" stop-opacity="0"/>
</linearGradient>
<linearGradient id="paint2_linear_5_178" x1="148.133" y1="0" x2="148.133" y2="1255.29" gradientUnits="userSpaceOnUse">
<stop stop-color="#3BA55D"/>
<stop offset="0.88" stop-color="#31884D" stop-opacity="0"/>
</linearGradient>
<linearGradient id="paint3_linear_5_178" x1="1155.03" y1="1632.05" x2="1136.28" y2="378.382" gradientUnits="userSpaceOnUse">
<stop stop-color="#3BA55D"/>
<stop offset="0.8" stop-color="#3BA55D" stop-opacity="0"/>
</linearGradient>
<linearGradient id="paint4_linear_5_178" x1="664.534" y1="1626.7" x2="709.703" y2="372.781" gradientUnits="userSpaceOnUse">
<stop stop-color="#3BA55D"/>
<stop offset="0.8" stop-color="#3BA55D" stop-opacity="0"/>
</linearGradient>
<linearGradient id="paint5_linear_5_178" x1="959.5" y1="380" x2="959.5" y2="551" gradientUnits="userSpaceOnUse">
<stop stop-color="#0A8AFE"/>
<stop offset="1" stop-color="#3BA55D"/>
</linearGradient>
<clipPath id="clip0_5_178">
<rect width="1920" height="1080" fill="white"/>
</clipPath>
</defs>
</svg>
