<svg width="1920" height="1080" viewBox="0 0 1920 1080" fill="none" xmlns="http://www.w3.org/2000/svg">
<g clip-path="url(#clip0_5_187)">
<rect width="1920" height="1080" fill="white"/>
<rect y="540" width="1920" height="540" fill="url(#paint0_linear_5_187)"/>
<rect width="1920" height="540" fill="white"/>
<path fill-rule="evenodd" clip-rule="evenodd" d="M537.778 171C553.026 171 576.344 175.591 594.954 190.723C603.5 197.671 610.498 206.366 615.377 215.199C616.531 217.288 617.576 219.404 618.5 221.525C619.424 219.404 620.469 217.288 621.623 215.199C626.502 206.366 633.5 197.671 642.046 190.723C660.656 175.591 683.974 171 699.222 171H702.289L703.566 173.79C705.826 178.722 706.17 185.659 705.938 191.747C705.698 198.064 704.784 204.419 703.907 208.771C700.873 223.831 691.236 243.444 669.897 250.919C669.114 251.193 668.332 251.45 667.553 251.692C674.373 256.226 679.665 263.434 680.716 273.319C682.314 288.36 672.698 303.842 654.337 305.84C643.436 307.025 635.399 301.439 630.097 295.704C627.115 292.479 624.717 288.858 623.053 286.109C621.685 283.85 622.446 280.828 624.669 279.404C626.892 277.98 629.769 278.676 631.116 280.948C632.577 283.414 634.483 286.364 637.113 289.209C641.354 293.796 646.618 297.058 653.304 296.331C665.847 294.966 672.316 284.726 671.211 274.331C669.933 262.307 658.989 255.492 648.564 255.491C641.697 255.492 637.554 256.541 634.576 258.16C631.629 259.762 629.328 262.182 626.567 265.973L617.327 280.998L617.371 281.026C616.461 282.449 612.915 289.403 607.618 295.204C607.348 295.5 607.071 295.796 606.786 296.091C605.25 297.803 603.543 299.459 601.831 300.601L601.769 300.507C596.849 304.109 590.603 306.662 583.04 305.84C564.679 303.842 555.063 288.36 556.662 273.319C557.706 263.491 562.942 256.31 569.704 251.771C568.84 251.506 567.973 251.223 567.103 250.919C545.764 243.444 536.127 223.831 533.093 208.771C532.217 204.419 531.302 198.064 531.062 191.747C530.83 185.659 531.174 178.722 533.434 173.79L534.711 171H537.778ZM695.766 180.65C682.129 181.304 663.186 185.858 648.074 198.146C640.534 204.277 634.31 212.002 629.989 219.826C626.748 225.694 624.679 231.428 623.832 236.43C623.381 239.098 621.203 241.303 618.5 241.303C615.797 241.303 613.619 239.098 613.168 236.43C612.321 231.428 610.252 225.694 607.011 219.826C602.69 212.002 596.466 204.277 588.926 198.146C573.814 185.858 554.871 181.304 541.234 180.65C540.654 183.425 540.452 187.149 540.613 191.383C540.831 197.102 541.669 202.942 542.463 206.88C545.145 220.197 553.369 235.974 570.261 241.891C583.649 246.58 597.11 244.81 603.091 247.335C604.002 247.603 604.872 247.918 605.709 248.289C608.722 249.624 611.063 251.569 613.315 253.913C615.144 255.817 614.881 258.871 612.88 260.593C610.879 262.315 607.906 262.043 606.051 260.164C604.464 258.557 603.252 257.661 601.839 257.035C599.517 256.006 596.12 255.491 588.813 255.491C578.388 255.491 567.444 262.307 566.166 274.331C565.061 284.726 571.53 294.966 584.073 296.331C590.299 297.008 595.466 294.021 599.773 289.59C600.322 288.973 600.896 288.291 601.479 287.56C603.298 285.28 604.907 282.919 605.805 281.486L618.528 260.797L618.623 260.642L618.729 260.494C621.818 256.234 625.152 252.397 630.014 249.754C631.242 249.087 632.536 248.512 633.909 248.027C640.758 245.603 653.351 246.58 666.739 241.891C683.632 235.974 691.855 220.197 694.537 206.88C695.331 202.942 696.169 197.102 696.387 191.383C696.548 187.149 696.346 183.425 695.766 180.65Z" fill="url(#paint1_linear_5_187)"/>
<path d="M744.619 231.903C742.133 231.903 739.885 231.478 737.876 230.626C735.901 229.775 734.335 228.549 733.177 226.949C732.019 225.348 731.423 223.458 731.389 221.279H739.051C739.153 222.743 739.664 223.901 740.583 224.752C741.537 225.604 742.831 226.029 744.465 226.029C746.134 226.029 747.445 225.638 748.399 224.854C749.352 224.037 749.829 222.981 749.829 221.687C749.829 220.632 749.505 219.764 748.858 219.082C748.211 218.401 747.394 217.874 746.406 217.499C745.453 217.09 744.125 216.648 742.422 216.171C740.107 215.49 738.217 214.826 736.753 214.179C735.322 213.498 734.079 212.493 733.024 211.165C732.002 209.803 731.491 207.998 731.491 205.751C731.491 203.64 732.019 201.801 733.075 200.234C734.131 198.668 735.612 197.476 737.519 196.659C739.426 195.808 741.605 195.382 744.057 195.382C747.735 195.382 750.714 196.284 752.996 198.089C755.311 199.86 756.588 202.346 756.826 205.547H748.96C748.892 204.321 748.364 203.316 747.377 202.533C746.423 201.716 745.147 201.307 743.546 201.307C742.15 201.307 741.026 201.665 740.175 202.38C739.358 203.095 738.949 204.133 738.949 205.496C738.949 206.449 739.255 207.249 739.868 207.896C740.515 208.509 741.299 209.02 742.218 209.429C743.171 209.803 744.5 210.246 746.202 210.757C748.518 211.438 750.408 212.119 751.872 212.8C753.336 213.481 754.596 214.502 755.652 215.865C756.707 217.227 757.235 219.014 757.235 221.228C757.235 223.135 756.741 224.905 755.754 226.54C754.766 228.174 753.319 229.485 751.412 230.473C749.505 231.426 747.241 231.903 744.619 231.903Z" fill="black"/>
<path d="M790.558 203.248V231.546H783.355V227.97C782.436 229.196 781.227 230.167 779.729 230.882C778.265 231.563 776.664 231.903 774.927 231.903C772.714 231.903 770.756 231.443 769.053 230.524C767.351 229.571 766.006 228.191 765.018 226.387C764.065 224.548 763.588 222.369 763.588 219.849V203.248H770.739V218.827C770.739 221.075 771.301 222.811 772.425 224.037C773.548 225.229 775.081 225.825 777.022 225.825C778.997 225.825 780.546 225.229 781.67 224.037C782.794 222.811 783.355 221.075 783.355 218.827V203.248H790.558Z" fill="black"/>
<path d="M808.85 232.005C806.535 232.005 804.458 231.597 802.619 230.779C800.78 229.928 799.316 228.787 798.226 227.357C797.17 225.927 796.592 224.344 796.489 222.607H803.692C803.828 223.697 804.356 224.599 805.275 225.314C806.228 226.029 807.403 226.387 808.799 226.387C810.161 226.387 811.217 226.114 811.966 225.569C812.749 225.025 813.141 224.327 813.141 223.475C813.141 222.556 812.664 221.875 811.711 221.432C810.791 220.955 809.31 220.445 807.267 219.9C805.156 219.389 803.419 218.861 802.057 218.316C800.729 217.771 799.571 216.937 798.584 215.813C797.63 214.69 797.153 213.174 797.153 211.267C797.153 209.701 797.596 208.271 798.482 206.977C799.401 205.683 800.695 204.661 802.363 203.912C804.066 203.163 806.058 202.788 808.34 202.788C811.711 202.788 814.401 203.64 816.41 205.342C818.419 207.011 819.526 209.275 819.73 212.136H812.886C812.784 211.012 812.307 210.127 811.455 209.48C810.638 208.799 809.532 208.458 808.135 208.458C806.841 208.458 805.837 208.696 805.122 209.173C804.441 209.65 804.1 210.314 804.1 211.165C804.1 212.119 804.577 212.851 805.53 213.362C806.484 213.838 807.965 214.332 809.974 214.843C812.017 215.354 813.703 215.882 815.031 216.426C816.359 216.971 817.5 217.823 818.453 218.98C819.441 220.104 819.952 221.602 819.986 223.475C819.986 225.11 819.526 226.574 818.606 227.868C817.721 229.162 816.427 230.184 814.725 230.933C813.056 231.648 811.098 232.005 808.85 232.005Z" fill="black"/>
<path d="M834.59 209.122V222.811C834.59 223.765 834.811 224.463 835.254 224.905C835.731 225.314 836.514 225.518 837.604 225.518H840.924V231.546H836.429C830.402 231.546 827.388 228.617 827.388 222.76V209.122H824.017V203.248H827.388V196.25H834.59V203.248H840.924V209.122H834.59Z" fill="black"/>
<path d="M844.637 217.295C844.637 214.434 845.199 211.897 846.323 209.684C847.48 207.471 849.03 205.768 850.971 204.576C852.946 203.384 855.142 202.788 857.56 202.788C859.671 202.788 861.51 203.214 863.076 204.065C864.677 204.917 865.954 205.989 866.907 207.283V203.248H874.109V231.546H866.907V227.408C865.988 228.736 864.711 229.843 863.076 230.728C861.476 231.58 859.62 232.005 857.509 232.005C855.125 232.005 852.946 231.392 850.971 230.167C849.03 228.941 847.48 227.221 846.323 225.008C845.199 222.76 844.637 220.189 844.637 217.295ZM866.907 217.397C866.907 215.66 866.567 214.179 865.886 212.953C865.205 211.693 864.285 210.74 863.128 210.093C861.97 209.412 860.727 209.071 859.399 209.071C858.071 209.071 856.845 209.395 855.721 210.042C854.597 210.689 853.678 211.642 852.963 212.902C852.282 214.128 851.941 215.592 851.941 217.295C851.941 218.997 852.282 220.496 852.963 221.79C853.678 223.05 854.597 224.02 855.721 224.701C856.879 225.382 858.105 225.723 859.399 225.723C860.727 225.723 861.97 225.399 863.128 224.752C864.285 224.071 865.205 223.118 865.886 221.892C866.567 220.632 866.907 219.134 866.907 217.397Z" fill="black"/>
<path d="M885.129 199.877C883.869 199.877 882.813 199.485 881.962 198.702C881.145 197.885 880.736 196.88 880.736 195.688C880.736 194.497 881.145 193.509 881.962 192.726C882.813 191.909 883.869 191.5 885.129 191.5C886.389 191.5 887.427 191.909 888.245 192.726C889.096 193.509 889.522 194.497 889.522 195.688C889.522 196.88 889.096 197.885 888.245 198.702C887.427 199.485 886.389 199.877 885.129 199.877ZM888.653 203.248V231.546H881.502V203.248H888.653Z" fill="black"/>
<path d="M911.808 202.839C915.179 202.839 917.904 203.912 919.981 206.057C922.058 208.169 923.097 211.131 923.097 214.945V231.546H915.946V215.916C915.946 213.668 915.384 211.948 914.26 210.757C913.136 209.531 911.604 208.918 909.663 208.918C907.688 208.918 906.121 209.531 904.964 210.757C903.84 211.948 903.278 213.668 903.278 215.916V231.546H896.127V203.248H903.278V206.773C904.232 205.547 905.44 204.593 906.905 203.912C908.403 203.197 910.038 202.839 911.808 202.839Z" fill="black"/>
<path d="M928.467 217.295C928.467 214.434 929.029 211.897 930.152 209.684C931.31 207.471 932.859 205.768 934.8 204.576C936.775 203.384 938.972 202.788 941.39 202.788C943.501 202.788 945.34 203.214 946.906 204.065C948.507 204.917 949.783 205.989 950.737 207.283V203.248H957.939V231.546H950.737V227.408C949.818 228.736 948.541 229.843 946.906 230.728C945.306 231.58 943.45 232.005 941.338 232.005C938.955 232.005 936.775 231.392 934.8 230.167C932.859 228.941 931.31 227.221 930.152 225.008C929.029 222.76 928.467 220.189 928.467 217.295ZM950.737 217.397C950.737 215.66 950.396 214.179 949.715 212.953C949.034 211.693 948.115 210.74 946.957 210.093C945.799 209.412 944.556 209.071 943.228 209.071C941.9 209.071 940.674 209.395 939.551 210.042C938.427 210.689 937.508 211.642 936.792 212.902C936.111 214.128 935.771 215.592 935.771 217.295C935.771 218.997 936.111 220.496 936.792 221.79C937.508 223.05 938.427 224.02 939.551 224.701C940.709 225.382 941.934 225.723 943.228 225.723C944.556 225.723 945.799 225.399 946.957 224.752C948.115 224.071 949.034 223.118 949.715 221.892C950.396 220.632 950.737 219.134 950.737 217.397Z" fill="black"/>
<path d="M972.483 207.385C973.402 206.023 974.662 204.917 976.263 204.065C977.897 203.214 979.753 202.788 981.83 202.788C984.248 202.788 986.427 203.384 988.368 204.576C990.343 205.768 991.893 207.471 993.016 209.684C994.174 211.863 994.753 214.4 994.753 217.295C994.753 220.189 994.174 222.76 993.016 225.008C991.893 227.221 990.343 228.941 988.368 230.167C986.427 231.392 984.248 232.005 981.83 232.005C979.719 232.005 977.863 231.597 976.263 230.779C974.696 229.928 973.436 228.838 972.483 227.51V231.546H965.332V193.747H972.483V207.385ZM987.449 217.295C987.449 215.592 987.091 214.128 986.376 212.902C985.695 211.642 984.776 210.689 983.618 210.042C982.494 209.395 981.268 209.071 979.94 209.071C978.646 209.071 977.42 209.412 976.263 210.093C975.139 210.74 974.22 211.693 973.504 212.953C972.823 214.213 972.483 215.694 972.483 217.397C972.483 219.099 972.823 220.581 973.504 221.841C974.22 223.101 975.139 224.071 976.263 224.752C977.42 225.399 978.646 225.723 979.94 225.723C981.268 225.723 982.494 225.382 983.618 224.701C984.776 224.02 985.695 223.05 986.376 221.79C987.091 220.53 987.449 219.031 987.449 217.295Z" fill="black"/>
<path d="M1003.98 199.877C1002.72 199.877 1001.67 199.485 1000.82 198.702C1000 197.885 999.592 196.88 999.592 195.688C999.592 194.497 1000 193.509 1000.82 192.726C1001.67 191.909 1002.72 191.5 1003.98 191.5C1005.24 191.5 1006.28 191.909 1007.1 192.726C1007.95 193.509 1008.38 194.497 1008.38 195.688C1008.38 196.88 1007.95 197.885 1007.1 198.702C1006.28 199.485 1005.24 199.877 1003.98 199.877ZM1007.51 203.248V231.546H1000.36V203.248H1007.51Z" fill="black"/>
<path d="M1022.13 193.747V231.546H1014.98V193.747H1022.13Z" fill="black"/>
<path d="M1033.23 199.877C1031.97 199.877 1030.92 199.485 1030.07 198.702C1029.25 197.885 1028.84 196.88 1028.84 195.688C1028.84 194.497 1029.25 193.509 1030.07 192.726C1030.92 191.909 1031.97 191.5 1033.23 191.5C1034.49 191.5 1035.53 191.909 1036.35 192.726C1037.2 193.509 1037.63 194.497 1037.63 195.688C1037.63 196.88 1037.2 197.885 1036.35 198.702C1035.53 199.485 1034.49 199.877 1033.23 199.877ZM1036.76 203.248V231.546H1029.61V203.248H1036.76Z" fill="black"/>
<path d="M1052.56 209.122V222.811C1052.56 223.765 1052.78 224.463 1053.22 224.905C1053.7 225.314 1054.48 225.518 1055.57 225.518H1058.89V231.546H1054.4C1048.37 231.546 1045.36 228.617 1045.36 222.76V209.122H1041.99V203.248H1045.36V196.25H1052.56V203.248H1058.89V209.122H1052.56Z" fill="black"/>
<path d="M1091.52 203.248L1074 244.928H1066.39L1072.51 230.831L1061.18 203.248H1069.19L1076.5 223.016L1083.91 203.248H1091.52Z" fill="black"/>
<path d="M1115.51 201.665V210.603H1127.51V216.273H1115.51V225.723H1129.05V231.546H1108.36V195.842H1129.05V201.665H1115.51Z" fill="black"/>
<path d="M1134.11 217.397C1134.11 214.468 1134.71 211.914 1135.9 209.735C1137.09 207.522 1138.75 205.819 1140.86 204.627C1142.97 203.401 1145.39 202.788 1148.11 202.788C1151.62 202.788 1154.51 203.674 1156.79 205.444C1159.11 207.181 1160.66 209.633 1161.44 212.8H1153.73C1153.32 211.574 1152.62 210.62 1151.63 209.939C1150.68 209.224 1149.49 208.867 1148.06 208.867C1146.02 208.867 1144.4 209.616 1143.21 211.114C1142.01 212.578 1141.42 214.673 1141.42 217.397C1141.42 220.087 1142.01 222.181 1143.21 223.68C1144.4 225.144 1146.02 225.876 1148.06 225.876C1150.95 225.876 1152.84 224.582 1153.73 221.994H1161.44C1160.66 225.059 1159.11 227.493 1156.79 229.298C1154.48 231.103 1151.58 232.005 1148.11 232.005C1145.39 232.005 1142.97 231.409 1140.86 230.218C1138.75 228.992 1137.09 227.289 1135.9 225.11C1134.71 222.896 1134.11 220.325 1134.11 217.397Z" fill="black"/>
<path d="M1179.65 232.005C1176.93 232.005 1174.48 231.409 1172.3 230.218C1170.12 228.992 1168.4 227.272 1167.14 225.059C1165.91 222.845 1165.3 220.291 1165.3 217.397C1165.3 214.502 1165.93 211.948 1167.19 209.735C1168.49 207.522 1170.24 205.819 1172.45 204.627C1174.67 203.401 1177.13 202.788 1179.86 202.788C1182.58 202.788 1185.05 203.401 1187.26 204.627C1189.48 205.819 1191.21 207.522 1192.47 209.735C1193.77 211.948 1194.42 214.502 1194.42 217.397C1194.42 220.291 1193.75 222.845 1192.42 225.059C1191.13 227.272 1189.36 228.992 1187.11 230.218C1184.9 231.409 1182.41 232.005 1179.65 232.005ZM1179.65 225.774C1180.95 225.774 1182.16 225.467 1183.28 224.854C1184.44 224.207 1185.36 223.254 1186.04 221.994C1186.72 220.734 1187.06 219.202 1187.06 217.397C1187.06 214.707 1186.35 212.647 1184.92 211.216C1183.52 209.752 1181.8 209.02 1179.76 209.02C1177.71 209.02 1175.99 209.752 1174.6 211.216C1173.24 212.647 1172.55 214.707 1172.55 217.397C1172.55 220.087 1173.22 222.164 1174.55 223.628C1175.91 225.059 1177.61 225.774 1179.65 225.774Z" fill="black"/>
<path d="M1215.75 202.839C1219.12 202.839 1221.85 203.912 1223.92 206.057C1226 208.169 1227.04 211.131 1227.04 214.945V231.546H1219.89V215.916C1219.89 213.668 1219.33 211.948 1218.2 210.757C1217.08 209.531 1215.55 208.918 1213.61 208.918C1211.63 208.918 1210.06 209.531 1208.91 210.757C1207.78 211.948 1207.22 213.668 1207.22 215.916V231.546H1200.07V203.248H1207.22V206.773C1208.17 205.547 1209.38 204.593 1210.85 203.912C1212.35 203.197 1213.98 202.839 1215.75 202.839Z" fill="black"/>
<path d="M1246.81 232.005C1244.09 232.005 1241.64 231.409 1239.46 230.218C1237.28 228.992 1235.56 227.272 1234.3 225.059C1233.07 222.845 1232.46 220.291 1232.46 217.397C1232.46 214.502 1233.09 211.948 1234.35 209.735C1235.64 207.522 1237.4 205.819 1239.61 204.627C1241.83 203.401 1244.29 202.788 1247.02 202.788C1249.74 202.788 1252.21 203.401 1254.42 204.627C1256.64 205.819 1258.37 207.522 1259.63 209.735C1260.93 211.948 1261.58 214.502 1261.58 217.397C1261.58 220.291 1260.91 222.845 1259.58 225.059C1258.29 227.272 1256.52 228.992 1254.27 230.218C1252.06 231.409 1249.57 232.005 1246.81 232.005ZM1246.81 225.774C1248.11 225.774 1249.32 225.467 1250.44 224.854C1251.6 224.207 1252.52 223.254 1253.2 221.994C1253.88 220.734 1254.22 219.202 1254.22 217.397C1254.22 214.707 1253.51 212.647 1252.07 211.216C1250.68 209.752 1248.96 209.02 1246.92 209.02C1244.87 209.02 1243.15 209.752 1241.76 211.216C1240.39 212.647 1239.71 214.707 1239.71 217.397C1239.71 220.087 1240.38 222.164 1241.71 223.628C1243.07 225.059 1244.77 225.774 1246.81 225.774Z" fill="black"/>
<path d="M1302.37 202.839C1305.85 202.839 1308.64 203.912 1310.75 206.057C1312.89 208.169 1313.97 211.131 1313.97 214.945V231.546H1306.82V215.916C1306.82 213.702 1306.25 212.017 1305.13 210.859C1304.01 209.667 1302.47 209.071 1300.53 209.071C1298.59 209.071 1297.04 209.667 1295.88 210.859C1294.76 212.017 1294.2 213.702 1294.2 215.916V231.546H1287.05V215.916C1287.05 213.702 1286.49 212.017 1285.36 210.859C1284.24 209.667 1282.71 209.071 1280.77 209.071C1278.79 209.071 1277.22 209.667 1276.07 210.859C1274.94 212.017 1274.38 213.702 1274.38 215.916V231.546H1267.23V203.248H1274.38V206.67C1275.3 205.479 1276.47 204.542 1277.91 203.861C1279.37 203.18 1280.97 202.839 1282.71 202.839C1284.92 202.839 1286.89 203.316 1288.63 204.27C1290.37 205.189 1291.71 206.517 1292.67 208.254C1293.59 206.619 1294.91 205.308 1296.65 204.321C1298.42 203.333 1300.33 202.839 1302.37 202.839Z" fill="black"/>
<path d="M1324.79 199.877C1323.53 199.877 1322.47 199.485 1321.62 198.702C1320.8 197.885 1320.39 196.88 1320.39 195.688C1320.39 194.497 1320.8 193.509 1321.62 192.726C1322.47 191.909 1323.53 191.5 1324.79 191.5C1326.05 191.5 1327.09 191.909 1327.9 192.726C1328.75 193.509 1329.18 194.497 1329.18 195.688C1329.18 196.88 1328.75 197.885 1327.9 198.702C1327.09 199.485 1326.05 199.877 1324.79 199.877ZM1328.31 203.248V231.546H1321.16V203.248H1328.31Z" fill="black"/>
<path d="M1333.95 217.397C1333.95 214.468 1334.54 211.914 1335.73 209.735C1336.93 207.522 1338.58 205.819 1340.69 204.627C1342.8 203.401 1345.22 202.788 1347.94 202.788C1351.45 202.788 1354.34 203.674 1356.63 205.444C1358.94 207.181 1360.49 209.633 1361.27 212.8H1353.56C1353.15 211.574 1352.45 210.62 1351.47 209.939C1350.51 209.224 1349.32 208.867 1347.89 208.867C1345.85 208.867 1344.23 209.616 1343.04 211.114C1341.85 212.578 1341.25 214.673 1341.25 217.397C1341.25 220.087 1341.85 222.181 1343.04 223.68C1344.23 225.144 1345.85 225.876 1347.89 225.876C1350.79 225.876 1352.68 224.582 1353.56 221.994H1361.27C1360.49 225.059 1358.94 227.493 1356.63 229.298C1354.31 231.103 1351.42 232.005 1347.94 232.005C1345.22 232.005 1342.8 231.409 1340.69 230.218C1338.58 228.992 1336.93 227.289 1335.73 225.11C1334.54 222.896 1333.95 220.325 1333.95 217.397Z" fill="black"/>
<path d="M1377.75 232.005C1375.43 232.005 1373.36 231.597 1371.52 230.779C1369.68 229.928 1368.22 228.787 1367.13 227.357C1366.07 225.927 1365.49 224.344 1365.39 222.607H1372.59C1372.73 223.697 1373.26 224.599 1374.17 225.314C1375.13 226.029 1376.3 226.387 1377.7 226.387C1379.06 226.387 1380.12 226.114 1380.87 225.569C1381.65 225.025 1382.04 224.327 1382.04 223.475C1382.04 222.556 1381.56 221.875 1380.61 221.432C1379.69 220.955 1378.21 220.445 1376.17 219.9C1374.06 219.389 1372.32 218.861 1370.96 218.316C1369.63 217.771 1368.47 216.937 1367.48 215.813C1366.53 214.69 1366.05 213.174 1366.05 211.267C1366.05 209.701 1366.5 208.271 1367.38 206.977C1368.3 205.683 1369.59 204.661 1371.26 203.912C1372.97 203.163 1374.96 202.788 1377.24 202.788C1380.61 202.788 1383.3 203.64 1385.31 205.342C1387.32 207.011 1388.43 209.275 1388.63 212.136H1381.79C1381.68 211.012 1381.21 210.127 1380.36 209.48C1379.54 208.799 1378.43 208.458 1377.04 208.458C1375.74 208.458 1374.74 208.696 1374.02 209.173C1373.34 209.65 1373 210.314 1373 211.165C1373 212.119 1373.48 212.851 1374.43 213.362C1375.38 213.838 1376.86 214.332 1378.87 214.843C1380.92 215.354 1382.6 215.882 1383.93 216.426C1385.26 216.971 1386.4 217.823 1387.35 218.98C1388.34 220.104 1388.85 221.602 1388.89 223.475C1388.89 225.11 1388.43 226.574 1387.51 227.868C1386.62 229.162 1385.33 230.184 1383.62 230.933C1381.96 231.648 1380 232.005 1377.75 232.005Z" fill="black"/>
<path d="M746.876 260.257V262.903H740.083V285.178H736.829V262.903H730V260.257H746.876Z" fill="#252525"/>
<path d="M754.636 268.767C755.208 267.646 756.018 266.776 757.067 266.157C758.14 265.537 759.439 265.227 760.964 265.227V268.588H760.106C756.459 268.588 754.636 270.566 754.636 274.523V285.178H751.382V265.584H754.636V268.767Z" fill="#252525"/>
<path d="M782.598 265.584V285.178H779.344V282.282C778.724 283.283 777.854 284.07 776.734 284.642C775.638 285.19 774.422 285.464 773.087 285.464C771.562 285.464 770.191 285.154 768.975 284.535C767.76 283.891 766.794 282.938 766.079 281.674C765.388 280.411 765.042 278.873 765.042 277.062V265.584H768.26V276.633C768.26 278.564 768.749 280.053 769.726 281.102C770.703 282.127 772.038 282.64 773.731 282.64C775.471 282.64 776.841 282.103 777.842 281.031C778.844 279.958 779.344 278.397 779.344 276.347V265.584H782.598Z" fill="#252525"/>
<path d="M795.529 285.5C794.027 285.5 792.68 285.25 791.488 284.749C790.297 284.225 789.355 283.51 788.664 282.604C787.972 281.674 787.591 280.613 787.52 279.422H790.88C790.976 280.399 791.429 281.197 792.239 281.817C793.073 282.437 794.158 282.747 795.493 282.747C796.732 282.747 797.71 282.473 798.425 281.924C799.14 281.376 799.497 280.685 799.497 279.851C799.497 278.993 799.116 278.361 798.353 277.956C797.591 277.527 796.411 277.109 794.814 276.704C793.36 276.323 792.168 275.941 791.238 275.56C790.332 275.155 789.546 274.571 788.878 273.808C788.235 273.021 787.913 271.997 787.913 270.733C787.913 269.732 788.211 268.814 788.807 267.98C789.403 267.146 790.249 266.49 791.345 266.014C792.442 265.513 793.693 265.263 795.1 265.263C797.269 265.263 799.021 265.811 800.356 266.907C801.69 268.004 802.406 269.506 802.501 271.413H799.247C799.176 270.388 798.759 269.565 797.996 268.945C797.257 268.326 796.256 268.016 794.992 268.016C793.824 268.016 792.895 268.266 792.203 268.767C791.512 269.267 791.167 269.923 791.167 270.733C791.167 271.377 791.369 271.913 791.774 272.342C792.203 272.747 792.728 273.081 793.348 273.343C793.991 273.582 794.873 273.856 795.993 274.166C797.4 274.547 798.544 274.928 799.426 275.31C800.308 275.667 801.059 276.216 801.679 276.955C802.322 277.693 802.656 278.659 802.68 279.851C802.68 280.923 802.382 281.889 801.786 282.747C801.19 283.605 800.344 284.284 799.247 284.785C798.175 285.262 796.935 285.5 795.529 285.5Z" fill="#252525"/>
<path d="M811.742 268.266V279.815C811.742 280.768 811.945 281.448 812.35 281.853C812.755 282.234 813.458 282.425 814.46 282.425H816.855V285.178H813.923C812.112 285.178 810.753 284.761 809.847 283.927C808.941 283.093 808.488 281.722 808.488 279.815V268.266H805.95V265.584H808.488V260.65H811.742V265.584H816.855V268.266H811.742Z" fill="#252525"/>
<path d="M839.176 274.63C839.176 275.25 839.14 275.906 839.068 276.597H823.408C823.527 278.528 824.182 280.041 825.374 281.138C826.59 282.211 828.056 282.747 829.772 282.747C831.178 282.747 832.346 282.425 833.276 281.781C834.229 281.114 834.897 280.232 835.278 279.136H838.782C838.258 281.019 837.209 282.556 835.636 283.748C834.063 284.916 832.108 285.5 829.772 285.5C827.913 285.5 826.244 285.083 824.766 284.249C823.312 283.414 822.168 282.234 821.334 280.709C820.499 279.159 820.082 277.372 820.082 275.346C820.082 273.319 820.488 271.544 821.298 270.018C822.108 268.493 823.241 267.325 824.695 266.514C826.173 265.68 827.865 265.263 829.772 265.263C831.631 265.263 833.276 265.668 834.706 266.478C836.136 267.289 837.233 268.409 837.996 269.839C838.782 271.246 839.176 272.843 839.176 274.63ZM835.815 273.951C835.815 272.712 835.54 271.651 834.992 270.769C834.444 269.863 833.693 269.184 832.74 268.731C831.81 268.254 830.773 268.016 829.629 268.016C827.984 268.016 826.578 268.54 825.41 269.589C824.266 270.638 823.61 272.092 823.443 273.951H835.815Z" fill="#252525"/>
<path d="M842.755 275.31C842.755 273.308 843.16 271.556 843.971 270.054C844.781 268.528 845.89 267.348 847.296 266.514C848.726 265.68 850.323 265.263 852.087 265.263C853.613 265.263 855.031 265.62 856.342 266.335C857.653 267.027 858.654 267.944 859.346 269.088V258.719H862.635V285.178H859.346V281.495C858.702 282.663 857.748 283.629 856.485 284.392C855.222 285.131 853.744 285.5 852.051 285.5C850.311 285.5 848.726 285.071 847.296 284.213C845.89 283.355 844.781 282.151 843.971 280.602C843.16 279.052 842.755 277.288 842.755 275.31ZM859.346 275.346C859.346 273.868 859.048 272.581 858.452 271.484C857.856 270.388 857.045 269.553 856.02 268.981C855.019 268.385 853.911 268.087 852.695 268.087C851.479 268.087 850.371 268.373 849.37 268.945C848.369 269.518 847.57 270.352 846.974 271.448C846.378 272.545 846.08 273.832 846.08 275.31C846.08 276.812 846.378 278.123 846.974 279.243C847.57 280.339 848.369 281.186 849.37 281.781C850.371 282.354 851.479 282.64 852.695 282.64C853.911 282.64 855.019 282.354 856.02 281.781C857.045 281.186 857.856 280.339 858.452 279.243C859.048 278.123 859.346 276.823 859.346 275.346Z" fill="#252525"/>
<path d="M898.261 285.178H895.007L881.921 265.334V285.178H878.667V260.221H881.921L895.007 280.029V260.221H898.261V285.178Z" fill="#252525"/>
<path d="M922.185 274.63C922.185 275.25 922.15 275.906 922.078 276.597H906.417C906.537 278.528 907.192 280.041 908.384 281.138C909.6 282.211 911.065 282.747 912.782 282.747C914.188 282.747 915.356 282.425 916.286 281.781C917.239 281.114 917.907 280.232 918.288 279.136H921.792C921.268 281.019 920.219 282.556 918.646 283.748C917.072 284.916 915.118 285.5 912.782 285.5C910.922 285.5 909.254 285.083 907.776 284.249C906.322 283.414 905.178 282.234 904.344 280.709C903.509 279.159 903.092 277.372 903.092 275.346C903.092 273.319 903.497 271.544 904.308 270.018C905.118 268.493 906.25 267.325 907.704 266.514C909.182 265.68 910.875 265.263 912.782 265.263C914.641 265.263 916.286 265.668 917.716 266.478C919.146 267.289 920.243 268.409 921.005 269.839C921.792 271.246 922.185 272.843 922.185 274.63ZM918.824 273.951C918.824 272.712 918.55 271.651 918.002 270.769C917.454 269.863 916.703 269.184 915.749 268.731C914.82 268.254 913.783 268.016 912.639 268.016C910.994 268.016 909.588 268.54 908.42 269.589C907.275 270.638 906.62 272.092 906.453 273.951H918.824Z" fill="#252525"/>
<path d="M930.949 268.266V279.815C930.949 280.768 931.152 281.448 931.557 281.853C931.963 282.234 932.666 282.425 933.667 282.425H936.062V285.178H933.131C931.319 285.178 929.96 284.761 929.054 283.927C928.149 283.093 927.696 281.722 927.696 279.815V268.266H925.157V265.584H927.696V260.65H930.949V265.584H936.062V268.266H930.949Z" fill="#252525"/>
<path d="M954.092 270.697V273.451H939.826V270.697H954.092Z" fill="#252525"/>
<path d="M963.452 282.354H975.609V285.178H959.591V282.604L971.676 263.082H959.734V260.257H975.537V262.831L963.452 282.354Z" fill="#252525"/>
<path d="M998.421 274.63C998.421 275.25 998.385 275.906 998.314 276.597H982.653C982.772 278.528 983.428 280.041 984.62 281.138C985.835 282.211 987.301 282.747 989.018 282.747C990.424 282.747 991.592 282.425 992.522 281.781C993.475 281.114 994.143 280.232 994.524 279.136H998.028C997.503 281.019 996.455 282.556 994.881 283.748C993.308 284.916 991.354 285.5 989.018 285.5C987.158 285.5 985.49 285.083 984.012 284.249C982.558 283.414 981.414 282.234 980.579 280.709C979.745 279.159 979.328 277.372 979.328 275.346C979.328 273.319 979.733 271.544 980.544 270.018C981.354 268.493 982.486 267.325 983.94 266.514C985.418 265.68 987.111 265.263 989.018 265.263C990.877 265.263 992.522 265.668 993.952 266.478C995.382 267.289 996.478 268.409 997.241 269.839C998.028 271.246 998.421 272.843 998.421 274.63ZM995.06 273.951C995.06 272.712 994.786 271.651 994.238 270.769C993.69 269.863 992.939 269.184 991.985 268.731C991.056 268.254 990.019 268.016 988.875 268.016C987.23 268.016 985.823 268.54 984.655 269.589C983.511 270.638 982.856 272.092 982.689 273.951H995.06Z" fill="#252525"/>
<path d="M1006.47 268.767C1007.04 267.646 1007.85 266.776 1008.9 266.157C1009.97 265.537 1011.27 265.227 1012.8 265.227V268.588H1011.94C1008.29 268.588 1006.47 270.566 1006.47 274.523V285.178H1003.22V265.584H1006.47V268.767Z" fill="#252525"/>
<path d="M1025.6 285.5C1023.77 285.5 1022.1 285.083 1020.6 284.249C1019.12 283.414 1017.95 282.234 1017.09 280.709C1016.26 279.159 1015.84 277.372 1015.84 275.346C1015.84 273.343 1016.27 271.579 1017.13 270.054C1018.01 268.504 1019.2 267.325 1020.7 266.514C1022.2 265.68 1023.88 265.263 1025.74 265.263C1027.6 265.263 1029.28 265.68 1030.79 266.514C1032.29 267.325 1033.47 268.493 1034.33 270.018C1035.21 271.544 1035.65 273.319 1035.65 275.346C1035.65 277.372 1035.2 279.159 1034.29 280.709C1033.41 282.234 1032.2 283.414 1030.68 284.249C1029.15 285.083 1027.46 285.5 1025.6 285.5ZM1025.6 282.64C1026.77 282.64 1027.87 282.365 1028.89 281.817C1029.92 281.269 1030.74 280.447 1031.36 279.35C1032 278.254 1032.32 276.919 1032.32 275.346C1032.32 273.772 1032.01 272.438 1031.39 271.341C1030.77 270.245 1029.96 269.434 1028.96 268.91C1027.96 268.361 1026.88 268.087 1025.71 268.087C1024.52 268.087 1023.42 268.361 1022.42 268.91C1021.44 269.434 1020.65 270.245 1020.06 271.341C1019.46 272.438 1019.16 273.772 1019.16 275.346C1019.16 276.943 1019.45 278.289 1020.02 279.386C1020.62 280.482 1021.41 281.305 1022.38 281.853C1023.36 282.377 1024.43 282.64 1025.6 282.64Z" fill="#252525"/>
<path d="M1065.8 260.257V262.903H1059.01V285.178H1055.75V262.903H1048.92V260.257H1065.8Z" fill="#252525"/>
<path d="M1073.56 268.767C1074.13 267.646 1074.94 266.776 1075.99 266.157C1077.06 265.537 1078.36 265.227 1079.89 265.227V268.588H1079.03C1075.38 268.588 1073.56 270.566 1073.56 274.523V285.178H1070.3V265.584H1073.56V268.767Z" fill="#252525"/>
<path d="M1082.93 275.31C1082.93 273.308 1083.33 271.556 1084.14 270.054C1084.95 268.528 1086.06 267.348 1087.47 266.514C1088.9 265.68 1090.48 265.263 1092.22 265.263C1093.94 265.263 1095.43 265.632 1096.69 266.371C1097.96 267.11 1098.9 268.04 1099.52 269.16V265.584H1102.81V285.178H1099.52V281.531C1098.87 282.675 1097.91 283.629 1096.62 284.392C1095.36 285.131 1093.88 285.5 1092.19 285.5C1090.45 285.5 1088.87 285.071 1087.47 284.213C1086.06 283.355 1084.95 282.151 1084.14 280.602C1083.33 279.052 1082.93 277.288 1082.93 275.31ZM1099.52 275.346C1099.52 273.868 1099.22 272.581 1098.62 271.484C1098.03 270.388 1097.22 269.553 1096.19 268.981C1095.19 268.385 1094.08 268.087 1092.87 268.087C1091.65 268.087 1090.54 268.373 1089.54 268.945C1088.54 269.518 1087.74 270.352 1087.15 271.448C1086.55 272.545 1086.25 273.832 1086.25 275.31C1086.25 276.812 1086.55 278.123 1087.15 279.243C1087.74 280.339 1088.54 281.186 1089.54 281.781C1090.54 282.354 1091.65 282.64 1092.87 282.64C1094.08 282.64 1095.19 282.354 1096.19 281.781C1097.22 281.186 1098.03 280.339 1098.62 279.243C1099.22 278.123 1099.52 276.823 1099.52 275.346Z" fill="#252525"/>
<path d="M1118.35 265.227C1120.74 265.227 1122.67 265.954 1124.15 267.408C1125.62 268.838 1126.36 270.912 1126.36 273.629V285.178H1123.14V274.094C1123.14 272.14 1122.66 270.65 1121.68 269.625C1120.7 268.576 1119.37 268.052 1117.67 268.052C1115.96 268.052 1114.59 268.588 1113.56 269.661C1112.56 270.733 1112.06 272.294 1112.06 274.344V285.178H1108.81V265.584H1112.06V268.373C1112.7 267.372 1113.57 266.598 1114.67 266.049C1115.79 265.501 1117.02 265.227 1118.35 265.227Z" fill="#252525"/>
<path d="M1139.11 285.5C1137.61 285.5 1136.27 285.25 1135.07 284.749C1133.88 284.225 1132.94 283.51 1132.25 282.604C1131.56 281.674 1131.18 280.613 1131.1 279.422H1134.47C1134.56 280.399 1135.01 281.197 1135.82 281.817C1136.66 282.437 1137.74 282.747 1139.08 282.747C1140.32 282.747 1141.29 282.473 1142.01 281.924C1142.73 281.376 1143.08 280.685 1143.08 279.851C1143.08 278.993 1142.7 278.361 1141.94 277.956C1141.18 277.527 1140 277.109 1138.4 276.704C1136.94 276.323 1135.75 275.941 1134.82 275.56C1133.92 275.155 1133.13 274.571 1132.46 273.808C1131.82 273.021 1131.5 271.997 1131.5 270.733C1131.5 269.732 1131.8 268.814 1132.39 267.98C1132.99 267.146 1133.83 266.49 1134.93 266.014C1136.03 265.513 1137.28 265.263 1138.68 265.263C1140.85 265.263 1142.61 265.811 1143.94 266.907C1145.28 268.004 1145.99 269.506 1146.09 271.413H1142.83C1142.76 270.388 1142.34 269.565 1141.58 268.945C1140.84 268.326 1139.84 268.016 1138.58 268.016C1137.41 268.016 1136.48 268.266 1135.79 268.767C1135.1 269.267 1134.75 269.923 1134.75 270.733C1134.75 271.377 1134.95 271.913 1135.36 272.342C1135.79 272.747 1136.31 273.081 1136.93 273.343C1137.58 273.582 1138.46 273.856 1139.58 274.166C1140.99 274.547 1142.13 274.928 1143.01 275.31C1143.89 275.667 1144.64 276.216 1145.26 276.955C1145.91 277.693 1146.24 278.659 1146.26 279.851C1146.26 280.923 1145.97 281.889 1145.37 282.747C1144.78 283.605 1143.93 284.284 1142.83 284.785C1141.76 285.262 1140.52 285.5 1139.11 285.5Z" fill="#252525"/>
<path d="M1153.04 262.402C1152.42 262.402 1151.89 262.188 1151.47 261.759C1151.04 261.33 1150.82 260.805 1150.82 260.185C1150.82 259.566 1151.04 259.041 1151.47 258.612C1151.89 258.183 1152.42 257.969 1153.04 257.969C1153.64 257.969 1154.14 258.183 1154.54 258.612C1154.97 259.041 1155.18 259.566 1155.18 260.185C1155.18 260.805 1154.97 261.33 1154.54 261.759C1154.14 262.188 1153.64 262.402 1153.04 262.402ZM1154.61 265.584V285.178H1151.36V265.584H1154.61Z" fill="#252525"/>
<path d="M1164.63 268.266V279.815C1164.63 280.768 1164.83 281.448 1165.23 281.853C1165.64 282.234 1166.34 282.425 1167.34 282.425H1169.74V285.178H1166.81C1165 285.178 1163.64 284.761 1162.73 283.927C1161.83 283.093 1161.37 281.722 1161.37 279.815V268.266H1158.83V265.584H1161.37V260.65H1164.63V265.584H1169.74V268.266H1164.63Z" fill="#252525"/>
<path d="M1175.86 262.402C1175.24 262.402 1174.72 262.188 1174.29 261.759C1173.86 261.33 1173.65 260.805 1173.65 260.185C1173.65 259.566 1173.86 259.041 1174.29 258.612C1174.72 258.183 1175.24 257.969 1175.86 257.969C1176.46 257.969 1176.96 258.183 1177.37 258.612C1177.79 259.041 1178.01 259.566 1178.01 260.185C1178.01 260.805 1177.79 261.33 1177.37 261.759C1176.96 262.188 1176.46 262.402 1175.86 262.402ZM1177.44 265.584V285.178H1174.18V265.584H1177.44Z" fill="#252525"/>
<path d="M1192.03 285.5C1190.19 285.5 1188.52 285.083 1187.02 284.249C1185.54 283.414 1184.38 282.234 1183.52 280.709C1182.68 279.159 1182.27 277.372 1182.27 275.346C1182.27 273.343 1182.7 271.579 1183.55 270.054C1184.44 268.504 1185.63 267.325 1187.13 266.514C1188.63 265.68 1190.31 265.263 1192.17 265.263C1194.03 265.263 1195.71 265.68 1197.21 266.514C1198.71 267.325 1199.89 268.493 1200.75 270.018C1201.63 271.544 1202.08 273.319 1202.08 275.346C1202.08 277.372 1201.62 279.159 1200.72 280.709C1199.83 282.234 1198.63 283.414 1197.11 284.249C1195.58 285.083 1193.89 285.5 1192.03 285.5ZM1192.03 282.64C1193.2 282.64 1194.29 282.365 1195.32 281.817C1196.34 281.269 1197.16 280.447 1197.78 279.35C1198.43 278.254 1198.75 276.919 1198.75 275.346C1198.75 273.772 1198.44 272.438 1197.82 271.341C1197.2 270.245 1196.39 269.434 1195.39 268.91C1194.39 268.361 1193.3 268.087 1192.14 268.087C1190.94 268.087 1189.85 268.361 1188.85 268.91C1187.87 269.434 1187.08 270.245 1186.49 271.341C1185.89 272.438 1185.59 273.772 1185.59 275.346C1185.59 276.943 1185.88 278.289 1186.45 279.386C1187.05 280.482 1187.83 281.305 1188.81 281.853C1189.79 282.377 1190.86 282.64 1192.03 282.64Z" fill="#252525"/>
<path d="M1216.4 265.227C1218.78 265.227 1220.71 265.954 1222.19 267.408C1223.67 268.838 1224.41 270.912 1224.41 273.629V285.178H1221.19V274.094C1221.19 272.14 1220.7 270.65 1219.73 269.625C1218.75 268.576 1217.41 268.052 1215.72 268.052C1214 268.052 1212.63 268.588 1211.61 269.661C1210.61 270.733 1210.11 272.294 1210.11 274.344V285.178H1206.85V265.584H1210.11V268.373C1210.75 267.372 1211.62 266.598 1212.72 266.049C1213.84 265.501 1215.07 265.227 1216.4 265.227Z" fill="#252525"/>
<path d="M1237.16 285.5C1235.66 285.5 1234.31 285.25 1233.12 284.749C1231.93 284.225 1230.99 283.51 1230.3 282.604C1229.61 281.674 1229.22 280.613 1229.15 279.422H1232.51C1232.61 280.399 1233.06 281.197 1233.87 281.817C1234.71 282.437 1235.79 282.747 1237.13 282.747C1238.37 282.747 1239.34 282.473 1240.06 281.924C1240.77 281.376 1241.13 280.685 1241.13 279.851C1241.13 278.993 1240.75 278.361 1239.99 277.956C1239.22 277.527 1238.04 277.109 1236.45 276.704C1234.99 276.323 1233.8 275.941 1232.87 275.56C1231.97 275.155 1231.18 274.571 1230.51 273.808C1229.87 273.021 1229.55 271.997 1229.55 270.733C1229.55 269.732 1229.84 268.814 1230.44 267.98C1231.04 267.146 1231.88 266.49 1232.98 266.014C1234.07 265.513 1235.33 265.263 1236.73 265.263C1238.9 265.263 1240.65 265.811 1241.99 266.907C1243.32 268.004 1244.04 269.506 1244.13 271.413H1240.88C1240.81 270.388 1240.39 269.565 1239.63 268.945C1238.89 268.326 1237.89 268.016 1236.63 268.016C1235.46 268.016 1234.53 268.266 1233.84 268.767C1233.15 269.267 1232.8 269.923 1232.8 270.733C1232.8 271.377 1233 271.913 1233.41 272.342C1233.84 272.747 1234.36 273.081 1234.98 273.343C1235.62 273.582 1236.51 273.856 1237.63 274.166C1239.03 274.547 1240.18 274.928 1241.06 275.31C1241.94 275.667 1242.69 276.216 1243.31 276.955C1243.96 277.693 1244.29 278.659 1244.31 279.851C1244.31 280.923 1244.01 281.889 1243.42 282.747C1242.82 283.605 1241.98 284.284 1240.88 284.785C1239.81 285.262 1238.57 285.5 1237.16 285.5Z" fill="#252525"/>
<path d="M1276.1 267.551C1276.1 269.625 1275.39 271.353 1273.96 272.735C1272.55 274.094 1270.39 274.773 1267.48 274.773H1262.69V285.178H1259.44V260.257H1267.48C1270.3 260.257 1272.43 260.936 1273.88 262.295C1275.36 263.654 1276.1 265.406 1276.1 267.551ZM1267.48 272.092C1269.3 272.092 1270.63 271.699 1271.49 270.912C1272.35 270.125 1272.78 269.005 1272.78 267.551C1272.78 264.476 1271.01 262.939 1267.48 262.939H1262.69V272.092H1267.48Z" fill="#252525"/>
<path d="M1279.43 275.31C1279.43 273.308 1279.84 271.556 1280.65 270.054C1281.46 268.528 1282.56 267.348 1283.97 266.514C1285.4 265.68 1286.99 265.263 1288.73 265.263C1290.44 265.263 1291.93 265.632 1293.2 266.371C1294.46 267.11 1295.4 268.04 1296.02 269.16V265.584H1299.31V285.178H1296.02V281.531C1295.38 282.675 1294.41 283.629 1293.12 284.392C1291.86 285.131 1290.38 285.5 1288.69 285.5C1286.95 285.5 1285.38 285.071 1283.97 284.213C1282.56 283.355 1281.46 282.151 1280.65 280.602C1279.84 279.052 1279.43 277.288 1279.43 275.31ZM1296.02 275.346C1296.02 273.868 1295.72 272.581 1295.13 271.484C1294.53 270.388 1293.72 269.553 1292.7 268.981C1291.69 268.385 1290.59 268.087 1289.37 268.087C1288.15 268.087 1287.05 268.373 1286.04 268.945C1285.04 269.518 1284.24 270.352 1283.65 271.448C1283.05 272.545 1282.76 273.832 1282.76 275.31C1282.76 276.812 1283.05 278.123 1283.65 279.243C1284.24 280.339 1285.04 281.186 1286.04 281.781C1287.05 282.354 1288.15 282.64 1289.37 282.64C1290.59 282.64 1291.69 282.354 1292.7 281.781C1293.72 281.186 1294.53 280.339 1295.13 279.243C1295.72 278.123 1296.02 276.823 1296.02 275.346Z" fill="#252525"/>
<path d="M1308.56 268.767C1309.13 267.646 1309.94 266.776 1310.99 266.157C1312.07 265.537 1313.37 265.227 1314.89 265.227V268.588H1314.03C1310.39 268.588 1308.56 270.566 1308.56 274.523V285.178H1305.31V265.584H1308.56V268.767Z" fill="#252525"/>
<path d="M1323.12 268.266V279.815C1323.12 280.768 1323.32 281.448 1323.72 281.853C1324.13 282.234 1324.83 282.425 1325.83 282.425H1328.23V285.178H1325.3C1323.49 285.178 1322.13 284.761 1321.22 283.927C1320.32 283.093 1319.86 281.722 1319.86 279.815V268.266H1317.32V265.584H1319.86V260.65H1323.12V265.584H1328.23V268.266H1323.12Z" fill="#252525"/>
<path d="M1342.22 265.227C1344.6 265.227 1346.53 265.954 1348.01 267.408C1349.49 268.838 1350.23 270.912 1350.23 273.629V285.178H1347.01V274.094C1347.01 272.14 1346.52 270.65 1345.54 269.625C1344.57 268.576 1343.23 268.052 1341.54 268.052C1339.82 268.052 1338.45 268.588 1337.43 269.661C1336.43 270.733 1335.93 272.294 1335.93 274.344V285.178H1332.67V265.584H1335.93V268.373C1336.57 267.372 1337.44 266.598 1338.54 266.049C1339.66 265.501 1340.88 265.227 1342.22 265.227Z" fill="#252525"/>
<path d="M1373.92 274.63C1373.92 275.25 1373.89 275.906 1373.81 276.597H1358.15C1358.27 278.528 1358.93 280.041 1360.12 281.138C1361.34 282.211 1362.8 282.747 1364.52 282.747C1365.92 282.747 1367.09 282.425 1368.02 281.781C1368.97 281.114 1369.64 280.232 1370.02 279.136H1373.53C1373 281.019 1371.95 282.556 1370.38 283.748C1368.81 284.916 1366.85 285.5 1364.52 285.5C1362.66 285.5 1360.99 285.083 1359.51 284.249C1358.06 283.414 1356.91 282.234 1356.08 280.709C1355.24 279.159 1354.83 277.372 1354.83 275.346C1354.83 273.319 1355.23 271.544 1356.04 270.018C1356.85 268.493 1357.99 267.325 1359.44 266.514C1360.92 265.68 1362.61 265.263 1364.52 265.263C1366.38 265.263 1368.02 265.668 1369.45 266.478C1370.88 267.289 1371.98 268.409 1372.74 269.839C1373.53 271.246 1373.92 272.843 1373.92 274.63ZM1370.56 273.951C1370.56 272.712 1370.29 271.651 1369.74 270.769C1369.19 269.863 1368.44 269.184 1367.48 268.731C1366.56 268.254 1365.52 268.016 1364.37 268.016C1362.73 268.016 1361.32 268.54 1360.16 269.589C1359.01 270.638 1358.36 272.092 1358.19 273.951H1370.56Z" fill="#252525"/>
<path d="M1381.97 268.767C1382.54 267.646 1383.35 266.776 1384.4 266.157C1385.47 265.537 1386.77 265.227 1388.3 265.227V268.588H1387.44C1383.79 268.588 1381.97 270.566 1381.97 274.523V285.178H1378.72V265.584H1381.97V268.767Z" fill="#252525"/>
<path fill-rule="evenodd" clip-rule="evenodd" d="M537.778 710C553.026 710 576.344 714.591 594.954 729.723C603.5 736.671 610.498 745.366 615.377 754.199C616.531 756.288 617.576 758.404 618.5 760.525C619.424 758.404 620.469 756.288 621.623 754.199C626.502 745.366 633.5 736.671 642.046 729.723C660.656 714.591 683.974 710 699.222 710H702.289L703.566 712.79C705.826 717.722 706.17 724.659 705.938 730.747C705.698 737.064 704.784 743.419 703.907 747.771C700.873 762.831 691.236 782.444 669.897 789.919C669.114 790.193 668.332 790.45 667.553 790.692C674.373 795.226 679.665 802.434 680.716 812.319C682.314 827.36 672.698 842.842 654.337 844.84C643.436 846.025 635.399 840.439 630.097 834.704C627.115 831.479 624.717 827.858 623.053 825.109C621.685 822.85 622.446 819.828 624.669 818.404C626.892 816.98 629.769 817.676 631.116 819.948C632.577 822.414 634.483 825.364 637.113 828.209C641.354 832.796 646.618 836.058 653.304 835.331C665.847 833.966 672.316 823.726 671.211 813.331C669.933 801.307 658.989 794.492 648.564 794.491C641.697 794.492 637.554 795.541 634.576 797.16C631.629 798.762 629.328 801.182 626.567 804.973L617.327 819.998L617.371 820.026C616.461 821.449 612.915 828.403 607.618 834.204C607.348 834.5 607.071 834.796 606.786 835.091C605.25 836.803 603.543 838.459 601.831 839.601L601.769 839.507C596.849 843.109 590.603 845.662 583.04 844.84C564.679 842.842 555.063 827.36 556.662 812.319C557.706 802.491 562.942 795.31 569.704 790.771C568.84 790.506 567.973 790.223 567.103 789.919C545.764 782.444 536.127 762.831 533.093 747.771C532.217 743.419 531.302 737.064 531.062 730.747C530.83 724.659 531.174 717.722 533.434 712.79L534.711 710H537.778ZM695.766 719.65C682.129 720.304 663.186 724.858 648.074 737.146C640.534 743.277 634.31 751.002 629.989 758.826C626.748 764.694 624.679 770.428 623.832 775.43C623.381 778.098 621.203 780.303 618.5 780.303C615.797 780.303 613.619 778.098 613.168 775.43C612.321 770.428 610.252 764.694 607.011 758.826C602.69 751.002 596.466 743.277 588.926 737.146C573.814 724.858 554.871 720.304 541.234 719.65C540.654 722.425 540.452 726.149 540.613 730.383C540.831 736.102 541.669 741.942 542.463 745.88C545.145 759.197 553.369 774.974 570.261 780.891C583.649 785.58 597.11 783.81 603.091 786.335C604.002 786.603 604.872 786.918 605.709 787.289C608.722 788.624 611.063 790.569 613.315 792.913C615.144 794.817 614.881 797.871 612.88 799.593C610.879 801.315 607.906 801.043 606.051 799.164C604.464 797.557 603.252 796.661 601.839 796.035C599.517 795.006 596.12 794.491 588.813 794.491C578.388 794.491 567.444 801.307 566.166 813.331C565.061 823.726 571.53 833.966 584.073 835.331C590.299 836.008 595.466 833.021 599.773 828.59C600.322 827.973 600.896 827.291 601.479 826.56C603.298 824.28 604.907 821.919 605.805 820.486L618.528 799.797L618.623 799.642L618.729 799.494C621.818 795.234 625.152 791.397 630.014 788.754C631.242 788.087 632.536 787.512 633.909 787.027C640.758 784.603 653.351 785.58 666.739 780.891C683.632 774.974 691.855 759.197 694.537 745.88C695.331 741.942 696.169 736.102 696.387 730.383C696.548 726.149 696.346 722.425 695.766 719.65Z" fill="white"/>
<path d="M744.619 770.903C742.133 770.903 739.885 770.478 737.876 769.626C735.901 768.775 734.335 767.549 733.177 765.949C732.019 764.348 731.423 762.458 731.389 760.279H739.051C739.153 761.743 739.664 762.901 740.583 763.752C741.537 764.604 742.831 765.029 744.465 765.029C746.134 765.029 747.445 764.638 748.399 763.854C749.352 763.037 749.829 761.981 749.829 760.687C749.829 759.632 749.505 758.764 748.858 758.082C748.211 757.401 747.394 756.874 746.406 756.499C745.453 756.09 744.125 755.648 742.422 755.171C740.107 754.49 738.217 753.826 736.753 753.179C735.322 752.498 734.079 751.493 733.024 750.165C732.002 748.803 731.491 746.998 731.491 744.751C731.491 742.64 732.019 740.801 733.075 739.234C734.131 737.668 735.612 736.476 737.519 735.659C739.426 734.808 741.605 734.382 744.057 734.382C747.735 734.382 750.714 735.284 752.996 737.089C755.311 738.86 756.588 741.346 756.826 744.547H748.96C748.892 743.321 748.364 742.316 747.377 741.533C746.423 740.716 745.147 740.307 743.546 740.307C742.15 740.307 741.026 740.665 740.175 741.38C739.358 742.095 738.949 743.133 738.949 744.496C738.949 745.449 739.255 746.249 739.868 746.896C740.515 747.509 741.299 748.02 742.218 748.429C743.171 748.803 744.5 749.246 746.202 749.757C748.518 750.438 750.408 751.119 751.872 751.8C753.336 752.481 754.596 753.502 755.652 754.865C756.707 756.227 757.235 758.014 757.235 760.228C757.235 762.135 756.741 763.905 755.754 765.54C754.766 767.174 753.319 768.485 751.412 769.473C749.505 770.426 747.241 770.903 744.619 770.903Z" fill="white"/>
<path d="M790.558 742.248V770.546H783.355V766.97C782.436 768.196 781.227 769.167 779.729 769.882C778.265 770.563 776.664 770.903 774.927 770.903C772.714 770.903 770.756 770.443 769.053 769.524C767.351 768.571 766.006 767.191 765.018 765.387C764.065 763.548 763.588 761.369 763.588 758.849V742.248H770.739V757.827C770.739 760.075 771.301 761.811 772.425 763.037C773.548 764.229 775.081 764.825 777.022 764.825C778.997 764.825 780.546 764.229 781.67 763.037C782.794 761.811 783.355 760.075 783.355 757.827V742.248H790.558Z" fill="white"/>
<path d="M808.85 771.005C806.535 771.005 804.458 770.597 802.619 769.779C800.78 768.928 799.316 767.787 798.226 766.357C797.17 764.927 796.592 763.344 796.489 761.607H803.692C803.828 762.697 804.356 763.599 805.275 764.314C806.228 765.029 807.403 765.387 808.799 765.387C810.161 765.387 811.217 765.114 811.966 764.569C812.749 764.025 813.141 763.327 813.141 762.475C813.141 761.556 812.664 760.875 811.711 760.432C810.791 759.955 809.31 759.445 807.267 758.9C805.156 758.389 803.419 757.861 802.057 757.316C800.729 756.771 799.571 755.937 798.584 754.813C797.63 753.69 797.153 752.174 797.153 750.267C797.153 748.701 797.596 747.271 798.482 745.977C799.401 744.683 800.695 743.661 802.363 742.912C804.066 742.163 806.058 741.788 808.34 741.788C811.711 741.788 814.401 742.64 816.41 744.342C818.419 746.011 819.526 748.275 819.73 751.136H812.886C812.784 750.012 812.307 749.127 811.455 748.48C810.638 747.799 809.532 747.458 808.135 747.458C806.841 747.458 805.837 747.696 805.122 748.173C804.441 748.65 804.1 749.314 804.1 750.165C804.1 751.119 804.577 751.851 805.53 752.362C806.484 752.838 807.965 753.332 809.974 753.843C812.017 754.354 813.703 754.882 815.031 755.426C816.359 755.971 817.5 756.823 818.453 757.98C819.441 759.104 819.952 760.602 819.986 762.475C819.986 764.11 819.526 765.574 818.606 766.868C817.721 768.162 816.427 769.184 814.725 769.933C813.056 770.648 811.098 771.005 808.85 771.005Z" fill="white"/>
<path d="M834.59 748.122V761.811C834.59 762.765 834.811 763.463 835.254 763.905C835.731 764.314 836.514 764.518 837.604 764.518H840.924V770.546H836.429C830.402 770.546 827.388 767.617 827.388 761.76V748.122H824.017V742.248H827.388V735.25H834.59V742.248H840.924V748.122H834.59Z" fill="white"/>
<path d="M844.637 756.295C844.637 753.434 845.199 750.897 846.323 748.684C847.48 746.471 849.03 744.768 850.971 743.576C852.946 742.384 855.142 741.788 857.56 741.788C859.671 741.788 861.51 742.214 863.076 743.065C864.677 743.917 865.954 744.989 866.907 746.283V742.248H874.109V770.546H866.907V766.408C865.988 767.736 864.711 768.843 863.076 769.728C861.476 770.58 859.62 771.005 857.509 771.005C855.125 771.005 852.946 770.392 850.971 769.167C849.03 767.941 847.48 766.221 846.323 764.008C845.199 761.76 844.637 759.189 844.637 756.295ZM866.907 756.397C866.907 754.66 866.567 753.179 865.886 751.953C865.205 750.693 864.285 749.74 863.128 749.093C861.97 748.412 860.727 748.071 859.399 748.071C858.071 748.071 856.845 748.395 855.721 749.042C854.597 749.689 853.678 750.642 852.963 751.902C852.282 753.128 851.941 754.592 851.941 756.295C851.941 757.997 852.282 759.496 852.963 760.79C853.678 762.05 854.597 763.02 855.721 763.701C856.879 764.382 858.105 764.723 859.399 764.723C860.727 764.723 861.97 764.399 863.128 763.752C864.285 763.071 865.205 762.118 865.886 760.892C866.567 759.632 866.907 758.134 866.907 756.397Z" fill="white"/>
<path d="M885.129 738.877C883.869 738.877 882.813 738.485 881.962 737.702C881.145 736.885 880.736 735.88 880.736 734.688C880.736 733.497 881.145 732.509 881.962 731.726C882.813 730.909 883.869 730.5 885.129 730.5C886.389 730.5 887.427 730.909 888.245 731.726C889.096 732.509 889.522 733.497 889.522 734.688C889.522 735.88 889.096 736.885 888.245 737.702C887.427 738.485 886.389 738.877 885.129 738.877ZM888.653 742.248V770.546H881.502V742.248H888.653Z" fill="white"/>
<path d="M911.808 741.839C915.179 741.839 917.904 742.912 919.981 745.057C922.058 747.169 923.097 750.131 923.097 753.945V770.546H915.946V754.916C915.946 752.668 915.384 750.948 914.26 749.757C913.136 748.531 911.604 747.918 909.663 747.918C907.688 747.918 906.121 748.531 904.964 749.757C903.84 750.948 903.278 752.668 903.278 754.916V770.546H896.127V742.248H903.278V745.773C904.232 744.547 905.44 743.593 906.905 742.912C908.403 742.197 910.038 741.839 911.808 741.839Z" fill="white"/>
<path d="M928.467 756.295C928.467 753.434 929.029 750.897 930.152 748.684C931.31 746.471 932.859 744.768 934.8 743.576C936.775 742.384 938.972 741.788 941.39 741.788C943.501 741.788 945.34 742.214 946.906 743.065C948.507 743.917 949.783 744.989 950.737 746.283V742.248H957.939V770.546H950.737V766.408C949.818 767.736 948.541 768.843 946.906 769.728C945.306 770.58 943.45 771.005 941.338 771.005C938.955 771.005 936.775 770.392 934.8 769.167C932.859 767.941 931.31 766.221 930.152 764.008C929.029 761.76 928.467 759.189 928.467 756.295ZM950.737 756.397C950.737 754.66 950.396 753.179 949.715 751.953C949.034 750.693 948.115 749.74 946.957 749.093C945.799 748.412 944.556 748.071 943.228 748.071C941.9 748.071 940.674 748.395 939.551 749.042C938.427 749.689 937.508 750.642 936.792 751.902C936.111 753.128 935.771 754.592 935.771 756.295C935.771 757.997 936.111 759.496 936.792 760.79C937.508 762.05 938.427 763.02 939.551 763.701C940.709 764.382 941.934 764.723 943.228 764.723C944.556 764.723 945.799 764.399 946.957 763.752C948.115 763.071 949.034 762.118 949.715 760.892C950.396 759.632 950.737 758.134 950.737 756.397Z" fill="white"/>
<path d="M972.483 746.385C973.402 745.023 974.662 743.917 976.263 743.065C977.897 742.214 979.753 741.788 981.83 741.788C984.248 741.788 986.427 742.384 988.368 743.576C990.343 744.768 991.893 746.471 993.016 748.684C994.174 750.863 994.753 753.4 994.753 756.295C994.753 759.189 994.174 761.76 993.016 764.008C991.893 766.221 990.343 767.941 988.368 769.167C986.427 770.392 984.248 771.005 981.83 771.005C979.719 771.005 977.863 770.597 976.263 769.779C974.696 768.928 973.436 767.838 972.483 766.51V770.546H965.332V732.747H972.483V746.385ZM987.449 756.295C987.449 754.592 987.091 753.128 986.376 751.902C985.695 750.642 984.776 749.689 983.618 749.042C982.494 748.395 981.268 748.071 979.94 748.071C978.646 748.071 977.42 748.412 976.263 749.093C975.139 749.74 974.22 750.693 973.504 751.953C972.823 753.213 972.483 754.694 972.483 756.397C972.483 758.099 972.823 759.581 973.504 760.841C974.22 762.101 975.139 763.071 976.263 763.752C977.42 764.399 978.646 764.723 979.94 764.723C981.268 764.723 982.494 764.382 983.618 763.701C984.776 763.02 985.695 762.05 986.376 760.79C987.091 759.53 987.449 758.031 987.449 756.295Z" fill="white"/>
<path d="M1003.98 738.877C1002.72 738.877 1001.67 738.485 1000.82 737.702C1000 736.885 999.592 735.88 999.592 734.688C999.592 733.497 1000 732.509 1000.82 731.726C1001.67 730.909 1002.72 730.5 1003.98 730.5C1005.24 730.5 1006.28 730.909 1007.1 731.726C1007.95 732.509 1008.38 733.497 1008.38 734.688C1008.38 735.88 1007.95 736.885 1007.1 737.702C1006.28 738.485 1005.24 738.877 1003.98 738.877ZM1007.51 742.248V770.546H1000.36V742.248H1007.51Z" fill="white"/>
<path d="M1022.13 732.747V770.546H1014.98V732.747H1022.13Z" fill="white"/>
<path d="M1033.23 738.877C1031.97 738.877 1030.92 738.485 1030.07 737.702C1029.25 736.885 1028.84 735.88 1028.84 734.688C1028.84 733.497 1029.25 732.509 1030.07 731.726C1030.92 730.909 1031.97 730.5 1033.23 730.5C1034.49 730.5 1035.53 730.909 1036.35 731.726C1037.2 732.509 1037.63 733.497 1037.63 734.688C1037.63 735.88 1037.2 736.885 1036.35 737.702C1035.53 738.485 1034.49 738.877 1033.23 738.877ZM1036.76 742.248V770.546H1029.61V742.248H1036.76Z" fill="white"/>
<path d="M1052.56 748.122V761.811C1052.56 762.765 1052.78 763.463 1053.22 763.905C1053.7 764.314 1054.48 764.518 1055.57 764.518H1058.89V770.546H1054.4C1048.37 770.546 1045.36 767.617 1045.36 761.76V748.122H1041.99V742.248H1045.36V735.25H1052.56V742.248H1058.89V748.122H1052.56Z" fill="white"/>
<path d="M1091.52 742.248L1074 783.928H1066.39L1072.51 769.831L1061.18 742.248H1069.19L1076.5 762.016L1083.91 742.248H1091.52Z" fill="white"/>
<path d="M1115.51 740.665V749.603H1127.51V755.273H1115.51V764.723H1129.05V770.546H1108.36V734.842H1129.05V740.665H1115.51Z" fill="white"/>
<path d="M1134.11 756.397C1134.11 753.468 1134.71 750.914 1135.9 748.735C1137.09 746.522 1138.75 744.819 1140.86 743.627C1142.97 742.401 1145.39 741.788 1148.11 741.788C1151.62 741.788 1154.51 742.674 1156.79 744.444C1159.11 746.181 1160.66 748.633 1161.44 751.8H1153.73C1153.32 750.574 1152.62 749.62 1151.63 748.939C1150.68 748.224 1149.49 747.867 1148.06 747.867C1146.02 747.867 1144.4 748.616 1143.21 750.114C1142.01 751.578 1141.42 753.673 1141.42 756.397C1141.42 759.087 1142.01 761.181 1143.21 762.68C1144.4 764.144 1146.02 764.876 1148.06 764.876C1150.95 764.876 1152.84 763.582 1153.73 760.994H1161.44C1160.66 764.059 1159.11 766.493 1156.79 768.298C1154.48 770.103 1151.58 771.005 1148.11 771.005C1145.39 771.005 1142.97 770.409 1140.86 769.218C1138.75 767.992 1137.09 766.289 1135.9 764.11C1134.71 761.896 1134.11 759.325 1134.11 756.397Z" fill="white"/>
<path d="M1179.65 771.005C1176.93 771.005 1174.48 770.409 1172.3 769.218C1170.12 767.992 1168.4 766.272 1167.14 764.059C1165.91 761.845 1165.3 759.291 1165.3 756.397C1165.3 753.502 1165.93 750.948 1167.19 748.735C1168.49 746.522 1170.24 744.819 1172.45 743.627C1174.67 742.401 1177.13 741.788 1179.86 741.788C1182.58 741.788 1185.05 742.401 1187.26 743.627C1189.48 744.819 1191.21 746.522 1192.47 748.735C1193.77 750.948 1194.42 753.502 1194.42 756.397C1194.42 759.291 1193.75 761.845 1192.42 764.059C1191.13 766.272 1189.36 767.992 1187.11 769.218C1184.9 770.409 1182.41 771.005 1179.65 771.005ZM1179.65 764.774C1180.95 764.774 1182.16 764.467 1183.28 763.854C1184.44 763.207 1185.36 762.254 1186.04 760.994C1186.72 759.734 1187.06 758.202 1187.06 756.397C1187.06 753.707 1186.35 751.647 1184.92 750.216C1183.52 748.752 1181.8 748.02 1179.76 748.02C1177.71 748.02 1175.99 748.752 1174.6 750.216C1173.24 751.647 1172.55 753.707 1172.55 756.397C1172.55 759.087 1173.22 761.164 1174.55 762.628C1175.91 764.059 1177.61 764.774 1179.65 764.774Z" fill="white"/>
<path d="M1215.75 741.839C1219.12 741.839 1221.85 742.912 1223.92 745.057C1226 747.169 1227.04 750.131 1227.04 753.945V770.546H1219.89V754.916C1219.89 752.668 1219.33 750.948 1218.2 749.757C1217.08 748.531 1215.55 747.918 1213.61 747.918C1211.63 747.918 1210.06 748.531 1208.91 749.757C1207.78 750.948 1207.22 752.668 1207.22 754.916V770.546H1200.07V742.248H1207.22V745.773C1208.17 744.547 1209.38 743.593 1210.85 742.912C1212.35 742.197 1213.98 741.839 1215.75 741.839Z" fill="white"/>
<path d="M1246.81 771.005C1244.09 771.005 1241.64 770.409 1239.46 769.218C1237.28 767.992 1235.56 766.272 1234.3 764.059C1233.07 761.845 1232.46 759.291 1232.46 756.397C1232.46 753.502 1233.09 750.948 1234.35 748.735C1235.64 746.522 1237.4 744.819 1239.61 743.627C1241.83 742.401 1244.29 741.788 1247.02 741.788C1249.74 741.788 1252.21 742.401 1254.42 743.627C1256.64 744.819 1258.37 746.522 1259.63 748.735C1260.93 750.948 1261.58 753.502 1261.58 756.397C1261.58 759.291 1260.91 761.845 1259.58 764.059C1258.29 766.272 1256.52 767.992 1254.27 769.218C1252.06 770.409 1249.57 771.005 1246.81 771.005ZM1246.81 764.774C1248.11 764.774 1249.32 764.467 1250.44 763.854C1251.6 763.207 1252.52 762.254 1253.2 760.994C1253.88 759.734 1254.22 758.202 1254.22 756.397C1254.22 753.707 1253.51 751.647 1252.07 750.216C1250.68 748.752 1248.96 748.02 1246.92 748.02C1244.87 748.02 1243.15 748.752 1241.76 750.216C1240.39 751.647 1239.71 753.707 1239.71 756.397C1239.71 759.087 1240.38 761.164 1241.71 762.628C1243.07 764.059 1244.77 764.774 1246.81 764.774Z" fill="white"/>
<path d="M1302.37 741.839C1305.85 741.839 1308.64 742.912 1310.75 745.057C1312.89 747.169 1313.97 750.131 1313.97 753.945V770.546H1306.82V754.916C1306.82 752.702 1306.25 751.017 1305.13 749.859C1304.01 748.667 1302.47 748.071 1300.53 748.071C1298.59 748.071 1297.04 748.667 1295.88 749.859C1294.76 751.017 1294.2 752.702 1294.2 754.916V770.546H1287.05V754.916C1287.05 752.702 1286.49 751.017 1285.36 749.859C1284.24 748.667 1282.71 748.071 1280.77 748.071C1278.79 748.071 1277.22 748.667 1276.07 749.859C1274.94 751.017 1274.38 752.702 1274.38 754.916V770.546H1267.23V742.248H1274.38V745.67C1275.3 744.479 1276.47 743.542 1277.91 742.861C1279.37 742.18 1280.97 741.839 1282.71 741.839C1284.92 741.839 1286.89 742.316 1288.63 743.27C1290.37 744.189 1291.71 745.517 1292.67 747.254C1293.59 745.619 1294.91 744.308 1296.65 743.321C1298.42 742.333 1300.33 741.839 1302.37 741.839Z" fill="white"/>
<path d="M1324.79 738.877C1323.53 738.877 1322.47 738.485 1321.62 737.702C1320.8 736.885 1320.39 735.88 1320.39 734.688C1320.39 733.497 1320.8 732.509 1321.62 731.726C1322.47 730.909 1323.53 730.5 1324.79 730.5C1326.05 730.5 1327.09 730.909 1327.9 731.726C1328.75 732.509 1329.18 733.497 1329.18 734.688C1329.18 735.88 1328.75 736.885 1327.9 737.702C1327.09 738.485 1326.05 738.877 1324.79 738.877ZM1328.31 742.248V770.546H1321.16V742.248H1328.31Z" fill="white"/>
<path d="M1333.95 756.397C1333.95 753.468 1334.54 750.914 1335.73 748.735C1336.93 746.522 1338.58 744.819 1340.69 743.627C1342.8 742.401 1345.22 741.788 1347.94 741.788C1351.45 741.788 1354.34 742.674 1356.63 744.444C1358.94 746.181 1360.49 748.633 1361.27 751.8H1353.56C1353.15 750.574 1352.45 749.62 1351.47 748.939C1350.51 748.224 1349.32 747.867 1347.89 747.867C1345.85 747.867 1344.23 748.616 1343.04 750.114C1341.85 751.578 1341.25 753.673 1341.25 756.397C1341.25 759.087 1341.85 761.181 1343.04 762.68C1344.23 764.144 1345.85 764.876 1347.89 764.876C1350.79 764.876 1352.68 763.582 1353.56 760.994H1361.27C1360.49 764.059 1358.94 766.493 1356.63 768.298C1354.31 770.103 1351.42 771.005 1347.94 771.005C1345.22 771.005 1342.8 770.409 1340.69 769.218C1338.58 767.992 1336.93 766.289 1335.73 764.11C1334.54 761.896 1333.95 759.325 1333.95 756.397Z" fill="white"/>
<path d="M1377.75 771.005C1375.43 771.005 1373.36 770.597 1371.52 769.779C1369.68 768.928 1368.22 767.787 1367.13 766.357C1366.07 764.927 1365.49 763.344 1365.39 761.607H1372.59C1372.73 762.697 1373.26 763.599 1374.17 764.314C1375.13 765.029 1376.3 765.387 1377.7 765.387C1379.06 765.387 1380.12 765.114 1380.87 764.569C1381.65 764.025 1382.04 763.327 1382.04 762.475C1382.04 761.556 1381.56 760.875 1380.61 760.432C1379.69 759.955 1378.21 759.445 1376.17 758.9C1374.06 758.389 1372.32 757.861 1370.96 757.316C1369.63 756.771 1368.47 755.937 1367.48 754.813C1366.53 753.69 1366.05 752.174 1366.05 750.267C1366.05 748.701 1366.5 747.271 1367.38 745.977C1368.3 744.683 1369.59 743.661 1371.26 742.912C1372.97 742.163 1374.96 741.788 1377.24 741.788C1380.61 741.788 1383.3 742.64 1385.31 744.342C1387.32 746.011 1388.43 748.275 1388.63 751.136H1381.79C1381.68 750.012 1381.21 749.127 1380.36 748.48C1379.54 747.799 1378.43 747.458 1377.04 747.458C1375.74 747.458 1374.74 747.696 1374.02 748.173C1373.34 748.65 1373 749.314 1373 750.165C1373 751.119 1373.48 751.851 1374.43 752.362C1375.38 752.838 1376.86 753.332 1378.87 753.843C1380.92 754.354 1382.6 754.882 1383.93 755.426C1385.26 755.971 1386.4 756.823 1387.35 757.98C1388.34 759.104 1388.85 760.602 1388.89 762.475C1388.89 764.11 1388.43 765.574 1387.51 766.868C1386.62 768.162 1385.33 769.184 1383.62 769.933C1381.96 770.648 1380 771.005 1377.75 771.005Z" fill="white"/>
<path d="M746.876 799.257V801.903H740.083V824.178H736.829V801.903H730V799.257H746.876Z" fill="white"/>
<path d="M754.636 807.767C755.208 806.646 756.018 805.776 757.067 805.157C758.14 804.537 759.439 804.227 760.964 804.227V807.588H760.106C756.459 807.588 754.636 809.566 754.636 813.523V824.178H751.382V804.584H754.636V807.767Z" fill="white"/>
<path d="M782.598 804.584V824.178H779.344V821.282C778.724 822.283 777.854 823.07 776.734 823.642C775.638 824.19 774.422 824.464 773.087 824.464C771.562 824.464 770.191 824.154 768.975 823.535C767.76 822.891 766.794 821.938 766.079 820.674C765.388 819.411 765.042 817.873 765.042 816.062V804.584H768.26V815.633C768.26 817.564 768.749 819.053 769.726 820.102C770.703 821.127 772.038 821.64 773.731 821.64C775.471 821.64 776.841 821.103 777.842 820.031C778.844 818.958 779.344 817.397 779.344 815.347V804.584H782.598Z" fill="white"/>
<path d="M795.529 824.5C794.027 824.5 792.68 824.25 791.488 823.749C790.296 823.225 789.355 822.51 788.664 821.604C787.972 820.674 787.591 819.613 787.52 818.422H790.88C790.976 819.399 791.429 820.197 792.239 820.817C793.073 821.437 794.158 821.747 795.493 821.747C796.732 821.747 797.71 821.473 798.425 820.924C799.14 820.376 799.497 819.685 799.497 818.851C799.497 817.993 799.116 817.361 798.353 816.956C797.591 816.527 796.411 816.109 794.814 815.704C793.36 815.323 792.168 814.941 791.238 814.56C790.332 814.155 789.546 813.571 788.878 812.808C788.235 812.021 787.913 810.997 787.913 809.733C787.913 808.732 788.211 807.814 788.807 806.98C789.403 806.146 790.249 805.49 791.345 805.014C792.442 804.513 793.693 804.263 795.1 804.263C797.269 804.263 799.021 804.811 800.356 805.907C801.69 807.004 802.406 808.506 802.501 810.413H799.247C799.176 809.388 798.759 808.565 797.996 807.945C797.257 807.326 796.256 807.016 794.992 807.016C793.824 807.016 792.895 807.266 792.203 807.767C791.512 808.267 791.167 808.923 791.167 809.733C791.167 810.377 791.369 810.913 791.774 811.342C792.203 811.747 792.728 812.081 793.348 812.343C793.991 812.582 794.873 812.856 795.993 813.166C797.4 813.547 798.544 813.928 799.426 814.31C800.308 814.667 801.059 815.216 801.679 815.955C802.322 816.693 802.656 817.659 802.68 818.851C802.68 819.923 802.382 820.889 801.786 821.747C801.19 822.605 800.344 823.284 799.247 823.785C798.175 824.262 796.935 824.5 795.529 824.5Z" fill="white"/>
<path d="M811.742 807.266V818.815C811.742 819.768 811.945 820.448 812.35 820.853C812.755 821.234 813.458 821.425 814.46 821.425H816.855V824.178H813.923C812.112 824.178 810.753 823.761 809.847 822.927C808.941 822.092 808.488 820.722 808.488 818.815V807.266H805.95V804.584H808.488V799.65H811.742V804.584H816.855V807.266H811.742Z" fill="white"/>
<path d="M839.176 813.63C839.176 814.25 839.14 814.906 839.068 815.597H823.408C823.527 817.528 824.182 819.041 825.374 820.138C826.59 821.211 828.056 821.747 829.772 821.747C831.178 821.747 832.346 821.425 833.276 820.781C834.229 820.114 834.897 819.232 835.278 818.136H838.782C838.258 820.019 837.209 821.556 835.636 822.748C834.063 823.916 832.108 824.5 829.772 824.5C827.913 824.5 826.244 824.083 824.766 823.249C823.312 822.414 822.168 821.234 821.334 819.709C820.499 818.159 820.082 816.372 820.082 814.346C820.082 812.319 820.488 810.544 821.298 809.018C822.108 807.493 823.241 806.325 824.695 805.514C826.173 804.68 827.865 804.263 829.772 804.263C831.631 804.263 833.276 804.668 834.706 805.478C836.136 806.289 837.233 807.409 837.996 808.839C838.782 810.246 839.176 811.843 839.176 813.63ZM835.815 812.951C835.815 811.712 835.54 810.651 834.992 809.769C834.444 808.863 833.693 808.184 832.74 807.731C831.81 807.254 830.773 807.016 829.629 807.016C827.984 807.016 826.578 807.54 825.41 808.589C824.266 809.638 823.61 811.092 823.443 812.951H835.815Z" fill="white"/>
<path d="M842.755 814.31C842.755 812.308 843.16 810.556 843.971 809.054C844.781 807.528 845.89 806.348 847.296 805.514C848.726 804.68 850.323 804.263 852.087 804.263C853.613 804.263 855.031 804.62 856.342 805.335C857.653 806.027 858.654 806.944 859.346 808.088V797.719H862.635V824.178H859.346V820.495C858.702 821.663 857.748 822.629 856.485 823.392C855.222 824.131 853.744 824.5 852.051 824.5C850.311 824.5 848.726 824.071 847.296 823.213C845.89 822.355 844.781 821.151 843.971 819.602C843.16 818.052 842.755 816.288 842.755 814.31ZM859.346 814.346C859.346 812.868 859.048 811.581 858.452 810.484C857.856 809.388 857.045 808.553 856.02 807.981C855.019 807.385 853.911 807.087 852.695 807.087C851.479 807.087 850.371 807.373 849.37 807.945C848.369 808.518 847.57 809.352 846.974 810.448C846.378 811.545 846.08 812.832 846.08 814.31C846.08 815.812 846.378 817.123 846.974 818.243C847.57 819.339 848.369 820.186 849.37 820.781C850.371 821.354 851.479 821.64 852.695 821.64C853.911 821.64 855.019 821.354 856.02 820.781C857.045 820.186 857.856 819.339 858.452 818.243C859.048 817.123 859.346 815.823 859.346 814.346Z" fill="white"/>
<path d="M898.261 824.178H895.007L881.921 804.334V824.178H878.667V799.221H881.921L895.007 819.029V799.221H898.261V824.178Z" fill="white"/>
<path d="M922.185 813.63C922.185 814.25 922.15 814.906 922.078 815.597H906.417C906.537 817.528 907.192 819.041 908.384 820.138C909.6 821.211 911.065 821.747 912.782 821.747C914.188 821.747 915.356 821.425 916.286 820.781C917.239 820.114 917.907 819.232 918.288 818.136H921.792C921.268 820.019 920.219 821.556 918.646 822.748C917.072 823.916 915.118 824.5 912.782 824.5C910.922 824.5 909.254 824.083 907.776 823.249C906.322 822.414 905.178 821.234 904.344 819.709C903.509 818.159 903.092 816.372 903.092 814.346C903.092 812.319 903.497 810.544 904.308 809.018C905.118 807.493 906.25 806.325 907.704 805.514C909.182 804.68 910.875 804.263 912.782 804.263C914.641 804.263 916.286 804.668 917.716 805.478C919.146 806.289 920.243 807.409 921.005 808.839C921.792 810.246 922.185 811.843 922.185 813.63ZM918.824 812.951C918.824 811.712 918.55 810.651 918.002 809.769C917.454 808.863 916.703 808.184 915.749 807.731C914.82 807.254 913.783 807.016 912.639 807.016C910.994 807.016 909.588 807.54 908.42 808.589C907.275 809.638 906.62 811.092 906.453 812.951H918.824Z" fill="white"/>
<path d="M930.949 807.266V818.815C930.949 819.768 931.152 820.448 931.557 820.853C931.963 821.234 932.666 821.425 933.667 821.425H936.062V824.178H933.131C931.319 824.178 929.96 823.761 929.054 822.927C928.149 822.092 927.696 820.722 927.696 818.815V807.266H925.157V804.584H927.696V799.65H930.949V804.584H936.062V807.266H930.949Z" fill="white"/>
<path d="M954.092 809.697V812.451H939.826V809.697H954.092Z" fill="white"/>
<path d="M963.452 821.354H975.609V824.178H959.591V821.604L971.676 802.082H959.734V799.257H975.537V801.831L963.452 821.354Z" fill="white"/>
<path d="M998.421 813.63C998.421 814.25 998.385 814.906 998.314 815.597H982.653C982.772 817.528 983.428 819.041 984.62 820.138C985.835 821.211 987.301 821.747 989.018 821.747C990.424 821.747 991.592 821.425 992.522 820.781C993.475 820.114 994.143 819.232 994.524 818.136H998.028C997.503 820.019 996.455 821.556 994.881 822.748C993.308 823.916 991.354 824.5 989.018 824.5C987.158 824.5 985.49 824.083 984.012 823.249C982.558 822.414 981.414 821.234 980.579 819.709C979.745 818.159 979.328 816.372 979.328 814.346C979.328 812.319 979.733 810.544 980.544 809.018C981.354 807.493 982.486 806.325 983.94 805.514C985.418 804.68 987.111 804.263 989.018 804.263C990.877 804.263 992.522 804.668 993.952 805.478C995.382 806.289 996.478 807.409 997.241 808.839C998.028 810.246 998.421 811.843 998.421 813.63ZM995.06 812.951C995.06 811.712 994.786 810.651 994.238 809.769C993.69 808.863 992.939 808.184 991.985 807.731C991.056 807.254 990.019 807.016 988.875 807.016C987.23 807.016 985.823 807.54 984.655 808.589C983.511 809.638 982.856 811.092 982.689 812.951H995.06Z" fill="white"/>
<path d="M1006.47 807.767C1007.04 806.646 1007.85 805.776 1008.9 805.157C1009.97 804.537 1011.27 804.227 1012.8 804.227V807.588H1011.94C1008.29 807.588 1006.47 809.566 1006.47 813.523V824.178H1003.22V804.584H1006.47V807.767Z" fill="white"/>
<path d="M1025.6 824.5C1023.77 824.5 1022.1 824.083 1020.6 823.249C1019.12 822.414 1017.95 821.234 1017.09 819.709C1016.26 818.159 1015.84 816.372 1015.84 814.346C1015.84 812.343 1016.27 810.579 1017.13 809.054C1018.01 807.504 1019.2 806.325 1020.7 805.514C1022.2 804.68 1023.88 804.263 1025.74 804.263C1027.6 804.263 1029.28 804.68 1030.79 805.514C1032.29 806.325 1033.47 807.493 1034.33 809.018C1035.21 810.544 1035.65 812.319 1035.65 814.346C1035.65 816.372 1035.2 818.159 1034.29 819.709C1033.41 821.234 1032.2 822.414 1030.68 823.249C1029.15 824.083 1027.46 824.5 1025.6 824.5ZM1025.6 821.64C1026.77 821.64 1027.87 821.365 1028.89 820.817C1029.92 820.269 1030.74 819.447 1031.36 818.35C1032 817.254 1032.32 815.919 1032.32 814.346C1032.32 812.772 1032.01 811.438 1031.39 810.341C1030.77 809.245 1029.96 808.434 1028.96 807.91C1027.96 807.361 1026.88 807.087 1025.71 807.087C1024.52 807.087 1023.42 807.361 1022.42 807.91C1021.44 808.434 1020.65 809.245 1020.06 810.341C1019.46 811.438 1019.16 812.772 1019.16 814.346C1019.16 815.943 1019.45 817.289 1020.02 818.386C1020.62 819.482 1021.41 820.305 1022.38 820.853C1023.36 821.377 1024.43 821.64 1025.6 821.64Z" fill="white"/>
<path d="M1065.8 799.257V801.903H1059.01V824.178H1055.75V801.903H1048.92V799.257H1065.8Z" fill="white"/>
<path d="M1073.56 807.767C1074.13 806.646 1074.94 805.776 1075.99 805.157C1077.06 804.537 1078.36 804.227 1079.89 804.227V807.588H1079.03C1075.38 807.588 1073.56 809.566 1073.56 813.523V824.178H1070.3V804.584H1073.56V807.767Z" fill="white"/>
<path d="M1082.93 814.31C1082.93 812.308 1083.33 810.556 1084.14 809.054C1084.95 807.528 1086.06 806.348 1087.47 805.514C1088.9 804.68 1090.48 804.263 1092.22 804.263C1093.94 804.263 1095.43 804.632 1096.69 805.371C1097.96 806.11 1098.9 807.04 1099.52 808.16V804.584H1102.81V824.178H1099.52V820.531C1098.87 821.675 1097.91 822.629 1096.62 823.392C1095.36 824.131 1093.88 824.5 1092.19 824.5C1090.45 824.5 1088.87 824.071 1087.47 823.213C1086.06 822.355 1084.95 821.151 1084.14 819.602C1083.33 818.052 1082.93 816.288 1082.93 814.31ZM1099.52 814.346C1099.52 812.868 1099.22 811.581 1098.62 810.484C1098.03 809.388 1097.22 808.553 1096.19 807.981C1095.19 807.385 1094.08 807.087 1092.87 807.087C1091.65 807.087 1090.54 807.373 1089.54 807.945C1088.54 808.518 1087.74 809.352 1087.15 810.448C1086.55 811.545 1086.25 812.832 1086.25 814.31C1086.25 815.812 1086.55 817.123 1087.15 818.243C1087.74 819.339 1088.54 820.186 1089.54 820.781C1090.54 821.354 1091.65 821.64 1092.87 821.64C1094.08 821.64 1095.19 821.354 1096.19 820.781C1097.22 820.186 1098.03 819.339 1098.62 818.243C1099.22 817.123 1099.52 815.823 1099.52 814.346Z" fill="white"/>
<path d="M1118.35 804.227C1120.74 804.227 1122.67 804.954 1124.15 806.408C1125.62 807.838 1126.36 809.912 1126.36 812.629V824.178H1123.14V813.094C1123.14 811.14 1122.66 809.65 1121.68 808.625C1120.7 807.576 1119.37 807.052 1117.67 807.052C1115.96 807.052 1114.59 807.588 1113.56 808.661C1112.56 809.733 1112.06 811.294 1112.06 813.344V824.178H1108.81V804.584H1112.06V807.373C1112.7 806.372 1113.57 805.598 1114.67 805.049C1115.79 804.501 1117.02 804.227 1118.35 804.227Z" fill="white"/>
<path d="M1139.11 824.5C1137.61 824.5 1136.27 824.25 1135.07 823.749C1133.88 823.225 1132.94 822.51 1132.25 821.604C1131.56 820.674 1131.18 819.613 1131.1 818.422H1134.47C1134.56 819.399 1135.01 820.197 1135.82 820.817C1136.66 821.437 1137.74 821.747 1139.08 821.747C1140.32 821.747 1141.29 821.473 1142.01 820.924C1142.73 820.376 1143.08 819.685 1143.08 818.851C1143.08 817.993 1142.7 817.361 1141.94 816.956C1141.18 816.527 1140 816.109 1138.4 815.704C1136.94 815.323 1135.75 814.941 1134.82 814.56C1133.92 814.155 1133.13 813.571 1132.46 812.808C1131.82 812.021 1131.5 810.997 1131.5 809.733C1131.5 808.732 1131.8 807.814 1132.39 806.98C1132.99 806.146 1133.83 805.49 1134.93 805.014C1136.03 804.513 1137.28 804.263 1138.68 804.263C1140.85 804.263 1142.61 804.811 1143.94 805.907C1145.28 807.004 1145.99 808.506 1146.09 810.413H1142.83C1142.76 809.388 1142.34 808.565 1141.58 807.945C1140.84 807.326 1139.84 807.016 1138.58 807.016C1137.41 807.016 1136.48 807.266 1135.79 807.767C1135.1 808.267 1134.75 808.923 1134.75 809.733C1134.75 810.377 1134.95 810.913 1135.36 811.342C1135.79 811.747 1136.31 812.081 1136.93 812.343C1137.58 812.582 1138.46 812.856 1139.58 813.166C1140.99 813.547 1142.13 813.928 1143.01 814.31C1143.89 814.667 1144.64 815.216 1145.26 815.955C1145.91 816.693 1146.24 817.659 1146.26 818.851C1146.26 819.923 1145.97 820.889 1145.37 821.747C1144.78 822.605 1143.93 823.284 1142.83 823.785C1141.76 824.262 1140.52 824.5 1139.11 824.5Z" fill="white"/>
<path d="M1153.04 801.402C1152.42 801.402 1151.89 801.188 1151.47 800.759C1151.04 800.33 1150.82 799.805 1150.82 799.185C1150.82 798.566 1151.04 798.041 1151.47 797.612C1151.89 797.183 1152.42 796.969 1153.04 796.969C1153.64 796.969 1154.14 797.183 1154.54 797.612C1154.97 798.041 1155.18 798.566 1155.18 799.185C1155.18 799.805 1154.97 800.33 1154.54 800.759C1154.14 801.188 1153.64 801.402 1153.04 801.402ZM1154.61 804.584V824.178H1151.36V804.584H1154.61Z" fill="white"/>
<path d="M1164.63 807.266V818.815C1164.63 819.768 1164.83 820.448 1165.23 820.853C1165.64 821.234 1166.34 821.425 1167.34 821.425H1169.74V824.178H1166.81C1165 824.178 1163.64 823.761 1162.73 822.927C1161.83 822.092 1161.37 820.722 1161.37 818.815V807.266H1158.83V804.584H1161.37V799.65H1164.63V804.584H1169.74V807.266H1164.63Z" fill="white"/>
<path d="M1175.86 801.402C1175.24 801.402 1174.72 801.188 1174.29 800.759C1173.86 800.33 1173.65 799.805 1173.65 799.185C1173.65 798.566 1173.86 798.041 1174.29 797.612C1174.72 797.183 1175.24 796.969 1175.86 796.969C1176.46 796.969 1176.96 797.183 1177.37 797.612C1177.79 798.041 1178.01 798.566 1178.01 799.185C1178.01 799.805 1177.79 800.33 1177.37 800.759C1176.96 801.188 1176.46 801.402 1175.86 801.402ZM1177.44 804.584V824.178H1174.18V804.584H1177.44Z" fill="white"/>
<path d="M1192.03 824.5C1190.19 824.5 1188.52 824.083 1187.02 823.249C1185.54 822.414 1184.38 821.234 1183.52 819.709C1182.68 818.159 1182.27 816.372 1182.27 814.346C1182.27 812.343 1182.7 810.579 1183.55 809.054C1184.44 807.504 1185.63 806.325 1187.13 805.514C1188.63 804.68 1190.31 804.263 1192.17 804.263C1194.03 804.263 1195.71 804.68 1197.21 805.514C1198.71 806.325 1199.89 807.493 1200.75 809.018C1201.63 810.544 1202.08 812.319 1202.08 814.346C1202.08 816.372 1201.62 818.159 1200.72 819.709C1199.83 821.234 1198.63 822.414 1197.11 823.249C1195.58 824.083 1193.89 824.5 1192.03 824.5ZM1192.03 821.64C1193.2 821.64 1194.29 821.365 1195.32 820.817C1196.34 820.269 1197.16 819.447 1197.78 818.35C1198.43 817.254 1198.75 815.919 1198.75 814.346C1198.75 812.772 1198.44 811.438 1197.82 810.341C1197.2 809.245 1196.39 808.434 1195.39 807.91C1194.39 807.361 1193.3 807.087 1192.14 807.087C1190.94 807.087 1189.85 807.361 1188.85 807.91C1187.87 808.434 1187.08 809.245 1186.49 810.341C1185.89 811.438 1185.59 812.772 1185.59 814.346C1185.59 815.943 1185.88 817.289 1186.45 818.386C1187.05 819.482 1187.83 820.305 1188.81 820.853C1189.79 821.377 1190.86 821.64 1192.03 821.64Z" fill="white"/>
<path d="M1216.4 804.227C1218.78 804.227 1220.71 804.954 1222.19 806.408C1223.67 807.838 1224.41 809.912 1224.41 812.629V824.178H1221.19V813.094C1221.19 811.14 1220.7 809.65 1219.73 808.625C1218.75 807.576 1217.41 807.052 1215.72 807.052C1214 807.052 1212.63 807.588 1211.61 808.661C1210.61 809.733 1210.11 811.294 1210.11 813.344V824.178H1206.85V804.584H1210.11V807.373C1210.75 806.372 1211.62 805.598 1212.72 805.049C1213.84 804.501 1215.07 804.227 1216.4 804.227Z" fill="white"/>
<path d="M1237.16 824.5C1235.66 824.5 1234.31 824.25 1233.12 823.749C1231.93 823.225 1230.99 822.51 1230.3 821.604C1229.61 820.674 1229.22 819.613 1229.15 818.422H1232.51C1232.61 819.399 1233.06 820.197 1233.87 820.817C1234.71 821.437 1235.79 821.747 1237.13 821.747C1238.37 821.747 1239.34 821.473 1240.06 820.924C1240.77 820.376 1241.13 819.685 1241.13 818.851C1241.13 817.993 1240.75 817.361 1239.99 816.956C1239.22 816.527 1238.04 816.109 1236.45 815.704C1234.99 815.323 1233.8 814.941 1232.87 814.56C1231.97 814.155 1231.18 813.571 1230.51 812.808C1229.87 812.021 1229.55 810.997 1229.55 809.733C1229.55 808.732 1229.84 807.814 1230.44 806.98C1231.04 806.146 1231.88 805.49 1232.98 805.014C1234.07 804.513 1235.33 804.263 1236.73 804.263C1238.9 804.263 1240.65 804.811 1241.99 805.907C1243.32 807.004 1244.04 808.506 1244.13 810.413H1240.88C1240.81 809.388 1240.39 808.565 1239.63 807.945C1238.89 807.326 1237.89 807.016 1236.63 807.016C1235.46 807.016 1234.53 807.266 1233.84 807.767C1233.15 808.267 1232.8 808.923 1232.8 809.733C1232.8 810.377 1233 810.913 1233.41 811.342C1233.84 811.747 1234.36 812.081 1234.98 812.343C1235.62 812.582 1236.51 812.856 1237.63 813.166C1239.03 813.547 1240.18 813.928 1241.06 814.31C1241.94 814.667 1242.69 815.216 1243.31 815.955C1243.95 816.693 1244.29 817.659 1244.31 818.851C1244.31 819.923 1244.01 820.889 1243.42 821.747C1242.82 822.605 1241.98 823.284 1240.88 823.785C1239.81 824.262 1238.57 824.5 1237.16 824.5Z" fill="white"/>
<path d="M1276.1 806.551C1276.1 808.625 1275.39 810.353 1273.96 811.735C1272.55 813.094 1270.39 813.773 1267.48 813.773H1262.69V824.178H1259.44V799.257H1267.48C1270.3 799.257 1272.43 799.936 1273.88 801.295C1275.36 802.654 1276.1 804.406 1276.1 806.551ZM1267.48 811.092C1269.3 811.092 1270.63 810.699 1271.49 809.912C1272.35 809.125 1272.78 808.005 1272.78 806.551C1272.78 803.476 1271.01 801.939 1267.48 801.939H1262.69V811.092H1267.48Z" fill="white"/>
<path d="M1279.43 814.31C1279.43 812.308 1279.84 810.556 1280.65 809.054C1281.46 807.528 1282.56 806.348 1283.97 805.514C1285.4 804.68 1286.99 804.263 1288.73 804.263C1290.44 804.263 1291.93 804.632 1293.2 805.371C1294.46 806.11 1295.4 807.04 1296.02 808.16V804.584H1299.31V824.178H1296.02V820.531C1295.38 821.675 1294.41 822.629 1293.12 823.392C1291.86 824.131 1290.38 824.5 1288.69 824.5C1286.95 824.5 1285.38 824.071 1283.97 823.213C1282.56 822.355 1281.46 821.151 1280.65 819.602C1279.84 818.052 1279.43 816.288 1279.43 814.31ZM1296.02 814.346C1296.02 812.868 1295.72 811.581 1295.13 810.484C1294.53 809.388 1293.72 808.553 1292.7 807.981C1291.69 807.385 1290.59 807.087 1289.37 807.087C1288.15 807.087 1287.05 807.373 1286.04 807.945C1285.04 808.518 1284.24 809.352 1283.65 810.448C1283.05 811.545 1282.76 812.832 1282.76 814.31C1282.76 815.812 1283.05 817.123 1283.65 818.243C1284.24 819.339 1285.04 820.186 1286.04 820.781C1287.05 821.354 1288.15 821.64 1289.37 821.64C1290.59 821.64 1291.69 821.354 1292.7 820.781C1293.72 820.186 1294.53 819.339 1295.13 818.243C1295.72 817.123 1296.02 815.823 1296.02 814.346Z" fill="white"/>
<path d="M1308.56 807.767C1309.13 806.646 1309.94 805.776 1310.99 805.157C1312.07 804.537 1313.37 804.227 1314.89 804.227V807.588H1314.03C1310.39 807.588 1308.56 809.566 1308.56 813.523V824.178H1305.31V804.584H1308.56V807.767Z" fill="white"/>
<path d="M1323.12 807.266V818.815C1323.12 819.768 1323.32 820.448 1323.72 820.853C1324.13 821.234 1324.83 821.425 1325.83 821.425H1328.23V824.178H1325.3C1323.49 824.178 1322.13 823.761 1321.22 822.927C1320.32 822.092 1319.86 820.722 1319.86 818.815V807.266H1317.32V804.584H1319.86V799.65H1323.12V804.584H1328.23V807.266H1323.12Z" fill="white"/>
<path d="M1342.22 804.227C1344.6 804.227 1346.53 804.954 1348.01 806.408C1349.49 807.838 1350.23 809.912 1350.23 812.629V824.178H1347.01V813.094C1347.01 811.14 1346.52 809.65 1345.54 808.625C1344.57 807.576 1343.23 807.052 1341.54 807.052C1339.82 807.052 1338.45 807.588 1337.43 808.661C1336.43 809.733 1335.93 811.294 1335.93 813.344V824.178H1332.67V804.584H1335.93V807.373C1336.57 806.372 1337.44 805.598 1338.54 805.049C1339.66 804.501 1340.88 804.227 1342.22 804.227Z" fill="white"/>
<path d="M1373.92 813.63C1373.92 814.25 1373.89 814.906 1373.81 815.597H1358.15C1358.27 817.528 1358.93 819.041 1360.12 820.138C1361.34 821.211 1362.8 821.747 1364.52 821.747C1365.92 821.747 1367.09 821.425 1368.02 820.781C1368.97 820.114 1369.64 819.232 1370.02 818.136H1373.53C1373 820.019 1371.95 821.556 1370.38 822.748C1368.81 823.916 1366.85 824.5 1364.52 824.5C1362.66 824.5 1360.99 824.083 1359.51 823.249C1358.06 822.414 1356.91 821.234 1356.08 819.709C1355.24 818.159 1354.83 816.372 1354.83 814.346C1354.83 812.319 1355.23 810.544 1356.04 809.018C1356.85 807.493 1357.99 806.325 1359.44 805.514C1360.92 804.68 1362.61 804.263 1364.52 804.263C1366.38 804.263 1368.02 804.668 1369.45 805.478C1370.88 806.289 1371.98 807.409 1372.74 808.839C1373.53 810.246 1373.92 811.843 1373.92 813.63ZM1370.56 812.951C1370.56 811.712 1370.29 810.651 1369.74 809.769C1369.19 808.863 1368.44 808.184 1367.48 807.731C1366.56 807.254 1365.52 807.016 1364.37 807.016C1362.73 807.016 1361.32 807.54 1360.16 808.589C1359.01 809.638 1358.36 811.092 1358.19 812.951H1370.56Z" fill="white"/>
<path d="M1381.97 807.767C1382.54 806.646 1383.35 805.776 1384.4 805.157C1385.47 804.537 1386.77 804.227 1388.3 804.227V807.588H1387.44C1383.79 807.588 1381.97 809.566 1381.97 813.523V824.178H1378.72V804.584H1381.97V807.767Z" fill="white"/>
</g>
<defs>
<linearGradient id="paint0_linear_5_187" x1="960" y1="1080" x2="960" y2="540" gradientUnits="userSpaceOnUse">
<stop stop-color="#40A3FD"/>
<stop offset="1" stop-color="#0072D9"/>
</linearGradient>
<linearGradient id="paint1_linear_5_187" x1="618.5" y1="171" x2="618.5" y2="306" gradientUnits="userSpaceOnUse">
<stop stop-color="#0A8AFE"/>
<stop offset="1" stop-color="#3BA55D"/>
</linearGradient>
<clipPath id="clip0_5_187">
<rect width="1920" height="1080" fill="white"/>
</clipPath>
</defs>
</svg>
