<svg width="1920" height="1080" viewBox="0 0 1920 1080" fill="none" xmlns="http://www.w3.org/2000/svg">
<g clip-path="url(#clip0_5_257)">
<rect width="1920" height="1080" fill="#131313"/>
<path fill-rule="evenodd" clip-rule="evenodd" d="M1156.56 446C1238.81 446 1364.6 470.794 1464.98 552.502C1511.08 590.026 1548.83 636.976 1575.15 684.676C1581.38 695.956 1587.02 707.383 1592 718.836C1596.98 707.383 1602.62 695.956 1608.85 684.676C1635.17 636.976 1672.92 590.026 1719.02 552.502C1819.4 470.794 1945.19 446 2027.44 446H2043.98L2050.87 461.065C2063.06 487.701 2064.92 525.158 2063.67 558.034C2062.37 592.143 2057.44 626.465 2052.71 649.963C2036.34 731.286 1984.36 837.2 1869.25 877.562C1865.02 879.042 1860.81 880.429 1856.61 881.736C1893.4 906.218 1921.94 945.141 1927.61 998.52C1936.23 1079.74 1884.36 1163.35 1785.32 1174.13C1726.51 1180.54 1683.16 1150.37 1654.56 1119.4C1638.47 1101.99 1625.54 1082.43 1616.56 1067.59C1609.18 1055.39 1613.28 1039.07 1625.27 1031.38C1637.27 1023.69 1652.79 1027.45 1660.05 1039.72C1667.94 1053.03 1678.22 1068.96 1692.41 1084.33C1715.28 1109.1 1743.68 1126.71 1779.74 1122.78C1847.4 1115.42 1882.3 1060.12 1876.34 1003.98C1869.44 939.06 1810.41 902.254 1754.17 902.254C1717.13 902.254 1694.78 907.923 1678.72 916.663C1662.82 925.315 1650.41 938.385 1635.52 958.852L1585.67 1039.99L1585.91 1040.14C1581 1047.82 1561.87 1085.38 1533.3 1116.7C1531.84 1118.3 1530.35 1119.9 1528.81 1121.49C1520.53 1130.74 1511.32 1139.68 1502.08 1145.84L1501.75 1145.34C1475.21 1164.79 1441.52 1178.58 1400.72 1174.13C1301.67 1163.35 1249.8 1079.74 1258.43 998.52C1264.06 945.453 1292.3 906.672 1328.78 882.165C1324.12 880.734 1319.44 879.206 1314.75 877.562C1199.64 837.2 1147.66 731.286 1131.29 649.963C1126.56 626.465 1121.63 592.143 1120.33 558.034C1119.08 525.158 1120.94 487.701 1133.13 461.065L1140.02 446H1156.56ZM2008.8 498.11C1935.23 501.642 1833.05 526.233 1751.53 592.589C1710.86 625.693 1677.28 667.413 1653.97 709.663C1636.49 741.348 1625.33 772.313 1620.76 799.325C1618.33 813.729 1606.58 825.638 1592 825.638C1577.42 825.638 1565.67 813.729 1563.24 799.325C1558.67 772.313 1547.51 741.348 1530.03 709.663C1506.72 667.413 1473.14 625.693 1432.47 592.589C1350.95 526.233 1248.77 501.642 1175.2 498.11C1172.08 513.096 1170.98 533.203 1171.85 556.067C1173.03 586.952 1177.55 618.486 1181.83 639.753C1196.3 711.661 1240.66 796.858 1331.78 828.809C1404 854.13 1476.62 844.577 1508.88 858.209C1513.8 859.656 1518.49 861.357 1523 863.359C1539.25 870.568 1551.88 881.074 1564.03 893.73C1573.9 904.011 1572.48 920.502 1561.69 929.801C1550.89 939.101 1534.85 937.633 1524.85 927.488C1516.29 918.808 1509.75 913.967 1502.13 910.589C1489.6 905.032 1471.28 902.254 1431.86 902.254C1375.63 902.254 1316.59 939.06 1309.7 1003.98C1303.73 1060.12 1338.63 1115.42 1406.29 1122.78C1439.87 1126.44 1467.75 1110.32 1490.98 1086.39C1493.95 1083.05 1497.04 1079.37 1500.18 1075.42C1509.99 1063.11 1518.67 1050.36 1523.52 1042.63L1592.15 930.901L1592.66 930.065L1593.24 929.27C1609.9 906.266 1627.88 885.544 1654.11 871.273C1660.74 867.668 1667.71 864.567 1675.12 861.943C1712.07 848.856 1780 854.13 1852.22 828.809C1943.34 796.858 1987.7 711.661 2002.17 639.753C2006.45 618.486 2010.97 586.952 2012.15 556.067C2013.02 533.203 2011.92 513.096 2008.8 498.11Z" fill="white" fill-opacity="0.02"/>
<g filter="url(#filter0_f_5_257)">
<ellipse cx="422.16" cy="458.939" rx="422.16" ry="458.939" transform="matrix(-0.707107 0.707107 0.707107 0.707107 -380.976 -672.626)" fill="#0A8AFE" fill-opacity="0.8"/>
</g>
<g opacity="0.3" filter="url(#filter1_f_5_257)" style="mix-blend-mode:plus-lighter">
<rect width="183.011" height="1296.36" transform="matrix(-0.724596 0.689174 0.691922 0.721972 -113.821 -106.141)" fill="url(#paint0_linear_5_257)"/>
</g>
<g opacity="0.8" filter="url(#filter2_f_5_257)" style="mix-blend-mode:plus-lighter">
<rect width="183.006" height="1296.39" transform="matrix(-0.695489 0.718537 0.716815 0.697263 -215.781 -9.67236)" fill="url(#paint1_linear_5_257)"/>
</g>
<g opacity="0.3" filter="url(#filter3_f_5_257)">
<g filter="url(#filter4_f_5_257)">
<ellipse cx="422.16" cy="490.635" rx="422.16" ry="490.635" transform="matrix(-0.707107 0.707107 0.707107 0.707107 84.8721 -819)" fill="#0A8AFE" fill-opacity="0.8"/>
</g>
<g opacity="0.3" filter="url(#filter5_f_5_257)" style="mix-blend-mode:plus-lighter">
<path d="M380.813 -223.727L247.98 -97.8242L1208.25 901.404L1341.09 775.501L380.813 -223.727Z" fill="url(#paint2_linear_5_257)"/>
</g>
<g opacity="0.8" filter="url(#filter6_f_5_257)" style="mix-blend-mode:plus-lighter">
<rect width="183.01" height="1385.91" transform="matrix(-0.69468 0.719319 0.716192 0.697903 278.666 -127.446)" fill="url(#paint3_linear_5_257)"/>
</g>
</g>
<g opacity="0.3" filter="url(#filter7_f_5_257)">
<g filter="url(#filter8_f_5_257)">
<ellipse cx="422.16" cy="405.133" rx="422.16" ry="405.133" transform="matrix(-0.707107 0.707107 0.707107 0.707107 656.038 -795.636)" fill="#0A8AFE" fill-opacity="0.8"/>
</g>
<g opacity="0.8" filter="url(#filter9_f_5_257)" style="mix-blend-mode:plus-lighter">
<rect width="182.999" height="1144.44" transform="matrix(-0.72257 0.691298 0.689882 0.723922 874.324 -278.019)" fill="url(#paint4_linear_5_257)"/>
</g>
<g opacity="0.8" filter="url(#filter10_f_5_257)" style="mix-blend-mode:plus-lighter">
<rect width="183.001" height="1144.43" transform="matrix(-0.69686 0.717207 0.718094 0.695946 772.686 -181.229)" fill="url(#paint5_linear_5_257)"/>
</g>
</g>
<g opacity="0.4" filter="url(#filter11_f_5_257)" style="mix-blend-mode:plus-lighter">
<ellipse cx="63.1792" cy="641.184" rx="63.1792" ry="641.184" transform="matrix(-0.707107 0.707107 0.707107 0.707107 486.466 -187.493)" fill="url(#paint6_linear_5_257)"/>
</g>
<g opacity="0.4" filter="url(#filter12_f_5_257)" style="mix-blend-mode:plus-lighter">
<ellipse cx="63.1792" cy="641.184" rx="63.1792" ry="641.184" transform="matrix(-0.707107 0.707107 0.707107 0.707107 -6.13184 -276.839)" fill="url(#paint7_linear_5_257)"/>
</g>
<path d="M85.8295 985.455C85.7784 985.023 85.571 984.688 85.2074 984.449C84.8438 984.21 84.3977 984.091 83.8693 984.091C83.483 984.091 83.1449 984.153 82.8551 984.278C82.5682 984.403 82.3438 984.575 82.1818 984.794C82.0227 985.013 81.9432 985.261 81.9432 985.54C81.9432 985.773 81.9986 985.973 82.1094 986.141C82.223 986.305 82.3679 986.443 82.544 986.554C82.7202 986.662 82.9048 986.751 83.098 986.822C83.2912 986.891 83.4688 986.946 83.6307 986.989L84.517 987.227C84.7443 987.287 84.9972 987.369 85.2756 987.474C85.5568 987.58 85.8253 987.723 86.081 987.905C86.3395 988.084 86.5526 988.314 86.7202 988.595C86.8878 988.876 86.9716 989.222 86.9716 989.631C86.9716 990.102 86.848 990.528 86.6009 990.909C86.3565 991.29 85.9986 991.592 85.527 991.817C85.0582 992.041 84.4886 992.153 83.8182 992.153C83.1932 992.153 82.652 992.053 82.1946 991.851C81.7401 991.649 81.3821 991.368 81.1207 991.007C80.8622 990.646 80.7159 990.227 80.6818 989.75H81.7727C81.8011 990.08 81.9119 990.352 82.1051 990.568C82.3011 990.781 82.5483 990.94 82.8466 991.045C83.1477 991.148 83.4716 991.199 83.8182 991.199C84.2216 991.199 84.5838 991.134 84.9048 991.003C85.2259 990.869 85.4801 990.685 85.6676 990.449C85.8551 990.21 85.9489 989.932 85.9489 989.614C85.9489 989.324 85.8679 989.088 85.706 988.906C85.544 988.724 85.331 988.577 85.0668 988.463C84.8026 988.349 84.517 988.25 84.2102 988.165L83.1364 987.858C82.4545 987.662 81.9148 987.382 81.517 987.018C81.1193 986.655 80.9205 986.179 80.9205 985.591C80.9205 985.102 81.0526 984.676 81.3168 984.312C81.5838 983.946 81.9418 983.662 82.3906 983.46C82.8423 983.256 83.3466 983.153 83.9034 983.153C84.4659 983.153 84.9659 983.254 85.4034 983.456C85.8409 983.655 86.1875 983.928 86.4432 984.274C86.7017 984.621 86.8381 985.014 86.8523 985.455H85.8295ZM92.6978 989.324V985.455H93.7035V992H92.6978V990.892H92.6296C92.4762 991.224 92.2376 991.507 91.9137 991.74C91.5898 991.97 91.1808 992.085 90.6864 992.085C90.2773 992.085 89.9137 991.996 89.5955 991.817C89.2773 991.635 89.0273 991.362 88.8455 990.999C88.6637 990.632 88.5728 990.17 88.5728 989.614V985.455H89.5785V989.545C89.5785 990.023 89.712 990.403 89.979 990.688C90.2489 990.972 90.5927 991.114 91.0103 991.114C91.2603 991.114 91.5146 991.05 91.7731 990.922C92.0344 990.794 92.2532 990.598 92.4293 990.334C92.6083 990.07 92.6978 989.733 92.6978 989.324ZM100.182 986.92L99.2784 987.176C99.2216 987.026 99.1378 986.879 99.027 986.737C98.919 986.592 98.7713 986.473 98.5838 986.379C98.3963 986.286 98.1562 986.239 97.8636 986.239C97.4631 986.239 97.1293 986.331 96.8622 986.516C96.598 986.697 96.4659 986.929 96.4659 987.21C96.4659 987.46 96.5568 987.658 96.7386 987.803C96.9205 987.947 97.2045 988.068 97.5909 988.165L98.5625 988.403C99.1477 988.545 99.5838 988.763 99.8707 989.055C100.158 989.345 100.301 989.719 100.301 990.176C100.301 990.551 100.193 990.886 99.9773 991.182C99.7642 991.477 99.4659 991.71 99.0824 991.881C98.6989 992.051 98.2528 992.136 97.7443 992.136C97.0767 992.136 96.5241 991.991 96.0866 991.702C95.6491 991.412 95.3722 990.989 95.2557 990.432L96.2102 990.193C96.3011 990.545 96.473 990.81 96.7259 990.986C96.9815 991.162 97.3153 991.25 97.7273 991.25C98.196 991.25 98.5682 991.151 98.8438 990.952C99.1222 990.75 99.2614 990.509 99.2614 990.227C99.2614 990 99.1818 989.81 99.0227 989.656C98.8636 989.5 98.6193 989.384 98.2898 989.307L97.1989 989.051C96.5994 988.909 96.1591 988.689 95.8778 988.391C95.5994 988.089 95.4602 987.713 95.4602 987.261C95.4602 986.892 95.5639 986.565 95.7713 986.281C95.9815 985.997 96.267 985.774 96.6278 985.612C96.9915 985.45 97.4034 985.369 97.8636 985.369C98.5114 985.369 99.0199 985.511 99.3892 985.795C99.7614 986.08 100.026 986.455 100.182 986.92ZM104.662 985.455V986.307H101.27V985.455H104.662ZM102.258 983.886H103.264V990.125C103.264 990.409 103.305 990.622 103.387 990.764C103.473 990.903 103.581 990.997 103.711 991.045C103.845 991.091 103.985 991.114 104.133 991.114C104.244 991.114 104.335 991.108 104.406 991.097C104.477 991.082 104.534 991.071 104.576 991.062L104.781 991.966C104.713 991.991 104.618 992.017 104.495 992.043C104.373 992.071 104.218 992.085 104.031 992.085C103.747 992.085 103.468 992.024 103.196 991.902C102.926 991.78 102.701 991.594 102.522 991.344C102.346 991.094 102.258 990.778 102.258 990.398V983.886ZM108.1 992.153C107.686 992.153 107.309 992.075 106.971 991.919C106.633 991.76 106.365 991.531 106.166 991.233C105.967 990.932 105.868 990.568 105.868 990.142C105.868 989.767 105.941 989.463 106.089 989.23C106.237 988.994 106.434 988.81 106.681 988.676C106.929 988.543 107.201 988.443 107.5 988.378C107.801 988.31 108.103 988.256 108.407 988.216C108.805 988.165 109.127 988.126 109.375 988.101C109.625 988.072 109.806 988.026 109.92 987.96C110.037 987.895 110.095 987.781 110.095 987.619V987.585C110.095 987.165 109.98 986.838 109.75 986.605C109.522 986.372 109.177 986.256 108.714 986.256C108.234 986.256 107.858 986.361 107.585 986.571C107.312 986.781 107.12 987.006 107.01 987.244L106.055 986.903C106.225 986.506 106.453 986.196 106.737 985.974C107.024 985.75 107.336 985.594 107.674 985.506C108.015 985.415 108.35 985.369 108.68 985.369C108.89 985.369 109.132 985.395 109.404 985.446C109.68 985.494 109.946 985.595 110.201 985.749C110.46 985.902 110.674 986.134 110.845 986.443C111.015 986.753 111.1 987.168 111.1 987.688V992H110.095V991.114H110.044C109.975 991.256 109.862 991.408 109.703 991.57C109.544 991.732 109.332 991.869 109.068 991.983C108.804 992.097 108.481 992.153 108.1 992.153ZM108.254 991.25C108.652 991.25 108.987 991.172 109.26 991.016C109.535 990.859 109.743 990.658 109.882 990.411C110.024 990.163 110.095 989.903 110.095 989.631V988.71C110.052 988.761 109.958 988.808 109.814 988.851C109.672 988.891 109.507 988.926 109.319 988.957C109.135 988.986 108.954 989.011 108.778 989.034C108.605 989.054 108.464 989.071 108.356 989.085C108.095 989.119 107.85 989.175 107.623 989.251C107.399 989.325 107.217 989.437 107.078 989.588C106.941 989.736 106.873 989.937 106.873 990.193C106.873 990.543 107.002 990.807 107.261 990.986C107.522 991.162 107.853 991.25 108.254 991.25ZM112.936 992V985.455H113.942V992H112.936ZM113.447 984.364C113.251 984.364 113.082 984.297 112.94 984.163C112.801 984.03 112.732 983.869 112.732 983.682C112.732 983.494 112.801 983.334 112.94 983.2C113.082 983.067 113.251 983 113.447 983C113.643 983 113.811 983.067 113.95 983.2C114.092 983.334 114.163 983.494 114.163 983.682C114.163 983.869 114.092 984.03 113.95 984.163C113.811 984.297 113.643 984.364 113.447 984.364ZM116.789 988.062V992H115.784V985.455H116.755V986.477H116.841C116.994 986.145 117.227 985.878 117.539 985.676C117.852 985.472 118.255 985.369 118.75 985.369C119.193 985.369 119.581 985.46 119.913 985.642C120.245 985.821 120.504 986.094 120.689 986.46C120.873 986.824 120.966 987.284 120.966 987.841V992H119.96V987.909C119.96 987.395 119.826 986.994 119.559 986.707C119.292 986.418 118.926 986.273 118.46 986.273C118.139 986.273 117.852 986.342 117.599 986.482C117.349 986.621 117.152 986.824 117.007 987.091C116.862 987.358 116.789 987.682 116.789 988.062ZM124.729 992.153C124.315 992.153 123.938 992.075 123.6 991.919C123.262 991.76 122.994 991.531 122.795 991.233C122.596 990.932 122.496 990.568 122.496 990.142C122.496 989.767 122.57 989.463 122.718 989.23C122.866 988.994 123.063 988.81 123.31 988.676C123.558 988.543 123.83 988.443 124.129 988.378C124.43 988.31 124.732 988.256 125.036 988.216C125.434 988.165 125.756 988.126 126.004 988.101C126.254 988.072 126.435 988.026 126.549 987.96C126.665 987.895 126.724 987.781 126.724 987.619V987.585C126.724 987.165 126.609 986.838 126.379 986.605C126.151 986.372 125.806 986.256 125.343 986.256C124.863 986.256 124.487 986.361 124.214 986.571C123.941 986.781 123.749 987.006 123.638 987.244L122.684 986.903C122.854 986.506 123.082 986.196 123.366 985.974C123.653 985.75 123.965 985.594 124.303 985.506C124.644 985.415 124.979 985.369 125.309 985.369C125.519 985.369 125.761 985.395 126.033 985.446C126.309 985.494 126.575 985.595 126.83 985.749C127.089 985.902 127.303 986.134 127.474 986.443C127.644 986.753 127.729 987.168 127.729 987.688V992H126.724V991.114H126.673C126.604 991.256 126.491 991.408 126.332 991.57C126.173 991.732 125.961 991.869 125.697 991.983C125.433 992.097 125.11 992.153 124.729 992.153ZM124.883 991.25C125.281 991.25 125.616 991.172 125.888 991.016C126.164 990.859 126.371 990.658 126.511 990.411C126.653 990.163 126.724 989.903 126.724 989.631V988.71C126.681 988.761 126.587 988.808 126.442 988.851C126.3 988.891 126.136 988.926 125.948 988.957C125.763 988.986 125.583 989.011 125.407 989.034C125.234 989.054 125.093 989.071 124.985 989.085C124.724 989.119 124.479 989.175 124.252 989.251C124.028 989.325 123.846 989.437 123.707 989.588C123.57 989.736 123.502 989.937 123.502 990.193C123.502 990.543 123.631 990.807 123.89 990.986C124.151 991.162 124.482 991.25 124.883 991.25ZM129.701 992V983.273H130.707V986.494H130.792C130.866 986.381 130.968 986.236 131.099 986.06C131.233 985.881 131.423 985.722 131.67 985.582C131.92 985.44 132.258 985.369 132.684 985.369C133.235 985.369 133.721 985.507 134.142 985.783C134.562 986.058 134.89 986.449 135.126 986.955C135.362 987.46 135.48 988.057 135.48 988.744C135.48 989.438 135.362 990.038 135.126 990.547C134.89 991.053 134.564 991.445 134.146 991.723C133.728 991.999 133.247 992.136 132.701 992.136C132.281 992.136 131.944 992.067 131.691 991.928C131.439 991.786 131.244 991.625 131.108 991.446C130.971 991.264 130.866 991.114 130.792 990.994H130.673V992H129.701ZM130.69 988.727C130.69 989.222 130.762 989.658 130.907 990.036C131.052 990.411 131.264 990.705 131.542 990.918C131.821 991.128 132.162 991.233 132.565 991.233C132.985 991.233 133.336 991.122 133.618 990.901C133.902 990.676 134.115 990.375 134.257 989.997C134.402 989.616 134.474 989.193 134.474 988.727C134.474 988.267 134.403 987.852 134.261 987.483C134.122 987.111 133.91 986.817 133.626 986.601C133.345 986.382 132.991 986.273 132.565 986.273C132.156 986.273 131.812 986.376 131.534 986.584C131.255 986.788 131.045 987.075 130.903 987.445C130.761 987.811 130.69 988.239 130.69 988.727ZM137.018 992V985.455H138.024V992H137.018ZM137.529 984.364C137.333 984.364 137.164 984.297 137.022 984.163C136.883 984.03 136.814 983.869 136.814 983.682C136.814 983.494 136.883 983.334 137.022 983.2C137.164 983.067 137.333 983 137.529 983C137.725 983 137.893 983.067 138.032 983.2C138.174 983.334 138.245 983.494 138.245 983.682C138.245 983.869 138.174 984.03 138.032 984.163C137.893 984.297 137.725 984.364 137.529 984.364ZM140.871 983.273V992H139.866V983.273H140.871ZM142.713 992V985.455H143.719V992H142.713ZM143.225 984.364C143.029 984.364 142.86 984.297 142.718 984.163C142.578 984.03 142.509 983.869 142.509 983.682C142.509 983.494 142.578 983.334 142.718 983.2C142.86 983.067 143.029 983 143.225 983C143.421 983 143.588 983.067 143.728 983.2C143.87 983.334 143.941 983.494 143.941 983.682C143.941 983.869 143.87 984.03 143.728 984.163C143.588 984.297 143.421 984.364 143.225 984.364ZM148.408 985.455V986.307H145.016V985.455H148.408ZM146.004 983.886H147.01V990.125C147.01 990.409 147.051 990.622 147.134 990.764C147.219 990.903 147.327 990.997 147.457 991.045C147.591 991.091 147.732 991.114 147.879 991.114C147.99 991.114 148.081 991.108 148.152 991.097C148.223 991.082 148.28 991.071 148.322 991.062L148.527 991.966C148.459 991.991 148.364 992.017 148.241 992.043C148.119 992.071 147.964 992.085 147.777 992.085C147.493 992.085 147.214 992.024 146.942 991.902C146.672 991.78 146.447 991.594 146.268 991.344C146.092 991.094 146.004 990.778 146.004 990.398V983.886ZM150.568 994.455C150.398 994.455 150.246 994.44 150.112 994.412C149.979 994.386 149.886 994.361 149.835 994.335L150.091 993.449C150.335 993.511 150.551 993.534 150.739 993.517C150.926 993.5 151.092 993.416 151.237 993.266C151.385 993.118 151.52 992.878 151.642 992.545L151.83 992.034L149.409 985.455H150.5L152.307 990.67H152.375L154.182 985.455H155.273L152.494 992.955C152.369 993.293 152.214 993.572 152.03 993.794C151.845 994.018 151.631 994.185 151.386 994.293C151.145 994.401 150.872 994.455 150.568 994.455ZM159.11 992.136C158.479 992.136 157.935 991.997 157.478 991.719C157.023 991.438 156.673 991.045 156.425 990.543C156.181 990.037 156.059 989.449 156.059 988.778C156.059 988.108 156.181 987.517 156.425 987.006C156.673 986.491 157.016 986.091 157.457 985.804C157.9 985.514 158.417 985.369 159.008 985.369C159.349 985.369 159.685 985.426 160.018 985.54C160.35 985.653 160.653 985.838 160.925 986.094C161.198 986.347 161.415 986.682 161.577 987.099C161.739 987.517 161.82 988.031 161.82 988.642V989.068H156.775V988.199H160.798C160.798 987.83 160.724 987.5 160.576 987.21C160.431 986.92 160.224 986.692 159.954 986.524C159.687 986.357 159.371 986.273 159.008 986.273C158.607 986.273 158.261 986.372 157.968 986.571C157.678 986.767 157.455 987.023 157.299 987.338C157.143 987.653 157.065 987.991 157.065 988.352V988.932C157.065 989.426 157.15 989.845 157.32 990.189C157.494 990.53 157.734 990.79 158.04 990.969C158.347 991.145 158.704 991.233 159.11 991.233C159.374 991.233 159.613 991.196 159.826 991.122C160.042 991.045 160.228 990.932 160.384 990.781C160.54 990.628 160.661 990.437 160.746 990.21L161.718 990.483C161.616 990.812 161.444 991.102 161.202 991.352C160.961 991.599 160.663 991.793 160.308 991.932C159.952 992.068 159.553 992.136 159.11 992.136ZM166.009 992.136C165.396 992.136 164.867 991.991 164.424 991.702C163.981 991.412 163.64 991.013 163.401 990.504C163.163 989.996 163.043 989.415 163.043 988.761C163.043 988.097 163.165 987.51 163.41 987.001C163.657 986.49 164.001 986.091 164.441 985.804C164.884 985.514 165.401 985.369 165.992 985.369C166.452 985.369 166.867 985.455 167.237 985.625C167.606 985.795 167.908 986.034 168.144 986.341C168.38 986.648 168.526 987.006 168.583 987.415H167.577C167.501 987.116 167.33 986.852 167.066 986.622C166.805 986.389 166.452 986.273 166.009 986.273C165.617 986.273 165.273 986.375 164.978 986.58C164.685 986.781 164.457 987.067 164.292 987.436C164.13 987.803 164.049 988.233 164.049 988.727C164.049 989.233 164.129 989.673 164.288 990.048C164.45 990.423 164.677 990.714 164.969 990.922C165.265 991.129 165.612 991.233 166.009 991.233C166.271 991.233 166.508 991.188 166.721 991.097C166.934 991.006 167.114 990.875 167.262 990.705C167.41 990.534 167.515 990.33 167.577 990.091H168.583C168.526 990.477 168.386 990.825 168.161 991.135C167.94 991.442 167.646 991.686 167.279 991.868C166.915 992.047 166.492 992.136 166.009 992.136ZM172.712 992.136C172.121 992.136 171.603 991.996 171.157 991.714C170.714 991.433 170.367 991.04 170.117 990.534C169.87 990.028 169.746 989.437 169.746 988.761C169.746 988.08 169.87 987.484 170.117 986.976C170.367 986.467 170.714 986.072 171.157 985.791C171.603 985.51 172.121 985.369 172.712 985.369C173.303 985.369 173.82 985.51 174.263 985.791C174.71 986.072 175.056 986.467 175.303 986.976C175.553 987.484 175.678 988.08 175.678 988.761C175.678 989.437 175.553 990.028 175.303 990.534C175.056 991.04 174.71 991.433 174.263 991.714C173.82 991.996 173.303 992.136 172.712 992.136ZM172.712 991.233C173.161 991.233 173.531 991.118 173.82 990.888C174.11 990.658 174.325 990.355 174.464 989.98C174.603 989.605 174.673 989.199 174.673 988.761C174.673 988.324 174.603 987.916 174.464 987.538C174.325 987.161 174.11 986.855 173.82 986.622C173.531 986.389 173.161 986.273 172.712 986.273C172.263 986.273 171.894 986.389 171.604 986.622C171.315 986.855 171.1 987.161 170.961 987.538C170.822 987.916 170.752 988.324 170.752 988.761C170.752 989.199 170.822 989.605 170.961 989.98C171.1 990.355 171.315 990.658 171.604 990.888C171.894 991.118 172.263 991.233 172.712 991.233ZM178.219 988.062V992H177.213V985.455H178.185V986.477H178.27C178.424 986.145 178.657 985.878 178.969 985.676C179.282 985.472 179.685 985.369 180.179 985.369C180.623 985.369 181.01 985.46 181.343 985.642C181.675 985.821 181.934 986.094 182.118 986.46C182.303 986.824 182.395 987.284 182.395 987.841V992H181.39V987.909C181.39 987.395 181.256 986.994 180.989 986.707C180.722 986.418 180.355 986.273 179.89 986.273C179.569 986.273 179.282 986.342 179.029 986.482C178.779 986.621 178.581 986.824 178.436 987.091C178.292 987.358 178.219 987.682 178.219 988.062ZM186.892 992.136C186.301 992.136 185.783 991.996 185.337 991.714C184.893 991.433 184.547 991.04 184.297 990.534C184.05 990.028 183.926 989.437 183.926 988.761C183.926 988.08 184.05 987.484 184.297 986.976C184.547 986.467 184.893 986.072 185.337 985.791C185.783 985.51 186.301 985.369 186.892 985.369C187.483 985.369 188 985.51 188.443 985.791C188.889 986.072 189.236 986.467 189.483 986.976C189.733 987.484 189.858 988.08 189.858 988.761C189.858 989.437 189.733 990.028 189.483 990.534C189.236 991.04 188.889 991.433 188.443 991.714C188 991.996 187.483 992.136 186.892 992.136ZM186.892 991.233C187.341 991.233 187.71 991.118 188 990.888C188.29 990.658 188.504 990.355 188.643 989.98C188.783 989.605 188.852 989.199 188.852 988.761C188.852 988.324 188.783 987.916 188.643 987.538C188.504 987.161 188.29 986.855 188 986.622C187.71 986.389 187.341 986.273 186.892 986.273C186.443 986.273 186.074 986.389 185.784 986.622C185.494 986.855 185.28 987.161 185.141 987.538C185.001 987.916 184.932 988.324 184.932 988.761C184.932 989.199 185.001 989.605 185.141 989.98C185.28 990.355 185.494 990.658 185.784 990.888C186.074 991.118 186.443 991.233 186.892 991.233ZM191.393 992V985.455H192.365V986.477H192.45C192.586 986.128 192.806 985.857 193.11 985.663C193.414 985.467 193.779 985.369 194.206 985.369C194.637 985.369 194.997 985.467 195.284 985.663C195.574 985.857 195.799 986.128 195.961 986.477H196.029C196.197 986.139 196.449 985.871 196.784 985.672C197.119 985.47 197.521 985.369 197.99 985.369C198.575 985.369 199.054 985.553 199.426 985.919C199.798 986.283 199.984 986.849 199.984 987.619V992H198.978V987.619C198.978 987.136 198.846 986.791 198.582 986.584C198.318 986.376 198.007 986.273 197.649 986.273C197.189 986.273 196.832 986.412 196.579 986.69C196.326 986.966 196.2 987.315 196.2 987.739V992H195.177V987.517C195.177 987.145 195.056 986.845 194.815 986.618C194.574 986.388 194.262 986.273 193.882 986.273C193.62 986.273 193.376 986.342 193.149 986.482C192.924 986.621 192.743 986.814 192.603 987.061C192.467 987.305 192.399 987.588 192.399 987.909V992H191.393ZM201.823 992V985.455H202.828V992H201.823ZM202.334 984.364C202.138 984.364 201.969 984.297 201.827 984.163C201.688 984.03 201.618 983.869 201.618 983.682C201.618 983.494 201.688 983.334 201.827 983.2C201.969 983.067 202.138 983 202.334 983C202.53 983 202.698 983.067 202.837 983.2C202.979 983.334 203.05 983.494 203.05 983.682C203.05 983.869 202.979 984.03 202.837 984.163C202.698 984.297 202.53 984.364 202.334 984.364ZM207.33 992.136C206.716 992.136 206.188 991.991 205.744 991.702C205.301 991.412 204.96 991.013 204.722 990.504C204.483 989.996 204.364 989.415 204.364 988.761C204.364 988.097 204.486 987.51 204.73 987.001C204.977 986.49 205.321 986.091 205.761 985.804C206.205 985.514 206.722 985.369 207.312 985.369C207.773 985.369 208.188 985.455 208.557 985.625C208.926 985.795 209.229 986.034 209.464 986.341C209.7 986.648 209.847 987.006 209.903 987.415H208.898C208.821 987.116 208.651 986.852 208.386 986.622C208.125 986.389 207.773 986.273 207.33 986.273C206.938 986.273 206.594 986.375 206.298 986.58C206.006 986.781 205.777 987.067 205.612 987.436C205.45 987.803 205.369 988.233 205.369 988.727C205.369 989.233 205.449 989.673 205.608 990.048C205.77 990.423 205.997 990.714 206.29 990.922C206.585 991.129 206.932 991.233 207.33 991.233C207.591 991.233 207.828 991.188 208.041 991.097C208.254 991.006 208.435 990.875 208.582 990.705C208.73 990.534 208.835 990.33 208.898 990.091H209.903C209.847 990.477 209.706 990.825 209.482 991.135C209.26 991.442 208.966 991.686 208.599 991.868C208.236 992.047 207.813 992.136 207.33 992.136ZM216.01 986.92L215.107 987.176C215.05 987.026 214.966 986.879 214.855 986.737C214.747 986.592 214.599 986.473 214.412 986.379C214.224 986.286 213.984 986.239 213.692 986.239C213.291 986.239 212.957 986.331 212.69 986.516C212.426 986.697 212.294 986.929 212.294 987.21C212.294 987.46 212.385 987.658 212.567 987.803C212.749 987.947 213.033 988.068 213.419 988.165L214.391 988.403C214.976 988.545 215.412 988.763 215.699 989.055C215.986 989.345 216.129 989.719 216.129 990.176C216.129 990.551 216.021 990.886 215.805 991.182C215.592 991.477 215.294 991.71 214.911 991.881C214.527 992.051 214.081 992.136 213.572 992.136C212.905 992.136 212.352 991.991 211.915 991.702C211.477 991.412 211.2 990.989 211.084 990.432L212.038 990.193C212.129 990.545 212.301 990.81 212.554 990.986C212.81 991.162 213.143 991.25 213.555 991.25C214.024 991.25 214.396 991.151 214.672 990.952C214.95 990.75 215.089 990.509 215.089 990.227C215.089 990 215.01 989.81 214.851 989.656C214.692 989.5 214.447 989.384 214.118 989.307L213.027 989.051C212.428 988.909 211.987 988.689 211.706 988.391C211.428 988.089 211.288 987.713 211.288 987.261C211.288 986.892 211.392 986.565 211.599 986.281C211.81 985.997 212.095 985.774 212.456 985.612C212.82 985.45 213.232 985.369 213.692 985.369C214.339 985.369 214.848 985.511 215.217 985.795C215.589 986.08 215.854 986.455 216.01 986.92ZM218.376 992.068C218.166 992.068 217.985 991.993 217.835 991.842C217.684 991.692 217.609 991.511 217.609 991.301C217.609 991.091 217.684 990.911 217.835 990.76C217.985 990.609 218.166 990.534 218.376 990.534C218.586 990.534 218.767 990.609 218.917 990.76C219.068 990.911 219.143 991.091 219.143 991.301C219.143 991.44 219.108 991.568 219.037 991.685C218.968 991.801 218.876 991.895 218.76 991.966C218.646 992.034 218.518 992.068 218.376 992.068ZM222.874 992.153C222.459 992.153 222.083 992.075 221.745 991.919C221.407 991.76 221.138 991.531 220.939 991.233C220.74 990.932 220.641 990.568 220.641 990.142C220.641 989.767 220.715 989.463 220.863 989.23C221.01 988.994 221.208 988.81 221.455 988.676C221.702 988.543 221.975 988.443 222.273 988.378C222.574 988.31 222.877 988.256 223.181 988.216C223.578 988.165 223.901 988.126 224.148 988.101C224.398 988.072 224.58 988.026 224.694 987.96C224.81 987.895 224.868 987.781 224.868 987.619V987.585C224.868 987.165 224.753 986.838 224.523 986.605C224.296 986.372 223.951 986.256 223.488 986.256C223.007 986.256 222.631 986.361 222.358 986.571C222.086 986.781 221.894 987.006 221.783 987.244L220.828 986.903C220.999 986.506 221.226 986.196 221.51 985.974C221.797 985.75 222.11 985.594 222.448 985.506C222.789 985.415 223.124 985.369 223.453 985.369C223.664 985.369 223.905 985.395 224.178 985.446C224.453 985.494 224.719 985.595 224.975 985.749C225.233 985.902 225.448 986.134 225.618 986.443C225.789 986.753 225.874 987.168 225.874 987.688V992H224.868V991.114H224.817C224.749 991.256 224.635 991.408 224.476 991.57C224.317 991.732 224.105 991.869 223.841 991.983C223.577 992.097 223.255 992.153 222.874 992.153ZM223.027 991.25C223.425 991.25 223.76 991.172 224.033 991.016C224.309 990.859 224.516 990.658 224.655 990.411C224.797 990.163 224.868 989.903 224.868 989.631V988.71C224.826 988.761 224.732 988.808 224.587 988.851C224.445 988.891 224.28 988.926 224.093 988.957C223.908 988.986 223.728 989.011 223.551 989.034C223.378 989.054 223.238 989.071 223.13 989.085C222.868 989.119 222.624 989.175 222.397 989.251C222.172 989.325 221.99 989.437 221.851 989.588C221.715 989.736 221.647 989.937 221.647 990.193C221.647 990.543 221.776 990.807 222.034 990.986C222.296 991.162 222.627 991.25 223.027 991.25ZM227.71 992V985.455H228.715V992H227.71ZM228.221 984.364C228.025 984.364 227.856 984.297 227.714 984.163C227.575 984.03 227.505 983.869 227.505 983.682C227.505 983.494 227.575 983.334 227.714 983.2C227.856 983.067 228.025 983 228.221 983C228.417 983 228.585 983.067 228.724 983.2C228.866 983.334 228.937 983.494 228.937 983.682C228.937 983.869 228.866 984.03 228.724 984.163C228.585 984.297 228.417 984.364 228.221 984.364Z" fill="white"/>
<path d="M1737.06 992V983.273H1738.11V991.062H1742.17V992H1737.06ZM1746.33 992.136C1745.74 992.136 1745.22 991.996 1744.77 991.714C1744.33 991.433 1743.98 991.04 1743.73 990.534C1743.49 990.028 1743.36 989.437 1743.36 988.761C1743.36 988.08 1743.49 987.484 1743.73 986.976C1743.98 986.467 1744.33 986.072 1744.77 985.791C1745.22 985.51 1745.74 985.369 1746.33 985.369C1746.92 985.369 1747.44 985.51 1747.88 985.791C1748.33 986.072 1748.67 986.467 1748.92 986.976C1749.17 987.484 1749.3 988.08 1749.3 988.761C1749.3 989.437 1749.17 990.028 1748.92 990.534C1748.67 991.04 1748.33 991.433 1747.88 991.714C1747.44 991.996 1746.92 992.136 1746.33 992.136ZM1746.33 991.233C1746.78 991.233 1747.15 991.118 1747.44 990.888C1747.73 990.658 1747.94 990.355 1748.08 989.98C1748.22 989.605 1748.29 989.199 1748.29 988.761C1748.29 988.324 1748.22 987.916 1748.08 987.538C1747.94 987.161 1747.73 986.855 1747.44 986.622C1747.15 986.389 1746.78 986.273 1746.33 986.273C1745.88 986.273 1745.51 986.389 1745.22 986.622C1744.93 986.855 1744.72 987.161 1744.58 987.538C1744.44 987.916 1744.37 988.324 1744.37 988.761C1744.37 989.199 1744.44 989.605 1744.58 989.98C1744.72 990.355 1744.93 990.658 1745.22 990.888C1745.51 991.118 1745.88 991.233 1746.33 991.233ZM1753.47 994.591C1752.99 994.591 1752.57 994.528 1752.22 994.403C1751.87 994.281 1751.58 994.119 1751.35 993.918C1751.12 993.719 1750.93 993.506 1750.8 993.278L1751.6 992.716C1751.69 992.835 1751.8 992.972 1751.94 993.125C1752.08 993.281 1752.27 993.416 1752.51 993.53C1752.76 993.646 1753.08 993.705 1753.47 993.705C1754 993.705 1754.44 993.577 1754.78 993.321C1755.12 993.065 1755.3 992.665 1755.3 992.119V990.79H1755.21C1755.14 990.909 1755.03 991.057 1754.9 991.233C1754.76 991.406 1754.57 991.561 1754.32 991.697C1754.07 991.831 1753.73 991.898 1753.3 991.898C1752.77 991.898 1752.3 991.773 1751.88 991.523C1751.46 991.273 1751.13 990.909 1750.89 990.432C1750.64 989.955 1750.52 989.375 1750.52 988.693C1750.52 988.023 1750.64 987.439 1750.88 986.942C1751.11 986.442 1751.44 986.055 1751.86 985.783C1752.28 985.507 1752.77 985.369 1753.32 985.369C1753.75 985.369 1754.08 985.44 1754.33 985.582C1754.59 985.722 1754.78 985.881 1754.91 986.06C1755.05 986.236 1755.15 986.381 1755.23 986.494H1755.33V985.455H1756.3V992.188C1756.3 992.75 1756.17 993.207 1755.92 993.56C1755.67 993.915 1755.32 994.175 1754.9 994.339C1754.47 994.507 1754 994.591 1753.47 994.591ZM1753.44 990.994C1753.84 990.994 1754.18 990.902 1754.46 990.717C1754.74 990.533 1754.95 990.267 1755.1 989.92C1755.24 989.574 1755.31 989.159 1755.31 988.676C1755.31 988.205 1755.24 987.788 1755.1 987.428C1754.96 987.067 1754.75 986.784 1754.47 986.58C1754.19 986.375 1753.85 986.273 1753.44 986.273C1753.01 986.273 1752.66 986.381 1752.37 986.597C1752.09 986.812 1751.88 987.102 1751.74 987.466C1751.6 987.83 1751.53 988.233 1751.53 988.676C1751.53 989.131 1751.6 989.533 1751.74 989.882C1751.89 990.229 1752.1 990.501 1752.38 990.7C1752.67 990.896 1753.02 990.994 1753.44 990.994ZM1760.8 992.136C1760.21 992.136 1759.69 991.996 1759.25 991.714C1758.8 991.433 1758.46 991.04 1758.21 990.534C1757.96 990.028 1757.84 989.437 1757.84 988.761C1757.84 988.08 1757.96 987.484 1758.21 986.976C1758.46 986.467 1758.8 986.072 1759.25 985.791C1759.69 985.51 1760.21 985.369 1760.8 985.369C1761.39 985.369 1761.91 985.51 1762.35 985.791C1762.8 986.072 1763.15 986.467 1763.39 986.976C1763.64 987.484 1763.77 988.08 1763.77 988.761C1763.77 989.437 1763.64 990.028 1763.39 990.534C1763.15 991.04 1762.8 991.433 1762.35 991.714C1761.91 991.996 1761.39 992.136 1760.8 992.136ZM1760.8 991.233C1761.25 991.233 1761.62 991.118 1761.91 990.888C1762.2 990.658 1762.41 990.355 1762.55 989.98C1762.69 989.605 1762.76 989.199 1762.76 988.761C1762.76 988.324 1762.69 987.916 1762.55 987.538C1762.41 987.161 1762.2 986.855 1761.91 986.622C1761.62 986.389 1761.25 986.273 1760.8 986.273C1760.35 986.273 1759.98 986.389 1759.69 986.622C1759.4 986.855 1759.19 987.161 1759.05 987.538C1758.91 987.916 1758.84 988.324 1758.84 988.761C1758.84 989.199 1758.91 989.605 1759.05 989.98C1759.19 990.355 1759.4 990.658 1759.69 990.888C1759.98 991.118 1760.35 991.233 1760.8 991.233ZM1768.68 994.455V985.455H1769.65V986.494H1769.77C1769.84 986.381 1769.95 986.236 1770.08 986.06C1770.21 985.881 1770.4 985.722 1770.65 985.582C1770.9 985.44 1771.24 985.369 1771.66 985.369C1772.21 985.369 1772.7 985.507 1773.12 985.783C1773.54 986.058 1773.87 986.449 1774.1 986.955C1774.34 987.46 1774.46 988.057 1774.46 988.744C1774.46 989.438 1774.34 990.038 1774.1 990.547C1773.87 991.053 1773.54 991.445 1773.12 991.723C1772.71 991.999 1772.22 992.136 1771.68 992.136C1771.26 992.136 1770.92 992.067 1770.67 991.928C1770.42 991.786 1770.22 991.625 1770.08 991.446C1769.95 991.264 1769.84 991.114 1769.77 990.994H1769.68V994.455H1768.68ZM1769.67 988.727C1769.67 989.222 1769.74 989.658 1769.88 990.036C1770.03 990.411 1770.24 990.705 1770.52 990.918C1770.8 991.128 1771.14 991.233 1771.54 991.233C1771.96 991.233 1772.31 991.122 1772.59 990.901C1772.88 990.676 1773.09 990.375 1773.23 989.997C1773.38 989.616 1773.45 989.193 1773.45 988.727C1773.45 988.267 1773.38 987.852 1773.24 987.483C1773.1 987.111 1772.89 986.817 1772.6 986.601C1772.32 986.382 1771.97 986.273 1771.54 986.273C1771.13 986.273 1770.79 986.376 1770.51 986.584C1770.23 986.788 1770.02 987.075 1769.88 987.445C1769.74 987.811 1769.67 988.239 1769.67 988.727ZM1775.99 992V985.455H1776.96V986.443H1777.03C1777.15 986.119 1777.37 985.857 1777.68 985.655C1777.99 985.453 1778.34 985.352 1778.74 985.352C1778.81 985.352 1778.9 985.354 1779.01 985.357C1779.12 985.359 1779.21 985.364 1779.26 985.369V986.392C1779.23 986.384 1779.15 986.371 1779.03 986.354C1778.91 986.334 1778.78 986.324 1778.65 986.324C1778.33 986.324 1778.05 986.391 1777.8 986.524C1777.55 986.655 1777.35 986.837 1777.21 987.07C1777.07 987.3 1777 987.562 1777 987.858V992H1775.99ZM1783 992.136C1782.37 992.136 1781.83 991.997 1781.37 991.719C1780.91 991.438 1780.56 991.045 1780.32 990.543C1780.07 990.037 1779.95 989.449 1779.95 988.778C1779.95 988.108 1780.07 987.517 1780.32 987.006C1780.56 986.491 1780.91 986.091 1781.35 985.804C1781.79 985.514 1782.31 985.369 1782.9 985.369C1783.24 985.369 1783.58 985.426 1783.91 985.54C1784.24 985.653 1784.54 985.838 1784.82 986.094C1785.09 986.347 1785.31 986.682 1785.47 987.099C1785.63 987.517 1785.71 988.031 1785.71 988.642V989.068H1780.67V988.199H1784.69C1784.69 987.83 1784.61 987.5 1784.47 987.21C1784.32 986.92 1784.11 986.692 1783.84 986.524C1783.58 986.357 1783.26 986.273 1782.9 986.273C1782.5 986.273 1782.15 986.372 1781.86 986.571C1781.57 986.767 1781.35 987.023 1781.19 987.338C1781.03 987.653 1780.96 987.991 1780.96 988.352V988.932C1780.96 989.426 1781.04 989.845 1781.21 990.189C1781.38 990.53 1781.62 990.79 1781.93 990.969C1782.24 991.145 1782.59 991.233 1783 991.233C1783.26 991.233 1783.5 991.196 1783.72 991.122C1783.93 991.045 1784.12 990.932 1784.27 990.781C1784.43 990.628 1784.55 990.437 1784.64 990.21L1785.61 990.483C1785.51 990.812 1785.33 991.102 1785.09 991.352C1784.85 991.599 1784.55 991.793 1784.2 991.932C1783.84 992.068 1783.44 992.136 1783 992.136ZM1791.88 986.92L1790.97 987.176C1790.92 987.026 1790.83 986.879 1790.72 986.737C1790.61 986.592 1790.47 986.473 1790.28 986.379C1790.09 986.286 1789.85 986.239 1789.56 986.239C1789.16 986.239 1788.82 986.331 1788.56 986.516C1788.29 986.697 1788.16 986.929 1788.16 987.21C1788.16 987.46 1788.25 987.658 1788.43 987.803C1788.62 987.947 1788.9 988.068 1789.29 988.165L1790.26 988.403C1790.84 988.545 1791.28 988.763 1791.57 989.055C1791.85 989.345 1792 989.719 1792 990.176C1792 990.551 1791.89 990.886 1791.67 991.182C1791.46 991.477 1791.16 991.71 1790.78 991.881C1790.39 992.051 1789.95 992.136 1789.44 992.136C1788.77 992.136 1788.22 991.991 1787.78 991.702C1787.34 991.412 1787.07 990.989 1786.95 990.432L1787.91 990.193C1788 990.545 1788.17 990.81 1788.42 990.986C1788.68 991.162 1789.01 991.25 1789.42 991.25C1789.89 991.25 1790.26 991.151 1790.54 990.952C1790.82 990.75 1790.96 990.509 1790.96 990.227C1790.96 990 1790.88 989.81 1790.72 989.656C1790.56 989.5 1790.31 989.384 1789.99 989.307L1788.89 989.051C1788.29 988.909 1787.85 988.689 1787.57 988.391C1787.29 988.089 1787.16 987.713 1787.16 987.261C1787.16 986.892 1787.26 986.565 1787.47 986.281C1787.68 985.997 1787.96 985.774 1788.32 985.612C1788.69 985.45 1789.1 985.369 1789.56 985.369C1790.21 985.369 1790.72 985.511 1791.08 985.795C1791.46 986.08 1791.72 986.455 1791.88 986.92ZM1796.25 992.136C1795.62 992.136 1795.08 991.997 1794.62 991.719C1794.17 991.438 1793.82 991.045 1793.57 990.543C1793.33 990.037 1793.2 989.449 1793.2 988.778C1793.2 988.108 1793.33 987.517 1793.57 987.006C1793.82 986.491 1794.16 986.091 1794.6 985.804C1795.04 985.514 1795.56 985.369 1796.15 985.369C1796.49 985.369 1796.83 985.426 1797.16 985.54C1797.49 985.653 1797.8 985.838 1798.07 986.094C1798.34 986.347 1798.56 986.682 1798.72 987.099C1798.88 987.517 1798.96 988.031 1798.96 988.642V989.068H1793.92V988.199H1797.94C1797.94 987.83 1797.87 987.5 1797.72 987.21C1797.58 986.92 1797.37 986.692 1797.1 986.524C1796.83 986.357 1796.52 986.273 1796.15 986.273C1795.75 986.273 1795.41 986.372 1795.11 986.571C1794.82 986.767 1794.6 987.023 1794.44 987.338C1794.29 987.653 1794.21 987.991 1794.21 988.352V988.932C1794.21 989.426 1794.29 989.845 1794.46 990.189C1794.64 990.53 1794.88 990.79 1795.19 990.969C1795.49 991.145 1795.85 991.233 1796.25 991.233C1796.52 991.233 1796.76 991.196 1796.97 991.122C1797.19 991.045 1797.37 990.932 1797.53 990.781C1797.69 990.628 1797.81 990.437 1797.89 990.21L1798.86 990.483C1798.76 990.812 1798.59 991.102 1798.35 991.352C1798.11 991.599 1797.81 991.793 1797.45 991.932C1797.1 992.068 1796.7 992.136 1796.25 992.136ZM1801.5 988.062V992H1800.49V985.455H1801.47V986.477H1801.55C1801.7 986.145 1801.94 985.878 1802.25 985.676C1802.56 985.472 1802.97 985.369 1803.46 985.369C1803.9 985.369 1804.29 985.46 1804.62 985.642C1804.96 985.821 1805.21 986.094 1805.4 986.46C1805.58 986.824 1805.68 987.284 1805.68 987.841V992H1804.67V987.909C1804.67 987.395 1804.54 986.994 1804.27 986.707C1804 986.418 1803.64 986.273 1803.17 986.273C1802.85 986.273 1802.56 986.342 1802.31 986.482C1802.06 986.621 1801.86 986.824 1801.72 987.091C1801.57 987.358 1801.5 987.682 1801.5 988.062ZM1810.36 985.455V986.307H1806.97V985.455H1810.36ZM1807.96 983.886H1808.96V990.125C1808.96 990.409 1809 990.622 1809.09 990.764C1809.17 990.903 1809.28 990.997 1809.41 991.045C1809.54 991.091 1809.68 991.114 1809.83 991.114C1809.94 991.114 1810.03 991.108 1810.11 991.097C1810.18 991.082 1810.23 991.071 1810.28 991.062L1810.48 991.966C1810.41 991.991 1810.32 992.017 1810.19 992.043C1810.07 992.071 1809.92 992.085 1809.73 992.085C1809.45 992.085 1809.17 992.024 1808.89 991.902C1808.63 991.78 1808.4 991.594 1808.22 991.344C1808.05 991.094 1807.96 990.778 1807.96 990.398V983.886ZM1813.8 992.153C1813.38 992.153 1813.01 992.075 1812.67 991.919C1812.33 991.76 1812.06 991.531 1811.87 991.233C1811.67 990.932 1811.57 990.568 1811.57 990.142C1811.57 989.767 1811.64 989.463 1811.79 989.23C1811.94 988.994 1812.13 988.81 1812.38 988.676C1812.63 988.543 1812.9 988.443 1813.2 988.378C1813.5 988.31 1813.8 988.256 1814.11 988.216C1814.5 988.165 1814.83 988.126 1815.07 988.101C1815.32 988.072 1815.51 988.026 1815.62 987.96C1815.74 987.895 1815.79 987.781 1815.79 987.619V987.585C1815.79 987.165 1815.68 986.838 1815.45 986.605C1815.22 986.372 1814.88 986.256 1814.41 986.256C1813.93 986.256 1813.56 986.361 1813.28 986.571C1813.01 986.781 1812.82 987.006 1812.71 987.244L1811.75 986.903C1811.92 986.506 1812.15 986.196 1812.44 985.974C1812.72 985.75 1813.04 985.594 1813.37 985.506C1813.71 985.415 1814.05 985.369 1814.38 985.369C1814.59 985.369 1814.83 985.395 1815.1 985.446C1815.38 985.494 1815.64 985.595 1815.9 985.749C1816.16 985.902 1816.37 986.134 1816.54 986.443C1816.71 986.753 1816.8 987.168 1816.8 987.688V992H1815.79V991.114H1815.74C1815.67 991.256 1815.56 991.408 1815.4 991.57C1815.24 991.732 1815.03 991.869 1814.77 991.983C1814.5 992.097 1814.18 992.153 1813.8 992.153ZM1813.95 991.25C1814.35 991.25 1814.69 991.172 1814.96 991.016C1815.23 990.859 1815.44 990.658 1815.58 990.411C1815.72 990.163 1815.79 989.903 1815.79 989.631V988.71C1815.75 988.761 1815.66 988.808 1815.51 988.851C1815.37 988.891 1815.21 988.926 1815.02 988.957C1814.83 988.986 1814.65 989.011 1814.48 989.034C1814.3 989.054 1814.16 989.071 1814.06 989.085C1813.79 989.119 1813.55 989.175 1813.32 989.251C1813.1 989.325 1812.92 989.437 1812.78 989.588C1812.64 989.736 1812.57 989.937 1812.57 990.193C1812.57 990.543 1812.7 990.807 1812.96 990.986C1813.22 991.162 1813.55 991.25 1813.95 991.25ZM1821.48 985.455V986.307H1818.09V985.455H1821.48ZM1819.08 983.886H1820.08V990.125C1820.08 990.409 1820.13 990.622 1820.21 990.764C1820.29 990.903 1820.4 990.997 1820.53 991.045C1820.67 991.091 1820.81 991.114 1820.95 991.114C1821.06 991.114 1821.16 991.108 1821.23 991.097C1821.3 991.082 1821.35 991.071 1821.4 991.062L1821.6 991.966C1821.53 991.991 1821.44 992.017 1821.32 992.043C1821.19 992.071 1821.04 992.085 1820.85 992.085C1820.57 992.085 1820.29 992.024 1820.02 991.902C1819.75 991.78 1819.52 991.594 1819.34 991.344C1819.17 991.094 1819.08 990.778 1819.08 990.398V983.886ZM1822.99 992V985.455H1824V992H1822.99ZM1823.51 984.364C1823.31 984.364 1823.14 984.297 1823 984.163C1822.86 984.03 1822.79 983.869 1822.79 983.682C1822.79 983.494 1822.86 983.334 1823 983.2C1823.14 983.067 1823.31 983 1823.51 983C1823.7 983 1823.87 983.067 1824.01 983.2C1824.15 983.334 1824.22 983.494 1824.22 983.682C1824.22 983.869 1824.15 984.03 1824.01 984.163C1823.87 984.297 1823.7 984.364 1823.51 984.364ZM1828.5 992.136C1827.91 992.136 1827.39 991.996 1826.95 991.714C1826.5 991.433 1826.16 991.04 1825.91 990.534C1825.66 990.028 1825.54 989.437 1825.54 988.761C1825.54 988.08 1825.66 987.484 1825.91 986.976C1826.16 986.467 1826.5 986.072 1826.95 985.791C1827.39 985.51 1827.91 985.369 1828.5 985.369C1829.09 985.369 1829.61 985.51 1830.05 985.791C1830.5 986.072 1830.85 986.467 1831.09 986.976C1831.34 987.484 1831.47 988.08 1831.47 988.761C1831.47 989.437 1831.34 990.028 1831.09 990.534C1830.85 991.04 1830.5 991.433 1830.05 991.714C1829.61 991.996 1829.09 992.136 1828.5 992.136ZM1828.5 991.233C1828.95 991.233 1829.32 991.118 1829.61 990.888C1829.9 990.658 1830.11 990.355 1830.25 989.98C1830.39 989.605 1830.46 989.199 1830.46 988.761C1830.46 988.324 1830.39 987.916 1830.25 987.538C1830.11 987.161 1829.9 986.855 1829.61 986.622C1829.32 986.389 1828.95 986.273 1828.5 986.273C1828.05 986.273 1827.68 986.389 1827.39 986.622C1827.1 986.855 1826.89 987.161 1826.75 987.538C1826.61 987.916 1826.54 988.324 1826.54 988.761C1826.54 989.199 1826.61 989.605 1826.75 989.98C1826.89 990.355 1827.1 990.658 1827.39 990.888C1827.68 991.118 1828.05 991.233 1828.5 991.233ZM1834.01 988.062V992H1833V985.455H1833.97V986.477H1834.06C1834.21 986.145 1834.45 985.878 1834.76 985.676C1835.07 985.472 1835.47 985.369 1835.97 985.369C1836.41 985.369 1836.8 985.46 1837.13 985.642C1837.46 985.821 1837.72 986.094 1837.91 986.46C1838.09 986.824 1838.18 987.284 1838.18 987.841V992H1837.18V987.909C1837.18 987.395 1837.05 986.994 1836.78 986.707C1836.51 986.418 1836.14 986.273 1835.68 986.273C1835.36 986.273 1835.07 986.342 1834.82 986.482C1834.57 986.621 1834.37 986.824 1834.23 987.091C1834.08 987.358 1834.01 987.682 1834.01 988.062Z" fill="white"/>
<path fill-rule="evenodd" clip-rule="evenodd" d="M868.65 394C885.989 394 912.505 399.204 933.667 416.352C943.385 424.228 951.343 434.081 956.891 444.092C958.203 446.46 959.392 448.858 960.442 451.262C961.493 448.858 962.682 446.46 963.994 444.092C969.542 434.081 977.5 424.228 987.218 416.352C1008.38 399.204 1034.9 394 1052.23 394H1055.72L1057.18 397.162C1059.74 402.752 1060.14 410.613 1059.87 417.513C1059.6 424.672 1058.56 431.875 1057.56 436.807C1054.11 453.875 1043.15 476.104 1018.89 484.575C1018 484.885 1017.11 485.176 1016.22 485.451C1023.98 490.589 1030 498.758 1031.19 509.961C1033.01 527.008 1022.07 544.554 1001.19 546.818C988.799 548.162 979.659 541.831 973.63 535.332C970.239 531.676 967.512 527.572 965.62 524.457C964.064 521.897 964.929 518.472 967.457 516.858C969.985 515.244 973.257 516.033 974.788 518.608C976.45 521.402 978.618 524.746 981.608 527.97C986.43 533.169 992.417 536.865 1000.02 536.041C1014.28 534.495 1021.64 522.89 1020.38 511.108C1018.93 497.482 1006.48 489.757 994.629 489.757C986.821 489.757 982.109 490.947 978.723 492.781C975.371 494.597 972.755 497.34 969.616 501.636L959.109 518.664L959.158 518.696C958.123 520.309 954.091 528.19 948.068 534.765C947.761 535.1 947.446 535.435 947.122 535.77C945.375 537.711 943.434 539.587 941.488 540.881L941.417 540.775C935.822 544.857 928.72 547.75 920.119 546.818C899.24 544.555 888.305 527.008 890.123 509.961C891.311 498.824 897.265 490.684 904.954 485.541C903.972 485.24 902.986 484.92 901.997 484.575C877.731 476.104 866.773 453.875 863.323 436.807C862.326 431.875 861.286 424.672 861.013 417.513C860.749 410.613 861.141 402.752 863.71 397.162L865.163 394H868.65ZM1048.31 404.937C1032.8 405.678 1011.26 410.839 994.072 424.766C985.498 431.713 978.421 440.469 973.507 449.337C969.821 455.987 967.468 462.485 966.506 468.155C965.993 471.178 963.517 473.677 960.442 473.677C957.368 473.677 954.892 471.178 954.379 468.155C953.417 462.485 951.064 455.987 947.378 449.337C942.464 440.469 935.386 431.713 926.813 424.766C909.628 410.839 888.087 405.678 872.58 404.937C871.921 408.082 871.69 412.302 871.874 417.1C872.122 423.583 873.075 430.201 873.977 434.664C877.028 449.756 886.379 467.637 905.588 474.343C920.811 479.657 936.119 477.652 942.92 480.513C943.956 480.817 944.945 481.174 945.897 481.594C949.323 483.107 951.986 485.312 954.546 487.968C956.626 490.126 956.328 493.587 954.052 495.539C951.776 497.49 948.395 497.182 946.286 495.053C944.481 493.231 943.103 492.215 941.497 491.506C938.856 490.34 934.993 489.757 926.685 489.757C914.83 489.757 902.385 497.482 900.931 511.108C899.675 522.89 907.031 534.495 921.294 536.041C928.374 536.809 934.249 533.424 939.147 528.402C939.772 527.702 940.424 526.93 941.087 526.101C943.155 523.517 944.985 520.842 946.006 519.218L960.474 495.769L960.582 495.594L960.703 495.427C964.215 490.599 968.007 486.25 973.536 483.255C974.932 482.498 976.403 481.847 977.965 481.297C985.753 478.55 1000.07 479.657 1015.3 474.343C1034.51 467.637 1043.86 449.756 1046.91 434.664C1047.81 430.201 1048.76 423.583 1049.01 417.1C1049.19 412.302 1048.96 408.082 1048.31 404.937Z" fill="url(#paint8_linear_5_257)"/>
<path d="M618.697 627.701C615.999 627.701 613.559 627.23 611.378 626.289C609.234 625.347 607.534 623.99 606.277 622.22C605.02 620.449 604.373 618.358 604.336 615.947H612.653C612.764 617.567 613.319 618.848 614.317 619.79C615.352 620.732 616.756 621.202 618.531 621.202C620.342 621.202 621.765 620.769 622.8 619.903C623.835 618.998 624.352 617.831 624.352 616.399C624.352 615.231 624.001 614.27 623.299 613.517C622.597 612.763 621.709 612.179 620.638 611.765C619.603 611.313 618.161 610.823 616.313 610.296C613.799 609.542 611.748 608.807 610.158 608.092C608.606 607.338 607.256 606.227 606.111 604.757C605.002 603.25 604.447 601.254 604.447 598.767C604.447 596.431 605.02 594.397 606.166 592.664C607.312 590.931 608.92 589.612 610.99 588.708C613.06 587.766 615.426 587.295 618.087 587.295C622.079 587.295 625.314 588.293 627.79 590.29C630.304 592.249 631.69 594.999 631.949 598.541H623.41C623.336 597.185 622.763 596.073 621.691 595.207C620.656 594.303 619.27 593.85 617.533 593.85C616.017 593.85 614.797 594.246 613.873 595.037C612.986 595.828 612.542 596.977 612.542 598.484C612.542 599.539 612.875 600.425 613.54 601.141C614.243 601.819 615.093 602.384 616.091 602.836C617.126 603.25 618.568 603.74 620.416 604.305C622.929 605.059 624.981 605.812 626.57 606.566C628.16 607.319 629.527 608.449 630.673 609.956C631.819 611.463 632.392 613.441 632.392 615.89C632.392 618 631.856 619.959 630.784 621.768C629.712 623.576 628.141 625.026 626.071 626.119C624.001 627.174 621.543 627.701 618.697 627.701Z" fill="white"/>
<path d="M668.564 595.998V627.306H660.746V623.35C659.748 624.706 658.436 625.78 656.809 626.571C655.22 627.325 653.483 627.701 651.597 627.701C649.195 627.701 647.069 627.193 645.221 626.176C643.373 625.121 641.913 623.595 640.841 621.598C639.806 619.564 639.288 617.152 639.288 614.364V595.998H647.051V613.234C647.051 615.721 647.661 617.642 648.881 618.998C650.1 620.317 651.764 620.976 653.871 620.976C656.015 620.976 657.697 620.317 658.916 618.998C660.136 617.642 660.746 615.721 660.746 613.234V595.998H668.564Z" fill="white"/>
<path d="M688.421 627.814C685.908 627.814 683.653 627.362 681.657 626.458C679.661 625.516 678.071 624.254 676.888 622.672C675.743 621.089 675.114 619.338 675.003 617.416H682.821C682.969 618.622 683.542 619.62 684.54 620.411C685.575 621.202 686.85 621.598 688.366 621.598C689.844 621.598 690.99 621.297 691.804 620.694C692.654 620.091 693.079 619.319 693.079 618.377C693.079 617.36 692.561 616.606 691.526 616.116C690.528 615.589 688.92 615.024 686.702 614.421C684.411 613.856 682.525 613.272 681.047 612.669C679.605 612.066 678.349 611.143 677.277 609.9C676.242 608.657 675.724 606.98 675.724 604.87C675.724 603.137 676.205 601.555 677.166 600.123C678.164 598.692 679.568 597.561 681.38 596.733C683.228 595.904 685.39 595.489 687.867 595.489C691.526 595.489 694.446 596.431 696.627 598.315C698.808 600.161 700.01 602.666 700.231 605.831H692.802C692.691 604.588 692.173 603.608 691.249 602.892C690.362 602.139 689.161 601.762 687.645 601.762C686.24 601.762 685.15 602.026 684.374 602.553C683.634 603.081 683.265 603.815 683.265 604.757C683.265 605.812 683.782 606.622 684.817 607.187C685.852 607.715 687.46 608.261 689.641 608.826C691.859 609.391 693.689 609.975 695.13 610.578C696.572 611.181 697.81 612.123 698.845 613.404C699.917 614.647 700.472 616.305 700.509 618.377C700.509 620.185 700.01 621.805 699.012 623.237C698.05 624.669 696.646 625.799 694.798 626.628C692.986 627.419 690.861 627.814 688.421 627.814Z" fill="white"/>
<path d="M716.362 602.497V617.642C716.362 618.697 716.602 619.469 717.083 619.959C717.6 620.411 718.45 620.637 719.633 620.637H723.237V627.306H718.358C711.815 627.306 708.544 624.066 708.544 617.586V602.497H704.885V595.998H708.544V588.256H716.362V595.998H723.237V602.497H716.362Z" fill="white"/>
<path d="M727.268 611.539C727.268 608.374 727.878 605.567 729.098 603.118C730.355 600.67 732.036 598.786 734.143 597.467C736.287 596.149 738.672 595.489 741.296 595.489C743.588 595.489 745.584 595.96 747.284 596.902C749.022 597.844 750.408 599.031 751.443 600.462V595.998H759.261V627.306H751.443V622.728C750.445 624.198 749.058 625.422 747.284 626.402C745.547 627.343 743.532 627.814 741.241 627.814C738.653 627.814 736.287 627.136 734.143 625.78C732.036 624.424 730.355 622.521 729.098 620.072C727.878 617.586 727.268 614.741 727.268 611.539ZM751.443 611.652C751.443 609.73 751.073 608.092 750.334 606.735C749.594 605.341 748.596 604.286 747.34 603.571C746.083 602.817 744.734 602.44 743.292 602.44C741.85 602.44 740.52 602.798 739.3 603.514C738.08 604.23 737.082 605.285 736.306 606.679C735.567 608.035 735.197 609.655 735.197 611.539C735.197 613.423 735.567 615.08 736.306 616.512C737.082 617.906 738.08 618.98 739.3 619.733C740.557 620.487 741.887 620.863 743.292 620.863C744.734 620.863 746.083 620.505 747.34 619.79C748.596 619.036 749.594 617.981 750.334 616.625C751.073 615.231 751.443 613.573 751.443 611.652Z" fill="white"/>
<path d="M771.222 592.268C769.855 592.268 768.709 591.835 767.785 590.968C766.898 590.064 766.454 588.953 766.454 587.634C766.454 586.315 766.898 585.223 767.785 584.356C768.709 583.452 769.855 583 771.222 583C772.59 583 773.717 583.452 774.605 584.356C775.529 585.223 775.991 586.315 775.991 587.634C775.991 588.953 775.529 590.064 774.605 590.968C773.717 591.835 772.59 592.268 771.222 592.268ZM775.048 595.998V627.306H767.286V595.998H775.048Z" fill="white"/>
<path d="M800.183 595.546C803.843 595.546 806.8 596.733 809.055 599.106C811.309 601.442 812.437 604.72 812.437 608.939V627.306H804.674V610.013C804.674 607.526 804.064 605.624 802.845 604.305C801.625 602.949 799.961 602.271 797.854 602.271C795.71 602.271 794.01 602.949 792.753 604.305C791.534 605.624 790.924 607.526 790.924 610.013V627.306H783.161V595.998H790.924V599.897C791.959 598.541 793.271 597.486 794.86 596.733C796.487 595.941 798.261 595.546 800.183 595.546Z" fill="white"/>
<path d="M818.266 611.539C818.266 608.374 818.876 605.567 820.096 603.118C821.353 600.67 823.035 598.786 825.141 597.467C827.285 596.149 829.67 595.489 832.294 595.489C834.586 595.489 836.582 595.96 838.282 596.902C840.02 597.844 841.406 599.031 842.441 600.462V595.998H850.259V627.306H842.441V622.728C841.443 624.198 840.057 625.422 838.282 626.402C836.545 627.343 834.53 627.814 832.239 627.814C829.651 627.814 827.285 627.136 825.141 625.78C823.035 624.424 821.353 622.521 820.096 620.072C818.876 617.586 818.266 614.741 818.266 611.539ZM842.441 611.652C842.441 609.73 842.071 608.092 841.332 606.735C840.593 605.341 839.595 604.286 838.338 603.571C837.081 602.817 835.732 602.44 834.29 602.44C832.849 602.44 831.518 602.798 830.298 603.514C829.078 604.23 828.08 605.285 827.304 606.679C826.565 608.035 826.195 609.655 826.195 611.539C826.195 613.423 826.565 615.08 827.304 616.512C828.08 617.906 829.078 618.98 830.298 619.733C831.555 620.487 832.885 620.863 834.29 620.863C835.732 620.863 837.081 620.505 838.338 619.79C839.595 619.036 840.593 617.981 841.332 616.625C842.071 615.231 842.441 613.573 842.441 611.652Z" fill="white"/>
<path d="M866.046 600.575C867.044 599.068 868.412 597.844 870.149 596.902C871.924 595.96 873.938 595.489 876.193 595.489C878.817 595.489 881.183 596.149 883.29 597.467C885.434 598.786 887.116 600.67 888.336 603.118C889.592 605.53 890.221 608.336 890.221 611.539C890.221 614.741 889.592 617.586 888.336 620.072C887.116 622.521 885.434 624.424 883.29 625.78C881.183 627.136 878.817 627.814 876.193 627.814C873.901 627.814 871.887 627.362 870.149 626.458C868.449 625.516 867.081 624.311 866.046 622.841V627.306H858.284V585.487H866.046V600.575ZM882.292 611.539C882.292 609.655 881.904 608.035 881.128 606.679C880.388 605.285 879.39 604.23 878.134 603.514C876.914 602.798 875.583 602.44 874.141 602.44C872.737 602.44 871.406 602.817 870.149 603.571C868.929 604.286 867.931 605.341 867.155 606.735C866.416 608.129 866.046 609.768 866.046 611.652C866.046 613.536 866.416 615.174 867.155 616.568C867.931 617.962 868.929 619.036 870.149 619.79C871.406 620.505 872.737 620.863 874.141 620.863C875.583 620.863 876.914 620.487 878.134 619.733C879.39 618.98 880.388 617.906 881.128 616.512C881.904 615.118 882.292 613.46 882.292 611.539Z" fill="white"/>
<path d="M900.242 592.268C898.874 592.268 897.728 591.835 896.804 590.968C895.917 590.064 895.474 588.953 895.474 587.634C895.474 586.315 895.917 585.223 896.804 584.356C897.728 583.452 898.874 583 900.242 583C901.61 583 902.737 583.452 903.624 584.356C904.548 585.223 905.01 586.315 905.01 587.634C905.01 588.953 904.548 590.064 903.624 590.968C902.737 591.835 901.61 592.268 900.242 592.268ZM904.068 595.998V627.306H896.305V595.998H904.068Z" fill="white"/>
<path d="M919.943 585.487V627.306H912.181V585.487H919.943Z" fill="white"/>
<path d="M931.993 592.268C930.625 592.268 929.479 591.835 928.555 590.968C927.668 590.064 927.224 588.953 927.224 587.634C927.224 586.315 927.668 585.223 928.555 584.356C929.479 583.452 930.625 583 931.993 583C933.361 583 934.488 583.452 935.375 584.356C936.299 585.223 936.761 586.315 936.761 587.634C936.761 588.953 936.299 590.064 935.375 590.968C934.488 591.835 933.361 592.268 931.993 592.268ZM935.819 595.998V627.306H928.056V595.998H935.819Z" fill="white"/>
<path d="M952.969 602.497V617.642C952.969 618.697 953.21 619.469 953.69 619.959C954.208 620.411 955.058 620.637 956.241 620.637H959.845V627.306H954.965C948.423 627.306 945.151 624.066 945.151 617.586V602.497H941.492V595.998H945.151V588.256H952.969V595.998H959.845V602.497H952.969Z" fill="white"/>
<path d="M995.258 595.998L976.24 642.112H967.979L974.632 626.515L962.323 595.998H971.028L978.957 617.868L986.997 595.998H995.258Z" fill="white"/>
<path d="M1021.3 594.246V604.136H1034.33V610.409H1021.3V620.863H1036V627.306H1013.54V587.804H1036V594.246H1021.3Z" fill="white"/>
<path d="M1041.5 611.652C1041.5 608.412 1042.15 605.586 1043.44 603.175C1044.73 600.726 1046.53 598.842 1048.82 597.524C1051.11 596.167 1053.73 595.489 1056.69 595.489C1060.5 595.489 1063.64 596.469 1066.12 598.428C1068.63 600.349 1070.31 603.062 1071.16 606.566H1062.79C1062.35 605.209 1061.59 604.155 1060.52 603.401C1059.48 602.61 1058.19 602.214 1056.64 602.214C1054.42 602.214 1052.66 603.043 1051.37 604.701C1050.07 606.321 1049.43 608.638 1049.43 611.652C1049.43 614.628 1050.07 616.945 1051.37 618.603C1052.66 620.223 1054.42 621.033 1056.64 621.033C1059.78 621.033 1061.83 619.601 1062.79 616.738H1071.16C1070.31 620.129 1068.63 622.822 1066.12 624.819C1063.6 626.816 1060.46 627.814 1056.69 627.814C1053.73 627.814 1051.11 627.155 1048.82 625.836C1046.53 624.48 1044.73 622.596 1043.44 620.185C1042.15 617.736 1041.5 614.892 1041.5 611.652Z" fill="white"/>
<path d="M1090.93 627.814C1087.98 627.814 1085.31 627.155 1082.95 625.836C1080.58 624.48 1078.72 622.578 1077.35 620.129C1076.02 617.68 1075.35 614.854 1075.35 611.652C1075.35 608.449 1076.04 605.624 1077.4 603.175C1078.81 600.726 1080.71 598.842 1083.12 597.524C1085.52 596.167 1088.2 595.489 1091.16 595.489C1094.11 595.489 1096.79 596.167 1099.19 597.524C1101.6 598.842 1103.48 600.726 1104.85 603.175C1106.25 605.624 1106.96 608.449 1106.96 611.652C1106.96 614.854 1106.24 617.68 1104.79 620.129C1103.39 622.578 1101.47 624.48 1099.03 625.836C1096.63 627.155 1093.93 627.814 1090.93 627.814ZM1090.93 620.92C1092.34 620.92 1093.65 620.581 1094.87 619.903C1096.13 619.187 1097.12 618.132 1097.86 616.738C1098.6 615.344 1098.97 613.649 1098.97 611.652C1098.97 608.676 1098.2 606.396 1096.64 604.814C1095.13 603.194 1093.26 602.384 1091.04 602.384C1088.83 602.384 1086.96 603.194 1085.44 604.814C1083.97 606.396 1083.23 608.676 1083.23 611.652C1083.23 614.628 1083.95 616.926 1085.39 618.546C1086.87 620.129 1088.72 620.92 1090.93 620.92Z" fill="white"/>
<path d="M1130.12 595.546C1133.78 595.546 1136.73 596.733 1138.99 599.106C1141.24 601.442 1142.37 604.72 1142.37 608.939V627.306H1134.61V610.013C1134.61 607.526 1134 605.624 1132.78 604.305C1131.56 602.949 1129.9 602.271 1127.79 602.271C1125.64 602.271 1123.94 602.949 1122.69 604.305C1121.47 605.624 1120.86 607.526 1120.86 610.013V627.306H1113.09V595.998H1120.86V599.897C1121.89 598.541 1123.2 597.486 1124.79 596.733C1126.42 595.941 1128.19 595.546 1130.12 595.546Z" fill="white"/>
<path d="M1163.84 627.814C1160.88 627.814 1158.22 627.155 1155.85 625.836C1153.49 624.48 1151.62 622.578 1150.25 620.129C1148.92 617.68 1148.26 614.854 1148.26 611.652C1148.26 608.449 1148.94 605.624 1150.31 603.175C1151.71 600.726 1153.62 598.842 1156.02 597.524C1158.42 596.167 1161.1 595.489 1164.06 595.489C1167.01 595.489 1169.69 596.167 1172.1 597.524C1174.5 598.842 1176.39 600.726 1177.75 603.175C1179.16 605.624 1179.86 608.449 1179.86 611.652C1179.86 614.854 1179.14 617.68 1177.7 620.129C1176.29 622.578 1174.37 624.48 1171.93 625.836C1169.53 627.155 1166.83 627.814 1163.84 627.814ZM1163.84 620.92C1165.24 620.92 1166.55 620.581 1167.77 619.903C1169.03 619.187 1170.03 618.132 1170.77 616.738C1171.51 615.344 1171.88 613.649 1171.88 611.652C1171.88 608.676 1171.1 606.396 1169.55 604.814C1168.03 603.194 1166.16 602.384 1163.95 602.384C1161.73 602.384 1159.86 603.194 1158.35 604.814C1156.87 606.396 1156.13 608.676 1156.13 611.652C1156.13 614.628 1156.85 616.926 1158.29 618.546C1159.77 620.129 1161.62 620.92 1163.84 620.92Z" fill="white"/>
<path d="M1224.14 595.546C1227.92 595.546 1230.95 596.733 1233.24 599.106C1235.57 601.442 1236.73 604.72 1236.73 608.939V627.306H1228.97V610.013C1228.97 607.564 1228.36 605.699 1227.14 604.418C1225.92 603.1 1224.26 602.44 1222.15 602.44C1220.04 602.44 1218.36 603.1 1217.1 604.418C1215.88 605.699 1215.27 607.564 1215.27 610.013V627.306H1207.51V610.013C1207.51 607.564 1206.9 605.699 1205.68 604.418C1204.46 603.1 1202.8 602.44 1200.69 602.44C1198.55 602.44 1196.85 603.1 1195.59 604.418C1194.37 605.699 1193.76 607.564 1193.76 610.013V627.306H1186V595.998H1193.76V599.784C1194.76 598.466 1196.03 597.43 1197.59 596.676C1199.18 595.923 1200.91 595.546 1202.8 595.546C1205.2 595.546 1207.34 596.073 1209.23 597.128C1211.11 598.145 1212.57 599.615 1213.61 601.536C1214.61 599.728 1216.05 598.277 1217.93 597.185C1219.86 596.092 1221.93 595.546 1224.14 595.546Z" fill="white"/>
<path d="M1248.48 592.268C1247.11 592.268 1245.96 591.835 1245.04 590.968C1244.15 590.064 1243.71 588.953 1243.71 587.634C1243.71 586.315 1244.15 585.223 1245.04 584.356C1245.96 583.452 1247.11 583 1248.48 583C1249.85 583 1250.97 583.452 1251.86 584.356C1252.78 585.223 1253.25 586.315 1253.25 587.634C1253.25 588.953 1252.78 590.064 1251.86 590.968C1250.97 591.835 1249.85 592.268 1248.48 592.268ZM1252.3 595.998V627.306H1244.54V595.998H1252.3Z" fill="white"/>
<path d="M1258.42 611.652C1258.42 608.412 1259.07 605.586 1260.36 603.175C1261.65 600.726 1263.45 598.842 1265.74 597.524C1268.03 596.167 1270.66 595.489 1273.61 595.489C1277.42 595.489 1280.56 596.469 1283.04 598.428C1285.55 600.349 1287.23 603.062 1288.08 606.566H1279.71C1279.27 605.209 1278.51 604.155 1277.44 603.401C1276.4 602.61 1275.11 602.214 1273.56 602.214C1271.34 602.214 1269.58 603.043 1268.29 604.701C1267 606.321 1266.35 608.638 1266.35 611.652C1266.35 614.628 1267 616.945 1268.29 618.603C1269.58 620.223 1271.34 621.033 1273.56 621.033C1276.7 621.033 1278.75 619.601 1279.71 616.738H1288.08C1287.23 620.129 1285.55 622.822 1283.04 624.819C1280.52 626.816 1277.38 627.814 1273.61 627.814C1270.66 627.814 1268.03 627.155 1265.74 625.836C1263.45 624.48 1261.65 622.596 1260.36 620.185C1259.07 617.736 1258.42 614.892 1258.42 611.652Z" fill="white"/>
<path d="M1305.97 627.814C1303.46 627.814 1301.2 627.362 1299.2 626.458C1297.21 625.516 1295.62 624.254 1294.44 622.672C1293.29 621.089 1292.66 619.338 1292.55 617.416H1300.37C1300.52 618.622 1301.09 619.62 1302.09 620.411C1303.12 621.202 1304.4 621.598 1305.91 621.598C1307.39 621.598 1308.54 621.297 1309.35 620.694C1310.2 620.091 1310.63 619.319 1310.63 618.377C1310.63 617.36 1310.11 616.606 1309.07 616.116C1308.08 615.589 1306.47 615.024 1304.25 614.421C1301.96 613.856 1300.07 613.272 1298.59 612.669C1297.15 612.066 1295.9 611.143 1294.82 609.9C1293.79 608.657 1293.27 606.98 1293.27 604.87C1293.27 603.137 1293.75 601.555 1294.71 600.123C1295.71 598.692 1297.12 597.561 1298.93 596.733C1300.78 595.904 1302.94 595.489 1305.41 595.489C1309.07 595.489 1311.99 596.431 1314.17 598.315C1316.36 600.161 1317.56 602.666 1317.78 605.831H1310.35C1310.24 604.588 1309.72 603.608 1308.8 602.892C1307.91 602.139 1306.71 601.762 1305.19 601.762C1303.79 601.762 1302.7 602.026 1301.92 602.553C1301.18 603.081 1300.81 603.815 1300.81 604.757C1300.81 605.812 1301.33 606.622 1302.36 607.187C1303.4 607.715 1305.01 608.261 1307.19 608.826C1309.41 609.391 1311.24 609.975 1312.68 610.578C1314.12 611.181 1315.36 612.123 1316.39 613.404C1317.46 614.647 1318.02 616.305 1318.06 618.377C1318.06 620.185 1317.56 621.805 1316.56 623.237C1315.6 624.669 1314.19 625.799 1312.35 626.628C1310.53 627.419 1308.41 627.814 1305.97 627.814Z" fill="white"/>
<path d="M621.148 659.072V661.999H613.773V686.644H610.241V661.999H602.828V659.072H621.148Z" fill="#ABABAB"/>
<path d="M629.571 668.486C630.192 667.247 631.071 666.284 632.21 665.599C633.374 664.913 634.784 664.57 636.44 664.57V668.289H635.509C631.55 668.289 629.571 670.478 629.571 674.855V686.644H626.039V664.966H629.571V668.486Z" fill="#ABABAB"/>
<path d="M659.924 664.966V686.644H656.392V683.44C655.719 684.547 654.775 685.418 653.559 686.051C652.368 686.657 651.049 686.96 649.6 686.96C647.944 686.96 646.456 686.618 645.136 685.932C643.817 685.22 642.769 684.165 641.992 682.767C641.242 681.369 640.867 679.668 640.867 677.664V664.966H644.36V677.189C644.36 679.326 644.89 680.974 645.951 682.134C647.012 683.268 648.461 683.835 650.298 683.835C652.187 683.835 653.675 683.242 654.762 682.055C655.848 680.868 656.392 679.141 656.392 676.873V664.966H659.924Z" fill="#ABABAB"/>
<path d="M673.96 687C672.33 687 670.868 686.723 669.574 686.169C668.281 685.589 667.259 684.798 666.508 683.796C665.758 682.767 665.344 681.594 665.266 680.275H668.915C669.018 681.356 669.51 682.24 670.39 682.925C671.295 683.611 672.472 683.954 673.921 683.954C675.267 683.954 676.328 683.651 677.104 683.044C677.88 682.438 678.268 681.673 678.268 680.75C678.268 679.8 677.854 679.101 677.026 678.653C676.198 678.178 674.918 677.717 673.184 677.269C671.606 676.847 670.312 676.425 669.303 676.003C668.32 675.554 667.466 674.908 666.741 674.064C666.043 673.194 665.693 672.06 665.693 670.662C665.693 669.555 666.017 668.539 666.664 667.616C667.31 666.693 668.229 665.968 669.419 665.44C670.609 664.887 671.968 664.61 673.495 664.61C675.849 664.61 677.751 665.216 679.2 666.429C680.649 667.643 681.425 669.304 681.529 671.414H677.997C677.919 670.28 677.466 669.37 676.638 668.684C675.836 667.999 674.749 667.656 673.378 667.656C672.11 667.656 671.101 667.933 670.351 668.486C669.6 669.04 669.225 669.766 669.225 670.662C669.225 671.374 669.445 671.968 669.885 672.442C670.351 672.891 670.92 673.26 671.593 673.55C672.291 673.814 673.249 674.117 674.465 674.46C675.991 674.882 677.233 675.304 678.191 675.726C679.148 676.121 679.963 676.728 680.636 677.545C681.335 678.363 681.697 679.431 681.723 680.75C681.723 681.936 681.399 683.005 680.752 683.954C680.106 684.903 679.187 685.655 677.997 686.209C676.832 686.736 675.487 687 673.96 687Z" fill="#ABABAB"/>
<path d="M691.56 667.933V680.71C691.56 681.765 691.78 682.517 692.22 682.965C692.66 683.387 693.423 683.598 694.51 683.598H697.11V686.644H693.928C691.961 686.644 690.486 686.182 689.503 685.259C688.52 684.336 688.028 682.82 688.028 680.71V667.933H685.273V664.966H688.028V659.507H691.56V664.966H697.11V667.933H691.56Z" fill="#ABABAB"/>
<path d="M721.339 674.974C721.339 675.66 721.301 676.385 721.223 677.15H704.223C704.353 679.286 705.064 680.961 706.358 682.174C707.677 683.361 709.269 683.954 711.132 683.954C712.658 683.954 713.926 683.598 714.935 682.886C715.97 682.147 716.695 681.172 717.109 679.959H720.913C720.343 682.042 719.205 683.743 717.497 685.062C715.789 686.354 713.668 687 711.132 687C709.114 687 707.302 686.538 705.698 685.615C704.12 684.692 702.878 683.387 701.972 681.699C701.066 679.985 700.614 678.007 700.614 675.765C700.614 673.524 701.053 671.559 701.933 669.871C702.813 668.183 704.042 666.891 705.62 665.994C707.225 665.071 709.062 664.61 711.132 664.61C713.15 664.61 714.935 665.058 716.488 665.955C718.04 666.851 719.231 668.091 720.059 669.673C720.913 671.229 721.339 672.996 721.339 674.974ZM717.691 674.223C717.691 672.851 717.394 671.678 716.798 670.702C716.203 669.7 715.388 668.948 714.353 668.447C713.344 667.919 712.219 667.656 710.977 667.656C709.191 667.656 707.665 668.236 706.397 669.396C705.155 670.557 704.443 672.165 704.262 674.223H717.691Z" fill="#ABABAB"/>
<path d="M725.225 675.726C725.225 673.51 725.665 671.572 726.545 669.911C727.425 668.223 728.628 666.917 730.154 665.994C731.707 665.071 733.441 664.61 735.355 664.61C737.011 664.61 738.551 665.005 739.974 665.797C741.397 666.561 742.484 667.577 743.234 668.843V657.37H746.805V686.644H743.234V682.569C742.536 683.862 741.501 684.93 740.129 685.774C738.758 686.591 737.154 687 735.317 687C733.428 687 731.707 686.525 730.154 685.576C728.628 684.626 727.425 683.295 726.545 681.58C725.665 679.866 725.225 677.915 725.225 675.726ZM743.234 675.765C743.234 674.13 742.911 672.706 742.264 671.493C741.617 670.28 740.737 669.357 739.625 668.724C738.538 668.065 737.335 667.735 736.015 667.735C734.696 667.735 733.492 668.051 732.406 668.684C731.319 669.317 730.452 670.24 729.805 671.453C729.158 672.667 728.835 674.091 728.835 675.726C728.835 677.387 729.158 678.838 729.805 680.077C730.452 681.29 731.319 682.227 732.406 682.886C733.492 683.519 734.696 683.835 736.015 683.835C737.335 683.835 738.538 683.519 739.625 682.886C740.737 682.227 741.617 681.29 742.264 680.077C742.911 678.838 743.234 677.4 743.234 675.765Z" fill="#ABABAB"/>
<path d="M785.477 686.644H781.945L767.74 664.689V686.644H764.208V659.032H767.74L781.945 680.948V659.032H785.477V686.644Z" fill="#ABABAB"/>
<path d="M811.448 674.974C811.448 675.66 811.409 676.385 811.331 677.15H794.331C794.461 679.286 795.172 680.961 796.466 682.174C797.786 683.361 799.377 683.954 801.24 683.954C802.767 683.954 804.034 683.598 805.044 682.886C806.079 682.147 806.803 681.172 807.217 679.959H811.021C810.451 682.042 809.313 683.743 807.605 685.062C805.897 686.354 803.776 687 801.24 687C799.222 687 797.41 686.538 795.806 685.615C794.228 684.692 792.986 683.387 792.08 681.699C791.175 679.985 790.722 678.007 790.722 675.765C790.722 673.524 791.162 671.559 792.041 669.871C792.921 668.183 794.15 666.891 795.729 665.994C797.333 665.071 799.17 664.61 801.24 664.61C803.258 664.61 805.044 665.058 806.596 665.955C808.149 666.851 809.339 668.091 810.167 669.673C811.021 671.229 811.448 672.996 811.448 674.974ZM807.799 674.223C807.799 672.851 807.502 671.678 806.907 670.702C806.311 669.7 805.496 668.948 804.461 668.447C803.452 667.919 802.327 667.656 801.085 667.656C799.299 667.656 797.773 668.236 796.505 669.396C795.263 670.557 794.551 672.165 794.37 674.223H807.799Z" fill="#ABABAB"/>
<path d="M820.961 667.933V680.71C820.961 681.765 821.181 682.517 821.621 682.965C822.061 683.387 822.824 683.598 823.911 683.598H826.511V686.644H823.329C821.362 686.644 819.887 686.182 818.904 685.259C817.921 684.336 817.429 682.82 817.429 680.71V667.933H814.674V664.966H817.429V659.507H820.961V664.966H826.511V667.933H820.961Z" fill="#ABABAB"/>
<path d="M846.083 670.623V673.669H830.597V670.623H846.083Z" fill="#ABABAB"/>
<path d="M856.243 683.519H869.44V686.644H852.052V683.796L865.17 662.197H852.207V659.072H869.362V661.92L856.243 683.519Z" fill="#ABABAB"/>
<path d="M894.203 674.974C894.203 675.66 894.164 676.385 894.086 677.15H877.086C877.216 679.286 877.927 680.961 879.221 682.174C880.541 683.361 882.132 683.954 883.995 683.954C885.522 683.954 886.789 683.598 887.798 682.886C888.833 682.147 889.558 681.172 889.972 679.959H893.776C893.206 682.042 892.068 683.743 890.36 685.062C888.652 686.354 886.531 687 883.995 687C881.977 687 880.165 686.538 878.561 685.615C876.983 684.692 875.741 683.387 874.835 681.699C873.93 679.985 873.477 678.007 873.477 675.765C873.477 673.524 873.917 671.559 874.796 669.871C875.676 668.183 876.905 666.891 878.483 665.994C880.088 665.071 881.925 664.61 883.995 664.61C886.013 664.61 887.798 665.058 889.351 665.955C890.904 666.851 892.094 668.091 892.922 669.673C893.776 671.229 894.203 672.996 894.203 674.974ZM890.554 674.223C890.554 672.851 890.257 671.678 889.661 670.702C889.066 669.7 888.251 668.948 887.216 668.447C886.207 667.919 885.082 667.656 883.84 667.656C882.054 667.656 880.528 668.236 879.26 669.396C878.018 670.557 877.306 672.165 877.125 674.223H890.554Z" fill="#ABABAB"/>
<path d="M902.94 668.486C903.561 667.247 904.441 666.284 905.579 665.599C906.744 664.913 908.154 664.57 909.81 664.57V668.289H908.878C904.919 668.289 902.94 670.478 902.94 674.855V686.644H899.408V664.966H902.94V668.486Z" fill="#ABABAB"/>
<path d="M923.706 687C921.714 687 919.903 686.538 918.273 685.615C916.668 684.692 915.401 683.387 914.469 681.699C913.563 679.985 913.111 678.007 913.111 675.765C913.111 673.55 913.576 671.598 914.508 669.911C915.465 668.196 916.759 666.891 918.389 665.994C920.019 665.071 921.843 664.61 923.862 664.61C925.88 664.61 927.704 665.071 929.334 665.994C930.964 666.891 932.245 668.183 933.177 669.871C934.134 671.559 934.613 673.524 934.613 675.765C934.613 678.007 934.121 679.985 933.138 681.699C932.181 683.387 930.874 684.692 929.218 685.615C927.562 686.538 925.725 687 923.706 687ZM923.706 683.835C924.974 683.835 926.165 683.532 927.277 682.925C928.39 682.319 929.283 681.409 929.955 680.196C930.654 678.983 931.003 677.506 931.003 675.765C931.003 674.025 930.667 672.548 929.994 671.335C929.321 670.122 928.442 669.225 927.355 668.645C926.268 668.038 925.091 667.735 923.823 667.735C922.529 667.735 921.339 668.038 920.252 668.645C919.191 669.225 918.337 670.122 917.691 671.335C917.044 672.548 916.72 674.025 916.72 675.765C916.72 677.532 917.031 679.022 917.652 680.235C918.299 681.449 919.152 682.358 920.213 682.965C921.274 683.545 922.439 683.835 923.706 683.835Z" fill="#ABABAB"/>
<path d="M967.341 659.072V661.999H959.967V686.644H956.435V661.999H949.022V659.072H967.341Z" fill="#ABABAB"/>
<path d="M975.764 668.486C976.385 667.247 977.265 666.284 978.404 665.599C979.568 664.913 980.978 664.57 982.634 664.57V668.289H981.703C977.744 668.289 975.764 670.478 975.764 674.855V686.644H972.232V664.966H975.764V668.486Z" fill="#ABABAB"/>
<path d="M985.935 675.726C985.935 673.51 986.375 671.572 987.255 669.911C988.134 668.223 989.338 666.917 990.864 665.994C992.417 665.071 994.137 664.61 996.026 664.61C997.889 664.61 999.507 665.019 1000.88 665.836C1002.25 666.654 1003.27 667.682 1003.94 668.922V664.966H1007.51V686.644H1003.94V682.609C1003.25 683.875 1002.2 684.93 1000.8 685.774C999.429 686.591 997.825 687 995.988 687C994.099 687 992.391 686.525 990.864 685.576C989.338 684.626 988.134 683.295 987.255 681.58C986.375 679.866 985.935 677.915 985.935 675.726ZM1003.94 675.765C1003.94 674.13 1003.62 672.706 1002.97 671.493C1002.33 670.28 1001.45 669.357 1000.33 668.724C999.248 668.065 998.045 667.735 996.725 667.735C995.405 667.735 994.202 668.051 993.115 668.684C992.029 669.317 991.162 670.24 990.515 671.453C989.868 672.667 989.545 674.091 989.545 675.726C989.545 677.387 989.868 678.838 990.515 680.077C991.162 681.29 992.029 682.227 993.115 682.886C994.202 683.519 995.405 683.835 996.725 683.835C998.045 683.835 999.248 683.519 1000.33 682.886C1001.45 682.227 1002.33 681.29 1002.97 680.077C1003.62 678.838 1003.94 677.4 1003.94 675.765Z" fill="#ABABAB"/>
<path d="M1024.39 664.57C1026.98 664.57 1029.07 665.375 1030.68 666.983C1032.28 668.566 1033.08 670.86 1033.08 673.866V686.644H1029.59V674.381C1029.59 672.218 1029.06 670.57 1028 669.436C1026.94 668.276 1025.49 667.695 1023.65 667.695C1021.79 667.695 1020.3 668.289 1019.19 669.475C1018.1 670.662 1017.56 672.39 1017.56 674.658V686.644H1014.03V664.966H1017.56V668.051C1018.26 666.944 1019.2 666.087 1020.39 665.48C1021.61 664.873 1022.94 664.57 1024.39 664.57Z" fill="#ABABAB"/>
<path d="M1046.93 687C1045.3 687 1043.83 686.723 1042.54 686.169C1041.25 685.589 1040.22 684.798 1039.47 683.796C1038.72 682.767 1038.31 681.594 1038.23 680.275H1041.88C1041.98 681.356 1042.48 682.24 1043.36 682.925C1044.26 683.611 1045.44 683.954 1046.89 683.954C1048.23 683.954 1049.29 683.651 1050.07 683.044C1050.85 682.438 1051.23 681.673 1051.23 680.75C1051.23 679.8 1050.82 679.101 1049.99 678.653C1049.16 678.178 1047.88 677.717 1046.15 677.269C1044.57 676.847 1043.28 676.425 1042.27 676.003C1041.29 675.554 1040.43 674.908 1039.71 674.064C1039.01 673.194 1038.66 672.06 1038.66 670.662C1038.66 669.555 1038.98 668.539 1039.63 667.616C1040.28 666.693 1041.19 665.968 1042.39 665.44C1043.58 664.887 1044.93 664.61 1046.46 664.61C1048.82 664.61 1050.72 665.216 1052.17 666.429C1053.61 667.643 1054.39 669.304 1054.49 671.414H1050.96C1050.89 670.28 1050.43 669.37 1049.6 668.684C1048.8 667.999 1047.72 667.656 1046.34 667.656C1045.08 667.656 1044.07 667.933 1043.32 668.486C1042.57 669.04 1042.19 669.766 1042.19 670.662C1042.19 671.374 1042.41 671.968 1042.85 672.442C1043.32 672.891 1043.89 673.26 1044.56 673.55C1045.26 673.814 1046.21 674.117 1047.43 674.46C1048.96 674.882 1050.2 675.304 1051.16 675.726C1052.11 676.121 1052.93 676.728 1053.6 677.545C1054.3 678.363 1054.66 679.431 1054.69 680.75C1054.69 681.936 1054.37 683.005 1053.72 683.954C1053.07 684.903 1052.15 685.655 1050.96 686.209C1049.8 686.736 1048.45 687 1046.93 687Z" fill="#ABABAB"/>
<path d="M1062.04 661.445C1061.37 661.445 1060.8 661.208 1060.33 660.733C1059.87 660.258 1059.64 659.678 1059.64 658.992C1059.64 658.307 1059.87 657.727 1060.33 657.252C1060.8 656.777 1061.37 656.54 1062.04 656.54C1062.69 656.54 1063.23 656.777 1063.67 657.252C1064.14 657.727 1064.37 658.307 1064.37 658.992C1064.37 659.678 1064.14 660.258 1063.67 660.733C1063.23 661.208 1062.69 661.445 1062.04 661.445ZM1063.75 664.966V686.644H1060.22V664.966H1063.75Z" fill="#ABABAB"/>
<path d="M1074.62 667.933V680.71C1074.62 681.765 1074.84 682.517 1075.28 682.965C1075.72 683.387 1076.48 683.598 1077.57 683.598H1080.17V686.644H1076.99C1075.02 686.644 1073.55 686.182 1072.56 685.259C1071.58 684.336 1071.09 682.82 1071.09 680.71V667.933H1068.33V664.966H1071.09V659.507H1074.62V664.966H1080.17V667.933H1074.62Z" fill="#ABABAB"/>
<path d="M1086.82 661.445C1086.15 661.445 1085.58 661.208 1085.11 660.733C1084.64 660.258 1084.41 659.678 1084.41 658.992C1084.41 658.307 1084.64 657.727 1085.11 657.252C1085.58 656.777 1086.15 656.54 1086.82 656.54C1087.47 656.54 1088.01 656.777 1088.45 657.252C1088.91 657.727 1089.15 658.307 1089.15 658.992C1089.15 659.678 1088.91 660.258 1088.45 660.733C1088.01 661.208 1087.47 661.445 1086.82 661.445ZM1088.53 664.966V686.644H1084.99V664.966H1088.53Z" fill="#ABABAB"/>
<path d="M1104.37 687C1102.37 687 1100.56 686.538 1098.93 685.615C1097.33 684.692 1096.06 683.387 1095.13 681.699C1094.22 679.985 1093.77 678.007 1093.77 675.765C1093.77 673.55 1094.24 671.598 1095.17 669.911C1096.12 668.196 1097.42 666.891 1099.05 665.994C1100.68 665.071 1102.5 664.61 1104.52 664.61C1106.54 664.61 1108.36 665.071 1109.99 665.994C1111.62 666.891 1112.9 668.183 1113.84 669.871C1114.79 671.559 1115.27 673.524 1115.27 675.765C1115.27 678.007 1114.78 679.985 1113.8 681.699C1112.84 683.387 1111.53 684.692 1109.88 685.615C1108.22 686.538 1106.38 687 1104.37 687ZM1104.37 683.835C1105.63 683.835 1106.82 683.532 1107.94 682.925C1109.05 682.319 1109.94 681.409 1110.61 680.196C1111.31 678.983 1111.66 677.506 1111.66 675.765C1111.66 674.025 1111.33 672.548 1110.65 671.335C1109.98 670.122 1109.1 669.225 1108.01 668.645C1106.93 668.038 1105.75 667.735 1104.48 667.735C1103.19 667.735 1102 668.038 1100.91 668.645C1099.85 669.225 1099 670.122 1098.35 671.335C1097.7 672.548 1097.38 674.025 1097.38 675.765C1097.38 677.532 1097.69 679.022 1098.31 680.235C1098.96 681.449 1099.81 682.358 1100.87 682.965C1101.93 683.545 1103.1 683.835 1104.37 683.835Z" fill="#ABABAB"/>
<path d="M1130.82 664.57C1133.41 664.57 1135.51 665.375 1137.11 666.983C1138.71 668.566 1139.52 670.86 1139.52 673.866V686.644H1136.02V674.381C1136.02 672.218 1135.49 670.57 1134.43 669.436C1133.37 668.276 1131.92 667.695 1130.08 667.695C1128.22 667.695 1126.73 668.289 1125.62 669.475C1124.53 670.662 1123.99 672.39 1123.99 674.658V686.644H1120.46V664.966H1123.99V668.051C1124.69 666.944 1125.63 666.087 1126.82 665.48C1128.04 664.873 1129.37 664.57 1130.82 664.57Z" fill="#ABABAB"/>
<path d="M1153.36 687C1151.73 687 1150.27 686.723 1148.97 686.169C1147.68 685.589 1146.66 684.798 1145.91 683.796C1145.16 682.767 1144.74 681.594 1144.66 680.275H1148.31C1148.42 681.356 1148.91 682.24 1149.79 682.925C1150.69 683.611 1151.87 683.954 1153.32 683.954C1154.66 683.954 1155.73 683.651 1156.5 683.044C1157.28 682.438 1157.67 681.673 1157.67 680.75C1157.67 679.8 1157.25 679.101 1156.42 678.653C1155.6 678.178 1154.32 677.717 1152.58 677.269C1151 676.847 1149.71 676.425 1148.7 676.003C1147.72 675.554 1146.86 674.908 1146.14 674.064C1145.44 673.194 1145.09 672.06 1145.09 670.662C1145.09 669.555 1145.41 668.539 1146.06 667.616C1146.71 666.693 1147.63 665.968 1148.82 665.44C1150.01 664.887 1151.37 664.61 1152.89 664.61C1155.25 664.61 1157.15 665.216 1158.6 666.429C1160.05 667.643 1160.82 669.304 1160.93 671.414H1157.39C1157.32 670.28 1156.86 669.37 1156.04 668.684C1155.23 667.999 1154.15 667.656 1152.78 667.656C1151.51 667.656 1150.5 667.933 1149.75 668.486C1149 669.04 1148.62 669.766 1148.62 670.662C1148.62 671.374 1148.84 671.968 1149.28 672.442C1149.75 672.891 1150.32 673.26 1150.99 673.55C1151.69 673.814 1152.65 674.117 1153.86 674.46C1155.39 674.882 1156.63 675.304 1157.59 675.726C1158.55 676.121 1159.36 676.728 1160.03 677.545C1160.73 678.363 1161.09 679.431 1161.12 680.75C1161.12 681.936 1160.8 683.005 1160.15 683.954C1159.5 684.903 1158.58 685.655 1157.39 686.209C1156.23 686.736 1154.88 687 1153.36 687Z" fill="#ABABAB"/>
<path d="M1195.63 667.142C1195.63 669.436 1194.85 671.348 1193.3 672.878C1191.77 674.381 1189.43 675.132 1186.27 675.132H1181.07V686.644H1177.54V659.072H1186.27C1189.33 659.072 1191.64 659.823 1193.22 661.326C1194.83 662.83 1195.63 664.768 1195.63 667.142ZM1186.27 672.165C1188.24 672.165 1189.69 671.73 1190.62 670.86C1191.55 669.99 1192.02 668.75 1192.02 667.142C1192.02 663.739 1190.1 662.038 1186.27 662.038H1181.07V672.165H1186.27Z" fill="#ABABAB"/>
<path d="M1199.24 675.726C1199.24 673.51 1199.68 671.572 1200.56 669.911C1201.44 668.223 1202.64 666.917 1204.17 665.994C1205.72 665.071 1207.44 664.61 1209.33 664.61C1211.2 664.61 1212.81 665.019 1214.18 665.836C1215.56 666.654 1216.58 667.682 1217.25 668.922V664.966H1220.82V686.644H1217.25V682.609C1216.55 683.875 1215.5 684.93 1214.11 685.774C1212.73 686.591 1211.13 687 1209.29 687C1207.4 687 1205.7 686.525 1204.17 685.576C1202.64 684.626 1201.44 683.295 1200.56 681.58C1199.68 679.866 1199.24 677.915 1199.24 675.726ZM1217.25 675.765C1217.25 674.13 1216.93 672.706 1216.28 671.493C1215.63 670.28 1214.75 669.357 1213.64 668.724C1212.55 668.065 1211.35 667.735 1210.03 667.735C1208.71 667.735 1207.51 668.051 1206.42 668.684C1205.33 669.317 1204.47 670.24 1203.82 671.453C1203.17 672.667 1202.85 674.091 1202.85 675.726C1202.85 677.387 1203.17 678.838 1203.82 680.077C1204.47 681.29 1205.33 682.227 1206.42 682.886C1207.51 683.519 1208.71 683.835 1210.03 683.835C1211.35 683.835 1212.55 683.519 1213.64 682.886C1214.75 682.227 1215.63 681.29 1216.28 680.077C1216.93 678.838 1217.25 677.4 1217.25 675.765Z" fill="#ABABAB"/>
<path d="M1230.86 668.486C1231.49 667.247 1232.37 666.284 1233.5 665.599C1234.67 664.913 1236.08 664.57 1237.73 664.57V668.289H1236.8C1232.84 668.289 1230.86 670.478 1230.86 674.855V686.644H1227.33V664.966H1230.86V668.486Z" fill="#ABABAB"/>
<path d="M1246.66 667.933V680.71C1246.66 681.765 1246.88 682.517 1247.32 682.965C1247.76 683.387 1248.53 683.598 1249.61 683.598H1252.21V686.644H1249.03C1247.06 686.644 1245.59 686.182 1244.61 685.259C1243.62 684.336 1243.13 682.82 1243.13 680.71V667.933H1240.38V664.966H1243.13V659.507H1246.66V664.966H1252.21V667.933H1246.66Z" fill="#ABABAB"/>
<path d="M1267.4 664.57C1269.99 664.57 1272.08 665.375 1273.69 666.983C1275.29 668.566 1276.09 670.86 1276.09 673.866V686.644H1272.6V674.381C1272.6 672.218 1272.07 670.57 1271.01 669.436C1269.95 668.276 1268.5 667.695 1266.66 667.695C1264.8 667.695 1263.31 668.289 1262.2 669.475C1261.11 670.662 1260.57 672.39 1260.57 674.658V686.644H1257.04V664.966H1260.57V668.051C1261.27 666.944 1262.21 666.087 1263.4 665.48C1264.62 664.873 1265.95 664.57 1267.4 664.57Z" fill="#ABABAB"/>
<path d="M1301.81 674.974C1301.81 675.66 1301.77 676.385 1301.7 677.15H1284.7C1284.83 679.286 1285.54 680.961 1286.83 682.174C1288.15 683.361 1289.74 683.954 1291.6 683.954C1293.13 683.954 1294.4 683.598 1295.41 682.886C1296.44 682.147 1297.17 681.172 1297.58 679.959H1301.39C1300.82 682.042 1299.68 683.743 1297.97 685.062C1296.26 686.354 1294.14 687 1291.6 687C1289.59 687 1287.77 686.538 1286.17 685.615C1284.59 684.692 1283.35 683.387 1282.44 681.699C1281.54 679.985 1281.09 678.007 1281.09 675.765C1281.09 673.524 1281.53 671.559 1282.41 669.871C1283.29 668.183 1284.51 666.891 1286.09 665.994C1287.7 665.071 1289.53 664.61 1291.6 664.61C1293.62 664.61 1295.41 665.058 1296.96 665.955C1298.51 666.851 1299.7 668.091 1300.53 669.673C1301.39 671.229 1301.81 672.996 1301.81 674.974ZM1298.16 674.223C1298.16 672.851 1297.87 671.678 1297.27 670.702C1296.68 669.7 1295.86 668.948 1294.83 668.447C1293.82 667.919 1292.69 667.656 1291.45 667.656C1289.66 667.656 1288.14 668.236 1286.87 669.396C1285.63 670.557 1284.92 672.165 1284.73 674.223H1298.16Z" fill="#ABABAB"/>
<path d="M1310.55 668.486C1311.17 667.247 1312.05 666.284 1313.19 665.599C1314.35 664.913 1315.76 664.57 1317.42 664.57V668.289H1316.49C1312.53 668.289 1310.55 670.478 1310.55 674.855V686.644H1307.02V664.966H1310.55V668.486Z" fill="#ABABAB"/>
</g>
<defs>
<filter id="filter0_f_5_257" x="-1044.56" y="-739.191" width="1379.19" height="1379.19" filterUnits="userSpaceOnUse" color-interpolation-filters="sRGB">
<feFlood flood-opacity="0" result="BackgroundImageFix"/>
<feBlend mode="normal" in="SourceGraphic" in2="BackgroundImageFix" result="shape"/>
<feGaussianBlur stdDeviation="124.33" result="effect1_foregroundBlur_5_257"/>
</filter>
<filter id="filter1_f_5_257" x="-275.151" y="-134.861" width="1087.03" height="1119.5" filterUnits="userSpaceOnUse" color-interpolation-filters="sRGB">
<feFlood flood-opacity="0" result="BackgroundImageFix"/>
<feBlend mode="normal" in="SourceGraphic" in2="BackgroundImageFix" result="shape"/>
<feGaussianBlur stdDeviation="14.3602" result="effect1_foregroundBlur_5_257"/>
</filter>
<filter id="filter2_f_5_257" x="-393.787" y="-60.3991" width="1158" height="1136.87" filterUnits="userSpaceOnUse" color-interpolation-filters="sRGB">
<feFlood flood-opacity="0" result="BackgroundImageFix"/>
<feBlend mode="normal" in="SourceGraphic" in2="BackgroundImageFix" result="shape"/>
<feGaussianBlur stdDeviation="25.3634" result="effect1_foregroundBlur_5_257"/>
</filter>
<filter id="filter3_f_5_257" x="-354.331" y="-661.179" width="1725.35" height="1662.54" filterUnits="userSpaceOnUse" color-interpolation-filters="sRGB">
<feFlood flood-opacity="0" result="BackgroundImageFix"/>
<feBlend mode="normal" in="SourceGraphic" in2="BackgroundImageFix" result="shape"/>
<feGaussianBlur stdDeviation="14.9673" result="effect1_foregroundBlur_5_257"/>
</filter>
<filter id="filter4_f_5_257" x="-573.057" y="-879.905" width="1412.7" height="1412.7" filterUnits="userSpaceOnUse" color-interpolation-filters="sRGB">
<feFlood flood-opacity="0" result="BackgroundImageFix"/>
<feBlend mode="normal" in="SourceGraphic" in2="BackgroundImageFix" result="shape"/>
<feGaussianBlur stdDeviation="124.33" result="effect1_foregroundBlur_5_257"/>
</filter>
<filter id="filter5_f_5_257" x="219.829" y="-251.879" width="1149.41" height="1181.43" filterUnits="userSpaceOnUse" color-interpolation-filters="sRGB">
<feFlood flood-opacity="0" result="BackgroundImageFix"/>
<feBlend mode="normal" in="SourceGraphic" in2="BackgroundImageFix" result="shape"/>
<feGaussianBlur stdDeviation="14.0759" result="effect1_foregroundBlur_5_257"/>
</filter>
<filter id="filter6_f_5_257" x="98.9833" y="-179.996" width="1224.81" height="1203.97" filterUnits="userSpaceOnUse" color-interpolation-filters="sRGB">
<feFlood flood-opacity="0" result="BackgroundImageFix"/>
<feBlend mode="normal" in="SourceGraphic" in2="BackgroundImageFix" result="shape"/>
<feGaussianBlur stdDeviation="26.275" result="effect1_foregroundBlur_5_257"/>
</filter>
<filter id="filter7_f_5_257" x="200.329" y="-654.321" width="1493.46" height="1430.74" filterUnits="userSpaceOnUse" color-interpolation-filters="sRGB">
<feFlood flood-opacity="0" result="BackgroundImageFix"/>
<feBlend mode="normal" in="SourceGraphic" in2="BackgroundImageFix" result="shape"/>
<feGaussianBlur stdDeviation="14.9673" result="effect1_foregroundBlur_5_257"/>
</filter>
<filter id="filter8_f_5_257" x="-15.5949" y="-870.245" width="1319.19" height="1319.19" filterUnits="userSpaceOnUse" color-interpolation-filters="sRGB">
<feFlood flood-opacity="0" result="BackgroundImageFix"/>
<feBlend mode="normal" in="SourceGraphic" in2="BackgroundImageFix" result="shape"/>
<feGaussianBlur stdDeviation="122.929" result="effect1_foregroundBlur_5_257"/>
</filter>
<filter id="filter9_f_5_257" x="667.023" y="-353.09" width="1071.9" height="1105.14" filterUnits="userSpaceOnUse" color-interpolation-filters="sRGB">
<feFlood flood-opacity="0" result="BackgroundImageFix"/>
<feBlend mode="normal" in="SourceGraphic" in2="BackgroundImageFix" result="shape"/>
<feGaussianBlur stdDeviation="37.5357" result="effect1_foregroundBlur_5_257"/>
</filter>
<filter id="filter10_f_5_257" x="570.088" y="-256.301" width="1099.48" height="1077.85" filterUnits="userSpaceOnUse" color-interpolation-filters="sRGB">
<feFlood flood-opacity="0" result="BackgroundImageFix"/>
<feBlend mode="normal" in="SourceGraphic" in2="BackgroundImageFix" result="shape"/>
<feGaussianBlur stdDeviation="37.5357" result="effect1_foregroundBlur_5_257"/>
</filter>
<filter id="filter11_f_5_257" x="345.723" y="-238.887" width="1098.91" height="1098.91" filterUnits="userSpaceOnUse" color-interpolation-filters="sRGB">
<feFlood flood-opacity="0" result="BackgroundImageFix"/>
<feBlend mode="normal" in="SourceGraphic" in2="BackgroundImageFix" result="shape"/>
<feGaussianBlur stdDeviation="46.9196" result="effect1_foregroundBlur_5_257"/>
</filter>
<filter id="filter12_f_5_257" x="-96.2012" y="-277.56" width="997.561" height="997.561" filterUnits="userSpaceOnUse" color-interpolation-filters="sRGB">
<feFlood flood-opacity="0" result="BackgroundImageFix"/>
<feBlend mode="normal" in="SourceGraphic" in2="BackgroundImageFix" result="shape"/>
<feGaussianBlur stdDeviation="21.583" result="effect1_foregroundBlur_5_257"/>
</filter>
<linearGradient id="paint0_linear_5_257" x1="118.566" y1="0" x2="118.566" y2="1296.36" gradientUnits="userSpaceOnUse">
<stop stop-color="#2388FF"/>
<stop offset="0.8" stop-color="#2388FF" stop-opacity="0"/>
</linearGradient>
<linearGradient id="paint1_linear_5_257" x1="91.5032" y1="0" x2="91.5032" y2="1296.39" gradientUnits="userSpaceOnUse">
<stop stop-color="#0A8AFE"/>
<stop offset="0.88" stop-color="#0A8AFE" stop-opacity="0"/>
</linearGradient>
<linearGradient id="paint2_linear_5_257" x1="314.397" y1="-160.776" x2="1267.73" y2="845.032" gradientUnits="userSpaceOnUse">
<stop stop-color="#0A8AFE"/>
<stop offset="0.88" stop-color="#0A8AFE" stop-opacity="0"/>
</linearGradient>
<linearGradient id="paint3_linear_5_257" x1="91.5049" y1="0" x2="91.5049" y2="1385.91" gradientUnits="userSpaceOnUse">
<stop stop-color="#0A8AFE"/>
<stop offset="0.88" stop-color="#0A8AFE" stop-opacity="0"/>
</linearGradient>
<linearGradient id="paint4_linear_5_257" x1="115.426" y1="-444.914" x2="106.823" y2="1144.53" gradientUnits="userSpaceOnUse">
<stop stop-color="#3BA55D"/>
<stop offset="0.802306" stop-color="#3BA55D" stop-opacity="0"/>
</linearGradient>
<linearGradient id="paint5_linear_5_257" x1="115.427" y1="-444.908" x2="106.825" y2="1144.51" gradientUnits="userSpaceOnUse">
<stop stop-color="#3BA55D"/>
<stop offset="0.802306" stop-color="#3BA55D" stop-opacity="0"/>
</linearGradient>
<linearGradient id="paint6_linear_5_257" x1="79.7" y1="-498.533" x2="64.0584" y2="1282.38" gradientUnits="userSpaceOnUse">
<stop stop-color="#3BA55D"/>
<stop offset="0.802306" stop-color="#3BA55D" stop-opacity="0"/>
</linearGradient>
<linearGradient id="paint7_linear_5_257" x1="79.7" y1="-498.533" x2="64.0584" y2="1282.38" gradientUnits="userSpaceOnUse">
<stop stop-color="#3BA55D"/>
<stop offset="0.802306" stop-color="#3BA55D" stop-opacity="0"/>
</linearGradient>
<linearGradient id="paint8_linear_5_257" x1="960.442" y1="394" x2="960.442" y2="547" gradientUnits="userSpaceOnUse">
<stop stop-color="#0A8AFE"/>
<stop offset="1" stop-color="#3BA55D"/>
</linearGradient>
<clipPath id="clip0_5_257">
<rect width="1920" height="1080" fill="white"/>
</clipPath>
</defs>
</svg>
