<svg width="1920" height="1080" viewBox="0 0 1920 1080" fill="none" xmlns="http://www.w3.org/2000/svg" xmlns:xlink="http://www.w3.org/1999/xlink">
<g clip-path="url(#clip0_5_196)">
<rect width="1920" height="1080" fill="url(#paint0_linear_5_196)"/>
<g opacity="0.4" filter="url(#filter0_f_5_196)">
<path d="M1215 539.5L474.86 635.373C373.876 648.453 277.884 687.019 195.92 747.439L-281 1099L11.2186 539.5L-281 -20.0001L195.92 331.561C277.884 391.981 373.877 430.547 474.86 443.628L1215 539.5Z" fill="#3BA55D"/>
</g>
<rect x="960" width="960" height="540" fill="white"/>
<rect x="960" y="540" width="960" height="540" fill="url(#paint1_linear_5_196)"/>
<rect x="1042.39" y="616.389" width="1002.35" height="603.55" rx="29.1618" stroke="white" stroke-width="2.77732"/>
<path d="M1042.33 712.288H1272.07C1279.74 712.288 1285.95 706.07 1285.95 698.401V646.988C1285.95 639.319 1292.17 633.102 1299.84 633.102H1986.82" stroke="white" stroke-width="2.77732"/>
<rect x="1354.19" y="739.295" width="690.546" height="66.4793" rx="12.4979" stroke="white" stroke-width="2.77732"/>
<path d="M1442.72 769.622L1440.42 770.273C1440.28 769.889 1440.07 769.517 1439.78 769.155C1439.51 768.786 1439.13 768.483 1438.66 768.244C1438.18 768.005 1437.57 767.886 1436.82 767.886C1435.8 767.886 1434.95 768.121 1434.27 768.591C1433.6 769.054 1433.26 769.644 1433.26 770.36C1433.26 770.996 1433.5 771.499 1433.96 771.868C1434.42 772.236 1435.14 772.544 1436.13 772.79L1438.6 773.397C1440.09 773.759 1441.2 774.312 1441.93 775.057C1442.66 775.795 1443.03 776.746 1443.03 777.91C1443.03 778.865 1442.75 779.719 1442.2 780.471C1441.66 781.223 1440.9 781.816 1439.93 782.25C1438.95 782.684 1437.81 782.901 1436.52 782.901C1434.82 782.901 1433.41 782.532 1432.3 781.794C1431.18 781.057 1430.48 779.979 1430.18 778.561L1432.61 777.954C1432.84 778.851 1433.28 779.523 1433.93 779.972C1434.58 780.42 1435.43 780.644 1436.48 780.644C1437.67 780.644 1438.62 780.391 1439.32 779.885C1440.03 779.371 1440.38 778.757 1440.38 778.041C1440.38 777.462 1440.18 776.977 1439.77 776.587C1439.37 776.189 1438.75 775.892 1437.91 775.697L1435.13 775.046C1433.6 774.685 1432.48 774.124 1431.77 773.365C1431.06 772.598 1430.7 771.64 1430.7 770.49C1430.7 769.549 1430.97 768.718 1431.5 767.994C1432.03 767.271 1432.76 766.703 1433.68 766.291C1434.6 765.879 1435.65 765.673 1436.82 765.673C1438.47 765.673 1439.77 766.034 1440.71 766.758C1441.65 767.481 1442.33 768.436 1442.72 769.622ZM1455.55 775.741V765.89H1458.11V782.554H1455.55V779.733H1455.38C1454.99 780.579 1454.38 781.299 1453.55 781.892C1452.73 782.478 1451.69 782.771 1450.43 782.771C1449.39 782.771 1448.46 782.543 1447.65 782.087C1446.84 781.624 1446.21 780.93 1445.74 780.004C1445.28 779.071 1445.05 777.896 1445.05 776.478V765.89H1447.61V776.305C1447.61 777.52 1447.95 778.489 1448.63 779.212C1449.32 779.936 1450.19 780.297 1451.25 780.297C1451.89 780.297 1452.54 780.134 1453.2 779.809C1453.86 779.483 1454.42 778.984 1454.87 778.312C1455.32 777.639 1455.55 776.782 1455.55 775.741ZM1472.77 769.622L1470.47 770.273C1470.33 769.889 1470.11 769.517 1469.83 769.155C1469.56 768.786 1469.18 768.483 1468.7 768.244C1468.23 768.005 1467.61 767.886 1466.87 767.886C1465.85 767.886 1465 768.121 1464.32 768.591C1463.65 769.054 1463.31 769.644 1463.31 770.36C1463.31 770.996 1463.54 771.499 1464.01 771.868C1464.47 772.236 1465.19 772.544 1466.17 772.79L1468.65 773.397C1470.14 773.759 1471.25 774.312 1471.98 775.057C1472.71 775.795 1473.07 776.746 1473.07 777.91C1473.07 778.865 1472.8 779.719 1472.25 780.471C1471.71 781.223 1470.95 781.816 1469.97 782.25C1469 782.684 1467.86 782.901 1466.57 782.901C1464.87 782.901 1463.46 782.532 1462.35 781.794C1461.23 781.057 1460.53 779.979 1460.23 778.561L1462.66 777.954C1462.89 778.851 1463.33 779.523 1463.97 779.972C1464.62 780.42 1465.47 780.644 1466.52 780.644C1467.72 780.644 1468.66 780.391 1469.36 779.885C1470.07 779.371 1470.43 778.757 1470.43 778.041C1470.43 777.462 1470.23 776.977 1469.82 776.587C1469.42 776.189 1468.79 775.892 1467.95 775.697L1465.18 775.046C1463.65 774.685 1462.53 774.124 1461.81 773.365C1461.1 772.598 1460.75 771.64 1460.75 770.49C1460.75 769.549 1461.01 768.718 1461.54 767.994C1462.08 767.271 1462.8 766.703 1463.72 766.291C1464.65 765.879 1465.7 765.673 1466.87 765.673C1468.52 765.673 1469.81 766.034 1470.75 766.758C1471.7 767.481 1472.37 768.436 1472.77 769.622ZM1482.34 765.89V768.06H1473.71V765.89H1482.34ZM1476.22 761.897H1478.78V777.78C1478.78 778.503 1478.89 779.046 1479.1 779.408C1479.32 779.762 1479.59 780.001 1479.92 780.124C1480.26 780.239 1480.62 780.297 1481 780.297C1481.28 780.297 1481.51 780.283 1481.69 780.254C1481.87 780.218 1482.02 780.189 1482.13 780.167L1482.65 782.467C1482.47 782.532 1482.23 782.597 1481.92 782.662C1481.61 782.735 1481.21 782.771 1480.74 782.771C1480.01 782.771 1479.31 782.615 1478.61 782.304C1477.92 781.993 1477.35 781.519 1476.9 780.883C1476.45 780.247 1476.22 779.444 1476.22 778.475V761.897ZM1489.26 782.944C1488.21 782.944 1487.25 782.745 1486.39 782.348C1485.53 781.943 1484.85 781.36 1484.34 780.601C1483.83 779.834 1483.58 778.908 1483.58 777.824C1483.58 776.869 1483.77 776.095 1484.14 775.502C1484.52 774.902 1485.02 774.432 1485.65 774.092C1486.28 773.752 1486.98 773.498 1487.74 773.332C1488.5 773.159 1489.27 773.021 1490.05 772.92C1491.06 772.79 1491.88 772.692 1492.51 772.627C1493.15 772.555 1493.61 772.435 1493.9 772.269C1494.19 772.103 1494.34 771.813 1494.34 771.401V771.314C1494.34 770.244 1494.05 769.412 1493.46 768.819C1492.88 768.226 1492.01 767.929 1490.83 767.929C1489.6 767.929 1488.65 768.197 1487.95 768.732C1487.26 769.267 1486.77 769.839 1486.49 770.446L1484.06 769.578C1484.49 768.566 1485.07 767.778 1485.79 767.213C1486.52 766.642 1487.32 766.244 1488.18 766.02C1489.05 765.789 1489.9 765.673 1490.74 765.673C1491.28 765.673 1491.89 765.738 1492.58 765.868C1493.29 765.991 1493.96 766.248 1494.61 766.638C1495.27 767.029 1495.82 767.618 1496.25 768.407C1496.69 769.195 1496.9 770.251 1496.9 771.575V782.554H1494.34V780.297H1494.21C1494.04 780.659 1493.75 781.046 1493.34 781.458C1492.94 781.87 1492.4 782.221 1491.73 782.51C1491.05 782.8 1490.23 782.944 1489.26 782.944ZM1489.66 780.644C1490.67 780.644 1491.52 780.445 1492.22 780.048C1492.92 779.65 1493.45 779.136 1493.8 778.507C1494.16 777.878 1494.34 777.216 1494.34 776.522V774.178C1494.23 774.309 1494 774.428 1493.63 774.536C1493.26 774.638 1492.85 774.728 1492.37 774.808C1491.9 774.88 1491.44 774.945 1490.99 775.003C1490.55 775.054 1490.19 775.097 1489.92 775.133C1489.25 775.22 1488.63 775.361 1488.05 775.556C1487.48 775.744 1487.02 776.03 1486.66 776.413C1486.31 776.789 1486.14 777.303 1486.14 777.954C1486.14 778.843 1486.47 779.516 1487.13 779.972C1487.79 780.42 1488.64 780.644 1489.66 780.644ZM1499.74 782.554V765.89H1502.3V782.554H1499.74ZM1501.04 763.112C1500.55 763.112 1500.12 762.943 1499.75 762.603C1499.4 762.263 1499.22 761.854 1499.22 761.377C1499.22 760.899 1499.4 760.491 1499.75 760.151C1500.12 759.811 1500.55 759.641 1501.04 759.641C1501.54 759.641 1501.97 759.811 1502.32 760.151C1502.69 760.491 1502.87 760.899 1502.87 761.377C1502.87 761.854 1502.69 762.263 1502.32 762.603C1501.97 762.943 1501.54 763.112 1501.04 763.112ZM1507.72 772.529V782.554H1505.16V765.89H1507.63V768.494H1507.85C1508.24 767.647 1508.83 766.967 1509.63 766.454C1510.42 765.933 1511.45 765.673 1512.71 765.673C1513.84 765.673 1514.83 765.904 1515.67 766.367C1516.52 766.823 1517.18 767.517 1517.65 768.45C1518.12 769.376 1518.35 770.548 1518.35 771.965V782.554H1515.79V772.139C1515.79 770.83 1515.45 769.81 1514.77 769.079C1514.09 768.342 1513.16 767.973 1511.97 767.973C1511.16 767.973 1510.42 768.15 1509.78 768.504C1509.14 768.859 1508.64 769.376 1508.27 770.056C1507.9 770.736 1507.72 771.56 1507.72 772.529ZM1526.1 782.944C1525.04 782.944 1524.09 782.745 1523.23 782.348C1522.37 781.943 1521.68 781.36 1521.18 780.601C1520.67 779.834 1520.42 778.908 1520.42 777.824C1520.42 776.869 1520.6 776.095 1520.98 775.502C1521.36 774.902 1521.86 774.432 1522.49 774.092C1523.12 773.752 1523.81 773.498 1524.57 773.332C1525.34 773.159 1526.11 773.021 1526.88 772.92C1527.89 772.79 1528.72 772.692 1529.34 772.627C1529.98 772.555 1530.44 772.435 1530.73 772.269C1531.03 772.103 1531.18 771.813 1531.18 771.401V771.314C1531.18 770.244 1530.89 769.412 1530.3 768.819C1529.72 768.226 1528.84 767.929 1527.66 767.929C1526.44 767.929 1525.48 768.197 1524.79 768.732C1524.09 769.267 1523.61 769.839 1523.32 770.446L1520.89 769.578C1521.33 768.566 1521.91 767.778 1522.63 767.213C1523.36 766.642 1524.16 766.244 1525.02 766.02C1525.88 765.789 1526.74 765.673 1527.58 765.673C1528.11 765.673 1528.73 765.738 1529.42 765.868C1530.12 765.991 1530.8 766.248 1531.45 766.638C1532.11 767.029 1532.65 767.618 1533.09 768.407C1533.52 769.195 1533.74 770.251 1533.74 771.575V782.554H1531.18V780.297H1531.05C1530.87 780.659 1530.59 781.046 1530.18 781.458C1529.78 781.87 1529.24 782.221 1528.56 782.51C1527.89 782.8 1527.07 782.944 1526.1 782.944ZM1526.49 780.644C1527.5 780.644 1528.36 780.445 1529.05 780.048C1529.75 779.65 1530.28 779.136 1530.64 778.507C1531 777.878 1531.18 777.216 1531.18 776.522V774.178C1531.07 774.309 1530.83 774.428 1530.46 774.536C1530.1 774.638 1529.68 774.728 1529.2 774.808C1528.73 774.88 1528.27 774.945 1527.83 775.003C1527.38 775.054 1527.03 775.097 1526.75 775.133C1526.09 775.22 1525.46 775.361 1524.89 775.556C1524.31 775.744 1523.85 776.03 1523.5 776.413C1523.15 776.789 1522.98 777.303 1522.98 777.954C1522.98 778.843 1523.31 779.516 1523.96 779.972C1524.63 780.42 1525.47 780.644 1526.49 780.644ZM1536.93 782.554V760.335H1539.49V768.537H1539.7C1539.89 768.248 1540.15 767.879 1540.48 767.43C1540.82 766.975 1541.31 766.57 1541.94 766.215C1542.57 765.854 1543.44 765.673 1544.52 765.673C1545.92 765.673 1547.16 766.024 1548.23 766.725C1549.3 767.427 1550.14 768.421 1550.74 769.709C1551.34 770.996 1551.64 772.515 1551.64 774.265C1551.64 776.03 1551.34 777.56 1550.74 778.854C1550.14 780.142 1549.3 781.14 1548.24 781.849C1547.18 782.55 1545.95 782.901 1544.56 782.901C1543.49 782.901 1542.64 782.724 1541.99 782.369C1541.35 782.008 1540.85 781.599 1540.51 781.143C1540.16 780.68 1539.89 780.297 1539.7 779.993H1539.4V782.554H1536.93ZM1539.44 774.222C1539.44 775.48 1539.63 776.59 1540 777.552C1540.36 778.507 1540.9 779.256 1541.61 779.798C1542.32 780.333 1543.19 780.601 1544.22 780.601C1545.29 780.601 1546.18 780.319 1546.9 779.755C1547.62 779.183 1548.16 778.417 1548.52 777.455C1548.89 776.486 1549.08 775.408 1549.08 774.222C1549.08 773.05 1548.9 771.994 1548.53 771.054C1548.18 770.106 1547.64 769.358 1546.92 768.808C1546.2 768.251 1545.3 767.973 1544.22 767.973C1543.17 767.973 1542.3 768.237 1541.59 768.765C1540.88 769.286 1540.35 770.016 1539.99 770.956C1539.62 771.889 1539.44 772.978 1539.44 774.222ZM1553.72 782.554V765.89H1556.28V782.554H1553.72ZM1555.02 763.112C1554.52 763.112 1554.09 762.943 1553.73 762.603C1553.38 762.263 1553.2 761.854 1553.2 761.377C1553.2 760.899 1553.38 760.491 1553.73 760.151C1554.09 759.811 1554.52 759.641 1555.02 759.641C1555.52 759.641 1555.95 759.811 1556.3 760.151C1556.66 760.491 1556.84 760.899 1556.84 761.377C1556.84 761.854 1556.66 762.263 1556.3 762.603C1555.95 762.943 1555.52 763.112 1555.02 763.112ZM1561.7 760.335V782.554H1559.14V760.335H1561.7ZM1564.55 782.554V765.89H1567.11V782.554H1564.55ZM1565.86 763.112C1565.36 763.112 1564.93 762.943 1564.56 762.603C1564.21 762.263 1564.03 761.854 1564.03 761.377C1564.03 760.899 1564.21 760.491 1564.56 760.151C1564.93 759.811 1565.36 759.641 1565.86 759.641C1566.35 759.641 1566.78 759.811 1567.14 760.151C1567.5 760.491 1567.68 760.899 1567.68 761.377C1567.68 761.854 1567.5 762.263 1567.14 762.603C1566.78 762.943 1566.35 763.112 1565.86 763.112ZM1577.22 765.89V768.06H1568.58V765.89H1577.22ZM1571.1 761.897H1573.66V777.78C1573.66 778.503 1573.76 779.046 1573.97 779.408C1574.19 779.762 1574.47 780.001 1574.8 780.124C1575.14 780.239 1575.5 780.297 1575.87 780.297C1576.15 780.297 1576.39 780.283 1576.57 780.254C1576.75 780.218 1576.89 780.189 1577 780.167L1577.52 782.467C1577.35 782.532 1577.11 782.597 1576.79 782.662C1576.48 782.735 1576.09 782.771 1575.61 782.771C1574.89 782.771 1574.18 782.615 1573.49 782.304C1572.8 781.993 1572.23 781.519 1571.77 780.883C1571.32 780.247 1571.1 779.444 1571.1 778.475V761.897ZM1580.89 788.803C1580.45 788.803 1580.06 788.767 1579.72 788.694C1579.38 788.629 1579.15 788.564 1579.02 788.499L1579.67 786.242C1580.29 786.401 1580.84 786.459 1581.32 786.416C1581.8 786.373 1582.22 786.159 1582.59 785.776C1582.96 785.4 1583.31 784.789 1583.62 783.942L1584.1 782.641L1577.93 765.89H1580.71L1585.31 779.169H1585.49L1590.08 765.89H1592.86L1585.79 784.984C1585.47 785.845 1585.08 786.557 1584.61 787.121C1584.14 787.692 1583.59 788.116 1582.97 788.39C1582.35 788.665 1581.66 788.803 1580.89 788.803ZM1600.8 782.901C1599.19 782.901 1597.81 782.546 1596.64 781.838C1595.49 781.122 1594.59 780.124 1593.96 778.843C1593.34 777.556 1593.03 776.059 1593.03 774.352C1593.03 772.645 1593.34 771.141 1593.96 769.839C1594.59 768.53 1595.47 767.51 1596.59 766.779C1597.72 766.042 1599.03 765.673 1600.54 765.673C1601.41 765.673 1602.26 765.817 1603.11 766.107C1603.96 766.396 1604.73 766.866 1605.42 767.517C1606.11 768.161 1606.67 769.014 1607.08 770.077C1607.49 771.141 1607.7 772.45 1607.7 774.005V775.09H1594.85V772.876H1605.09C1605.09 771.936 1604.91 771.097 1604.53 770.36C1604.16 769.622 1603.63 769.04 1602.95 768.613C1602.27 768.186 1601.46 767.973 1600.54 767.973C1599.52 767.973 1598.64 768.226 1597.89 768.732C1597.15 769.231 1596.59 769.882 1596.19 770.685C1595.79 771.488 1595.59 772.349 1595.59 773.267V774.743C1595.59 776.001 1595.81 777.068 1596.24 777.943C1596.68 778.811 1597.29 779.473 1598.08 779.928C1598.86 780.377 1599.76 780.601 1600.8 780.601C1601.47 780.601 1602.08 780.507 1602.62 780.319C1603.17 780.124 1603.64 779.834 1604.04 779.451C1604.44 779.06 1604.75 778.576 1604.96 777.997L1607.44 778.692C1607.18 779.53 1606.74 780.268 1606.13 780.905C1605.51 781.534 1604.75 782.026 1603.85 782.38C1602.94 782.727 1601.93 782.901 1600.8 782.901ZM1616.53 782.901C1614.97 782.901 1613.62 782.532 1612.49 781.794C1611.37 781.057 1610.5 780.04 1609.89 778.746C1609.28 777.451 1608.98 775.972 1608.98 774.309C1608.98 772.616 1609.29 771.123 1609.91 769.828C1610.54 768.526 1611.42 767.51 1612.54 766.779C1613.67 766.042 1614.98 765.673 1616.49 765.673C1617.66 765.673 1618.71 765.89 1619.65 766.324C1620.59 766.758 1621.37 767.365 1621.97 768.146C1622.57 768.927 1622.94 769.839 1623.08 770.88H1620.52C1620.33 770.121 1619.89 769.448 1619.22 768.862C1618.56 768.269 1617.66 767.973 1616.53 767.973C1615.53 767.973 1614.66 768.233 1613.9 768.754C1613.16 769.267 1612.58 769.994 1612.16 770.935C1611.75 771.868 1611.54 772.963 1611.54 774.222C1611.54 775.509 1611.74 776.63 1612.15 777.585C1612.56 778.54 1613.14 779.281 1613.88 779.809C1614.64 780.337 1615.52 780.601 1616.53 780.601C1617.2 780.601 1617.8 780.485 1618.34 780.254C1618.88 780.022 1619.34 779.69 1619.72 779.256C1620.1 778.822 1620.36 778.301 1620.52 777.693H1623.08C1622.94 778.677 1622.58 779.563 1622.01 780.351C1621.44 781.133 1620.7 781.755 1619.76 782.217C1618.84 782.673 1617.76 782.901 1616.53 782.901ZM1631.76 782.901C1630.26 782.901 1628.94 782.543 1627.8 781.827C1626.67 781.111 1625.79 780.109 1625.16 778.822C1624.53 777.534 1624.21 776.03 1624.21 774.309C1624.21 772.573 1624.53 771.057 1625.16 769.763C1625.79 768.468 1626.67 767.463 1627.8 766.747C1628.94 766.031 1630.26 765.673 1631.76 765.673C1633.27 765.673 1634.58 766.031 1635.71 766.747C1636.85 767.463 1637.73 768.468 1638.36 769.763C1638.99 771.057 1639.31 772.573 1639.31 774.309C1639.31 776.03 1638.99 777.534 1638.36 778.822C1637.73 780.109 1636.85 781.111 1635.71 781.827C1634.58 782.543 1633.27 782.901 1631.76 782.901ZM1631.76 780.601C1632.91 780.601 1633.85 780.308 1634.58 779.722C1635.32 779.136 1635.87 778.366 1636.22 777.411C1636.58 776.457 1636.75 775.422 1636.75 774.309C1636.75 773.195 1636.58 772.157 1636.22 771.195C1635.87 770.233 1635.32 769.455 1634.58 768.862C1633.85 768.269 1632.91 767.973 1631.76 767.973C1630.62 767.973 1629.68 768.269 1628.94 768.862C1628.2 769.455 1627.66 770.233 1627.3 771.195C1626.95 772.157 1626.77 773.195 1626.77 774.309C1626.77 775.422 1626.95 776.457 1627.3 777.411C1627.66 778.366 1628.2 779.136 1628.94 779.722C1629.68 780.308 1630.62 780.601 1631.76 780.601ZM1643.95 772.529V782.554H1641.39V765.89H1643.86V768.494H1644.08C1644.47 767.647 1645.06 766.967 1645.86 766.454C1646.65 765.933 1647.68 765.673 1648.94 765.673C1650.07 765.673 1651.05 765.904 1651.9 766.367C1652.75 766.823 1653.41 767.517 1653.88 768.45C1654.35 769.376 1654.58 770.548 1654.58 771.965V782.554H1652.02V772.139C1652.02 770.83 1651.68 769.81 1651 769.079C1650.32 768.342 1649.39 767.973 1648.2 767.973C1647.38 767.973 1646.65 768.15 1646.01 768.504C1645.37 768.859 1644.87 769.376 1644.5 770.056C1644.13 770.736 1643.95 771.56 1643.95 772.529ZM1664.2 782.901C1662.69 782.901 1661.37 782.543 1660.24 781.827C1659.11 781.111 1658.23 780.109 1657.59 778.822C1656.96 777.534 1656.65 776.03 1656.65 774.309C1656.65 772.573 1656.96 771.057 1657.59 769.763C1658.23 768.468 1659.11 767.463 1660.24 766.747C1661.37 766.031 1662.69 765.673 1664.2 765.673C1665.7 765.673 1667.02 766.031 1668.14 766.747C1669.28 767.463 1670.16 768.468 1670.79 769.763C1671.43 771.057 1671.75 772.573 1671.75 774.309C1671.75 776.03 1671.43 777.534 1670.79 778.822C1670.16 780.109 1669.28 781.111 1668.14 781.827C1667.02 782.543 1665.7 782.901 1664.2 782.901ZM1664.2 780.601C1665.34 780.601 1666.28 780.308 1667.02 779.722C1667.75 779.136 1668.3 778.366 1668.65 777.411C1669.01 776.457 1669.19 775.422 1669.19 774.309C1669.19 773.195 1669.01 772.157 1668.65 771.195C1668.3 770.233 1667.75 769.455 1667.02 768.862C1666.28 768.269 1665.34 767.973 1664.2 767.973C1663.05 767.973 1662.11 768.269 1661.38 768.862C1660.64 769.455 1660.09 770.233 1659.74 771.195C1659.38 772.157 1659.21 773.195 1659.21 774.309C1659.21 775.422 1659.38 776.457 1659.74 777.411C1660.09 778.366 1660.64 779.136 1661.38 779.722C1662.11 780.308 1663.05 780.601 1664.2 780.601ZM1673.82 782.554V765.89H1676.3V768.494H1676.51C1676.86 767.604 1677.42 766.913 1678.19 766.421C1678.97 765.922 1679.9 765.673 1680.98 765.673C1682.08 765.673 1683 765.922 1683.73 766.421C1684.46 766.913 1685.04 767.604 1685.45 768.494H1685.63C1686.05 767.633 1686.69 766.949 1687.55 766.443C1688.4 765.93 1689.42 765.673 1690.62 765.673C1692.11 765.673 1693.32 766.139 1694.27 767.072C1695.22 767.998 1695.69 769.441 1695.69 771.401V782.554H1693.13V771.401C1693.13 770.171 1692.8 769.293 1692.12 768.765C1691.45 768.237 1690.66 767.973 1689.75 767.973C1688.58 767.973 1687.67 768.327 1687.03 769.036C1686.38 769.738 1686.06 770.627 1686.06 771.705V782.554H1683.46V771.141C1683.46 770.193 1683.15 769.43 1682.53 768.852C1681.92 768.266 1681.13 767.973 1680.16 767.973C1679.49 767.973 1678.87 768.15 1678.29 768.504C1677.72 768.859 1677.26 769.351 1676.9 769.98C1676.56 770.602 1676.38 771.321 1676.38 772.139V782.554H1673.82ZM1698.54 782.554V765.89H1701.1V782.554H1698.54ZM1699.84 763.112C1699.34 763.112 1698.91 762.943 1698.55 762.603C1698.2 762.263 1698.02 761.854 1698.02 761.377C1698.02 760.899 1698.2 760.491 1698.55 760.151C1698.91 759.811 1699.34 759.641 1699.84 759.641C1700.34 759.641 1700.77 759.811 1701.12 760.151C1701.49 760.491 1701.67 760.899 1701.67 761.377C1701.67 761.854 1701.49 762.263 1701.12 762.603C1700.77 762.943 1700.34 763.112 1699.84 763.112ZM1710.73 782.901C1709.17 782.901 1707.82 782.532 1706.69 781.794C1705.56 781.057 1704.7 780.04 1704.09 778.746C1703.48 777.451 1703.18 775.972 1703.18 774.309C1703.18 772.616 1703.49 771.123 1704.11 769.828C1704.74 768.526 1705.61 767.51 1706.74 766.779C1707.86 766.042 1709.18 765.673 1710.68 765.673C1711.86 765.673 1712.91 765.89 1713.85 766.324C1714.79 766.758 1715.56 767.365 1716.16 768.146C1716.76 768.927 1717.14 769.839 1717.28 770.88H1714.72C1714.53 770.121 1714.09 769.448 1713.42 768.862C1712.75 768.269 1711.86 767.973 1710.73 767.973C1709.73 767.973 1708.85 768.233 1708.1 768.754C1707.36 769.267 1706.78 769.994 1706.36 770.935C1705.94 771.868 1705.74 772.963 1705.74 774.222C1705.74 775.509 1705.94 776.63 1706.35 777.585C1706.76 778.54 1707.34 779.281 1708.08 779.809C1708.83 780.337 1709.72 780.601 1710.73 780.601C1711.39 780.601 1712 780.485 1712.54 780.254C1713.08 780.022 1713.54 779.69 1713.92 779.256C1714.29 778.822 1714.56 778.301 1714.72 777.693H1717.28C1717.14 778.677 1716.78 779.563 1716.21 780.351C1715.64 781.133 1714.89 781.755 1713.96 782.217C1713.04 782.673 1711.96 782.901 1710.73 782.901ZM1730.99 769.622L1728.69 770.273C1728.55 769.889 1728.34 769.517 1728.05 769.155C1727.78 768.786 1727.4 768.483 1726.93 768.244C1726.45 768.005 1725.84 767.886 1725.09 767.886C1724.07 767.886 1723.22 768.121 1722.54 768.591C1721.87 769.054 1721.53 769.644 1721.53 770.36C1721.53 770.996 1721.77 771.499 1722.23 771.868C1722.69 772.236 1723.41 772.544 1724.4 772.79L1726.87 773.397C1728.36 773.759 1729.47 774.312 1730.2 775.057C1730.93 775.795 1731.3 776.746 1731.3 777.91C1731.3 778.865 1731.02 779.719 1730.47 780.471C1729.93 781.223 1729.17 781.816 1728.2 782.25C1727.22 782.684 1726.08 782.901 1724.79 782.901C1723.09 782.901 1721.68 782.532 1720.57 781.794C1719.45 781.057 1718.75 779.979 1718.45 778.561L1720.88 777.954C1721.11 778.851 1721.55 779.523 1722.2 779.972C1722.85 780.42 1723.7 780.644 1724.75 780.644C1725.94 780.644 1726.89 780.391 1727.59 779.885C1728.3 779.371 1728.65 778.757 1728.65 778.041C1728.65 777.462 1728.45 776.977 1728.04 776.587C1727.64 776.189 1727.02 775.892 1726.18 775.697L1723.4 775.046C1721.87 774.685 1720.75 774.124 1720.04 773.365C1719.33 772.598 1718.97 771.64 1718.97 770.49C1718.97 769.549 1719.24 768.718 1719.77 767.994C1720.3 767.271 1721.03 766.703 1721.95 766.291C1722.87 765.879 1723.92 765.673 1725.09 765.673C1726.74 765.673 1728.04 766.034 1728.98 766.758C1729.92 767.481 1730.6 768.436 1730.99 769.622ZM1741.17 759.294L1734.01 785.895H1731.67L1738.83 759.294H1741.17ZM1760.34 760.335V782.554H1757.74L1745.63 765.109H1745.41V782.554H1742.72V760.335H1745.33L1757.48 777.824H1757.69V760.335H1760.34ZM1770.53 782.901C1768.93 782.901 1767.54 782.546 1766.38 781.838C1765.22 781.122 1764.33 780.124 1763.7 778.843C1763.07 777.556 1762.76 776.059 1762.76 774.352C1762.76 772.645 1763.07 771.141 1763.7 769.839C1764.33 768.53 1765.2 767.51 1766.32 766.779C1767.45 766.042 1768.77 765.673 1770.27 765.673C1771.14 765.673 1772 765.817 1772.84 766.107C1773.69 766.396 1774.46 766.866 1775.15 767.517C1775.85 768.161 1776.4 769.014 1776.81 770.077C1777.23 771.141 1777.43 772.45 1777.43 774.005V775.09H1764.59V772.876H1774.83C1774.83 771.936 1774.64 771.097 1774.26 770.36C1773.89 769.622 1773.37 769.04 1772.68 768.613C1772 768.186 1771.2 767.973 1770.27 767.973C1769.25 767.973 1768.37 768.226 1767.62 768.732C1766.89 769.231 1766.32 769.882 1765.92 770.685C1765.52 771.488 1765.32 772.349 1765.32 773.267V774.743C1765.32 776.001 1765.54 777.068 1765.98 777.943C1766.42 778.811 1767.03 779.473 1767.81 779.928C1768.59 780.377 1769.5 780.601 1770.53 780.601C1771.2 780.601 1771.81 780.507 1772.35 780.319C1772.9 780.124 1773.38 779.834 1773.78 779.451C1774.17 779.06 1774.48 778.576 1774.7 777.997L1777.17 778.692C1776.91 779.53 1776.47 780.268 1775.86 780.905C1775.24 781.534 1774.48 782.026 1773.58 782.38C1772.68 782.727 1771.66 782.901 1770.53 782.901ZM1786.74 765.89V768.06H1778.1V765.89H1786.74ZM1780.62 761.897H1783.18V777.78C1783.18 778.503 1783.29 779.046 1783.5 779.408C1783.71 779.762 1783.99 780.001 1784.32 780.124C1784.66 780.239 1785.02 780.297 1785.4 780.297C1785.68 780.297 1785.91 780.283 1786.09 780.254C1786.27 780.218 1786.41 780.189 1786.52 780.167L1787.04 782.467C1786.87 782.532 1786.63 782.597 1786.32 782.662C1786.01 782.735 1785.61 782.771 1785.13 782.771C1784.41 782.771 1783.7 782.615 1783.01 782.304C1782.32 781.993 1781.75 781.519 1781.29 780.883C1780.85 780.247 1780.62 779.444 1780.62 778.475V761.897ZM1788.28 782.554V780.601L1797.74 768.45V768.277H1788.59V765.89H1801.04V767.929L1791.84 779.993V780.167H1801.34V782.554H1788.28ZM1809.96 782.901C1808.36 782.901 1806.97 782.546 1805.81 781.838C1804.65 781.122 1803.76 780.124 1803.13 778.843C1802.51 777.556 1802.2 776.059 1802.2 774.352C1802.2 772.645 1802.51 771.141 1803.13 769.839C1803.76 768.53 1804.63 767.51 1805.75 766.779C1806.88 766.042 1808.2 765.673 1809.7 765.673C1810.57 765.673 1811.43 765.817 1812.27 766.107C1813.12 766.396 1813.89 766.866 1814.59 767.517C1815.28 768.161 1815.83 769.014 1816.24 770.077C1816.66 771.141 1816.86 772.45 1816.86 774.005V775.09H1804.02V772.876H1814.26C1814.26 771.936 1814.07 771.097 1813.7 770.36C1813.33 769.622 1812.8 769.04 1812.11 768.613C1811.43 768.186 1810.63 767.973 1809.7 767.973C1808.68 767.973 1807.8 768.226 1807.06 768.732C1806.32 769.231 1805.75 769.882 1805.35 770.685C1804.95 771.488 1804.76 772.349 1804.76 773.267V774.743C1804.76 776.001 1804.97 777.068 1805.41 777.943C1805.85 778.811 1806.46 779.473 1807.24 779.928C1808.02 780.377 1808.93 780.601 1809.96 780.601C1810.64 780.601 1811.24 780.507 1811.79 780.319C1812.34 780.124 1812.81 779.834 1813.21 779.451C1813.6 779.06 1813.91 778.576 1814.13 777.997L1816.6 778.692C1816.34 779.53 1815.9 780.268 1815.29 780.905C1814.68 781.534 1813.92 782.026 1813.01 782.38C1812.11 782.727 1811.09 782.901 1809.96 782.901ZM1818.93 782.554V765.89H1821.4V768.407H1821.57C1821.88 767.582 1822.43 766.913 1823.22 766.4C1824.02 765.886 1824.91 765.629 1825.91 765.629C1826.1 765.629 1826.33 765.633 1826.62 765.64C1826.9 765.648 1827.11 765.658 1827.26 765.673V768.277C1827.17 768.255 1826.97 768.222 1826.66 768.179C1826.36 768.128 1826.03 768.103 1825.69 768.103C1824.88 768.103 1824.16 768.273 1823.52 768.613C1822.9 768.946 1822.4 769.408 1822.03 770.002C1821.67 770.587 1821.49 771.256 1821.49 772.009V782.554H1818.93ZM1834.72 782.901C1833.22 782.901 1831.9 782.543 1830.76 781.827C1829.63 781.111 1828.75 780.109 1828.11 778.822C1827.49 777.534 1827.17 776.03 1827.17 774.309C1827.17 772.573 1827.49 771.057 1828.11 769.763C1828.75 768.468 1829.63 767.463 1830.76 766.747C1831.9 766.031 1833.22 765.673 1834.72 765.673C1836.23 765.673 1837.54 766.031 1838.67 766.747C1839.81 767.463 1840.69 768.468 1841.32 769.763C1841.95 771.057 1842.27 772.573 1842.27 774.309C1842.27 776.03 1841.95 777.534 1841.32 778.822C1840.69 780.109 1839.81 781.111 1838.67 781.827C1837.54 782.543 1836.23 782.901 1834.72 782.901ZM1834.72 780.601C1835.86 780.601 1836.8 780.308 1837.54 779.722C1838.28 779.136 1838.83 778.366 1839.18 777.411C1839.53 776.457 1839.71 775.422 1839.71 774.309C1839.71 773.195 1839.53 772.157 1839.18 771.195C1838.83 770.233 1838.28 769.455 1837.54 768.862C1836.8 768.269 1835.86 767.973 1834.72 767.973C1833.58 767.973 1832.64 768.269 1831.9 768.862C1831.16 769.455 1830.62 770.233 1830.26 771.195C1829.91 772.157 1829.73 773.195 1829.73 774.309C1829.73 775.422 1829.91 776.457 1830.26 777.411C1830.62 778.366 1831.16 779.136 1831.9 779.722C1832.64 780.308 1833.58 780.601 1834.72 780.601ZM1851.59 765.89V768.06H1842.96V765.89H1851.59ZM1845.48 761.897H1848.04V777.78C1848.04 778.503 1848.14 779.046 1848.35 779.408C1848.57 779.762 1848.84 780.001 1849.18 780.124C1849.52 780.239 1849.87 780.297 1850.25 780.297C1850.53 780.297 1850.76 780.283 1850.94 780.254C1851.12 780.218 1851.27 780.189 1851.38 780.167L1851.9 782.467C1851.72 782.532 1851.48 782.597 1851.17 782.662C1850.86 782.735 1850.47 782.771 1849.99 782.771C1849.27 782.771 1848.56 782.615 1847.86 782.304C1847.18 781.993 1846.6 781.519 1846.15 780.883C1845.7 780.247 1845.48 779.444 1845.48 778.475V761.897ZM1853.61 782.554V765.89H1856.09V768.407H1856.26C1856.56 767.582 1857.11 766.913 1857.91 766.4C1858.7 765.886 1859.6 765.629 1860.6 765.629C1860.79 765.629 1861.02 765.633 1861.3 765.64C1861.59 765.648 1861.8 765.658 1861.94 765.673V768.277C1861.86 768.255 1861.66 768.222 1861.35 768.179C1861.04 768.128 1860.72 768.103 1860.38 768.103C1859.57 768.103 1858.85 768.273 1858.21 768.613C1857.58 768.946 1857.08 769.408 1856.72 770.002C1856.35 770.587 1856.17 771.256 1856.17 772.009V782.554H1853.61ZM1868.05 782.944C1866.99 782.944 1866.04 782.745 1865.18 782.348C1864.31 781.943 1863.63 781.36 1863.13 780.601C1862.62 779.834 1862.37 778.908 1862.37 777.824C1862.37 776.869 1862.55 776.095 1862.93 775.502C1863.31 774.902 1863.81 774.432 1864.44 774.092C1865.07 773.752 1865.76 773.498 1866.52 773.332C1867.29 773.159 1868.06 773.021 1868.83 772.92C1869.84 772.79 1870.67 772.692 1871.29 772.627C1871.93 772.555 1872.39 772.435 1872.68 772.269C1872.98 772.103 1873.13 771.813 1873.13 771.401V771.314C1873.13 770.244 1872.83 769.412 1872.25 768.819C1871.67 768.226 1870.79 767.929 1869.61 767.929C1868.39 767.929 1867.43 768.197 1866.74 768.732C1866.04 769.267 1865.56 769.839 1865.27 770.446L1862.84 769.578C1863.28 768.566 1863.86 767.778 1864.58 767.213C1865.31 766.642 1866.1 766.244 1866.97 766.02C1867.83 765.789 1868.69 765.673 1869.53 765.673C1870.06 765.673 1870.68 765.738 1871.37 765.868C1872.07 765.991 1872.75 766.248 1873.4 766.638C1874.06 767.029 1874.6 767.618 1875.04 768.407C1875.47 769.195 1875.69 770.251 1875.69 771.575V782.554H1873.13V780.297H1873C1872.82 780.659 1872.53 781.046 1872.13 781.458C1871.72 781.87 1871.19 782.221 1870.51 782.51C1869.84 782.8 1869.02 782.944 1868.05 782.944ZM1868.44 780.644C1869.45 780.644 1870.31 780.445 1871 780.048C1871.7 779.65 1872.23 779.136 1872.59 778.507C1872.95 777.878 1873.13 777.216 1873.13 776.522V774.178C1873.02 774.309 1872.78 774.428 1872.41 774.536C1872.05 774.638 1871.63 774.728 1871.15 774.808C1870.68 774.88 1870.22 774.945 1869.78 775.003C1869.33 775.054 1868.98 775.097 1868.7 775.133C1868.04 775.22 1867.41 775.361 1866.84 775.556C1866.26 775.744 1865.8 776.03 1865.45 776.413C1865.1 776.789 1864.93 777.303 1864.93 777.954C1864.93 778.843 1865.26 779.516 1865.91 779.972C1866.58 780.42 1867.42 780.644 1868.44 780.644ZM1881.09 772.529V782.554H1878.53V765.89H1881V768.494H1881.22C1881.61 767.647 1882.2 766.967 1883 766.454C1883.79 765.933 1884.82 765.673 1886.08 765.673C1887.21 765.673 1888.19 765.904 1889.04 766.367C1889.89 766.823 1890.55 767.517 1891.02 768.45C1891.49 769.376 1891.72 770.548 1891.72 771.965V782.554H1889.16V772.139C1889.16 770.83 1888.82 769.81 1888.14 769.079C1887.46 768.342 1886.53 767.973 1885.34 767.973C1884.52 767.973 1883.79 768.15 1883.15 768.504C1882.51 768.859 1882.01 769.376 1881.64 770.056C1881.27 770.736 1881.09 771.56 1881.09 772.529ZM1906.37 769.622L1904.07 770.273C1903.93 769.889 1903.71 769.517 1903.43 769.155C1903.15 768.786 1902.78 768.483 1902.3 768.244C1901.82 768.005 1901.21 767.886 1900.47 767.886C1899.45 767.886 1898.6 768.121 1897.92 768.591C1897.25 769.054 1896.91 769.644 1896.91 770.36C1896.91 770.996 1897.14 771.499 1897.6 771.868C1898.07 772.236 1898.79 772.544 1899.77 772.79L1902.25 773.397C1903.74 773.759 1904.85 774.312 1905.58 775.057C1906.31 775.795 1906.67 776.746 1906.67 777.91C1906.67 778.865 1906.4 779.719 1905.85 780.471C1905.31 781.223 1904.55 781.816 1903.57 782.25C1902.59 782.684 1901.46 782.901 1900.16 782.901C1898.46 782.901 1897.06 782.532 1895.94 781.794C1894.83 781.057 1894.12 779.979 1893.83 778.561L1896.26 777.954C1896.49 778.851 1896.93 779.523 1897.57 779.972C1898.22 780.42 1899.07 780.644 1900.12 780.644C1901.31 780.644 1902.26 780.391 1902.96 779.885C1903.67 779.371 1904.03 778.757 1904.03 778.041C1904.03 777.462 1903.82 776.977 1903.42 776.587C1903.01 776.189 1902.39 775.892 1901.55 775.697L1898.78 775.046C1897.25 774.685 1896.13 774.124 1895.41 773.365C1894.7 772.598 1894.35 771.64 1894.35 770.49C1894.35 769.549 1894.61 768.718 1895.14 767.994C1895.68 767.271 1896.4 766.703 1897.32 766.291C1898.25 765.879 1899.3 765.673 1900.47 765.673C1902.12 765.673 1903.41 766.034 1904.35 766.758C1905.3 767.481 1905.97 768.436 1906.37 769.622ZM1908.69 782.554V765.89H1911.25V782.554H1908.69ZM1910 763.112C1909.5 763.112 1909.07 762.943 1908.71 762.603C1908.35 762.263 1908.17 761.854 1908.17 761.377C1908.17 760.899 1908.35 760.491 1908.71 760.151C1909.07 759.811 1909.5 759.641 1910 759.641C1910.5 759.641 1910.92 759.811 1911.28 760.151C1911.64 760.491 1911.82 760.899 1911.82 761.377C1911.82 761.854 1911.64 762.263 1911.28 762.603C1910.92 762.943 1910.5 763.112 1910 763.112ZM1921.36 765.89V768.06H1912.72V765.89H1921.36ZM1915.24 761.897H1917.8V777.78C1917.8 778.503 1917.9 779.046 1918.11 779.408C1918.33 779.762 1918.61 780.001 1918.94 780.124C1919.28 780.239 1919.64 780.297 1920.01 780.297C1920.3 780.297 1920.53 780.283 1920.71 780.254C1920.89 780.218 1921.03 780.189 1921.14 780.167L1921.66 782.467C1921.49 782.532 1921.25 782.597 1920.94 782.662C1920.62 782.735 1920.23 782.771 1919.75 782.771C1919.03 782.771 1918.32 782.615 1917.63 782.304C1916.94 781.993 1916.37 781.519 1915.91 780.883C1915.46 780.247 1915.24 779.444 1915.24 778.475V761.897ZM1923.38 782.554V765.89H1925.94V782.554H1923.38ZM1924.68 763.112C1924.18 763.112 1923.75 762.943 1923.39 762.603C1923.03 762.263 1922.86 761.854 1922.86 761.377C1922.86 760.899 1923.03 760.491 1923.39 760.151C1923.75 759.811 1924.18 759.641 1924.68 759.641C1925.18 759.641 1925.6 759.811 1925.96 760.151C1926.32 760.491 1926.5 760.899 1926.5 761.377C1926.5 761.854 1926.32 762.263 1925.96 762.603C1925.6 762.943 1925.18 763.112 1924.68 763.112ZM1935.56 782.901C1934.06 782.901 1932.74 782.543 1931.6 781.827C1930.48 781.111 1929.59 780.109 1928.96 778.822C1928.33 777.534 1928.01 776.03 1928.01 774.309C1928.01 772.573 1928.33 771.057 1928.96 769.763C1929.59 768.468 1930.48 767.463 1931.6 766.747C1932.74 766.031 1934.06 765.673 1935.56 765.673C1937.07 765.673 1938.38 766.031 1939.51 766.747C1940.65 767.463 1941.53 768.468 1942.16 769.763C1942.8 771.057 1943.11 772.573 1943.11 774.309C1943.11 776.03 1942.8 777.534 1942.16 778.822C1941.53 780.109 1940.65 781.111 1939.51 781.827C1938.38 782.543 1937.07 782.901 1935.56 782.901ZM1935.56 780.601C1936.71 780.601 1937.65 780.308 1938.38 779.722C1939.12 779.136 1939.67 778.366 1940.02 777.411C1940.38 776.457 1940.55 775.422 1940.55 774.309C1940.55 773.195 1940.38 772.157 1940.02 771.195C1939.67 770.233 1939.12 769.455 1938.38 768.862C1937.65 768.269 1936.71 767.973 1935.56 767.973C1934.42 767.973 1933.48 768.269 1932.74 768.862C1932 769.455 1931.46 770.233 1931.1 771.195C1930.75 772.157 1930.57 773.195 1930.57 774.309C1930.57 775.422 1930.75 776.457 1931.1 777.411C1931.46 778.366 1932 779.136 1932.74 779.722C1933.48 780.308 1934.42 780.601 1935.56 780.601ZM1947.75 772.529V782.554H1945.19V765.89H1947.66V768.494H1947.88C1948.27 767.647 1948.86 766.967 1949.66 766.454C1950.45 765.933 1951.48 765.673 1952.74 765.673C1953.87 765.673 1954.86 765.904 1955.7 766.367C1956.55 766.823 1957.21 767.517 1957.68 768.45C1958.15 769.376 1958.38 770.548 1958.38 771.965V782.554H1955.82V772.139C1955.82 770.83 1955.48 769.81 1954.8 769.079C1954.12 768.342 1953.19 767.973 1952 767.973C1951.19 767.973 1950.45 768.15 1949.81 768.504C1949.17 768.859 1948.67 769.376 1948.3 770.056C1947.93 770.736 1947.75 771.56 1947.75 772.529ZM1961.23 788.803V765.89H1963.7V768.537H1964C1964.19 768.248 1964.45 767.879 1964.79 767.43C1965.13 766.975 1965.61 766.57 1966.24 766.215C1966.88 765.854 1967.74 765.673 1968.82 765.673C1970.22 765.673 1971.46 766.024 1972.53 766.725C1973.6 767.427 1974.44 768.421 1975.04 769.709C1975.64 770.996 1975.94 772.515 1975.94 774.265C1975.94 776.03 1975.64 777.56 1975.04 778.854C1974.44 780.142 1973.61 781.14 1972.54 781.849C1971.48 782.55 1970.25 782.901 1968.86 782.901C1967.79 782.901 1966.94 782.724 1966.29 782.369C1965.65 782.008 1965.15 781.599 1964.81 781.143C1964.46 780.68 1964.19 780.297 1964 779.993H1963.79V788.803H1961.23ZM1963.74 774.222C1963.74 775.48 1963.93 776.59 1964.3 777.552C1964.67 778.507 1965.21 779.256 1965.91 779.798C1966.62 780.333 1967.49 780.601 1968.52 780.601C1969.59 780.601 1970.48 780.319 1971.2 779.755C1971.92 779.183 1972.46 778.417 1972.82 777.455C1973.19 776.486 1973.38 775.408 1973.38 774.222C1973.38 773.05 1973.2 771.994 1972.84 771.054C1972.48 770.106 1971.94 769.358 1971.22 768.808C1970.5 768.251 1969.6 767.973 1968.52 767.973C1967.48 767.973 1966.6 768.237 1965.89 768.765C1965.18 769.286 1964.65 770.016 1964.29 770.956C1963.92 771.889 1963.74 772.978 1963.74 774.222ZM1982.91 782.944C1981.86 782.944 1980.9 782.745 1980.04 782.348C1979.18 781.943 1978.5 781.36 1977.99 780.601C1977.48 779.834 1977.23 778.908 1977.23 777.824C1977.23 776.869 1977.42 776.095 1977.79 775.502C1978.17 774.902 1978.67 774.432 1979.3 774.092C1979.93 773.752 1980.63 773.498 1981.38 773.332C1982.15 773.159 1982.92 773.021 1983.7 772.92C1984.71 772.79 1985.53 772.692 1986.16 772.627C1986.79 772.555 1987.26 772.435 1987.55 772.269C1987.84 772.103 1987.99 771.813 1987.99 771.401V771.314C1987.99 770.244 1987.7 769.412 1987.11 768.819C1986.53 768.226 1985.66 767.929 1984.48 767.929C1983.25 767.929 1982.3 768.197 1981.6 768.732C1980.91 769.267 1980.42 769.839 1980.14 770.446L1977.71 769.578C1978.14 768.566 1978.72 767.778 1979.44 767.213C1980.17 766.642 1980.97 766.244 1981.83 766.02C1982.7 765.789 1983.55 765.673 1984.39 765.673C1984.93 765.673 1985.54 765.738 1986.23 765.868C1986.94 765.991 1987.61 766.248 1988.26 766.638C1988.92 767.029 1989.47 767.618 1989.9 768.407C1990.34 769.195 1990.55 770.251 1990.55 771.575V782.554H1987.99V780.297H1987.86C1987.69 780.659 1987.4 781.046 1986.99 781.458C1986.59 781.87 1986.05 782.221 1985.38 782.51C1984.7 782.8 1983.88 782.944 1982.91 782.944ZM1983.31 780.644C1984.32 780.644 1985.17 780.445 1985.87 780.048C1986.57 779.65 1987.09 779.136 1987.45 778.507C1987.81 777.878 1987.99 777.216 1987.99 776.522V774.178C1987.88 774.309 1987.64 774.428 1987.28 774.536C1986.91 774.638 1986.49 774.728 1986.02 774.808C1985.55 774.88 1985.09 774.945 1984.64 775.003C1984.2 775.054 1983.84 775.097 1983.57 775.133C1982.9 775.22 1982.28 775.361 1981.7 775.556C1981.13 775.744 1980.67 776.03 1980.31 776.413C1979.96 776.789 1979.79 777.303 1979.79 777.954C1979.79 778.843 1980.12 779.516 1980.78 779.972C1981.44 780.42 1982.29 780.644 1983.31 780.644ZM1993.39 782.554V765.89H1995.87V768.407H1996.04C1996.34 767.582 1996.89 766.913 1997.69 766.4C1998.48 765.886 1999.38 765.629 2000.38 765.629C2000.57 765.629 2000.8 765.633 2001.08 765.64C2001.37 765.648 2001.58 765.658 2001.72 765.673V768.277C2001.64 768.255 2001.44 768.222 2001.13 768.179C2000.82 768.128 2000.5 768.103 2000.16 768.103C1999.35 768.103 1998.63 768.273 1997.99 768.613C1997.36 768.946 1996.86 769.408 1996.5 770.002C1996.13 770.587 1995.95 771.256 1995.95 772.009V782.554H1993.39ZM2011.22 765.89V768.06H2002.58V765.89H2011.22ZM2005.1 761.897H2007.66V777.78C2007.66 778.503 2007.76 779.046 2007.97 779.408C2008.19 779.762 2008.47 780.001 2008.8 780.124C2009.14 780.239 2009.5 780.297 2009.87 780.297C2010.15 780.297 2010.39 780.283 2010.57 780.254C2010.75 780.218 2010.89 780.189 2011 780.167L2011.52 782.467C2011.35 782.532 2011.11 782.597 2010.79 782.662C2010.48 782.735 2010.09 782.771 2009.61 782.771C2008.89 782.771 2008.18 782.615 2007.49 782.304C2006.8 781.993 2006.23 781.519 2005.77 780.883C2005.32 780.247 2005.1 779.444 2005.1 778.475V761.897ZM2015.8 772.529V782.554H2013.24V765.89H2015.71V768.494H2015.93C2016.32 767.647 2016.91 766.967 2017.71 766.454C2018.5 765.933 2019.53 765.673 2020.79 765.673C2021.91 765.673 2022.9 765.904 2023.75 766.367C2024.59 766.823 2025.25 767.517 2025.72 768.45C2026.19 769.376 2026.43 770.548 2026.43 771.965V782.554H2023.87V772.139C2023.87 770.83 2023.53 769.81 2022.85 769.079C2022.17 768.342 2021.24 767.973 2020.05 767.973C2019.23 767.973 2018.5 768.15 2017.86 768.504C2017.22 768.859 2016.72 769.376 2016.35 770.056C2015.98 770.736 2015.8 771.56 2015.8 772.529ZM2036.26 782.901C2034.65 782.901 2033.27 782.546 2032.11 781.838C2030.95 781.122 2030.05 780.124 2029.43 778.843C2028.8 777.556 2028.49 776.059 2028.49 774.352C2028.49 772.645 2028.8 771.141 2029.43 769.839C2030.05 768.53 2030.93 767.51 2032.05 766.779C2033.18 766.042 2034.5 765.673 2036 765.673C2036.87 765.673 2037.72 765.817 2038.57 766.107C2039.42 766.396 2040.19 766.866 2040.88 767.517C2041.58 768.161 2042.13 769.014 2042.54 770.077C2042.95 771.141 2043.16 772.45 2043.16 774.005V775.09H2030.32V772.876H2040.56C2040.56 771.936 2040.37 771.097 2039.99 770.36C2039.62 769.622 2039.1 769.04 2038.41 768.613C2037.73 768.186 2036.93 767.973 2036 767.973C2034.98 767.973 2034.1 768.226 2033.35 768.732C2032.62 769.231 2032.05 769.882 2031.65 770.685C2031.25 771.488 2031.05 772.349 2031.05 773.267V774.743C2031.05 776.001 2031.27 777.068 2031.7 777.943C2032.14 778.811 2032.76 779.473 2033.54 779.928C2034.32 780.377 2035.23 780.601 2036.26 780.601C2036.93 780.601 2037.54 780.507 2038.08 780.319C2038.63 780.124 2039.11 779.834 2039.5 779.451C2039.9 779.06 2040.21 778.576 2040.43 777.997L2042.9 778.692C2042.64 779.53 2042.2 780.268 2041.59 780.905C2040.97 781.534 2040.21 782.026 2039.31 782.38C2038.4 782.727 2037.39 782.901 2036.26 782.901Z" fill="white"/>
<path d="M1385.48 677.503L1383.18 678.154C1383.04 677.77 1382.82 677.398 1382.54 677.036C1382.27 676.667 1381.89 676.364 1381.41 676.125C1380.94 675.886 1380.33 675.767 1379.58 675.767C1378.56 675.767 1377.71 676.002 1377.03 676.472C1376.36 676.935 1376.02 677.524 1376.02 678.24C1376.02 678.877 1376.25 679.38 1376.72 679.748C1377.18 680.117 1377.9 680.425 1378.89 680.671L1381.36 681.278C1382.85 681.64 1383.96 682.193 1384.69 682.938C1385.42 683.676 1385.79 684.627 1385.79 685.791C1385.79 686.746 1385.51 687.599 1384.96 688.352C1384.42 689.104 1383.66 689.697 1382.68 690.131C1381.71 690.565 1380.57 690.782 1379.28 690.782C1377.58 690.782 1376.17 690.413 1375.06 689.675C1373.94 688.937 1373.24 687.86 1372.94 686.442L1375.37 685.835C1375.6 686.731 1376.04 687.404 1376.68 687.853C1377.33 688.301 1378.18 688.525 1379.23 688.525C1380.43 688.525 1381.37 688.272 1382.08 687.766C1382.78 687.252 1383.14 686.637 1383.14 685.921C1383.14 685.343 1382.94 684.858 1382.53 684.468C1382.13 684.07 1381.5 683.773 1380.67 683.578L1377.89 682.927C1376.36 682.566 1375.24 682.005 1374.52 681.246C1373.82 680.479 1373.46 679.521 1373.46 678.371C1373.46 677.43 1373.73 676.599 1374.25 675.875C1374.79 675.152 1375.52 674.584 1376.43 674.172C1377.36 673.76 1378.41 673.554 1379.58 673.554C1381.23 673.554 1382.52 673.915 1383.46 674.639C1384.41 675.362 1385.08 676.317 1385.48 677.503ZM1398.31 683.621V673.771H1400.87V690.435H1398.31V687.614H1398.13C1397.74 688.46 1397.14 689.18 1396.31 689.773C1395.49 690.359 1394.45 690.652 1393.19 690.652C1392.15 690.652 1391.22 690.424 1390.41 689.968C1389.6 689.505 1388.96 688.811 1388.5 687.885C1388.04 686.952 1387.81 685.777 1387.81 684.359V673.771H1390.37V684.186C1390.37 685.401 1390.71 686.37 1391.39 687.093C1392.07 687.816 1392.95 688.178 1394.01 688.178C1394.65 688.178 1395.3 688.015 1395.95 687.69C1396.62 687.364 1397.18 686.865 1397.62 686.193C1398.08 685.52 1398.31 684.663 1398.31 683.621ZM1415.53 677.503L1413.23 678.154C1413.08 677.77 1412.87 677.398 1412.59 677.036C1412.31 676.667 1411.94 676.364 1411.46 676.125C1410.98 675.886 1410.37 675.767 1409.63 675.767C1408.61 675.767 1407.76 676.002 1407.08 676.472C1406.4 676.935 1406.07 677.524 1406.07 678.24C1406.07 678.877 1406.3 679.38 1406.76 679.748C1407.23 680.117 1407.95 680.425 1408.93 680.671L1411.41 681.278C1412.9 681.64 1414.01 682.193 1414.74 682.938C1415.47 683.676 1415.83 684.627 1415.83 685.791C1415.83 686.746 1415.56 687.599 1415.01 688.352C1414.47 689.104 1413.71 689.697 1412.73 690.131C1411.75 690.565 1410.62 690.782 1409.32 690.782C1407.62 690.782 1406.22 690.413 1405.1 689.675C1403.99 688.937 1403.28 687.86 1402.99 686.442L1405.42 685.835C1405.65 686.731 1406.09 687.404 1406.73 687.853C1407.38 688.301 1408.23 688.525 1409.28 688.525C1410.47 688.525 1411.42 688.272 1412.12 687.766C1412.83 687.252 1413.19 686.637 1413.19 685.921C1413.19 685.343 1412.98 684.858 1412.58 684.468C1412.17 684.07 1411.55 683.773 1410.71 683.578L1407.93 682.927C1406.41 682.566 1405.29 682.005 1404.57 681.246C1403.86 680.479 1403.51 679.521 1403.51 678.371C1403.51 677.43 1403.77 676.599 1404.3 675.875C1404.84 675.152 1405.56 674.584 1406.48 674.172C1407.41 673.76 1408.46 673.554 1409.63 673.554C1411.28 673.554 1412.57 673.915 1413.51 674.639C1414.46 675.362 1415.13 676.317 1415.53 677.503ZM1425.1 673.771V675.94H1416.46V673.771H1425.1ZM1418.98 669.778H1421.54V685.661C1421.54 686.384 1421.65 686.927 1421.86 687.288C1422.07 687.643 1422.35 687.881 1422.68 688.004C1423.02 688.12 1423.38 688.178 1423.76 688.178C1424.04 688.178 1424.27 688.164 1424.45 688.135C1424.63 688.098 1424.78 688.07 1424.88 688.048L1425.4 690.348C1425.23 690.413 1424.99 690.478 1424.68 690.543C1424.37 690.615 1423.97 690.652 1423.5 690.652C1422.77 690.652 1422.06 690.496 1421.37 690.185C1420.68 689.874 1420.11 689.4 1419.65 688.764C1419.21 688.127 1418.98 687.325 1418.98 686.355V669.778ZM1432.02 690.825C1430.97 690.825 1430.01 690.626 1429.15 690.228C1428.29 689.823 1427.6 689.241 1427.1 688.482C1426.59 687.715 1426.34 686.789 1426.34 685.704C1426.34 684.75 1426.53 683.976 1426.9 683.383C1427.28 682.782 1427.78 682.312 1428.41 681.972C1429.04 681.632 1429.73 681.379 1430.49 681.213C1431.26 681.039 1432.03 680.902 1432.8 680.801C1433.82 680.671 1434.64 680.573 1435.27 680.508C1435.9 680.436 1436.37 680.316 1436.66 680.15C1436.95 679.983 1437.1 679.694 1437.1 679.282V679.195C1437.1 678.125 1436.81 677.293 1436.22 676.7C1435.64 676.107 1434.76 675.81 1433.58 675.81C1432.36 675.81 1431.4 676.078 1430.71 676.613C1430.02 677.148 1429.53 677.72 1429.25 678.327L1426.82 677.459C1427.25 676.447 1427.83 675.658 1428.55 675.094C1429.28 674.523 1430.08 674.125 1430.94 673.901C1431.81 673.669 1432.66 673.554 1433.5 673.554C1434.03 673.554 1434.65 673.619 1435.34 673.749C1436.04 673.872 1436.72 674.129 1437.37 674.519C1438.03 674.91 1438.58 675.499 1439.01 676.288C1439.44 677.076 1439.66 678.132 1439.66 679.455V690.435H1437.1V688.178H1436.97C1436.8 688.54 1436.51 688.927 1436.1 689.339C1435.7 689.751 1435.16 690.102 1434.49 690.391C1433.81 690.68 1432.99 690.825 1432.02 690.825ZM1432.41 688.525C1433.43 688.525 1434.28 688.326 1434.97 687.928C1435.68 687.531 1436.2 687.017 1436.56 686.388C1436.92 685.759 1437.1 685.097 1437.1 684.403V682.059C1436.99 682.189 1436.75 682.309 1436.38 682.417C1436.02 682.518 1435.6 682.609 1435.13 682.688C1434.66 682.761 1434.2 682.826 1433.75 682.884C1433.31 682.934 1432.95 682.978 1432.67 683.014C1432.01 683.101 1431.39 683.242 1430.81 683.437C1430.24 683.625 1429.77 683.911 1429.42 684.294C1429.07 684.67 1428.9 685.184 1428.9 685.835C1428.9 686.724 1429.23 687.397 1429.89 687.853C1430.55 688.301 1431.39 688.525 1432.41 688.525ZM1442.5 690.435V673.771H1445.06V690.435H1442.5ZM1443.8 670.993C1443.3 670.993 1442.87 670.823 1442.51 670.483C1442.16 670.144 1441.98 669.735 1441.98 669.258C1441.98 668.78 1442.16 668.372 1442.51 668.032C1442.87 667.692 1443.3 667.522 1443.8 667.522C1444.3 667.522 1444.73 667.692 1445.08 668.032C1445.44 668.372 1445.62 668.78 1445.62 669.258C1445.62 669.735 1445.44 670.144 1445.08 670.483C1444.73 670.823 1444.3 670.993 1443.8 670.993ZM1450.48 680.41V690.435H1447.92V673.771H1450.39V676.374H1450.61C1451 675.528 1451.59 674.848 1452.39 674.335C1453.18 673.814 1454.21 673.554 1455.47 673.554C1456.6 673.554 1457.58 673.785 1458.43 674.248C1459.28 674.704 1459.93 675.398 1460.4 676.331C1460.87 677.257 1461.11 678.428 1461.11 679.846V690.435H1458.55V680.02C1458.55 678.711 1458.21 677.691 1457.53 676.96C1456.85 676.223 1455.92 675.854 1454.73 675.854C1453.91 675.854 1453.18 676.031 1452.54 676.385C1451.9 676.74 1451.4 677.257 1451.03 677.937C1450.66 678.617 1450.48 679.441 1450.48 680.41ZM1468.86 690.825C1467.8 690.825 1466.84 690.626 1465.98 690.228C1465.12 689.823 1464.44 689.241 1463.93 688.482C1463.43 687.715 1463.17 686.789 1463.17 685.704C1463.17 684.75 1463.36 683.976 1463.74 683.383C1464.11 682.782 1464.62 682.312 1465.25 681.972C1465.88 681.632 1466.57 681.379 1467.33 681.213C1468.1 681.039 1468.87 680.902 1469.64 680.801C1470.65 680.671 1471.47 680.573 1472.1 680.508C1472.74 680.436 1473.2 680.316 1473.49 680.15C1473.79 679.983 1473.94 679.694 1473.94 679.282V679.195C1473.94 678.125 1473.64 677.293 1473.06 676.7C1472.48 676.107 1471.6 675.81 1470.42 675.81C1469.2 675.81 1468.24 676.078 1467.55 676.613C1466.85 677.148 1466.36 677.72 1466.08 678.327L1463.65 677.459C1464.09 676.447 1464.66 675.658 1465.39 675.094C1466.12 674.523 1466.91 674.125 1467.77 673.901C1468.64 673.669 1469.5 673.554 1470.33 673.554C1470.87 673.554 1471.48 673.619 1472.18 673.749C1472.88 673.872 1473.56 674.129 1474.21 674.519C1474.87 674.91 1475.41 675.499 1475.85 676.288C1476.28 677.076 1476.5 678.132 1476.5 679.455V690.435H1473.94V688.178H1473.81C1473.63 688.54 1473.34 688.927 1472.94 689.339C1472.53 689.751 1471.99 690.102 1471.32 690.391C1470.65 690.68 1469.83 690.825 1468.86 690.825ZM1469.25 688.525C1470.26 688.525 1471.12 688.326 1471.81 687.928C1472.51 687.531 1473.04 687.017 1473.39 686.388C1473.76 685.759 1473.94 685.097 1473.94 684.403V682.059C1473.83 682.189 1473.59 682.309 1473.22 682.417C1472.86 682.518 1472.44 682.609 1471.96 682.688C1471.49 682.761 1471.03 682.826 1470.58 682.884C1470.14 682.934 1469.78 682.978 1469.51 683.014C1468.84 683.101 1468.22 683.242 1467.64 683.437C1467.07 683.625 1466.61 683.911 1466.26 684.294C1465.91 684.67 1465.73 685.184 1465.73 685.835C1465.73 686.724 1466.06 687.397 1466.72 687.853C1467.39 688.301 1468.23 688.525 1469.25 688.525ZM1479.68 690.435V668.216H1482.24V676.418H1482.46C1482.65 676.128 1482.91 675.76 1483.24 675.311C1483.58 674.856 1484.07 674.451 1484.7 674.096C1485.33 673.734 1486.19 673.554 1487.28 673.554C1488.68 673.554 1489.92 673.904 1490.99 674.606C1492.06 675.308 1492.89 676.302 1493.49 677.589C1494.09 678.877 1494.39 680.396 1494.39 682.146C1494.39 683.911 1494.09 685.44 1493.49 686.735C1492.89 688.022 1492.06 689.021 1491 689.729C1489.94 690.431 1488.71 690.782 1487.32 690.782C1486.25 690.782 1485.39 690.605 1484.75 690.25C1484.11 689.889 1483.61 689.48 1483.26 689.024C1482.92 688.561 1482.65 688.178 1482.46 687.874H1482.16V690.435H1479.68ZM1482.2 682.103C1482.2 683.361 1482.39 684.471 1482.75 685.433C1483.12 686.388 1483.66 687.137 1484.37 687.679C1485.08 688.214 1485.95 688.482 1486.97 688.482C1488.04 688.482 1488.94 688.2 1489.65 687.636C1490.38 687.064 1490.92 686.298 1491.28 685.336C1491.65 684.366 1491.83 683.289 1491.83 682.103C1491.83 680.931 1491.65 679.875 1491.29 678.935C1490.94 677.987 1490.4 677.239 1489.68 676.689C1488.96 676.132 1488.06 675.854 1486.97 675.854C1485.93 675.854 1485.06 676.118 1484.35 676.646C1483.64 677.166 1483.1 677.897 1482.74 678.837C1482.38 679.77 1482.2 680.859 1482.2 682.103ZM1496.48 690.435V673.771H1499.04V690.435H1496.48ZM1497.78 670.993C1497.28 670.993 1496.85 670.823 1496.49 670.483C1496.13 670.144 1495.96 669.735 1495.96 669.258C1495.96 668.78 1496.13 668.372 1496.49 668.032C1496.85 667.692 1497.28 667.522 1497.78 667.522C1498.28 667.522 1498.71 667.692 1499.06 668.032C1499.42 668.372 1499.6 668.78 1499.6 669.258C1499.6 669.735 1499.42 670.144 1499.06 670.483C1498.71 670.823 1498.28 670.993 1497.78 670.993ZM1504.46 668.216V690.435H1501.89V668.216H1504.46ZM1507.31 690.435V673.771H1509.87V690.435H1507.31ZM1508.61 670.993C1508.11 670.993 1507.68 670.823 1507.32 670.483C1506.97 670.144 1506.79 669.735 1506.79 669.258C1506.79 668.78 1506.97 668.372 1507.32 668.032C1507.68 667.692 1508.11 667.522 1508.61 667.522C1509.11 667.522 1509.54 667.692 1509.89 668.032C1510.26 668.372 1510.44 668.78 1510.44 669.258C1510.44 669.735 1510.26 670.144 1509.89 670.483C1509.54 670.823 1509.11 670.993 1508.61 670.993ZM1519.98 673.771V675.94H1511.34V673.771H1519.98ZM1513.86 669.778H1516.42V685.661C1516.42 686.384 1516.52 686.927 1516.73 687.288C1516.95 687.643 1517.22 687.881 1517.56 688.004C1517.9 688.12 1518.25 688.178 1518.63 688.178C1518.91 688.178 1519.14 688.164 1519.32 688.135C1519.51 688.098 1519.65 688.07 1519.76 688.048L1520.28 690.348C1520.11 690.413 1519.86 690.478 1519.55 690.543C1519.24 690.615 1518.85 690.652 1518.37 690.652C1517.65 690.652 1516.94 690.496 1516.24 690.185C1515.56 689.874 1514.99 689.4 1514.53 688.764C1514.08 688.127 1513.86 687.325 1513.86 686.355V669.778ZM1523.64 696.684C1523.21 696.684 1522.82 696.647 1522.48 696.575C1522.14 696.51 1521.91 696.445 1521.78 696.38L1522.43 694.123C1523.05 694.282 1523.6 694.34 1524.08 694.297C1524.55 694.253 1524.98 694.04 1525.35 693.657C1525.72 693.281 1526.07 692.669 1526.38 691.823L1526.85 690.521L1520.69 673.771H1523.47L1528.07 687.05H1528.24L1532.84 673.771H1535.62L1528.55 692.865C1528.23 693.725 1527.83 694.438 1527.36 695.002C1526.89 695.573 1526.35 695.996 1525.73 696.271C1525.11 696.546 1524.42 696.684 1523.64 696.684ZM1543.56 690.782C1541.95 690.782 1540.57 690.427 1539.4 689.719C1538.24 689.003 1537.35 688.004 1536.72 686.724C1536.1 685.437 1535.79 683.94 1535.79 682.233C1535.79 680.526 1536.1 679.022 1536.72 677.72C1537.35 676.411 1538.23 675.391 1539.35 674.66C1540.48 673.923 1541.79 673.554 1543.3 673.554C1544.16 673.554 1545.02 673.698 1545.87 673.988C1546.71 674.277 1547.48 674.747 1548.18 675.398C1548.87 676.042 1549.43 676.895 1549.84 677.958C1550.25 679.022 1550.46 680.331 1550.46 681.886V682.971H1537.61V680.757H1547.85C1547.85 679.817 1547.66 678.978 1547.29 678.24C1546.92 677.503 1546.39 676.92 1545.7 676.494C1545.02 676.067 1544.22 675.854 1543.3 675.854C1542.28 675.854 1541.39 676.107 1540.65 676.613C1539.91 677.112 1539.34 677.763 1538.95 678.566C1538.55 679.369 1538.35 680.229 1538.35 681.148V682.623C1538.35 683.882 1538.57 684.949 1539 685.824C1539.44 686.692 1540.05 687.353 1540.83 687.809C1541.61 688.258 1542.52 688.482 1543.56 688.482C1544.23 688.482 1544.84 688.388 1545.38 688.2C1545.93 688.004 1546.4 687.715 1546.8 687.332C1547.2 686.941 1547.51 686.457 1547.72 685.878L1550.2 686.572C1549.94 687.411 1549.5 688.149 1548.88 688.786C1548.27 689.415 1547.51 689.907 1546.61 690.261C1545.7 690.608 1544.68 690.782 1543.56 690.782ZM1559.29 690.782C1557.73 690.782 1556.38 690.413 1555.25 689.675C1554.12 688.937 1553.26 687.921 1552.65 686.627C1552.04 685.332 1551.74 683.853 1551.74 682.189C1551.74 680.497 1552.05 679.003 1552.67 677.709C1553.3 676.407 1554.17 675.391 1555.3 674.66C1556.42 673.923 1557.74 673.554 1559.24 673.554C1560.42 673.554 1561.47 673.771 1562.41 674.205C1563.35 674.639 1564.12 675.246 1564.72 676.027C1565.32 676.808 1565.7 677.72 1565.84 678.761H1563.28C1563.08 678.002 1562.65 677.329 1561.98 676.743C1561.31 676.15 1560.42 675.854 1559.29 675.854C1558.29 675.854 1557.41 676.114 1556.66 676.635C1555.92 677.148 1555.34 677.875 1554.92 678.815C1554.5 679.748 1554.3 680.844 1554.3 682.103C1554.3 683.39 1554.5 684.511 1554.9 685.466C1555.32 686.42 1555.9 687.162 1556.64 687.69C1557.39 688.218 1558.28 688.482 1559.29 688.482C1559.95 688.482 1560.56 688.366 1561.1 688.135C1561.64 687.903 1562.1 687.57 1562.48 687.137C1562.85 686.703 1563.12 686.182 1563.28 685.574H1565.84C1565.7 686.558 1565.34 687.444 1564.77 688.232C1564.2 689.013 1563.45 689.635 1562.52 690.098C1561.6 690.554 1560.52 690.782 1559.29 690.782ZM1574.52 690.782C1573.02 690.782 1571.7 690.424 1570.56 689.708C1569.43 688.992 1568.55 687.99 1567.91 686.703C1567.28 685.415 1566.97 683.911 1566.97 682.189C1566.97 680.454 1567.28 678.938 1567.91 677.644C1568.55 676.349 1569.43 675.344 1570.56 674.628C1571.7 673.912 1573.02 673.554 1574.52 673.554C1576.02 673.554 1577.34 673.912 1578.47 674.628C1579.6 675.344 1580.49 676.349 1581.12 677.644C1581.75 678.938 1582.07 680.454 1582.07 682.189C1582.07 683.911 1581.75 685.415 1581.12 686.703C1580.49 687.99 1579.6 688.992 1578.47 689.708C1577.34 690.424 1576.02 690.782 1574.52 690.782ZM1574.52 688.482C1575.66 688.482 1576.6 688.189 1577.34 687.603C1578.08 687.017 1578.62 686.247 1578.98 685.292C1579.33 684.337 1579.51 683.303 1579.51 682.189C1579.51 681.076 1579.33 680.038 1578.98 679.076C1578.62 678.114 1578.08 677.336 1577.34 676.743C1576.6 676.15 1575.66 675.854 1574.52 675.854C1573.38 675.854 1572.44 676.15 1571.7 676.743C1570.96 677.336 1570.42 678.114 1570.06 679.076C1569.71 680.038 1569.53 681.076 1569.53 682.189C1569.53 683.303 1569.71 684.337 1570.06 685.292C1570.42 686.247 1570.96 687.017 1571.7 687.603C1572.44 688.189 1573.38 688.482 1574.52 688.482ZM1586.71 680.41V690.435H1584.15V673.771H1586.62V676.374H1586.84C1587.23 675.528 1587.82 674.848 1588.62 674.335C1589.41 673.814 1590.44 673.554 1591.7 673.554C1592.83 673.554 1593.81 673.785 1594.66 674.248C1595.51 674.704 1596.16 675.398 1596.63 676.331C1597.1 677.257 1597.34 678.428 1597.34 679.846V690.435H1594.78V680.02C1594.78 678.711 1594.44 677.691 1593.76 676.96C1593.08 676.223 1592.15 675.854 1590.96 675.854C1590.14 675.854 1589.41 676.031 1588.77 676.385C1588.13 676.74 1587.63 677.257 1587.26 677.937C1586.89 678.617 1586.71 679.441 1586.71 680.41ZM1606.95 690.782C1605.45 690.782 1604.13 690.424 1602.99 689.708C1601.87 688.992 1600.98 687.99 1600.35 686.703C1599.72 685.415 1599.4 683.911 1599.4 682.189C1599.4 680.454 1599.72 678.938 1600.35 677.644C1600.98 676.349 1601.87 675.344 1602.99 674.628C1604.13 673.912 1605.45 673.554 1606.95 673.554C1608.46 673.554 1609.77 673.912 1610.9 674.628C1612.04 675.344 1612.92 676.349 1613.55 677.644C1614.19 678.938 1614.5 680.454 1614.5 682.189C1614.5 683.911 1614.19 685.415 1613.55 686.703C1612.92 687.99 1612.04 688.992 1610.9 689.708C1609.77 690.424 1608.46 690.782 1606.95 690.782ZM1606.95 688.482C1608.1 688.482 1609.04 688.189 1609.77 687.603C1610.51 687.017 1611.06 686.247 1611.41 685.292C1611.77 684.337 1611.94 683.303 1611.94 682.189C1611.94 681.076 1611.77 680.038 1611.41 679.076C1611.06 678.114 1610.51 677.336 1609.77 676.743C1609.04 676.15 1608.1 675.854 1606.95 675.854C1605.81 675.854 1604.87 676.15 1604.13 676.743C1603.4 677.336 1602.85 678.114 1602.49 679.076C1602.14 680.038 1601.96 681.076 1601.96 682.189C1601.96 683.303 1602.14 684.337 1602.49 685.292C1602.85 686.247 1603.4 687.017 1604.13 687.603C1604.87 688.189 1605.81 688.482 1606.95 688.482ZM1616.58 690.435V673.771H1619.05V676.374H1619.27C1619.62 675.485 1620.18 674.794 1620.95 674.302C1621.73 673.803 1622.66 673.554 1623.74 673.554C1624.84 673.554 1625.75 673.803 1626.48 674.302C1627.22 674.794 1627.8 675.485 1628.21 676.374H1628.38C1628.81 675.514 1629.45 674.83 1630.3 674.324C1631.16 673.81 1632.18 673.554 1633.37 673.554C1634.86 673.554 1636.08 674.02 1637.03 674.953C1637.98 675.879 1638.45 677.322 1638.45 679.282V690.435H1635.89V679.282C1635.89 678.052 1635.55 677.174 1634.88 676.646C1634.21 676.118 1633.42 675.854 1632.51 675.854C1631.33 675.854 1630.43 676.208 1629.78 676.917C1629.14 677.618 1628.82 678.508 1628.82 679.586V690.435H1626.21V679.022C1626.21 678.074 1625.91 677.311 1625.29 676.732C1624.68 676.147 1623.88 675.854 1622.92 675.854C1622.25 675.854 1621.63 676.031 1621.05 676.385C1620.48 676.74 1620.02 677.231 1619.66 677.861C1619.31 678.483 1619.14 679.202 1619.14 680.02V690.435H1616.58ZM1641.3 690.435V673.771H1643.86V690.435H1641.3ZM1642.6 670.993C1642.1 670.993 1641.67 670.823 1641.31 670.483C1640.96 670.144 1640.78 669.735 1640.78 669.258C1640.78 668.78 1640.96 668.372 1641.31 668.032C1641.67 667.692 1642.1 667.522 1642.6 667.522C1643.1 667.522 1643.53 667.692 1643.88 668.032C1644.24 668.372 1644.42 668.78 1644.42 669.258C1644.42 669.735 1644.24 670.144 1643.88 670.483C1643.53 670.823 1643.1 670.993 1642.6 670.993ZM1653.49 690.782C1651.92 690.782 1650.58 690.413 1649.45 689.675C1648.32 688.937 1647.45 687.921 1646.85 686.627C1646.24 685.332 1645.94 683.853 1645.94 682.189C1645.94 680.497 1646.25 679.003 1646.87 677.709C1647.5 676.407 1648.37 675.391 1649.49 674.66C1650.62 673.923 1651.94 673.554 1653.44 673.554C1654.61 673.554 1655.67 673.771 1656.61 674.205C1657.55 674.639 1658.32 675.246 1658.92 676.027C1659.52 676.808 1659.89 677.72 1660.04 678.761H1657.48C1657.28 678.002 1656.85 677.329 1656.18 676.743C1655.51 676.15 1654.61 675.854 1653.49 675.854C1652.49 675.854 1651.61 676.114 1650.86 676.635C1650.12 677.148 1649.53 677.875 1649.11 678.815C1648.7 679.748 1648.5 680.844 1648.5 682.103C1648.5 683.39 1648.7 684.511 1649.1 685.466C1649.52 686.42 1650.09 687.162 1650.84 687.69C1651.59 688.218 1652.47 688.482 1653.49 688.482C1654.15 688.482 1654.76 688.366 1655.3 688.135C1655.84 687.903 1656.3 687.57 1656.68 687.137C1657.05 686.703 1657.32 686.182 1657.48 685.574H1660.04C1659.89 686.558 1659.54 687.444 1658.96 688.232C1658.4 689.013 1657.65 689.635 1656.72 690.098C1655.79 690.554 1654.72 690.782 1653.49 690.782ZM1673.75 677.503L1671.45 678.154C1671.31 677.77 1671.09 677.398 1670.81 677.036C1670.54 676.667 1670.16 676.364 1669.68 676.125C1669.21 675.886 1668.6 675.767 1667.85 675.767C1666.83 675.767 1665.98 676.002 1665.3 676.472C1664.63 676.935 1664.29 677.524 1664.29 678.24C1664.29 678.877 1664.52 679.38 1664.99 679.748C1665.45 680.117 1666.17 680.425 1667.16 680.671L1669.63 681.278C1671.12 681.64 1672.23 682.193 1672.96 682.938C1673.69 683.676 1674.06 684.627 1674.06 685.791C1674.06 686.746 1673.78 687.599 1673.23 688.352C1672.69 689.104 1671.93 689.697 1670.95 690.131C1669.98 690.565 1668.84 690.782 1667.55 690.782C1665.85 690.782 1664.44 690.413 1663.33 689.675C1662.21 688.937 1661.51 687.86 1661.21 686.442L1663.64 685.835C1663.87 686.731 1664.31 687.404 1664.95 687.853C1665.6 688.301 1666.45 688.525 1667.5 688.525C1668.7 688.525 1669.64 688.272 1670.35 687.766C1671.05 687.252 1671.41 686.637 1671.41 685.921C1671.41 685.343 1671.21 684.858 1670.8 684.468C1670.4 684.07 1669.77 683.773 1668.94 683.578L1666.16 682.927C1664.63 682.566 1663.51 682.005 1662.79 681.246C1662.09 680.479 1661.73 679.521 1661.73 678.371C1661.73 677.43 1662 676.599 1662.52 675.875C1663.06 675.152 1663.79 674.584 1664.7 674.172C1665.63 673.76 1666.68 673.554 1667.85 673.554C1669.5 673.554 1670.79 673.915 1671.73 674.639C1672.68 675.362 1673.35 676.317 1673.75 677.503ZM1677.94 690.608C1677.41 690.608 1676.95 690.416 1676.57 690.033C1676.18 689.65 1675.99 689.191 1675.99 688.655C1675.99 688.12 1676.18 687.661 1676.57 687.278C1676.95 686.894 1677.41 686.703 1677.94 686.703C1678.48 686.703 1678.94 686.894 1679.32 687.278C1679.7 687.661 1679.9 688.12 1679.9 688.655C1679.9 689.01 1679.81 689.335 1679.62 689.632C1679.45 689.928 1679.22 690.167 1678.92 690.348C1678.63 690.521 1678.3 690.608 1677.94 690.608ZM1687.56 690.825C1686.51 690.825 1685.55 690.626 1684.69 690.228C1683.83 689.823 1683.14 689.241 1682.64 688.482C1682.13 687.715 1681.88 686.789 1681.88 685.704C1681.88 684.75 1682.06 683.976 1682.44 683.383C1682.82 682.782 1683.32 682.312 1683.95 681.972C1684.58 681.632 1685.27 681.379 1686.03 681.213C1686.8 681.039 1687.57 680.902 1688.34 680.801C1689.35 680.671 1690.18 680.573 1690.8 680.508C1691.44 680.436 1691.9 680.316 1692.19 680.15C1692.49 679.983 1692.64 679.694 1692.64 679.282V679.195C1692.64 678.125 1692.35 677.293 1691.76 676.7C1691.18 676.107 1690.3 675.81 1689.12 675.81C1687.9 675.81 1686.94 676.078 1686.25 676.613C1685.55 677.148 1685.07 677.72 1684.78 678.327L1682.35 677.459C1682.79 676.447 1683.37 675.658 1684.09 675.094C1684.82 674.523 1685.62 674.125 1686.48 673.901C1687.34 673.669 1688.2 673.554 1689.04 673.554C1689.57 673.554 1690.19 673.619 1690.88 673.749C1691.58 673.872 1692.26 674.129 1692.91 674.519C1693.57 674.91 1694.11 675.499 1694.55 676.288C1694.98 677.076 1695.2 678.132 1695.2 679.455V690.435H1692.64V688.178H1692.51C1692.33 688.54 1692.05 688.927 1691.64 689.339C1691.24 689.751 1690.7 690.102 1690.02 690.391C1689.35 690.68 1688.53 690.825 1687.56 690.825ZM1687.95 688.525C1688.96 688.525 1689.82 688.326 1690.51 687.928C1691.21 687.531 1691.74 687.017 1692.1 686.388C1692.46 685.759 1692.64 685.097 1692.64 684.403V682.059C1692.53 682.189 1692.29 682.309 1691.92 682.417C1691.56 682.518 1691.14 682.609 1690.66 682.688C1690.19 682.761 1689.73 682.826 1689.29 682.884C1688.84 682.934 1688.49 682.978 1688.21 683.014C1687.55 683.101 1686.92 683.242 1686.35 683.437C1685.77 683.625 1685.31 683.911 1684.96 684.294C1684.61 684.67 1684.44 685.184 1684.44 685.835C1684.44 686.724 1684.77 687.397 1685.42 687.853C1686.09 688.301 1686.93 688.525 1687.95 688.525ZM1698.04 690.435V673.771H1700.6V690.435H1698.04ZM1699.34 670.993C1698.84 670.993 1698.41 670.823 1698.05 670.483C1697.7 670.144 1697.52 669.735 1697.52 669.258C1697.52 668.78 1697.7 668.372 1698.05 668.032C1698.41 667.692 1698.84 667.522 1699.34 667.522C1699.84 667.522 1700.27 667.692 1700.62 668.032C1700.98 668.372 1701.16 668.78 1701.16 669.258C1701.16 669.735 1700.98 670.144 1700.62 670.483C1700.27 670.823 1699.84 670.993 1699.34 670.993Z" fill="white"/>
<circle cx="1110.86" cy="670.139" r="11.9663" fill="#DF2C2C"/>
<circle cx="1157.01" cy="670.139" r="11.9663" fill="#EDCC1B"/>
<circle cx="1203.16" cy="670.139" r="11.9663" fill="#22BC15"/>
<rect x="1089.4" y="862.968" width="329.663" height="530.032" rx="27.7732" fill="#D9D9D9" fill-opacity="0.2"/>
<rect x="1437.83" y="862.968" width="622.182" height="175.269" rx="27.7732" fill="#D9D9D9" fill-opacity="0.2"/>
<rect x="1437.83" y="1057.16" width="622.182" height="175.269" rx="27.7732" fill="#D9D9D9" fill-opacity="0.2"/>
<path d="M1115.78 773.381H1096.34" stroke="white" stroke-width="2.77732" stroke-linecap="round" stroke-linejoin="round"/>
<path d="M1106.06 783.103L1096.34 773.382L1106.06 763.662" stroke="white" stroke-width="2.77732" stroke-linecap="round" stroke-linejoin="round"/>
<path d="M1402.92 769.22H1383.48C1381.95 769.22 1380.71 770.464 1380.71 771.998V781.718C1380.71 783.252 1381.95 784.495 1383.48 784.495H1402.92C1404.46 784.495 1405.7 783.252 1405.7 781.718V771.998C1405.7 770.464 1404.46 769.22 1402.92 769.22Z" stroke="white" stroke-width="2.77732" stroke-linecap="round" stroke-linejoin="round"/>
<path d="M1386.26 769.219V763.664C1386.26 761.823 1386.99 760.057 1388.29 758.755C1389.6 757.453 1391.36 756.721 1393.2 756.721C1395.05 756.721 1396.81 757.453 1398.11 758.755C1399.42 760.057 1400.15 761.823 1400.15 763.664V769.219" stroke="white" stroke-width="2.77732" stroke-linecap="round" stroke-linejoin="round"/>
<g clip-path="url(#clip1_5_196)">
<path d="M1310.19 762.272V770.604H1301.86" stroke="white" stroke-width="2.77732" stroke-linecap="round" stroke-linejoin="round"/>
<path d="M1306.71 777.545C1305.81 780.1 1304.1 782.292 1301.84 783.791C1299.58 785.291 1296.9 786.016 1294.19 785.858C1291.49 785.7 1288.91 784.666 1286.84 782.914C1284.78 781.162 1283.33 778.785 1282.74 776.142C1282.14 773.499 1282.41 770.733 1283.52 768.261C1284.63 765.789 1286.52 763.745 1288.89 762.437C1291.26 761.128 1294 760.627 1296.68 761.007C1299.36 761.388 1301.85 762.63 1303.76 764.547L1310.19 770.601" stroke="white" stroke-width="2.77732" stroke-linecap="round" stroke-linejoin="round"/>
</g>
<path d="M1190.77 773.381H1210.21" stroke="white" stroke-width="2.77732" stroke-linecap="round" stroke-linejoin="round"/>
<path d="M1200.49 763.662L1210.21 773.382L1200.49 783.103" stroke="white" stroke-width="2.77732" stroke-linecap="round" stroke-linejoin="round"/>
<g filter="url(#filter1_d_5_196)">
<rect x="1304.56" y="648.923" width="53.4952" height="53.4952" rx="13.2208" fill="white"/>
</g>
<path fill-rule="evenodd" clip-rule="evenodd" d="M1309.78 658C1313.79 658 1319.92 659.19 1324.81 663.113C1327.06 664.915 1328.9 667.169 1330.18 669.459C1330.48 670.001 1330.76 670.549 1331 671.099C1331.24 670.549 1331.52 670.001 1331.82 669.459C1333.1 667.169 1334.94 664.915 1337.19 663.113C1342.08 659.19 1348.21 658 1352.22 658H1353.02L1353.36 658.723C1353.95 660.002 1354.04 661.8 1353.98 663.379C1353.92 665.016 1353.68 666.664 1353.45 667.792C1352.65 671.697 1350.12 676.782 1344.51 678.72C1344.3 678.791 1344.1 678.857 1343.89 678.92C1345.69 680.096 1347.08 681.964 1347.35 684.527C1347.77 688.427 1345.25 692.441 1340.42 692.958C1337.55 693.266 1335.44 691.818 1334.05 690.331C1333.26 689.495 1332.63 688.556 1332.2 687.843C1331.84 687.257 1332.04 686.474 1332.62 686.105C1333.21 685.736 1333.96 685.916 1334.32 686.505C1334.7 687.144 1335.2 687.909 1335.89 688.647C1337.01 689.836 1338.39 690.682 1340.15 690.493C1343.45 690.139 1345.15 687.485 1344.86 684.789C1344.52 681.672 1341.64 679.905 1338.9 679.905C1337.1 679.905 1336.01 680.177 1335.23 680.597C1334.45 681.012 1333.85 681.64 1333.12 682.623L1330.69 686.518L1330.7 686.525C1330.46 686.894 1329.53 688.697 1328.14 690.201C1328.07 690.278 1328 690.354 1327.92 690.431C1327.52 690.875 1327.07 691.304 1326.62 691.6L1326.6 691.576C1325.31 692.51 1323.67 693.172 1321.68 692.958C1316.85 692.441 1314.33 688.427 1314.75 684.527C1315.02 681.979 1316.4 680.117 1318.17 678.941C1317.95 678.872 1317.72 678.799 1317.49 678.72C1311.88 676.782 1309.35 671.697 1308.55 667.792C1308.32 666.664 1308.08 665.016 1308.02 663.379C1307.96 661.8 1308.05 660.002 1308.64 658.723L1308.98 658H1309.78ZM1351.31 660.502C1347.73 660.671 1342.75 661.852 1338.77 665.038C1336.79 666.627 1335.16 668.63 1334.02 670.659C1333.17 672.18 1332.62 673.667 1332.4 674.963C1332.28 675.655 1331.71 676.227 1331 676.227C1330.29 676.227 1329.72 675.655 1329.6 674.963C1329.38 673.667 1328.83 672.18 1327.98 670.659C1326.84 668.63 1325.21 666.627 1323.23 665.038C1319.25 661.852 1314.27 660.671 1310.69 660.502C1310.54 661.221 1310.48 662.187 1310.53 663.284C1310.58 664.767 1310.8 666.281 1311.01 667.302C1311.72 670.755 1313.88 674.845 1318.32 676.379C1321.84 677.595 1325.38 677.136 1326.95 677.791C1327.19 677.86 1327.42 677.942 1327.64 678.038C1328.43 678.384 1329.05 678.888 1329.64 679.496C1330.12 679.99 1330.05 680.781 1329.52 681.228C1329 681.674 1328.22 681.604 1327.73 681.117C1327.31 680.7 1326.99 680.468 1326.62 680.305C1326.01 680.039 1325.12 679.905 1323.2 679.905C1320.46 679.905 1317.58 681.672 1317.24 684.789C1316.95 687.485 1318.65 690.139 1321.95 690.493C1323.59 690.669 1324.95 689.894 1326.08 688.746C1326.22 688.585 1326.37 688.409 1326.53 688.219C1327 687.628 1327.43 687.016 1327.66 686.645L1331.01 681.281L1331.03 681.24L1331.06 681.202C1331.87 680.098 1332.75 679.103 1334.03 678.418C1334.35 678.245 1334.69 678.096 1335.05 677.97C1336.85 677.342 1340.16 677.595 1343.68 676.379C1348.12 674.845 1350.28 670.755 1350.99 667.302C1351.2 666.281 1351.42 664.767 1351.47 663.284C1351.52 662.187 1351.46 661.221 1351.31 660.502Z" fill="url(#paint2_linear_5_196)"/>
<g filter="url(#filter2_d_5_196)">
<rect x="1329" y="159" width="221" height="221" rx="67" fill="url(#paint3_linear_5_196)" stroke="white" stroke-width="2"/>
<path fill-rule="evenodd" clip-rule="evenodd" d="M1373.61 215C1386.23 215 1405.53 218.741 1420.94 231.07C1428.01 236.732 1433.81 243.817 1437.84 251.014C1438.8 252.716 1439.66 254.441 1440.43 256.169C1441.19 254.441 1442.06 252.716 1443.01 251.014C1447.05 243.817 1452.85 236.732 1459.92 231.07C1475.32 218.741 1494.63 215 1507.25 215H1509.79L1510.84 217.273C1512.71 221.292 1513 226.944 1512.81 231.905C1512.61 237.052 1511.85 242.231 1511.13 245.776C1508.62 258.047 1500.64 274.029 1482.97 280.119C1482.33 280.342 1481.68 280.552 1481.03 280.749C1486.68 284.443 1491.06 290.316 1491.93 298.371C1493.25 310.626 1485.29 323.242 1470.09 324.869C1461.07 325.835 1454.42 321.284 1450.03 316.611C1447.56 313.983 1445.58 311.032 1444.2 308.793C1443.07 306.952 1443.7 304.489 1445.54 303.329C1447.38 302.169 1449.76 302.736 1450.87 304.587C1452.08 306.596 1453.66 309 1455.84 311.318C1459.35 315.056 1463.7 317.714 1469.24 317.121C1479.62 316.009 1484.98 307.666 1484.06 299.195C1483 289.399 1473.94 283.845 1465.32 283.845C1459.63 283.845 1456.2 284.7 1453.74 286.019C1451.3 287.325 1449.39 289.297 1447.11 292.385L1439.46 304.628L1439.49 304.651C1438.74 305.81 1435.81 311.477 1431.42 316.204C1431.2 316.445 1430.97 316.685 1430.73 316.926C1429.46 318.321 1428.05 319.67 1426.63 320.6L1426.58 320.525C1422.51 323.46 1417.34 325.54 1411.08 324.869C1395.88 323.242 1387.92 310.626 1389.24 298.371C1390.11 290.363 1394.44 284.512 1400.04 280.814C1399.32 280.598 1398.6 280.367 1397.89 280.119C1380.22 274.029 1372.24 258.047 1369.73 245.776C1369.01 242.231 1368.25 237.052 1368.05 231.905C1367.86 226.944 1368.14 221.292 1370.01 217.273L1371.07 215H1373.61ZM1504.39 222.863C1493.1 223.396 1477.42 227.107 1464.91 237.119C1458.67 242.114 1453.52 248.409 1449.94 254.784C1447.26 259.565 1445.54 264.238 1444.84 268.314C1444.47 270.487 1442.67 272.284 1440.43 272.284C1438.19 272.284 1436.39 270.487 1436.02 268.314C1435.32 264.238 1433.6 259.565 1430.92 254.784C1427.34 248.409 1422.19 242.114 1415.95 237.119C1403.44 227.107 1387.76 223.396 1376.47 222.863C1375.99 225.124 1375.82 228.158 1375.96 231.608C1376.14 236.269 1376.83 241.027 1377.49 244.236C1379.71 255.086 1386.52 267.942 1400.5 272.763C1411.58 276.583 1422.72 275.142 1427.67 277.199C1428.43 277.417 1429.15 277.674 1429.84 277.976C1432.34 279.064 1434.27 280.649 1436.14 282.559C1437.65 284.11 1437.43 286.598 1435.78 288.002C1434.12 289.405 1431.66 289.183 1430.12 287.652C1428.81 286.343 1427.81 285.612 1426.64 285.103C1424.72 284.264 1421.9 283.845 1415.86 283.845C1407.23 283.845 1398.17 289.399 1397.11 299.195C1396.19 307.666 1401.55 316.009 1411.93 317.121C1417.09 317.673 1421.36 315.24 1424.93 311.629C1425.38 311.126 1425.86 310.571 1426.34 309.975C1427.85 308.117 1429.18 306.194 1429.92 305.026L1440.45 288.168L1440.53 288.041L1440.62 287.921C1443.18 284.45 1445.94 281.324 1449.96 279.17C1450.98 278.626 1452.05 278.158 1453.18 277.762C1458.85 275.788 1469.28 276.583 1480.36 272.763C1494.34 267.942 1501.15 255.086 1503.37 244.236C1504.03 241.027 1504.72 236.269 1504.9 231.608C1505.04 228.158 1504.87 225.124 1504.39 222.863Z" fill="white"/>
</g>
<g id="Repeat group 3_inner" data-figma-trr="r6u2.5-0f">
<path fill-rule="evenodd" clip-rule="evenodd" d="M102.626 114.891C129.898 114.891 171.603 123.153 204.887 150.382C220.172 162.886 232.688 178.531 241.414 194.427C243.478 198.186 245.348 201.994 247 205.81C248.652 201.994 250.522 198.186 252.586 194.427C261.312 178.531 273.829 162.886 289.113 150.382C322.397 123.153 364.102 114.891 391.374 114.891H396.859L399.144 119.911C403.185 128.788 403.801 141.269 403.386 152.225C402.955 163.591 401.321 175.029 399.753 182.859C394.326 209.959 377.091 245.253 338.924 258.703C337.524 259.197 337.032 259.409 335.64 259.844C347.837 268.003 357.177 281.304 359.057 299.091C362.538 332.036 341.351 356.673 311.096 357.532C291.6 359.666 278.938 346.749 269.456 336.429C264.123 330.625 259.833 324.109 256.856 319.163C254.41 315.098 255.77 309.66 259.746 307.097C263.722 304.535 268.868 305.788 271.277 309.875C273.891 314.312 276.729 319.621 281.433 324.74C289.376 333.386 299.138 341.298 311.096 339.989C333.529 337.534 345.041 319.231 343.065 300.524C340.779 278.888 319.415 266.932 300.77 266.932C288.489 266.932 281.078 268.821 275.752 271.734C270.481 274.617 266.366 278.972 261.428 285.792L244.903 312.83L244.981 312.88C243.353 315.441 237.01 327.955 227.538 338.394C227.055 338.927 226.558 339.458 226.05 339.989C223.302 343.071 220.248 346.05 217.188 348.105L217.076 347.937C208.277 354.419 197.106 359.012 183.579 357.532C150.739 353.938 134.589 326.158 137.449 299.091C139.317 281.408 147.633 268.404 159.727 260.237C158.182 259.76 156.631 259.251 155.076 258.703C116.91 245.253 99.6741 209.959 94.2476 182.859C92.6797 175.029 91.0448 163.591 90.6144 152.225C90.1994 141.269 90.8158 128.788 94.8563 119.911L97.1418 114.891H102.626ZM385.193 132.256C360.803 133.433 326.923 141.628 299.893 163.74C286.409 174.772 276.258 188.674 268.529 202.753C262.732 213.312 259.191 222.769 257.677 231.77C256.87 236.57 251.835 241.4 247 241.4C242.165 241.4 238.271 237.432 237.463 232.632C235.95 223.631 232.249 213.312 226.452 202.753C218.723 188.674 207.592 174.772 194.107 163.74C167.077 141.628 133.282 133.827 108.891 132.65C107.855 137.644 107.408 143.95 107.697 151.569C108.087 161.862 109.586 172.37 111.005 179.457C115.803 203.419 130.083 230.863 160.295 241.51C189.424 251.775 208.743 247.712 219.441 252.254C221.071 252.737 222.626 253.304 224.122 253.971C229.512 256.373 233.699 259.874 237.727 264.091C240.998 267.517 240.528 273.013 236.949 276.112C233.37 279.211 228.052 278.721 224.735 275.341C221.896 272.448 219.728 270.835 217.202 269.709C213.048 267.858 208.843 266.72 194.85 266.72C176.204 266.72 156.87 278.888 154.584 300.524C152.607 319.231 162.993 337.316 185.426 339.771C196.561 340.989 205.139 336.285 212.841 328.312C213.825 327.2 216.033 324.471 217.076 323.155C220.329 319.053 223.128 315.408 224.735 312.83L247.05 276.478L247.219 276.2L247.41 275.935C252.934 268.269 258.898 261.364 267.593 256.608C269.79 255.406 272.104 254.373 274.559 253.499C286.81 249.138 309.333 250.895 333.277 242.457C363.49 231.81 378.197 203.419 382.995 179.457C384.414 172.37 385.914 161.862 386.303 151.569C386.592 143.95 386.229 137.25 385.193 132.256Z" fill="white"/>
</g>
<use xlink:href="#Repeat%20group%203_inner" transform="translate(591.154 56.0919) rotate(60)"/>
<use xlink:href="#Repeat%20group%203_inner" transform="translate(838.154 596.092) rotate(120)"/>
<use xlink:href="#Repeat%20group%203_inner" transform="translate(494 1080) rotate(-180)"/>
<use xlink:href="#Repeat%20group%203_inner" transform="translate(-97.1541 1023.91) rotate(-120)"/>
<use xlink:href="#Repeat%20group%203_inner" transform="translate(-344.154 483.908) rotate(-60)"/>
</g>
<defs>
<filter id="filter0_f_5_196" x="-481" y="-220" width="1896" height="1519" filterUnits="userSpaceOnUse" color-interpolation-filters="sRGB">
<feFlood flood-opacity="0" result="BackgroundImageFix"/>
<feBlend mode="normal" in="SourceGraphic" in2="BackgroundImageFix" result="shape"/>
<feGaussianBlur stdDeviation="100" result="effect1_foregroundBlur_5_196"/>
</filter>
<filter id="filter1_d_5_196" x="1294.44" y="639.64" width="82.1871" height="82.1871" filterUnits="userSpaceOnUse" color-interpolation-filters="sRGB">
<feFlood flood-opacity="0" result="BackgroundImageFix"/>
<feColorMatrix in="SourceAlpha" type="matrix" values="0 0 0 0 0 0 0 0 0 0 0 0 0 0 0 0 0 0 127 0" result="hardAlpha"/>
<feOffset dx="4.2194" dy="5.06328"/>
<feGaussianBlur stdDeviation="7.17298"/>
<feComposite in2="hardAlpha" operator="out"/>
<feColorMatrix type="matrix" values="0 0 0 0 1 0 0 0 0 0.405564 0 0 0 0 0.214896 0 0 0 0.2 0"/>
<feBlend mode="normal" in2="BackgroundImageFix" result="effect1_dropShadow_5_196"/>
<feBlend mode="normal" in="SourceGraphic" in2="effect1_dropShadow_5_196" result="shape"/>
</filter>
<filter id="filter2_d_5_196" x="1316.7" y="153.7" width="239.6" height="239.6" filterUnits="userSpaceOnUse" color-interpolation-filters="sRGB">
<feFlood flood-opacity="0" result="BackgroundImageFix"/>
<feColorMatrix in="SourceAlpha" type="matrix" values="0 0 0 0 0 0 0 0 0 0 0 0 0 0 0 0 0 0 127 0" result="hardAlpha"/>
<feOffset dx="-3" dy="4"/>
<feGaussianBlur stdDeviation="4.15"/>
<feComposite in2="hardAlpha" operator="out"/>
<feColorMatrix type="matrix" values="0 0 0 0 0 0 0 0 0 0 0 0 0 0 0 0 0 0 0.25 0"/>
<feBlend mode="normal" in2="BackgroundImageFix" result="effect1_dropShadow_5_196"/>
<feBlend mode="normal" in="SourceGraphic" in2="effect1_dropShadow_5_196" result="shape"/>
</filter>
<linearGradient id="paint0_linear_5_196" x1="-323" y1="540" x2="512" y2="540" gradientUnits="userSpaceOnUse">
<stop offset="1" stop-color="#131313"/>
</linearGradient>
<linearGradient id="paint1_linear_5_196" x1="1440" y1="1080" x2="1440" y2="540" gradientUnits="userSpaceOnUse">
<stop stop-color="#40A3FD"/>
<stop offset="1" stop-color="#0072D9"/>
</linearGradient>
<linearGradient id="paint2_linear_5_196" x1="1331" y1="658" x2="1331" y2="693" gradientUnits="userSpaceOnUse">
<stop stop-color="#0A8AFE"/>
<stop offset="1" stop-color="#3BA55D"/>
</linearGradient>
<linearGradient id="paint3_linear_5_196" x1="1350.5" y1="146.5" x2="1542" y2="390.5" gradientUnits="userSpaceOnUse">
<stop stop-color="#2E9BFF"/>
<stop offset="1" stop-color="#42B868"/>
</linearGradient>
<clipPath id="clip0_5_196">
<rect width="1920" height="1080" fill="white"/>
</clipPath>
<clipPath id="clip1_5_196">
<rect width="33.3278" height="33.3278" fill="white" transform="translate(1278.25 756.718)"/>
</clipPath>
</defs>
</svg>
