<svg width="1920" height="1080" viewBox="0 0 1920 1080" fill="none" xmlns="http://www.w3.org/2000/svg">
<rect width="1920" height="1080" fill="white"/>
<g filter="url(#filter0_d_5_241)">
<rect x="850" y="430" width="221" height="221" rx="67" fill="url(#paint0_linear_5_241)" stroke="url(#paint1_linear_5_241)" stroke-width="2"/>
<path fill-rule="evenodd" clip-rule="evenodd" d="M894.611 486C907.232 486 926.534 489.741 941.939 502.07C949.013 507.732 954.806 514.817 958.844 522.014C959.799 523.716 960.665 525.441 961.43 527.169C962.194 525.441 963.06 523.716 964.015 522.014C968.053 514.817 973.846 507.732 980.92 502.07C996.325 489.741 1015.63 486 1028.25 486H1030.79L1031.84 488.273C1033.71 492.292 1034 497.944 1033.81 502.905C1033.61 508.052 1032.85 513.231 1032.13 516.776C1029.62 529.047 1021.64 545.029 1003.97 551.119C1003.33 551.342 1002.68 551.552 1002.03 551.749C1007.68 555.443 1012.06 561.316 1012.93 569.371C1014.25 581.626 1006.29 594.242 991.094 595.869C982.071 596.835 975.418 592.284 971.029 587.611C968.561 584.983 966.576 582.032 965.198 579.793C964.066 577.952 964.696 575.489 966.536 574.329C968.376 573.169 970.757 573.736 971.872 575.587C973.082 577.596 974.66 580 976.837 582.318C980.347 586.056 984.705 588.714 990.239 588.121C1000.62 587.009 1005.98 578.666 1005.06 570.195C1004 560.399 994.945 554.845 986.315 554.845C980.632 554.845 977.202 555.7 974.737 557.019C972.297 558.325 970.392 560.297 968.107 563.385L960.459 575.628L960.495 575.651C959.742 576.81 956.806 582.477 952.422 587.204C952.199 587.445 951.969 587.685 951.733 587.926C950.462 589.321 949.048 590.67 947.632 591.6L947.58 591.525C943.508 594.46 938.337 596.54 932.077 595.869C916.878 594.242 908.918 581.626 910.242 569.371C911.107 561.363 915.44 555.512 921.038 551.814C920.323 551.598 919.605 551.367 918.885 551.119C901.221 545.029 893.244 529.047 890.733 516.776C890.007 513.231 889.25 508.052 889.051 502.905C888.859 497.944 889.144 492.292 891.014 488.273L892.072 486H894.611ZM1025.39 493.863C1014.1 494.396 998.419 498.107 985.91 508.119C979.669 513.114 974.517 519.409 970.939 525.784C968.257 530.565 966.544 535.238 965.843 539.314C965.47 541.487 963.667 543.284 961.43 543.284C959.192 543.284 957.389 541.487 957.016 539.314C956.315 535.238 954.602 530.565 951.92 525.784C948.342 519.409 943.191 513.114 936.95 508.119C924.44 498.107 908.759 494.396 897.471 493.863C896.992 496.124 896.824 499.158 896.957 502.608C897.138 507.269 897.832 512.027 898.488 515.236C900.709 526.086 907.516 538.942 921.499 543.763C932.581 547.583 943.724 546.142 948.675 548.199C949.429 548.417 950.149 548.674 950.841 548.976C953.336 550.064 955.274 551.649 957.138 553.559C958.652 555.11 958.434 557.598 956.778 559.002C955.121 560.405 952.66 560.183 951.125 558.652C949.811 557.343 948.808 556.612 947.638 556.103C945.716 555.264 942.904 554.845 936.856 554.845C928.227 554.845 919.167 560.399 918.109 570.195C917.195 578.666 922.55 587.009 932.932 588.121C938.086 588.673 942.363 586.24 945.928 582.629C946.383 582.126 946.857 581.571 947.34 580.975C948.846 579.117 950.178 577.194 950.921 576.026L961.452 559.168L961.531 559.041L961.619 558.921C964.176 555.45 966.936 552.324 970.961 550.17C971.977 549.626 973.048 549.158 974.185 548.762C979.854 546.788 990.278 547.583 1001.36 543.763C1015.34 538.942 1022.15 526.086 1024.37 515.236C1025.03 512.027 1025.72 507.269 1025.9 502.608C1026.04 499.158 1025.87 496.124 1025.39 493.863Z" fill="white"/>
</g>
<g filter="url(#filter1_d_5_241)">
<rect x="1183" y="430" width="221" height="221" rx="67" fill="#202020" stroke="url(#paint2_linear_5_241)" stroke-width="2"/>
<path fill-rule="evenodd" clip-rule="evenodd" d="M1227.61 486C1240.23 486 1259.53 489.741 1274.94 502.07C1282.01 507.732 1287.81 514.817 1291.84 522.014C1292.8 523.716 1293.66 525.441 1294.43 527.169C1295.19 525.441 1296.06 523.716 1297.01 522.014C1301.05 514.817 1306.85 507.732 1313.92 502.07C1329.32 489.741 1348.63 486 1361.25 486H1363.79L1364.84 488.273C1366.71 492.292 1367 497.944 1366.81 502.905C1366.61 508.052 1365.85 513.231 1365.13 516.776C1362.62 529.047 1354.64 545.029 1336.97 551.119C1336.33 551.342 1335.68 551.552 1335.03 551.749C1340.68 555.443 1345.06 561.316 1345.93 569.371C1347.25 581.626 1339.29 594.242 1324.09 595.869C1315.07 596.835 1308.42 592.284 1304.03 587.611C1301.56 584.983 1299.58 582.032 1298.2 579.793C1297.07 577.952 1297.7 575.489 1299.54 574.329C1301.38 573.169 1303.76 573.736 1304.87 575.587C1306.08 577.596 1307.66 580 1309.84 582.318C1313.35 586.056 1317.7 588.714 1323.24 588.121C1333.62 587.009 1338.98 578.666 1338.06 570.195C1337 560.399 1327.94 554.845 1319.32 554.845C1313.63 554.845 1310.2 555.7 1307.74 557.019C1305.3 558.325 1303.39 560.297 1301.11 563.385L1293.46 575.628L1293.49 575.651C1292.74 576.81 1289.81 582.477 1285.42 587.204C1285.2 587.445 1284.97 587.685 1284.73 587.926C1283.46 589.321 1282.05 590.67 1280.63 591.6L1280.58 591.525C1276.51 594.46 1271.34 596.54 1265.08 595.869C1249.88 594.242 1241.92 581.626 1243.24 569.371C1244.11 561.363 1248.44 555.512 1254.04 551.814C1253.32 551.598 1252.6 551.367 1251.89 551.119C1234.22 545.029 1226.24 529.047 1223.73 516.776C1223.01 513.231 1222.25 508.052 1222.05 502.905C1221.86 497.944 1222.14 492.292 1224.01 488.273L1225.07 486H1227.61ZM1358.39 493.863C1347.1 494.396 1331.42 498.107 1318.91 508.119C1312.67 513.114 1307.52 519.409 1303.94 525.784C1301.26 530.565 1299.54 535.238 1298.84 539.314C1298.47 541.487 1296.67 543.284 1294.43 543.284C1292.19 543.284 1290.39 541.487 1290.02 539.314C1289.32 535.238 1287.6 530.565 1284.92 525.784C1281.34 519.409 1276.19 513.114 1269.95 508.119C1257.44 498.107 1241.76 494.396 1230.47 493.863C1229.99 496.124 1229.82 499.158 1229.96 502.608C1230.14 507.269 1230.83 512.027 1231.49 515.236C1233.71 526.086 1240.52 538.942 1254.5 543.763C1265.58 547.583 1276.72 546.142 1281.67 548.199C1282.43 548.417 1283.15 548.674 1283.84 548.976C1286.34 550.064 1288.27 551.649 1290.14 553.559C1291.65 555.11 1291.43 557.598 1289.78 559.002C1288.12 560.405 1285.66 560.183 1284.12 558.652C1282.81 557.343 1281.81 556.612 1280.64 556.103C1278.72 555.264 1275.9 554.845 1269.86 554.845C1261.23 554.845 1252.17 560.399 1251.11 570.195C1250.19 578.666 1255.55 587.009 1265.93 588.121C1271.09 588.673 1275.36 586.24 1278.93 582.629C1279.38 582.126 1279.86 581.571 1280.34 580.975C1281.85 579.117 1283.18 577.194 1283.92 576.026L1294.45 559.168L1294.53 559.041L1294.62 558.921C1297.18 555.45 1299.94 552.324 1303.96 550.17C1304.98 549.626 1306.05 549.158 1307.18 548.762C1312.85 546.788 1323.28 547.583 1334.36 543.763C1348.34 538.942 1355.15 526.086 1357.37 515.236C1358.03 512.027 1358.72 507.269 1358.9 502.608C1359.04 499.158 1358.87 496.124 1358.39 493.863Z" fill="url(#paint3_linear_5_241)"/>
</g>
<g filter="url(#filter2_d_5_241)">
<rect x="517" y="430" width="221" height="221" rx="67" fill="white" stroke="url(#paint4_linear_5_241)" stroke-width="2"/>
<path fill-rule="evenodd" clip-rule="evenodd" d="M561.611 486C574.232 486 593.534 489.741 608.939 502.07C616.013 507.732 621.806 514.817 625.844 522.014C626.799 523.716 627.665 525.441 628.43 527.169C629.194 525.441 630.06 523.716 631.015 522.014C635.053 514.817 640.846 507.732 647.92 502.07C663.325 489.741 682.627 486 695.249 486H697.787L698.845 488.273C700.715 492.292 701 497.944 700.808 502.905C700.609 508.052 699.852 513.231 699.127 516.776C696.615 529.047 688.638 545.029 670.974 551.119C670.326 551.342 669.679 551.552 669.034 551.749C674.679 555.443 679.06 561.316 679.93 569.371C681.253 581.626 673.293 594.242 658.094 595.869C649.071 596.835 642.418 592.284 638.029 587.611C635.561 584.983 633.576 582.032 632.198 579.793C631.066 577.952 631.696 575.489 633.536 574.329C635.376 573.169 637.757 573.736 638.872 575.587C640.082 577.596 641.66 580 643.837 582.318C647.347 586.056 651.705 588.714 657.239 588.121C667.622 587.009 672.977 578.666 672.062 570.195C671.004 560.399 661.945 554.845 653.315 554.845C647.632 554.845 644.202 555.7 641.737 557.019C639.297 558.325 637.392 560.297 635.107 563.385L627.459 575.628L627.495 575.651C626.742 576.81 623.806 582.477 619.422 587.204C619.199 587.445 618.969 587.685 618.733 587.926C617.462 589.321 616.048 590.67 614.632 591.6L614.58 591.525C610.508 594.46 605.337 596.54 599.077 595.869C583.878 594.242 575.918 581.626 577.242 569.371C578.107 561.363 582.44 555.512 588.038 551.814C587.323 551.598 586.605 551.367 585.885 551.119C568.221 545.029 560.244 529.047 557.733 516.776C557.007 513.231 556.25 508.052 556.051 502.905C555.859 497.944 556.144 492.292 558.014 488.273L559.072 486H561.611ZM692.388 493.863C681.1 494.396 665.419 498.107 652.91 508.119C646.669 513.114 641.517 519.409 637.939 525.784C635.257 530.565 633.544 535.238 632.843 539.314C632.47 541.487 630.667 543.284 628.43 543.284C626.192 543.284 624.389 541.487 624.016 539.314C623.315 535.238 621.602 530.565 618.92 525.784C615.342 519.409 610.191 513.114 603.95 508.119C591.44 498.107 575.759 494.396 564.471 493.863C563.992 496.124 563.824 499.158 563.957 502.608C564.138 507.269 564.832 512.027 565.488 515.236C567.709 526.086 574.516 538.942 588.499 543.763C599.581 547.583 610.724 546.142 615.675 548.199C616.429 548.417 617.149 548.674 617.841 548.976C620.336 550.064 622.274 551.649 624.138 553.559C625.652 555.11 625.434 557.598 623.778 559.002C622.121 560.405 619.66 560.183 618.125 558.652C616.811 557.343 615.808 556.612 614.638 556.103C612.716 555.264 609.904 554.845 603.856 554.845C595.227 554.845 586.167 560.399 585.109 570.195C584.195 578.666 589.55 587.009 599.932 588.121C605.086 588.673 609.363 586.24 612.928 582.629C613.383 582.126 613.857 581.571 614.34 580.975C615.846 579.117 617.178 577.194 617.921 576.026L628.452 559.168L628.531 559.041L628.619 558.921C631.176 555.45 633.936 552.324 637.961 550.17C638.977 549.626 640.048 549.158 641.185 548.762C646.854 546.788 657.278 547.583 668.36 543.763C682.343 538.942 689.15 526.086 691.371 515.236C692.028 512.027 692.721 507.269 692.902 502.608C693.035 499.158 692.867 496.124 692.388 493.863Z" fill="url(#paint5_linear_5_241)"/>
</g>
<defs>
<filter id="filter0_d_5_241" x="837.7" y="424.7" width="239.6" height="239.6" filterUnits="userSpaceOnUse" color-interpolation-filters="sRGB">
<feFlood flood-opacity="0" result="BackgroundImageFix"/>
<feColorMatrix in="SourceAlpha" type="matrix" values="0 0 0 0 0 0 0 0 0 0 0 0 0 0 0 0 0 0 127 0" result="hardAlpha"/>
<feOffset dx="-3" dy="4"/>
<feGaussianBlur stdDeviation="4.15"/>
<feComposite in2="hardAlpha" operator="out"/>
<feColorMatrix type="matrix" values="0 0 0 0 0 0 0 0 0 0 0 0 0 0 0 0 0 0 0.25 0"/>
<feBlend mode="normal" in2="BackgroundImageFix" result="effect1_dropShadow_5_241"/>
<feBlend mode="normal" in="SourceGraphic" in2="effect1_dropShadow_5_241" result="shape"/>
</filter>
<filter id="filter1_d_5_241" x="1170.7" y="424.7" width="239.6" height="239.6" filterUnits="userSpaceOnUse" color-interpolation-filters="sRGB">
<feFlood flood-opacity="0" result="BackgroundImageFix"/>
<feColorMatrix in="SourceAlpha" type="matrix" values="0 0 0 0 0 0 0 0 0 0 0 0 0 0 0 0 0 0 127 0" result="hardAlpha"/>
<feOffset dx="-3" dy="4"/>
<feGaussianBlur stdDeviation="4.15"/>
<feComposite in2="hardAlpha" operator="out"/>
<feColorMatrix type="matrix" values="0 0 0 0 0 0 0 0 0 0 0 0 0 0 0 0 0 0 0.25 0"/>
<feBlend mode="normal" in2="BackgroundImageFix" result="effect1_dropShadow_5_241"/>
<feBlend mode="normal" in="SourceGraphic" in2="effect1_dropShadow_5_241" result="shape"/>
</filter>
<filter id="filter2_d_5_241" x="504.7" y="424.7" width="239.6" height="239.6" filterUnits="userSpaceOnUse" color-interpolation-filters="sRGB">
<feFlood flood-opacity="0" result="BackgroundImageFix"/>
<feColorMatrix in="SourceAlpha" type="matrix" values="0 0 0 0 0 0 0 0 0 0 0 0 0 0 0 0 0 0 127 0" result="hardAlpha"/>
<feOffset dx="-3" dy="4"/>
<feGaussianBlur stdDeviation="4.15"/>
<feComposite in2="hardAlpha" operator="out"/>
<feColorMatrix type="matrix" values="0 0 0 0 0 0 0 0 0 0 0 0 0 0 0 0 0 0 0.25 0"/>
<feBlend mode="normal" in2="BackgroundImageFix" result="effect1_dropShadow_5_241"/>
<feBlend mode="normal" in="SourceGraphic" in2="effect1_dropShadow_5_241" result="shape"/>
</filter>
<linearGradient id="paint0_linear_5_241" x1="871.5" y1="417.5" x2="1063" y2="661.5" gradientUnits="userSpaceOnUse">
<stop stop-color="#2E9BFF"/>
<stop offset="1" stop-color="#42B868"/>
</linearGradient>
<linearGradient id="paint1_linear_5_241" x1="881" y1="421.5" x2="1057.5" y2="671" gradientUnits="userSpaceOnUse">
<stop stop-color="white"/>
<stop offset="1" stop-color="white" stop-opacity="0"/>
</linearGradient>
<linearGradient id="paint2_linear_5_241" x1="1188.5" y1="396" x2="1405" y2="661" gradientUnits="userSpaceOnUse">
<stop stop-color="white"/>
<stop offset="1" stop-color="white" stop-opacity="0"/>
</linearGradient>
<linearGradient id="paint3_linear_5_241" x1="1244.5" y1="477.5" x2="1347.5" y2="609.5" gradientUnits="userSpaceOnUse">
<stop stop-color="#0A8AFE"/>
<stop offset="1" stop-color="#40DE71"/>
</linearGradient>
<linearGradient id="paint4_linear_5_241" x1="500" y1="384" x2="751" y2="682" gradientUnits="userSpaceOnUse">
<stop stop-color="#0A8AFE"/>
<stop offset="1" stop-color="#3BA55D" stop-opacity="0"/>
</linearGradient>
<linearGradient id="paint5_linear_5_241" x1="557.5" y1="471" x2="688" y2="613" gradientUnits="userSpaceOnUse">
<stop stop-color="#0A8AFE"/>
<stop offset="1" stop-color="#23BA54"/>
</linearGradient>
</defs>
</svg>
