<svg width="1920" height="1080" viewBox="0 0 1920 1080" fill="none" xmlns="http://www.w3.org/2000/svg">
<g clip-path="url(#clip0_5_101)">
<rect width="1920" height="1080" fill="#131313"/>
<path fill-rule="evenodd" clip-rule="evenodd" d="M524.562 175C606.814 175 732.6 199.794 832.985 281.502C879.084 319.026 916.834 365.976 943.153 413.676C949.377 424.956 955.017 436.383 960 447.836C964.983 436.383 970.623 424.956 976.847 413.676C1003.17 365.976 1040.92 319.026 1087.02 281.502C1187.4 199.794 1313.19 175 1395.44 175H1411.98L1418.87 190.065C1431.06 216.701 1432.92 254.158 1431.67 287.034C1430.37 321.143 1425.44 355.465 1420.71 378.963C1404.34 460.286 1352.36 566.2 1237.25 606.562C1233.02 608.042 1228.81 609.429 1224.61 610.736C1261.4 635.218 1289.94 674.141 1295.61 727.52C1304.23 808.742 1252.36 892.348 1153.32 903.133C1094.51 909.536 1051.16 879.373 1022.56 848.404C1006.47 830.985 993.537 811.432 984.559 796.589C977.182 784.391 981.284 768.071 993.275 760.383C1005.27 752.694 1020.79 756.452 1028.05 768.719C1035.94 782.033 1046.22 797.965 1060.41 813.327C1083.28 838.097 1111.68 855.712 1147.74 851.785C1215.4 844.417 1250.3 789.122 1244.34 732.985C1237.44 668.06 1178.41 631.254 1122.17 631.254C1085.13 631.254 1062.78 636.923 1046.72 645.663C1030.82 654.315 1018.41 667.385 1003.52 687.852L953.674 768.988L953.909 769.139C949 776.825 929.87 814.378 901.302 845.703C899.844 847.301 898.347 848.897 896.814 850.49C888.526 859.738 879.315 868.678 870.084 874.843L869.749 874.34C843.209 893.791 809.516 907.576 768.719 903.133C669.672 892.348 617.801 808.742 626.426 727.52C632.061 674.453 660.304 635.672 696.78 611.165C692.121 609.734 687.441 608.206 682.753 606.562C567.641 566.2 515.658 460.286 499.291 378.963C494.562 355.465 489.631 321.143 488.333 287.034C487.082 254.158 488.941 216.701 501.127 190.065L508.02 175H524.562ZM1376.8 227.11C1303.23 230.642 1201.05 255.233 1119.53 321.589C1078.86 354.693 1045.28 396.413 1021.97 438.663C1004.49 470.348 993.329 501.313 988.763 528.325C986.329 542.729 974.583 554.638 960 554.638C945.417 554.638 933.671 542.729 931.237 528.325C926.671 501.313 915.51 470.348 898.027 438.663C874.716 396.413 841.142 354.693 800.472 321.589C718.949 255.233 616.766 230.642 543.203 227.11C540.079 242.096 538.985 262.203 539.855 285.067C541.031 315.952 545.553 347.486 549.833 368.753C564.304 440.661 608.662 525.858 699.784 557.809C772.001 583.13 844.616 573.577 876.88 587.209C881.795 588.656 886.486 590.357 891 592.359C907.254 599.568 919.885 610.074 932.03 622.73C941.898 633.011 940.48 649.502 929.686 658.801C918.891 668.101 902.853 666.633 892.846 656.488C884.285 647.808 877.747 642.967 870.128 639.589C857.599 634.032 839.277 631.254 799.862 631.254C743.627 631.254 684.59 668.06 677.696 732.985C671.734 789.122 706.632 844.417 774.291 851.785C807.875 855.441 835.748 839.315 858.979 815.388C861.945 812.052 865.037 808.372 868.184 804.422C877.995 792.112 886.674 779.364 891.519 771.626L960.149 659.901L960.661 659.065L961.237 658.27C977.896 635.266 995.883 614.544 1022.11 600.273C1028.74 596.668 1035.71 593.567 1043.12 590.943C1080.07 577.856 1148 583.13 1220.22 557.809C1311.34 525.858 1355.7 440.661 1370.17 368.753C1374.45 347.486 1378.97 315.952 1380.15 285.067C1381.02 262.203 1379.92 242.096 1376.8 227.11Z" fill="white" fill-opacity="0.02"/>
<g filter="url(#filter0_f_5_101)">
<ellipse cx="422.16" cy="458.939" rx="422.16" ry="458.939" transform="matrix(-0.707107 0.707107 0.707107 0.707107 -380.975 -592.626)" fill="#0A8AFE" fill-opacity="0.8"/>
</g>
<g opacity="0.3" filter="url(#filter1_f_5_101)" style="mix-blend-mode:plus-lighter">
<rect width="183.011" height="1296.36" transform="matrix(-0.724596 0.689174 0.691922 0.721972 -113.82 -26.1406)" fill="url(#paint0_linear_5_101)"/>
</g>
<g opacity="0.8" filter="url(#filter2_f_5_101)" style="mix-blend-mode:plus-lighter">
<rect width="183.006" height="1296.39" transform="matrix(-0.695489 0.718537 0.716815 0.697263 -215.78 70.3277)" fill="url(#paint1_linear_5_101)"/>
</g>
<g opacity="0.3" filter="url(#filter3_f_5_101)">
<g filter="url(#filter4_f_5_101)">
<ellipse cx="422.16" cy="490.635" rx="422.16" ry="490.635" transform="matrix(-0.707107 0.707107 0.707107 0.707107 84.8721 -739)" fill="#0A8AFE" fill-opacity="0.8"/>
</g>
<g opacity="0.3" filter="url(#filter5_f_5_101)" style="mix-blend-mode:plus-lighter">
<path d="M380.813 -143.727L247.98 -17.8244L1208.25 981.404L1341.09 855.501L380.813 -143.727Z" fill="url(#paint2_linear_5_101)"/>
</g>
<g opacity="0.8" filter="url(#filter6_f_5_101)" style="mix-blend-mode:plus-lighter">
<rect width="183.01" height="1385.91" transform="matrix(-0.69468 0.719319 0.716192 0.697903 278.666 -47.4464)" fill="url(#paint3_linear_5_101)"/>
</g>
</g>
<g opacity="0.3" filter="url(#filter7_f_5_101)">
<g filter="url(#filter8_f_5_101)">
<ellipse cx="422.16" cy="405.133" rx="422.16" ry="405.133" transform="matrix(-0.707107 0.707107 0.707107 0.707107 656.037 -715.636)" fill="#0A8AFE" fill-opacity="0.8"/>
</g>
<g opacity="0.8" filter="url(#filter9_f_5_101)" style="mix-blend-mode:plus-lighter">
<rect width="182.999" height="1144.44" transform="matrix(-0.72257 0.691298 0.689882 0.723922 874.323 -198.019)" fill="url(#paint4_linear_5_101)"/>
</g>
<g opacity="0.8" filter="url(#filter10_f_5_101)" style="mix-blend-mode:plus-lighter">
<rect width="183.001" height="1144.43" transform="matrix(-0.69686 0.717207 0.718094 0.695946 772.685 -101.23)" fill="url(#paint5_linear_5_101)"/>
</g>
</g>
<g opacity="0.4" filter="url(#filter11_f_5_101)" style="mix-blend-mode:plus-lighter">
<ellipse cx="63.1792" cy="641.184" rx="63.1792" ry="641.184" transform="matrix(-0.707107 0.707107 0.707107 0.707107 486.465 -107.492)" fill="url(#paint6_linear_5_101)"/>
</g>
<g opacity="0.4" filter="url(#filter12_f_5_101)" style="mix-blend-mode:plus-lighter">
<ellipse cx="63.1792" cy="641.184" rx="63.1792" ry="641.184" transform="matrix(-0.707107 0.707107 0.707107 0.707107 -6.13184 -196.839)" fill="url(#paint7_linear_5_101)"/>
</g>
<path d="M85.8295 89.4545C85.7784 89.0227 85.571 88.6875 85.2074 88.4489C84.8438 88.2102 84.3977 88.0909 83.8693 88.0909C83.483 88.0909 83.1449 88.1534 82.8551 88.2784C82.5682 88.4034 82.3438 88.5753 82.1818 88.794C82.0227 89.0128 81.9432 89.2614 81.9432 89.5398C81.9432 89.7727 81.9986 89.973 82.1094 90.1406C82.223 90.3054 82.3679 90.4432 82.544 90.554C82.7202 90.6619 82.9048 90.7514 83.098 90.8224C83.2912 90.8906 83.4688 90.946 83.6307 90.9886L84.517 91.2273C84.7443 91.2869 84.9972 91.3693 85.2756 91.4744C85.5568 91.5795 85.8253 91.723 86.081 91.9048C86.3395 92.0838 86.5526 92.3139 86.7202 92.5952C86.8878 92.8764 86.9716 93.2216 86.9716 93.6307C86.9716 94.1023 86.848 94.5284 86.6009 94.9091C86.3565 95.2898 85.9986 95.5923 85.527 95.8168C85.0582 96.0412 84.4886 96.1534 83.8182 96.1534C83.1932 96.1534 82.652 96.0526 82.1946 95.8509C81.7401 95.6491 81.3821 95.3679 81.1207 95.0071C80.8622 94.6463 80.7159 94.2273 80.6818 93.75H81.7727C81.8011 94.0795 81.9119 94.3523 82.1051 94.5682C82.3011 94.7812 82.5483 94.9403 82.8466 95.0455C83.1477 95.1477 83.4716 95.1989 83.8182 95.1989C84.2216 95.1989 84.5838 95.1335 84.9048 95.0028C85.2259 94.8693 85.4801 94.6847 85.6676 94.4489C85.8551 94.2102 85.9489 93.9318 85.9489 93.6136C85.9489 93.3239 85.8679 93.0881 85.706 92.9062C85.544 92.7244 85.331 92.5767 85.0668 92.4631C84.8026 92.3494 84.517 92.25 84.2102 92.1648L83.1364 91.858C82.4545 91.6619 81.9148 91.3821 81.517 91.0185C81.1193 90.6548 80.9205 90.179 80.9205 89.5909C80.9205 89.1023 81.0526 88.6761 81.3168 88.3125C81.5838 87.946 81.9418 87.6619 82.3906 87.4602C82.8423 87.2557 83.3466 87.1534 83.9034 87.1534C84.4659 87.1534 84.9659 87.2543 85.4034 87.456C85.8409 87.6548 86.1875 87.9276 86.4432 88.2741C86.7017 88.6207 86.8381 89.0142 86.8523 89.4545H85.8295ZM92.6978 93.3239V89.4545H93.7035V96H92.6978V94.892H92.6296C92.4762 95.2244 92.2376 95.5071 91.9137 95.7401C91.5898 95.9702 91.1808 96.0852 90.6864 96.0852C90.2773 96.0852 89.9137 95.9957 89.5955 95.8168C89.2773 95.6349 89.0273 95.3622 88.8455 94.9986C88.6637 94.6321 88.5728 94.1705 88.5728 93.6136V89.4545H89.5785V93.5455C89.5785 94.0227 89.712 94.4034 89.979 94.6875C90.2489 94.9716 90.5927 95.1136 91.0103 95.1136C91.2603 95.1136 91.5146 95.0497 91.7731 94.9219C92.0344 94.794 92.2532 94.598 92.4293 94.3338C92.6083 94.0696 92.6978 93.733 92.6978 93.3239ZM100.182 90.9205L99.2784 91.1761C99.2216 91.0256 99.1378 90.8793 99.027 90.7372C98.919 90.5923 98.7713 90.473 98.5838 90.3793C98.3963 90.2855 98.1562 90.2386 97.8636 90.2386C97.4631 90.2386 97.1293 90.331 96.8622 90.5156C96.598 90.6974 96.4659 90.929 96.4659 91.2102C96.4659 91.4602 96.5568 91.6577 96.7386 91.8026C96.9205 91.9474 97.2045 92.0682 97.5909 92.1648L98.5625 92.4034C99.1477 92.5455 99.5838 92.7628 99.8707 93.0554C100.158 93.3452 100.301 93.7187 100.301 94.1761C100.301 94.5511 100.193 94.8864 99.9773 95.1818C99.7642 95.4773 99.4659 95.7102 99.0824 95.8807C98.6989 96.0511 98.2528 96.1364 97.7443 96.1364C97.0767 96.1364 96.5241 95.9915 96.0866 95.7017C95.6491 95.4119 95.3722 94.9886 95.2557 94.4318L96.2102 94.1932C96.3011 94.5455 96.473 94.8097 96.7259 94.9858C96.9815 95.1619 97.3153 95.25 97.7273 95.25C98.196 95.25 98.5682 95.1506 98.8438 94.9517C99.1222 94.75 99.2614 94.5085 99.2614 94.2273C99.2614 94 99.1818 93.8097 99.0227 93.6562C98.8636 93.5 98.6193 93.3835 98.2898 93.3068L97.1989 93.0511C96.5994 92.9091 96.1591 92.6889 95.8778 92.3906C95.5994 92.0895 95.4602 91.7131 95.4602 91.2614C95.4602 90.892 95.5639 90.5653 95.7713 90.2812C95.9815 89.9972 96.267 89.7741 96.6278 89.6122C96.9915 89.4503 97.4034 89.3693 97.8636 89.3693C98.5114 89.3693 99.0199 89.5114 99.3892 89.7955C99.7614 90.0795 100.026 90.4545 100.182 90.9205ZM104.662 89.4545V90.3068H101.27V89.4545H104.662ZM102.258 87.8864H103.264V94.125C103.264 94.4091 103.305 94.6222 103.387 94.7642C103.473 94.9034 103.581 94.9972 103.711 95.0455C103.845 95.0909 103.985 95.1136 104.133 95.1136C104.244 95.1136 104.335 95.108 104.406 95.0966C104.477 95.0824 104.534 95.071 104.576 95.0625L104.781 95.9659C104.713 95.9915 104.618 96.017 104.495 96.0426C104.373 96.071 104.218 96.0852 104.031 96.0852C103.747 96.0852 103.468 96.0241 103.196 95.902C102.926 95.7798 102.701 95.5938 102.522 95.3438C102.346 95.0938 102.258 94.7784 102.258 94.3977V87.8864ZM108.1 96.1534C107.686 96.1534 107.309 96.0753 106.971 95.919C106.633 95.7599 106.365 95.5312 106.166 95.233C105.967 94.9318 105.868 94.5682 105.868 94.142C105.868 93.767 105.941 93.4631 106.089 93.2301C106.237 92.9943 106.434 92.8097 106.681 92.6761C106.929 92.5426 107.201 92.4432 107.5 92.3778C107.801 92.3097 108.103 92.2557 108.407 92.2159C108.805 92.1648 109.127 92.1264 109.375 92.1009C109.625 92.0724 109.806 92.0256 109.92 91.9602C110.037 91.8949 110.095 91.7812 110.095 91.6193V91.5852C110.095 91.1648 109.98 90.8381 109.75 90.6051C109.522 90.3722 109.177 90.2557 108.714 90.2557C108.234 90.2557 107.858 90.3608 107.585 90.571C107.312 90.7812 107.12 91.0057 107.01 91.2443L106.055 90.9034C106.225 90.5057 106.453 90.196 106.737 89.9744C107.024 89.75 107.336 89.5937 107.674 89.5057C108.015 89.4148 108.35 89.3693 108.68 89.3693C108.89 89.3693 109.132 89.3949 109.404 89.446C109.68 89.4943 109.946 89.5952 110.201 89.7486C110.46 89.902 110.674 90.1335 110.845 90.4432C111.015 90.7528 111.1 91.1676 111.1 91.6875V96H110.095V95.1136H110.044C109.975 95.2557 109.862 95.4077 109.703 95.5696C109.544 95.7315 109.332 95.8693 109.068 95.983C108.804 96.0966 108.481 96.1534 108.1 96.1534ZM108.254 95.25C108.652 95.25 108.987 95.1719 109.26 95.0156C109.535 94.8594 109.743 94.6577 109.882 94.4105C110.024 94.1634 110.095 93.9034 110.095 93.6307V92.7102C110.052 92.7614 109.958 92.8082 109.814 92.8509C109.672 92.8906 109.507 92.9261 109.319 92.9574C109.135 92.9858 108.954 93.0114 108.778 93.0341C108.605 93.054 108.464 93.071 108.356 93.0852C108.095 93.1193 107.85 93.1747 107.623 93.2514C107.399 93.3253 107.217 93.4375 107.078 93.5881C106.941 93.7358 106.873 93.9375 106.873 94.1932C106.873 94.5426 107.002 94.8068 107.261 94.9858C107.522 95.1619 107.853 95.25 108.254 95.25ZM112.936 96V89.4545H113.942V96H112.936ZM113.447 88.3636C113.251 88.3636 113.082 88.2969 112.94 88.1634C112.801 88.0298 112.732 87.8693 112.732 87.6818C112.732 87.4943 112.801 87.3338 112.94 87.2003C113.082 87.0668 113.251 87 113.447 87C113.643 87 113.811 87.0668 113.95 87.2003C114.092 87.3338 114.163 87.4943 114.163 87.6818C114.163 87.8693 114.092 88.0298 113.95 88.1634C113.811 88.2969 113.643 88.3636 113.447 88.3636ZM116.789 92.0625V96H115.784V89.4545H116.755V90.4773H116.841C116.994 90.1449 117.227 89.8778 117.539 89.6761C117.852 89.4716 118.255 89.3693 118.75 89.3693C119.193 89.3693 119.581 89.4602 119.913 89.642C120.245 89.821 120.504 90.0938 120.689 90.4602C120.873 90.8239 120.966 91.2841 120.966 91.8409V96H119.96V91.9091C119.96 91.3949 119.826 90.9943 119.559 90.7074C119.292 90.4176 118.926 90.2727 118.46 90.2727C118.139 90.2727 117.852 90.3423 117.599 90.4815C117.349 90.6207 117.152 90.8239 117.007 91.0909C116.862 91.358 116.789 91.6818 116.789 92.0625ZM124.729 96.1534C124.315 96.1534 123.938 96.0753 123.6 95.919C123.262 95.7599 122.994 95.5312 122.795 95.233C122.596 94.9318 122.496 94.5682 122.496 94.142C122.496 93.767 122.57 93.4631 122.718 93.2301C122.866 92.9943 123.063 92.8097 123.31 92.6761C123.558 92.5426 123.83 92.4432 124.129 92.3778C124.43 92.3097 124.732 92.2557 125.036 92.2159C125.434 92.1648 125.756 92.1264 126.004 92.1009C126.254 92.0724 126.435 92.0256 126.549 91.9602C126.665 91.8949 126.724 91.7812 126.724 91.6193V91.5852C126.724 91.1648 126.609 90.8381 126.379 90.6051C126.151 90.3722 125.806 90.2557 125.343 90.2557C124.863 90.2557 124.487 90.3608 124.214 90.571C123.941 90.7812 123.749 91.0057 123.638 91.2443L122.684 90.9034C122.854 90.5057 123.082 90.196 123.366 89.9744C123.653 89.75 123.965 89.5937 124.303 89.5057C124.644 89.4148 124.979 89.3693 125.309 89.3693C125.519 89.3693 125.761 89.3949 126.033 89.446C126.309 89.4943 126.575 89.5952 126.83 89.7486C127.089 89.902 127.303 90.1335 127.474 90.4432C127.644 90.7528 127.729 91.1676 127.729 91.6875V96H126.724V95.1136H126.673C126.604 95.2557 126.491 95.4077 126.332 95.5696C126.173 95.7315 125.961 95.8693 125.697 95.983C125.433 96.0966 125.11 96.1534 124.729 96.1534ZM124.883 95.25C125.281 95.25 125.616 95.1719 125.888 95.0156C126.164 94.8594 126.371 94.6577 126.511 94.4105C126.653 94.1634 126.724 93.9034 126.724 93.6307V92.7102C126.681 92.7614 126.587 92.8082 126.442 92.8509C126.3 92.8906 126.136 92.9261 125.948 92.9574C125.763 92.9858 125.583 93.0114 125.407 93.0341C125.234 93.054 125.093 93.071 124.985 93.0852C124.724 93.1193 124.479 93.1747 124.252 93.2514C124.028 93.3253 123.846 93.4375 123.707 93.5881C123.57 93.7358 123.502 93.9375 123.502 94.1932C123.502 94.5426 123.631 94.8068 123.89 94.9858C124.151 95.1619 124.482 95.25 124.883 95.25ZM129.701 96V87.2727H130.707V90.4943H130.792C130.866 90.3807 130.968 90.2358 131.099 90.0597C131.233 89.8807 131.423 89.7216 131.67 89.5824C131.92 89.4403 132.258 89.3693 132.684 89.3693C133.235 89.3693 133.721 89.5071 134.142 89.7827C134.562 90.0582 134.89 90.4489 135.126 90.9545C135.362 91.4602 135.48 92.0568 135.48 92.7443C135.48 93.4375 135.362 94.0384 135.126 94.5469C134.89 95.0526 134.564 95.4446 134.146 95.723C133.728 95.9986 133.247 96.1364 132.701 96.1364C132.281 96.1364 131.944 96.0668 131.691 95.9276C131.439 95.7855 131.244 95.625 131.108 95.446C130.971 95.2642 130.866 95.1136 130.792 94.9943H130.673V96H129.701ZM130.69 92.7273C130.69 93.2216 130.762 93.6577 130.907 94.0355C131.052 94.4105 131.264 94.7045 131.542 94.9176C131.821 95.1278 132.162 95.233 132.565 95.233C132.985 95.233 133.336 95.1222 133.618 94.9006C133.902 94.6761 134.115 94.375 134.257 93.9972C134.402 93.6165 134.474 93.1932 134.474 92.7273C134.474 92.267 134.403 91.8523 134.261 91.483C134.122 91.1108 133.91 90.8168 133.626 90.6009C133.345 90.3821 132.991 90.2727 132.565 90.2727C132.156 90.2727 131.812 90.3764 131.534 90.5838C131.255 90.7884 131.045 91.0753 130.903 91.4446C130.761 91.8111 130.69 92.2386 130.69 92.7273ZM137.018 96V89.4545H138.024V96H137.018ZM137.529 88.3636C137.333 88.3636 137.164 88.2969 137.022 88.1634C136.883 88.0298 136.814 87.8693 136.814 87.6818C136.814 87.4943 136.883 87.3338 137.022 87.2003C137.164 87.0668 137.333 87 137.529 87C137.725 87 137.893 87.0668 138.032 87.2003C138.174 87.3338 138.245 87.4943 138.245 87.6818C138.245 87.8693 138.174 88.0298 138.032 88.1634C137.893 88.2969 137.725 88.3636 137.529 88.3636ZM140.871 87.2727V96H139.866V87.2727H140.871ZM142.713 96V89.4545H143.719V96H142.713ZM143.225 88.3636C143.029 88.3636 142.86 88.2969 142.718 88.1634C142.578 88.0298 142.509 87.8693 142.509 87.6818C142.509 87.4943 142.578 87.3338 142.718 87.2003C142.86 87.0668 143.029 87 143.225 87C143.421 87 143.588 87.0668 143.728 87.2003C143.87 87.3338 143.941 87.4943 143.941 87.6818C143.941 87.8693 143.87 88.0298 143.728 88.1634C143.588 88.2969 143.421 88.3636 143.225 88.3636ZM148.408 89.4545V90.3068H145.016V89.4545H148.408ZM146.004 87.8864H147.01V94.125C147.01 94.4091 147.051 94.6222 147.134 94.7642C147.219 94.9034 147.327 94.9972 147.457 95.0455C147.591 95.0909 147.732 95.1136 147.879 95.1136C147.99 95.1136 148.081 95.108 148.152 95.0966C148.223 95.0824 148.28 95.071 148.322 95.0625L148.527 95.9659C148.459 95.9915 148.364 96.017 148.241 96.0426C148.119 96.071 147.964 96.0852 147.777 96.0852C147.493 96.0852 147.214 96.0241 146.942 95.902C146.672 95.7798 146.447 95.5938 146.268 95.3438C146.092 95.0938 146.004 94.7784 146.004 94.3977V87.8864ZM150.568 98.4545C150.398 98.4545 150.246 98.4403 150.112 98.4119C149.979 98.3864 149.886 98.3608 149.835 98.3352L150.091 97.4489C150.335 97.5114 150.551 97.5341 150.739 97.517C150.926 97.5 151.092 97.4162 151.237 97.2656C151.385 97.1179 151.52 96.8778 151.642 96.5455L151.83 96.0341L149.409 89.4545H150.5L152.307 94.6705H152.375L154.182 89.4545H155.273L152.494 96.9545C152.369 97.2926 152.214 97.5724 152.03 97.794C151.845 98.0185 151.631 98.1847 151.386 98.2926C151.145 98.4006 150.872 98.4545 150.568 98.4545ZM159.11 96.1364C158.479 96.1364 157.935 95.9972 157.478 95.7188C157.023 95.4375 156.673 95.0455 156.425 94.5426C156.181 94.0369 156.059 93.4489 156.059 92.7784C156.059 92.108 156.181 91.517 156.425 91.0057C156.673 90.4915 157.016 90.0909 157.457 89.804C157.9 89.5142 158.417 89.3693 159.008 89.3693C159.349 89.3693 159.685 89.4261 160.018 89.5398C160.35 89.6534 160.653 89.8381 160.925 90.0938C161.198 90.3466 161.415 90.6818 161.577 91.0994C161.739 91.517 161.82 92.0312 161.82 92.642V93.0682H156.775V92.1989H160.798C160.798 91.8295 160.724 91.5 160.576 91.2102C160.431 90.9205 160.224 90.6918 159.954 90.5241C159.687 90.3565 159.371 90.2727 159.008 90.2727C158.607 90.2727 158.261 90.3722 157.968 90.571C157.678 90.767 157.455 91.0227 157.299 91.3381C157.143 91.6534 157.065 91.9915 157.065 92.3523V92.9318C157.065 93.4261 157.15 93.8452 157.32 94.1889C157.494 94.5298 157.734 94.7898 158.04 94.9688C158.347 95.1449 158.704 95.233 159.11 95.233C159.374 95.233 159.613 95.196 159.826 95.1222C160.042 95.0455 160.228 94.9318 160.384 94.7812C160.54 94.6278 160.661 94.4375 160.746 94.2102L161.718 94.483C161.616 94.8125 161.444 95.1023 161.202 95.3523C160.961 95.5994 160.663 95.7926 160.308 95.9318C159.952 96.0682 159.553 96.1364 159.11 96.1364ZM166.009 96.1364C165.396 96.1364 164.867 95.9915 164.424 95.7017C163.981 95.4119 163.64 95.0128 163.401 94.5043C163.163 93.9957 163.043 93.4148 163.043 92.7614C163.043 92.0966 163.165 91.5099 163.41 91.0014C163.657 90.4901 164.001 90.0909 164.441 89.804C164.884 89.5142 165.401 89.3693 165.992 89.3693C166.452 89.3693 166.867 89.4545 167.237 89.625C167.606 89.7955 167.908 90.0341 168.144 90.3409C168.38 90.6477 168.526 91.0057 168.583 91.4148H167.577C167.501 91.1165 167.33 90.8523 167.066 90.6222C166.805 90.3892 166.452 90.2727 166.009 90.2727C165.617 90.2727 165.273 90.375 164.978 90.5795C164.685 90.7812 164.457 91.0668 164.292 91.4361C164.13 91.8026 164.049 92.233 164.049 92.7273C164.049 93.233 164.129 93.6733 164.288 94.0483C164.45 94.4233 164.677 94.7145 164.969 94.9219C165.265 95.1293 165.612 95.233 166.009 95.233C166.271 95.233 166.508 95.1875 166.721 95.0966C166.934 95.0057 167.114 94.875 167.262 94.7045C167.41 94.5341 167.515 94.3295 167.577 94.0909H168.583C168.526 94.4773 168.386 94.8253 168.161 95.1349C167.94 95.4418 167.646 95.6861 167.279 95.8679C166.915 96.0469 166.492 96.1364 166.009 96.1364ZM172.712 96.1364C172.121 96.1364 171.603 95.9957 171.157 95.7145C170.714 95.4332 170.367 95.0398 170.117 94.5341C169.87 94.0284 169.746 93.4375 169.746 92.7614C169.746 92.0795 169.87 91.4844 170.117 90.9759C170.367 90.4673 170.714 90.0724 171.157 89.7912C171.603 89.5099 172.121 89.3693 172.712 89.3693C173.303 89.3693 173.82 89.5099 174.263 89.7912C174.71 90.0724 175.056 90.4673 175.303 90.9759C175.553 91.4844 175.678 92.0795 175.678 92.7614C175.678 93.4375 175.553 94.0284 175.303 94.5341C175.056 95.0398 174.71 95.4332 174.263 95.7145C173.82 95.9957 173.303 96.1364 172.712 96.1364ZM172.712 95.233C173.161 95.233 173.531 95.1179 173.82 94.8878C174.11 94.6577 174.325 94.3551 174.464 93.9801C174.603 93.6051 174.673 93.1989 174.673 92.7614C174.673 92.3239 174.603 91.9162 174.464 91.5384C174.325 91.1605 174.11 90.8551 173.82 90.6222C173.531 90.3892 173.161 90.2727 172.712 90.2727C172.263 90.2727 171.894 90.3892 171.604 90.6222C171.315 90.8551 171.1 91.1605 170.961 91.5384C170.822 91.9162 170.752 92.3239 170.752 92.7614C170.752 93.1989 170.822 93.6051 170.961 93.9801C171.1 94.3551 171.315 94.6577 171.604 94.8878C171.894 95.1179 172.263 95.233 172.712 95.233ZM178.219 92.0625V96H177.213V89.4545H178.185V90.4773H178.27C178.424 90.1449 178.657 89.8778 178.969 89.6761C179.282 89.4716 179.685 89.3693 180.179 89.3693C180.623 89.3693 181.01 89.4602 181.343 89.642C181.675 89.821 181.934 90.0938 182.118 90.4602C182.303 90.8239 182.395 91.2841 182.395 91.8409V96H181.39V91.9091C181.39 91.3949 181.256 90.9943 180.989 90.7074C180.722 90.4176 180.355 90.2727 179.89 90.2727C179.569 90.2727 179.282 90.3423 179.029 90.4815C178.779 90.6207 178.581 90.8239 178.436 91.0909C178.292 91.358 178.219 91.6818 178.219 92.0625ZM186.892 96.1364C186.301 96.1364 185.783 95.9957 185.337 95.7145C184.893 95.4332 184.547 95.0398 184.297 94.5341C184.05 94.0284 183.926 93.4375 183.926 92.7614C183.926 92.0795 184.05 91.4844 184.297 90.9759C184.547 90.4673 184.893 90.0724 185.337 89.7912C185.783 89.5099 186.301 89.3693 186.892 89.3693C187.483 89.3693 188 89.5099 188.443 89.7912C188.889 90.0724 189.236 90.4673 189.483 90.9759C189.733 91.4844 189.858 92.0795 189.858 92.7614C189.858 93.4375 189.733 94.0284 189.483 94.5341C189.236 95.0398 188.889 95.4332 188.443 95.7145C188 95.9957 187.483 96.1364 186.892 96.1364ZM186.892 95.233C187.341 95.233 187.71 95.1179 188 94.8878C188.29 94.6577 188.504 94.3551 188.643 93.9801C188.783 93.6051 188.852 93.1989 188.852 92.7614C188.852 92.3239 188.783 91.9162 188.643 91.5384C188.504 91.1605 188.29 90.8551 188 90.6222C187.71 90.3892 187.341 90.2727 186.892 90.2727C186.443 90.2727 186.074 90.3892 185.784 90.6222C185.494 90.8551 185.28 91.1605 185.141 91.5384C185.001 91.9162 184.932 92.3239 184.932 92.7614C184.932 93.1989 185.001 93.6051 185.141 93.9801C185.28 94.3551 185.494 94.6577 185.784 94.8878C186.074 95.1179 186.443 95.233 186.892 95.233ZM191.393 96V89.4545H192.365V90.4773H192.45C192.586 90.1278 192.806 89.8565 193.11 89.6634C193.414 89.4673 193.779 89.3693 194.206 89.3693C194.637 89.3693 194.997 89.4673 195.284 89.6634C195.574 89.8565 195.799 90.1278 195.961 90.4773H196.029C196.197 90.1392 196.449 89.8707 196.784 89.6719C197.119 89.4702 197.521 89.3693 197.99 89.3693C198.575 89.3693 199.054 89.5526 199.426 89.919C199.798 90.2827 199.984 90.8494 199.984 91.6193V96H198.978V91.6193C198.978 91.1364 198.846 90.7912 198.582 90.5838C198.318 90.3764 198.007 90.2727 197.649 90.2727C197.189 90.2727 196.832 90.4119 196.579 90.6903C196.326 90.9659 196.2 91.3153 196.2 91.7386V96H195.177V91.517C195.177 91.1449 195.056 90.8452 194.815 90.6179C194.574 90.3878 194.262 90.2727 193.882 90.2727C193.62 90.2727 193.376 90.3423 193.149 90.4815C192.924 90.6207 192.743 90.8139 192.603 91.0611C192.467 91.3054 192.399 91.5881 192.399 91.9091V96H191.393ZM201.823 96V89.4545H202.828V96H201.823ZM202.334 88.3636C202.138 88.3636 201.969 88.2969 201.827 88.1634C201.688 88.0298 201.618 87.8693 201.618 87.6818C201.618 87.4943 201.688 87.3338 201.827 87.2003C201.969 87.0668 202.138 87 202.334 87C202.53 87 202.698 87.0668 202.837 87.2003C202.979 87.3338 203.05 87.4943 203.05 87.6818C203.05 87.8693 202.979 88.0298 202.837 88.1634C202.698 88.2969 202.53 88.3636 202.334 88.3636ZM207.33 96.1364C206.716 96.1364 206.188 95.9915 205.744 95.7017C205.301 95.4119 204.96 95.0128 204.722 94.5043C204.483 93.9957 204.364 93.4148 204.364 92.7614C204.364 92.0966 204.486 91.5099 204.73 91.0014C204.977 90.4901 205.321 90.0909 205.761 89.804C206.205 89.5142 206.722 89.3693 207.312 89.3693C207.773 89.3693 208.188 89.4545 208.557 89.625C208.926 89.7955 209.229 90.0341 209.464 90.3409C209.7 90.6477 209.847 91.0057 209.903 91.4148H208.898C208.821 91.1165 208.651 90.8523 208.386 90.6222C208.125 90.3892 207.773 90.2727 207.33 90.2727C206.938 90.2727 206.594 90.375 206.298 90.5795C206.006 90.7812 205.777 91.0668 205.612 91.4361C205.45 91.8026 205.369 92.233 205.369 92.7273C205.369 93.233 205.449 93.6733 205.608 94.0483C205.77 94.4233 205.997 94.7145 206.29 94.9219C206.585 95.1293 206.932 95.233 207.33 95.233C207.591 95.233 207.828 95.1875 208.041 95.0966C208.254 95.0057 208.435 94.875 208.582 94.7045C208.73 94.5341 208.835 94.3295 208.898 94.0909H209.903C209.847 94.4773 209.706 94.8253 209.482 95.1349C209.26 95.4418 208.966 95.6861 208.599 95.8679C208.236 96.0469 207.813 96.1364 207.33 96.1364ZM216.01 90.9205L215.107 91.1761C215.05 91.0256 214.966 90.8793 214.855 90.7372C214.747 90.5923 214.599 90.473 214.412 90.3793C214.224 90.2855 213.984 90.2386 213.692 90.2386C213.291 90.2386 212.957 90.331 212.69 90.5156C212.426 90.6974 212.294 90.929 212.294 91.2102C212.294 91.4602 212.385 91.6577 212.567 91.8026C212.749 91.9474 213.033 92.0682 213.419 92.1648L214.391 92.4034C214.976 92.5455 215.412 92.7628 215.699 93.0554C215.986 93.3452 216.129 93.7187 216.129 94.1761C216.129 94.5511 216.021 94.8864 215.805 95.1818C215.592 95.4773 215.294 95.7102 214.911 95.8807C214.527 96.0511 214.081 96.1364 213.572 96.1364C212.905 96.1364 212.352 95.9915 211.915 95.7017C211.477 95.4119 211.2 94.9886 211.084 94.4318L212.038 94.1932C212.129 94.5455 212.301 94.8097 212.554 94.9858C212.81 95.1619 213.143 95.25 213.555 95.25C214.024 95.25 214.396 95.1506 214.672 94.9517C214.95 94.75 215.089 94.5085 215.089 94.2273C215.089 94 215.01 93.8097 214.851 93.6562C214.692 93.5 214.447 93.3835 214.118 93.3068L213.027 93.0511C212.428 92.9091 211.987 92.6889 211.706 92.3906C211.428 92.0895 211.288 91.7131 211.288 91.2614C211.288 90.892 211.392 90.5653 211.599 90.2812C211.81 89.9972 212.095 89.7741 212.456 89.6122C212.82 89.4503 213.232 89.3693 213.692 89.3693C214.339 89.3693 214.848 89.5114 215.217 89.7955C215.589 90.0795 215.854 90.4545 216.01 90.9205ZM218.376 96.0682C218.166 96.0682 217.985 95.9929 217.835 95.8423C217.684 95.6918 217.609 95.5114 217.609 95.3011C217.609 95.0909 217.684 94.9105 217.835 94.7599C217.985 94.6094 218.166 94.5341 218.376 94.5341C218.586 94.5341 218.767 94.6094 218.917 94.7599C219.068 94.9105 219.143 95.0909 219.143 95.3011C219.143 95.4403 219.108 95.5682 219.037 95.6847C218.968 95.8011 218.876 95.8949 218.76 95.9659C218.646 96.0341 218.518 96.0682 218.376 96.0682ZM222.874 96.1534C222.459 96.1534 222.083 96.0753 221.745 95.919C221.407 95.7599 221.138 95.5312 220.939 95.233C220.74 94.9318 220.641 94.5682 220.641 94.142C220.641 93.767 220.715 93.4631 220.863 93.2301C221.01 92.9943 221.208 92.8097 221.455 92.6761C221.702 92.5426 221.975 92.4432 222.273 92.3778C222.574 92.3097 222.877 92.2557 223.181 92.2159C223.578 92.1648 223.901 92.1264 224.148 92.1009C224.398 92.0724 224.58 92.0256 224.694 91.9602C224.81 91.8949 224.868 91.7812 224.868 91.6193V91.5852C224.868 91.1648 224.753 90.8381 224.523 90.6051C224.296 90.3722 223.951 90.2557 223.488 90.2557C223.007 90.2557 222.631 90.3608 222.358 90.571C222.086 90.7812 221.894 91.0057 221.783 91.2443L220.828 90.9034C220.999 90.5057 221.226 90.196 221.51 89.9744C221.797 89.75 222.11 89.5937 222.448 89.5057C222.789 89.4148 223.124 89.3693 223.453 89.3693C223.664 89.3693 223.905 89.3949 224.178 89.446C224.453 89.4943 224.719 89.5952 224.975 89.7486C225.233 89.902 225.448 90.1335 225.618 90.4432C225.789 90.7528 225.874 91.1676 225.874 91.6875V96H224.868V95.1136H224.817C224.749 95.2557 224.635 95.4077 224.476 95.5696C224.317 95.7315 224.105 95.8693 223.841 95.983C223.577 96.0966 223.255 96.1534 222.874 96.1534ZM223.027 95.25C223.425 95.25 223.76 95.1719 224.033 95.0156C224.309 94.8594 224.516 94.6577 224.655 94.4105C224.797 94.1634 224.868 93.9034 224.868 93.6307V92.7102C224.826 92.7614 224.732 92.8082 224.587 92.8509C224.445 92.8906 224.28 92.9261 224.093 92.9574C223.908 92.9858 223.728 93.0114 223.551 93.0341C223.378 93.054 223.238 93.071 223.13 93.0852C222.868 93.1193 222.624 93.1747 222.397 93.2514C222.172 93.3253 221.99 93.4375 221.851 93.5881C221.715 93.7358 221.647 93.9375 221.647 94.1932C221.647 94.5426 221.776 94.8068 222.034 94.9858C222.296 95.1619 222.627 95.25 223.027 95.25ZM227.71 96V89.4545H228.715V96H227.71ZM228.221 88.3636C228.025 88.3636 227.856 88.2969 227.714 88.1634C227.575 88.0298 227.505 87.8693 227.505 87.6818C227.505 87.4943 227.575 87.3338 227.714 87.2003C227.856 87.0668 228.025 87 228.221 87C228.417 87 228.585 87.0668 228.724 87.2003C228.866 87.3338 228.937 87.4943 228.937 87.6818C228.937 87.8693 228.866 88.0298 228.724 88.1634C228.585 88.2969 228.417 88.3636 228.221 88.3636Z" fill="white"/>
<path d="M85.8295 985.455C85.7784 985.023 85.571 984.688 85.2074 984.449C84.8438 984.21 84.3977 984.091 83.8693 984.091C83.483 984.091 83.1449 984.153 82.8551 984.278C82.5682 984.403 82.3438 984.575 82.1818 984.794C82.0227 985.013 81.9432 985.261 81.9432 985.54C81.9432 985.773 81.9986 985.973 82.1094 986.141C82.223 986.305 82.3679 986.443 82.544 986.554C82.7202 986.662 82.9048 986.751 83.098 986.822C83.2912 986.891 83.4688 986.946 83.6307 986.989L84.517 987.227C84.7443 987.287 84.9972 987.369 85.2756 987.474C85.5568 987.58 85.8253 987.723 86.081 987.905C86.3395 988.084 86.5526 988.314 86.7202 988.595C86.8878 988.876 86.9716 989.222 86.9716 989.631C86.9716 990.102 86.848 990.528 86.6009 990.909C86.3565 991.29 85.9986 991.592 85.527 991.817C85.0582 992.041 84.4886 992.153 83.8182 992.153C83.1932 992.153 82.652 992.053 82.1946 991.851C81.7401 991.649 81.3821 991.368 81.1207 991.007C80.8622 990.646 80.7159 990.227 80.6818 989.75H81.7727C81.8011 990.08 81.9119 990.352 82.1051 990.568C82.3011 990.781 82.5483 990.94 82.8466 991.045C83.1477 991.148 83.4716 991.199 83.8182 991.199C84.2216 991.199 84.5838 991.134 84.9048 991.003C85.2259 990.869 85.4801 990.685 85.6676 990.449C85.8551 990.21 85.9489 989.932 85.9489 989.614C85.9489 989.324 85.8679 989.088 85.706 988.906C85.544 988.724 85.331 988.577 85.0668 988.463C84.8026 988.349 84.517 988.25 84.2102 988.165L83.1364 987.858C82.4545 987.662 81.9148 987.382 81.517 987.018C81.1193 986.655 80.9205 986.179 80.9205 985.591C80.9205 985.102 81.0526 984.676 81.3168 984.312C81.5838 983.946 81.9418 983.662 82.3906 983.46C82.8423 983.256 83.3466 983.153 83.9034 983.153C84.4659 983.153 84.9659 983.254 85.4034 983.456C85.8409 983.655 86.1875 983.928 86.4432 984.274C86.7017 984.621 86.8381 985.014 86.8523 985.455H85.8295ZM91.2319 992.136C90.6183 992.136 90.0898 991.991 89.6467 991.702C89.2035 991.412 88.8626 991.013 88.6239 990.504C88.3853 989.996 88.266 989.415 88.266 988.761C88.266 988.097 88.3881 987.51 88.6325 987.001C88.8796 986.49 89.2234 986.091 89.6637 985.804C90.1069 985.514 90.6239 985.369 91.2148 985.369C91.6751 985.369 92.0898 985.455 92.4592 985.625C92.8285 985.795 93.131 986.034 93.3668 986.341C93.6026 986.648 93.7489 987.006 93.8058 987.415H92.8001C92.7234 987.116 92.5529 986.852 92.2887 986.622C92.0273 986.389 91.6751 986.273 91.2319 986.273C90.8398 986.273 90.4961 986.375 90.2006 986.58C89.908 986.781 89.6793 987.067 89.5146 987.436C89.3526 987.803 89.2717 988.233 89.2717 988.727C89.2717 989.233 89.3512 989.673 89.5103 990.048C89.6722 990.423 89.8995 990.714 90.1921 990.922C90.4876 991.129 90.8342 991.233 91.2319 991.233C91.4933 991.233 91.7305 991.188 91.9435 991.097C92.1566 991.006 92.337 990.875 92.4847 990.705C92.6325 990.534 92.7376 990.33 92.8001 990.091H93.8058C93.7489 990.477 93.6083 990.825 93.3839 991.135C93.1623 991.442 92.8683 991.686 92.5018 991.868C92.1381 992.047 91.7148 992.136 91.2319 992.136ZM95.2759 992V985.455H96.2475V986.443H96.3157C96.435 986.119 96.6509 985.857 96.9634 985.655C97.2759 985.453 97.6282 985.352 98.0202 985.352C98.0941 985.352 98.1864 985.354 98.2972 985.357C98.408 985.359 98.4918 985.364 98.5487 985.369V986.392C98.5146 986.384 98.4364 986.371 98.3143 986.354C98.195 986.334 98.0685 986.324 97.935 986.324C97.6168 986.324 97.3327 986.391 97.0827 986.524C96.8356 986.655 96.6396 986.837 96.4947 987.07C96.3526 987.3 96.2816 987.562 96.2816 987.858V992H95.2759ZM102.201 992.136C101.61 992.136 101.091 991.996 100.645 991.714C100.202 991.433 99.8555 991.04 99.6055 990.534C99.3583 990.028 99.2347 989.437 99.2347 988.761C99.2347 988.08 99.3583 987.484 99.6055 986.976C99.8555 986.467 100.202 986.072 100.645 985.791C101.091 985.51 101.61 985.369 102.201 985.369C102.792 985.369 103.309 985.51 103.752 985.791C104.198 986.072 104.544 986.467 104.792 986.976C105.042 987.484 105.167 988.08 105.167 988.761C105.167 989.437 105.042 990.028 104.792 990.534C104.544 991.04 104.198 991.433 103.752 991.714C103.309 991.996 102.792 992.136 102.201 992.136ZM102.201 991.233C102.65 991.233 103.019 991.118 103.309 990.888C103.598 990.658 103.813 990.355 103.952 989.98C104.091 989.605 104.161 989.199 104.161 988.761C104.161 988.324 104.091 987.916 103.952 987.538C103.813 987.161 103.598 986.855 103.309 986.622C103.019 986.389 102.65 986.273 102.201 986.273C101.752 986.273 101.382 986.389 101.093 986.622C100.803 986.855 100.588 987.161 100.449 987.538C100.31 987.916 100.24 988.324 100.24 988.761C100.24 989.199 100.31 989.605 100.449 989.98C100.588 990.355 100.803 990.658 101.093 990.888C101.382 991.118 101.752 991.233 102.201 991.233ZM107.707 983.273V992H106.702V983.273H107.707ZM110.555 983.273V992H109.549V983.273H110.555ZM118.244 992.136C117.698 992.136 117.217 991.999 116.799 991.723C116.381 991.445 116.055 991.053 115.819 990.547C115.583 990.038 115.465 989.438 115.465 988.744C115.465 988.057 115.583 987.46 115.819 986.955C116.055 986.449 116.383 986.058 116.803 985.783C117.224 985.507 117.71 985.369 118.261 985.369C118.687 985.369 119.023 985.44 119.271 985.582C119.521 985.722 119.711 985.881 119.842 986.06C119.975 986.236 120.079 986.381 120.153 986.494H120.238V983.273H121.244V992H120.272V990.994H120.153C120.079 991.114 119.974 991.264 119.837 991.446C119.701 991.625 119.506 991.786 119.254 991.928C119.001 992.067 118.664 992.136 118.244 992.136ZM118.38 991.233C118.783 991.233 119.124 991.128 119.403 990.918C119.681 990.705 119.893 990.411 120.038 990.036C120.183 989.658 120.255 989.222 120.255 988.727C120.255 988.239 120.184 987.811 120.042 987.445C119.9 987.075 119.69 986.788 119.411 986.584C119.133 986.376 118.789 986.273 118.38 986.273C117.954 986.273 117.599 986.382 117.315 986.601C117.033 986.817 116.822 987.111 116.68 987.483C116.54 987.852 116.471 988.267 116.471 988.727C116.471 989.193 116.542 989.616 116.684 989.997C116.829 990.375 117.042 990.676 117.323 990.901C117.607 991.122 117.96 991.233 118.38 991.233ZM125.884 992.136C125.293 992.136 124.775 991.996 124.329 991.714C123.886 991.433 123.539 991.04 123.289 990.534C123.042 990.028 122.918 989.437 122.918 988.761C122.918 988.08 123.042 987.484 123.289 986.976C123.539 986.467 123.886 986.072 124.329 985.791C124.775 985.51 125.293 985.369 125.884 985.369C126.475 985.369 126.992 985.51 127.435 985.791C127.881 986.072 128.228 986.467 128.475 986.976C128.725 987.484 128.85 988.08 128.85 988.761C128.85 989.437 128.725 990.028 128.475 990.534C128.228 991.04 127.881 991.433 127.435 991.714C126.992 991.996 126.475 992.136 125.884 992.136ZM125.884 991.233C126.333 991.233 126.702 991.118 126.992 990.888C127.282 990.658 127.496 990.355 127.636 989.98C127.775 989.605 127.844 989.199 127.844 988.761C127.844 988.324 127.775 987.916 127.636 987.538C127.496 987.161 127.282 986.855 126.992 986.622C126.702 986.389 126.333 986.273 125.884 986.273C125.435 986.273 125.066 986.389 124.776 986.622C124.487 986.855 124.272 987.161 124.133 987.538C123.994 987.916 123.924 988.324 123.924 988.761C123.924 989.199 123.994 989.605 124.133 989.98C124.272 990.355 124.487 990.658 124.776 990.888C125.066 991.118 125.435 991.233 125.884 991.233ZM131.646 992L129.651 985.455H130.708L132.123 990.466H132.191L133.589 985.455H134.663L136.043 990.449H136.112L137.526 985.455H138.583L136.589 992H135.6L134.168 986.972H134.066L132.634 992H131.646ZM140.918 988.062V992H139.913V985.455H140.884V986.477H140.969C141.123 986.145 141.356 985.878 141.668 985.676C141.981 985.472 142.384 985.369 142.879 985.369C143.322 985.369 143.71 985.46 144.042 985.642C144.374 985.821 144.633 986.094 144.817 986.46C145.002 986.824 145.094 987.284 145.094 987.841V992H144.089V987.909C144.089 987.395 143.955 986.994 143.688 986.707C143.421 986.418 143.055 986.273 142.589 986.273C142.268 986.273 141.981 986.342 141.728 986.482C141.478 986.621 141.281 986.824 141.136 987.091C140.991 987.358 140.918 987.682 140.918 988.062Z" fill="white"/>
<path d="M1737.06 96V87.2727H1738.11V95.0625H1742.17V96H1737.06ZM1746.33 96.1364C1745.74 96.1364 1745.22 95.9957 1744.77 95.7145C1744.33 95.4332 1743.98 95.0398 1743.73 94.5341C1743.49 94.0284 1743.36 93.4375 1743.36 92.7614C1743.36 92.0795 1743.49 91.4844 1743.73 90.9759C1743.98 90.4673 1744.33 90.0724 1744.77 89.7912C1745.22 89.5099 1745.74 89.3693 1746.33 89.3693C1746.92 89.3693 1747.44 89.5099 1747.88 89.7912C1748.33 90.0724 1748.67 90.4673 1748.92 90.9759C1749.17 91.4844 1749.3 92.0795 1749.3 92.7614C1749.3 93.4375 1749.17 94.0284 1748.92 94.5341C1748.67 95.0398 1748.33 95.4332 1747.88 95.7145C1747.44 95.9957 1746.92 96.1364 1746.33 96.1364ZM1746.33 95.233C1746.78 95.233 1747.15 95.1179 1747.44 94.8878C1747.73 94.6577 1747.94 94.3551 1748.08 93.9801C1748.22 93.6051 1748.29 93.1989 1748.29 92.7614C1748.29 92.3239 1748.22 91.9162 1748.08 91.5384C1747.94 91.1605 1747.73 90.8551 1747.44 90.6222C1747.15 90.3892 1746.78 90.2727 1746.33 90.2727C1745.88 90.2727 1745.51 90.3892 1745.22 90.6222C1744.93 90.8551 1744.72 91.1605 1744.58 91.5384C1744.44 91.9162 1744.37 92.3239 1744.37 92.7614C1744.37 93.1989 1744.44 93.6051 1744.58 93.9801C1744.72 94.3551 1744.93 94.6577 1745.22 94.8878C1745.51 95.1179 1745.88 95.233 1746.33 95.233ZM1753.47 98.5909C1752.99 98.5909 1752.57 98.5284 1752.22 98.4034C1751.87 98.2812 1751.58 98.1193 1751.35 97.9176C1751.12 97.7188 1750.93 97.5057 1750.8 97.2784L1751.6 96.7159C1751.69 96.8352 1751.8 96.9716 1751.94 97.125C1752.08 97.2812 1752.27 97.4162 1752.51 97.5298C1752.76 97.6463 1753.08 97.7045 1753.47 97.7045C1754 97.7045 1754.44 97.5767 1754.78 97.321C1755.12 97.0653 1755.3 96.6648 1755.3 96.1193V94.7898H1755.21C1755.14 94.9091 1755.03 95.0568 1754.9 95.233C1754.76 95.4062 1754.57 95.5611 1754.32 95.6974C1754.07 95.831 1753.73 95.8977 1753.3 95.8977C1752.77 95.8977 1752.3 95.7727 1751.88 95.5227C1751.46 95.2727 1751.13 94.9091 1750.89 94.4318C1750.64 93.9545 1750.52 93.375 1750.52 92.6932C1750.52 92.0227 1750.64 91.4389 1750.88 90.9418C1751.11 90.4418 1751.44 90.0554 1751.86 89.7827C1752.28 89.5071 1752.77 89.3693 1753.32 89.3693C1753.75 89.3693 1754.08 89.4403 1754.33 89.5824C1754.59 89.7216 1754.78 89.8807 1754.91 90.0597C1755.05 90.2358 1755.15 90.3807 1755.23 90.4943H1755.33V89.4545H1756.3V96.1875C1756.3 96.75 1756.17 97.2074 1755.92 97.5597C1755.67 97.9148 1755.32 98.1747 1754.9 98.3395C1754.47 98.5071 1754 98.5909 1753.47 98.5909ZM1753.44 94.9943C1753.84 94.9943 1754.18 94.902 1754.46 94.7173C1754.74 94.5327 1754.95 94.267 1755.1 93.9205C1755.24 93.5739 1755.31 93.1591 1755.31 92.6761C1755.31 92.2045 1755.24 91.7884 1755.1 91.4276C1754.96 91.0668 1754.75 90.7841 1754.47 90.5795C1754.19 90.375 1753.85 90.2727 1753.44 90.2727C1753.01 90.2727 1752.66 90.3807 1752.37 90.5966C1752.09 90.8125 1751.88 91.1023 1751.74 91.4659C1751.6 91.8295 1751.53 92.233 1751.53 92.6761C1751.53 93.1307 1751.6 93.5327 1751.74 93.8821C1751.89 94.2287 1752.1 94.5014 1752.38 94.7003C1752.67 94.8963 1753.02 94.9943 1753.44 94.9943ZM1760.8 96.1364C1760.21 96.1364 1759.69 95.9957 1759.25 95.7145C1758.8 95.4332 1758.46 95.0398 1758.21 94.5341C1757.96 94.0284 1757.84 93.4375 1757.84 92.7614C1757.84 92.0795 1757.96 91.4844 1758.21 90.9759C1758.46 90.4673 1758.8 90.0724 1759.25 89.7912C1759.69 89.5099 1760.21 89.3693 1760.8 89.3693C1761.39 89.3693 1761.91 89.5099 1762.35 89.7912C1762.8 90.0724 1763.15 90.4673 1763.39 90.9759C1763.64 91.4844 1763.77 92.0795 1763.77 92.7614C1763.77 93.4375 1763.64 94.0284 1763.39 94.5341C1763.15 95.0398 1762.8 95.4332 1762.35 95.7145C1761.91 95.9957 1761.39 96.1364 1760.8 96.1364ZM1760.8 95.233C1761.25 95.233 1761.62 95.1179 1761.91 94.8878C1762.2 94.6577 1762.41 94.3551 1762.55 93.9801C1762.69 93.6051 1762.76 93.1989 1762.76 92.7614C1762.76 92.3239 1762.69 91.9162 1762.55 91.5384C1762.41 91.1605 1762.2 90.8551 1761.91 90.6222C1761.62 90.3892 1761.25 90.2727 1760.8 90.2727C1760.35 90.2727 1759.98 90.3892 1759.69 90.6222C1759.4 90.8551 1759.19 91.1605 1759.05 91.5384C1758.91 91.9162 1758.84 92.3239 1758.84 92.7614C1758.84 93.1989 1758.91 93.6051 1759.05 93.9801C1759.19 94.3551 1759.4 94.6577 1759.69 94.8878C1759.98 95.1179 1760.35 95.233 1760.8 95.233ZM1768.68 98.4545V89.4545H1769.65V90.4943H1769.77C1769.84 90.3807 1769.95 90.2358 1770.08 90.0597C1770.21 89.8807 1770.4 89.7216 1770.65 89.5824C1770.9 89.4403 1771.24 89.3693 1771.66 89.3693C1772.21 89.3693 1772.7 89.5071 1773.12 89.7827C1773.54 90.0582 1773.87 90.4489 1774.1 90.9545C1774.34 91.4602 1774.46 92.0568 1774.46 92.7443C1774.46 93.4375 1774.34 94.0384 1774.1 94.5469C1773.87 95.0526 1773.54 95.4446 1773.12 95.723C1772.71 95.9986 1772.22 96.1364 1771.68 96.1364C1771.26 96.1364 1770.92 96.0668 1770.67 95.9276C1770.42 95.7855 1770.22 95.625 1770.08 95.446C1769.95 95.2642 1769.84 95.1136 1769.77 94.9943H1769.68V98.4545H1768.68ZM1769.67 92.7273C1769.67 93.2216 1769.74 93.6577 1769.88 94.0355C1770.03 94.4105 1770.24 94.7045 1770.52 94.9176C1770.8 95.1278 1771.14 95.233 1771.54 95.233C1771.96 95.233 1772.31 95.1222 1772.59 94.9006C1772.88 94.6761 1773.09 94.375 1773.23 93.9972C1773.38 93.6165 1773.45 93.1932 1773.45 92.7273C1773.45 92.267 1773.38 91.8523 1773.24 91.483C1773.1 91.1108 1772.89 90.8168 1772.6 90.6009C1772.32 90.3821 1771.97 90.2727 1771.54 90.2727C1771.13 90.2727 1770.79 90.3764 1770.51 90.5838C1770.23 90.7884 1770.02 91.0753 1769.88 91.4446C1769.74 91.8111 1769.67 92.2386 1769.67 92.7273ZM1775.99 96V89.4545H1776.96V90.4432H1777.03C1777.15 90.1193 1777.37 89.8565 1777.68 89.6548C1777.99 89.4531 1778.34 89.3523 1778.74 89.3523C1778.81 89.3523 1778.9 89.3537 1779.01 89.3565C1779.12 89.3594 1779.21 89.3636 1779.26 89.3693V90.392C1779.23 90.3835 1779.15 90.3707 1779.03 90.3537C1778.91 90.3338 1778.78 90.3239 1778.65 90.3239C1778.33 90.3239 1778.05 90.3906 1777.8 90.5241C1777.55 90.6548 1777.35 90.8366 1777.21 91.0696C1777.07 91.2997 1777 91.5625 1777 91.858V96H1775.99ZM1783 96.1364C1782.37 96.1364 1781.83 95.9972 1781.37 95.7188C1780.91 95.4375 1780.56 95.0455 1780.32 94.5426C1780.07 94.0369 1779.95 93.4489 1779.95 92.7784C1779.95 92.108 1780.07 91.517 1780.32 91.0057C1780.56 90.4915 1780.91 90.0909 1781.35 89.804C1781.79 89.5142 1782.31 89.3693 1782.9 89.3693C1783.24 89.3693 1783.58 89.4261 1783.91 89.5398C1784.24 89.6534 1784.54 89.8381 1784.82 90.0938C1785.09 90.3466 1785.31 90.6818 1785.47 91.0994C1785.63 91.517 1785.71 92.0312 1785.71 92.642V93.0682H1780.67V92.1989H1784.69C1784.69 91.8295 1784.61 91.5 1784.47 91.2102C1784.32 90.9205 1784.11 90.6918 1783.84 90.5241C1783.58 90.3565 1783.26 90.2727 1782.9 90.2727C1782.5 90.2727 1782.15 90.3722 1781.86 90.571C1781.57 90.767 1781.35 91.0227 1781.19 91.3381C1781.03 91.6534 1780.96 91.9915 1780.96 92.3523V92.9318C1780.96 93.4261 1781.04 93.8452 1781.21 94.1889C1781.38 94.5298 1781.62 94.7898 1781.93 94.9688C1782.24 95.1449 1782.59 95.233 1783 95.233C1783.26 95.233 1783.5 95.196 1783.72 95.1222C1783.93 95.0455 1784.12 94.9318 1784.27 94.7812C1784.43 94.6278 1784.55 94.4375 1784.64 94.2102L1785.61 94.483C1785.51 94.8125 1785.33 95.1023 1785.09 95.3523C1784.85 95.5994 1784.55 95.7926 1784.2 95.9318C1783.84 96.0682 1783.44 96.1364 1783 96.1364ZM1791.88 90.9205L1790.97 91.1761C1790.92 91.0256 1790.83 90.8793 1790.72 90.7372C1790.61 90.5923 1790.47 90.473 1790.28 90.3793C1790.09 90.2855 1789.85 90.2386 1789.56 90.2386C1789.16 90.2386 1788.82 90.331 1788.56 90.5156C1788.29 90.6974 1788.16 90.929 1788.16 91.2102C1788.16 91.4602 1788.25 91.6577 1788.43 91.8026C1788.62 91.9474 1788.9 92.0682 1789.29 92.1648L1790.26 92.4034C1790.84 92.5455 1791.28 92.7628 1791.57 93.0554C1791.85 93.3452 1792 93.7187 1792 94.1761C1792 94.5511 1791.89 94.8864 1791.67 95.1818C1791.46 95.4773 1791.16 95.7102 1790.78 95.8807C1790.39 96.0511 1789.95 96.1364 1789.44 96.1364C1788.77 96.1364 1788.22 95.9915 1787.78 95.7017C1787.34 95.4119 1787.07 94.9886 1786.95 94.4318L1787.91 94.1932C1788 94.5455 1788.17 94.8097 1788.42 94.9858C1788.68 95.1619 1789.01 95.25 1789.42 95.25C1789.89 95.25 1790.26 95.1506 1790.54 94.9517C1790.82 94.75 1790.96 94.5085 1790.96 94.2273C1790.96 94 1790.88 93.8097 1790.72 93.6562C1790.56 93.5 1790.31 93.3835 1789.99 93.3068L1788.89 93.0511C1788.29 92.9091 1787.85 92.6889 1787.57 92.3906C1787.29 92.0895 1787.16 91.7131 1787.16 91.2614C1787.16 90.892 1787.26 90.5653 1787.47 90.2812C1787.68 89.9972 1787.96 89.7741 1788.32 89.6122C1788.69 89.4503 1789.1 89.3693 1789.56 89.3693C1790.21 89.3693 1790.72 89.5114 1791.08 89.7955C1791.46 90.0795 1791.72 90.4545 1791.88 90.9205ZM1796.25 96.1364C1795.62 96.1364 1795.08 95.9972 1794.62 95.7188C1794.17 95.4375 1793.82 95.0455 1793.57 94.5426C1793.33 94.0369 1793.2 93.4489 1793.2 92.7784C1793.2 92.108 1793.33 91.517 1793.57 91.0057C1793.82 90.4915 1794.16 90.0909 1794.6 89.804C1795.04 89.5142 1795.56 89.3693 1796.15 89.3693C1796.49 89.3693 1796.83 89.4261 1797.16 89.5398C1797.49 89.6534 1797.8 89.8381 1798.07 90.0938C1798.34 90.3466 1798.56 90.6818 1798.72 91.0994C1798.88 91.517 1798.96 92.0312 1798.96 92.642V93.0682H1793.92V92.1989H1797.94C1797.94 91.8295 1797.87 91.5 1797.72 91.2102C1797.58 90.9205 1797.37 90.6918 1797.1 90.5241C1796.83 90.3565 1796.52 90.2727 1796.15 90.2727C1795.75 90.2727 1795.41 90.3722 1795.11 90.571C1794.82 90.767 1794.6 91.0227 1794.44 91.3381C1794.29 91.6534 1794.21 91.9915 1794.21 92.3523V92.9318C1794.21 93.4261 1794.29 93.8452 1794.46 94.1889C1794.64 94.5298 1794.88 94.7898 1795.19 94.9688C1795.49 95.1449 1795.85 95.233 1796.25 95.233C1796.52 95.233 1796.76 95.196 1796.97 95.1222C1797.19 95.0455 1797.37 94.9318 1797.53 94.7812C1797.69 94.6278 1797.81 94.4375 1797.89 94.2102L1798.86 94.483C1798.76 94.8125 1798.59 95.1023 1798.35 95.3523C1798.11 95.5994 1797.81 95.7926 1797.45 95.9318C1797.1 96.0682 1796.7 96.1364 1796.25 96.1364ZM1801.5 92.0625V96H1800.49V89.4545H1801.47V90.4773H1801.55C1801.7 90.1449 1801.94 89.8778 1802.25 89.6761C1802.56 89.4716 1802.97 89.3693 1803.46 89.3693C1803.9 89.3693 1804.29 89.4602 1804.62 89.642C1804.96 89.821 1805.21 90.0938 1805.4 90.4602C1805.58 90.8239 1805.68 91.2841 1805.68 91.8409V96H1804.67V91.9091C1804.67 91.3949 1804.54 90.9943 1804.27 90.7074C1804 90.4176 1803.64 90.2727 1803.17 90.2727C1802.85 90.2727 1802.56 90.3423 1802.31 90.4815C1802.06 90.6207 1801.86 90.8239 1801.72 91.0909C1801.57 91.358 1801.5 91.6818 1801.5 92.0625ZM1810.36 89.4545V90.3068H1806.97V89.4545H1810.36ZM1807.96 87.8864H1808.96V94.125C1808.96 94.4091 1809 94.6222 1809.09 94.7642C1809.17 94.9034 1809.28 94.9972 1809.41 95.0455C1809.54 95.0909 1809.68 95.1136 1809.83 95.1136C1809.94 95.1136 1810.03 95.108 1810.11 95.0966C1810.18 95.0824 1810.23 95.071 1810.28 95.0625L1810.48 95.9659C1810.41 95.9915 1810.32 96.017 1810.19 96.0426C1810.07 96.071 1809.92 96.0852 1809.73 96.0852C1809.45 96.0852 1809.17 96.0241 1808.89 95.902C1808.63 95.7798 1808.4 95.5938 1808.22 95.3438C1808.05 95.0938 1807.96 94.7784 1807.96 94.3977V87.8864ZM1813.8 96.1534C1813.38 96.1534 1813.01 96.0753 1812.67 95.919C1812.33 95.7599 1812.06 95.5312 1811.87 95.233C1811.67 94.9318 1811.57 94.5682 1811.57 94.142C1811.57 93.767 1811.64 93.4631 1811.79 93.2301C1811.94 92.9943 1812.13 92.8097 1812.38 92.6761C1812.63 92.5426 1812.9 92.4432 1813.2 92.3778C1813.5 92.3097 1813.8 92.2557 1814.11 92.2159C1814.5 92.1648 1814.83 92.1264 1815.07 92.1009C1815.32 92.0724 1815.51 92.0256 1815.62 91.9602C1815.74 91.8949 1815.79 91.7812 1815.79 91.6193V91.5852C1815.79 91.1648 1815.68 90.8381 1815.45 90.6051C1815.22 90.3722 1814.88 90.2557 1814.41 90.2557C1813.93 90.2557 1813.56 90.3608 1813.28 90.571C1813.01 90.7812 1812.82 91.0057 1812.71 91.2443L1811.75 90.9034C1811.92 90.5057 1812.15 90.196 1812.44 89.9744C1812.72 89.75 1813.04 89.5937 1813.37 89.5057C1813.71 89.4148 1814.05 89.3693 1814.38 89.3693C1814.59 89.3693 1814.83 89.3949 1815.1 89.446C1815.38 89.4943 1815.64 89.5952 1815.9 89.7486C1816.16 89.902 1816.37 90.1335 1816.54 90.4432C1816.71 90.7528 1816.8 91.1676 1816.8 91.6875V96H1815.79V95.1136H1815.74C1815.67 95.2557 1815.56 95.4077 1815.4 95.5696C1815.24 95.7315 1815.03 95.8693 1814.77 95.983C1814.5 96.0966 1814.18 96.1534 1813.8 96.1534ZM1813.95 95.25C1814.35 95.25 1814.69 95.1719 1814.96 95.0156C1815.23 94.8594 1815.44 94.6577 1815.58 94.4105C1815.72 94.1634 1815.79 93.9034 1815.79 93.6307V92.7102C1815.75 92.7614 1815.66 92.8082 1815.51 92.8509C1815.37 92.8906 1815.21 92.9261 1815.02 92.9574C1814.83 92.9858 1814.65 93.0114 1814.48 93.0341C1814.3 93.054 1814.16 93.071 1814.06 93.0852C1813.79 93.1193 1813.55 93.1747 1813.32 93.2514C1813.1 93.3253 1812.92 93.4375 1812.78 93.5881C1812.64 93.7358 1812.57 93.9375 1812.57 94.1932C1812.57 94.5426 1812.7 94.8068 1812.96 94.9858C1813.22 95.1619 1813.55 95.25 1813.95 95.25ZM1821.48 89.4545V90.3068H1818.09V89.4545H1821.48ZM1819.08 87.8864H1820.08V94.125C1820.08 94.4091 1820.13 94.6222 1820.21 94.7642C1820.29 94.9034 1820.4 94.9972 1820.53 95.0455C1820.67 95.0909 1820.81 95.1136 1820.95 95.1136C1821.06 95.1136 1821.16 95.108 1821.23 95.0966C1821.3 95.0824 1821.35 95.071 1821.4 95.0625L1821.6 95.9659C1821.53 95.9915 1821.44 96.017 1821.32 96.0426C1821.19 96.071 1821.04 96.0852 1820.85 96.0852C1820.57 96.0852 1820.29 96.0241 1820.02 95.902C1819.75 95.7798 1819.52 95.5938 1819.34 95.3438C1819.17 95.0938 1819.08 94.7784 1819.08 94.3977V87.8864ZM1822.99 96V89.4545H1824V96H1822.99ZM1823.51 88.3636C1823.31 88.3636 1823.14 88.2969 1823 88.1634C1822.86 88.0298 1822.79 87.8693 1822.79 87.6818C1822.79 87.4943 1822.86 87.3338 1823 87.2003C1823.14 87.0668 1823.31 87 1823.51 87C1823.7 87 1823.87 87.0668 1824.01 87.2003C1824.15 87.3338 1824.22 87.4943 1824.22 87.6818C1824.22 87.8693 1824.15 88.0298 1824.01 88.1634C1823.87 88.2969 1823.7 88.3636 1823.51 88.3636ZM1828.5 96.1364C1827.91 96.1364 1827.39 95.9957 1826.95 95.7145C1826.5 95.4332 1826.16 95.0398 1825.91 94.5341C1825.66 94.0284 1825.54 93.4375 1825.54 92.7614C1825.54 92.0795 1825.66 91.4844 1825.91 90.9759C1826.16 90.4673 1826.5 90.0724 1826.95 89.7912C1827.39 89.5099 1827.91 89.3693 1828.5 89.3693C1829.09 89.3693 1829.61 89.5099 1830.05 89.7912C1830.5 90.0724 1830.85 90.4673 1831.09 90.9759C1831.34 91.4844 1831.47 92.0795 1831.47 92.7614C1831.47 93.4375 1831.34 94.0284 1831.09 94.5341C1830.85 95.0398 1830.5 95.4332 1830.05 95.7145C1829.61 95.9957 1829.09 96.1364 1828.5 96.1364ZM1828.5 95.233C1828.95 95.233 1829.32 95.1179 1829.61 94.8878C1829.9 94.6577 1830.11 94.3551 1830.25 93.9801C1830.39 93.6051 1830.46 93.1989 1830.46 92.7614C1830.46 92.3239 1830.39 91.9162 1830.25 91.5384C1830.11 91.1605 1829.9 90.8551 1829.61 90.6222C1829.32 90.3892 1828.95 90.2727 1828.5 90.2727C1828.05 90.2727 1827.68 90.3892 1827.39 90.6222C1827.1 90.8551 1826.89 91.1605 1826.75 91.5384C1826.61 91.9162 1826.54 92.3239 1826.54 92.7614C1826.54 93.1989 1826.61 93.6051 1826.75 93.9801C1826.89 94.3551 1827.1 94.6577 1827.39 94.8878C1827.68 95.1179 1828.05 95.233 1828.5 95.233ZM1834.01 92.0625V96H1833V89.4545H1833.97V90.4773H1834.06C1834.21 90.1449 1834.45 89.8778 1834.76 89.6761C1835.07 89.4716 1835.47 89.3693 1835.97 89.3693C1836.41 89.3693 1836.8 89.4602 1837.13 89.642C1837.46 89.821 1837.72 90.0938 1837.91 90.4602C1838.09 90.8239 1838.18 91.2841 1838.18 91.8409V96H1837.18V91.9091C1837.18 91.3949 1837.05 90.9943 1836.78 90.7074C1836.51 90.4176 1836.14 90.2727 1835.68 90.2727C1835.36 90.2727 1835.07 90.3423 1834.82 90.4815C1834.57 90.6207 1834.37 90.8239 1834.23 91.0909C1834.08 91.358 1834.01 91.6818 1834.01 92.0625Z" fill="white"/>
<path d="M1811.57 992V991.233L1814.45 988.08C1814.79 987.71 1815.07 987.389 1815.29 987.116C1815.51 986.841 1815.67 986.582 1815.77 986.341C1815.88 986.097 1815.94 985.841 1815.94 985.574C1815.94 985.267 1815.86 985.001 1815.71 984.777C1815.57 984.553 1815.37 984.379 1815.12 984.257C1814.86 984.135 1814.58 984.074 1814.26 984.074C1813.93 984.074 1813.64 984.143 1813.39 984.283C1813.14 984.419 1812.95 984.611 1812.81 984.858C1812.68 985.105 1812.61 985.395 1812.61 985.727H1811.61C1811.61 985.216 1811.72 984.767 1811.96 984.381C1812.19 983.994 1812.52 983.693 1812.92 983.477C1813.33 983.261 1813.79 983.153 1814.3 983.153C1814.81 983.153 1815.26 983.261 1815.66 983.477C1816.05 983.693 1816.36 983.984 1816.59 984.351C1816.81 984.717 1816.92 985.125 1816.92 985.574C1816.92 985.895 1816.87 986.209 1816.75 986.516C1816.64 986.82 1816.44 987.159 1816.15 987.534C1815.87 987.906 1815.48 988.361 1814.98 988.898L1813.02 990.994V991.062H1817.08V992H1811.57ZM1821.68 992.119C1821.04 992.119 1820.49 991.945 1820.04 991.595C1819.59 991.243 1819.25 990.733 1819.01 990.065C1818.77 989.395 1818.65 988.585 1818.65 987.636C1818.65 986.693 1818.77 985.888 1819.01 985.22C1819.25 984.55 1819.6 984.038 1820.05 983.686C1820.5 983.331 1821.05 983.153 1821.68 983.153C1822.32 983.153 1822.86 983.331 1823.32 983.686C1823.77 984.038 1824.12 984.55 1824.36 985.22C1824.6 985.888 1824.72 986.693 1824.72 987.636C1824.72 988.585 1824.6 989.395 1824.36 990.065C1824.12 990.733 1823.78 991.243 1823.32 991.595C1822.87 991.945 1822.33 992.119 1821.68 992.119ZM1821.68 991.182C1822.32 991.182 1822.81 990.875 1823.17 990.261C1823.52 989.648 1823.69 988.773 1823.69 987.636C1823.69 986.881 1823.61 986.237 1823.45 985.706C1823.29 985.175 1823.06 984.77 1822.76 984.491C1822.46 984.213 1822.1 984.074 1821.68 984.074C1821.05 984.074 1820.56 984.385 1820.2 985.007C1819.85 985.626 1819.67 986.503 1819.67 987.636C1819.67 988.392 1819.75 989.034 1819.91 989.562C1820.07 990.091 1820.3 990.493 1820.6 990.768C1820.9 991.044 1821.26 991.182 1821.68 991.182ZM1826.34 992V991.233L1829.22 988.08C1829.56 987.71 1829.83 987.389 1830.05 987.116C1830.27 986.841 1830.43 986.582 1830.54 986.341C1830.65 986.097 1830.7 985.841 1830.7 985.574C1830.7 985.267 1830.63 985.001 1830.48 984.777C1830.33 984.553 1830.14 984.379 1829.88 984.257C1829.63 984.135 1829.35 984.074 1829.03 984.074C1828.69 984.074 1828.4 984.143 1828.15 984.283C1827.91 984.419 1827.71 984.611 1827.58 984.858C1827.44 985.105 1827.38 985.395 1827.38 985.727H1826.37C1826.37 985.216 1826.49 984.767 1826.72 984.381C1826.96 983.994 1827.28 983.693 1827.69 983.477C1828.1 983.261 1828.56 983.153 1829.06 983.153C1829.58 983.153 1830.03 983.261 1830.42 983.477C1830.82 983.693 1831.13 983.984 1831.35 984.351C1831.58 984.717 1831.69 985.125 1831.69 985.574C1831.69 985.895 1831.63 986.209 1831.51 986.516C1831.4 986.82 1831.2 987.159 1830.92 987.534C1830.64 987.906 1830.25 988.361 1829.75 988.898L1827.79 990.994V991.062H1831.84V992H1826.34ZM1836.33 992.119C1835.83 992.119 1835.38 992.02 1834.98 991.821C1834.58 991.622 1834.26 991.349 1834.02 991.003C1833.77 990.656 1833.64 990.261 1833.62 989.818H1834.64C1834.68 990.213 1834.86 990.54 1835.18 990.798C1835.5 991.054 1835.88 991.182 1836.33 991.182C1836.69 991.182 1837.01 991.098 1837.28 990.93C1837.57 990.763 1837.79 990.533 1837.94 990.24C1838.11 989.945 1838.19 989.611 1838.19 989.239C1838.19 988.858 1838.1 988.518 1837.94 988.22C1837.77 987.919 1837.54 987.682 1837.25 987.509C1836.96 987.335 1836.63 987.247 1836.26 987.244C1835.99 987.241 1835.72 987.283 1835.44 987.368C1835.16 987.45 1834.93 987.557 1834.74 987.688L1833.76 987.568L1834.28 983.273H1838.82V984.21H1835.17L1834.86 986.784H1834.92C1835.09 986.642 1835.32 986.524 1835.59 986.43C1835.86 986.337 1836.14 986.29 1836.43 986.29C1836.97 986.29 1837.44 986.418 1837.86 986.673C1838.28 986.926 1838.61 987.273 1838.85 987.713C1839.09 988.153 1839.21 988.656 1839.21 989.222C1839.21 989.778 1839.09 990.276 1838.84 990.713C1838.59 991.148 1838.25 991.491 1837.81 991.744C1837.38 991.994 1836.88 992.119 1836.33 992.119Z" fill="white"/>
<path fill-rule="evenodd" clip-rule="evenodd" d="M790.292 397C822.443 397 871.612 406.693 910.851 438.637C928.871 453.306 943.627 471.661 953.915 490.31C956.347 494.719 958.552 499.187 960.5 503.664C962.448 499.187 964.653 494.72 967.085 490.31C977.373 471.661 992.129 453.306 1010.15 438.637C1049.39 406.693 1098.56 397 1130.71 397H1137.17L1139.87 402.89C1144.63 413.303 1145.36 427.946 1144.87 440.799C1144.36 454.134 1142.43 467.552 1140.59 476.738C1134.19 508.532 1113.87 549.938 1068.87 565.717C1067.22 566.296 1065.57 566.838 1063.93 567.35C1078.31 576.921 1089.47 592.138 1091.69 613.006C1095.06 644.759 1074.78 677.445 1036.06 681.661C1013.08 684.164 996.132 672.372 984.954 660.265C978.666 653.455 973.609 645.811 970.1 640.008C967.216 635.239 968.82 628.859 973.507 625.853C978.194 622.848 984.261 624.317 987.101 629.112C990.183 634.318 994.202 640.546 999.747 646.552C1008.69 656.236 1019.79 663.122 1033.89 661.587C1060.33 658.706 1073.98 637.089 1071.65 615.142C1068.95 589.76 1045.87 575.371 1023.89 575.371C1009.41 575.371 1000.68 577.587 994.397 581.004C988.182 584.386 983.331 589.496 977.51 597.498L958.027 629.217L958.119 629.277C956.2 632.281 948.723 646.963 937.555 659.209C936.986 659.834 936.4 660.458 935.801 661.08C932.561 664.696 928.961 668.191 925.353 670.601L925.222 670.405C914.848 678.009 901.677 683.398 885.73 681.661C847.014 677.445 826.738 644.759 830.109 613.006C832.312 592.26 843.352 577.098 857.61 567.517C855.789 566.958 853.96 566.36 852.127 565.717C807.131 549.938 786.811 508.532 780.414 476.738C778.565 467.552 776.638 454.134 776.13 440.799C775.641 427.947 776.368 413.303 781.131 402.89L783.826 397H790.292ZM1123.42 417.372C1094.67 418.753 1054.72 428.367 1022.86 454.309C1006.96 467.251 993.837 483.561 984.725 500.078C977.891 512.465 973.528 524.571 971.743 535.131C970.792 540.762 966.2 545.418 960.5 545.418C954.8 545.418 950.208 540.762 949.257 535.131C947.472 524.571 943.109 512.465 936.275 500.078C927.163 483.561 914.04 467.251 898.142 454.309C866.276 428.367 826.333 418.753 797.578 417.372C796.357 423.231 795.929 431.092 796.27 440.03C796.729 452.105 798.497 464.433 800.17 472.747C805.827 500.859 823.166 534.167 858.784 546.658C887.013 556.557 915.397 552.822 928.009 558.152C929.931 558.717 931.764 559.383 933.529 560.165C939.882 562.983 944.819 567.091 949.567 572.038C953.424 576.058 952.87 582.505 948.65 586.141C944.431 589.776 938.162 589.202 934.25 585.236C930.904 581.843 928.348 579.95 925.37 578.629C920.472 576.457 913.311 575.371 897.904 575.371C875.922 575.371 852.845 589.76 850.15 615.142C847.82 637.089 861.461 658.706 887.908 661.587C901.036 663.016 911.931 656.712 921.012 647.358C922.171 646.053 923.38 644.615 924.61 643.071C928.445 638.258 931.838 633.274 933.731 630.249L960.558 586.57L960.758 586.244L960.984 585.933C967.495 576.939 974.526 568.838 984.778 563.259C987.368 561.85 990.096 560.637 992.991 559.612C1007.43 554.495 1033.99 556.557 1062.22 546.658C1097.83 534.167 1115.17 500.859 1120.83 472.747C1122.5 464.433 1124.27 452.105 1124.73 440.03C1125.07 431.092 1124.64 423.231 1123.42 417.372Z" fill="white"/>
</g>
<defs>
<filter id="filter0_f_5_101" x="-1044.56" y="-659.191" width="1379.19" height="1379.19" filterUnits="userSpaceOnUse" color-interpolation-filters="sRGB">
<feFlood flood-opacity="0" result="BackgroundImageFix"/>
<feBlend mode="normal" in="SourceGraphic" in2="BackgroundImageFix" result="shape"/>
<feGaussianBlur stdDeviation="124.33" result="effect1_foregroundBlur_5_101"/>
</filter>
<filter id="filter1_f_5_101" x="-275.15" y="-54.8609" width="1087.03" height="1119.5" filterUnits="userSpaceOnUse" color-interpolation-filters="sRGB">
<feFlood flood-opacity="0" result="BackgroundImageFix"/>
<feBlend mode="normal" in="SourceGraphic" in2="BackgroundImageFix" result="shape"/>
<feGaussianBlur stdDeviation="14.3602" result="effect1_foregroundBlur_5_101"/>
</filter>
<filter id="filter2_f_5_101" x="-393.786" y="19.6009" width="1158" height="1136.87" filterUnits="userSpaceOnUse" color-interpolation-filters="sRGB">
<feFlood flood-opacity="0" result="BackgroundImageFix"/>
<feBlend mode="normal" in="SourceGraphic" in2="BackgroundImageFix" result="shape"/>
<feGaussianBlur stdDeviation="25.3634" result="effect1_foregroundBlur_5_101"/>
</filter>
<filter id="filter3_f_5_101" x="-354.331" y="-581.179" width="1725.35" height="1662.54" filterUnits="userSpaceOnUse" color-interpolation-filters="sRGB">
<feFlood flood-opacity="0" result="BackgroundImageFix"/>
<feBlend mode="normal" in="SourceGraphic" in2="BackgroundImageFix" result="shape"/>
<feGaussianBlur stdDeviation="14.9673" result="effect1_foregroundBlur_5_101"/>
</filter>
<filter id="filter4_f_5_101" x="-573.057" y="-799.905" width="1412.7" height="1412.7" filterUnits="userSpaceOnUse" color-interpolation-filters="sRGB">
<feFlood flood-opacity="0" result="BackgroundImageFix"/>
<feBlend mode="normal" in="SourceGraphic" in2="BackgroundImageFix" result="shape"/>
<feGaussianBlur stdDeviation="124.33" result="effect1_foregroundBlur_5_101"/>
</filter>
<filter id="filter5_f_5_101" x="219.829" y="-171.879" width="1149.41" height="1181.43" filterUnits="userSpaceOnUse" color-interpolation-filters="sRGB">
<feFlood flood-opacity="0" result="BackgroundImageFix"/>
<feBlend mode="normal" in="SourceGraphic" in2="BackgroundImageFix" result="shape"/>
<feGaussianBlur stdDeviation="14.0759" result="effect1_foregroundBlur_5_101"/>
</filter>
<filter id="filter6_f_5_101" x="98.9833" y="-99.9964" width="1224.81" height="1203.97" filterUnits="userSpaceOnUse" color-interpolation-filters="sRGB">
<feFlood flood-opacity="0" result="BackgroundImageFix"/>
<feBlend mode="normal" in="SourceGraphic" in2="BackgroundImageFix" result="shape"/>
<feGaussianBlur stdDeviation="26.275" result="effect1_foregroundBlur_5_101"/>
</filter>
<filter id="filter7_f_5_101" x="200.328" y="-574.321" width="1493.46" height="1430.74" filterUnits="userSpaceOnUse" color-interpolation-filters="sRGB">
<feFlood flood-opacity="0" result="BackgroundImageFix"/>
<feBlend mode="normal" in="SourceGraphic" in2="BackgroundImageFix" result="shape"/>
<feGaussianBlur stdDeviation="14.9673" result="effect1_foregroundBlur_5_101"/>
</filter>
<filter id="filter8_f_5_101" x="-15.5959" y="-790.245" width="1319.19" height="1319.19" filterUnits="userSpaceOnUse" color-interpolation-filters="sRGB">
<feFlood flood-opacity="0" result="BackgroundImageFix"/>
<feBlend mode="normal" in="SourceGraphic" in2="BackgroundImageFix" result="shape"/>
<feGaussianBlur stdDeviation="122.929" result="effect1_foregroundBlur_5_101"/>
</filter>
<filter id="filter9_f_5_101" x="667.022" y="-273.09" width="1071.9" height="1105.14" filterUnits="userSpaceOnUse" color-interpolation-filters="sRGB">
<feFlood flood-opacity="0" result="BackgroundImageFix"/>
<feBlend mode="normal" in="SourceGraphic" in2="BackgroundImageFix" result="shape"/>
<feGaussianBlur stdDeviation="37.5357" result="effect1_foregroundBlur_5_101"/>
</filter>
<filter id="filter10_f_5_101" x="570.087" y="-176.301" width="1099.48" height="1077.85" filterUnits="userSpaceOnUse" color-interpolation-filters="sRGB">
<feFlood flood-opacity="0" result="BackgroundImageFix"/>
<feBlend mode="normal" in="SourceGraphic" in2="BackgroundImageFix" result="shape"/>
<feGaussianBlur stdDeviation="37.5357" result="effect1_foregroundBlur_5_101"/>
</filter>
<filter id="filter11_f_5_101" x="345.722" y="-158.886" width="1098.91" height="1098.91" filterUnits="userSpaceOnUse" color-interpolation-filters="sRGB">
<feFlood flood-opacity="0" result="BackgroundImageFix"/>
<feBlend mode="normal" in="SourceGraphic" in2="BackgroundImageFix" result="shape"/>
<feGaussianBlur stdDeviation="46.9196" result="effect1_foregroundBlur_5_101"/>
</filter>
<filter id="filter12_f_5_101" x="-96.2012" y="-197.56" width="997.561" height="997.561" filterUnits="userSpaceOnUse" color-interpolation-filters="sRGB">
<feFlood flood-opacity="0" result="BackgroundImageFix"/>
<feBlend mode="normal" in="SourceGraphic" in2="BackgroundImageFix" result="shape"/>
<feGaussianBlur stdDeviation="21.583" result="effect1_foregroundBlur_5_101"/>
</filter>
<linearGradient id="paint0_linear_5_101" x1="118.566" y1="0" x2="118.566" y2="1296.36" gradientUnits="userSpaceOnUse">
<stop stop-color="#2388FF"/>
<stop offset="0.8" stop-color="#2388FF" stop-opacity="0"/>
</linearGradient>
<linearGradient id="paint1_linear_5_101" x1="91.5032" y1="0" x2="91.5032" y2="1296.39" gradientUnits="userSpaceOnUse">
<stop stop-color="#0A8AFE"/>
<stop offset="0.88" stop-color="#0A8AFE" stop-opacity="0"/>
</linearGradient>
<linearGradient id="paint2_linear_5_101" x1="314.397" y1="-80.7758" x2="1267.73" y2="925.032" gradientUnits="userSpaceOnUse">
<stop stop-color="#0A8AFE"/>
<stop offset="0.88" stop-color="#0A8AFE" stop-opacity="0"/>
</linearGradient>
<linearGradient id="paint3_linear_5_101" x1="91.5049" y1="0" x2="91.5049" y2="1385.91" gradientUnits="userSpaceOnUse">
<stop stop-color="#0A8AFE"/>
<stop offset="0.88" stop-color="#0A8AFE" stop-opacity="0"/>
</linearGradient>
<linearGradient id="paint4_linear_5_101" x1="115.426" y1="-444.914" x2="106.823" y2="1144.53" gradientUnits="userSpaceOnUse">
<stop stop-color="#3BA55D"/>
<stop offset="0.802306" stop-color="#3BA55D" stop-opacity="0"/>
</linearGradient>
<linearGradient id="paint5_linear_5_101" x1="115.427" y1="-444.908" x2="106.825" y2="1144.51" gradientUnits="userSpaceOnUse">
<stop stop-color="#3BA55D"/>
<stop offset="0.802306" stop-color="#3BA55D" stop-opacity="0"/>
</linearGradient>
<linearGradient id="paint6_linear_5_101" x1="79.7" y1="-498.533" x2="64.0584" y2="1282.38" gradientUnits="userSpaceOnUse">
<stop stop-color="#3BA55D"/>
<stop offset="0.802306" stop-color="#3BA55D" stop-opacity="0"/>
</linearGradient>
<linearGradient id="paint7_linear_5_101" x1="79.7" y1="-498.533" x2="64.0584" y2="1282.38" gradientUnits="userSpaceOnUse">
<stop stop-color="#3BA55D"/>
<stop offset="0.802306" stop-color="#3BA55D" stop-opacity="0"/>
</linearGradient>
<clipPath id="clip0_5_101">
<rect width="1920" height="1080" fill="white"/>
</clipPath>
</defs>
</svg>
