<svg width="309" height="300" viewBox="0 0 309 300" fill="none" xmlns="http://www.w3.org/2000/svg">
<rect x="0.5" y="0.5" width="308" height="299" rx="4.5" stroke="#8A38F5" stroke-dasharray="10 5"/>
<rect x="20" y="20" width="113" height="36" rx="4" fill="#018270"/>
<path d="M37.296 43V32.024H39.088V41.448H44.56V43H37.296ZM49.7081 43.192C48.8441 43.192 48.1188 43.0373 47.5321 42.728C46.9561 42.408 46.5188 41.9227 46.2201 41.272C45.9215 40.6213 45.7721 39.7947 45.7721 38.792C45.7721 37.7787 45.9215 36.952 46.2201 36.312C46.5188 35.6613 46.9615 35.1813 47.5481 34.872C48.1348 34.552 48.8655 34.392 49.7401 34.392C50.5401 34.392 51.2068 34.5467 51.7401 34.856C52.2841 35.1547 52.6948 35.6133 52.9721 36.232C53.2495 36.8507 53.3881 37.6293 53.3881 38.568V39.208H47.4841C47.5055 39.8053 47.5961 40.3067 47.7561 40.712C47.9161 41.1067 48.1561 41.4 48.4761 41.592C48.8068 41.7733 49.2228 41.864 49.7241 41.864C50.0335 41.864 50.3108 41.8267 50.5561 41.752C50.8015 41.6667 51.0095 41.5493 51.1801 41.4C51.3508 41.24 51.4841 41.0533 51.5801 40.84C51.6761 40.616 51.7241 40.3653 51.7241 40.088H53.3561C53.3561 40.5893 53.2708 41.032 53.1001 41.416C52.9295 41.8 52.6788 42.1253 52.3481 42.392C52.0281 42.648 51.6441 42.8453 51.1961 42.984C50.7481 43.1227 50.2521 43.192 49.7081 43.192ZM47.5161 37.992H51.6441C51.6441 37.576 51.5961 37.2293 51.5001 36.952C51.4148 36.664 51.2868 36.4293 51.1161 36.248C50.9455 36.0667 50.7428 35.9387 50.5081 35.864C50.2735 35.7787 50.0068 35.736 49.7081 35.736C49.2601 35.736 48.8761 35.816 48.5561 35.976C48.2468 36.136 48.0068 36.3867 47.8361 36.728C47.6655 37.0587 47.5588 37.48 47.5161 37.992ZM57.4955 43.192C57.0155 43.192 56.6368 43.1013 56.3595 42.92C56.0928 42.728 55.9008 42.488 55.7835 42.2C55.6768 41.9013 55.6235 41.5867 55.6235 41.256V35.96H54.5675V34.584H55.6555L55.9595 32.232H57.2875V34.584H58.8075V35.96H57.2875V41.064C57.2875 41.3093 57.3408 41.496 57.4475 41.624C57.5542 41.752 57.7302 41.816 57.9755 41.816H58.8075V42.936C58.7008 42.9787 58.5675 43.016 58.4075 43.048C58.2582 43.0907 58.1035 43.1227 57.9435 43.144C57.7835 43.176 57.6342 43.192 57.4955 43.192ZM60.5945 36.344V35.608C60.8292 35.5653 61.0212 35.464 61.1705 35.304C61.3198 35.1333 61.4265 34.9253 61.4905 34.68C61.5545 34.4347 61.5865 34.168 61.5865 33.88H60.7385V32.024H62.5305V33.704C62.5305 34.312 62.4345 34.8027 62.2425 35.176C62.0505 35.5387 61.8052 35.8107 61.5065 35.992C61.2185 36.1627 60.9145 36.28 60.5945 36.344ZM67.1904 43.192C66.6037 43.192 66.0864 43.128 65.6384 43C65.1904 42.872 64.817 42.696 64.5184 42.472C64.2197 42.248 63.9904 41.9813 63.8304 41.672C63.681 41.352 63.6064 41 63.6064 40.616C63.6064 40.5627 63.6064 40.5147 63.6064 40.472C63.617 40.4293 63.6224 40.392 63.6224 40.36H65.2704C65.2704 40.392 65.2704 40.424 65.2704 40.456C65.2704 40.4773 65.2704 40.504 65.2704 40.536C65.2704 40.8667 65.361 41.1333 65.5424 41.336C65.7237 41.528 65.9637 41.6667 66.2624 41.752C66.5717 41.8267 66.9077 41.864 67.2704 41.864C67.5904 41.864 67.8837 41.8267 68.1504 41.752C68.4277 41.6667 68.6517 41.544 68.8224 41.384C69.0037 41.224 69.0944 41.0213 69.0944 40.776C69.0944 40.456 68.9824 40.2107 68.7584 40.04C68.5344 39.8693 68.241 39.736 67.8784 39.64C67.5157 39.5333 67.137 39.4213 66.7424 39.304C66.3904 39.208 66.0384 39.1067 65.6864 39C65.345 38.8827 65.0357 38.7333 64.7584 38.552C64.481 38.3707 64.257 38.1413 64.0864 37.864C63.9157 37.5867 63.8304 37.24 63.8304 36.824C63.8304 36.4293 63.9157 36.0827 64.0864 35.784C64.257 35.4853 64.4917 35.2347 64.7904 35.032C65.0997 34.8293 65.4624 34.6747 65.8784 34.568C66.305 34.4613 66.769 34.408 67.2704 34.408C67.793 34.408 68.257 34.4667 68.6624 34.584C69.0677 34.6907 69.409 34.8453 69.6864 35.048C69.9744 35.2507 70.193 35.496 70.3424 35.784C70.4917 36.0613 70.5664 36.36 70.5664 36.68C70.5664 36.744 70.561 36.8133 70.5504 36.888C70.5504 36.952 70.5504 36.9947 70.5504 37.016H68.9184V36.872C68.9184 36.6587 68.8597 36.4667 68.7424 36.296C68.625 36.1253 68.4384 35.9867 68.1824 35.88C67.937 35.7733 67.6064 35.72 67.1904 35.72C66.913 35.72 66.6677 35.7467 66.4544 35.8C66.241 35.8427 66.065 35.9067 65.9264 35.992C65.7877 36.0773 65.681 36.1787 65.6064 36.296C65.5424 36.4133 65.5104 36.5467 65.5104 36.696C65.5104 36.9413 65.5957 37.1333 65.7664 37.272C65.9477 37.4 66.1824 37.512 66.4704 37.608C66.7584 37.6933 67.0677 37.7893 67.3984 37.896C67.7824 38.0027 68.1717 38.1147 68.5664 38.232C68.961 38.3387 69.3237 38.4773 69.6544 38.648C69.9957 38.8187 70.2677 39.0533 70.4704 39.352C70.6837 39.6507 70.7904 40.0507 70.7904 40.552C70.7904 41.0107 70.6997 41.4107 70.5184 41.752C70.337 42.0933 70.081 42.3707 69.7504 42.584C69.4304 42.7867 69.0517 42.936 68.6144 43.032C68.177 43.1387 67.7024 43.192 67.1904 43.192ZM78.5262 43.192C78.2596 43.192 77.9716 43.16 77.6622 43.096C77.3529 43.032 77.0596 42.9147 76.7822 42.744C76.5156 42.5733 76.2969 42.3387 76.1262 42.04C75.9556 41.7307 75.8702 41.3307 75.8702 40.84C75.8702 40.264 76.0036 39.7893 76.2702 39.416C76.5369 39.0427 76.9102 38.7493 77.3902 38.536C77.8702 38.3227 78.4409 38.1733 79.1022 38.088C79.7742 38.0027 80.5049 37.96 81.2942 37.96V37.128C81.2942 36.8507 81.2462 36.6053 81.1502 36.392C81.0649 36.1787 80.8996 36.0133 80.6542 35.896C80.4196 35.7787 80.0782 35.72 79.6302 35.72C79.1822 35.72 78.8302 35.7787 78.5742 35.896C78.3289 36.0027 78.1529 36.1413 78.0462 36.312C77.9502 36.472 77.9022 36.648 77.9022 36.84V37.08H76.3022C76.2916 37.0267 76.2862 36.9733 76.2862 36.92C76.2862 36.8667 76.2862 36.8027 76.2862 36.728C76.2862 36.2267 76.4249 35.8053 76.7022 35.464C76.9902 35.112 77.3902 34.8453 77.9022 34.664C78.4142 34.4827 79.0062 34.392 79.6782 34.392C80.4036 34.392 81.0062 34.4987 81.4862 34.712C81.9769 34.9147 82.3449 35.208 82.5902 35.592C82.8356 35.976 82.9582 36.44 82.9582 36.984V41.256C82.9582 41.4587 83.0062 41.6027 83.1022 41.688C83.2089 41.7733 83.3316 41.816 83.4702 41.816H84.0462V42.936C83.9182 42.9893 83.7582 43.0427 83.5662 43.096C83.3742 43.1493 83.1502 43.176 82.8942 43.176C82.6062 43.176 82.3609 43.1227 82.1582 43.016C81.9662 42.92 81.8062 42.7813 81.6782 42.6C81.5609 42.408 81.4809 42.1947 81.4382 41.96H81.3422C81.1502 42.2053 80.9156 42.424 80.6382 42.616C80.3716 42.7973 80.0622 42.936 79.7102 43.032C79.3582 43.1387 78.9636 43.192 78.5262 43.192ZM78.9902 41.816C79.3209 41.816 79.6249 41.768 79.9022 41.672C80.1902 41.5653 80.4356 41.4213 80.6382 41.24C80.8409 41.048 81.0009 40.824 81.1182 40.568C81.2356 40.3013 81.2942 40.0133 81.2942 39.704V39.144C80.5582 39.144 79.9129 39.1867 79.3582 39.272C78.8036 39.3573 78.3716 39.5173 78.0622 39.752C77.7529 39.976 77.5982 40.2907 77.5982 40.696C77.5982 40.9413 77.6516 41.1493 77.7582 41.32C77.8649 41.48 78.0249 41.6027 78.2382 41.688C78.4516 41.7733 78.7022 41.816 78.9902 41.816ZM88.4111 43.192C87.7285 43.192 87.1365 43.0373 86.6351 42.728C86.1338 42.4187 85.7445 41.9387 85.4671 41.288C85.2005 40.6373 85.0671 39.7947 85.0671 38.76C85.0671 37.7467 85.2058 36.92 85.4831 36.28C85.7605 35.64 86.1445 35.1653 86.6351 34.856C87.1258 34.5467 87.6911 34.392 88.3311 34.392C88.7045 34.392 89.0511 34.4347 89.3711 34.52C89.6911 34.6053 89.9738 34.7387 90.2191 34.92C90.4751 35.1013 90.6885 35.3307 90.8591 35.608H90.9711V31.432H92.6351V43H91.2751L91.1151 41.848H91.0031C90.7258 42.296 90.3578 42.632 89.8991 42.856C89.4511 43.08 88.9551 43.192 88.4111 43.192ZM88.8751 41.752C89.3658 41.752 89.7605 41.6453 90.0591 41.432C90.3685 41.208 90.5978 40.888 90.7471 40.472C90.8965 40.0453 90.9711 39.528 90.9711 38.92V38.696C90.9711 38.184 90.9231 37.7467 90.8271 37.384C90.7311 37.0213 90.5925 36.728 90.4111 36.504C90.2298 36.2693 90.0111 36.0987 89.7551 35.992C89.4991 35.8853 89.2111 35.832 88.8911 35.832C88.4005 35.832 88.0005 35.9333 87.6911 36.136C87.3818 36.328 87.1525 36.632 87.0031 37.048C86.8645 37.464 86.7951 38.0027 86.7951 38.664V38.952C86.7951 39.6133 86.8698 40.152 87.0191 40.568C87.1685 40.9733 87.3925 41.272 87.6911 41.464C88.0005 41.656 88.3951 41.752 88.8751 41.752ZM97.9968 43.192C97.3141 43.192 96.7221 43.0373 96.2208 42.728C95.7194 42.4187 95.3301 41.9387 95.0528 41.288C94.7861 40.6373 94.6528 39.7947 94.6528 38.76C94.6528 37.7467 94.7914 36.92 95.0688 36.28C95.3461 35.64 95.7301 35.1653 96.2208 34.856C96.7114 34.5467 97.2768 34.392 97.9168 34.392C98.2901 34.392 98.6368 34.4347 98.9568 34.52C99.2768 34.6053 99.5594 34.7387 99.8048 34.92C100.061 35.1013 100.274 35.3307 100.445 35.608H100.557V31.432H102.221V43H100.861L100.701 41.848H100.589C100.311 42.296 99.9434 42.632 99.4848 42.856C99.0368 43.08 98.5408 43.192 97.9968 43.192ZM98.4608 41.752C98.9514 41.752 99.3461 41.6453 99.6448 41.432C99.9541 41.208 100.183 40.888 100.333 40.472C100.482 40.0453 100.557 39.528 100.557 38.92V38.696C100.557 38.184 100.509 37.7467 100.413 37.384C100.317 37.0213 100.178 36.728 99.9968 36.504C99.8154 36.2693 99.5968 36.0987 99.3408 35.992C99.0848 35.8853 98.7968 35.832 98.4768 35.832C97.9861 35.832 97.5861 35.9333 97.2768 36.136C96.9674 36.328 96.7381 36.632 96.5888 37.048C96.4501 37.464 96.3808 38.0027 96.3808 38.664V38.952C96.3808 39.6133 96.4554 40.152 96.6048 40.568C96.7541 40.9733 96.9781 41.272 97.2768 41.464C97.5861 41.656 97.9808 41.752 98.4608 41.752ZM108.288 33.128V31.432H109.952V33.128H108.288ZM108.288 43V34.584H109.952V43H108.288ZM114.516 43.192C114.036 43.192 113.657 43.1013 113.38 42.92C113.113 42.728 112.921 42.488 112.804 42.2C112.697 41.9013 112.644 41.5867 112.644 41.256V35.96H111.588V34.584H112.676L112.98 32.232H114.308V34.584H115.828V35.96H114.308V41.064C114.308 41.3093 114.361 41.496 114.468 41.624C114.575 41.752 114.751 41.816 114.996 41.816H115.828V42.936C115.721 42.9787 115.588 43.016 115.428 43.048C115.279 43.0907 115.124 43.1227 114.964 43.144C114.804 43.176 114.655 43.192 114.516 43.192Z" fill="white"/>
<rect x="155" y="20" width="95" height="28" rx="4" fill="#018270"/>
<path d="M168.134 39V29.396H169.702V37.642H174.49V39H168.134ZM178.995 39.168C178.239 39.168 177.604 39.0327 177.091 38.762C176.587 38.482 176.204 38.0573 175.943 37.488C175.681 36.9187 175.551 36.1953 175.551 35.318C175.551 34.4313 175.681 33.708 175.943 33.148C176.204 32.5787 176.591 32.1587 177.105 31.888C177.618 31.608 178.257 31.468 179.023 31.468C179.723 31.468 180.306 31.6033 180.773 31.874C181.249 32.1353 181.608 32.5367 181.851 33.078C182.093 33.6193 182.215 34.3007 182.215 35.122V35.682H177.049C177.067 36.2047 177.147 36.6433 177.287 36.998C177.427 37.3433 177.637 37.6 177.917 37.768C178.206 37.9267 178.57 38.006 179.009 38.006C179.279 38.006 179.522 37.9733 179.737 37.908C179.951 37.8333 180.133 37.7307 180.283 37.6C180.432 37.46 180.549 37.2967 180.633 37.11C180.717 36.914 180.759 36.6947 180.759 36.452H182.187C182.187 36.8907 182.112 37.278 181.963 37.614C181.813 37.95 181.594 38.2347 181.305 38.468C181.025 38.692 180.689 38.8647 180.297 38.986C179.905 39.1073 179.471 39.168 178.995 39.168ZM177.077 34.618H180.689C180.689 34.254 180.647 33.9507 180.563 33.708C180.488 33.456 180.376 33.2507 180.227 33.092C180.077 32.9333 179.9 32.8213 179.695 32.756C179.489 32.6813 179.256 32.644 178.995 32.644C178.603 32.644 178.267 32.714 177.987 32.854C177.716 32.994 177.506 33.2133 177.357 33.512C177.207 33.8013 177.114 34.17 177.077 34.618ZM185.809 39.168C185.389 39.168 185.057 39.0887 184.815 38.93C184.581 38.762 184.413 38.552 184.311 38.3C184.217 38.0387 184.171 37.7633 184.171 37.474V32.84H183.247V31.636H184.199L184.465 29.578H185.627V31.636H186.957V32.84H185.627V37.306C185.627 37.5207 185.673 37.684 185.767 37.796C185.86 37.908 186.014 37.964 186.229 37.964H186.957V38.944C186.863 38.9813 186.747 39.014 186.607 39.042C186.476 39.0793 186.341 39.1073 186.201 39.126C186.061 39.154 185.93 39.168 185.809 39.168ZM188.52 33.176V32.532C188.726 32.4947 188.894 32.406 189.024 32.266C189.155 32.1167 189.248 31.9347 189.304 31.72C189.36 31.5053 189.388 31.272 189.388 31.02H188.646V29.396H190.214V30.866C190.214 31.398 190.13 31.8273 189.962 32.154C189.794 32.4713 189.58 32.7093 189.318 32.868C189.066 33.0173 188.8 33.12 188.52 33.176ZM194.292 39.168C193.778 39.168 193.326 39.112 192.934 39C192.542 38.888 192.215 38.734 191.954 38.538C191.692 38.342 191.492 38.1087 191.352 37.838C191.221 37.558 191.156 37.25 191.156 36.914C191.156 36.8673 191.156 36.8253 191.156 36.788C191.165 36.7507 191.17 36.718 191.17 36.69H192.612C192.612 36.718 192.612 36.746 192.612 36.774C192.612 36.7927 192.612 36.816 192.612 36.844C192.612 37.1333 192.691 37.3667 192.85 37.544C193.008 37.712 193.218 37.8333 193.48 37.908C193.75 37.9733 194.044 38.006 194.362 38.006C194.642 38.006 194.898 37.9733 195.132 37.908C195.374 37.8333 195.57 37.726 195.72 37.586C195.878 37.446 195.958 37.2687 195.958 37.054C195.958 36.774 195.86 36.5593 195.664 36.41C195.468 36.2607 195.211 36.144 194.894 36.06C194.576 35.9667 194.245 35.8687 193.9 35.766C193.592 35.682 193.284 35.5933 192.976 35.5C192.677 35.3973 192.406 35.2667 192.164 35.108C191.921 34.9493 191.725 34.7487 191.576 34.506C191.426 34.2633 191.352 33.96 191.352 33.596C191.352 33.2507 191.426 32.9473 191.576 32.686C191.725 32.4247 191.93 32.2053 192.192 32.028C192.462 31.8507 192.78 31.7153 193.144 31.622C193.517 31.5287 193.923 31.482 194.362 31.482C194.819 31.482 195.225 31.5333 195.58 31.636C195.934 31.7293 196.233 31.8647 196.476 32.042C196.728 32.2193 196.919 32.434 197.05 32.686C197.18 32.9287 197.246 33.19 197.246 33.47C197.246 33.526 197.241 33.5867 197.232 33.652C197.232 33.708 197.232 33.7453 197.232 33.764H195.804V33.638C195.804 33.4513 195.752 33.2833 195.65 33.134C195.547 32.9847 195.384 32.8633 195.16 32.77C194.945 32.6767 194.656 32.63 194.292 32.63C194.049 32.63 193.834 32.6533 193.648 32.7C193.461 32.7373 193.307 32.7933 193.186 32.868C193.064 32.9427 192.971 33.0313 192.906 33.134C192.85 33.2367 192.822 33.3533 192.822 33.484C192.822 33.6987 192.896 33.8667 193.046 33.988C193.204 34.1 193.41 34.198 193.662 34.282C193.914 34.3567 194.184 34.4407 194.474 34.534C194.81 34.6273 195.15 34.7253 195.496 34.828C195.841 34.9213 196.158 35.0427 196.448 35.192C196.746 35.3413 196.984 35.5467 197.162 35.808C197.348 36.0693 197.442 36.4193 197.442 36.858C197.442 37.2593 197.362 37.6093 197.204 37.908C197.045 38.2067 196.821 38.4493 196.532 38.636C196.252 38.8133 195.92 38.944 195.538 39.028C195.155 39.1213 194.74 39.168 194.292 39.168ZM204.21 39.168C203.977 39.168 203.725 39.14 203.454 39.084C203.184 39.028 202.927 38.9253 202.684 38.776C202.451 38.6267 202.26 38.4213 202.11 38.16C201.961 37.8893 201.886 37.5393 201.886 37.11C201.886 36.606 202.003 36.1907 202.236 35.864C202.47 35.5373 202.796 35.2807 203.216 35.094C203.636 34.9073 204.136 34.7767 204.714 34.702C205.302 34.6273 205.942 34.59 206.632 34.59V33.862C206.632 33.6193 206.59 33.4047 206.506 33.218C206.432 33.0313 206.287 32.8867 206.072 32.784C205.867 32.6813 205.568 32.63 205.176 32.63C204.784 32.63 204.476 32.6813 204.252 32.784C204.038 32.8773 203.884 32.9987 203.79 33.148C203.706 33.288 203.664 33.442 203.664 33.61V33.82H202.264C202.255 33.7733 202.25 33.7267 202.25 33.68C202.25 33.6333 202.25 33.5773 202.25 33.512C202.25 33.0733 202.372 32.7047 202.614 32.406C202.866 32.098 203.216 31.8647 203.664 31.706C204.112 31.5473 204.63 31.468 205.218 31.468C205.853 31.468 206.38 31.5613 206.8 31.748C207.23 31.9253 207.552 32.182 207.766 32.518C207.981 32.854 208.088 33.26 208.088 33.736V37.474C208.088 37.6513 208.13 37.7773 208.214 37.852C208.308 37.9267 208.415 37.964 208.536 37.964H209.04V38.944C208.928 38.9907 208.788 39.0373 208.62 39.084C208.452 39.1307 208.256 39.154 208.032 39.154C207.78 39.154 207.566 39.1073 207.388 39.014C207.22 38.93 207.08 38.8087 206.968 38.65C206.866 38.482 206.796 38.2953 206.758 38.09H206.674C206.506 38.3047 206.301 38.496 206.058 38.664C205.825 38.8227 205.554 38.944 205.246 39.028C204.938 39.1213 204.593 39.168 204.21 39.168ZM204.616 37.964C204.906 37.964 205.172 37.922 205.414 37.838C205.666 37.7447 205.881 37.6187 206.058 37.46C206.236 37.292 206.376 37.096 206.478 36.872C206.581 36.6387 206.632 36.3867 206.632 36.116V35.626C205.988 35.626 205.424 35.6633 204.938 35.738C204.453 35.8127 204.075 35.9527 203.804 36.158C203.534 36.354 203.398 36.6293 203.398 36.984C203.398 37.1987 203.445 37.3807 203.538 37.53C203.632 37.67 203.772 37.7773 203.958 37.852C204.145 37.9267 204.364 37.964 204.616 37.964ZM212.86 39.168C212.262 39.168 211.744 39.0327 211.306 38.762C210.867 38.4913 210.526 38.0713 210.284 37.502C210.05 36.9327 209.934 36.1953 209.934 35.29C209.934 34.4033 210.055 33.68 210.298 33.12C210.54 32.56 210.876 32.1447 211.306 31.874C211.735 31.6033 212.23 31.468 212.79 31.468C213.116 31.468 213.42 31.5053 213.7 31.58C213.98 31.6547 214.227 31.7713 214.442 31.93C214.666 32.0887 214.852 32.2893 215.002 32.532H215.1V28.878H216.556V39H215.366L215.226 37.992H215.128C214.885 38.384 214.563 38.678 214.162 38.874C213.77 39.07 213.336 39.168 212.86 39.168ZM213.266 37.908C213.695 37.908 214.04 37.8147 214.302 37.628C214.572 37.432 214.773 37.152 214.904 36.788C215.034 36.4147 215.1 35.962 215.1 35.43V35.234C215.1 34.786 215.058 34.4033 214.974 34.086C214.89 33.7687 214.768 33.512 214.61 33.316C214.451 33.1107 214.26 32.9613 214.036 32.868C213.812 32.7747 213.56 32.728 213.28 32.728C212.85 32.728 212.5 32.8167 212.23 32.994C211.959 33.162 211.758 33.428 211.628 33.792C211.506 34.156 211.446 34.6273 211.446 35.206V35.458C211.446 36.0367 211.511 36.508 211.642 36.872C211.772 37.2267 211.968 37.488 212.23 37.656C212.5 37.824 212.846 37.908 213.266 37.908ZM221.247 39.168C220.65 39.168 220.132 39.0327 219.693 38.762C219.254 38.4913 218.914 38.0713 218.671 37.502C218.438 36.9327 218.321 36.1953 218.321 35.29C218.321 34.4033 218.442 33.68 218.685 33.12C218.928 32.56 219.264 32.1447 219.693 31.874C220.122 31.6033 220.617 31.468 221.177 31.468C221.504 31.468 221.807 31.5053 222.087 31.58C222.367 31.6547 222.614 31.7713 222.829 31.93C223.053 32.0887 223.24 32.2893 223.389 32.532H223.487V28.878H224.943V39H223.753L223.613 37.992H223.515C223.272 38.384 222.95 38.678 222.549 38.874C222.157 39.07 221.723 39.168 221.247 39.168ZM221.653 37.908C222.082 37.908 222.428 37.8147 222.689 37.628C222.96 37.432 223.16 37.152 223.291 36.788C223.422 36.4147 223.487 35.962 223.487 35.43V35.234C223.487 34.786 223.445 34.4033 223.361 34.086C223.277 33.7687 223.156 33.512 222.997 33.316C222.838 33.1107 222.647 32.9613 222.423 32.868C222.199 32.7747 221.947 32.728 221.667 32.728C221.238 32.728 220.888 32.8167 220.617 32.994C220.346 33.162 220.146 33.428 220.015 33.792C219.894 34.156 219.833 34.6273 219.833 35.206V35.458C219.833 36.0367 219.898 36.508 220.029 36.872C220.16 37.2267 220.356 37.488 220.617 37.656C220.888 37.824 221.233 37.908 221.653 37.908ZM230.252 30.362V28.878H231.708V30.362H230.252ZM230.252 39V31.636H231.708V39H230.252ZM235.702 39.168C235.282 39.168 234.95 39.0887 234.708 38.93C234.474 38.762 234.306 38.552 234.204 38.3C234.11 38.0387 234.064 37.7633 234.064 37.474V32.84H233.14V31.636H234.092L234.358 29.578H235.52V31.636H236.85V32.84H235.52V37.306C235.52 37.5207 235.566 37.684 235.66 37.796C235.753 37.908 235.907 37.964 236.122 37.964H236.85V38.944C236.756 38.9813 236.64 39.014 236.5 39.042C236.369 39.0793 236.234 39.1073 236.094 39.126C235.954 39.154 235.823 39.168 235.702 39.168Z" fill="white"/>
<rect x="20" y="76" width="113" height="36" rx="4" fill="#018270"/>
<rect x="20" y="76" width="113" height="36" rx="4" fill="white" fill-opacity="0.12"/>
<path d="M37.296 99V88.024H39.088V97.448H44.56V99H37.296ZM49.7081 99.192C48.8441 99.192 48.1188 99.0373 47.5321 98.728C46.9561 98.408 46.5188 97.9227 46.2201 97.272C45.9215 96.6213 45.7721 95.7947 45.7721 94.792C45.7721 93.7787 45.9215 92.952 46.2201 92.312C46.5188 91.6613 46.9615 91.1813 47.5481 90.872C48.1348 90.552 48.8655 90.392 49.7401 90.392C50.5401 90.392 51.2068 90.5467 51.7401 90.856C52.2841 91.1547 52.6948 91.6133 52.9721 92.232C53.2495 92.8507 53.3881 93.6293 53.3881 94.568V95.208H47.4841C47.5055 95.8053 47.5961 96.3067 47.7561 96.712C47.9161 97.1067 48.1561 97.4 48.4761 97.592C48.8068 97.7733 49.2228 97.864 49.7241 97.864C50.0335 97.864 50.3108 97.8267 50.5561 97.752C50.8015 97.6667 51.0095 97.5493 51.1801 97.4C51.3508 97.24 51.4841 97.0533 51.5801 96.84C51.6761 96.616 51.7241 96.3653 51.7241 96.088H53.3561C53.3561 96.5893 53.2708 97.032 53.1001 97.416C52.9295 97.8 52.6788 98.1253 52.3481 98.392C52.0281 98.648 51.6441 98.8453 51.1961 98.984C50.7481 99.1227 50.2521 99.192 49.7081 99.192ZM47.5161 93.992H51.6441C51.6441 93.576 51.5961 93.2293 51.5001 92.952C51.4148 92.664 51.2868 92.4293 51.1161 92.248C50.9455 92.0667 50.7428 91.9387 50.5081 91.864C50.2735 91.7787 50.0068 91.736 49.7081 91.736C49.2601 91.736 48.8761 91.816 48.5561 91.976C48.2468 92.136 48.0068 92.3867 47.8361 92.728C47.6655 93.0587 47.5588 93.48 47.5161 93.992ZM57.4955 99.192C57.0155 99.192 56.6368 99.1013 56.3595 98.92C56.0928 98.728 55.9008 98.488 55.7835 98.2C55.6768 97.9013 55.6235 97.5867 55.6235 97.256V91.96H54.5675V90.584H55.6555L55.9595 88.232H57.2875V90.584H58.8075V91.96H57.2875V97.064C57.2875 97.3093 57.3408 97.496 57.4475 97.624C57.5542 97.752 57.7302 97.816 57.9755 97.816H58.8075V98.936C58.7008 98.9787 58.5675 99.016 58.4075 99.048C58.2582 99.0907 58.1035 99.1227 57.9435 99.144C57.7835 99.176 57.6342 99.192 57.4955 99.192ZM60.5945 92.344V91.608C60.8292 91.5653 61.0212 91.464 61.1705 91.304C61.3198 91.1333 61.4265 90.9253 61.4905 90.68C61.5545 90.4347 61.5865 90.168 61.5865 89.88H60.7385V88.024H62.5305V89.704C62.5305 90.312 62.4345 90.8027 62.2425 91.176C62.0505 91.5387 61.8052 91.8107 61.5065 91.992C61.2185 92.1627 60.9145 92.28 60.5945 92.344ZM67.1904 99.192C66.6037 99.192 66.0864 99.128 65.6384 99C65.1904 98.872 64.817 98.696 64.5184 98.472C64.2197 98.248 63.9904 97.9813 63.8304 97.672C63.681 97.352 63.6064 97 63.6064 96.616C63.6064 96.5627 63.6064 96.5147 63.6064 96.472C63.617 96.4293 63.6224 96.392 63.6224 96.36H65.2704C65.2704 96.392 65.2704 96.424 65.2704 96.456C65.2704 96.4773 65.2704 96.504 65.2704 96.536C65.2704 96.8667 65.361 97.1333 65.5424 97.336C65.7237 97.528 65.9637 97.6667 66.2624 97.752C66.5717 97.8267 66.9077 97.864 67.2704 97.864C67.5904 97.864 67.8837 97.8267 68.1504 97.752C68.4277 97.6667 68.6517 97.544 68.8224 97.384C69.0037 97.224 69.0944 97.0213 69.0944 96.776C69.0944 96.456 68.9824 96.2107 68.7584 96.04C68.5344 95.8693 68.241 95.736 67.8784 95.64C67.5157 95.5333 67.137 95.4213 66.7424 95.304C66.3904 95.208 66.0384 95.1067 65.6864 95C65.345 94.8827 65.0357 94.7333 64.7584 94.552C64.481 94.3707 64.257 94.1413 64.0864 93.864C63.9157 93.5867 63.8304 93.24 63.8304 92.824C63.8304 92.4293 63.9157 92.0827 64.0864 91.784C64.257 91.4853 64.4917 91.2347 64.7904 91.032C65.0997 90.8293 65.4624 90.6747 65.8784 90.568C66.305 90.4613 66.769 90.408 67.2704 90.408C67.793 90.408 68.257 90.4667 68.6624 90.584C69.0677 90.6907 69.409 90.8453 69.6864 91.048C69.9744 91.2507 70.193 91.496 70.3424 91.784C70.4917 92.0613 70.5664 92.36 70.5664 92.68C70.5664 92.744 70.561 92.8133 70.5504 92.888C70.5504 92.952 70.5504 92.9947 70.5504 93.016H68.9184V92.872C68.9184 92.6587 68.8597 92.4667 68.7424 92.296C68.625 92.1253 68.4384 91.9867 68.1824 91.88C67.937 91.7733 67.6064 91.72 67.1904 91.72C66.913 91.72 66.6677 91.7467 66.4544 91.8C66.241 91.8427 66.065 91.9067 65.9264 91.992C65.7877 92.0773 65.681 92.1787 65.6064 92.296C65.5424 92.4133 65.5104 92.5467 65.5104 92.696C65.5104 92.9413 65.5957 93.1333 65.7664 93.272C65.9477 93.4 66.1824 93.512 66.4704 93.608C66.7584 93.6933 67.0677 93.7893 67.3984 93.896C67.7824 94.0027 68.1717 94.1147 68.5664 94.232C68.961 94.3387 69.3237 94.4773 69.6544 94.648C69.9957 94.8187 70.2677 95.0533 70.4704 95.352C70.6837 95.6507 70.7904 96.0507 70.7904 96.552C70.7904 97.0107 70.6997 97.4107 70.5184 97.752C70.337 98.0933 70.081 98.3707 69.7504 98.584C69.4304 98.7867 69.0517 98.936 68.6144 99.032C68.177 99.1387 67.7024 99.192 67.1904 99.192ZM78.5262 99.192C78.2596 99.192 77.9716 99.16 77.6622 99.096C77.3529 99.032 77.0596 98.9147 76.7822 98.744C76.5156 98.5733 76.2969 98.3387 76.1262 98.04C75.9556 97.7307 75.8702 97.3307 75.8702 96.84C75.8702 96.264 76.0036 95.7893 76.2702 95.416C76.5369 95.0427 76.9102 94.7493 77.3902 94.536C77.8702 94.3227 78.4409 94.1733 79.1022 94.088C79.7742 94.0027 80.5049 93.96 81.2942 93.96V93.128C81.2942 92.8507 81.2462 92.6053 81.1502 92.392C81.0649 92.1787 80.8996 92.0133 80.6542 91.896C80.4196 91.7787 80.0782 91.72 79.6302 91.72C79.1822 91.72 78.8302 91.7787 78.5742 91.896C78.3289 92.0027 78.1529 92.1413 78.0462 92.312C77.9502 92.472 77.9022 92.648 77.9022 92.84V93.08H76.3022C76.2916 93.0267 76.2862 92.9733 76.2862 92.92C76.2862 92.8667 76.2862 92.8027 76.2862 92.728C76.2862 92.2267 76.4249 91.8053 76.7022 91.464C76.9902 91.112 77.3902 90.8453 77.9022 90.664C78.4142 90.4827 79.0062 90.392 79.6782 90.392C80.4036 90.392 81.0062 90.4987 81.4862 90.712C81.9769 90.9147 82.3449 91.208 82.5902 91.592C82.8356 91.976 82.9582 92.44 82.9582 92.984V97.256C82.9582 97.4587 83.0062 97.6027 83.1022 97.688C83.2089 97.7733 83.3316 97.816 83.4702 97.816H84.0462V98.936C83.9182 98.9893 83.7582 99.0427 83.5662 99.096C83.3742 99.1493 83.1502 99.176 82.8942 99.176C82.6062 99.176 82.3609 99.1227 82.1582 99.016C81.9662 98.92 81.8062 98.7813 81.6782 98.6C81.5609 98.408 81.4809 98.1947 81.4382 97.96H81.3422C81.1502 98.2053 80.9156 98.424 80.6382 98.616C80.3716 98.7973 80.0622 98.936 79.7102 99.032C79.3582 99.1387 78.9636 99.192 78.5262 99.192ZM78.9902 97.816C79.3209 97.816 79.6249 97.768 79.9022 97.672C80.1902 97.5653 80.4356 97.4213 80.6382 97.24C80.8409 97.048 81.0009 96.824 81.1182 96.568C81.2356 96.3013 81.2942 96.0133 81.2942 95.704V95.144C80.5582 95.144 79.9129 95.1867 79.3582 95.272C78.8036 95.3573 78.3716 95.5173 78.0622 95.752C77.7529 95.976 77.5982 96.2907 77.5982 96.696C77.5982 96.9413 77.6516 97.1493 77.7582 97.32C77.8649 97.48 78.0249 97.6027 78.2382 97.688C78.4516 97.7733 78.7022 97.816 78.9902 97.816ZM88.4111 99.192C87.7285 99.192 87.1365 99.0373 86.6351 98.728C86.1338 98.4187 85.7445 97.9387 85.4671 97.288C85.2005 96.6373 85.0671 95.7947 85.0671 94.76C85.0671 93.7467 85.2058 92.92 85.4831 92.28C85.7605 91.64 86.1445 91.1653 86.6351 90.856C87.1258 90.5467 87.6911 90.392 88.3311 90.392C88.7045 90.392 89.0511 90.4347 89.3711 90.52C89.6911 90.6053 89.9738 90.7387 90.2191 90.92C90.4751 91.1013 90.6885 91.3307 90.8591 91.608H90.9711V87.432H92.6351V99H91.2751L91.1151 97.848H91.0031C90.7258 98.296 90.3578 98.632 89.8991 98.856C89.4511 99.08 88.9551 99.192 88.4111 99.192ZM88.8751 97.752C89.3658 97.752 89.7605 97.6453 90.0591 97.432C90.3685 97.208 90.5978 96.888 90.7471 96.472C90.8965 96.0453 90.9711 95.528 90.9711 94.92V94.696C90.9711 94.184 90.9231 93.7467 90.8271 93.384C90.7311 93.0213 90.5925 92.728 90.4111 92.504C90.2298 92.2693 90.0111 92.0987 89.7551 91.992C89.4991 91.8853 89.2111 91.832 88.8911 91.832C88.4005 91.832 88.0005 91.9333 87.6911 92.136C87.3818 92.328 87.1525 92.632 87.0031 93.048C86.8645 93.464 86.7951 94.0027 86.7951 94.664V94.952C86.7951 95.6133 86.8698 96.152 87.0191 96.568C87.1685 96.9733 87.3925 97.272 87.6911 97.464C88.0005 97.656 88.3951 97.752 88.8751 97.752ZM97.9968 99.192C97.3141 99.192 96.7221 99.0373 96.2208 98.728C95.7194 98.4187 95.3301 97.9387 95.0528 97.288C94.7861 96.6373 94.6528 95.7947 94.6528 94.76C94.6528 93.7467 94.7914 92.92 95.0688 92.28C95.3461 91.64 95.7301 91.1653 96.2208 90.856C96.7114 90.5467 97.2768 90.392 97.9168 90.392C98.2901 90.392 98.6368 90.4347 98.9568 90.52C99.2768 90.6053 99.5594 90.7387 99.8048 90.92C100.061 91.1013 100.274 91.3307 100.445 91.608H100.557V87.432H102.221V99H100.861L100.701 97.848H100.589C100.311 98.296 99.9434 98.632 99.4848 98.856C99.0368 99.08 98.5408 99.192 97.9968 99.192ZM98.4608 97.752C98.9514 97.752 99.3461 97.6453 99.6448 97.432C99.9541 97.208 100.183 96.888 100.333 96.472C100.482 96.0453 100.557 95.528 100.557 94.92V94.696C100.557 94.184 100.509 93.7467 100.413 93.384C100.317 93.0213 100.178 92.728 99.9968 92.504C99.8154 92.2693 99.5968 92.0987 99.3408 91.992C99.0848 91.8853 98.7968 91.832 98.4768 91.832C97.9861 91.832 97.5861 91.9333 97.2768 92.136C96.9674 92.328 96.7381 92.632 96.5888 93.048C96.4501 93.464 96.3808 94.0027 96.3808 94.664V94.952C96.3808 95.6133 96.4554 96.152 96.6048 96.568C96.7541 96.9733 96.9781 97.272 97.2768 97.464C97.5861 97.656 97.9808 97.752 98.4608 97.752ZM108.288 89.128V87.432H109.952V89.128H108.288ZM108.288 99V90.584H109.952V99H108.288ZM114.516 99.192C114.036 99.192 113.657 99.1013 113.38 98.92C113.113 98.728 112.921 98.488 112.804 98.2C112.697 97.9013 112.644 97.5867 112.644 97.256V91.96H111.588V90.584H112.676L112.98 88.232H114.308V90.584H115.828V91.96H114.308V97.064C114.308 97.3093 114.361 97.496 114.468 97.624C114.575 97.752 114.751 97.816 114.996 97.816H115.828V98.936C115.721 98.9787 115.588 99.016 115.428 99.048C115.279 99.0907 115.124 99.1227 114.964 99.144C114.804 99.176 114.655 99.192 114.516 99.192Z" fill="white"/>
<rect x="155" y="76" width="95" height="28" rx="4" fill="#018270"/>
<rect x="155" y="76" width="95" height="28" rx="4" fill="white" fill-opacity="0.12"/>
<path d="M168.134 95V85.396H169.702V93.642H174.49V95H168.134ZM178.995 95.168C178.239 95.168 177.604 95.0327 177.091 94.762C176.587 94.482 176.204 94.0573 175.943 93.488C175.681 92.9187 175.551 92.1953 175.551 91.318C175.551 90.4313 175.681 89.708 175.943 89.148C176.204 88.5787 176.591 88.1587 177.105 87.888C177.618 87.608 178.257 87.468 179.023 87.468C179.723 87.468 180.306 87.6033 180.773 87.874C181.249 88.1353 181.608 88.5367 181.851 89.078C182.093 89.6193 182.215 90.3007 182.215 91.122V91.682H177.049C177.067 92.2047 177.147 92.6433 177.287 92.998C177.427 93.3433 177.637 93.6 177.917 93.768C178.206 93.9267 178.57 94.006 179.009 94.006C179.279 94.006 179.522 93.9733 179.737 93.908C179.951 93.8333 180.133 93.7307 180.283 93.6C180.432 93.46 180.549 93.2967 180.633 93.11C180.717 92.914 180.759 92.6947 180.759 92.452H182.187C182.187 92.8907 182.112 93.278 181.963 93.614C181.813 93.95 181.594 94.2347 181.305 94.468C181.025 94.692 180.689 94.8647 180.297 94.986C179.905 95.1073 179.471 95.168 178.995 95.168ZM177.077 90.618H180.689C180.689 90.254 180.647 89.9507 180.563 89.708C180.488 89.456 180.376 89.2507 180.227 89.092C180.077 88.9333 179.9 88.8213 179.695 88.756C179.489 88.6813 179.256 88.644 178.995 88.644C178.603 88.644 178.267 88.714 177.987 88.854C177.716 88.994 177.506 89.2133 177.357 89.512C177.207 89.8013 177.114 90.17 177.077 90.618ZM185.809 95.168C185.389 95.168 185.057 95.0887 184.815 94.93C184.581 94.762 184.413 94.552 184.311 94.3C184.217 94.0387 184.171 93.7633 184.171 93.474V88.84H183.247V87.636H184.199L184.465 85.578H185.627V87.636H186.957V88.84H185.627V93.306C185.627 93.5207 185.673 93.684 185.767 93.796C185.86 93.908 186.014 93.964 186.229 93.964H186.957V94.944C186.863 94.9813 186.747 95.014 186.607 95.042C186.476 95.0793 186.341 95.1073 186.201 95.126C186.061 95.154 185.93 95.168 185.809 95.168ZM188.52 89.176V88.532C188.726 88.4947 188.894 88.406 189.024 88.266C189.155 88.1167 189.248 87.9347 189.304 87.72C189.36 87.5053 189.388 87.272 189.388 87.02H188.646V85.396H190.214V86.866C190.214 87.398 190.13 87.8273 189.962 88.154C189.794 88.4713 189.58 88.7093 189.318 88.868C189.066 89.0173 188.8 89.12 188.52 89.176ZM194.292 95.168C193.778 95.168 193.326 95.112 192.934 95C192.542 94.888 192.215 94.734 191.954 94.538C191.692 94.342 191.492 94.1087 191.352 93.838C191.221 93.558 191.156 93.25 191.156 92.914C191.156 92.8673 191.156 92.8253 191.156 92.788C191.165 92.7507 191.17 92.718 191.17 92.69H192.612C192.612 92.718 192.612 92.746 192.612 92.774C192.612 92.7927 192.612 92.816 192.612 92.844C192.612 93.1333 192.691 93.3667 192.85 93.544C193.008 93.712 193.218 93.8333 193.48 93.908C193.75 93.9733 194.044 94.006 194.362 94.006C194.642 94.006 194.898 93.9733 195.132 93.908C195.374 93.8333 195.57 93.726 195.72 93.586C195.878 93.446 195.958 93.2687 195.958 93.054C195.958 92.774 195.86 92.5593 195.664 92.41C195.468 92.2607 195.211 92.144 194.894 92.06C194.576 91.9667 194.245 91.8687 193.9 91.766C193.592 91.682 193.284 91.5933 192.976 91.5C192.677 91.3973 192.406 91.2667 192.164 91.108C191.921 90.9493 191.725 90.7487 191.576 90.506C191.426 90.2633 191.352 89.96 191.352 89.596C191.352 89.2507 191.426 88.9473 191.576 88.686C191.725 88.4247 191.93 88.2053 192.192 88.028C192.462 87.8507 192.78 87.7153 193.144 87.622C193.517 87.5287 193.923 87.482 194.362 87.482C194.819 87.482 195.225 87.5333 195.58 87.636C195.934 87.7293 196.233 87.8647 196.476 88.042C196.728 88.2193 196.919 88.434 197.05 88.686C197.18 88.9287 197.246 89.19 197.246 89.47C197.246 89.526 197.241 89.5867 197.232 89.652C197.232 89.708 197.232 89.7453 197.232 89.764H195.804V89.638C195.804 89.4513 195.752 89.2833 195.65 89.134C195.547 88.9847 195.384 88.8633 195.16 88.77C194.945 88.6767 194.656 88.63 194.292 88.63C194.049 88.63 193.834 88.6533 193.648 88.7C193.461 88.7373 193.307 88.7933 193.186 88.868C193.064 88.9427 192.971 89.0313 192.906 89.134C192.85 89.2367 192.822 89.3533 192.822 89.484C192.822 89.6987 192.896 89.8667 193.046 89.988C193.204 90.1 193.41 90.198 193.662 90.282C193.914 90.3567 194.184 90.4407 194.474 90.534C194.81 90.6273 195.15 90.7253 195.496 90.828C195.841 90.9213 196.158 91.0427 196.448 91.192C196.746 91.3413 196.984 91.5467 197.162 91.808C197.348 92.0693 197.442 92.4193 197.442 92.858C197.442 93.2593 197.362 93.6093 197.204 93.908C197.045 94.2067 196.821 94.4493 196.532 94.636C196.252 94.8133 195.92 94.944 195.538 95.028C195.155 95.1213 194.74 95.168 194.292 95.168ZM204.21 95.168C203.977 95.168 203.725 95.14 203.454 95.084C203.184 95.028 202.927 94.9253 202.684 94.776C202.451 94.6267 202.26 94.4213 202.11 94.16C201.961 93.8893 201.886 93.5393 201.886 93.11C201.886 92.606 202.003 92.1907 202.236 91.864C202.47 91.5373 202.796 91.2807 203.216 91.094C203.636 90.9073 204.136 90.7767 204.714 90.702C205.302 90.6273 205.942 90.59 206.632 90.59V89.862C206.632 89.6193 206.59 89.4047 206.506 89.218C206.432 89.0313 206.287 88.8867 206.072 88.784C205.867 88.6813 205.568 88.63 205.176 88.63C204.784 88.63 204.476 88.6813 204.252 88.784C204.038 88.8773 203.884 88.9987 203.79 89.148C203.706 89.288 203.664 89.442 203.664 89.61V89.82H202.264C202.255 89.7733 202.25 89.7267 202.25 89.68C202.25 89.6333 202.25 89.5773 202.25 89.512C202.25 89.0733 202.372 88.7047 202.614 88.406C202.866 88.098 203.216 87.8647 203.664 87.706C204.112 87.5473 204.63 87.468 205.218 87.468C205.853 87.468 206.38 87.5613 206.8 87.748C207.23 87.9253 207.552 88.182 207.766 88.518C207.981 88.854 208.088 89.26 208.088 89.736V93.474C208.088 93.6513 208.13 93.7773 208.214 93.852C208.308 93.9267 208.415 93.964 208.536 93.964H209.04V94.944C208.928 94.9907 208.788 95.0373 208.62 95.084C208.452 95.1307 208.256 95.154 208.032 95.154C207.78 95.154 207.566 95.1073 207.388 95.014C207.22 94.93 207.08 94.8087 206.968 94.65C206.866 94.482 206.796 94.2953 206.758 94.09H206.674C206.506 94.3047 206.301 94.496 206.058 94.664C205.825 94.8227 205.554 94.944 205.246 95.028C204.938 95.1213 204.593 95.168 204.21 95.168ZM204.616 93.964C204.906 93.964 205.172 93.922 205.414 93.838C205.666 93.7447 205.881 93.6187 206.058 93.46C206.236 93.292 206.376 93.096 206.478 92.872C206.581 92.6387 206.632 92.3867 206.632 92.116V91.626C205.988 91.626 205.424 91.6633 204.938 91.738C204.453 91.8127 204.075 91.9527 203.804 92.158C203.534 92.354 203.398 92.6293 203.398 92.984C203.398 93.1987 203.445 93.3807 203.538 93.53C203.632 93.67 203.772 93.7773 203.958 93.852C204.145 93.9267 204.364 93.964 204.616 93.964ZM212.86 95.168C212.262 95.168 211.744 95.0327 211.306 94.762C210.867 94.4913 210.526 94.0713 210.284 93.502C210.05 92.9327 209.934 92.1953 209.934 91.29C209.934 90.4033 210.055 89.68 210.298 89.12C210.54 88.56 210.876 88.1447 211.306 87.874C211.735 87.6033 212.23 87.468 212.79 87.468C213.116 87.468 213.42 87.5053 213.7 87.58C213.98 87.6547 214.227 87.7713 214.442 87.93C214.666 88.0887 214.852 88.2893 215.002 88.532H215.1V84.878H216.556V95H215.366L215.226 93.992H215.128C214.885 94.384 214.563 94.678 214.162 94.874C213.77 95.07 213.336 95.168 212.86 95.168ZM213.266 93.908C213.695 93.908 214.04 93.8147 214.302 93.628C214.572 93.432 214.773 93.152 214.904 92.788C215.034 92.4147 215.1 91.962 215.1 91.43V91.234C215.1 90.786 215.058 90.4033 214.974 90.086C214.89 89.7687 214.768 89.512 214.61 89.316C214.451 89.1107 214.26 88.9613 214.036 88.868C213.812 88.7747 213.56 88.728 213.28 88.728C212.85 88.728 212.5 88.8167 212.23 88.994C211.959 89.162 211.758 89.428 211.628 89.792C211.506 90.156 211.446 90.6273 211.446 91.206V91.458C211.446 92.0367 211.511 92.508 211.642 92.872C211.772 93.2267 211.968 93.488 212.23 93.656C212.5 93.824 212.846 93.908 213.266 93.908ZM221.247 95.168C220.65 95.168 220.132 95.0327 219.693 94.762C219.254 94.4913 218.914 94.0713 218.671 93.502C218.438 92.9327 218.321 92.1953 218.321 91.29C218.321 90.4033 218.442 89.68 218.685 89.12C218.928 88.56 219.264 88.1447 219.693 87.874C220.122 87.6033 220.617 87.468 221.177 87.468C221.504 87.468 221.807 87.5053 222.087 87.58C222.367 87.6547 222.614 87.7713 222.829 87.93C223.053 88.0887 223.24 88.2893 223.389 88.532H223.487V84.878H224.943V95H223.753L223.613 93.992H223.515C223.272 94.384 222.95 94.678 222.549 94.874C222.157 95.07 221.723 95.168 221.247 95.168ZM221.653 93.908C222.082 93.908 222.428 93.8147 222.689 93.628C222.96 93.432 223.16 93.152 223.291 92.788C223.422 92.4147 223.487 91.962 223.487 91.43V91.234C223.487 90.786 223.445 90.4033 223.361 90.086C223.277 89.7687 223.156 89.512 222.997 89.316C222.838 89.1107 222.647 88.9613 222.423 88.868C222.199 88.7747 221.947 88.728 221.667 88.728C221.238 88.728 220.888 88.8167 220.617 88.994C220.346 89.162 220.146 89.428 220.015 89.792C219.894 90.156 219.833 90.6273 219.833 91.206V91.458C219.833 92.0367 219.898 92.508 220.029 92.872C220.16 93.2267 220.356 93.488 220.617 93.656C220.888 93.824 221.233 93.908 221.653 93.908ZM230.252 86.362V84.878H231.708V86.362H230.252ZM230.252 95V87.636H231.708V95H230.252ZM235.702 95.168C235.282 95.168 234.95 95.0887 234.708 94.93C234.474 94.762 234.306 94.552 234.204 94.3C234.11 94.0387 234.064 93.7633 234.064 93.474V88.84H233.14V87.636H234.092L234.358 85.578H235.52V87.636H236.85V88.84H235.52V93.306C235.52 93.5207 235.566 93.684 235.66 93.796C235.753 93.908 235.907 93.964 236.122 93.964H236.85V94.944C236.756 94.9813 236.64 95.014 236.5 95.042C236.369 95.0793 236.234 95.1073 236.094 95.126C235.954 95.154 235.823 95.168 235.702 95.168Z" fill="white"/>
<rect x="20" y="132" width="113" height="36" rx="4" fill="#018270"/>
<rect x="20" y="132" width="113" height="36" rx="4" fill="black" fill-opacity="0.06"/>
<path d="M37.296 155V144.024H39.088V153.448H44.56V155H37.296ZM49.7081 155.192C48.8441 155.192 48.1188 155.037 47.5321 154.728C46.9561 154.408 46.5188 153.923 46.2201 153.272C45.9215 152.621 45.7721 151.795 45.7721 150.792C45.7721 149.779 45.9215 148.952 46.2201 148.312C46.5188 147.661 46.9615 147.181 47.5481 146.872C48.1348 146.552 48.8655 146.392 49.7401 146.392C50.5401 146.392 51.2068 146.547 51.7401 146.856C52.2841 147.155 52.6948 147.613 52.9721 148.232C53.2495 148.851 53.3881 149.629 53.3881 150.568V151.208H47.4841C47.5055 151.805 47.5961 152.307 47.7561 152.712C47.9161 153.107 48.1561 153.4 48.4761 153.592C48.8068 153.773 49.2228 153.864 49.7241 153.864C50.0335 153.864 50.3108 153.827 50.5561 153.752C50.8015 153.667 51.0095 153.549 51.1801 153.4C51.3508 153.24 51.4841 153.053 51.5801 152.84C51.6761 152.616 51.7241 152.365 51.7241 152.088H53.3561C53.3561 152.589 53.2708 153.032 53.1001 153.416C52.9295 153.8 52.6788 154.125 52.3481 154.392C52.0281 154.648 51.6441 154.845 51.1961 154.984C50.7481 155.123 50.2521 155.192 49.7081 155.192ZM47.5161 149.992H51.6441C51.6441 149.576 51.5961 149.229 51.5001 148.952C51.4148 148.664 51.2868 148.429 51.1161 148.248C50.9455 148.067 50.7428 147.939 50.5081 147.864C50.2735 147.779 50.0068 147.736 49.7081 147.736C49.2601 147.736 48.8761 147.816 48.5561 147.976C48.2468 148.136 48.0068 148.387 47.8361 148.728C47.6655 149.059 47.5588 149.48 47.5161 149.992ZM57.4955 155.192C57.0155 155.192 56.6368 155.101 56.3595 154.92C56.0928 154.728 55.9008 154.488 55.7835 154.2C55.6768 153.901 55.6235 153.587 55.6235 153.256V147.96H54.5675V146.584H55.6555L55.9595 144.232H57.2875V146.584H58.8075V147.96H57.2875V153.064C57.2875 153.309 57.3408 153.496 57.4475 153.624C57.5542 153.752 57.7302 153.816 57.9755 153.816H58.8075V154.936C58.7008 154.979 58.5675 155.016 58.4075 155.048C58.2582 155.091 58.1035 155.123 57.9435 155.144C57.7835 155.176 57.6342 155.192 57.4955 155.192ZM60.5945 148.344V147.608C60.8292 147.565 61.0212 147.464 61.1705 147.304C61.3198 147.133 61.4265 146.925 61.4905 146.68C61.5545 146.435 61.5865 146.168 61.5865 145.88H60.7385V144.024H62.5305V145.704C62.5305 146.312 62.4345 146.803 62.2425 147.176C62.0505 147.539 61.8052 147.811 61.5065 147.992C61.2185 148.163 60.9145 148.28 60.5945 148.344ZM67.1904 155.192C66.6037 155.192 66.0864 155.128 65.6384 155C65.1904 154.872 64.817 154.696 64.5184 154.472C64.2197 154.248 63.9904 153.981 63.8304 153.672C63.681 153.352 63.6064 153 63.6064 152.616C63.6064 152.563 63.6064 152.515 63.6064 152.472C63.617 152.429 63.6224 152.392 63.6224 152.36H65.2704C65.2704 152.392 65.2704 152.424 65.2704 152.456C65.2704 152.477 65.2704 152.504 65.2704 152.536C65.2704 152.867 65.361 153.133 65.5424 153.336C65.7237 153.528 65.9637 153.667 66.2624 153.752C66.5717 153.827 66.9077 153.864 67.2704 153.864C67.5904 153.864 67.8837 153.827 68.1504 153.752C68.4277 153.667 68.6517 153.544 68.8224 153.384C69.0037 153.224 69.0944 153.021 69.0944 152.776C69.0944 152.456 68.9824 152.211 68.7584 152.04C68.5344 151.869 68.241 151.736 67.8784 151.64C67.5157 151.533 67.137 151.421 66.7424 151.304C66.3904 151.208 66.0384 151.107 65.6864 151C65.345 150.883 65.0357 150.733 64.7584 150.552C64.481 150.371 64.257 150.141 64.0864 149.864C63.9157 149.587 63.8304 149.24 63.8304 148.824C63.8304 148.429 63.9157 148.083 64.0864 147.784C64.257 147.485 64.4917 147.235 64.7904 147.032C65.0997 146.829 65.4624 146.675 65.8784 146.568C66.305 146.461 66.769 146.408 67.2704 146.408C67.793 146.408 68.257 146.467 68.6624 146.584C69.0677 146.691 69.409 146.845 69.6864 147.048C69.9744 147.251 70.193 147.496 70.3424 147.784C70.4917 148.061 70.5664 148.36 70.5664 148.68C70.5664 148.744 70.561 148.813 70.5504 148.888C70.5504 148.952 70.5504 148.995 70.5504 149.016H68.9184V148.872C68.9184 148.659 68.8597 148.467 68.7424 148.296C68.625 148.125 68.4384 147.987 68.1824 147.88C67.937 147.773 67.6064 147.72 67.1904 147.72C66.913 147.72 66.6677 147.747 66.4544 147.8C66.241 147.843 66.065 147.907 65.9264 147.992C65.7877 148.077 65.681 148.179 65.6064 148.296C65.5424 148.413 65.5104 148.547 65.5104 148.696C65.5104 148.941 65.5957 149.133 65.7664 149.272C65.9477 149.4 66.1824 149.512 66.4704 149.608C66.7584 149.693 67.0677 149.789 67.3984 149.896C67.7824 150.003 68.1717 150.115 68.5664 150.232C68.961 150.339 69.3237 150.477 69.6544 150.648C69.9957 150.819 70.2677 151.053 70.4704 151.352C70.6837 151.651 70.7904 152.051 70.7904 152.552C70.7904 153.011 70.6997 153.411 70.5184 153.752C70.337 154.093 70.081 154.371 69.7504 154.584C69.4304 154.787 69.0517 154.936 68.6144 155.032C68.177 155.139 67.7024 155.192 67.1904 155.192ZM78.5262 155.192C78.2596 155.192 77.9716 155.16 77.6622 155.096C77.3529 155.032 77.0596 154.915 76.7822 154.744C76.5156 154.573 76.2969 154.339 76.1262 154.04C75.9556 153.731 75.8702 153.331 75.8702 152.84C75.8702 152.264 76.0036 151.789 76.2702 151.416C76.5369 151.043 76.9102 150.749 77.3902 150.536C77.8702 150.323 78.4409 150.173 79.1022 150.088C79.7742 150.003 80.5049 149.96 81.2942 149.96V149.128C81.2942 148.851 81.2462 148.605 81.1502 148.392C81.0649 148.179 80.8996 148.013 80.6542 147.896C80.4196 147.779 80.0782 147.72 79.6302 147.72C79.1822 147.72 78.8302 147.779 78.5742 147.896C78.3289 148.003 78.1529 148.141 78.0462 148.312C77.9502 148.472 77.9022 148.648 77.9022 148.84V149.08H76.3022C76.2916 149.027 76.2862 148.973 76.2862 148.92C76.2862 148.867 76.2862 148.803 76.2862 148.728C76.2862 148.227 76.4249 147.805 76.7022 147.464C76.9902 147.112 77.3902 146.845 77.9022 146.664C78.4142 146.483 79.0062 146.392 79.6782 146.392C80.4036 146.392 81.0062 146.499 81.4862 146.712C81.9769 146.915 82.3449 147.208 82.5902 147.592C82.8356 147.976 82.9582 148.44 82.9582 148.984V153.256C82.9582 153.459 83.0062 153.603 83.1022 153.688C83.2089 153.773 83.3316 153.816 83.4702 153.816H84.0462V154.936C83.9182 154.989 83.7582 155.043 83.5662 155.096C83.3742 155.149 83.1502 155.176 82.8942 155.176C82.6062 155.176 82.3609 155.123 82.1582 155.016C81.9662 154.92 81.8062 154.781 81.6782 154.6C81.5609 154.408 81.4809 154.195 81.4382 153.96H81.3422C81.1502 154.205 80.9156 154.424 80.6382 154.616C80.3716 154.797 80.0622 154.936 79.7102 155.032C79.3582 155.139 78.9636 155.192 78.5262 155.192ZM78.9902 153.816C79.3209 153.816 79.6249 153.768 79.9022 153.672C80.1902 153.565 80.4356 153.421 80.6382 153.24C80.8409 153.048 81.0009 152.824 81.1182 152.568C81.2356 152.301 81.2942 152.013 81.2942 151.704V151.144C80.5582 151.144 79.9129 151.187 79.3582 151.272C78.8036 151.357 78.3716 151.517 78.0622 151.752C77.7529 151.976 77.5982 152.291 77.5982 152.696C77.5982 152.941 77.6516 153.149 77.7582 153.32C77.8649 153.48 78.0249 153.603 78.2382 153.688C78.4516 153.773 78.7022 153.816 78.9902 153.816ZM88.4111 155.192C87.7285 155.192 87.1365 155.037 86.6351 154.728C86.1338 154.419 85.7445 153.939 85.4671 153.288C85.2005 152.637 85.0671 151.795 85.0671 150.76C85.0671 149.747 85.2058 148.92 85.4831 148.28C85.7605 147.64 86.1445 147.165 86.6351 146.856C87.1258 146.547 87.6911 146.392 88.3311 146.392C88.7045 146.392 89.0511 146.435 89.3711 146.52C89.6911 146.605 89.9738 146.739 90.2191 146.92C90.4751 147.101 90.6885 147.331 90.8591 147.608H90.9711V143.432H92.6351V155H91.2751L91.1151 153.848H91.0031C90.7258 154.296 90.3578 154.632 89.8991 154.856C89.4511 155.08 88.9551 155.192 88.4111 155.192ZM88.8751 153.752C89.3658 153.752 89.7605 153.645 90.0591 153.432C90.3685 153.208 90.5978 152.888 90.7471 152.472C90.8965 152.045 90.9711 151.528 90.9711 150.92V150.696C90.9711 150.184 90.9231 149.747 90.8271 149.384C90.7311 149.021 90.5925 148.728 90.4111 148.504C90.2298 148.269 90.0111 148.099 89.7551 147.992C89.4991 147.885 89.2111 147.832 88.8911 147.832C88.4005 147.832 88.0005 147.933 87.6911 148.136C87.3818 148.328 87.1525 148.632 87.0031 149.048C86.8645 149.464 86.7951 150.003 86.7951 150.664V150.952C86.7951 151.613 86.8698 152.152 87.0191 152.568C87.1685 152.973 87.3925 153.272 87.6911 153.464C88.0005 153.656 88.3951 153.752 88.8751 153.752ZM97.9968 155.192C97.3141 155.192 96.7221 155.037 96.2208 154.728C95.7194 154.419 95.3301 153.939 95.0528 153.288C94.7861 152.637 94.6528 151.795 94.6528 150.76C94.6528 149.747 94.7914 148.92 95.0688 148.28C95.3461 147.64 95.7301 147.165 96.2208 146.856C96.7114 146.547 97.2768 146.392 97.9168 146.392C98.2901 146.392 98.6368 146.435 98.9568 146.52C99.2768 146.605 99.5594 146.739 99.8048 146.92C100.061 147.101 100.274 147.331 100.445 147.608H100.557V143.432H102.221V155H100.861L100.701 153.848H100.589C100.311 154.296 99.9434 154.632 99.4848 154.856C99.0368 155.08 98.5408 155.192 97.9968 155.192ZM98.4608 153.752C98.9514 153.752 99.3461 153.645 99.6448 153.432C99.9541 153.208 100.183 152.888 100.333 152.472C100.482 152.045 100.557 151.528 100.557 150.92V150.696C100.557 150.184 100.509 149.747 100.413 149.384C100.317 149.021 100.178 148.728 99.9968 148.504C99.8154 148.269 99.5968 148.099 99.3408 147.992C99.0848 147.885 98.7968 147.832 98.4768 147.832C97.9861 147.832 97.5861 147.933 97.2768 148.136C96.9674 148.328 96.7381 148.632 96.5888 149.048C96.4501 149.464 96.3808 150.003 96.3808 150.664V150.952C96.3808 151.613 96.4554 152.152 96.6048 152.568C96.7541 152.973 96.9781 153.272 97.2768 153.464C97.5861 153.656 97.9808 153.752 98.4608 153.752ZM108.288 145.128V143.432H109.952V145.128H108.288ZM108.288 155V146.584H109.952V155H108.288ZM114.516 155.192C114.036 155.192 113.657 155.101 113.38 154.92C113.113 154.728 112.921 154.488 112.804 154.2C112.697 153.901 112.644 153.587 112.644 153.256V147.96H111.588V146.584H112.676L112.98 144.232H114.308V146.584H115.828V147.96H114.308V153.064C114.308 153.309 114.361 153.496 114.468 153.624C114.575 153.752 114.751 153.816 114.996 153.816H115.828V154.936C115.721 154.979 115.588 155.016 115.428 155.048C115.279 155.091 115.124 155.123 114.964 155.144C114.804 155.176 114.655 155.192 114.516 155.192Z" fill="white"/>
<rect x="155" y="132" width="95" height="28" rx="4" fill="#018270"/>
<rect x="155" y="132" width="95" height="28" rx="4" fill="black" fill-opacity="0.06"/>
<path d="M168.134 151V141.396H169.702V149.642H174.49V151H168.134ZM178.995 151.168C178.239 151.168 177.604 151.033 177.091 150.762C176.587 150.482 176.204 150.057 175.943 149.488C175.681 148.919 175.551 148.195 175.551 147.318C175.551 146.431 175.681 145.708 175.943 145.148C176.204 144.579 176.591 144.159 177.105 143.888C177.618 143.608 178.257 143.468 179.023 143.468C179.723 143.468 180.306 143.603 180.773 143.874C181.249 144.135 181.608 144.537 181.851 145.078C182.093 145.619 182.215 146.301 182.215 147.122V147.682H177.049C177.067 148.205 177.147 148.643 177.287 148.998C177.427 149.343 177.637 149.6 177.917 149.768C178.206 149.927 178.57 150.006 179.009 150.006C179.279 150.006 179.522 149.973 179.737 149.908C179.951 149.833 180.133 149.731 180.283 149.6C180.432 149.46 180.549 149.297 180.633 149.11C180.717 148.914 180.759 148.695 180.759 148.452H182.187C182.187 148.891 182.112 149.278 181.963 149.614C181.813 149.95 181.594 150.235 181.305 150.468C181.025 150.692 180.689 150.865 180.297 150.986C179.905 151.107 179.471 151.168 178.995 151.168ZM177.077 146.618H180.689C180.689 146.254 180.647 145.951 180.563 145.708C180.488 145.456 180.376 145.251 180.227 145.092C180.077 144.933 179.9 144.821 179.695 144.756C179.489 144.681 179.256 144.644 178.995 144.644C178.603 144.644 178.267 144.714 177.987 144.854C177.716 144.994 177.506 145.213 177.357 145.512C177.207 145.801 177.114 146.17 177.077 146.618ZM185.809 151.168C185.389 151.168 185.057 151.089 184.815 150.93C184.581 150.762 184.413 150.552 184.311 150.3C184.217 150.039 184.171 149.763 184.171 149.474V144.84H183.247V143.636H184.199L184.465 141.578H185.627V143.636H186.957V144.84H185.627V149.306C185.627 149.521 185.673 149.684 185.767 149.796C185.86 149.908 186.014 149.964 186.229 149.964H186.957V150.944C186.863 150.981 186.747 151.014 186.607 151.042C186.476 151.079 186.341 151.107 186.201 151.126C186.061 151.154 185.93 151.168 185.809 151.168ZM188.52 145.176V144.532C188.726 144.495 188.894 144.406 189.024 144.266C189.155 144.117 189.248 143.935 189.304 143.72C189.36 143.505 189.388 143.272 189.388 143.02H188.646V141.396H190.214V142.866C190.214 143.398 190.13 143.827 189.962 144.154C189.794 144.471 189.58 144.709 189.318 144.868C189.066 145.017 188.8 145.12 188.52 145.176ZM194.292 151.168C193.778 151.168 193.326 151.112 192.934 151C192.542 150.888 192.215 150.734 191.954 150.538C191.692 150.342 191.492 150.109 191.352 149.838C191.221 149.558 191.156 149.25 191.156 148.914C191.156 148.867 191.156 148.825 191.156 148.788C191.165 148.751 191.17 148.718 191.17 148.69H192.612C192.612 148.718 192.612 148.746 192.612 148.774C192.612 148.793 192.612 148.816 192.612 148.844C192.612 149.133 192.691 149.367 192.85 149.544C193.008 149.712 193.218 149.833 193.48 149.908C193.75 149.973 194.044 150.006 194.362 150.006C194.642 150.006 194.898 149.973 195.132 149.908C195.374 149.833 195.57 149.726 195.72 149.586C195.878 149.446 195.958 149.269 195.958 149.054C195.958 148.774 195.86 148.559 195.664 148.41C195.468 148.261 195.211 148.144 194.894 148.06C194.576 147.967 194.245 147.869 193.9 147.766C193.592 147.682 193.284 147.593 192.976 147.5C192.677 147.397 192.406 147.267 192.164 147.108C191.921 146.949 191.725 146.749 191.576 146.506C191.426 146.263 191.352 145.96 191.352 145.596C191.352 145.251 191.426 144.947 191.576 144.686C191.725 144.425 191.93 144.205 192.192 144.028C192.462 143.851 192.78 143.715 193.144 143.622C193.517 143.529 193.923 143.482 194.362 143.482C194.819 143.482 195.225 143.533 195.58 143.636C195.934 143.729 196.233 143.865 196.476 144.042C196.728 144.219 196.919 144.434 197.05 144.686C197.18 144.929 197.246 145.19 197.246 145.47C197.246 145.526 197.241 145.587 197.232 145.652C197.232 145.708 197.232 145.745 197.232 145.764H195.804V145.638C195.804 145.451 195.752 145.283 195.65 145.134C195.547 144.985 195.384 144.863 195.16 144.77C194.945 144.677 194.656 144.63 194.292 144.63C194.049 144.63 193.834 144.653 193.648 144.7C193.461 144.737 193.307 144.793 193.186 144.868C193.064 144.943 192.971 145.031 192.906 145.134C192.85 145.237 192.822 145.353 192.822 145.484C192.822 145.699 192.896 145.867 193.046 145.988C193.204 146.1 193.41 146.198 193.662 146.282C193.914 146.357 194.184 146.441 194.474 146.534C194.81 146.627 195.15 146.725 195.496 146.828C195.841 146.921 196.158 147.043 196.448 147.192C196.746 147.341 196.984 147.547 197.162 147.808C197.348 148.069 197.442 148.419 197.442 148.858C197.442 149.259 197.362 149.609 197.204 149.908C197.045 150.207 196.821 150.449 196.532 150.636C196.252 150.813 195.92 150.944 195.538 151.028C195.155 151.121 194.74 151.168 194.292 151.168ZM204.21 151.168C203.977 151.168 203.725 151.14 203.454 151.084C203.184 151.028 202.927 150.925 202.684 150.776C202.451 150.627 202.26 150.421 202.11 150.16C201.961 149.889 201.886 149.539 201.886 149.11C201.886 148.606 202.003 148.191 202.236 147.864C202.47 147.537 202.796 147.281 203.216 147.094C203.636 146.907 204.136 146.777 204.714 146.702C205.302 146.627 205.942 146.59 206.632 146.59V145.862C206.632 145.619 206.59 145.405 206.506 145.218C206.432 145.031 206.287 144.887 206.072 144.784C205.867 144.681 205.568 144.63 205.176 144.63C204.784 144.63 204.476 144.681 204.252 144.784C204.038 144.877 203.884 144.999 203.79 145.148C203.706 145.288 203.664 145.442 203.664 145.61V145.82H202.264C202.255 145.773 202.25 145.727 202.25 145.68C202.25 145.633 202.25 145.577 202.25 145.512C202.25 145.073 202.372 144.705 202.614 144.406C202.866 144.098 203.216 143.865 203.664 143.706C204.112 143.547 204.63 143.468 205.218 143.468C205.853 143.468 206.38 143.561 206.8 143.748C207.23 143.925 207.552 144.182 207.766 144.518C207.981 144.854 208.088 145.26 208.088 145.736V149.474C208.088 149.651 208.13 149.777 208.214 149.852C208.308 149.927 208.415 149.964 208.536 149.964H209.04V150.944C208.928 150.991 208.788 151.037 208.62 151.084C208.452 151.131 208.256 151.154 208.032 151.154C207.78 151.154 207.566 151.107 207.388 151.014C207.22 150.93 207.08 150.809 206.968 150.65C206.866 150.482 206.796 150.295 206.758 150.09H206.674C206.506 150.305 206.301 150.496 206.058 150.664C205.825 150.823 205.554 150.944 205.246 151.028C204.938 151.121 204.593 151.168 204.21 151.168ZM204.616 149.964C204.906 149.964 205.172 149.922 205.414 149.838C205.666 149.745 205.881 149.619 206.058 149.46C206.236 149.292 206.376 149.096 206.478 148.872C206.581 148.639 206.632 148.387 206.632 148.116V147.626C205.988 147.626 205.424 147.663 204.938 147.738C204.453 147.813 204.075 147.953 203.804 148.158C203.534 148.354 203.398 148.629 203.398 148.984C203.398 149.199 203.445 149.381 203.538 149.53C203.632 149.67 203.772 149.777 203.958 149.852C204.145 149.927 204.364 149.964 204.616 149.964ZM212.86 151.168C212.262 151.168 211.744 151.033 211.306 150.762C210.867 150.491 210.526 150.071 210.284 149.502C210.05 148.933 209.934 148.195 209.934 147.29C209.934 146.403 210.055 145.68 210.298 145.12C210.54 144.56 210.876 144.145 211.306 143.874C211.735 143.603 212.23 143.468 212.79 143.468C213.116 143.468 213.42 143.505 213.7 143.58C213.98 143.655 214.227 143.771 214.442 143.93C214.666 144.089 214.852 144.289 215.002 144.532H215.1V140.878H216.556V151H215.366L215.226 149.992H215.128C214.885 150.384 214.563 150.678 214.162 150.874C213.77 151.07 213.336 151.168 212.86 151.168ZM213.266 149.908C213.695 149.908 214.04 149.815 214.302 149.628C214.572 149.432 214.773 149.152 214.904 148.788C215.034 148.415 215.1 147.962 215.1 147.43V147.234C215.1 146.786 215.058 146.403 214.974 146.086C214.89 145.769 214.768 145.512 214.61 145.316C214.451 145.111 214.26 144.961 214.036 144.868C213.812 144.775 213.56 144.728 213.28 144.728C212.85 144.728 212.5 144.817 212.23 144.994C211.959 145.162 211.758 145.428 211.628 145.792C211.506 146.156 211.446 146.627 211.446 147.206V147.458C211.446 148.037 211.511 148.508 211.642 148.872C211.772 149.227 211.968 149.488 212.23 149.656C212.5 149.824 212.846 149.908 213.266 149.908ZM221.247 151.168C220.65 151.168 220.132 151.033 219.693 150.762C219.254 150.491 218.914 150.071 218.671 149.502C218.438 148.933 218.321 148.195 218.321 147.29C218.321 146.403 218.442 145.68 218.685 145.12C218.928 144.56 219.264 144.145 219.693 143.874C220.122 143.603 220.617 143.468 221.177 143.468C221.504 143.468 221.807 143.505 222.087 143.58C222.367 143.655 222.614 143.771 222.829 143.93C223.053 144.089 223.24 144.289 223.389 144.532H223.487V140.878H224.943V151H223.753L223.613 149.992H223.515C223.272 150.384 222.95 150.678 222.549 150.874C222.157 151.07 221.723 151.168 221.247 151.168ZM221.653 149.908C222.082 149.908 222.428 149.815 222.689 149.628C222.96 149.432 223.16 149.152 223.291 148.788C223.422 148.415 223.487 147.962 223.487 147.43V147.234C223.487 146.786 223.445 146.403 223.361 146.086C223.277 145.769 223.156 145.512 222.997 145.316C222.838 145.111 222.647 144.961 222.423 144.868C222.199 144.775 221.947 144.728 221.667 144.728C221.238 144.728 220.888 144.817 220.617 144.994C220.346 145.162 220.146 145.428 220.015 145.792C219.894 146.156 219.833 146.627 219.833 147.206V147.458C219.833 148.037 219.898 148.508 220.029 148.872C220.16 149.227 220.356 149.488 220.617 149.656C220.888 149.824 221.233 149.908 221.653 149.908ZM230.252 142.362V140.878H231.708V142.362H230.252ZM230.252 151V143.636H231.708V151H230.252ZM235.702 151.168C235.282 151.168 234.95 151.089 234.708 150.93C234.474 150.762 234.306 150.552 234.204 150.3C234.11 150.039 234.064 149.763 234.064 149.474V144.84H233.14V143.636H234.092L234.358 141.578H235.52V143.636H236.85V144.84H235.52V149.306C235.52 149.521 235.566 149.684 235.66 149.796C235.753 149.908 235.907 149.964 236.122 149.964H236.85V150.944C236.756 150.981 236.64 151.014 236.5 151.042C236.369 151.079 236.234 151.107 236.094 151.126C235.954 151.154 235.823 151.168 235.702 151.168Z" fill="white"/>
<rect x="20" y="188" width="113" height="36" rx="4" fill="#018270"/>
<rect x="20" y="188" width="113" height="36" rx="4" fill="white" fill-opacity="0.5"/>
<path d="M37.296 211V200.024H39.088V209.448H44.56V211H37.296ZM49.7081 211.192C48.8441 211.192 48.1188 211.037 47.5321 210.728C46.9561 210.408 46.5188 209.923 46.2201 209.272C45.9215 208.621 45.7721 207.795 45.7721 206.792C45.7721 205.779 45.9215 204.952 46.2201 204.312C46.5188 203.661 46.9615 203.181 47.5481 202.872C48.1348 202.552 48.8655 202.392 49.7401 202.392C50.5401 202.392 51.2068 202.547 51.7401 202.856C52.2841 203.155 52.6948 203.613 52.9721 204.232C53.2495 204.851 53.3881 205.629 53.3881 206.568V207.208H47.4841C47.5055 207.805 47.5961 208.307 47.7561 208.712C47.9161 209.107 48.1561 209.4 48.4761 209.592C48.8068 209.773 49.2228 209.864 49.7241 209.864C50.0335 209.864 50.3108 209.827 50.5561 209.752C50.8015 209.667 51.0095 209.549 51.1801 209.4C51.3508 209.24 51.4841 209.053 51.5801 208.84C51.6761 208.616 51.7241 208.365 51.7241 208.088H53.3561C53.3561 208.589 53.2708 209.032 53.1001 209.416C52.9295 209.8 52.6788 210.125 52.3481 210.392C52.0281 210.648 51.6441 210.845 51.1961 210.984C50.7481 211.123 50.2521 211.192 49.7081 211.192ZM47.5161 205.992H51.6441C51.6441 205.576 51.5961 205.229 51.5001 204.952C51.4148 204.664 51.2868 204.429 51.1161 204.248C50.9455 204.067 50.7428 203.939 50.5081 203.864C50.2735 203.779 50.0068 203.736 49.7081 203.736C49.2601 203.736 48.8761 203.816 48.5561 203.976C48.2468 204.136 48.0068 204.387 47.8361 204.728C47.6655 205.059 47.5588 205.48 47.5161 205.992ZM57.4955 211.192C57.0155 211.192 56.6368 211.101 56.3595 210.92C56.0928 210.728 55.9008 210.488 55.7835 210.2C55.6768 209.901 55.6235 209.587 55.6235 209.256V203.96H54.5675V202.584H55.6555L55.9595 200.232H57.2875V202.584H58.8075V203.96H57.2875V209.064C57.2875 209.309 57.3408 209.496 57.4475 209.624C57.5542 209.752 57.7302 209.816 57.9755 209.816H58.8075V210.936C58.7008 210.979 58.5675 211.016 58.4075 211.048C58.2582 211.091 58.1035 211.123 57.9435 211.144C57.7835 211.176 57.6342 211.192 57.4955 211.192ZM60.5945 204.344V203.608C60.8292 203.565 61.0212 203.464 61.1705 203.304C61.3198 203.133 61.4265 202.925 61.4905 202.68C61.5545 202.435 61.5865 202.168 61.5865 201.88H60.7385V200.024H62.5305V201.704C62.5305 202.312 62.4345 202.803 62.2425 203.176C62.0505 203.539 61.8052 203.811 61.5065 203.992C61.2185 204.163 60.9145 204.28 60.5945 204.344ZM67.1904 211.192C66.6037 211.192 66.0864 211.128 65.6384 211C65.1904 210.872 64.817 210.696 64.5184 210.472C64.2197 210.248 63.9904 209.981 63.8304 209.672C63.681 209.352 63.6064 209 63.6064 208.616C63.6064 208.563 63.6064 208.515 63.6064 208.472C63.617 208.429 63.6224 208.392 63.6224 208.36H65.2704C65.2704 208.392 65.2704 208.424 65.2704 208.456C65.2704 208.477 65.2704 208.504 65.2704 208.536C65.2704 208.867 65.361 209.133 65.5424 209.336C65.7237 209.528 65.9637 209.667 66.2624 209.752C66.5717 209.827 66.9077 209.864 67.2704 209.864C67.5904 209.864 67.8837 209.827 68.1504 209.752C68.4277 209.667 68.6517 209.544 68.8224 209.384C69.0037 209.224 69.0944 209.021 69.0944 208.776C69.0944 208.456 68.9824 208.211 68.7584 208.04C68.5344 207.869 68.241 207.736 67.8784 207.64C67.5157 207.533 67.137 207.421 66.7424 207.304C66.3904 207.208 66.0384 207.107 65.6864 207C65.345 206.883 65.0357 206.733 64.7584 206.552C64.481 206.371 64.257 206.141 64.0864 205.864C63.9157 205.587 63.8304 205.24 63.8304 204.824C63.8304 204.429 63.9157 204.083 64.0864 203.784C64.257 203.485 64.4917 203.235 64.7904 203.032C65.0997 202.829 65.4624 202.675 65.8784 202.568C66.305 202.461 66.769 202.408 67.2704 202.408C67.793 202.408 68.257 202.467 68.6624 202.584C69.0677 202.691 69.409 202.845 69.6864 203.048C69.9744 203.251 70.193 203.496 70.3424 203.784C70.4917 204.061 70.5664 204.36 70.5664 204.68C70.5664 204.744 70.561 204.813 70.5504 204.888C70.5504 204.952 70.5504 204.995 70.5504 205.016H68.9184V204.872C68.9184 204.659 68.8597 204.467 68.7424 204.296C68.625 204.125 68.4384 203.987 68.1824 203.88C67.937 203.773 67.6064 203.72 67.1904 203.72C66.913 203.72 66.6677 203.747 66.4544 203.8C66.241 203.843 66.065 203.907 65.9264 203.992C65.7877 204.077 65.681 204.179 65.6064 204.296C65.5424 204.413 65.5104 204.547 65.5104 204.696C65.5104 204.941 65.5957 205.133 65.7664 205.272C65.9477 205.4 66.1824 205.512 66.4704 205.608C66.7584 205.693 67.0677 205.789 67.3984 205.896C67.7824 206.003 68.1717 206.115 68.5664 206.232C68.961 206.339 69.3237 206.477 69.6544 206.648C69.9957 206.819 70.2677 207.053 70.4704 207.352C70.6837 207.651 70.7904 208.051 70.7904 208.552C70.7904 209.011 70.6997 209.411 70.5184 209.752C70.337 210.093 70.081 210.371 69.7504 210.584C69.4304 210.787 69.0517 210.936 68.6144 211.032C68.177 211.139 67.7024 211.192 67.1904 211.192ZM78.5262 211.192C78.2596 211.192 77.9716 211.16 77.6622 211.096C77.3529 211.032 77.0596 210.915 76.7822 210.744C76.5156 210.573 76.2969 210.339 76.1262 210.04C75.9556 209.731 75.8702 209.331 75.8702 208.84C75.8702 208.264 76.0036 207.789 76.2702 207.416C76.5369 207.043 76.9102 206.749 77.3902 206.536C77.8702 206.323 78.4409 206.173 79.1022 206.088C79.7742 206.003 80.5049 205.96 81.2942 205.96V205.128C81.2942 204.851 81.2462 204.605 81.1502 204.392C81.0649 204.179 80.8996 204.013 80.6542 203.896C80.4196 203.779 80.0782 203.72 79.6302 203.72C79.1822 203.72 78.8302 203.779 78.5742 203.896C78.3289 204.003 78.1529 204.141 78.0462 204.312C77.9502 204.472 77.9022 204.648 77.9022 204.84V205.08H76.3022C76.2916 205.027 76.2862 204.973 76.2862 204.92C76.2862 204.867 76.2862 204.803 76.2862 204.728C76.2862 204.227 76.4249 203.805 76.7022 203.464C76.9902 203.112 77.3902 202.845 77.9022 202.664C78.4142 202.483 79.0062 202.392 79.6782 202.392C80.4036 202.392 81.0062 202.499 81.4862 202.712C81.9769 202.915 82.3449 203.208 82.5902 203.592C82.8356 203.976 82.9582 204.44 82.9582 204.984V209.256C82.9582 209.459 83.0062 209.603 83.1022 209.688C83.2089 209.773 83.3316 209.816 83.4702 209.816H84.0462V210.936C83.9182 210.989 83.7582 211.043 83.5662 211.096C83.3742 211.149 83.1502 211.176 82.8942 211.176C82.6062 211.176 82.3609 211.123 82.1582 211.016C81.9662 210.92 81.8062 210.781 81.6782 210.6C81.5609 210.408 81.4809 210.195 81.4382 209.96H81.3422C81.1502 210.205 80.9156 210.424 80.6382 210.616C80.3716 210.797 80.0622 210.936 79.7102 211.032C79.3582 211.139 78.9636 211.192 78.5262 211.192ZM78.9902 209.816C79.3209 209.816 79.6249 209.768 79.9022 209.672C80.1902 209.565 80.4356 209.421 80.6382 209.24C80.8409 209.048 81.0009 208.824 81.1182 208.568C81.2356 208.301 81.2942 208.013 81.2942 207.704V207.144C80.5582 207.144 79.9129 207.187 79.3582 207.272C78.8036 207.357 78.3716 207.517 78.0622 207.752C77.7529 207.976 77.5982 208.291 77.5982 208.696C77.5982 208.941 77.6516 209.149 77.7582 209.32C77.8649 209.48 78.0249 209.603 78.2382 209.688C78.4516 209.773 78.7022 209.816 78.9902 209.816ZM88.4111 211.192C87.7285 211.192 87.1365 211.037 86.6351 210.728C86.1338 210.419 85.7445 209.939 85.4671 209.288C85.2005 208.637 85.0671 207.795 85.0671 206.76C85.0671 205.747 85.2058 204.92 85.4831 204.28C85.7605 203.64 86.1445 203.165 86.6351 202.856C87.1258 202.547 87.6911 202.392 88.3311 202.392C88.7045 202.392 89.0511 202.435 89.3711 202.52C89.6911 202.605 89.9738 202.739 90.2191 202.92C90.4751 203.101 90.6885 203.331 90.8591 203.608H90.9711V199.432H92.6351V211H91.2751L91.1151 209.848H91.0031C90.7258 210.296 90.3578 210.632 89.8991 210.856C89.4511 211.08 88.9551 211.192 88.4111 211.192ZM88.8751 209.752C89.3658 209.752 89.7605 209.645 90.0591 209.432C90.3685 209.208 90.5978 208.888 90.7471 208.472C90.8965 208.045 90.9711 207.528 90.9711 206.92V206.696C90.9711 206.184 90.9231 205.747 90.8271 205.384C90.7311 205.021 90.5925 204.728 90.4111 204.504C90.2298 204.269 90.0111 204.099 89.7551 203.992C89.4991 203.885 89.2111 203.832 88.8911 203.832C88.4005 203.832 88.0005 203.933 87.6911 204.136C87.3818 204.328 87.1525 204.632 87.0031 205.048C86.8645 205.464 86.7951 206.003 86.7951 206.664V206.952C86.7951 207.613 86.8698 208.152 87.0191 208.568C87.1685 208.973 87.3925 209.272 87.6911 209.464C88.0005 209.656 88.3951 209.752 88.8751 209.752ZM97.9968 211.192C97.3141 211.192 96.7221 211.037 96.2208 210.728C95.7194 210.419 95.3301 209.939 95.0528 209.288C94.7861 208.637 94.6528 207.795 94.6528 206.76C94.6528 205.747 94.7914 204.92 95.0688 204.28C95.3461 203.64 95.7301 203.165 96.2208 202.856C96.7114 202.547 97.2768 202.392 97.9168 202.392C98.2901 202.392 98.6368 202.435 98.9568 202.52C99.2768 202.605 99.5594 202.739 99.8048 202.92C100.061 203.101 100.274 203.331 100.445 203.608H100.557V199.432H102.221V211H100.861L100.701 209.848H100.589C100.311 210.296 99.9434 210.632 99.4848 210.856C99.0368 211.08 98.5408 211.192 97.9968 211.192ZM98.4608 209.752C98.9514 209.752 99.3461 209.645 99.6448 209.432C99.9541 209.208 100.183 208.888 100.333 208.472C100.482 208.045 100.557 207.528 100.557 206.92V206.696C100.557 206.184 100.509 205.747 100.413 205.384C100.317 205.021 100.178 204.728 99.9968 204.504C99.8154 204.269 99.5968 204.099 99.3408 203.992C99.0848 203.885 98.7968 203.832 98.4768 203.832C97.9861 203.832 97.5861 203.933 97.2768 204.136C96.9674 204.328 96.7381 204.632 96.5888 205.048C96.4501 205.464 96.3808 206.003 96.3808 206.664V206.952C96.3808 207.613 96.4554 208.152 96.6048 208.568C96.7541 208.973 96.9781 209.272 97.2768 209.464C97.5861 209.656 97.9808 209.752 98.4608 209.752ZM108.288 201.128V199.432H109.952V201.128H108.288ZM108.288 211V202.584H109.952V211H108.288ZM114.516 211.192C114.036 211.192 113.657 211.101 113.38 210.92C113.113 210.728 112.921 210.488 112.804 210.2C112.697 209.901 112.644 209.587 112.644 209.256V203.96H111.588V202.584H112.676L112.98 200.232H114.308V202.584H115.828V203.96H114.308V209.064C114.308 209.309 114.361 209.496 114.468 209.624C114.575 209.752 114.751 209.816 114.996 209.816H115.828V210.936C115.721 210.979 115.588 211.016 115.428 211.048C115.279 211.091 115.124 211.123 114.964 211.144C114.804 211.176 114.655 211.192 114.516 211.192Z" fill="white"/>
<rect x="155" y="188" width="95" height="28" rx="4" fill="#018270"/>
<rect x="155" y="188" width="95" height="28" rx="4" fill="white" fill-opacity="0.5"/>
<path d="M168.134 207V197.396H169.702V205.642H174.49V207H168.134ZM178.995 207.168C178.239 207.168 177.604 207.033 177.091 206.762C176.587 206.482 176.204 206.057 175.943 205.488C175.681 204.919 175.551 204.195 175.551 203.318C175.551 202.431 175.681 201.708 175.943 201.148C176.204 200.579 176.591 200.159 177.105 199.888C177.618 199.608 178.257 199.468 179.023 199.468C179.723 199.468 180.306 199.603 180.773 199.874C181.249 200.135 181.608 200.537 181.851 201.078C182.093 201.619 182.215 202.301 182.215 203.122V203.682H177.049C177.067 204.205 177.147 204.643 177.287 204.998C177.427 205.343 177.637 205.6 177.917 205.768C178.206 205.927 178.57 206.006 179.009 206.006C179.279 206.006 179.522 205.973 179.737 205.908C179.951 205.833 180.133 205.731 180.283 205.6C180.432 205.46 180.549 205.297 180.633 205.11C180.717 204.914 180.759 204.695 180.759 204.452H182.187C182.187 204.891 182.112 205.278 181.963 205.614C181.813 205.95 181.594 206.235 181.305 206.468C181.025 206.692 180.689 206.865 180.297 206.986C179.905 207.107 179.471 207.168 178.995 207.168ZM177.077 202.618H180.689C180.689 202.254 180.647 201.951 180.563 201.708C180.488 201.456 180.376 201.251 180.227 201.092C180.077 200.933 179.9 200.821 179.695 200.756C179.489 200.681 179.256 200.644 178.995 200.644C178.603 200.644 178.267 200.714 177.987 200.854C177.716 200.994 177.506 201.213 177.357 201.512C177.207 201.801 177.114 202.17 177.077 202.618ZM185.809 207.168C185.389 207.168 185.057 207.089 184.815 206.93C184.581 206.762 184.413 206.552 184.311 206.3C184.217 206.039 184.171 205.763 184.171 205.474V200.84H183.247V199.636H184.199L184.465 197.578H185.627V199.636H186.957V200.84H185.627V205.306C185.627 205.521 185.673 205.684 185.767 205.796C185.86 205.908 186.014 205.964 186.229 205.964H186.957V206.944C186.863 206.981 186.747 207.014 186.607 207.042C186.476 207.079 186.341 207.107 186.201 207.126C186.061 207.154 185.93 207.168 185.809 207.168ZM188.52 201.176V200.532C188.726 200.495 188.894 200.406 189.024 200.266C189.155 200.117 189.248 199.935 189.304 199.72C189.36 199.505 189.388 199.272 189.388 199.02H188.646V197.396H190.214V198.866C190.214 199.398 190.13 199.827 189.962 200.154C189.794 200.471 189.58 200.709 189.318 200.868C189.066 201.017 188.8 201.12 188.52 201.176ZM194.292 207.168C193.778 207.168 193.326 207.112 192.934 207C192.542 206.888 192.215 206.734 191.954 206.538C191.692 206.342 191.492 206.109 191.352 205.838C191.221 205.558 191.156 205.25 191.156 204.914C191.156 204.867 191.156 204.825 191.156 204.788C191.165 204.751 191.17 204.718 191.17 204.69H192.612C192.612 204.718 192.612 204.746 192.612 204.774C192.612 204.793 192.612 204.816 192.612 204.844C192.612 205.133 192.691 205.367 192.85 205.544C193.008 205.712 193.218 205.833 193.48 205.908C193.75 205.973 194.044 206.006 194.362 206.006C194.642 206.006 194.898 205.973 195.132 205.908C195.374 205.833 195.57 205.726 195.72 205.586C195.878 205.446 195.958 205.269 195.958 205.054C195.958 204.774 195.86 204.559 195.664 204.41C195.468 204.261 195.211 204.144 194.894 204.06C194.576 203.967 194.245 203.869 193.9 203.766C193.592 203.682 193.284 203.593 192.976 203.5C192.677 203.397 192.406 203.267 192.164 203.108C191.921 202.949 191.725 202.749 191.576 202.506C191.426 202.263 191.352 201.96 191.352 201.596C191.352 201.251 191.426 200.947 191.576 200.686C191.725 200.425 191.93 200.205 192.192 200.028C192.462 199.851 192.78 199.715 193.144 199.622C193.517 199.529 193.923 199.482 194.362 199.482C194.819 199.482 195.225 199.533 195.58 199.636C195.934 199.729 196.233 199.865 196.476 200.042C196.728 200.219 196.919 200.434 197.05 200.686C197.18 200.929 197.246 201.19 197.246 201.47C197.246 201.526 197.241 201.587 197.232 201.652C197.232 201.708 197.232 201.745 197.232 201.764H195.804V201.638C195.804 201.451 195.752 201.283 195.65 201.134C195.547 200.985 195.384 200.863 195.16 200.77C194.945 200.677 194.656 200.63 194.292 200.63C194.049 200.63 193.834 200.653 193.648 200.7C193.461 200.737 193.307 200.793 193.186 200.868C193.064 200.943 192.971 201.031 192.906 201.134C192.85 201.237 192.822 201.353 192.822 201.484C192.822 201.699 192.896 201.867 193.046 201.988C193.204 202.1 193.41 202.198 193.662 202.282C193.914 202.357 194.184 202.441 194.474 202.534C194.81 202.627 195.15 202.725 195.496 202.828C195.841 202.921 196.158 203.043 196.448 203.192C196.746 203.341 196.984 203.547 197.162 203.808C197.348 204.069 197.442 204.419 197.442 204.858C197.442 205.259 197.362 205.609 197.204 205.908C197.045 206.207 196.821 206.449 196.532 206.636C196.252 206.813 195.92 206.944 195.538 207.028C195.155 207.121 194.74 207.168 194.292 207.168ZM204.21 207.168C203.977 207.168 203.725 207.14 203.454 207.084C203.184 207.028 202.927 206.925 202.684 206.776C202.451 206.627 202.26 206.421 202.11 206.16C201.961 205.889 201.886 205.539 201.886 205.11C201.886 204.606 202.003 204.191 202.236 203.864C202.47 203.537 202.796 203.281 203.216 203.094C203.636 202.907 204.136 202.777 204.714 202.702C205.302 202.627 205.942 202.59 206.632 202.59V201.862C206.632 201.619 206.59 201.405 206.506 201.218C206.432 201.031 206.287 200.887 206.072 200.784C205.867 200.681 205.568 200.63 205.176 200.63C204.784 200.63 204.476 200.681 204.252 200.784C204.038 200.877 203.884 200.999 203.79 201.148C203.706 201.288 203.664 201.442 203.664 201.61V201.82H202.264C202.255 201.773 202.25 201.727 202.25 201.68C202.25 201.633 202.25 201.577 202.25 201.512C202.25 201.073 202.372 200.705 202.614 200.406C202.866 200.098 203.216 199.865 203.664 199.706C204.112 199.547 204.63 199.468 205.218 199.468C205.853 199.468 206.38 199.561 206.8 199.748C207.23 199.925 207.552 200.182 207.766 200.518C207.981 200.854 208.088 201.26 208.088 201.736V205.474C208.088 205.651 208.13 205.777 208.214 205.852C208.308 205.927 208.415 205.964 208.536 205.964H209.04V206.944C208.928 206.991 208.788 207.037 208.62 207.084C208.452 207.131 208.256 207.154 208.032 207.154C207.78 207.154 207.566 207.107 207.388 207.014C207.22 206.93 207.08 206.809 206.968 206.65C206.866 206.482 206.796 206.295 206.758 206.09H206.674C206.506 206.305 206.301 206.496 206.058 206.664C205.825 206.823 205.554 206.944 205.246 207.028C204.938 207.121 204.593 207.168 204.21 207.168ZM204.616 205.964C204.906 205.964 205.172 205.922 205.414 205.838C205.666 205.745 205.881 205.619 206.058 205.46C206.236 205.292 206.376 205.096 206.478 204.872C206.581 204.639 206.632 204.387 206.632 204.116V203.626C205.988 203.626 205.424 203.663 204.938 203.738C204.453 203.813 204.075 203.953 203.804 204.158C203.534 204.354 203.398 204.629 203.398 204.984C203.398 205.199 203.445 205.381 203.538 205.53C203.632 205.67 203.772 205.777 203.958 205.852C204.145 205.927 204.364 205.964 204.616 205.964ZM212.86 207.168C212.262 207.168 211.744 207.033 211.306 206.762C210.867 206.491 210.526 206.071 210.284 205.502C210.05 204.933 209.934 204.195 209.934 203.29C209.934 202.403 210.055 201.68 210.298 201.12C210.54 200.56 210.876 200.145 211.306 199.874C211.735 199.603 212.23 199.468 212.79 199.468C213.116 199.468 213.42 199.505 213.7 199.58C213.98 199.655 214.227 199.771 214.442 199.93C214.666 200.089 214.852 200.289 215.002 200.532H215.1V196.878H216.556V207H215.366L215.226 205.992H215.128C214.885 206.384 214.563 206.678 214.162 206.874C213.77 207.07 213.336 207.168 212.86 207.168ZM213.266 205.908C213.695 205.908 214.04 205.815 214.302 205.628C214.572 205.432 214.773 205.152 214.904 204.788C215.034 204.415 215.1 203.962 215.1 203.43V203.234C215.1 202.786 215.058 202.403 214.974 202.086C214.89 201.769 214.768 201.512 214.61 201.316C214.451 201.111 214.26 200.961 214.036 200.868C213.812 200.775 213.56 200.728 213.28 200.728C212.85 200.728 212.5 200.817 212.23 200.994C211.959 201.162 211.758 201.428 211.628 201.792C211.506 202.156 211.446 202.627 211.446 203.206V203.458C211.446 204.037 211.511 204.508 211.642 204.872C211.772 205.227 211.968 205.488 212.23 205.656C212.5 205.824 212.846 205.908 213.266 205.908ZM221.247 207.168C220.65 207.168 220.132 207.033 219.693 206.762C219.254 206.491 218.914 206.071 218.671 205.502C218.438 204.933 218.321 204.195 218.321 203.29C218.321 202.403 218.442 201.68 218.685 201.12C218.928 200.56 219.264 200.145 219.693 199.874C220.122 199.603 220.617 199.468 221.177 199.468C221.504 199.468 221.807 199.505 222.087 199.58C222.367 199.655 222.614 199.771 222.829 199.93C223.053 200.089 223.24 200.289 223.389 200.532H223.487V196.878H224.943V207H223.753L223.613 205.992H223.515C223.272 206.384 222.95 206.678 222.549 206.874C222.157 207.07 221.723 207.168 221.247 207.168ZM221.653 205.908C222.082 205.908 222.428 205.815 222.689 205.628C222.96 205.432 223.16 205.152 223.291 204.788C223.422 204.415 223.487 203.962 223.487 203.43V203.234C223.487 202.786 223.445 202.403 223.361 202.086C223.277 201.769 223.156 201.512 222.997 201.316C222.838 201.111 222.647 200.961 222.423 200.868C222.199 200.775 221.947 200.728 221.667 200.728C221.238 200.728 220.888 200.817 220.617 200.994C220.346 201.162 220.146 201.428 220.015 201.792C219.894 202.156 219.833 202.627 219.833 203.206V203.458C219.833 204.037 219.898 204.508 220.029 204.872C220.16 205.227 220.356 205.488 220.617 205.656C220.888 205.824 221.233 205.908 221.653 205.908ZM230.252 198.362V196.878H231.708V198.362H230.252ZM230.252 207V199.636H231.708V207H230.252ZM235.702 207.168C235.282 207.168 234.95 207.089 234.708 206.93C234.474 206.762 234.306 206.552 234.204 206.3C234.11 206.039 234.064 205.763 234.064 205.474V200.84H233.14V199.636H234.092L234.358 197.578H235.52V199.636H236.85V200.84H235.52V205.306C235.52 205.521 235.566 205.684 235.66 205.796C235.753 205.908 235.907 205.964 236.122 205.964H236.85V206.944C236.756 206.981 236.64 207.014 236.5 207.042C236.369 207.079 236.234 207.107 236.094 207.126C235.954 207.154 235.823 207.168 235.702 207.168Z" fill="white"/>
<rect x="20.5" y="244.5" width="112" height="35" rx="3.5" stroke="#D2D7D6"/>
<path d="M37.296 267V256.024H39.088V265.448H44.56V267H37.296ZM49.7081 267.192C48.8441 267.192 48.1188 267.037 47.5321 266.728C46.9561 266.408 46.5188 265.923 46.2201 265.272C45.9215 264.621 45.7721 263.795 45.7721 262.792C45.7721 261.779 45.9215 260.952 46.2201 260.312C46.5188 259.661 46.9615 259.181 47.5481 258.872C48.1348 258.552 48.8655 258.392 49.7401 258.392C50.5401 258.392 51.2068 258.547 51.7401 258.856C52.2841 259.155 52.6948 259.613 52.9721 260.232C53.2495 260.851 53.3881 261.629 53.3881 262.568V263.208H47.4841C47.5055 263.805 47.5961 264.307 47.7561 264.712C47.9161 265.107 48.1561 265.4 48.4761 265.592C48.8068 265.773 49.2228 265.864 49.7241 265.864C50.0335 265.864 50.3108 265.827 50.5561 265.752C50.8015 265.667 51.0095 265.549 51.1801 265.4C51.3508 265.24 51.4841 265.053 51.5801 264.84C51.6761 264.616 51.7241 264.365 51.7241 264.088H53.3561C53.3561 264.589 53.2708 265.032 53.1001 265.416C52.9295 265.8 52.6788 266.125 52.3481 266.392C52.0281 266.648 51.6441 266.845 51.1961 266.984C50.7481 267.123 50.2521 267.192 49.7081 267.192ZM47.5161 261.992H51.6441C51.6441 261.576 51.5961 261.229 51.5001 260.952C51.4148 260.664 51.2868 260.429 51.1161 260.248C50.9455 260.067 50.7428 259.939 50.5081 259.864C50.2735 259.779 50.0068 259.736 49.7081 259.736C49.2601 259.736 48.8761 259.816 48.5561 259.976C48.2468 260.136 48.0068 260.387 47.8361 260.728C47.6655 261.059 47.5588 261.48 47.5161 261.992ZM57.4955 267.192C57.0155 267.192 56.6368 267.101 56.3595 266.92C56.0928 266.728 55.9008 266.488 55.7835 266.2C55.6768 265.901 55.6235 265.587 55.6235 265.256V259.96H54.5675V258.584H55.6555L55.9595 256.232H57.2875V258.584H58.8075V259.96H57.2875V265.064C57.2875 265.309 57.3408 265.496 57.4475 265.624C57.5542 265.752 57.7302 265.816 57.9755 265.816H58.8075V266.936C58.7008 266.979 58.5675 267.016 58.4075 267.048C58.2582 267.091 58.1035 267.123 57.9435 267.144C57.7835 267.176 57.6342 267.192 57.4955 267.192ZM60.5945 260.344V259.608C60.8292 259.565 61.0212 259.464 61.1705 259.304C61.3198 259.133 61.4265 258.925 61.4905 258.68C61.5545 258.435 61.5865 258.168 61.5865 257.88H60.7385V256.024H62.5305V257.704C62.5305 258.312 62.4345 258.803 62.2425 259.176C62.0505 259.539 61.8052 259.811 61.5065 259.992C61.2185 260.163 60.9145 260.28 60.5945 260.344ZM67.1904 267.192C66.6037 267.192 66.0864 267.128 65.6384 267C65.1904 266.872 64.817 266.696 64.5184 266.472C64.2197 266.248 63.9904 265.981 63.8304 265.672C63.681 265.352 63.6064 265 63.6064 264.616C63.6064 264.563 63.6064 264.515 63.6064 264.472C63.617 264.429 63.6224 264.392 63.6224 264.36H65.2704C65.2704 264.392 65.2704 264.424 65.2704 264.456C65.2704 264.477 65.2704 264.504 65.2704 264.536C65.2704 264.867 65.361 265.133 65.5424 265.336C65.7237 265.528 65.9637 265.667 66.2624 265.752C66.5717 265.827 66.9077 265.864 67.2704 265.864C67.5904 265.864 67.8837 265.827 68.1504 265.752C68.4277 265.667 68.6517 265.544 68.8224 265.384C69.0037 265.224 69.0944 265.021 69.0944 264.776C69.0944 264.456 68.9824 264.211 68.7584 264.04C68.5344 263.869 68.241 263.736 67.8784 263.64C67.5157 263.533 67.137 263.421 66.7424 263.304C66.3904 263.208 66.0384 263.107 65.6864 263C65.345 262.883 65.0357 262.733 64.7584 262.552C64.481 262.371 64.257 262.141 64.0864 261.864C63.9157 261.587 63.8304 261.24 63.8304 260.824C63.8304 260.429 63.9157 260.083 64.0864 259.784C64.257 259.485 64.4917 259.235 64.7904 259.032C65.0997 258.829 65.4624 258.675 65.8784 258.568C66.305 258.461 66.769 258.408 67.2704 258.408C67.793 258.408 68.257 258.467 68.6624 258.584C69.0677 258.691 69.409 258.845 69.6864 259.048C69.9744 259.251 70.193 259.496 70.3424 259.784C70.4917 260.061 70.5664 260.36 70.5664 260.68C70.5664 260.744 70.561 260.813 70.5504 260.888C70.5504 260.952 70.5504 260.995 70.5504 261.016H68.9184V260.872C68.9184 260.659 68.8597 260.467 68.7424 260.296C68.625 260.125 68.4384 259.987 68.1824 259.88C67.937 259.773 67.6064 259.72 67.1904 259.72C66.913 259.72 66.6677 259.747 66.4544 259.8C66.241 259.843 66.065 259.907 65.9264 259.992C65.7877 260.077 65.681 260.179 65.6064 260.296C65.5424 260.413 65.5104 260.547 65.5104 260.696C65.5104 260.941 65.5957 261.133 65.7664 261.272C65.9477 261.4 66.1824 261.512 66.4704 261.608C66.7584 261.693 67.0677 261.789 67.3984 261.896C67.7824 262.003 68.1717 262.115 68.5664 262.232C68.961 262.339 69.3237 262.477 69.6544 262.648C69.9957 262.819 70.2677 263.053 70.4704 263.352C70.6837 263.651 70.7904 264.051 70.7904 264.552C70.7904 265.011 70.6997 265.411 70.5184 265.752C70.337 266.093 70.081 266.371 69.7504 266.584C69.4304 266.787 69.0517 266.936 68.6144 267.032C68.177 267.139 67.7024 267.192 67.1904 267.192ZM78.5262 267.192C78.2596 267.192 77.9716 267.16 77.6622 267.096C77.3529 267.032 77.0596 266.915 76.7822 266.744C76.5156 266.573 76.2969 266.339 76.1262 266.04C75.9556 265.731 75.8702 265.331 75.8702 264.84C75.8702 264.264 76.0036 263.789 76.2702 263.416C76.5369 263.043 76.9102 262.749 77.3902 262.536C77.8702 262.323 78.4409 262.173 79.1022 262.088C79.7742 262.003 80.5049 261.96 81.2942 261.96V261.128C81.2942 260.851 81.2462 260.605 81.1502 260.392C81.0649 260.179 80.8996 260.013 80.6542 259.896C80.4196 259.779 80.0782 259.72 79.6302 259.72C79.1822 259.72 78.8302 259.779 78.5742 259.896C78.3289 260.003 78.1529 260.141 78.0462 260.312C77.9502 260.472 77.9022 260.648 77.9022 260.84V261.08H76.3022C76.2916 261.027 76.2862 260.973 76.2862 260.92C76.2862 260.867 76.2862 260.803 76.2862 260.728C76.2862 260.227 76.4249 259.805 76.7022 259.464C76.9902 259.112 77.3902 258.845 77.9022 258.664C78.4142 258.483 79.0062 258.392 79.6782 258.392C80.4036 258.392 81.0062 258.499 81.4862 258.712C81.9769 258.915 82.3449 259.208 82.5902 259.592C82.8356 259.976 82.9582 260.44 82.9582 260.984V265.256C82.9582 265.459 83.0062 265.603 83.1022 265.688C83.2089 265.773 83.3316 265.816 83.4702 265.816H84.0462V266.936C83.9182 266.989 83.7582 267.043 83.5662 267.096C83.3742 267.149 83.1502 267.176 82.8942 267.176C82.6062 267.176 82.3609 267.123 82.1582 267.016C81.9662 266.92 81.8062 266.781 81.6782 266.6C81.5609 266.408 81.4809 266.195 81.4382 265.96H81.3422C81.1502 266.205 80.9156 266.424 80.6382 266.616C80.3716 266.797 80.0622 266.936 79.7102 267.032C79.3582 267.139 78.9636 267.192 78.5262 267.192ZM78.9902 265.816C79.3209 265.816 79.6249 265.768 79.9022 265.672C80.1902 265.565 80.4356 265.421 80.6382 265.24C80.8409 265.048 81.0009 264.824 81.1182 264.568C81.2356 264.301 81.2942 264.013 81.2942 263.704V263.144C80.5582 263.144 79.9129 263.187 79.3582 263.272C78.8036 263.357 78.3716 263.517 78.0622 263.752C77.7529 263.976 77.5982 264.291 77.5982 264.696C77.5982 264.941 77.6516 265.149 77.7582 265.32C77.8649 265.48 78.0249 265.603 78.2382 265.688C78.4516 265.773 78.7022 265.816 78.9902 265.816ZM88.4111 267.192C87.7285 267.192 87.1365 267.037 86.6351 266.728C86.1338 266.419 85.7445 265.939 85.4671 265.288C85.2005 264.637 85.0671 263.795 85.0671 262.76C85.0671 261.747 85.2058 260.92 85.4831 260.28C85.7605 259.64 86.1445 259.165 86.6351 258.856C87.1258 258.547 87.6911 258.392 88.3311 258.392C88.7045 258.392 89.0511 258.435 89.3711 258.52C89.6911 258.605 89.9738 258.739 90.2191 258.92C90.4751 259.101 90.6885 259.331 90.8591 259.608H90.9711V255.432H92.6351V267H91.2751L91.1151 265.848H91.0031C90.7258 266.296 90.3578 266.632 89.8991 266.856C89.4511 267.08 88.9551 267.192 88.4111 267.192ZM88.8751 265.752C89.3658 265.752 89.7605 265.645 90.0591 265.432C90.3685 265.208 90.5978 264.888 90.7471 264.472C90.8965 264.045 90.9711 263.528 90.9711 262.92V262.696C90.9711 262.184 90.9231 261.747 90.8271 261.384C90.7311 261.021 90.5925 260.728 90.4111 260.504C90.2298 260.269 90.0111 260.099 89.7551 259.992C89.4991 259.885 89.2111 259.832 88.8911 259.832C88.4005 259.832 88.0005 259.933 87.6911 260.136C87.3818 260.328 87.1525 260.632 87.0031 261.048C86.8645 261.464 86.7951 262.003 86.7951 262.664V262.952C86.7951 263.613 86.8698 264.152 87.0191 264.568C87.1685 264.973 87.3925 265.272 87.6911 265.464C88.0005 265.656 88.3951 265.752 88.8751 265.752ZM97.9968 267.192C97.3141 267.192 96.7221 267.037 96.2208 266.728C95.7194 266.419 95.3301 265.939 95.0528 265.288C94.7861 264.637 94.6528 263.795 94.6528 262.76C94.6528 261.747 94.7914 260.92 95.0688 260.28C95.3461 259.64 95.7301 259.165 96.2208 258.856C96.7114 258.547 97.2768 258.392 97.9168 258.392C98.2901 258.392 98.6368 258.435 98.9568 258.52C99.2768 258.605 99.5594 258.739 99.8048 258.92C100.061 259.101 100.274 259.331 100.445 259.608H100.557V255.432H102.221V267H100.861L100.701 265.848H100.589C100.311 266.296 99.9434 266.632 99.4848 266.856C99.0368 267.08 98.5408 267.192 97.9968 267.192ZM98.4608 265.752C98.9514 265.752 99.3461 265.645 99.6448 265.432C99.9541 265.208 100.183 264.888 100.333 264.472C100.482 264.045 100.557 263.528 100.557 262.92V262.696C100.557 262.184 100.509 261.747 100.413 261.384C100.317 261.021 100.178 260.728 99.9968 260.504C99.8154 260.269 99.5968 260.099 99.3408 259.992C99.0848 259.885 98.7968 259.832 98.4768 259.832C97.9861 259.832 97.5861 259.933 97.2768 260.136C96.9674 260.328 96.7381 260.632 96.5888 261.048C96.4501 261.464 96.3808 262.003 96.3808 262.664V262.952C96.3808 263.613 96.4554 264.152 96.6048 264.568C96.7541 264.973 96.9781 265.272 97.2768 265.464C97.5861 265.656 97.9808 265.752 98.4608 265.752ZM108.288 257.128V255.432H109.952V257.128H108.288ZM108.288 267V258.584H109.952V267H108.288ZM114.516 267.192C114.036 267.192 113.657 267.101 113.38 266.92C113.113 266.728 112.921 266.488 112.804 266.2C112.697 265.901 112.644 265.587 112.644 265.256V259.96H111.588V258.584H112.676L112.98 256.232H114.308V258.584H115.828V259.96H114.308V265.064C114.308 265.309 114.361 265.496 114.468 265.624C114.575 265.752 114.751 265.816 114.996 265.816H115.828V266.936C115.721 266.979 115.588 267.016 115.428 267.048C115.279 267.091 115.124 267.123 114.964 267.144C114.804 267.176 114.655 267.192 114.516 267.192Z" fill="#081D13"/>
<rect x="155.5" y="244.5" width="94" height="27" rx="3.5" stroke="#D2D7D6"/>
<path d="M168.134 263V253.396H169.702V261.642H174.49V263H168.134ZM178.995 263.168C178.239 263.168 177.604 263.033 177.091 262.762C176.587 262.482 176.204 262.057 175.943 261.488C175.681 260.919 175.551 260.195 175.551 259.318C175.551 258.431 175.681 257.708 175.943 257.148C176.204 256.579 176.591 256.159 177.105 255.888C177.618 255.608 178.257 255.468 179.023 255.468C179.723 255.468 180.306 255.603 180.773 255.874C181.249 256.135 181.608 256.537 181.851 257.078C182.093 257.619 182.215 258.301 182.215 259.122V259.682H177.049C177.067 260.205 177.147 260.643 177.287 260.998C177.427 261.343 177.637 261.6 177.917 261.768C178.206 261.927 178.57 262.006 179.009 262.006C179.279 262.006 179.522 261.973 179.737 261.908C179.951 261.833 180.133 261.731 180.283 261.6C180.432 261.46 180.549 261.297 180.633 261.11C180.717 260.914 180.759 260.695 180.759 260.452H182.187C182.187 260.891 182.112 261.278 181.963 261.614C181.813 261.95 181.594 262.235 181.305 262.468C181.025 262.692 180.689 262.865 180.297 262.986C179.905 263.107 179.471 263.168 178.995 263.168ZM177.077 258.618H180.689C180.689 258.254 180.647 257.951 180.563 257.708C180.488 257.456 180.376 257.251 180.227 257.092C180.077 256.933 179.9 256.821 179.695 256.756C179.489 256.681 179.256 256.644 178.995 256.644C178.603 256.644 178.267 256.714 177.987 256.854C177.716 256.994 177.506 257.213 177.357 257.512C177.207 257.801 177.114 258.17 177.077 258.618ZM185.809 263.168C185.389 263.168 185.057 263.089 184.815 262.93C184.581 262.762 184.413 262.552 184.311 262.3C184.217 262.039 184.171 261.763 184.171 261.474V256.84H183.247V255.636H184.199L184.465 253.578H185.627V255.636H186.957V256.84H185.627V261.306C185.627 261.521 185.673 261.684 185.767 261.796C185.86 261.908 186.014 261.964 186.229 261.964H186.957V262.944C186.863 262.981 186.747 263.014 186.607 263.042C186.476 263.079 186.341 263.107 186.201 263.126C186.061 263.154 185.93 263.168 185.809 263.168ZM188.52 257.176V256.532C188.726 256.495 188.894 256.406 189.024 256.266C189.155 256.117 189.248 255.935 189.304 255.72C189.36 255.505 189.388 255.272 189.388 255.02H188.646V253.396H190.214V254.866C190.214 255.398 190.13 255.827 189.962 256.154C189.794 256.471 189.58 256.709 189.318 256.868C189.066 257.017 188.8 257.12 188.52 257.176ZM194.292 263.168C193.778 263.168 193.326 263.112 192.934 263C192.542 262.888 192.215 262.734 191.954 262.538C191.692 262.342 191.492 262.109 191.352 261.838C191.221 261.558 191.156 261.25 191.156 260.914C191.156 260.867 191.156 260.825 191.156 260.788C191.165 260.751 191.17 260.718 191.17 260.69H192.612C192.612 260.718 192.612 260.746 192.612 260.774C192.612 260.793 192.612 260.816 192.612 260.844C192.612 261.133 192.691 261.367 192.85 261.544C193.008 261.712 193.218 261.833 193.48 261.908C193.75 261.973 194.044 262.006 194.362 262.006C194.642 262.006 194.898 261.973 195.132 261.908C195.374 261.833 195.57 261.726 195.72 261.586C195.878 261.446 195.958 261.269 195.958 261.054C195.958 260.774 195.86 260.559 195.664 260.41C195.468 260.261 195.211 260.144 194.894 260.06C194.576 259.967 194.245 259.869 193.9 259.766C193.592 259.682 193.284 259.593 192.976 259.5C192.677 259.397 192.406 259.267 192.164 259.108C191.921 258.949 191.725 258.749 191.576 258.506C191.426 258.263 191.352 257.96 191.352 257.596C191.352 257.251 191.426 256.947 191.576 256.686C191.725 256.425 191.93 256.205 192.192 256.028C192.462 255.851 192.78 255.715 193.144 255.622C193.517 255.529 193.923 255.482 194.362 255.482C194.819 255.482 195.225 255.533 195.58 255.636C195.934 255.729 196.233 255.865 196.476 256.042C196.728 256.219 196.919 256.434 197.05 256.686C197.18 256.929 197.246 257.19 197.246 257.47C197.246 257.526 197.241 257.587 197.232 257.652C197.232 257.708 197.232 257.745 197.232 257.764H195.804V257.638C195.804 257.451 195.752 257.283 195.65 257.134C195.547 256.985 195.384 256.863 195.16 256.77C194.945 256.677 194.656 256.63 194.292 256.63C194.049 256.63 193.834 256.653 193.648 256.7C193.461 256.737 193.307 256.793 193.186 256.868C193.064 256.943 192.971 257.031 192.906 257.134C192.85 257.237 192.822 257.353 192.822 257.484C192.822 257.699 192.896 257.867 193.046 257.988C193.204 258.1 193.41 258.198 193.662 258.282C193.914 258.357 194.184 258.441 194.474 258.534C194.81 258.627 195.15 258.725 195.496 258.828C195.841 258.921 196.158 259.043 196.448 259.192C196.746 259.341 196.984 259.547 197.162 259.808C197.348 260.069 197.442 260.419 197.442 260.858C197.442 261.259 197.362 261.609 197.204 261.908C197.045 262.207 196.821 262.449 196.532 262.636C196.252 262.813 195.92 262.944 195.538 263.028C195.155 263.121 194.74 263.168 194.292 263.168ZM204.21 263.168C203.977 263.168 203.725 263.14 203.454 263.084C203.184 263.028 202.927 262.925 202.684 262.776C202.451 262.627 202.26 262.421 202.11 262.16C201.961 261.889 201.886 261.539 201.886 261.11C201.886 260.606 202.003 260.191 202.236 259.864C202.47 259.537 202.796 259.281 203.216 259.094C203.636 258.907 204.136 258.777 204.714 258.702C205.302 258.627 205.942 258.59 206.632 258.59V257.862C206.632 257.619 206.59 257.405 206.506 257.218C206.432 257.031 206.287 256.887 206.072 256.784C205.867 256.681 205.568 256.63 205.176 256.63C204.784 256.63 204.476 256.681 204.252 256.784C204.038 256.877 203.884 256.999 203.79 257.148C203.706 257.288 203.664 257.442 203.664 257.61V257.82H202.264C202.255 257.773 202.25 257.727 202.25 257.68C202.25 257.633 202.25 257.577 202.25 257.512C202.25 257.073 202.372 256.705 202.614 256.406C202.866 256.098 203.216 255.865 203.664 255.706C204.112 255.547 204.63 255.468 205.218 255.468C205.853 255.468 206.38 255.561 206.8 255.748C207.23 255.925 207.552 256.182 207.766 256.518C207.981 256.854 208.088 257.26 208.088 257.736V261.474C208.088 261.651 208.13 261.777 208.214 261.852C208.308 261.927 208.415 261.964 208.536 261.964H209.04V262.944C208.928 262.991 208.788 263.037 208.62 263.084C208.452 263.131 208.256 263.154 208.032 263.154C207.78 263.154 207.566 263.107 207.388 263.014C207.22 262.93 207.08 262.809 206.968 262.65C206.866 262.482 206.796 262.295 206.758 262.09H206.674C206.506 262.305 206.301 262.496 206.058 262.664C205.825 262.823 205.554 262.944 205.246 263.028C204.938 263.121 204.593 263.168 204.21 263.168ZM204.616 261.964C204.906 261.964 205.172 261.922 205.414 261.838C205.666 261.745 205.881 261.619 206.058 261.46C206.236 261.292 206.376 261.096 206.478 260.872C206.581 260.639 206.632 260.387 206.632 260.116V259.626C205.988 259.626 205.424 259.663 204.938 259.738C204.453 259.813 204.075 259.953 203.804 260.158C203.534 260.354 203.398 260.629 203.398 260.984C203.398 261.199 203.445 261.381 203.538 261.53C203.632 261.67 203.772 261.777 203.958 261.852C204.145 261.927 204.364 261.964 204.616 261.964ZM212.86 263.168C212.262 263.168 211.744 263.033 211.306 262.762C210.867 262.491 210.526 262.071 210.284 261.502C210.05 260.933 209.934 260.195 209.934 259.29C209.934 258.403 210.055 257.68 210.298 257.12C210.54 256.56 210.876 256.145 211.306 255.874C211.735 255.603 212.23 255.468 212.79 255.468C213.116 255.468 213.42 255.505 213.7 255.58C213.98 255.655 214.227 255.771 214.442 255.93C214.666 256.089 214.852 256.289 215.002 256.532H215.1V252.878H216.556V263H215.366L215.226 261.992H215.128C214.885 262.384 214.563 262.678 214.162 262.874C213.77 263.07 213.336 263.168 212.86 263.168ZM213.266 261.908C213.695 261.908 214.04 261.815 214.302 261.628C214.572 261.432 214.773 261.152 214.904 260.788C215.034 260.415 215.1 259.962 215.1 259.43V259.234C215.1 258.786 215.058 258.403 214.974 258.086C214.89 257.769 214.768 257.512 214.61 257.316C214.451 257.111 214.26 256.961 214.036 256.868C213.812 256.775 213.56 256.728 213.28 256.728C212.85 256.728 212.5 256.817 212.23 256.994C211.959 257.162 211.758 257.428 211.628 257.792C211.506 258.156 211.446 258.627 211.446 259.206V259.458C211.446 260.037 211.511 260.508 211.642 260.872C211.772 261.227 211.968 261.488 212.23 261.656C212.5 261.824 212.846 261.908 213.266 261.908ZM221.247 263.168C220.65 263.168 220.132 263.033 219.693 262.762C219.254 262.491 218.914 262.071 218.671 261.502C218.438 260.933 218.321 260.195 218.321 259.29C218.321 258.403 218.442 257.68 218.685 257.12C218.928 256.56 219.264 256.145 219.693 255.874C220.122 255.603 220.617 255.468 221.177 255.468C221.504 255.468 221.807 255.505 222.087 255.58C222.367 255.655 222.614 255.771 222.829 255.93C223.053 256.089 223.24 256.289 223.389 256.532H223.487V252.878H224.943V263H223.753L223.613 261.992H223.515C223.272 262.384 222.95 262.678 222.549 262.874C222.157 263.07 221.723 263.168 221.247 263.168ZM221.653 261.908C222.082 261.908 222.428 261.815 222.689 261.628C222.96 261.432 223.16 261.152 223.291 260.788C223.422 260.415 223.487 259.962 223.487 259.43V259.234C223.487 258.786 223.445 258.403 223.361 258.086C223.277 257.769 223.156 257.512 222.997 257.316C222.838 257.111 222.647 256.961 222.423 256.868C222.199 256.775 221.947 256.728 221.667 256.728C221.238 256.728 220.888 256.817 220.617 256.994C220.346 257.162 220.146 257.428 220.015 257.792C219.894 258.156 219.833 258.627 219.833 259.206V259.458C219.833 260.037 219.898 260.508 220.029 260.872C220.16 261.227 220.356 261.488 220.617 261.656C220.888 261.824 221.233 261.908 221.653 261.908ZM230.252 254.362V252.878H231.708V254.362H230.252ZM230.252 263V255.636H231.708V263H230.252ZM235.702 263.168C235.282 263.168 234.95 263.089 234.708 262.93C234.474 262.762 234.306 262.552 234.204 262.3C234.11 262.039 234.064 261.763 234.064 261.474V256.84H233.14V255.636H234.092L234.358 253.578H235.52V255.636H236.85V256.84H235.52V261.306C235.52 261.521 235.566 261.684 235.66 261.796C235.753 261.908 235.907 261.964 236.122 261.964H236.85V262.944C236.756 262.981 236.64 263.014 236.5 263.042C236.369 263.079 236.234 263.107 236.094 263.126C235.954 263.154 235.823 263.168 235.702 263.168Z" fill="#081D13"/>
</svg>
