<svg width="96" height="100" viewBox="0 0 96 100" fill="none" xmlns="http://www.w3.org/2000/svg">
<rect x="0.5" y="0.5" width="95" height="99" rx="4.5" stroke="#8A38F5" stroke-dasharray="10 5"/>
<rect x="20" y="20" width="56" height="20" rx="2" fill="#07B386" fill-opacity="0.12"/>
<rect x="20.5" y="20.5" width="55" height="19" rx="1.5" stroke="#07B386" stroke-opacity="0.12"/>
<path d="M27.176 34V32.8H29.156V27.616H27.164V26.716C27.404 26.692 27.684 26.636 28.004 26.548C28.332 26.452 28.664 26.336 29 26.2C29.336 26.064 29.64 25.92 29.912 25.768H30.632V32.8H32.456V34H27.176ZM36.6101 34.144C36.1621 34.144 35.7621 34.08 35.4101 33.952C35.0581 33.816 34.7581 33.588 34.5101 33.268C34.2621 32.948 34.0741 32.516 33.9461 31.972C33.8181 31.42 33.7541 30.724 33.7541 29.884C33.7541 29.044 33.8181 28.352 33.9461 27.808C34.0741 27.256 34.2621 26.82 34.5101 26.5C34.7581 26.18 35.0581 25.956 35.4101 25.828C35.7621 25.692 36.1621 25.624 36.6101 25.624C37.0581 25.624 37.4541 25.692 37.7981 25.828C38.1501 25.956 38.4501 26.18 38.6981 26.5C38.9461 26.82 39.1341 27.256 39.2621 27.808C39.3901 28.352 39.4541 29.044 39.4541 29.884C39.4541 30.724 39.3901 31.42 39.2621 31.972C39.1341 32.516 38.9461 32.948 38.6981 33.268C38.4501 33.588 38.1501 33.816 37.7981 33.952C37.4541 34.08 37.0581 34.144 36.6101 34.144ZM36.6101 32.944C36.9861 32.944 37.2661 32.844 37.4501 32.644C37.6421 32.436 37.7701 32.132 37.8341 31.732C37.9061 31.324 37.9421 30.82 37.9421 30.22V29.596C37.9421 28.98 37.9061 28.468 37.8341 28.06C37.7701 27.644 37.6421 27.336 37.4501 27.136C37.2661 26.928 36.9861 26.824 36.6101 26.824C36.2421 26.824 35.9581 26.928 35.7581 27.136C35.5661 27.336 35.4341 27.64 35.3621 28.048C35.2981 28.448 35.2661 28.952 35.2661 29.56V30.184C35.2661 30.792 35.2981 31.304 35.3621 31.72C35.4341 32.128 35.5661 32.436 35.7581 32.644C35.9581 32.844 36.2421 32.944 36.6101 32.944ZM42.5284 34L48.5524 25.768H49.7164L43.6684 34H42.5284ZM43.3204 29.956C42.9204 29.956 42.5724 29.892 42.2764 29.764C41.9804 29.628 41.7524 29.404 41.5924 29.092C41.4404 28.78 41.3644 28.348 41.3644 27.796C41.3644 27.236 41.4404 26.8 41.5924 26.488C41.7524 26.176 41.9804 25.956 42.2764 25.828C42.5724 25.692 42.9204 25.624 43.3204 25.624C43.7284 25.624 44.0764 25.692 44.3644 25.828C44.6524 25.956 44.8724 26.176 45.0244 26.488C45.1844 26.8 45.2644 27.236 45.2644 27.796C45.2644 28.348 45.1844 28.784 45.0244 29.104C44.8724 29.416 44.6524 29.636 44.3644 29.764C44.0764 29.892 43.7284 29.956 43.3204 29.956ZM43.3204 29.068C43.6484 29.068 43.8644 28.96 43.9684 28.744C44.0724 28.528 44.1244 28.236 44.1244 27.868V27.712C44.1244 27.472 44.1004 27.264 44.0524 27.088C44.0124 26.904 43.9324 26.764 43.8124 26.668C43.7004 26.564 43.5364 26.512 43.3204 26.512C43.0004 26.512 42.7844 26.624 42.6724 26.848C42.5684 27.064 42.5164 27.352 42.5164 27.712V27.868C42.5164 28.236 42.5684 28.528 42.6724 28.744C42.7844 28.96 43.0004 29.068 43.3204 29.068ZM48.8884 34.144C48.4884 34.144 48.1404 34.08 47.8444 33.952C47.5564 33.816 47.3324 33.592 47.1724 33.28C47.0204 32.968 46.9444 32.536 46.9444 31.984C46.9444 31.424 47.0204 30.988 47.1724 30.676C47.3324 30.364 47.5564 30.144 47.8444 30.016C48.1404 29.88 48.4884 29.812 48.8884 29.812C49.2964 29.812 49.6444 29.88 49.9324 30.016C50.2284 30.144 50.4524 30.364 50.6044 30.676C50.7564 30.988 50.8324 31.424 50.8324 31.984C50.8324 32.536 50.7564 32.972 50.6044 33.292C50.4524 33.604 50.2284 33.824 49.9324 33.952C49.6444 34.08 49.2964 34.144 48.8884 34.144ZM48.8884 33.256C49.2164 33.256 49.4324 33.148 49.5364 32.932C49.6404 32.708 49.6924 32.412 49.6924 32.044V31.9C49.6924 31.66 49.6684 31.452 49.6204 31.276C49.5804 31.092 49.5044 30.952 49.3924 30.856C49.2804 30.752 49.1124 30.7 48.8884 30.7C48.5684 30.7 48.3564 30.812 48.2524 31.036C48.1484 31.252 48.0964 31.54 48.0964 31.9V32.044C48.0964 32.412 48.1484 32.708 48.2524 32.932C48.3564 33.148 48.5684 33.256 48.8884 33.256Z" fill="#07B386"/>
<g clip-path="url(#clip0_37_86)">
<path d="M65.5 26.5H69.5V30.5" stroke="#07B386" stroke-width="1.2" stroke-linecap="round" stroke-linejoin="round"/>
<path d="M69.5 26.5L63.85 32.15C63.7565 32.2416 63.6309 32.2929 63.5 32.2929C63.3691 32.2929 63.2435 32.2416 63.15 32.15L60.85 29.85C60.7565 29.7584 60.6309 29.7071 60.5 29.7071C60.3691 29.7071 60.2435 29.7584 60.15 29.85L56.5 33.5" stroke="#07B386" stroke-width="1.2" stroke-linecap="round" stroke-linejoin="round"/>
</g>
<rect x="20" y="60" width="56" height="20" rx="2" fill="#F74A46" fill-opacity="0.12"/>
<rect x="20.5" y="60.5" width="55" height="19" rx="1.5" stroke="#F74A46" stroke-opacity="0.12"/>
<path d="M27.176 74V72.8H29.156V67.616H27.164V66.716C27.404 66.692 27.684 66.636 28.004 66.548C28.332 66.452 28.664 66.336 29 66.2C29.336 66.064 29.64 65.92 29.912 65.768H30.632V72.8H32.456V74H27.176ZM36.6101 74.144C36.1621 74.144 35.7621 74.08 35.4101 73.952C35.0581 73.816 34.7581 73.588 34.5101 73.268C34.2621 72.948 34.0741 72.516 33.9461 71.972C33.8181 71.42 33.7541 70.724 33.7541 69.884C33.7541 69.044 33.8181 68.352 33.9461 67.808C34.0741 67.256 34.2621 66.82 34.5101 66.5C34.7581 66.18 35.0581 65.956 35.4101 65.828C35.7621 65.692 36.1621 65.624 36.6101 65.624C37.0581 65.624 37.4541 65.692 37.7981 65.828C38.1501 65.956 38.4501 66.18 38.6981 66.5C38.9461 66.82 39.1341 67.256 39.2621 67.808C39.3901 68.352 39.4541 69.044 39.4541 69.884C39.4541 70.724 39.3901 71.42 39.2621 71.972C39.1341 72.516 38.9461 72.948 38.6981 73.268C38.4501 73.588 38.1501 73.816 37.7981 73.952C37.4541 74.08 37.0581 74.144 36.6101 74.144ZM36.6101 72.944C36.9861 72.944 37.2661 72.844 37.4501 72.644C37.6421 72.436 37.7701 72.132 37.8341 71.732C37.9061 71.324 37.9421 70.82 37.9421 70.22V69.596C37.9421 68.98 37.9061 68.468 37.8341 68.06C37.7701 67.644 37.6421 67.336 37.4501 67.136C37.2661 66.928 36.9861 66.824 36.6101 66.824C36.2421 66.824 35.9581 66.928 35.7581 67.136C35.5661 67.336 35.4341 67.64 35.3621 68.048C35.2981 68.448 35.2661 68.952 35.2661 69.56V70.184C35.2661 70.792 35.2981 71.304 35.3621 71.72C35.4341 72.128 35.5661 72.436 35.7581 72.644C35.9581 72.844 36.2421 72.944 36.6101 72.944ZM42.5284 74L48.5524 65.768H49.7164L43.6684 74H42.5284ZM43.3204 69.956C42.9204 69.956 42.5724 69.892 42.2764 69.764C41.9804 69.628 41.7524 69.404 41.5924 69.092C41.4404 68.78 41.3644 68.348 41.3644 67.796C41.3644 67.236 41.4404 66.8 41.5924 66.488C41.7524 66.176 41.9804 65.956 42.2764 65.828C42.5724 65.692 42.9204 65.624 43.3204 65.624C43.7284 65.624 44.0764 65.692 44.3644 65.828C44.6524 65.956 44.8724 66.176 45.0244 66.488C45.1844 66.8 45.2644 67.236 45.2644 67.796C45.2644 68.348 45.1844 68.784 45.0244 69.104C44.8724 69.416 44.6524 69.636 44.3644 69.764C44.0764 69.892 43.7284 69.956 43.3204 69.956ZM43.3204 69.068C43.6484 69.068 43.8644 68.96 43.9684 68.744C44.0724 68.528 44.1244 68.236 44.1244 67.868V67.712C44.1244 67.472 44.1004 67.264 44.0524 67.088C44.0124 66.904 43.9324 66.764 43.8124 66.668C43.7004 66.564 43.5364 66.512 43.3204 66.512C43.0004 66.512 42.7844 66.624 42.6724 66.848C42.5684 67.064 42.5164 67.352 42.5164 67.712V67.868C42.5164 68.236 42.5684 68.528 42.6724 68.744C42.7844 68.96 43.0004 69.068 43.3204 69.068ZM48.8884 74.144C48.4884 74.144 48.1404 74.08 47.8444 73.952C47.5564 73.816 47.3324 73.592 47.1724 73.28C47.0204 72.968 46.9444 72.536 46.9444 71.984C46.9444 71.424 47.0204 70.988 47.1724 70.676C47.3324 70.364 47.5564 70.144 47.8444 70.016C48.1404 69.88 48.4884 69.812 48.8884 69.812C49.2964 69.812 49.6444 69.88 49.9324 70.016C50.2284 70.144 50.4524 70.364 50.6044 70.676C50.7564 70.988 50.8324 71.424 50.8324 71.984C50.8324 72.536 50.7564 72.972 50.6044 73.292C50.4524 73.604 50.2284 73.824 49.9324 73.952C49.6444 74.08 49.2964 74.144 48.8884 74.144ZM48.8884 73.256C49.2164 73.256 49.4324 73.148 49.5364 72.932C49.6404 72.708 49.6924 72.412 49.6924 72.044V71.9C49.6924 71.66 49.6684 71.452 49.6204 71.276C49.5804 71.092 49.5044 70.952 49.3924 70.856C49.2804 70.752 49.1124 70.7 48.8884 70.7C48.5684 70.7 48.3564 70.812 48.2524 71.036C48.1484 71.252 48.0964 71.54 48.0964 71.9V72.044C48.0964 72.412 48.1484 72.708 48.2524 72.932C48.3564 73.148 48.5684 73.256 48.8884 73.256Z" fill="#F74A46"/>
<g clip-path="url(#clip1_37_86)">
<path d="M65.4999 73.5H69.4999V69.5" stroke="#F74A46" stroke-width="1.2" stroke-linecap="round" stroke-linejoin="round"/>
<path d="M69.4999 73.5L63.8499 67.85C63.7564 67.7584 63.6308 67.7071 63.4999 67.7071C63.369 67.7071 63.2433 67.7584 63.1499 67.85L60.8499 70.15C60.7564 70.2416 60.6308 70.2929 60.4999 70.2929C60.369 70.2929 60.2433 70.2416 60.1499 70.15L56.4999 66.5" stroke="#F74A46" stroke-width="1.2" stroke-linecap="round" stroke-linejoin="round"/>
</g>
<defs>
<clipPath id="clip0_37_86">
<rect width="14" height="14" fill="white" transform="translate(56 23)"/>
</clipPath>
<clipPath id="clip1_37_86">
<rect width="14" height="14" fill="white" transform="matrix(1 0 0 -1 56 77)"/>
</clipPath>
</defs>
</svg>
