<svg width="122" height="116" viewBox="0 0 122 116" fill="none" xmlns="http://www.w3.org/2000/svg">
<rect x="0.5" y="0.5" width="121" height="115" rx="4.5" stroke="#9747FF" stroke-dasharray="10 5"/>
<rect x="20.5" y="20.5" width="81" height="27" rx="1.5" fill="#018270" fill-opacity="0.12"/>
<rect x="20.5" y="20.5" width="81" height="27" rx="1.5" stroke="#018270"/>
<path d="M33.215 39V28.71H38.63C39.36 28.71 39.965 28.84 40.445 29.1C40.925 29.36 41.285 29.725 41.525 30.195C41.765 30.655 41.885 31.195 41.885 31.815C41.885 32.505 41.73 33.105 41.42 33.615C41.11 34.125 40.67 34.5 40.1 34.74L42.245 39H40.415L38.465 35.025H34.895V39H33.215ZM34.895 33.615H38.495C39.035 33.615 39.45 33.455 39.74 33.135C40.04 32.815 40.19 32.37 40.19 31.8C40.19 31.45 40.125 31.155 39.995 30.915C39.865 30.665 39.675 30.475 39.425 30.345C39.175 30.215 38.865 30.15 38.495 30.15H34.895V33.615ZM47.7037 39.18C46.8937 39.18 46.2137 39.035 45.6637 38.745C45.1237 38.445 44.7137 37.99 44.4337 37.38C44.1537 36.77 44.0137 35.995 44.0137 35.055C44.0137 34.105 44.1537 33.33 44.4337 32.73C44.7137 32.12 45.1287 31.67 45.6787 31.38C46.2287 31.08 46.9137 30.93 47.7337 30.93C48.4837 30.93 49.1087 31.075 49.6087 31.365C50.1187 31.645 50.5037 32.075 50.7637 32.655C51.0237 33.235 51.1537 33.965 51.1537 34.845V35.445H45.6187C45.6387 36.005 45.7237 36.475 45.8737 36.855C46.0237 37.225 46.2487 37.5 46.5487 37.68C46.8587 37.85 47.2487 37.935 47.7187 37.935C48.0087 37.935 48.2687 37.9 48.4987 37.83C48.7287 37.75 48.9237 37.64 49.0837 37.5C49.2437 37.35 49.3687 37.175 49.4587 36.975C49.5487 36.765 49.5937 36.53 49.5937 36.27H51.1237C51.1237 36.74 51.0437 37.155 50.8837 37.515C50.7237 37.875 50.4887 38.18 50.1787 38.43C49.8787 38.67 49.5187 38.855 49.0987 38.985C48.6787 39.115 48.2137 39.18 47.7037 39.18ZM45.6487 34.305H49.5187C49.5187 33.915 49.4737 33.59 49.3837 33.33C49.3037 33.06 49.1837 32.84 49.0237 32.67C48.8637 32.5 48.6737 32.38 48.4537 32.31C48.2337 32.23 47.9837 32.19 47.7037 32.19C47.2837 32.19 46.9237 32.265 46.6237 32.415C46.3337 32.565 46.1087 32.8 45.9487 33.12C45.7887 33.43 45.6887 33.825 45.6487 34.305ZM53.4894 39V31.11H54.7794L54.9144 32.235H55.0194C55.1994 31.945 55.4044 31.705 55.6344 31.515C55.8744 31.325 56.1394 31.18 56.4294 31.08C56.7294 30.98 57.0494 30.93 57.3894 30.93C57.8794 30.93 58.3044 31.03 58.6644 31.23C59.0344 31.43 59.3144 31.765 59.5044 32.235H59.6094C59.7894 31.955 59.9994 31.72 60.2394 31.53C60.4794 31.33 60.7494 31.18 61.0494 31.08C61.3594 30.98 61.6894 30.93 62.0394 30.93C62.5094 30.93 62.9244 31.015 63.2844 31.185C63.6444 31.345 63.9294 31.62 64.1394 32.01C64.3494 32.39 64.4544 32.9 64.4544 33.54V39H62.8944V33.825C62.8944 33.525 62.8594 33.28 62.7894 33.09C62.7194 32.89 62.6244 32.735 62.5044 32.625C62.3844 32.505 62.2394 32.42 62.0694 32.37C61.8994 32.32 61.7144 32.295 61.5144 32.295C61.1844 32.295 60.8894 32.385 60.6294 32.565C60.3694 32.735 60.1594 32.975 59.9994 33.285C59.8394 33.595 59.7594 33.96 59.7594 34.38V39H58.1994V33.825C58.1994 33.525 58.1644 33.28 58.0944 33.09C58.0244 32.89 57.9294 32.735 57.8094 32.625C57.6894 32.505 57.5444 32.42 57.3744 32.37C57.2044 32.32 57.0244 32.295 56.8344 32.295C56.5044 32.295 56.2044 32.385 55.9344 32.565C55.6644 32.735 55.4494 32.975 55.2894 33.285C55.1294 33.595 55.0494 33.96 55.0494 34.38V39H53.4894ZM70.5046 39.18C69.6846 39.18 68.9896 39.035 68.4196 38.745C67.8596 38.445 67.4346 37.99 67.1446 37.38C66.8646 36.77 66.7246 35.995 66.7246 35.055C66.7246 34.105 66.8646 33.33 67.1446 32.73C67.4346 32.12 67.8596 31.67 68.4196 31.38C68.9896 31.08 69.6846 30.93 70.5046 30.93C71.3446 30.93 72.0446 31.08 72.6046 31.38C73.1646 31.67 73.5846 32.12 73.8646 32.73C74.1546 33.33 74.2996 34.105 74.2996 35.055C74.2996 35.995 74.1546 36.77 73.8646 37.38C73.5846 37.99 73.1646 38.445 72.6046 38.745C72.0446 39.035 71.3446 39.18 70.5046 39.18ZM70.5046 37.89C71.0046 37.89 71.4146 37.795 71.7346 37.605C72.0546 37.405 72.2896 37.105 72.4396 36.705C72.5996 36.305 72.6796 35.8 72.6796 35.19V34.92C72.6796 34.31 72.5996 33.805 72.4396 33.405C72.2896 33.005 72.0546 32.71 71.7346 32.52C71.4146 32.32 71.0046 32.22 70.5046 32.22C70.0146 32.22 69.6096 32.32 69.2896 32.52C68.9696 32.71 68.7296 33.005 68.5696 33.405C68.4196 33.805 68.3446 34.31 68.3446 34.92V35.19C68.3446 35.8 68.4196 36.305 68.5696 36.705C68.7296 37.105 68.9696 37.405 69.2896 37.605C69.6096 37.795 70.0146 37.89 70.5046 37.89ZM78.6048 39.18C78.1548 39.18 77.7998 39.095 77.5398 38.925C77.2898 38.745 77.1098 38.52 76.9998 38.25C76.8998 37.97 76.8498 37.675 76.8498 37.365V32.4H75.8598V31.11H76.8798L77.1648 28.905H78.4098V31.11H79.8348V32.4H78.4098V37.185C78.4098 37.415 78.4598 37.59 78.5598 37.71C78.6598 37.83 78.8248 37.89 79.0548 37.89H79.8348V38.94C79.7348 38.98 79.6098 39.015 79.4598 39.045C79.3198 39.085 79.1748 39.115 79.0248 39.135C78.8748 39.165 78.7348 39.18 78.6048 39.18ZM85.2301 39.18C84.4201 39.18 83.7401 39.035 83.1901 38.745C82.6501 38.445 82.2401 37.99 81.9601 37.38C81.6801 36.77 81.5401 35.995 81.5401 35.055C81.5401 34.105 81.6801 33.33 81.9601 32.73C82.2401 32.12 82.6551 31.67 83.2051 31.38C83.7551 31.08 84.4401 30.93 85.2601 30.93C86.0101 30.93 86.6351 31.075 87.1351 31.365C87.6451 31.645 88.0301 32.075 88.2901 32.655C88.5501 33.235 88.6801 33.965 88.6801 34.845V35.445H83.1451C83.1651 36.005 83.2501 36.475 83.4001 36.855C83.5501 37.225 83.7751 37.5 84.0751 37.68C84.3851 37.85 84.7751 37.935 85.2451 37.935C85.5351 37.935 85.7951 37.9 86.0251 37.83C86.2551 37.75 86.4501 37.64 86.6101 37.5C86.7701 37.35 86.8951 37.175 86.9851 36.975C87.0751 36.765 87.1201 36.53 87.1201 36.27H88.6501C88.6501 36.74 88.5701 37.155 88.4101 37.515C88.2501 37.875 88.0151 38.18 87.7051 38.43C87.4051 38.67 87.0451 38.855 86.6251 38.985C86.2051 39.115 85.7401 39.18 85.2301 39.18ZM83.1751 34.305H87.0451C87.0451 33.915 87.0001 33.59 86.9101 33.33C86.8301 33.06 86.7101 32.84 86.5501 32.67C86.3901 32.5 86.2001 32.38 85.9801 32.31C85.7601 32.23 85.5101 32.19 85.2301 32.19C84.8101 32.19 84.4501 32.265 84.1501 32.415C83.8601 32.565 83.6351 32.8 83.4751 33.12C83.3151 33.43 83.2151 33.825 83.1751 34.305Z" fill="#018270"/>
<rect x="20.5" y="68.5" width="81" height="27" rx="1.5" fill="#F7F8F8"/>
<rect x="20.5" y="68.5" width="81" height="27" rx="1.5" stroke="#D2D7D6"/>
<path d="M33.215 87V76.71H38.63C39.36 76.71 39.965 76.84 40.445 77.1C40.925 77.36 41.285 77.725 41.525 78.195C41.765 78.655 41.885 79.195 41.885 79.815C41.885 80.505 41.73 81.105 41.42 81.615C41.11 82.125 40.67 82.5 40.1 82.74L42.245 87H40.415L38.465 83.025H34.895V87H33.215ZM34.895 81.615H38.495C39.035 81.615 39.45 81.455 39.74 81.135C40.04 80.815 40.19 80.37 40.19 79.8C40.19 79.45 40.125 79.155 39.995 78.915C39.865 78.665 39.675 78.475 39.425 78.345C39.175 78.215 38.865 78.15 38.495 78.15H34.895V81.615ZM47.7037 87.18C46.8937 87.18 46.2137 87.035 45.6637 86.745C45.1237 86.445 44.7137 85.99 44.4337 85.38C44.1537 84.77 44.0137 83.995 44.0137 83.055C44.0137 82.105 44.1537 81.33 44.4337 80.73C44.7137 80.12 45.1287 79.67 45.6787 79.38C46.2287 79.08 46.9137 78.93 47.7337 78.93C48.4837 78.93 49.1087 79.075 49.6087 79.365C50.1187 79.645 50.5037 80.075 50.7637 80.655C51.0237 81.235 51.1537 81.965 51.1537 82.845V83.445H45.6187C45.6387 84.005 45.7237 84.475 45.8737 84.855C46.0237 85.225 46.2487 85.5 46.5487 85.68C46.8587 85.85 47.2487 85.935 47.7187 85.935C48.0087 85.935 48.2687 85.9 48.4987 85.83C48.7287 85.75 48.9237 85.64 49.0837 85.5C49.2437 85.35 49.3687 85.175 49.4587 84.975C49.5487 84.765 49.5937 84.53 49.5937 84.27H51.1237C51.1237 84.74 51.0437 85.155 50.8837 85.515C50.7237 85.875 50.4887 86.18 50.1787 86.43C49.8787 86.67 49.5187 86.855 49.0987 86.985C48.6787 87.115 48.2137 87.18 47.7037 87.18ZM45.6487 82.305H49.5187C49.5187 81.915 49.4737 81.59 49.3837 81.33C49.3037 81.06 49.1837 80.84 49.0237 80.67C48.8637 80.5 48.6737 80.38 48.4537 80.31C48.2337 80.23 47.9837 80.19 47.7037 80.19C47.2837 80.19 46.9237 80.265 46.6237 80.415C46.3337 80.565 46.1087 80.8 45.9487 81.12C45.7887 81.43 45.6887 81.825 45.6487 82.305ZM53.4894 87V79.11H54.7794L54.9144 80.235H55.0194C55.1994 79.945 55.4044 79.705 55.6344 79.515C55.8744 79.325 56.1394 79.18 56.4294 79.08C56.7294 78.98 57.0494 78.93 57.3894 78.93C57.8794 78.93 58.3044 79.03 58.6644 79.23C59.0344 79.43 59.3144 79.765 59.5044 80.235H59.6094C59.7894 79.955 59.9994 79.72 60.2394 79.53C60.4794 79.33 60.7494 79.18 61.0494 79.08C61.3594 78.98 61.6894 78.93 62.0394 78.93C62.5094 78.93 62.9244 79.015 63.2844 79.185C63.6444 79.345 63.9294 79.62 64.1394 80.01C64.3494 80.39 64.4544 80.9 64.4544 81.54V87H62.8944V81.825C62.8944 81.525 62.8594 81.28 62.7894 81.09C62.7194 80.89 62.6244 80.735 62.5044 80.625C62.3844 80.505 62.2394 80.42 62.0694 80.37C61.8994 80.32 61.7144 80.295 61.5144 80.295C61.1844 80.295 60.8894 80.385 60.6294 80.565C60.3694 80.735 60.1594 80.975 59.9994 81.285C59.8394 81.595 59.7594 81.96 59.7594 82.38V87H58.1994V81.825C58.1994 81.525 58.1644 81.28 58.0944 81.09C58.0244 80.89 57.9294 80.735 57.8094 80.625C57.6894 80.505 57.5444 80.42 57.3744 80.37C57.2044 80.32 57.0244 80.295 56.8344 80.295C56.5044 80.295 56.2044 80.385 55.9344 80.565C55.6644 80.735 55.4494 80.975 55.2894 81.285C55.1294 81.595 55.0494 81.96 55.0494 82.38V87H53.4894ZM70.5046 87.18C69.6846 87.18 68.9896 87.035 68.4196 86.745C67.8596 86.445 67.4346 85.99 67.1446 85.38C66.8646 84.77 66.7246 83.995 66.7246 83.055C66.7246 82.105 66.8646 81.33 67.1446 80.73C67.4346 80.12 67.8596 79.67 68.4196 79.38C68.9896 79.08 69.6846 78.93 70.5046 78.93C71.3446 78.93 72.0446 79.08 72.6046 79.38C73.1646 79.67 73.5846 80.12 73.8646 80.73C74.1546 81.33 74.2996 82.105 74.2996 83.055C74.2996 83.995 74.1546 84.77 73.8646 85.38C73.5846 85.99 73.1646 86.445 72.6046 86.745C72.0446 87.035 71.3446 87.18 70.5046 87.18ZM70.5046 85.89C71.0046 85.89 71.4146 85.795 71.7346 85.605C72.0546 85.405 72.2896 85.105 72.4396 84.705C72.5996 84.305 72.6796 83.8 72.6796 83.19V82.92C72.6796 82.31 72.5996 81.805 72.4396 81.405C72.2896 81.005 72.0546 80.71 71.7346 80.52C71.4146 80.32 71.0046 80.22 70.5046 80.22C70.0146 80.22 69.6096 80.32 69.2896 80.52C68.9696 80.71 68.7296 81.005 68.5696 81.405C68.4196 81.805 68.3446 82.31 68.3446 82.92V83.19C68.3446 83.8 68.4196 84.305 68.5696 84.705C68.7296 85.105 68.9696 85.405 69.2896 85.605C69.6096 85.795 70.0146 85.89 70.5046 85.89ZM78.6048 87.18C78.1548 87.18 77.7998 87.095 77.5398 86.925C77.2898 86.745 77.1098 86.52 76.9998 86.25C76.8998 85.97 76.8498 85.675 76.8498 85.365V80.4H75.8598V79.11H76.8798L77.1648 76.905H78.4098V79.11H79.8348V80.4H78.4098V85.185C78.4098 85.415 78.4598 85.59 78.5598 85.71C78.6598 85.83 78.8248 85.89 79.0548 85.89H79.8348V86.94C79.7348 86.98 79.6098 87.015 79.4598 87.045C79.3198 87.085 79.1748 87.115 79.0248 87.135C78.8748 87.165 78.7348 87.18 78.6048 87.18ZM85.2301 87.18C84.4201 87.18 83.7401 87.035 83.1901 86.745C82.6501 86.445 82.2401 85.99 81.9601 85.38C81.6801 84.77 81.5401 83.995 81.5401 83.055C81.5401 82.105 81.6801 81.33 81.9601 80.73C82.2401 80.12 82.6551 79.67 83.2051 79.38C83.7551 79.08 84.4401 78.93 85.2601 78.93C86.0101 78.93 86.6351 79.075 87.1351 79.365C87.6451 79.645 88.0301 80.075 88.2901 80.655C88.5501 81.235 88.6801 81.965 88.6801 82.845V83.445H83.1451C83.1651 84.005 83.2501 84.475 83.4001 84.855C83.5501 85.225 83.7751 85.5 84.0751 85.68C84.3851 85.85 84.7751 85.935 85.2451 85.935C85.5351 85.935 85.7951 85.9 86.0251 85.83C86.2551 85.75 86.4501 85.64 86.6101 85.5C86.7701 85.35 86.8951 85.175 86.9851 84.975C87.0751 84.765 87.1201 84.53 87.1201 84.27H88.6501C88.6501 84.74 88.5701 85.155 88.4101 85.515C88.2501 85.875 88.0151 86.18 87.7051 86.43C87.4051 86.67 87.0451 86.855 86.6251 86.985C86.2051 87.115 85.7401 87.18 85.2301 87.18ZM83.1751 82.305H87.0451C87.0451 81.915 87.0001 81.59 86.9101 81.33C86.8301 81.06 86.7101 80.84 86.5501 80.67C86.3901 80.5 86.2001 80.38 85.9801 80.31C85.7601 80.23 85.5101 80.19 85.2301 80.19C84.8101 80.19 84.4501 80.265 84.1501 80.415C83.8601 80.565 83.6351 80.8 83.4751 81.12C83.3151 81.43 83.2151 81.825 83.1751 82.305Z" fill="#616B67"/>
</svg>
