<svg width="864" height="826" viewBox="0 0 864 826" fill="none" xmlns="http://www.w3.org/2000/svg">
<path d="M40 42C40 40.8954 40.8954 40 42 40H822C823.105 40 824 40.8954 824 42V784C824 785.105 823.105 786 822 786H42C40.8954 786 40 785.105 40 784V42Z" fill="white"/>
<path d="M42 40V41H822V40V39H42V40ZM824 42H823V784H824H825V42H824ZM822 786V785H42V786V787H822V786ZM40 784H41V42H40H39V784H40ZM42 786V785C41.4477 785 41 784.552 41 784H40H39C39 785.657 40.3431 787 42 787V786ZM824 784H823C823 784.552 822.552 785 822 785V786V787C823.657 787 825 785.657 825 784H824ZM822 40V41C822.552 41 823 41.4477 823 42H824H825C825 40.3431 823.657 39 822 39V40ZM42 40V39C40.3431 39 39 40.3431 39 42H40H41C41 41.4477 41.4477 41 42 41V40Z" fill="white" fill-opacity="0.1"/>
<path d="M618.898 294.12L486.093 256.901C479.845 255.15 473.651 259.847 473.651 266.336V383.681C473.651 387.823 476.256 391.518 480.157 392.909L614.392 440.79C620.773 443.065 627.482 438.335 627.482 431.561V305.442C627.482 300.17 623.974 295.543 618.898 294.12Z" fill="#7B69E5" fill-opacity="0.16"/>
<path d="M496.187 287.708L550.078 302.406M538.32 316.123L496.187 304.365M496.187 323.962L523.622 331.8" stroke="#081D13" stroke-width="7.83855" stroke-linecap="round"/>
<path d="M497.715 226.034L482.471 227.939H489.33L629.444 266.152L636.303 268.112L640.222 272.031L641.202 275.951V419.004L640.222 436.641L637.283 440.56L646.5 434.634C649.305 432.832 651 429.726 651 426.392V270.764C651 266.314 648.001 262.423 643.699 261.289L514.048 227.124C508.723 225.721 503.179 225.351 497.715 226.034Z" fill="#081D13"/>
<path d="M476.591 248.516V237.768C476.591 231.326 482.701 226.637 488.924 228.304L633.937 267.146C638.221 268.294 641.201 272.176 641.201 276.611V292.608M476.591 248.516V382.627C476.591 386.806 479.241 390.525 483.192 391.888L506.285 399.861M476.591 248.516L641.201 292.608M641.201 292.608V432.691C641.201 439.423 634.568 444.149 628.205 441.952L571.077 422.23" stroke="#081D13" stroke-width="1.95964"/>
<path d="M388.406 287.708C389.37 291.016 385.561 291.365 385.467 289.668C357.125 192.901 238.963 256.285 269.848 334.739L279.015 350.958C281.136 354.711 285.468 356.649 289.662 355.652C304.916 352.024 315.47 348.578 330.659 342.558C333.664 341.367 337.177 341.694 339.496 343.947C342.176 346.552 343.702 349.185 344.587 352.948C345.118 355.205 347.3 356.774 349.549 356.212C351.548 355.712 352.772 353.712 352.441 351.679C350.241 338.166 354.13 333.299 365.87 327.881C378.608 322.002 422.7 292.606 432.498 277.909C442.296 263.212 428.388 261.21 422.7 263.212C408.113 269.234 399.506 272.452 385.52 273.747C384.112 273.878 383.267 275.396 383.893 276.665C385.915 280.766 386.702 283.141 388.406 287.708Z" fill="#081D13" stroke="#081D13" stroke-width="1.95964"/>
<ellipse cx="488.349" cy="239.697" rx="2.93946" ry="3.91928" transform="rotate(-11.8283 488.349 239.697)" fill="#07B386"/>
<ellipse cx="496.972" cy="242.833" rx="2.93946" ry="3.91928" transform="rotate(-11.2387 496.972 242.833)" fill="#F58A3C"/>
<ellipse cx="505.986" cy="245.577" rx="2.93946" ry="3.91928" transform="rotate(-9.58704 505.986 245.577)" fill="#F74A46"/>
<path d="M507.724 393.46V397.779L504.845 413.617L565.317 429.455L572.516 420.816L565.317 416.497L572.516 409.298L573.956 400.659L569.637 396.339L575.396 393.46L584.035 392.02L594.114 387.7L596.993 381.941L589.794 377.621H581.155H566.757L563.422 376.182L559.558 370.422H553.799L543.72 377.621L536.521 379.061L529.322 377.621L526.442 373.302L520.683 371.862L516.363 376.182L512.044 380.501H496.206L486.127 381.941L483.247 390.58L491.886 394.899L507.724 393.46Z" fill="white"/>
<path d="M287.486 404.307C297.252 385.519 296.852 377.726 293.365 365.114C301.522 374.733 300.781 383.823 293.365 404.307C312.225 406.973 322.764 408.028 342.356 419.984C347.255 409.206 339.454 390.559 347.255 378.831C401.145 416.065 394.561 370.1 392.327 324.941C400.166 355.316 406.761 410.1 362.932 393.529C352.473 401.82 348.679 407.802 347.255 421.943C363.096 431.788 371.848 437.86 385.468 457.217L432.124 525.829C433.699 528.145 437.125 528.109 438.652 525.761L486.39 452.318C499.148 433.006 502.989 420.314 505.986 395.488C505.986 395.488 488.349 397.448 483.45 395.488C478.551 393.529 478.551 380.791 487.369 378.831L541.259 376.872L536.36 380.791L493.248 383.731C488.319 383.653 484.43 391.569 492.269 392.549C500.107 393.529 530.481 389.609 530.481 389.609L543.219 375.892C554.977 360.215 567.331 369.992 564.775 376.872C570.654 377.852 578.759 385.654 569.674 399.408C575.553 397.448 580.165 403.165 570.654 415.085C580.452 425.863 563.834 436.316 537.34 445.459C509.867 521.651 490.731 558.806 467.773 585.573C445.637 615.409 416.517 596.361 384.279 569.405C383.338 568.618 383.273 567.192 384.14 566.325C384.896 565.57 386.109 565.513 386.941 566.183C416.268 589.812 433.051 602.839 454.056 579.694C471.441 552.251 486.39 536.582 502.067 511.107C517.744 485.632 524.665 470.618 533.421 441.54C548.109 437.856 566.735 425.863 568.694 423.903C570.654 421.943 569.674 418.024 567.715 418.024C566.141 418.024 553.824 423.08 549.034 425.071C548.815 425.162 548.644 424.851 548.841 424.718C554.262 421.052 570.815 409.702 571.634 407.246C572.614 404.307 573.716 400.261 569.674 400.387L550.437 412.297C549.689 412.886 549.207 413.191 549.098 413.125L550.437 412.297C555.039 408.666 569.723 394.218 569.674 388.63C569.617 382.134 565.951 380.442 563.795 382.751C557.33 391.21 553.523 394.846 547.119 397.972C546.923 398.067 546.745 397.821 546.895 397.663C554.783 389.362 559.905 380.645 560.856 375.892C561.836 370.993 557.259 370.539 553.997 371.973L525.08 401.822C524.279 402.649 522.956 402.66 522.141 401.846C521.336 401.04 521.336 399.735 522.141 398.929L527.542 393.529L509.905 394.509C505.006 407.246 509.33 422.322 498.147 441.54C475.273 480.16 461.841 502.598 438.66 534.179C437.081 536.33 433.856 536.299 432.318 534.12L411.923 505.228C394.875 538.252 384.287 556.278 363.912 577.735C320.43 538.831 310.962 522.019 303.164 500.329C324.66 535.874 338.565 549.472 363.912 571.856C382.335 548.529 391.953 533.19 408.004 502.289C374.69 436.641 333.776 408.176 287.486 408.226C253.193 415.085 227.069 486.107 214 559.118C217.663 488.74 253.21 407.522 287.486 404.307Z" fill="#081D13"/>
<path d="M589.27 375.891C579.586 374.99 574.224 374.987 564.775 375.891V376.871L566.734 377.851L569.674 378.831L589.27 379.81C593.95 380.235 595.149 384.71 591.23 386.669C587.31 388.629 573.593 393.528 573.593 393.528C579.493 393.398 582.938 392.94 589.27 391.568C603.967 387.649 601.378 378.702 589.27 375.891Z" fill="#081D13"/>
<path d="M516.764 377.852H511.865C511.865 367.073 530.482 367.073 531.462 376.871L526.563 376.871C524.603 370.992 517.497 373.019 516.764 377.852Z" fill="#081D13"/>
<rect x="40" y="4" width="79.0781" height="30" rx="3" fill="white"/>
<rect x="40.5" y="4.5" width="78.0781" height="29" rx="2.5" stroke="white" stroke-opacity="0.0980392"/>
<path d="M47.9375 14V22H46.9688V14H47.9375ZM49.8799 22V14H50.8486V21.1406H54.5674V22H49.8799ZM56.0674 22V14H57.0361V21.1406H60.7549V22H56.0674ZM65.9111 19.5469V16H66.833V22H65.9111V20.9844H65.8486C65.708 21.2891 65.4893 21.5482 65.1924 21.7617C64.8955 21.9727 64.5205 22.0781 64.0674 22.0781C63.6924 22.0781 63.359 21.9961 63.0674 21.832C62.7757 21.6654 62.5465 21.4154 62.3799 21.082C62.2132 20.7461 62.1299 20.3229 62.1299 19.8125V16H63.0518V19.75C63.0518 20.1875 63.1742 20.5365 63.4189 20.7969C63.6663 21.0573 63.9814 21.1875 64.3643 21.1875C64.5934 21.1875 64.8265 21.1289 65.0635 21.0117C65.3031 20.8945 65.5036 20.7148 65.665 20.4727C65.8291 20.2305 65.9111 19.9219 65.9111 19.5469ZM72.7715 17.3437L71.9434 17.5781C71.8913 17.4401 71.8145 17.306 71.7129 17.1758C71.6139 17.043 71.4785 16.9336 71.3066 16.8477C71.1348 16.7617 70.9147 16.7187 70.6465 16.7187C70.2793 16.7187 69.9733 16.8034 69.7285 16.9727C69.4863 17.1393 69.3652 17.3516 69.3652 17.6094C69.3652 17.8385 69.4486 18.0195 69.6152 18.1523C69.7819 18.2852 70.0423 18.3958 70.3965 18.4844L71.2871 18.7031C71.8236 18.8333 72.2233 19.0326 72.4863 19.3008C72.7493 19.5664 72.8809 19.9089 72.8809 20.3281C72.8809 20.6719 72.7819 20.9792 72.584 21.25C72.3887 21.5208 72.1152 21.7344 71.7637 21.8906C71.4121 22.0469 71.0033 22.125 70.5371 22.125C69.9251 22.125 69.4186 21.9922 69.0176 21.7266C68.6165 21.4609 68.3626 21.0729 68.2559 20.5625L69.1309 20.3437C69.2142 20.6667 69.3717 20.9089 69.6035 21.0703C69.8379 21.2318 70.1439 21.3125 70.5215 21.3125C70.9512 21.3125 71.2923 21.2214 71.5449 21.0391C71.8001 20.8542 71.9277 20.6328 71.9277 20.375C71.9277 20.1667 71.8548 19.9922 71.709 19.8516C71.5632 19.7083 71.3392 19.6016 71.0371 19.5312L70.0371 19.2969C69.4876 19.1667 69.084 18.9648 68.8262 18.6914C68.571 18.4154 68.4434 18.0703 68.4434 17.6562C68.4434 17.3177 68.5384 17.0182 68.7285 16.7578C68.9212 16.4974 69.1829 16.293 69.5137 16.1445C69.847 15.9961 70.2246 15.9219 70.6465 15.9219C71.2402 15.9219 71.7064 16.0521 72.0449 16.3125C72.3861 16.5729 72.6283 16.9167 72.7715 17.3437ZM76.8779 16V16.7812H73.7686V16H76.8779ZM74.6748 14.5625H75.5967V20.2812C75.5967 20.5417 75.6344 20.737 75.71 20.8672C75.7881 20.9948 75.887 21.0807 76.0068 21.125C76.1292 21.1667 76.2581 21.1875 76.3936 21.1875C76.4951 21.1875 76.5785 21.1823 76.6436 21.1719C76.7087 21.1589 76.7607 21.1484 76.7998 21.1406L76.9873 21.9687C76.9248 21.9922 76.8376 22.0156 76.7256 22.0391C76.6136 22.0651 76.4717 22.0781 76.2998 22.0781C76.0394 22.0781 75.7842 22.0221 75.5342 21.9102C75.2868 21.7982 75.0811 21.6276 74.917 21.3984C74.7555 21.1693 74.6748 20.8802 74.6748 20.5312V14.5625ZM78.2646 22V16H79.1553V16.9062H79.2178C79.3271 16.6094 79.5251 16.3685 79.8115 16.1836C80.098 15.9987 80.4209 15.9062 80.7803 15.9062C80.848 15.9062 80.9326 15.9076 81.0342 15.9102C81.1357 15.9128 81.2126 15.9167 81.2646 15.9219V16.8594C81.2334 16.8516 81.1618 16.8398 81.0498 16.8242C80.9404 16.806 80.8245 16.7969 80.7021 16.7969C80.4105 16.7969 80.1501 16.8581 79.9209 16.9805C79.6943 17.1003 79.5146 17.2669 79.3818 17.4805C79.2516 17.6914 79.1865 17.9323 79.1865 18.2031V22H78.2646ZM84.123 22.1406C83.7428 22.1406 83.3978 22.069 83.0879 21.9258C82.778 21.7799 82.5319 21.5703 82.3496 21.2969C82.1673 21.0208 82.0762 20.6875 82.0762 20.2969C82.0762 19.9531 82.1439 19.6745 82.2793 19.4609C82.4147 19.2448 82.5957 19.0755 82.8223 18.9531C83.0488 18.8307 83.2988 18.7396 83.5723 18.6797C83.8483 18.6172 84.1257 18.5677 84.4043 18.5313C84.7689 18.4844 85.0645 18.4492 85.291 18.4258C85.5202 18.3997 85.6868 18.3568 85.791 18.2969C85.8978 18.237 85.9512 18.1328 85.9512 17.9844V17.9531C85.9512 17.5677 85.8457 17.2682 85.6348 17.0547C85.4264 16.8411 85.11 16.7344 84.6855 16.7344C84.2454 16.7344 83.9004 16.8307 83.6504 17.0234C83.4004 17.2161 83.2246 17.4219 83.123 17.6406L82.248 17.3281C82.4043 16.9635 82.6126 16.6797 82.873 16.4766C83.1361 16.2708 83.4225 16.1276 83.7324 16.0469C84.0449 15.9635 84.3522 15.9219 84.6543 15.9219C84.847 15.9219 85.0684 15.9453 85.3184 15.9922C85.571 16.0365 85.8145 16.1289 86.0488 16.2695C86.2858 16.4102 86.4824 16.6224 86.6387 16.9062C86.7949 17.1901 86.873 17.5703 86.873 18.0469V22H85.9512V21.1875H85.9043C85.8418 21.3177 85.7376 21.457 85.5918 21.6055C85.446 21.7539 85.252 21.8802 85.0098 21.9844C84.7676 22.0885 84.472 22.1406 84.123 22.1406ZM84.2637 21.3125C84.6283 21.3125 84.9355 21.2409 85.1855 21.0977C85.4382 20.9544 85.6283 20.7695 85.7559 20.543C85.8861 20.3164 85.9512 20.0781 85.9512 19.8281V18.9844C85.9121 19.0312 85.8262 19.0742 85.6934 19.1133C85.5632 19.1497 85.4121 19.1823 85.2402 19.2109C85.071 19.237 84.9056 19.2604 84.7441 19.2812C84.5853 19.2995 84.4564 19.3151 84.3574 19.3281C84.1178 19.3594 83.8939 19.4102 83.6855 19.4805C83.4798 19.5482 83.3132 19.651 83.1855 19.7891C83.0605 19.9245 82.998 20.1094 82.998 20.3437C82.998 20.6641 83.1165 20.9062 83.3535 21.0703C83.5931 21.2318 83.8965 21.3125 84.2637 21.3125ZM91.165 16V16.7812H88.0557V16H91.165ZM88.9619 14.5625H89.8838V20.2812C89.8838 20.5417 89.9215 20.737 89.9971 20.8672C90.0752 20.9948 90.1742 21.0807 90.2939 21.125C90.4163 21.1667 90.5452 21.1875 90.6807 21.1875C90.7822 21.1875 90.8656 21.1823 90.9307 21.1719C90.9958 21.1589 91.0479 21.1484 91.0869 21.1406L91.2744 21.9687C91.2119 21.9922 91.1247 22.0156 91.0127 22.0391C90.9007 22.0651 90.7588 22.0781 90.5869 22.0781C90.3265 22.0781 90.0713 22.0221 89.8213 21.9102C89.5739 21.7982 89.3682 21.6276 89.2041 21.3984C89.0426 21.1693 88.9619 20.8802 88.9619 20.5312V14.5625ZM92.5518 22V16H93.4736V22H92.5518ZM93.0205 15C92.8408 15 92.6859 14.9388 92.5557 14.8164C92.4281 14.694 92.3643 14.5469 92.3643 14.375C92.3643 14.2031 92.4281 14.056 92.5557 13.9336C92.6859 13.8112 92.8408 13.75 93.0205 13.75C93.2002 13.75 93.3538 13.8112 93.4814 13.9336C93.6117 14.056 93.6768 14.2031 93.6768 14.375C93.6768 14.5469 93.6117 14.694 93.4814 14.8164C93.3538 14.9388 93.2002 15 93.0205 15ZM97.5996 22.125C97.0579 22.125 96.5827 21.9961 96.1738 21.7383C95.7676 21.4805 95.4499 21.1198 95.2207 20.6562C94.9941 20.1927 94.8809 19.651 94.8809 19.0312C94.8809 18.4062 94.9941 17.8607 95.2207 17.3945C95.4499 16.9284 95.7676 16.5664 96.1738 16.3086C96.5827 16.0508 97.0579 15.9219 97.5996 15.9219C98.1413 15.9219 98.6152 16.0508 99.0215 16.3086C99.4303 16.5664 99.748 16.9284 99.9746 17.3945C100.204 17.8607 100.318 18.4062 100.318 19.0312C100.318 19.651 100.204 20.1927 99.9746 20.6562C99.748 21.1198 99.4303 21.4805 99.0215 21.7383C98.6152 21.9961 98.1413 22.125 97.5996 22.125ZM97.5996 21.2969C98.0111 21.2969 98.3496 21.1914 98.6152 20.9805C98.8809 20.7695 99.0775 20.4922 99.2051 20.1484C99.3327 19.8047 99.3965 19.4323 99.3965 19.0312C99.3965 18.6302 99.3327 18.2565 99.2051 17.9102C99.0775 17.5638 98.8809 17.2839 98.6152 17.0703C98.3496 16.8568 98.0111 16.75 97.5996 16.75C97.1882 16.75 96.8496 16.8568 96.584 17.0703C96.3184 17.2839 96.1217 17.5638 95.9941 17.9102C95.8665 18.2565 95.8027 18.6302 95.8027 19.0312C95.8027 19.4323 95.8665 19.8047 95.9941 20.1484C96.1217 20.4922 96.3184 20.7695 96.584 20.9805C96.8496 21.1914 97.1882 21.2969 97.5996 21.2969ZM102.647 18.3906V22H101.726V16H102.616V16.9375H102.694C102.835 16.6328 103.049 16.388 103.335 16.2031C103.621 16.0156 103.991 15.9219 104.444 15.9219C104.851 15.9219 105.206 16.0052 105.511 16.1719C105.815 16.3359 106.052 16.5859 106.222 16.9219C106.391 17.2552 106.476 17.6771 106.476 18.1875V22H105.554V18.25C105.554 17.7786 105.431 17.4115 105.187 17.1484C104.942 16.8828 104.606 16.75 104.179 16.75C103.884 16.75 103.621 16.8138 103.39 16.9414C103.16 17.069 102.979 17.2552 102.847 17.5C102.714 17.7448 102.647 18.0417 102.647 18.3906ZM112.41 17.3437L111.582 17.5781C111.53 17.4401 111.453 17.306 111.352 17.1758C111.253 17.043 111.117 16.9336 110.945 16.8477C110.773 16.7617 110.553 16.7187 110.285 16.7187C109.918 16.7187 109.612 16.8034 109.367 16.9727C109.125 17.1393 109.004 17.3516 109.004 17.6094C109.004 17.8385 109.087 18.0195 109.254 18.1523C109.421 18.2852 109.681 18.3958 110.035 18.4844L110.926 18.7031C111.462 18.8333 111.862 19.0326 112.125 19.3008C112.388 19.5664 112.52 19.9089 112.52 20.3281C112.52 20.6719 112.421 20.9792 112.223 21.25C112.027 21.5208 111.754 21.7344 111.402 21.8906C111.051 22.0469 110.642 22.125 110.176 22.125C109.564 22.125 109.057 21.9922 108.656 21.7266C108.255 21.4609 108.001 21.0729 107.895 20.5625L108.77 20.3437C108.853 20.6667 109.01 20.9089 109.242 21.0703C109.477 21.2318 109.783 21.3125 110.16 21.3125C110.59 21.3125 110.931 21.2214 111.184 21.0391C111.439 20.8542 111.566 20.6328 111.566 20.375C111.566 20.1667 111.493 19.9922 111.348 19.8516C111.202 19.7083 110.978 19.6016 110.676 19.5312L109.676 19.2969C109.126 19.1667 108.723 18.9648 108.465 18.6914C108.21 18.4154 108.082 18.0703 108.082 17.6562C108.082 17.3177 108.177 17.0182 108.367 16.7578C108.56 16.4974 108.822 16.293 109.152 16.1445C109.486 15.9961 109.863 15.9219 110.285 15.9219C110.879 15.9219 111.345 16.0521 111.684 16.3125C112.025 16.5729 112.267 16.9167 112.41 17.3437Z" fill="black"/>
</svg>
