<svg width="1115" height="452" viewBox="0 0 1115 452" fill="none" xmlns="http://www.w3.org/2000/svg">
<rect x="0.5" y="0.5" width="1114" height="451" rx="4.5" stroke="#8A38F5" stroke-dasharray="10 5"/>
<rect x="20.5" y="46.5" width="519" height="41" rx="3.5" fill="white"/>
<rect x="20.5" y="46.5" width="519" height="41" rx="3.5" stroke="#E7E9E9"/>
<path d="M35.906 72.168C35.178 72.168 34.562 72.0327 34.058 71.762C33.5633 71.482 33.1853 71.0573 32.924 70.488C32.672 69.9187 32.546 69.1953 32.546 68.318C32.546 67.4313 32.672 66.708 32.924 66.148C33.1853 65.5787 33.568 65.1587 34.072 64.888C34.576 64.608 35.206 64.468 35.962 64.468C36.6527 64.468 37.2313 64.6033 37.698 64.874C38.1647 65.1353 38.5147 65.532 38.748 66.064C38.9907 66.5867 39.112 67.2447 39.112 68.038V68.626H33.82C33.8387 69.214 33.9227 69.6993 34.072 70.082C34.2307 70.4553 34.464 70.7307 34.772 70.908C35.08 71.076 35.4673 71.16 35.934 71.16C36.2513 71.16 36.5267 71.1227 36.76 71.048C37.0027 70.964 37.2033 70.8473 37.362 70.698C37.53 70.5487 37.656 70.3713 37.74 70.166C37.824 69.9607 37.8707 69.7367 37.88 69.494H39.084C39.0747 69.886 39 70.25 38.86 70.586C38.72 70.9127 38.5147 71.1927 38.244 71.426C37.9733 71.6593 37.642 71.8413 37.25 71.972C36.858 72.1027 36.41 72.168 35.906 72.168ZM33.848 67.702H37.838C37.838 67.2913 37.7913 66.946 37.698 66.666C37.6047 66.386 37.4693 66.1573 37.292 65.98C37.124 65.8027 36.9233 65.6767 36.69 65.602C36.466 65.518 36.2093 65.476 35.92 65.476C35.4907 65.476 35.1267 65.5553 34.828 65.714C34.5293 65.8727 34.3007 66.1153 34.142 66.442C33.9833 66.7687 33.8853 67.1887 33.848 67.702ZM40.6359 72V64.636H41.6299L41.7419 65.742H41.8399C42.0359 65.4433 42.2553 65.2007 42.4979 65.014C42.7499 64.8273 43.0253 64.692 43.3239 64.608C43.6319 64.5147 43.9586 64.468 44.3039 64.468C44.7706 64.468 45.1766 64.5473 45.5219 64.706C45.8766 64.8647 46.1519 65.1213 46.3479 65.476C46.5533 65.8307 46.6559 66.3113 46.6559 66.918V72H45.4239V67.086C45.4239 66.778 45.3819 66.526 45.2979 66.33C45.2233 66.134 45.1159 65.98 44.9759 65.868C44.8453 65.756 44.6819 65.6767 44.4859 65.63C44.2993 65.5833 44.0893 65.56 43.8559 65.56C43.5106 65.56 43.1839 65.644 42.8759 65.812C42.5679 65.98 42.3206 66.2227 42.1339 66.54C41.9566 66.8573 41.8679 67.2353 41.8679 67.674V72H40.6359ZM50.2466 72.168C49.8639 72.168 49.5653 72.098 49.3506 71.958C49.1359 71.8087 48.9819 71.6173 48.8886 71.384C48.7953 71.1413 48.7486 70.8847 48.7486 70.614V65.672H47.7966V64.636H48.7766L49.0006 62.578H49.9806V64.636H51.3666V65.672H49.9806V70.432C49.9806 70.6653 50.0226 70.8427 50.1066 70.964C50.1906 71.076 50.3493 71.132 50.5826 71.132H51.3666V71.944C51.2733 71.9907 51.1613 72.028 51.0306 72.056C50.8999 72.084 50.7646 72.1073 50.6246 72.126C50.4939 72.154 50.3679 72.168 50.2466 72.168ZM55.6208 72.168C54.8928 72.168 54.2768 72.0327 53.7728 71.762C53.2782 71.482 52.9002 71.0573 52.6388 70.488C52.3868 69.9187 52.2608 69.1953 52.2608 68.318C52.2608 67.4313 52.3868 66.708 52.6388 66.148C52.9002 65.5787 53.2828 65.1587 53.7868 64.888C54.2908 64.608 54.9208 64.468 55.6768 64.468C56.3675 64.468 56.9462 64.6033 57.4128 64.874C57.8795 65.1353 58.2295 65.532 58.4628 66.064C58.7055 66.5867 58.8268 67.2447 58.8268 68.038V68.626H53.5348C53.5535 69.214 53.6375 69.6993 53.7868 70.082C53.9455 70.4553 54.1788 70.7307 54.4868 70.908C54.7948 71.076 55.1822 71.16 55.6488 71.16C55.9662 71.16 56.2415 71.1227 56.4748 71.048C56.7175 70.964 56.9182 70.8473 57.0768 70.698C57.2448 70.5487 57.3708 70.3713 57.4548 70.166C57.5388 69.9607 57.5855 69.7367 57.5948 69.494H58.7988C58.7895 69.886 58.7148 70.25 58.5748 70.586C58.4348 70.9127 58.2295 71.1927 57.9588 71.426C57.6882 71.6593 57.3568 71.8413 56.9648 71.972C56.5728 72.1027 56.1248 72.168 55.6208 72.168ZM53.5628 67.702H57.5528C57.5528 67.2913 57.5062 66.946 57.4128 66.666C57.3195 66.386 57.1842 66.1573 57.0068 65.98C56.8388 65.8027 56.6382 65.6767 56.4048 65.602C56.1808 65.518 55.9242 65.476 55.6348 65.476C55.2055 65.476 54.8415 65.5553 54.5428 65.714C54.2442 65.8727 54.0155 66.1153 53.8568 66.442C53.6982 66.7687 53.6002 67.1887 53.5628 67.702ZM60.3508 72V64.636H61.3448L61.4568 65.854H61.5548C61.6294 65.6207 61.7321 65.4013 61.8628 65.196C61.9934 64.9813 62.1708 64.8087 62.3948 64.678C62.6188 64.538 62.8941 64.468 63.2208 64.468C63.3608 64.468 63.4868 64.482 63.5988 64.51C63.7201 64.5287 63.8088 64.552 63.8648 64.58V65.714H63.4028C63.0854 65.714 62.8101 65.77 62.5768 65.882C62.3528 65.9847 62.1661 66.134 62.0168 66.33C61.8674 66.526 61.7554 66.7593 61.6808 67.03C61.6154 67.3007 61.5828 67.59 61.5828 67.898V72H60.3508Z" fill="#A8AFAC"/>
<path d="M511.79 63.0002H520.21C520.542 62.9997 520.868 63.0934 521.15 63.2703C521.431 63.4473 521.657 63.7003 521.8 64.0002C521.968 64.3559 522.033 64.7517 521.987 65.1424C521.941 65.5332 521.786 65.9031 521.54 66.2102L517.33 71.3102C517.165 71.5008 516.961 71.6537 516.731 71.7585C516.502 71.8633 516.252 71.9175 516 71.9175C515.748 71.9175 515.498 71.8633 515.269 71.7585C515.04 71.6537 514.835 71.5008 514.67 71.3102L510.46 66.2102C510.214 65.9031 510.059 65.5332 510.013 65.1424C509.967 64.7517 510.032 64.3559 510.2 64.0002C510.344 63.7003 510.569 63.4473 510.85 63.2703C511.132 63.0934 511.458 62.9997 511.79 63.0002Z" fill="#838C88"/>
<path d="M23.486 34V25.74H20.308V24.396H28.26V25.74H25.054V34H23.486ZM29.5103 25.362V23.878H30.9663V25.362H29.5103ZM29.5103 34V26.636H30.9663V34H29.5103ZM34.6802 34.168C34.2602 34.168 33.9289 34.0887 33.6862 33.93C33.4529 33.762 33.2849 33.552 33.1822 33.3C33.0889 33.0387 33.0422 32.7633 33.0422 32.474V27.84H32.1182V26.636H33.0702L33.3362 24.578H34.4982V26.636H35.8282V27.84H34.4982V32.306C34.4982 32.5207 34.5449 32.684 34.6382 32.796C34.7315 32.908 34.8855 32.964 35.1002 32.964H35.8282V33.944C35.7349 33.9813 35.6182 34.014 35.4782 34.042C35.3475 34.0793 35.2122 34.1073 35.0722 34.126C34.9322 34.154 34.8015 34.168 34.6802 34.168ZM37.1118 34V23.878H38.5678V34H37.1118ZM43.4998 34.168C42.7438 34.168 42.1091 34.0327 41.5958 33.762C41.0918 33.482 40.7091 33.0573 40.4478 32.488C40.1864 31.9187 40.0558 31.1953 40.0558 30.318C40.0558 29.4313 40.1864 28.708 40.4478 28.148C40.7091 27.5787 41.0964 27.1587 41.6098 26.888C42.1231 26.608 42.7624 26.468 43.5278 26.468C44.2278 26.468 44.8111 26.6033 45.2778 26.874C45.7538 27.1353 46.1131 27.5367 46.3558 28.078C46.5984 28.6193 46.7198 29.3007 46.7198 30.122V30.682H41.5538C41.5724 31.2047 41.6518 31.6433 41.7918 31.998C41.9318 32.3433 42.1418 32.6 42.4218 32.768C42.7111 32.9267 43.0751 33.006 43.5138 33.006C43.7844 33.006 44.0271 32.9733 44.2418 32.908C44.4564 32.8333 44.6384 32.7307 44.7878 32.6C44.9371 32.46 45.0538 32.2967 45.1378 32.11C45.2218 31.914 45.2638 31.6947 45.2638 31.452H46.6918C46.6918 31.8907 46.6171 32.278 46.4678 32.614C46.3184 32.95 46.0991 33.2347 45.8098 33.468C45.5298 33.692 45.1938 33.8647 44.8018 33.986C44.4098 34.1073 43.9758 34.168 43.4998 34.168ZM41.5818 29.618H45.1938C45.1938 29.254 45.1518 28.9507 45.0678 28.708C44.9931 28.456 44.8811 28.2507 44.7318 28.092C44.5824 27.9333 44.4051 27.8213 44.1998 27.756C43.9944 27.6813 43.7611 27.644 43.4998 27.644C43.1078 27.644 42.7718 27.714 42.4918 27.854C42.2211 27.994 42.0111 28.2133 41.8618 28.512C41.7124 28.8013 41.6191 29.17 41.5818 29.618Z" fill="#081D13"/>
<path d="M52.4848 29.366L52.6388 27.476L51.1688 28.554L50.6648 27.672L52.2888 26.874L50.6648 26.062L51.1688 25.194L52.6388 26.286L52.4848 24.382H53.4788L53.3248 26.286L54.7948 25.194L55.2988 26.062L53.6608 26.874L55.2988 27.672L54.7948 28.554L53.3248 27.476L53.4788 29.366H52.4848Z" fill="#F74A46"/>
<rect x="575.5" y="46.5" width="519" height="61" rx="3.5" fill="white"/>
<rect x="575.5" y="46.5" width="519" height="61" rx="3.5" stroke="#E7E9E9"/>
<path d="M590.906 66.168C590.178 66.168 589.562 66.0327 589.058 65.762C588.563 65.482 588.185 65.0573 587.924 64.488C587.672 63.9187 587.546 63.1953 587.546 62.318C587.546 61.4313 587.672 60.708 587.924 60.148C588.185 59.5787 588.568 59.1587 589.072 58.888C589.576 58.608 590.206 58.468 590.962 58.468C591.653 58.468 592.231 58.6033 592.698 58.874C593.165 59.1353 593.515 59.532 593.748 60.064C593.991 60.5867 594.112 61.2447 594.112 62.038V62.626H588.82C588.839 63.214 588.923 63.6993 589.072 64.082C589.231 64.4553 589.464 64.7307 589.772 64.908C590.08 65.076 590.467 65.16 590.934 65.16C591.251 65.16 591.527 65.1227 591.76 65.048C592.003 64.964 592.203 64.8473 592.362 64.698C592.53 64.5487 592.656 64.3713 592.74 64.166C592.824 63.9607 592.871 63.7367 592.88 63.494H594.084C594.075 63.886 594 64.25 593.86 64.586C593.72 64.9127 593.515 65.1927 593.244 65.426C592.973 65.6593 592.642 65.8413 592.25 65.972C591.858 66.1027 591.41 66.168 590.906 66.168ZM588.848 61.702H592.838C592.838 61.2913 592.791 60.946 592.698 60.666C592.605 60.386 592.469 60.1573 592.292 59.98C592.124 59.8027 591.923 59.6767 591.69 59.602C591.466 59.518 591.209 59.476 590.92 59.476C590.491 59.476 590.127 59.5553 589.828 59.714C589.529 59.8727 589.301 60.1153 589.142 60.442C588.983 60.7687 588.885 61.1887 588.848 61.702ZM595.636 66V58.636H596.63L596.742 59.742H596.84C597.036 59.4433 597.255 59.2007 597.498 59.014C597.75 58.8273 598.025 58.692 598.324 58.608C598.632 58.5147 598.959 58.468 599.304 58.468C599.771 58.468 600.177 58.5473 600.522 58.706C600.877 58.8647 601.152 59.1213 601.348 59.476C601.553 59.8307 601.656 60.3113 601.656 60.918V66H600.424V61.086C600.424 60.778 600.382 60.526 600.298 60.33C600.223 60.134 600.116 59.98 599.976 59.868C599.845 59.756 599.682 59.6767 599.486 59.63C599.299 59.5833 599.089 59.56 598.856 59.56C598.511 59.56 598.184 59.644 597.876 59.812C597.568 59.98 597.321 60.2227 597.134 60.54C596.957 60.8573 596.868 61.2353 596.868 61.674V66H595.636ZM605.247 66.168C604.864 66.168 604.565 66.098 604.351 65.958C604.136 65.8087 603.982 65.6173 603.889 65.384C603.795 65.1413 603.749 64.8847 603.749 64.614V59.672H602.797V58.636H603.777L604.001 56.578H604.981V58.636H606.367V59.672H604.981V64.432C604.981 64.6653 605.023 64.8427 605.107 64.964C605.191 65.076 605.349 65.132 605.583 65.132H606.367V65.944C606.273 65.9907 606.161 66.028 606.031 66.056C605.9 66.084 605.765 66.1073 605.625 66.126C605.494 66.154 605.368 66.168 605.247 66.168ZM610.621 66.168C609.893 66.168 609.277 66.0327 608.773 65.762C608.278 65.482 607.9 65.0573 607.639 64.488C607.387 63.9187 607.261 63.1953 607.261 62.318C607.261 61.4313 607.387 60.708 607.639 60.148C607.9 59.5787 608.283 59.1587 608.787 58.888C609.291 58.608 609.921 58.468 610.677 58.468C611.368 58.468 611.946 58.6033 612.413 58.874C612.88 59.1353 613.23 59.532 613.463 60.064C613.706 60.5867 613.827 61.2447 613.827 62.038V62.626H608.535C608.554 63.214 608.638 63.6993 608.787 64.082C608.946 64.4553 609.179 64.7307 609.487 64.908C609.795 65.076 610.182 65.16 610.649 65.16C610.966 65.16 611.242 65.1227 611.475 65.048C611.718 64.964 611.918 64.8473 612.077 64.698C612.245 64.5487 612.371 64.3713 612.455 64.166C612.539 63.9607 612.586 63.7367 612.595 63.494H613.799C613.79 63.886 613.715 64.25 613.575 64.586C613.435 64.9127 613.23 65.1927 612.959 65.426C612.688 65.6593 612.357 65.8413 611.965 65.972C611.573 66.1027 611.125 66.168 610.621 66.168ZM608.563 61.702H612.553C612.553 61.2913 612.506 60.946 612.413 60.666C612.32 60.386 612.184 60.1573 612.007 59.98C611.839 59.8027 611.638 59.6767 611.405 59.602C611.181 59.518 610.924 59.476 610.635 59.476C610.206 59.476 609.842 59.5553 609.543 59.714C609.244 59.8727 609.016 60.1153 608.857 60.442C608.698 60.7687 608.6 61.1887 608.563 61.702ZM615.351 66V58.636H616.345L616.457 59.854H616.555C616.629 59.6207 616.732 59.4013 616.863 59.196C616.993 58.9813 617.171 58.8087 617.395 58.678C617.619 58.538 617.894 58.468 618.221 58.468C618.361 58.468 618.487 58.482 618.599 58.51C618.72 58.5287 618.809 58.552 618.865 58.58V59.714H618.403C618.085 59.714 617.81 59.77 617.577 59.882C617.353 59.9847 617.166 60.134 617.017 60.33C616.867 60.526 616.755 60.7593 616.681 61.03C616.615 61.3007 616.583 61.59 616.583 61.898V66H615.351Z" fill="#A8AFAC"/>
<path d="M578.486 34V25.74H575.308V24.396H583.26V25.74H580.054V34H578.486ZM584.51 25.362V23.878H585.966V25.362H584.51ZM584.51 34V26.636H585.966V34H584.51ZM589.68 34.168C589.26 34.168 588.929 34.0887 588.686 33.93C588.453 33.762 588.285 33.552 588.182 33.3C588.089 33.0387 588.042 32.7633 588.042 32.474V27.84H587.118V26.636H588.07L588.336 24.578H589.498V26.636H590.828V27.84H589.498V32.306C589.498 32.5207 589.545 32.684 589.638 32.796C589.732 32.908 589.886 32.964 590.1 32.964H590.828V33.944C590.735 33.9813 590.618 34.014 590.478 34.042C590.348 34.0793 590.212 34.1073 590.072 34.126C589.932 34.154 589.802 34.168 589.68 34.168ZM592.112 34V23.878H593.568V34H592.112ZM598.5 34.168C597.744 34.168 597.109 34.0327 596.596 33.762C596.092 33.482 595.709 33.0573 595.448 32.488C595.186 31.9187 595.056 31.1953 595.056 30.318C595.056 29.4313 595.186 28.708 595.448 28.148C595.709 27.5787 596.096 27.1587 596.61 26.888C597.123 26.608 597.762 26.468 598.528 26.468C599.228 26.468 599.811 26.6033 600.278 26.874C600.754 27.1353 601.113 27.5367 601.356 28.078C601.598 28.6193 601.72 29.3007 601.72 30.122V30.682H596.554C596.572 31.2047 596.652 31.6433 596.792 31.998C596.932 32.3433 597.142 32.6 597.422 32.768C597.711 32.9267 598.075 33.006 598.514 33.006C598.784 33.006 599.027 32.9733 599.242 32.908C599.456 32.8333 599.638 32.7307 599.788 32.6C599.937 32.46 600.054 32.2967 600.138 32.11C600.222 31.914 600.264 31.6947 600.264 31.452H601.692C601.692 31.8907 601.617 32.278 601.468 32.614C601.318 32.95 601.099 33.2347 600.81 33.468C600.53 33.692 600.194 33.8647 599.802 33.986C599.41 34.1073 598.976 34.168 598.5 34.168ZM596.582 29.618H600.194C600.194 29.254 600.152 28.9507 600.068 28.708C599.993 28.456 599.881 28.2507 599.732 28.092C599.582 27.9333 599.405 27.8213 599.2 27.756C598.994 27.6813 598.761 27.644 598.5 27.644C598.108 27.644 597.772 27.714 597.492 27.854C597.221 27.994 597.011 28.2133 596.862 28.512C596.712 28.8013 596.619 29.17 596.582 29.618ZM607.485 29.366L607.639 27.476L606.169 28.554L605.665 27.672L607.289 26.874L605.665 26.062L606.169 25.194L607.639 26.286L607.485 24.382H608.479L608.325 26.286L609.795 25.194L610.299 26.062L608.661 26.874L610.299 27.672L609.795 28.554L608.325 27.476L608.479 29.366H607.485Z" fill="#081D13"/>
<rect x="20.6" y="134.6" width="518.8" height="40.8" rx="3.4" fill="white"/>
<rect x="20.6" y="134.6" width="518.8" height="40.8" rx="3.4" stroke="#018270" stroke-width="1.2"/>
<path d="M35.906 160.168C35.178 160.168 34.562 160.033 34.058 159.762C33.5633 159.482 33.1853 159.057 32.924 158.488C32.672 157.919 32.546 157.195 32.546 156.318C32.546 155.431 32.672 154.708 32.924 154.148C33.1853 153.579 33.568 153.159 34.072 152.888C34.576 152.608 35.206 152.468 35.962 152.468C36.6527 152.468 37.2313 152.603 37.698 152.874C38.1647 153.135 38.5147 153.532 38.748 154.064C38.9907 154.587 39.112 155.245 39.112 156.038V156.626H33.82C33.8387 157.214 33.9227 157.699 34.072 158.082C34.2307 158.455 34.464 158.731 34.772 158.908C35.08 159.076 35.4673 159.16 35.934 159.16C36.2513 159.16 36.5267 159.123 36.76 159.048C37.0027 158.964 37.2033 158.847 37.362 158.698C37.53 158.549 37.656 158.371 37.74 158.166C37.824 157.961 37.8707 157.737 37.88 157.494H39.084C39.0747 157.886 39 158.25 38.86 158.586C38.72 158.913 38.5147 159.193 38.244 159.426C37.9733 159.659 37.642 159.841 37.25 159.972C36.858 160.103 36.41 160.168 35.906 160.168ZM33.848 155.702H37.838C37.838 155.291 37.7913 154.946 37.698 154.666C37.6047 154.386 37.4693 154.157 37.292 153.98C37.124 153.803 36.9233 153.677 36.69 153.602C36.466 153.518 36.2093 153.476 35.92 153.476C35.4907 153.476 35.1267 153.555 34.828 153.714C34.5293 153.873 34.3007 154.115 34.142 154.442C33.9833 154.769 33.8853 155.189 33.848 155.702ZM40.6359 160V152.636H41.6299L41.7419 153.742H41.8399C42.0359 153.443 42.2553 153.201 42.4979 153.014C42.7499 152.827 43.0253 152.692 43.3239 152.608C43.6319 152.515 43.9586 152.468 44.3039 152.468C44.7706 152.468 45.1766 152.547 45.5219 152.706C45.8766 152.865 46.1519 153.121 46.3479 153.476C46.5533 153.831 46.6559 154.311 46.6559 154.918V160H45.4239V155.086C45.4239 154.778 45.3819 154.526 45.2979 154.33C45.2233 154.134 45.1159 153.98 44.9759 153.868C44.8453 153.756 44.6819 153.677 44.4859 153.63C44.2993 153.583 44.0893 153.56 43.8559 153.56C43.5106 153.56 43.1839 153.644 42.8759 153.812C42.5679 153.98 42.3206 154.223 42.1339 154.54C41.9566 154.857 41.8679 155.235 41.8679 155.674V160H40.6359ZM50.2466 160.168C49.8639 160.168 49.5653 160.098 49.3506 159.958C49.1359 159.809 48.9819 159.617 48.8886 159.384C48.7953 159.141 48.7486 158.885 48.7486 158.614V153.672H47.7966V152.636H48.7766L49.0006 150.578H49.9806V152.636H51.3666V153.672H49.9806V158.432C49.9806 158.665 50.0226 158.843 50.1066 158.964C50.1906 159.076 50.3493 159.132 50.5826 159.132H51.3666V159.944C51.2733 159.991 51.1613 160.028 51.0306 160.056C50.8999 160.084 50.7646 160.107 50.6246 160.126C50.4939 160.154 50.3679 160.168 50.2466 160.168ZM55.6208 160.168C54.8928 160.168 54.2768 160.033 53.7728 159.762C53.2782 159.482 52.9002 159.057 52.6388 158.488C52.3868 157.919 52.2608 157.195 52.2608 156.318C52.2608 155.431 52.3868 154.708 52.6388 154.148C52.9002 153.579 53.2828 153.159 53.7868 152.888C54.2908 152.608 54.9208 152.468 55.6768 152.468C56.3675 152.468 56.9462 152.603 57.4128 152.874C57.8795 153.135 58.2295 153.532 58.4628 154.064C58.7055 154.587 58.8268 155.245 58.8268 156.038V156.626H53.5348C53.5535 157.214 53.6375 157.699 53.7868 158.082C53.9455 158.455 54.1788 158.731 54.4868 158.908C54.7948 159.076 55.1822 159.16 55.6488 159.16C55.9662 159.16 56.2415 159.123 56.4748 159.048C56.7175 158.964 56.9182 158.847 57.0768 158.698C57.2448 158.549 57.3708 158.371 57.4548 158.166C57.5388 157.961 57.5855 157.737 57.5948 157.494H58.7988C58.7895 157.886 58.7148 158.25 58.5748 158.586C58.4348 158.913 58.2295 159.193 57.9588 159.426C57.6882 159.659 57.3568 159.841 56.9648 159.972C56.5728 160.103 56.1248 160.168 55.6208 160.168ZM53.5628 155.702H57.5528C57.5528 155.291 57.5062 154.946 57.4128 154.666C57.3195 154.386 57.1842 154.157 57.0068 153.98C56.8388 153.803 56.6382 153.677 56.4048 153.602C56.1808 153.518 55.9242 153.476 55.6348 153.476C55.2055 153.476 54.8415 153.555 54.5428 153.714C54.2442 153.873 54.0155 154.115 53.8568 154.442C53.6982 154.769 53.6002 155.189 53.5628 155.702ZM60.3508 160V152.636H61.3448L61.4568 153.854H61.5548C61.6294 153.621 61.7321 153.401 61.8628 153.196C61.9934 152.981 62.1708 152.809 62.3948 152.678C62.6188 152.538 62.8941 152.468 63.2208 152.468C63.3608 152.468 63.4868 152.482 63.5988 152.51C63.7201 152.529 63.8088 152.552 63.8648 152.58V153.714H63.4028C63.0854 153.714 62.8101 153.77 62.5768 153.882C62.3528 153.985 62.1661 154.134 62.0168 154.33C61.8674 154.526 61.7554 154.759 61.6808 155.03C61.6154 155.301 61.5828 155.59 61.5828 155.898V160H60.3508Z" fill="#A8AFAC"/>
<path d="M511.79 151H520.21C520.542 151 520.868 151.093 521.15 151.27C521.431 151.447 521.657 151.7 521.8 152C521.968 152.356 522.033 152.752 521.987 153.142C521.941 153.533 521.786 153.903 521.54 154.21L517.33 159.31C517.165 159.501 516.961 159.654 516.731 159.758C516.502 159.863 516.252 159.917 516 159.917C515.748 159.917 515.498 159.863 515.269 159.758C515.04 159.654 514.835 159.501 514.67 159.31L510.46 154.21C510.214 153.903 510.059 153.533 510.013 153.142C509.967 152.752 510.032 152.356 510.2 152C510.344 151.7 510.569 151.447 510.85 151.27C511.132 151.093 511.458 151 511.79 151Z" fill="#838C88"/>
<path d="M23.486 122V113.74H20.308V112.396H28.26V113.74H25.054V122H23.486ZM29.5103 113.362V111.878H30.9663V113.362H29.5103ZM29.5103 122V114.636H30.9663V122H29.5103ZM34.6802 122.168C34.2602 122.168 33.9289 122.089 33.6862 121.93C33.4529 121.762 33.2849 121.552 33.1822 121.3C33.0889 121.039 33.0422 120.763 33.0422 120.474V115.84H32.1182V114.636H33.0702L33.3362 112.578H34.4982V114.636H35.8282V115.84H34.4982V120.306C34.4982 120.521 34.5449 120.684 34.6382 120.796C34.7315 120.908 34.8855 120.964 35.1002 120.964H35.8282V121.944C35.7349 121.981 35.6182 122.014 35.4782 122.042C35.3475 122.079 35.2122 122.107 35.0722 122.126C34.9322 122.154 34.8015 122.168 34.6802 122.168ZM37.1118 122V111.878H38.5678V122H37.1118ZM43.4998 122.168C42.7438 122.168 42.1091 122.033 41.5958 121.762C41.0918 121.482 40.7091 121.057 40.4478 120.488C40.1864 119.919 40.0558 119.195 40.0558 118.318C40.0558 117.431 40.1864 116.708 40.4478 116.148C40.7091 115.579 41.0964 115.159 41.6098 114.888C42.1231 114.608 42.7624 114.468 43.5278 114.468C44.2278 114.468 44.8111 114.603 45.2778 114.874C45.7538 115.135 46.1131 115.537 46.3558 116.078C46.5984 116.619 46.7198 117.301 46.7198 118.122V118.682H41.5538C41.5724 119.205 41.6518 119.643 41.7918 119.998C41.9318 120.343 42.1418 120.6 42.4218 120.768C42.7111 120.927 43.0751 121.006 43.5138 121.006C43.7844 121.006 44.0271 120.973 44.2418 120.908C44.4564 120.833 44.6384 120.731 44.7878 120.6C44.9371 120.46 45.0538 120.297 45.1378 120.11C45.2218 119.914 45.2638 119.695 45.2638 119.452H46.6918C46.6918 119.891 46.6171 120.278 46.4678 120.614C46.3184 120.95 46.0991 121.235 45.8098 121.468C45.5298 121.692 45.1938 121.865 44.8018 121.986C44.4098 122.107 43.9758 122.168 43.4998 122.168ZM41.5818 117.618H45.1938C45.1938 117.254 45.1518 116.951 45.0678 116.708C44.9931 116.456 44.8811 116.251 44.7318 116.092C44.5824 115.933 44.4051 115.821 44.1998 115.756C43.9944 115.681 43.7611 115.644 43.4998 115.644C43.1078 115.644 42.7718 115.714 42.4918 115.854C42.2211 115.994 42.0111 116.213 41.8618 116.512C41.7124 116.801 41.6191 117.17 41.5818 117.618ZM52.4848 117.366L52.6388 115.476L51.1688 116.554L50.6648 115.672L52.2888 114.874L50.6648 114.062L51.1688 113.194L52.6388 114.286L52.4848 112.382H53.4788L53.3248 114.286L54.7948 113.194L55.2988 114.062L53.6608 114.874L55.2988 115.672L54.7948 116.554L53.3248 115.476L53.4788 117.366H52.4848Z" fill="#081D13"/>
<rect x="575.6" y="154.6" width="518.8" height="60.8" rx="3.4" fill="white"/>
<rect x="575.6" y="154.6" width="518.8" height="60.8" rx="3.4" stroke="#018270" stroke-width="1.2"/>
<path d="M590.906 174.168C590.178 174.168 589.562 174.033 589.058 173.762C588.563 173.482 588.185 173.057 587.924 172.488C587.672 171.919 587.546 171.195 587.546 170.318C587.546 169.431 587.672 168.708 587.924 168.148C588.185 167.579 588.568 167.159 589.072 166.888C589.576 166.608 590.206 166.468 590.962 166.468C591.653 166.468 592.231 166.603 592.698 166.874C593.165 167.135 593.515 167.532 593.748 168.064C593.991 168.587 594.112 169.245 594.112 170.038V170.626H588.82C588.839 171.214 588.923 171.699 589.072 172.082C589.231 172.455 589.464 172.731 589.772 172.908C590.08 173.076 590.467 173.16 590.934 173.16C591.251 173.16 591.527 173.123 591.76 173.048C592.003 172.964 592.203 172.847 592.362 172.698C592.53 172.549 592.656 172.371 592.74 172.166C592.824 171.961 592.871 171.737 592.88 171.494H594.084C594.075 171.886 594 172.25 593.86 172.586C593.72 172.913 593.515 173.193 593.244 173.426C592.973 173.659 592.642 173.841 592.25 173.972C591.858 174.103 591.41 174.168 590.906 174.168ZM588.848 169.702H592.838C592.838 169.291 592.791 168.946 592.698 168.666C592.605 168.386 592.469 168.157 592.292 167.98C592.124 167.803 591.923 167.677 591.69 167.602C591.466 167.518 591.209 167.476 590.92 167.476C590.491 167.476 590.127 167.555 589.828 167.714C589.529 167.873 589.301 168.115 589.142 168.442C588.983 168.769 588.885 169.189 588.848 169.702ZM595.636 174V166.636H596.63L596.742 167.742H596.84C597.036 167.443 597.255 167.201 597.498 167.014C597.75 166.827 598.025 166.692 598.324 166.608C598.632 166.515 598.959 166.468 599.304 166.468C599.771 166.468 600.177 166.547 600.522 166.706C600.877 166.865 601.152 167.121 601.348 167.476C601.553 167.831 601.656 168.311 601.656 168.918V174H600.424V169.086C600.424 168.778 600.382 168.526 600.298 168.33C600.223 168.134 600.116 167.98 599.976 167.868C599.845 167.756 599.682 167.677 599.486 167.63C599.299 167.583 599.089 167.56 598.856 167.56C598.511 167.56 598.184 167.644 597.876 167.812C597.568 167.98 597.321 168.223 597.134 168.54C596.957 168.857 596.868 169.235 596.868 169.674V174H595.636ZM605.247 174.168C604.864 174.168 604.565 174.098 604.351 173.958C604.136 173.809 603.982 173.617 603.889 173.384C603.795 173.141 603.749 172.885 603.749 172.614V167.672H602.797V166.636H603.777L604.001 164.578H604.981V166.636H606.367V167.672H604.981V172.432C604.981 172.665 605.023 172.843 605.107 172.964C605.191 173.076 605.349 173.132 605.583 173.132H606.367V173.944C606.273 173.991 606.161 174.028 606.031 174.056C605.9 174.084 605.765 174.107 605.625 174.126C605.494 174.154 605.368 174.168 605.247 174.168ZM610.621 174.168C609.893 174.168 609.277 174.033 608.773 173.762C608.278 173.482 607.9 173.057 607.639 172.488C607.387 171.919 607.261 171.195 607.261 170.318C607.261 169.431 607.387 168.708 607.639 168.148C607.9 167.579 608.283 167.159 608.787 166.888C609.291 166.608 609.921 166.468 610.677 166.468C611.368 166.468 611.946 166.603 612.413 166.874C612.88 167.135 613.23 167.532 613.463 168.064C613.706 168.587 613.827 169.245 613.827 170.038V170.626H608.535C608.554 171.214 608.638 171.699 608.787 172.082C608.946 172.455 609.179 172.731 609.487 172.908C609.795 173.076 610.182 173.16 610.649 173.16C610.966 173.16 611.242 173.123 611.475 173.048C611.718 172.964 611.918 172.847 612.077 172.698C612.245 172.549 612.371 172.371 612.455 172.166C612.539 171.961 612.586 171.737 612.595 171.494H613.799C613.79 171.886 613.715 172.25 613.575 172.586C613.435 172.913 613.23 173.193 612.959 173.426C612.688 173.659 612.357 173.841 611.965 173.972C611.573 174.103 611.125 174.168 610.621 174.168ZM608.563 169.702H612.553C612.553 169.291 612.506 168.946 612.413 168.666C612.32 168.386 612.184 168.157 612.007 167.98C611.839 167.803 611.638 167.677 611.405 167.602C611.181 167.518 610.924 167.476 610.635 167.476C610.206 167.476 609.842 167.555 609.543 167.714C609.244 167.873 609.016 168.115 608.857 168.442C608.698 168.769 608.6 169.189 608.563 169.702ZM615.351 174V166.636H616.345L616.457 167.854H616.555C616.629 167.621 616.732 167.401 616.863 167.196C616.993 166.981 617.171 166.809 617.395 166.678C617.619 166.538 617.894 166.468 618.221 166.468C618.361 166.468 618.487 166.482 618.599 166.51C618.72 166.529 618.809 166.552 618.865 166.58V167.714H618.403C618.085 167.714 617.81 167.77 617.577 167.882C617.353 167.985 617.166 168.134 617.017 168.33C616.867 168.526 616.755 168.759 616.681 169.03C616.615 169.301 616.583 169.59 616.583 169.898V174H615.351Z" fill="#A8AFAC"/>
<path d="M578.486 142V133.74H575.308V132.396H583.26V133.74H580.054V142H578.486ZM584.51 133.362V131.878H585.966V133.362H584.51ZM584.51 142V134.636H585.966V142H584.51ZM589.68 142.168C589.26 142.168 588.929 142.089 588.686 141.93C588.453 141.762 588.285 141.552 588.182 141.3C588.089 141.039 588.042 140.763 588.042 140.474V135.84H587.118V134.636H588.07L588.336 132.578H589.498V134.636H590.828V135.84H589.498V140.306C589.498 140.521 589.545 140.684 589.638 140.796C589.732 140.908 589.886 140.964 590.1 140.964H590.828V141.944C590.735 141.981 590.618 142.014 590.478 142.042C590.348 142.079 590.212 142.107 590.072 142.126C589.932 142.154 589.802 142.168 589.68 142.168ZM592.112 142V131.878H593.568V142H592.112ZM598.5 142.168C597.744 142.168 597.109 142.033 596.596 141.762C596.092 141.482 595.709 141.057 595.448 140.488C595.186 139.919 595.056 139.195 595.056 138.318C595.056 137.431 595.186 136.708 595.448 136.148C595.709 135.579 596.096 135.159 596.61 134.888C597.123 134.608 597.762 134.468 598.528 134.468C599.228 134.468 599.811 134.603 600.278 134.874C600.754 135.135 601.113 135.537 601.356 136.078C601.598 136.619 601.72 137.301 601.72 138.122V138.682H596.554C596.572 139.205 596.652 139.643 596.792 139.998C596.932 140.343 597.142 140.6 597.422 140.768C597.711 140.927 598.075 141.006 598.514 141.006C598.784 141.006 599.027 140.973 599.242 140.908C599.456 140.833 599.638 140.731 599.788 140.6C599.937 140.46 600.054 140.297 600.138 140.11C600.222 139.914 600.264 139.695 600.264 139.452H601.692C601.692 139.891 601.617 140.278 601.468 140.614C601.318 140.95 601.099 141.235 600.81 141.468C600.53 141.692 600.194 141.865 599.802 141.986C599.41 142.107 598.976 142.168 598.5 142.168ZM596.582 137.618H600.194C600.194 137.254 600.152 136.951 600.068 136.708C599.993 136.456 599.881 136.251 599.732 136.092C599.582 135.933 599.405 135.821 599.2 135.756C598.994 135.681 598.761 135.644 598.5 135.644C598.108 135.644 597.772 135.714 597.492 135.854C597.221 135.994 597.011 136.213 596.862 136.512C596.712 136.801 596.619 137.17 596.582 137.618ZM607.485 137.366L607.639 135.476L606.169 136.554L605.665 135.672L607.289 134.874L605.665 134.062L606.169 133.194L607.639 134.286L607.485 132.382H608.479L608.325 134.286L609.795 133.194L610.299 134.062L608.661 134.874L610.299 135.672L609.795 136.554L608.325 135.476L608.479 137.366H607.485Z" fill="#081D13"/>
<rect x="20.5" y="222.5" width="519" height="41" rx="3.5" fill="white"/>
<rect x="20.5" y="222.5" width="519" height="41" rx="3.5" stroke="#F74A46"/>
<path d="M35.906 248.168C35.178 248.168 34.562 248.033 34.058 247.762C33.5633 247.482 33.1853 247.057 32.924 246.488C32.672 245.919 32.546 245.195 32.546 244.318C32.546 243.431 32.672 242.708 32.924 242.148C33.1853 241.579 33.568 241.159 34.072 240.888C34.576 240.608 35.206 240.468 35.962 240.468C36.6527 240.468 37.2313 240.603 37.698 240.874C38.1647 241.135 38.5147 241.532 38.748 242.064C38.9907 242.587 39.112 243.245 39.112 244.038V244.626H33.82C33.8387 245.214 33.9227 245.699 34.072 246.082C34.2307 246.455 34.464 246.731 34.772 246.908C35.08 247.076 35.4673 247.16 35.934 247.16C36.2513 247.16 36.5267 247.123 36.76 247.048C37.0027 246.964 37.2033 246.847 37.362 246.698C37.53 246.549 37.656 246.371 37.74 246.166C37.824 245.961 37.8707 245.737 37.88 245.494H39.084C39.0747 245.886 39 246.25 38.86 246.586C38.72 246.913 38.5147 247.193 38.244 247.426C37.9733 247.659 37.642 247.841 37.25 247.972C36.858 248.103 36.41 248.168 35.906 248.168ZM33.848 243.702H37.838C37.838 243.291 37.7913 242.946 37.698 242.666C37.6047 242.386 37.4693 242.157 37.292 241.98C37.124 241.803 36.9233 241.677 36.69 241.602C36.466 241.518 36.2093 241.476 35.92 241.476C35.4907 241.476 35.1267 241.555 34.828 241.714C34.5293 241.873 34.3007 242.115 34.142 242.442C33.9833 242.769 33.8853 243.189 33.848 243.702ZM40.6359 248V240.636H41.6299L41.7419 241.742H41.8399C42.0359 241.443 42.2553 241.201 42.4979 241.014C42.7499 240.827 43.0253 240.692 43.3239 240.608C43.6319 240.515 43.9586 240.468 44.3039 240.468C44.7706 240.468 45.1766 240.547 45.5219 240.706C45.8766 240.865 46.1519 241.121 46.3479 241.476C46.5533 241.831 46.6559 242.311 46.6559 242.918V248H45.4239V243.086C45.4239 242.778 45.3819 242.526 45.2979 242.33C45.2233 242.134 45.1159 241.98 44.9759 241.868C44.8453 241.756 44.6819 241.677 44.4859 241.63C44.2993 241.583 44.0893 241.56 43.8559 241.56C43.5106 241.56 43.1839 241.644 42.8759 241.812C42.5679 241.98 42.3206 242.223 42.1339 242.54C41.9566 242.857 41.8679 243.235 41.8679 243.674V248H40.6359ZM50.2466 248.168C49.8639 248.168 49.5653 248.098 49.3506 247.958C49.1359 247.809 48.9819 247.617 48.8886 247.384C48.7953 247.141 48.7486 246.885 48.7486 246.614V241.672H47.7966V240.636H48.7766L49.0006 238.578H49.9806V240.636H51.3666V241.672H49.9806V246.432C49.9806 246.665 50.0226 246.843 50.1066 246.964C50.1906 247.076 50.3493 247.132 50.5826 247.132H51.3666V247.944C51.2733 247.991 51.1613 248.028 51.0306 248.056C50.8999 248.084 50.7646 248.107 50.6246 248.126C50.4939 248.154 50.3679 248.168 50.2466 248.168ZM55.6208 248.168C54.8928 248.168 54.2768 248.033 53.7728 247.762C53.2782 247.482 52.9002 247.057 52.6388 246.488C52.3868 245.919 52.2608 245.195 52.2608 244.318C52.2608 243.431 52.3868 242.708 52.6388 242.148C52.9002 241.579 53.2828 241.159 53.7868 240.888C54.2908 240.608 54.9208 240.468 55.6768 240.468C56.3675 240.468 56.9462 240.603 57.4128 240.874C57.8795 241.135 58.2295 241.532 58.4628 242.064C58.7055 242.587 58.8268 243.245 58.8268 244.038V244.626H53.5348C53.5535 245.214 53.6375 245.699 53.7868 246.082C53.9455 246.455 54.1788 246.731 54.4868 246.908C54.7948 247.076 55.1822 247.16 55.6488 247.16C55.9662 247.16 56.2415 247.123 56.4748 247.048C56.7175 246.964 56.9182 246.847 57.0768 246.698C57.2448 246.549 57.3708 246.371 57.4548 246.166C57.5388 245.961 57.5855 245.737 57.5948 245.494H58.7988C58.7895 245.886 58.7148 246.25 58.5748 246.586C58.4348 246.913 58.2295 247.193 57.9588 247.426C57.6882 247.659 57.3568 247.841 56.9648 247.972C56.5728 248.103 56.1248 248.168 55.6208 248.168ZM53.5628 243.702H57.5528C57.5528 243.291 57.5062 242.946 57.4128 242.666C57.3195 242.386 57.1842 242.157 57.0068 241.98C56.8388 241.803 56.6382 241.677 56.4048 241.602C56.1808 241.518 55.9242 241.476 55.6348 241.476C55.2055 241.476 54.8415 241.555 54.5428 241.714C54.2442 241.873 54.0155 242.115 53.8568 242.442C53.6982 242.769 53.6002 243.189 53.5628 243.702ZM60.3508 248V240.636H61.3448L61.4568 241.854H61.5548C61.6294 241.621 61.7321 241.401 61.8628 241.196C61.9934 240.981 62.1708 240.809 62.3948 240.678C62.6188 240.538 62.8941 240.468 63.2208 240.468C63.3608 240.468 63.4868 240.482 63.5988 240.51C63.7201 240.529 63.8088 240.552 63.8648 240.58V241.714H63.4028C63.0854 241.714 62.8101 241.77 62.5768 241.882C62.3528 241.985 62.1661 242.134 62.0168 242.33C61.8674 242.526 61.7554 242.759 61.6808 243.03C61.6154 243.301 61.5828 243.59 61.5828 243.898V248H60.3508Z" fill="#F74A46"/>
<path d="M511.79 239H520.21C520.542 239 520.868 239.093 521.15 239.27C521.431 239.447 521.657 239.7 521.8 240C521.968 240.356 522.033 240.752 521.987 241.142C521.941 241.533 521.786 241.903 521.54 242.21L517.33 247.31C517.165 247.501 516.961 247.654 516.731 247.758C516.502 247.863 516.252 247.917 516 247.917C515.748 247.917 515.498 247.863 515.269 247.758C515.04 247.654 514.835 247.501 514.67 247.31L510.46 242.21C510.214 241.903 510.059 241.533 510.013 241.142C509.967 240.752 510.032 240.356 510.2 240C510.344 239.7 510.569 239.447 510.85 239.27C511.132 239.093 511.458 239 511.79 239Z" fill="#838C88"/>
<path d="M23.486 210V201.74H20.308V200.396H28.26V201.74H25.054V210H23.486ZM29.5103 201.362V199.878H30.9663V201.362H29.5103ZM29.5103 210V202.636H30.9663V210H29.5103ZM34.6802 210.168C34.2602 210.168 33.9289 210.089 33.6862 209.93C33.4529 209.762 33.2849 209.552 33.1822 209.3C33.0889 209.039 33.0422 208.763 33.0422 208.474V203.84H32.1182V202.636H33.0702L33.3362 200.578H34.4982V202.636H35.8282V203.84H34.4982V208.306C34.4982 208.521 34.5449 208.684 34.6382 208.796C34.7315 208.908 34.8855 208.964 35.1002 208.964H35.8282V209.944C35.7349 209.981 35.6182 210.014 35.4782 210.042C35.3475 210.079 35.2122 210.107 35.0722 210.126C34.9322 210.154 34.8015 210.168 34.6802 210.168ZM37.1118 210V199.878H38.5678V210H37.1118ZM43.4998 210.168C42.7438 210.168 42.1091 210.033 41.5958 209.762C41.0918 209.482 40.7091 209.057 40.4478 208.488C40.1864 207.919 40.0558 207.195 40.0558 206.318C40.0558 205.431 40.1864 204.708 40.4478 204.148C40.7091 203.579 41.0964 203.159 41.6098 202.888C42.1231 202.608 42.7624 202.468 43.5278 202.468C44.2278 202.468 44.8111 202.603 45.2778 202.874C45.7538 203.135 46.1131 203.537 46.3558 204.078C46.5984 204.619 46.7198 205.301 46.7198 206.122V206.682H41.5538C41.5724 207.205 41.6518 207.643 41.7918 207.998C41.9318 208.343 42.1418 208.6 42.4218 208.768C42.7111 208.927 43.0751 209.006 43.5138 209.006C43.7844 209.006 44.0271 208.973 44.2418 208.908C44.4564 208.833 44.6384 208.731 44.7878 208.6C44.9371 208.46 45.0538 208.297 45.1378 208.11C45.2218 207.914 45.2638 207.695 45.2638 207.452H46.6918C46.6918 207.891 46.6171 208.278 46.4678 208.614C46.3184 208.95 46.0991 209.235 45.8098 209.468C45.5298 209.692 45.1938 209.865 44.8018 209.986C44.4098 210.107 43.9758 210.168 43.4998 210.168ZM41.5818 205.618H45.1938C45.1938 205.254 45.1518 204.951 45.0678 204.708C44.9931 204.456 44.8811 204.251 44.7318 204.092C44.5824 203.933 44.4051 203.821 44.1998 203.756C43.9944 203.681 43.7611 203.644 43.4998 203.644C43.1078 203.644 42.7718 203.714 42.4918 203.854C42.2211 203.994 42.0111 204.213 41.8618 204.512C41.7124 204.801 41.6191 205.17 41.5818 205.618ZM52.4848 205.366L52.6388 203.476L51.1688 204.554L50.6648 203.672L52.2888 202.874L50.6648 202.062L51.1688 201.194L52.6388 202.286L52.4848 200.382H53.4788L53.3248 202.286L54.7948 201.194L55.2988 202.062L53.6608 202.874L55.2988 203.672L54.7948 204.554L53.3248 203.476L53.4788 205.366H52.4848Z" fill="#081D13"/>
<rect x="575.5" y="262.5" width="519" height="61" rx="3.5" fill="white"/>
<rect x="575.5" y="262.5" width="519" height="61" rx="3.5" stroke="#F74A46"/>
<path d="M590.906 282.168C590.178 282.168 589.562 282.033 589.058 281.762C588.563 281.482 588.185 281.057 587.924 280.488C587.672 279.919 587.546 279.195 587.546 278.318C587.546 277.431 587.672 276.708 587.924 276.148C588.185 275.579 588.568 275.159 589.072 274.888C589.576 274.608 590.206 274.468 590.962 274.468C591.653 274.468 592.231 274.603 592.698 274.874C593.165 275.135 593.515 275.532 593.748 276.064C593.991 276.587 594.112 277.245 594.112 278.038V278.626H588.82C588.839 279.214 588.923 279.699 589.072 280.082C589.231 280.455 589.464 280.731 589.772 280.908C590.08 281.076 590.467 281.16 590.934 281.16C591.251 281.16 591.527 281.123 591.76 281.048C592.003 280.964 592.203 280.847 592.362 280.698C592.53 280.549 592.656 280.371 592.74 280.166C592.824 279.961 592.871 279.737 592.88 279.494H594.084C594.075 279.886 594 280.25 593.86 280.586C593.72 280.913 593.515 281.193 593.244 281.426C592.973 281.659 592.642 281.841 592.25 281.972C591.858 282.103 591.41 282.168 590.906 282.168ZM588.848 277.702H592.838C592.838 277.291 592.791 276.946 592.698 276.666C592.605 276.386 592.469 276.157 592.292 275.98C592.124 275.803 591.923 275.677 591.69 275.602C591.466 275.518 591.209 275.476 590.92 275.476C590.491 275.476 590.127 275.555 589.828 275.714C589.529 275.873 589.301 276.115 589.142 276.442C588.983 276.769 588.885 277.189 588.848 277.702ZM595.636 282V274.636H596.63L596.742 275.742H596.84C597.036 275.443 597.255 275.201 597.498 275.014C597.75 274.827 598.025 274.692 598.324 274.608C598.632 274.515 598.959 274.468 599.304 274.468C599.771 274.468 600.177 274.547 600.522 274.706C600.877 274.865 601.152 275.121 601.348 275.476C601.553 275.831 601.656 276.311 601.656 276.918V282H600.424V277.086C600.424 276.778 600.382 276.526 600.298 276.33C600.223 276.134 600.116 275.98 599.976 275.868C599.845 275.756 599.682 275.677 599.486 275.63C599.299 275.583 599.089 275.56 598.856 275.56C598.511 275.56 598.184 275.644 597.876 275.812C597.568 275.98 597.321 276.223 597.134 276.54C596.957 276.857 596.868 277.235 596.868 277.674V282H595.636ZM605.247 282.168C604.864 282.168 604.565 282.098 604.351 281.958C604.136 281.809 603.982 281.617 603.889 281.384C603.795 281.141 603.749 280.885 603.749 280.614V275.672H602.797V274.636H603.777L604.001 272.578H604.981V274.636H606.367V275.672H604.981V280.432C604.981 280.665 605.023 280.843 605.107 280.964C605.191 281.076 605.349 281.132 605.583 281.132H606.367V281.944C606.273 281.991 606.161 282.028 606.031 282.056C605.9 282.084 605.765 282.107 605.625 282.126C605.494 282.154 605.368 282.168 605.247 282.168ZM610.621 282.168C609.893 282.168 609.277 282.033 608.773 281.762C608.278 281.482 607.9 281.057 607.639 280.488C607.387 279.919 607.261 279.195 607.261 278.318C607.261 277.431 607.387 276.708 607.639 276.148C607.9 275.579 608.283 275.159 608.787 274.888C609.291 274.608 609.921 274.468 610.677 274.468C611.368 274.468 611.946 274.603 612.413 274.874C612.88 275.135 613.23 275.532 613.463 276.064C613.706 276.587 613.827 277.245 613.827 278.038V278.626H608.535C608.554 279.214 608.638 279.699 608.787 280.082C608.946 280.455 609.179 280.731 609.487 280.908C609.795 281.076 610.182 281.16 610.649 281.16C610.966 281.16 611.242 281.123 611.475 281.048C611.718 280.964 611.918 280.847 612.077 280.698C612.245 280.549 612.371 280.371 612.455 280.166C612.539 279.961 612.586 279.737 612.595 279.494H613.799C613.79 279.886 613.715 280.25 613.575 280.586C613.435 280.913 613.23 281.193 612.959 281.426C612.688 281.659 612.357 281.841 611.965 281.972C611.573 282.103 611.125 282.168 610.621 282.168ZM608.563 277.702H612.553C612.553 277.291 612.506 276.946 612.413 276.666C612.32 276.386 612.184 276.157 612.007 275.98C611.839 275.803 611.638 275.677 611.405 275.602C611.181 275.518 610.924 275.476 610.635 275.476C610.206 275.476 609.842 275.555 609.543 275.714C609.244 275.873 609.016 276.115 608.857 276.442C608.698 276.769 608.6 277.189 608.563 277.702ZM615.351 282V274.636H616.345L616.457 275.854H616.555C616.629 275.621 616.732 275.401 616.863 275.196C616.993 274.981 617.171 274.809 617.395 274.678C617.619 274.538 617.894 274.468 618.221 274.468C618.361 274.468 618.487 274.482 618.599 274.51C618.72 274.529 618.809 274.552 618.865 274.58V275.714H618.403C618.085 275.714 617.81 275.77 617.577 275.882C617.353 275.985 617.166 276.134 617.017 276.33C616.867 276.526 616.755 276.759 616.681 277.03C616.615 277.301 616.583 277.59 616.583 277.898V282H615.351Z" fill="#F74A46"/>
<path d="M578.486 250V241.74H575.308V240.396H583.26V241.74H580.054V250H578.486ZM584.51 241.362V239.878H585.966V241.362H584.51ZM584.51 250V242.636H585.966V250H584.51ZM589.68 250.168C589.26 250.168 588.929 250.089 588.686 249.93C588.453 249.762 588.285 249.552 588.182 249.3C588.089 249.039 588.042 248.763 588.042 248.474V243.84H587.118V242.636H588.07L588.336 240.578H589.498V242.636H590.828V243.84H589.498V248.306C589.498 248.521 589.545 248.684 589.638 248.796C589.732 248.908 589.886 248.964 590.1 248.964H590.828V249.944C590.735 249.981 590.618 250.014 590.478 250.042C590.348 250.079 590.212 250.107 590.072 250.126C589.932 250.154 589.802 250.168 589.68 250.168ZM592.112 250V239.878H593.568V250H592.112ZM598.5 250.168C597.744 250.168 597.109 250.033 596.596 249.762C596.092 249.482 595.709 249.057 595.448 248.488C595.186 247.919 595.056 247.195 595.056 246.318C595.056 245.431 595.186 244.708 595.448 244.148C595.709 243.579 596.096 243.159 596.61 242.888C597.123 242.608 597.762 242.468 598.528 242.468C599.228 242.468 599.811 242.603 600.278 242.874C600.754 243.135 601.113 243.537 601.356 244.078C601.598 244.619 601.72 245.301 601.72 246.122V246.682H596.554C596.572 247.205 596.652 247.643 596.792 247.998C596.932 248.343 597.142 248.6 597.422 248.768C597.711 248.927 598.075 249.006 598.514 249.006C598.784 249.006 599.027 248.973 599.242 248.908C599.456 248.833 599.638 248.731 599.788 248.6C599.937 248.46 600.054 248.297 600.138 248.11C600.222 247.914 600.264 247.695 600.264 247.452H601.692C601.692 247.891 601.617 248.278 601.468 248.614C601.318 248.95 601.099 249.235 600.81 249.468C600.53 249.692 600.194 249.865 599.802 249.986C599.41 250.107 598.976 250.168 598.5 250.168ZM596.582 245.618H600.194C600.194 245.254 600.152 244.951 600.068 244.708C599.993 244.456 599.881 244.251 599.732 244.092C599.582 243.933 599.405 243.821 599.2 243.756C598.994 243.681 598.761 243.644 598.5 243.644C598.108 243.644 597.772 243.714 597.492 243.854C597.221 243.994 597.011 244.213 596.862 244.512C596.712 244.801 596.619 245.17 596.582 245.618ZM607.485 245.366L607.639 243.476L606.169 244.554L605.665 243.672L607.289 242.874L605.665 242.062L606.169 241.194L607.639 242.286L607.485 240.382H608.479L608.325 242.286L609.795 241.194L610.299 242.062L608.661 242.874L610.299 243.672L609.795 244.554L608.325 243.476L608.479 245.366H607.485Z" fill="#081D13"/>
<rect x="20.5" y="310.5" width="519" height="41" rx="3.5" fill="#F7F8F8"/>
<rect x="20.5" y="310.5" width="519" height="41" rx="3.5" stroke="#E7E9E9"/>
<path d="M35.906 336.168C35.178 336.168 34.562 336.033 34.058 335.762C33.5633 335.482 33.1853 335.057 32.924 334.488C32.672 333.919 32.546 333.195 32.546 332.318C32.546 331.431 32.672 330.708 32.924 330.148C33.1853 329.579 33.568 329.159 34.072 328.888C34.576 328.608 35.206 328.468 35.962 328.468C36.6527 328.468 37.2313 328.603 37.698 328.874C38.1647 329.135 38.5147 329.532 38.748 330.064C38.9907 330.587 39.112 331.245 39.112 332.038V332.626H33.82C33.8387 333.214 33.9227 333.699 34.072 334.082C34.2307 334.455 34.464 334.731 34.772 334.908C35.08 335.076 35.4673 335.16 35.934 335.16C36.2513 335.16 36.5267 335.123 36.76 335.048C37.0027 334.964 37.2033 334.847 37.362 334.698C37.53 334.549 37.656 334.371 37.74 334.166C37.824 333.961 37.8707 333.737 37.88 333.494H39.084C39.0747 333.886 39 334.25 38.86 334.586C38.72 334.913 38.5147 335.193 38.244 335.426C37.9733 335.659 37.642 335.841 37.25 335.972C36.858 336.103 36.41 336.168 35.906 336.168ZM33.848 331.702H37.838C37.838 331.291 37.7913 330.946 37.698 330.666C37.6047 330.386 37.4693 330.157 37.292 329.98C37.124 329.803 36.9233 329.677 36.69 329.602C36.466 329.518 36.2093 329.476 35.92 329.476C35.4907 329.476 35.1267 329.555 34.828 329.714C34.5293 329.873 34.3007 330.115 34.142 330.442C33.9833 330.769 33.8853 331.189 33.848 331.702ZM40.6359 336V328.636H41.6299L41.7419 329.742H41.8399C42.0359 329.443 42.2553 329.201 42.4979 329.014C42.7499 328.827 43.0253 328.692 43.3239 328.608C43.6319 328.515 43.9586 328.468 44.3039 328.468C44.7706 328.468 45.1766 328.547 45.5219 328.706C45.8766 328.865 46.1519 329.121 46.3479 329.476C46.5533 329.831 46.6559 330.311 46.6559 330.918V336H45.4239V331.086C45.4239 330.778 45.3819 330.526 45.2979 330.33C45.2233 330.134 45.1159 329.98 44.9759 329.868C44.8453 329.756 44.6819 329.677 44.4859 329.63C44.2993 329.583 44.0893 329.56 43.8559 329.56C43.5106 329.56 43.1839 329.644 42.8759 329.812C42.5679 329.98 42.3206 330.223 42.1339 330.54C41.9566 330.857 41.8679 331.235 41.8679 331.674V336H40.6359ZM50.2466 336.168C49.8639 336.168 49.5653 336.098 49.3506 335.958C49.1359 335.809 48.9819 335.617 48.8886 335.384C48.7953 335.141 48.7486 334.885 48.7486 334.614V329.672H47.7966V328.636H48.7766L49.0006 326.578H49.9806V328.636H51.3666V329.672H49.9806V334.432C49.9806 334.665 50.0226 334.843 50.1066 334.964C50.1906 335.076 50.3493 335.132 50.5826 335.132H51.3666V335.944C51.2733 335.991 51.1613 336.028 51.0306 336.056C50.8999 336.084 50.7646 336.107 50.6246 336.126C50.4939 336.154 50.3679 336.168 50.2466 336.168ZM55.6208 336.168C54.8928 336.168 54.2768 336.033 53.7728 335.762C53.2782 335.482 52.9002 335.057 52.6388 334.488C52.3868 333.919 52.2608 333.195 52.2608 332.318C52.2608 331.431 52.3868 330.708 52.6388 330.148C52.9002 329.579 53.2828 329.159 53.7868 328.888C54.2908 328.608 54.9208 328.468 55.6768 328.468C56.3675 328.468 56.9462 328.603 57.4128 328.874C57.8795 329.135 58.2295 329.532 58.4628 330.064C58.7055 330.587 58.8268 331.245 58.8268 332.038V332.626H53.5348C53.5535 333.214 53.6375 333.699 53.7868 334.082C53.9455 334.455 54.1788 334.731 54.4868 334.908C54.7948 335.076 55.1822 335.16 55.6488 335.16C55.9662 335.16 56.2415 335.123 56.4748 335.048C56.7175 334.964 56.9182 334.847 57.0768 334.698C57.2448 334.549 57.3708 334.371 57.4548 334.166C57.5388 333.961 57.5855 333.737 57.5948 333.494H58.7988C58.7895 333.886 58.7148 334.25 58.5748 334.586C58.4348 334.913 58.2295 335.193 57.9588 335.426C57.6882 335.659 57.3568 335.841 56.9648 335.972C56.5728 336.103 56.1248 336.168 55.6208 336.168ZM53.5628 331.702H57.5528C57.5528 331.291 57.5062 330.946 57.4128 330.666C57.3195 330.386 57.1842 330.157 57.0068 329.98C56.8388 329.803 56.6382 329.677 56.4048 329.602C56.1808 329.518 55.9242 329.476 55.6348 329.476C55.2055 329.476 54.8415 329.555 54.5428 329.714C54.2442 329.873 54.0155 330.115 53.8568 330.442C53.6982 330.769 53.6002 331.189 53.5628 331.702ZM60.3508 336V328.636H61.3448L61.4568 329.854H61.5548C61.6294 329.621 61.7321 329.401 61.8628 329.196C61.9934 328.981 62.1708 328.809 62.3948 328.678C62.6188 328.538 62.8941 328.468 63.2208 328.468C63.3608 328.468 63.4868 328.482 63.5988 328.51C63.7201 328.529 63.8088 328.552 63.8648 328.58V329.714H63.4028C63.0854 329.714 62.8101 329.77 62.5768 329.882C62.3528 329.985 62.1661 330.134 62.0168 330.33C61.8674 330.526 61.7554 330.759 61.6808 331.03C61.6154 331.301 61.5828 331.59 61.5828 331.898V336H60.3508Z" fill="#D2D7D6"/>
<path d="M511.79 327H520.21C520.542 327 520.868 327.093 521.15 327.27C521.431 327.447 521.657 327.7 521.8 328C521.968 328.356 522.033 328.752 521.987 329.142C521.941 329.533 521.786 329.903 521.54 330.21L517.33 335.31C517.165 335.501 516.961 335.654 516.731 335.758C516.502 335.863 516.252 335.917 516 335.917C515.748 335.917 515.498 335.863 515.269 335.758C515.04 335.654 514.835 335.501 514.67 335.31L510.46 330.21C510.214 329.903 510.059 329.533 510.013 329.142C509.967 328.752 510.032 328.356 510.2 328C510.344 327.7 510.569 327.447 510.85 327.27C511.132 327.093 511.458 327 511.79 327Z" fill="#838C88"/>
<path d="M23.486 298V289.74H20.308V288.396H28.26V289.74H25.054V298H23.486ZM29.5103 289.362V287.878H30.9663V289.362H29.5103ZM29.5103 298V290.636H30.9663V298H29.5103ZM34.6802 298.168C34.2602 298.168 33.9289 298.089 33.6862 297.93C33.4529 297.762 33.2849 297.552 33.1822 297.3C33.0889 297.039 33.0422 296.763 33.0422 296.474V291.84H32.1182V290.636H33.0702L33.3362 288.578H34.4982V290.636H35.8282V291.84H34.4982V296.306C34.4982 296.521 34.5449 296.684 34.6382 296.796C34.7315 296.908 34.8855 296.964 35.1002 296.964H35.8282V297.944C35.7349 297.981 35.6182 298.014 35.4782 298.042C35.3475 298.079 35.2122 298.107 35.0722 298.126C34.9322 298.154 34.8015 298.168 34.6802 298.168ZM37.1118 298V287.878H38.5678V298H37.1118ZM43.4998 298.168C42.7438 298.168 42.1091 298.033 41.5958 297.762C41.0918 297.482 40.7091 297.057 40.4478 296.488C40.1864 295.919 40.0558 295.195 40.0558 294.318C40.0558 293.431 40.1864 292.708 40.4478 292.148C40.7091 291.579 41.0964 291.159 41.6098 290.888C42.1231 290.608 42.7624 290.468 43.5278 290.468C44.2278 290.468 44.8111 290.603 45.2778 290.874C45.7538 291.135 46.1131 291.537 46.3558 292.078C46.5984 292.619 46.7198 293.301 46.7198 294.122V294.682H41.5538C41.5724 295.205 41.6518 295.643 41.7918 295.998C41.9318 296.343 42.1418 296.6 42.4218 296.768C42.7111 296.927 43.0751 297.006 43.5138 297.006C43.7844 297.006 44.0271 296.973 44.2418 296.908C44.4564 296.833 44.6384 296.731 44.7878 296.6C44.9371 296.46 45.0538 296.297 45.1378 296.11C45.2218 295.914 45.2638 295.695 45.2638 295.452H46.6918C46.6918 295.891 46.6171 296.278 46.4678 296.614C46.3184 296.95 46.0991 297.235 45.8098 297.468C45.5298 297.692 45.1938 297.865 44.8018 297.986C44.4098 298.107 43.9758 298.168 43.4998 298.168ZM41.5818 293.618H45.1938C45.1938 293.254 45.1518 292.951 45.0678 292.708C44.9931 292.456 44.8811 292.251 44.7318 292.092C44.5824 291.933 44.4051 291.821 44.1998 291.756C43.9944 291.681 43.7611 291.644 43.4998 291.644C43.1078 291.644 42.7718 291.714 42.4918 291.854C42.2211 291.994 42.0111 292.213 41.8618 292.512C41.7124 292.801 41.6191 293.17 41.5818 293.618ZM52.4848 293.366L52.6388 291.476L51.1688 292.554L50.6648 291.672L52.2888 290.874L50.6648 290.062L51.1688 289.194L52.6388 290.286L52.4848 288.382H53.4788L53.3248 290.286L54.7948 289.194L55.2988 290.062L53.6608 290.874L55.2988 291.672L54.7948 292.554L53.3248 291.476L53.4788 293.366H52.4848Z" fill="#081D13"/>
<rect x="575.5" y="370.5" width="519" height="61" rx="3.5" fill="#F7F8F8"/>
<rect x="575.5" y="370.5" width="519" height="61" rx="3.5" stroke="#E7E9E9"/>
<path d="M590.906 390.168C590.178 390.168 589.562 390.033 589.058 389.762C588.563 389.482 588.185 389.057 587.924 388.488C587.672 387.919 587.546 387.195 587.546 386.318C587.546 385.431 587.672 384.708 587.924 384.148C588.185 383.579 588.568 383.159 589.072 382.888C589.576 382.608 590.206 382.468 590.962 382.468C591.653 382.468 592.231 382.603 592.698 382.874C593.165 383.135 593.515 383.532 593.748 384.064C593.991 384.587 594.112 385.245 594.112 386.038V386.626H588.82C588.839 387.214 588.923 387.699 589.072 388.082C589.231 388.455 589.464 388.731 589.772 388.908C590.08 389.076 590.467 389.16 590.934 389.16C591.251 389.16 591.527 389.123 591.76 389.048C592.003 388.964 592.203 388.847 592.362 388.698C592.53 388.549 592.656 388.371 592.74 388.166C592.824 387.961 592.871 387.737 592.88 387.494H594.084C594.075 387.886 594 388.25 593.86 388.586C593.72 388.913 593.515 389.193 593.244 389.426C592.973 389.659 592.642 389.841 592.25 389.972C591.858 390.103 591.41 390.168 590.906 390.168ZM588.848 385.702H592.838C592.838 385.291 592.791 384.946 592.698 384.666C592.605 384.386 592.469 384.157 592.292 383.98C592.124 383.803 591.923 383.677 591.69 383.602C591.466 383.518 591.209 383.476 590.92 383.476C590.491 383.476 590.127 383.555 589.828 383.714C589.529 383.873 589.301 384.115 589.142 384.442C588.983 384.769 588.885 385.189 588.848 385.702ZM595.636 390V382.636H596.63L596.742 383.742H596.84C597.036 383.443 597.255 383.201 597.498 383.014C597.75 382.827 598.025 382.692 598.324 382.608C598.632 382.515 598.959 382.468 599.304 382.468C599.771 382.468 600.177 382.547 600.522 382.706C600.877 382.865 601.152 383.121 601.348 383.476C601.553 383.831 601.656 384.311 601.656 384.918V390H600.424V385.086C600.424 384.778 600.382 384.526 600.298 384.33C600.223 384.134 600.116 383.98 599.976 383.868C599.845 383.756 599.682 383.677 599.486 383.63C599.299 383.583 599.089 383.56 598.856 383.56C598.511 383.56 598.184 383.644 597.876 383.812C597.568 383.98 597.321 384.223 597.134 384.54C596.957 384.857 596.868 385.235 596.868 385.674V390H595.636ZM605.247 390.168C604.864 390.168 604.565 390.098 604.351 389.958C604.136 389.809 603.982 389.617 603.889 389.384C603.795 389.141 603.749 388.885 603.749 388.614V383.672H602.797V382.636H603.777L604.001 380.578H604.981V382.636H606.367V383.672H604.981V388.432C604.981 388.665 605.023 388.843 605.107 388.964C605.191 389.076 605.349 389.132 605.583 389.132H606.367V389.944C606.273 389.991 606.161 390.028 606.031 390.056C605.9 390.084 605.765 390.107 605.625 390.126C605.494 390.154 605.368 390.168 605.247 390.168ZM610.621 390.168C609.893 390.168 609.277 390.033 608.773 389.762C608.278 389.482 607.9 389.057 607.639 388.488C607.387 387.919 607.261 387.195 607.261 386.318C607.261 385.431 607.387 384.708 607.639 384.148C607.9 383.579 608.283 383.159 608.787 382.888C609.291 382.608 609.921 382.468 610.677 382.468C611.368 382.468 611.946 382.603 612.413 382.874C612.88 383.135 613.23 383.532 613.463 384.064C613.706 384.587 613.827 385.245 613.827 386.038V386.626H608.535C608.554 387.214 608.638 387.699 608.787 388.082C608.946 388.455 609.179 388.731 609.487 388.908C609.795 389.076 610.182 389.16 610.649 389.16C610.966 389.16 611.242 389.123 611.475 389.048C611.718 388.964 611.918 388.847 612.077 388.698C612.245 388.549 612.371 388.371 612.455 388.166C612.539 387.961 612.586 387.737 612.595 387.494H613.799C613.79 387.886 613.715 388.25 613.575 388.586C613.435 388.913 613.23 389.193 612.959 389.426C612.688 389.659 612.357 389.841 611.965 389.972C611.573 390.103 611.125 390.168 610.621 390.168ZM608.563 385.702H612.553C612.553 385.291 612.506 384.946 612.413 384.666C612.32 384.386 612.184 384.157 612.007 383.98C611.839 383.803 611.638 383.677 611.405 383.602C611.181 383.518 610.924 383.476 610.635 383.476C610.206 383.476 609.842 383.555 609.543 383.714C609.244 383.873 609.016 384.115 608.857 384.442C608.698 384.769 608.6 385.189 608.563 385.702ZM615.351 390V382.636H616.345L616.457 383.854H616.555C616.629 383.621 616.732 383.401 616.863 383.196C616.993 382.981 617.171 382.809 617.395 382.678C617.619 382.538 617.894 382.468 618.221 382.468C618.361 382.468 618.487 382.482 618.599 382.51C618.72 382.529 618.809 382.552 618.865 382.58V383.714H618.403C618.085 383.714 617.81 383.77 617.577 383.882C617.353 383.985 617.166 384.134 617.017 384.33C616.867 384.526 616.755 384.759 616.681 385.03C616.615 385.301 616.583 385.59 616.583 385.898V390H615.351Z" fill="#D2D7D6"/>
<path d="M578.486 358V349.74H575.308V348.396H583.26V349.74H580.054V358H578.486ZM584.51 349.362V347.878H585.966V349.362H584.51ZM584.51 358V350.636H585.966V358H584.51ZM589.68 358.168C589.26 358.168 588.929 358.089 588.686 357.93C588.453 357.762 588.285 357.552 588.182 357.3C588.089 357.039 588.042 356.763 588.042 356.474V351.84H587.118V350.636H588.07L588.336 348.578H589.498V350.636H590.828V351.84H589.498V356.306C589.498 356.521 589.545 356.684 589.638 356.796C589.732 356.908 589.886 356.964 590.1 356.964H590.828V357.944C590.735 357.981 590.618 358.014 590.478 358.042C590.348 358.079 590.212 358.107 590.072 358.126C589.932 358.154 589.802 358.168 589.68 358.168ZM592.112 358V347.878H593.568V358H592.112ZM598.5 358.168C597.744 358.168 597.109 358.033 596.596 357.762C596.092 357.482 595.709 357.057 595.448 356.488C595.186 355.919 595.056 355.195 595.056 354.318C595.056 353.431 595.186 352.708 595.448 352.148C595.709 351.579 596.096 351.159 596.61 350.888C597.123 350.608 597.762 350.468 598.528 350.468C599.228 350.468 599.811 350.603 600.278 350.874C600.754 351.135 601.113 351.537 601.356 352.078C601.598 352.619 601.72 353.301 601.72 354.122V354.682H596.554C596.572 355.205 596.652 355.643 596.792 355.998C596.932 356.343 597.142 356.6 597.422 356.768C597.711 356.927 598.075 357.006 598.514 357.006C598.784 357.006 599.027 356.973 599.242 356.908C599.456 356.833 599.638 356.731 599.788 356.6C599.937 356.46 600.054 356.297 600.138 356.11C600.222 355.914 600.264 355.695 600.264 355.452H601.692C601.692 355.891 601.617 356.278 601.468 356.614C601.318 356.95 601.099 357.235 600.81 357.468C600.53 357.692 600.194 357.865 599.802 357.986C599.41 358.107 598.976 358.168 598.5 358.168ZM596.582 353.618H600.194C600.194 353.254 600.152 352.951 600.068 352.708C599.993 352.456 599.881 352.251 599.732 352.092C599.582 351.933 599.405 351.821 599.2 351.756C598.994 351.681 598.761 351.644 598.5 351.644C598.108 351.644 597.772 351.714 597.492 351.854C597.221 351.994 597.011 352.213 596.862 352.512C596.712 352.801 596.619 353.17 596.582 353.618ZM607.485 353.366L607.639 351.476L606.169 352.554L605.665 351.672L607.289 350.874L605.665 350.062L606.169 349.194L607.639 350.286L607.485 348.382H608.479L608.325 350.286L609.795 349.194L610.299 350.062L608.661 350.874L610.299 351.672L609.795 352.554L608.325 351.476L608.479 353.366H607.485Z" fill="#081D13"/>
</svg>
