<svg width="1247" height="826" viewBox="0 0 1247 826" fill="none" xmlns="http://www.w3.org/2000/svg">
<path d="M40 42C40 40.8954 40.8954 40 42 40H1205C1206.1 40 1207 40.8954 1207 42V784C1207 785.105 1206.1 786 1205 786H42C40.8954 786 40 785.105 40 784V42Z" fill="white"/>
<path d="M42 40V41H1205V40V39H42V40ZM1207 42H1206V784H1207H1208V42H1207ZM1205 786V785H42V786V787H1205V786ZM40 784H41V42H40H39V784H40ZM42 786V785C41.4477 785 41 784.552 41 784H40H39C39 785.657 40.3432 787 42 787V786ZM1207 784H1206C1206 784.552 1205.55 785 1205 785V786V787C1206.66 787 1208 785.657 1208 784H1207ZM1205 40V41C1205.55 41 1206 41.4477 1206 42H1207H1208C1208 40.3431 1206.66 39 1205 39V40ZM42 40V39C40.3431 39 39 40.3431 39 42H40H41C41 41.4477 41.4477 41 42 41V40Z" fill="white" fill-opacity="0.1"/>
<path d="M257.4 458L247.4 424.8H200.8L190.8 458H160L206 318.4H243.6L289 458H257.4ZM224.4 346H223.4L208 399H240L224.4 346ZM384.9 458C379.567 458 375.1 456.333 371.5 453C368.033 449.667 365.833 445.2 364.9 439.6H363.7C362.1 446.4 358.567 451.6 353.1 455.2C347.633 458.667 340.9 460.4 332.9 460.4C322.367 460.4 314.3 457.6 308.7 452C303.1 446.4 300.3 439 300.3 429.8C300.3 418.733 304.3 410.533 312.3 405.2C320.433 399.733 331.433 397 345.3 397H361.9V390.4C361.9 385.333 360.567 381.333 357.9 378.4C355.233 375.333 350.767 373.8 344.5 373.8C338.633 373.8 333.967 375.067 330.5 377.6C327.033 380.133 324.167 383 321.9 386.2L304.3 370.6C308.567 364.333 313.9 359.467 320.3 356C326.833 352.4 335.633 350.6 346.7 350.6C361.633 350.6 372.833 353.867 380.3 360.4C387.767 366.933 391.5 376.467 391.5 389V435H401.3V458H384.9ZM343.9 439.8C348.833 439.8 353.033 438.733 356.5 436.6C360.1 434.467 361.9 431 361.9 426.2V413.8H347.5C335.9 413.8 330.1 417.733 330.1 425.6V428.6C330.1 432.467 331.3 435.333 333.7 437.2C336.1 438.933 339.5 439.8 343.9 439.8Z" fill="#018270"/>
<path d="M158.576 560V555.768H162.946V532.124H158.576V527.892H172.56V532.124H168.144V555.768H172.56V560H158.576ZM179.093 527.892H193.307C195.975 527.892 198.06 528.643 199.563 530.146C201.096 531.649 201.863 533.657 201.863 536.172C201.863 537.368 201.694 538.395 201.357 539.254C201.019 540.082 200.59 540.772 200.069 541.324C199.547 541.845 198.949 542.244 198.275 542.52C197.6 542.765 196.941 542.919 196.297 542.98V543.256C196.941 543.287 197.646 543.44 198.413 543.716C199.21 543.992 199.946 544.437 200.621 545.05C201.295 545.633 201.863 546.399 202.323 547.35C202.783 548.27 203.013 549.405 203.013 550.754C203.013 552.042 202.798 553.253 202.369 554.388C201.97 555.523 201.403 556.504 200.667 557.332C199.931 558.16 199.057 558.819 198.045 559.31C197.033 559.77 195.929 560 194.733 560H179.093V527.892ZM184.291 555.538H193.215C194.564 555.538 195.622 555.185 196.389 554.48C197.155 553.775 197.539 552.763 197.539 551.444V549.88C197.539 548.561 197.155 547.549 196.389 546.844C195.622 546.139 194.564 545.786 193.215 545.786H184.291V555.538ZM184.291 541.462H192.341C193.629 541.462 194.625 541.14 195.331 540.496C196.036 539.821 196.389 538.871 196.389 537.644V536.172C196.389 534.945 196.036 534.01 195.331 533.366C194.625 532.691 193.629 532.354 192.341 532.354H184.291V541.462ZM233.979 535.436H233.749L231.219 540.634L224.181 553.468L217.143 540.634L214.613 535.436H214.383V560H209.415V527.892H215.579L224.181 544.222H224.457L233.059 527.892H238.947V560H233.979V535.436ZM257.751 560V527.892H271.551C274.526 527.892 276.826 528.766 278.451 530.514C280.076 532.262 280.889 534.608 280.889 537.552C280.889 540.496 280.076 542.842 278.451 544.59C276.826 546.338 274.526 547.212 271.551 547.212H262.949V560H257.751ZM262.949 542.658H271.229C272.548 542.658 273.575 542.321 274.311 541.646C275.047 540.941 275.415 539.944 275.415 538.656V536.448C275.415 535.16 275.047 534.179 274.311 533.504C273.575 532.799 272.548 532.446 271.229 532.446H262.949V542.658ZM291.329 560C289.611 560 288.323 559.571 287.465 558.712C286.637 557.823 286.223 556.596 286.223 555.032V525.96H291.237V555.906H294.549V560H291.329ZM308.724 560.552C307.007 560.552 305.473 560.261 304.124 559.678C302.775 559.095 301.625 558.267 300.674 557.194C299.723 556.09 298.987 554.771 298.466 553.238C297.975 551.674 297.73 549.941 297.73 548.04C297.73 546.139 297.975 544.421 298.466 542.888C298.987 541.324 299.723 540.005 300.674 538.932C301.625 537.828 302.775 536.985 304.124 536.402C305.473 535.819 307.007 535.528 308.724 535.528C310.472 535.528 312.005 535.835 313.324 536.448C314.673 537.061 315.793 537.92 316.682 539.024C317.571 540.097 318.231 541.355 318.66 542.796C319.12 544.237 319.35 545.786 319.35 547.442V549.328H302.928V550.11C302.928 551.95 303.465 553.468 304.538 554.664C305.642 555.829 307.206 556.412 309.23 556.412C310.702 556.412 311.944 556.09 312.956 555.446C313.968 554.802 314.827 553.928 315.532 552.824L318.476 555.722C317.587 557.194 316.299 558.375 314.612 559.264C312.925 560.123 310.963 560.552 308.724 560.552ZM308.724 539.438C307.865 539.438 307.068 539.591 306.332 539.898C305.627 540.205 305.013 540.634 304.492 541.186C304.001 541.738 303.618 542.397 303.342 543.164C303.066 543.931 302.928 544.774 302.928 545.694V546.016H314.06V545.556C314.06 543.716 313.585 542.244 312.634 541.14C311.683 540.005 310.38 539.438 308.724 539.438ZM321.604 560L330.022 547.902L321.834 536.08H327.63L333.012 544.406H333.15L338.67 536.08H344.006L335.818 547.856L344.144 560H338.348L332.828 551.306H332.69L326.94 560H321.604ZM369.517 560.552C366.819 560.552 364.519 560.061 362.617 559.08C360.747 558.099 359.137 556.78 357.787 555.124L361.375 551.766C362.51 553.146 363.752 554.189 365.101 554.894C366.481 555.599 368.045 555.952 369.793 555.952C371.848 555.952 373.397 555.492 374.439 554.572C375.482 553.652 376.003 552.41 376.003 550.846C376.003 549.589 375.635 548.592 374.899 547.856C374.163 547.12 372.86 546.568 370.989 546.2L368.137 545.694C365.009 545.111 362.663 544.084 361.099 542.612C359.535 541.14 358.753 539.116 358.753 536.54C358.753 535.129 359.014 533.857 359.535 532.722C360.087 531.557 360.839 530.591 361.789 529.824C362.771 529.027 363.951 528.413 365.331 527.984C366.711 527.555 368.26 527.34 369.977 527.34C372.4 527.34 374.501 527.769 376.279 528.628C378.058 529.456 379.576 530.667 380.833 532.262L377.199 535.482C376.371 534.409 375.359 533.55 374.163 532.906C372.967 532.262 371.48 531.94 369.701 531.94C367.861 531.94 366.435 532.308 365.423 533.044C364.411 533.78 363.905 534.853 363.905 536.264C363.905 537.613 364.319 538.625 365.147 539.3C365.975 539.944 367.263 540.435 369.011 540.772L371.863 541.37C375.083 541.983 377.429 543.026 378.901 544.498C380.404 545.97 381.155 547.994 381.155 550.57C381.155 552.073 380.895 553.437 380.373 554.664C379.852 555.891 379.085 556.949 378.073 557.838C377.092 558.697 375.881 559.371 374.439 559.862C372.998 560.322 371.357 560.552 369.517 560.552ZM404.553 560C403.235 560 402.223 559.632 401.517 558.896C400.812 558.129 400.383 557.163 400.229 555.998H399.999C399.539 557.501 398.696 558.635 397.469 559.402C396.243 560.169 394.755 560.552 393.007 560.552C390.523 560.552 388.607 559.908 387.257 558.62C385.939 557.332 385.279 555.599 385.279 553.422C385.279 551.03 386.138 549.236 387.855 548.04C389.603 546.844 392.149 546.246 395.491 546.246H399.815V544.222C399.815 542.75 399.417 541.615 398.619 540.818C397.822 540.021 396.58 539.622 394.893 539.622C393.483 539.622 392.333 539.929 391.443 540.542C390.554 541.155 389.803 541.937 389.189 542.888L386.199 540.174C386.997 538.825 388.116 537.721 389.557 536.862C390.999 535.973 392.885 535.528 395.215 535.528C398.313 535.528 400.689 536.249 402.345 537.69C404.001 539.131 404.829 541.201 404.829 543.9V555.906H407.359V560H404.553ZM394.433 556.734C395.997 556.734 397.285 556.397 398.297 555.722C399.309 555.017 399.815 554.081 399.815 552.916V549.466H395.583C392.118 549.466 390.385 550.539 390.385 552.686V553.514C390.385 554.587 390.738 555.4 391.443 555.952C392.179 556.473 393.176 556.734 394.433 556.734ZM412.274 560V536.08H417.288V540.036H417.518C418.039 538.748 418.821 537.675 419.864 536.816C420.937 535.957 422.394 535.528 424.234 535.528C426.687 535.528 428.588 536.341 429.938 537.966C431.318 539.561 432.008 541.845 432.008 544.82V560H426.994V545.464C426.994 541.723 425.491 539.852 422.486 539.852C421.842 539.852 421.198 539.944 420.554 540.128C419.94 540.281 419.388 540.527 418.898 540.864C418.407 541.201 418.008 541.631 417.702 542.152C417.426 542.673 417.288 543.287 417.288 543.992V560H412.274ZM446.547 560.552C444.278 560.552 442.376 560.153 440.843 559.356C439.31 558.559 437.976 557.455 436.841 556.044L440.061 553.1C440.95 554.173 441.932 555.017 443.005 555.63C444.109 556.213 445.382 556.504 446.823 556.504C448.295 556.504 449.384 556.228 450.089 555.676C450.825 555.093 451.193 554.296 451.193 553.284C451.193 552.517 450.932 551.873 450.411 551.352C449.92 550.8 449.046 550.447 447.789 550.294L445.581 550.018C443.128 549.711 441.196 549.006 439.785 547.902C438.405 546.767 437.715 545.096 437.715 542.888C437.715 541.723 437.93 540.695 438.359 539.806C438.788 538.886 439.386 538.119 440.153 537.506C440.95 536.862 441.886 536.371 442.959 536.034C444.063 535.697 445.274 535.528 446.593 535.528C448.74 535.528 450.488 535.865 451.837 536.54C453.217 537.215 454.444 538.15 455.517 539.346L452.435 542.29C451.822 541.554 451.009 540.925 449.997 540.404C449.016 539.852 447.881 539.576 446.593 539.576C445.213 539.576 444.186 539.852 443.511 540.404C442.867 540.956 442.545 541.677 442.545 542.566C442.545 543.486 442.836 544.176 443.419 544.636C444.002 545.096 444.937 545.433 446.225 545.648L448.433 545.924C451.07 546.323 452.987 547.105 454.183 548.27C455.41 549.405 456.023 550.938 456.023 552.87C456.023 554.035 455.793 555.093 455.333 556.044C454.904 556.964 454.275 557.761 453.447 558.436C452.619 559.111 451.622 559.632 450.457 560C449.292 560.368 447.988 560.552 446.547 560.552Z" fill="black"/>
<path d="M579.2 481L632 343.8H668.8L721.6 481H689.4L679.6 454H619.8L610 481H579.2ZM628.4 430H671L658.8 396.2C658.267 394.733 657.6 393 656.8 391C656.133 388.867 655.4 386.533 654.6 384C653.8 381.467 653 379 652.2 376.6C651.533 374.067 650.867 371.8 650.2 369.8H649C648.333 372.333 647.467 375.333 646.4 378.8C645.333 382.133 644.267 385.4 643.2 388.6C642.133 391.667 641.267 394.2 640.6 396.2L628.4 430ZM763.327 483.4C759.86 483.4 756.127 483 752.127 482.2C748.26 481.4 744.593 480 741.127 478C737.66 475.867 734.793 472.867 732.527 469C730.393 465 729.327 459.933 729.327 453.8C729.327 446.467 730.927 440.4 734.127 435.6C737.327 430.8 741.86 427.067 747.727 424.4C753.727 421.6 760.86 419.667 769.127 418.6C777.393 417.533 786.527 417 796.527 417V409.2C796.527 406.133 795.993 403.467 794.927 401.2C793.993 398.933 792.26 397.133 789.727 395.8C787.327 394.467 783.927 393.8 779.527 393.8C775.127 393.8 771.527 394.333 768.727 395.4C766.06 396.467 764.127 397.867 762.927 399.6C761.86 401.2 761.327 403 761.327 405V407.4H734.327C734.193 406.733 734.127 406.133 734.127 405.6C734.127 404.933 734.127 404.133 734.127 403.2C734.127 397.067 735.993 391.8 739.727 387.4C743.46 382.867 748.727 379.4 755.527 377C762.327 374.6 770.26 373.4 779.327 373.4C789.06 373.4 797.193 374.667 803.727 377.2C810.393 379.733 815.46 383.467 818.927 388.4C822.527 393.333 824.327 399.533 824.327 407V454.8C824.327 457.2 824.993 459 826.327 460.2C827.793 461.267 829.393 461.8 831.127 461.8H837.727V480C836.393 480.667 834.327 481.333 831.527 482C828.727 482.8 825.327 483.2 821.327 483.2C817.46 483.2 813.993 482.6 810.927 481.4C807.993 480.333 805.527 478.8 803.527 476.8C801.527 474.667 800.127 472.133 799.327 469.2H797.927C795.66 472 792.86 474.467 789.527 476.6C786.327 478.733 782.527 480.4 778.127 481.6C773.86 482.8 768.927 483.4 763.327 483.4ZM772.727 462.4C776.46 462.4 779.793 461.867 782.727 460.8C785.66 459.6 788.127 458.067 790.127 456.2C792.127 454.2 793.66 451.8 794.727 449C795.927 446.2 796.527 443.2 796.527 440V434.2C789.06 434.2 782.393 434.733 776.527 435.8C770.66 436.733 765.993 438.4 762.527 440.8C759.193 443.2 757.527 446.533 757.527 450.8C757.527 453.2 758.127 455.267 759.327 457C760.527 458.733 762.26 460.067 764.527 461C766.793 461.933 769.527 462.4 772.727 462.4Z" fill="#018270"/>
<path d="M578.276 563L590.65 531.444H597.228L609.648 563H604.128L601.322 555.686H586.372L583.566 563H578.276ZM588.028 551.316H599.62L596.078 542.07C595.986 541.794 595.848 541.411 595.664 540.92C595.48 540.429 595.281 539.893 595.066 539.31C594.882 538.727 594.683 538.145 594.468 537.562C594.284 536.949 594.115 536.397 593.962 535.906H593.686C593.502 536.489 593.272 537.179 592.996 537.976C592.72 538.773 592.444 539.54 592.168 540.276C591.923 541.012 591.708 541.61 591.524 542.07L588.028 551.316ZM613.066 563V538.804H617.022L617.436 542.714H617.712C617.988 541.947 618.341 541.227 618.77 540.552C619.23 539.877 619.813 539.325 620.518 538.896C621.254 538.467 622.144 538.252 623.186 538.252C623.677 538.252 624.106 538.298 624.474 538.39C624.873 538.482 625.18 538.559 625.394 538.62V543.128H623.784C622.803 543.128 621.929 543.281 621.162 543.588C620.426 543.895 619.798 544.355 619.276 544.968C618.786 545.551 618.418 546.271 618.172 547.13C617.958 547.989 617.85 548.955 617.85 550.028V563H613.066ZM638.134 563.552C635.711 563.552 633.687 563.107 632.062 562.218C630.436 561.298 629.21 559.903 628.382 558.032C627.584 556.161 627.186 553.785 627.186 550.902C627.186 548.019 627.6 545.658 628.428 543.818C629.256 541.947 630.482 540.552 632.108 539.632C633.764 538.712 635.788 538.252 638.18 538.252C639.836 538.252 641.277 538.467 642.504 538.896C643.73 539.295 644.773 539.908 645.632 540.736C646.49 541.533 647.119 542.53 647.518 543.726C647.947 544.922 648.162 546.287 648.162 547.82H643.332C643.332 546.532 643.148 545.474 642.78 544.646C642.412 543.818 641.844 543.205 641.078 542.806C640.311 542.377 639.314 542.162 638.088 542.162C636.8 542.162 635.711 542.469 634.822 543.082C633.932 543.665 633.258 544.569 632.798 545.796C632.338 546.992 632.108 548.571 632.108 550.534V551.316C632.108 553.187 632.322 554.751 632.752 556.008C633.212 557.235 633.886 558.155 634.776 558.768C635.696 559.351 636.861 559.642 638.272 559.642C639.498 559.642 640.48 559.427 641.216 558.998C641.982 558.538 642.55 557.894 642.918 557.066C643.316 556.207 643.516 555.18 643.516 553.984H648.162C648.162 555.425 647.947 556.729 647.518 557.894C647.119 559.059 646.49 560.071 645.632 560.93C644.804 561.758 643.761 562.402 642.504 562.862C641.246 563.322 639.79 563.552 638.134 563.552ZM653.002 563V529.742H657.786V541.702H658.108C658.691 540.966 659.35 540.353 660.086 539.862C660.822 539.341 661.65 538.942 662.57 538.666C663.49 538.39 664.502 538.252 665.606 538.252C667.139 538.252 668.489 538.528 669.654 539.08C670.819 539.601 671.724 540.46 672.368 541.656C673.043 542.852 673.38 544.462 673.38 546.486V563H668.596V547.222C668.596 546.302 668.473 545.535 668.228 544.922C668.013 544.309 667.691 543.818 667.262 543.45C666.833 543.082 666.327 542.821 665.744 542.668C665.161 542.515 664.517 542.438 663.812 542.438C662.708 542.438 661.696 542.699 660.776 543.22C659.887 543.741 659.166 544.477 658.614 545.428C658.062 546.379 657.786 547.513 657.786 548.832V563H653.002ZM679.371 534.618V529.742H684.155V534.618H679.371ZM679.371 563V538.804H684.155V563H679.371ZM696.634 563L687.664 538.804H692.678L696.864 550.35C697.048 550.902 697.278 551.623 697.554 552.512C697.83 553.371 698.106 554.26 698.382 555.18C698.658 556.1 698.903 556.928 699.118 557.664H699.348C699.532 556.959 699.747 556.161 699.992 555.272C700.268 554.352 700.544 553.447 700.82 552.558C701.096 551.669 701.341 550.933 701.556 550.35L705.696 538.804H710.572L701.556 563H696.634ZM724.265 563.552C721.75 563.552 719.619 563.107 717.871 562.218C716.154 561.298 714.85 559.903 713.961 558.032C713.102 556.161 712.673 553.785 712.673 550.902C712.673 547.989 713.102 545.612 713.961 543.772C714.85 541.901 716.154 540.521 717.871 539.632C719.619 538.712 721.75 538.252 724.265 538.252C726.841 538.252 728.988 538.712 730.705 539.632C732.422 540.521 733.71 541.901 734.569 543.772C735.458 545.612 735.903 547.989 735.903 550.902C735.903 553.785 735.458 556.161 734.569 558.032C733.71 559.903 732.422 561.298 730.705 562.218C728.988 563.107 726.841 563.552 724.265 563.552ZM724.265 559.596C725.798 559.596 727.056 559.305 728.037 558.722C729.018 558.109 729.739 557.189 730.199 555.962C730.69 554.735 730.935 553.187 730.935 551.316V550.488C730.935 548.617 730.69 547.069 730.199 545.842C729.739 544.615 729.018 543.711 728.037 543.128C727.056 542.515 725.798 542.208 724.265 542.208C722.762 542.208 721.52 542.515 720.539 543.128C719.558 543.711 718.822 544.615 718.331 545.842C717.871 547.069 717.641 548.617 717.641 550.488V551.316C717.641 553.187 717.871 554.735 718.331 555.962C718.822 557.189 719.558 558.109 720.539 558.722C721.52 559.305 722.762 559.596 724.265 559.596Z" fill="black"/>
<rect x="40" y="4" width="86.8125" height="30" rx="3" fill="white"/>
<rect x="40.5" y="4.5" width="85.8125" height="29" rx="2.5" stroke="white" stroke-opacity="0.0980392"/>
<path d="M46.5313 14.8594V14H52.5312V14.8594H50.0156V22H49.0469V14.8594H46.5313ZM53.3389 14H54.4482L56.667 17.7344H56.7607L58.9795 14H60.0889L57.1982 18.7031V22H56.2295V18.7031L53.3389 14ZM61.3418 22V14H64.0449C64.6725 14 65.1855 14.1133 65.584 14.3398C65.985 14.5638 66.2819 14.8672 66.4746 15.25C66.6673 15.6328 66.7637 16.0599 66.7637 16.5312C66.7637 17.0026 66.6673 17.431 66.4746 17.8164C66.2845 18.2018 65.9902 18.5091 65.5918 18.7383C65.1934 18.9648 64.6829 19.0781 64.0605 19.0781H62.123V18.2188H64.0293C64.459 18.2188 64.804 18.1445 65.0645 17.9961C65.3249 17.8477 65.5137 17.6471 65.6309 17.3945C65.7507 17.1393 65.8105 16.8516 65.8105 16.5312C65.8105 16.2109 65.7507 15.9245 65.6309 15.6719C65.5137 15.4193 65.3236 15.2214 65.0605 15.0781C64.7975 14.9323 64.4486 14.8594 64.0137 14.8594H62.3105V22H61.3418ZM75.0742 18C75.0742 18.8437 74.9219 19.5729 74.6172 20.1875C74.3125 20.8021 73.8945 21.276 73.3633 21.6094C72.832 21.9427 72.2253 22.1094 71.543 22.1094C70.8607 22.1094 70.2539 21.9427 69.7227 21.6094C69.1914 21.276 68.7734 20.8021 68.4688 20.1875C68.1641 19.5729 68.0117 18.8437 68.0117 18C68.0117 17.1562 68.1641 16.4271 68.4688 15.8125C68.7734 15.1979 69.1914 14.724 69.7227 14.3906C70.2539 14.0573 70.8607 13.8906 71.543 13.8906C72.2253 13.8906 72.832 14.0573 73.3633 14.3906C73.8945 14.724 74.3125 15.1979 74.6172 15.8125C74.9219 16.4271 75.0742 17.1562 75.0742 18ZM74.1367 18C74.1367 17.3073 74.0208 16.7227 73.7891 16.2461C73.5599 15.7695 73.2487 15.4089 72.8555 15.1641C72.4648 14.9193 72.0273 14.7969 71.543 14.7969C71.0586 14.7969 70.6198 14.9193 70.2266 15.1641C69.8359 15.4089 69.5247 15.7695 69.293 16.2461C69.0638 16.7227 68.9492 17.3073 68.9492 18C68.9492 18.6927 69.0638 19.2773 69.293 19.7539C69.5247 20.2305 69.8359 20.5911 70.2266 20.8359C70.6198 21.0807 71.0586 21.2031 71.543 21.2031C72.0273 21.2031 72.4648 21.0807 72.8555 20.8359C73.2487 20.5911 73.5599 20.2305 73.7891 19.7539C74.0208 19.2773 74.1367 18.6927 74.1367 18ZM82.1719 16.5C82.0859 16.237 81.9727 16.0013 81.832 15.793C81.694 15.582 81.5286 15.4023 81.3359 15.2539C81.1458 15.1055 80.9297 14.9922 80.6875 14.9141C80.4453 14.8359 80.1797 14.7969 79.8906 14.7969C79.4167 14.7969 78.9857 14.9193 78.5977 15.1641C78.2096 15.4089 77.901 15.7695 77.6719 16.2461C77.4427 16.7227 77.3281 17.3073 77.3281 18C77.3281 18.6927 77.444 19.2773 77.6758 19.7539C77.9076 20.2305 78.2214 20.5911 78.6172 20.8359C79.013 21.0807 79.4583 21.2031 79.9531 21.2031C80.4115 21.2031 80.8151 21.1055 81.1641 20.9102C81.5156 20.7122 81.7891 20.4336 81.9844 20.0742C82.1823 19.7122 82.2813 19.2865 82.2813 18.7969L82.5781 18.8594H80.1719V18H83.2188V18.8594C83.2188 19.5182 83.0781 20.0911 82.7969 20.5781C82.5182 21.0651 82.1328 21.4427 81.6406 21.7109C81.151 21.9766 80.5885 22.1094 79.9531 22.1094C79.2448 22.1094 78.6224 21.9427 78.0859 21.6094C77.5521 21.276 77.1354 20.8021 76.8359 20.1875C76.5391 19.5729 76.3906 18.8437 76.3906 18C76.3906 17.3672 76.4753 16.7982 76.6445 16.293C76.8164 15.7852 77.0586 15.3529 77.3711 14.9961C77.6836 14.6393 78.0534 14.3659 78.4805 14.1758C78.9076 13.9857 79.3776 13.8906 79.8906 13.8906C80.3125 13.8906 80.7057 13.9544 81.0703 14.082C81.4375 14.207 81.7643 14.3854 82.0508 14.6172C82.3398 14.8464 82.5807 15.1211 82.7734 15.4414C82.9661 15.7591 83.099 16.112 83.1719 16.5H82.1719ZM84.8779 22V14H87.5811C88.2061 14 88.7191 14.1068 89.1201 14.3203C89.5212 14.5312 89.818 14.8216 90.0107 15.1914C90.2035 15.5612 90.2998 15.9818 90.2998 16.4531C90.2998 16.9245 90.2035 17.3424 90.0107 17.707C89.818 18.0716 89.5225 18.3581 89.124 18.5664C88.7256 18.7721 88.2165 18.875 87.5967 18.875H85.4092V18H87.5654C87.9925 18 88.3363 17.9375 88.5967 17.8125C88.8597 17.6875 89.0498 17.5104 89.167 17.2812C89.2868 17.0495 89.3467 16.7734 89.3467 16.4531C89.3467 16.1328 89.2868 15.8529 89.167 15.6133C89.0472 15.3737 88.8558 15.1888 88.5928 15.0586C88.3298 14.9258 87.9821 14.8594 87.5498 14.8594H85.8467V22H84.8779ZM88.6436 18.4062L90.6123 22H89.4873L87.5498 18.4062H88.6436ZM92.2422 22H91.2266L94.1641 14H95.1641L98.1016 22H97.0859L94.6953 15.2656H94.6328L92.2422 22ZM92.6172 18.875H96.7109V19.7344H92.6172V18.875ZM99.3477 22V14H102.051C102.678 14 103.191 14.1133 103.59 14.3398C103.991 14.5638 104.288 14.8672 104.48 15.25C104.673 15.6328 104.77 16.0599 104.77 16.5312C104.77 17.0026 104.673 17.431 104.48 17.8164C104.29 18.2018 103.996 18.5091 103.598 18.7383C103.199 18.9648 102.689 19.0781 102.066 19.0781H100.129V18.2188H102.035C102.465 18.2188 102.81 18.1445 103.07 17.9961C103.331 17.8477 103.52 17.6471 103.637 17.3945C103.757 17.1393 103.816 16.8516 103.816 16.5312C103.816 16.2109 103.757 15.9245 103.637 15.6719C103.52 15.4193 103.329 15.2214 103.066 15.0781C102.803 14.9323 102.454 14.8594 102.02 14.8594H100.316V22H99.3477ZM106.33 22V14H107.299V17.5625H111.564V14H112.533V22H111.564V18.4219H107.299V22H106.33ZM113.785 14H114.895L117.113 17.7344H117.207L119.426 14H120.535L117.645 18.7031V22H116.676V18.7031L113.785 14Z" fill="black"/>
</svg>
