<svg width="530" height="400" viewBox="0 0 530 400" fill="none" xmlns="http://www.w3.org/2000/svg">
<g clip-path="url(#clip0_170_12398)">
<rect width="530" height="400" fill="white"/>
<rect width="530" height="400" fill="url(#paint0_linear_170_12398)" fill-opacity="0.24"/>
<path d="M393.128 118.65L301.575 92.9922C297.268 91.7851 292.998 95.0229 292.998 99.4963V180.391C292.998 183.247 294.794 185.794 297.483 186.753L390.022 219.761C394.421 221.33 399.046 218.069 399.046 213.399V126.455C399.046 122.821 396.627 119.631 393.128 118.65Z" fill="#7B69E5" fill-opacity="0.16"/>
<path d="M308.534 114.229L345.685 124.361M337.579 133.818L308.534 125.712M308.534 139.222L327.447 144.625" stroke="#081D13" stroke-width="5.40372" stroke-linecap="round"/>
<path d="M309.586 71.7128L299.078 73.0264H303.806L400.397 99.3695L405.126 100.72L407.828 103.422L408.503 106.124V204.742L407.828 216.901L405.801 219.602L412.156 215.517C414.089 214.275 415.258 212.134 415.258 209.836V102.548C415.258 99.4808 413.191 96.7984 410.224 96.0168L320.846 72.4644C317.175 71.4971 313.353 71.242 309.586 71.7128Z" fill="#081D13"/>
<path d="M295.024 87.2112V79.8021C295.024 75.3609 299.237 72.1283 303.527 73.2774L403.496 100.055C406.449 100.846 408.503 103.522 408.503 106.579V117.607M295.024 87.2112V179.664C295.024 182.545 296.852 185.109 299.575 186.049L315.495 191.545M295.024 87.2112L408.503 117.607M408.503 117.607V214.177C408.503 218.818 403.93 222.077 399.544 220.562L360.161 206.966" stroke="#081D13" stroke-width="1.35093"/>
<path d="M234.231 114.23C234.895 116.51 232.27 116.751 232.205 115.58C212.666 48.8714 131.208 92.5674 152.5 146.652L158.819 157.833C160.282 160.42 163.268 161.756 166.159 161.068C176.675 158.568 183.951 156.192 194.421 152.042C196.493 151.221 198.915 151.447 200.513 153C202.361 154.795 203.413 156.61 204.023 159.204C204.389 160.76 205.893 161.842 207.444 161.454C208.822 161.11 209.666 159.732 209.438 158.33C207.921 149.014 210.602 145.659 218.695 141.924C227.476 137.871 257.872 117.606 264.627 107.474C271.382 97.3424 261.793 95.9621 257.872 97.3424C247.817 101.494 241.883 103.712 232.241 104.605C231.27 104.695 230.688 105.742 231.12 106.617C232.513 109.444 233.056 111.081 234.231 114.23Z" fill="#081D13" stroke="#081D13" stroke-width="1.35093"/>
<ellipse cx="303.13" cy="81.1324" rx="2.0264" ry="2.70186" transform="rotate(-11.8283 303.13 81.1324)" fill="#07B386"/>
<ellipse cx="309.074" cy="83.2932" rx="2.0264" ry="2.70186" transform="rotate(-11.2387 309.074 83.2932)" fill="#F58A3C"/>
<ellipse cx="315.289" cy="85.1855" rx="2.0264" ry="2.70186" transform="rotate(-9.58704 315.289 85.1855)" fill="#F74A46"/>
<path d="M315.824 186.983V189.961L313.838 200.879L355.527 211.797L360.49 205.842L355.527 202.864L360.49 197.901L361.482 191.946L358.505 188.968L362.475 186.983L368.431 185.99L375.379 183.013L377.364 179.042L372.401 176.064H366.445H356.52L354.22 175.072L351.557 171.102H347.586L340.638 176.064L335.675 177.057L330.712 176.064L328.727 173.087L324.757 172.094L321.779 175.072L318.801 178.05H307.883L300.935 179.042L298.95 184.998L304.905 187.975L315.824 186.983Z" fill="#D4E2F0"/>
<path d="M164.66 194.61C171.392 181.658 171.116 176.285 168.713 167.591C174.336 174.222 173.825 180.489 168.713 194.61C181.714 196.448 188.979 197.175 202.486 205.417C205.863 197.987 200.486 185.132 205.863 177.048C243.014 202.715 238.475 171.028 236.935 139.897C242.338 160.836 246.885 198.604 216.671 187.18C209.461 192.895 206.845 197.019 205.863 206.768C216.783 213.555 222.817 217.74 232.206 231.085L264.37 278.384C265.456 279.981 267.818 279.957 268.87 278.338L301.779 227.707C310.575 214.394 313.222 205.645 315.289 188.53C315.289 188.53 303.13 189.881 299.753 188.53C296.376 187.18 296.376 178.399 302.455 177.048L339.605 175.697L336.228 178.399L306.508 180.425C303.11 180.372 300.428 185.829 305.832 186.504C311.236 187.18 332.175 184.478 332.175 184.478L340.956 175.021C349.062 164.214 357.579 170.954 355.817 175.697C359.869 176.372 365.457 181.751 359.194 191.232C363.247 189.881 366.426 193.823 359.869 202.04C366.624 209.47 355.168 216.676 336.904 222.979C317.964 275.504 304.772 301.118 288.946 319.571C273.685 340.139 253.61 327.007 231.386 308.424C230.738 307.883 230.693 306.899 231.291 306.302C231.812 305.781 232.648 305.742 233.221 306.204C253.439 322.493 265.009 331.473 279.489 315.518C291.474 296.599 301.779 285.798 312.587 268.235C323.394 250.673 328.165 240.323 334.202 220.277C344.327 217.738 357.168 209.47 358.518 208.119C359.869 206.768 359.194 204.066 357.843 204.066C356.758 204.066 348.267 207.552 344.965 208.924C344.814 208.987 344.696 208.772 344.832 208.681C348.569 206.154 359.98 198.329 360.545 196.636C361.22 194.61 361.98 191.821 359.194 191.908L345.932 200.118C345.416 200.524 345.084 200.734 345.009 200.689L345.932 200.118C349.105 197.615 359.228 187.655 359.194 183.802C359.155 179.324 356.627 178.158 355.141 179.749C350.684 185.581 348.06 188.088 343.645 190.243C343.51 190.308 343.387 190.138 343.49 190.03C348.929 184.307 352.459 178.298 353.115 175.021C353.79 171.644 350.635 171.331 348.386 172.319L328.452 192.897C327.9 193.467 326.987 193.474 326.426 192.913C325.871 192.358 325.871 191.458 326.426 190.903L330.149 187.18L317.991 187.855C314.613 196.636 317.594 207.029 309.885 220.277C294.116 246.901 284.856 262.369 268.876 284.141C267.787 285.624 265.564 285.602 264.503 284.1L250.444 264.183C238.691 286.948 231.392 299.376 217.346 314.167C187.37 287.348 180.844 275.758 175.467 260.805C190.287 285.309 199.873 294.683 217.346 310.114C230.046 294.034 236.677 283.459 247.742 262.156C224.776 216.9 196.571 197.277 164.66 197.312C141.019 202.04 123.01 251.001 114 301.333C116.525 252.816 141.031 196.826 164.66 194.61Z" fill="#081D13"/>
<path d="M372.703 175.02C366.027 174.399 362.331 174.397 355.816 175.02V175.696L357.167 176.371L359.194 177.047L372.703 177.722C375.929 178.015 376.756 181.1 374.054 182.45C371.352 183.801 361.896 187.179 361.896 187.179C365.963 187.089 368.338 186.774 372.703 185.828C382.835 183.126 381.05 176.958 372.703 175.02Z" fill="#081D13"/>
<path d="M322.719 176.372H319.342C319.342 168.942 332.176 168.942 332.851 175.696L329.474 175.697C328.123 171.644 323.224 173.041 322.719 176.372Z" fill="#081D13"/>
</g>
<defs>
<linearGradient id="paint0_linear_170_12398" x1="3.98205e-06" y1="118.5" x2="532.535" y2="320.31" gradientUnits="userSpaceOnUse">
<stop stop-color="#07B386"/>
<stop offset="1" stop-color="#7B69E5"/>
</linearGradient>
<clipPath id="clip0_170_12398">
<rect width="530" height="400" fill="white"/>
</clipPath>
</defs>
</svg>
