<svg width="394" height="247" viewBox="0 0 394 247" fill="none" xmlns="http://www.w3.org/2000/svg">
<path d="M121.732 13.9858V5.99392C121.732 3.0514 124.118 0.666016 127.06 0.666016H234.284H325.525C328.467 0.666016 330.853 3.0514 330.853 5.99392V13.9858V45.2872V52.6131V61.9369V69.2628V123.874V131.2V149.847C330.853 152.79 328.467 155.175 325.525 155.175H177.675H127.06C124.118 155.175 121.732 152.79 121.732 149.847V86.5785V13.9858Z" fill="url(#paint0_linear_2460_47)" fill-opacity="0.36"/>
<path d="M121.732 13.9858V5.99392C121.732 3.0514 124.118 0.666016 127.06 0.666016H234.284H325.525C328.467 0.666016 330.853 3.0514 330.853 5.99392V13.9858M121.732 13.9858H330.853M121.732 13.9858V86.5785V149.847C121.732 152.79 124.118 155.175 127.06 155.175H177.675H325.525C328.467 155.175 330.853 152.79 330.853 149.847V131.2V123.874V69.2628V61.9369V52.6131V45.2872V13.9858" stroke="#E9393F" stroke-opacity="0.62" stroke-width="1.33198"/>
<circle cx="131.057" cy="7.32508" r="2.66395" fill="#982B2F"/>
<circle cx="141.713" cy="7.32508" r="2.66395" fill="white" fill-opacity="0.46"/>
<circle cx="152.368" cy="7.32508" r="2.66395" fill="white" fill-opacity="0.46"/>
<circle cx="131.057" cy="7.32508" r="2.66395" fill="#982B2F"/>
<circle cx="141.713" cy="7.32508" r="2.66395" fill="white" fill-opacity="0.46"/>
<circle cx="152.368" cy="7.32508" r="2.66395" fill="white" fill-opacity="0.46"/>
<path d="M56.4702 86.7975L184.339 86.7975L184.356 79.718L177.277 79.7008L177.408 180.256L184.488 180.273L184.505 173.194L56.4713 173.195M56.4702 86.7975L49.8074 86.7975L49.8074 79.7023L56.4702 79.7008L56.4702 86.7975ZM56.4713 173.195L49.8074 173.194L49.8074 180.273L56.4713 180.273L56.4713 173.195Z" stroke="#E9393F" stroke-opacity="0.62" stroke-width="1.33198" stroke-linecap="round"/>
<path d="M177.282 86.7829L56.4663 86.7809L56.4662 173.211L177.395 173.211L177.282 86.7829Z" fill="url(#paint1_linear_2460_47)" stroke="#E9393F" stroke-opacity="0.62" stroke-width="1.33198" stroke-linecap="round"/>
<path d="M140.38 148.369V110.037C140.38 107.026 137.916 104.562 134.904 104.562H96.5726C93.5608 104.562 91.0967 107.026 91.0967 110.037V148.369C91.0967 151.38 93.5608 153.845 96.5726 153.845H134.904C137.916 153.845 140.38 151.38 140.38 148.369ZM107.251 134.624L113 141.551L121.488 130.627C122.036 129.915 123.131 129.915 123.678 130.654L133.289 143.468C133.441 143.671 133.534 143.913 133.557 144.166C133.58 144.419 133.531 144.674 133.418 144.901C133.304 145.129 133.129 145.32 132.913 145.454C132.697 145.587 132.448 145.658 132.193 145.658H99.3653C98.2154 145.658 97.5856 144.344 98.2975 143.44L105.115 134.679C105.635 133.967 106.676 133.94 107.251 134.624Z" fill="#D03A3F" fill-opacity="0.46"/>
<circle cx="339.51" cy="87.9116" r="36.6293" fill="#DF393F" fill-opacity="0.12"/>
<path d="M339.782 60.4489C332.423 60.4498 325.365 63.3738 320.162 68.5777C314.958 73.7816 312.035 80.8393 312.034 88.1985C312.034 89.0789 312.384 89.9233 313.006 90.5458C313.629 91.1683 314.473 91.5181 315.354 91.5181C316.234 91.5181 317.078 91.1683 317.701 90.5458C318.324 89.9233 318.673 89.0789 318.673 88.1985C318.673 82.5995 320.897 77.2298 324.856 73.2705C328.815 69.3113 334.185 67.0868 339.784 67.0863C340.664 67.0863 341.509 66.7366 342.131 66.1141C342.754 65.4915 343.103 64.6472 343.103 63.7668C343.103 62.8864 342.754 62.0421 342.131 61.4195C341.509 60.797 340.664 60.4473 339.784 60.4473" fill="#3A0E10"/>
<path d="M339.782 60.4489C332.423 60.4498 325.365 63.3738 320.162 68.5777C314.958 73.7816 312.035 80.8393 312.034 88.1985C312.034 89.0789 312.384 89.9233 313.006 90.5458C313.629 91.1683 314.473 91.5181 315.354 91.5181C316.234 91.5181 317.078 91.1683 317.701 90.5458C318.324 89.9233 318.673 89.0789 318.673 88.1985C318.673 82.5995 320.897 77.2298 324.856 73.2705C328.815 69.3113 334.185 67.0868 339.784 67.0863C340.664 67.0863 341.509 66.7366 342.131 66.1141C342.754 65.4915 343.103 64.6472 343.103 63.7668C343.103 62.8864 342.754 62.0421 342.131 61.4195C341.509 60.797 340.664 60.4473 339.784 60.4473" stroke="#E9393F" stroke-opacity="0.62" stroke-width="1.33198" stroke-linecap="round" stroke-linejoin="round"/>
<path d="M297.706 76.9259C299.393 70.6213 302.475 64.7763 306.725 59.8227C310.974 54.8691 316.282 50.9334 322.256 48.3064C328.231 45.6794 334.719 44.4282 341.242 44.6452C347.765 44.8622 354.156 46.5419 359.942 49.5601C365.729 52.5784 370.764 56.8581 374.674 62.0832C378.585 67.3083 381.272 73.3452 382.537 79.7481C383.801 86.1509 383.611 92.756 381.98 99.0755C380.35 105.395 377.32 111.267 373.116 116.259L391.565 134.709C391.874 135.017 392.118 135.383 392.285 135.786C392.452 136.189 392.538 136.62 392.538 137.056C392.538 137.492 392.452 137.924 392.286 138.327C392.119 138.729 391.874 139.095 391.566 139.404C391.258 139.712 390.892 139.957 390.489 140.123C390.087 140.29 389.655 140.376 389.219 140.376C388.783 140.376 388.352 140.291 387.949 140.124C387.546 139.957 387.18 139.713 386.872 139.404L368.467 120.998C361.435 127.147 352.612 130.873 343.301 131.627C333.99 132.381 324.684 130.121 316.754 125.183C308.825 120.244 302.693 112.888 299.263 104.199C295.833 95.5104 295.288 85.9491 297.706 76.9259ZM330.231 52.534C325.546 53.7892 321.155 55.9547 317.308 58.9069C313.46 61.859 310.232 65.5401 307.807 69.7399C305.383 73.9397 303.809 78.5759 303.176 83.3839C302.543 88.1919 302.863 93.0776 304.118 97.7618C305.373 102.446 307.539 106.837 310.491 110.685C313.443 114.532 317.124 117.76 321.324 120.185C325.524 122.61 330.16 124.183 334.968 124.816C339.776 125.449 344.662 125.129 349.346 123.874C358.806 121.339 366.872 115.15 371.769 106.668C376.666 98.1863 377.993 88.1066 375.458 78.6463C372.923 69.186 366.734 61.1202 358.252 56.2232C349.771 51.3262 339.691 49.9992 330.231 52.534Z" fill="#3A0E10" stroke="#E9393F" stroke-opacity="0.62" stroke-width="1.33198" stroke-linecap="round" stroke-linejoin="round"/>
<defs>
<linearGradient id="paint0_linear_2460_47" x1="169.018" y1="-33.9654" x2="169.018" y2="155.175" gradientUnits="userSpaceOnUse">
<stop stop-color="#E9393F"/>
<stop offset="1" stop-color="#202020"/>
</linearGradient>
<linearGradient id="paint1_linear_2460_47" x1="177.477" y1="124.561" x2="27.1627" y2="167.829" gradientUnits="userSpaceOnUse">
<stop stop-color="#6B1E21"/>
<stop offset="1"/>
</linearGradient>
</defs>
</svg>
