<svg width="793" height="345" viewBox="0 0 793 345" fill="none" xmlns="http://www.w3.org/2000/svg">
<style type="text/css"><![CDATA[
@media (prefers-reduced-motion: reduce) {
  .ds-ill-ui { animation: none !important; }
}
@keyframes ds-anim-ui {
  0%, 100% { transform: translate(0, 0); }
  33% { transform: translate(5px, -7px); }
  66% { transform: translate(-4px, -4px); }
}
.ds-ill-ui {
  animation: ds-anim-ui 6.8s ease-in-out infinite;
  transform-box: fill-box;
  transform-origin: 65% 55%;
}
]]></style>

<g clip-path="url(#clip0_2477_72)">
<rect width="793" height="345" fill="black"/>
<g clip-path="url(#clip1_2477_72)">
<rect width="793" height="345" fill="url(#paint0_linear_2477_72)" fill-opacity="0.16"/>
<g class="ds-ill-bg">
<path d="M-219 -62.9688H1224V-61.9688H1185V-10.9688H1224V-9.96875H1185V41.0312H1224V42.0312H1185V93.0312H1224V94.0312H1185V145.031H1224V146.031H1185V197.031H1224V198.031H1185V249.031H1224V250.031H1185V301.031H1224V302.031H1185V353.031H1224V354.031H1185V405.031H1224V406.031H1185V457.031H1224V458.031H1185V476.905H1184V458.031H1133V476.874H1132V458.031H1081V476.843H1080V458.031H1029V476.812H1028V458.031H977V476.78H976V458.031H925V476.749H924V458.031H873V476.718H872V458.031H821V476.687H820V458.031H769V476.655H768V458.031H717V476.624H716V458.031H665V476.593H664V458.031H613V476.562H612V458.031H561V476.53H560V458.031H509V476.499H508V458.031H457V476.468H456V458.031H405V476.437H404V458.031H353V476.405H352V458.031H301V476.374H300V458.031H249V476.343H248V458.031H197V476.312H196V458.031H145V476.28H144V458.031H93V476.249H92V458.031H41V476.218H40V458.031H-11V476.187H-12V458.031H-63V476.155H-64V458.031H-115V476.124H-116V458.031H-167V476.093H-168V458.031H-219V476.062H-220V458.031H-268V457.031H-220V406.031H-268V405.031H-220V354.031H-268V353.031H-220V302.031H-268V301.031H-220V250.031H-268V249.031H-220V198.031H-268V197.031H-220V146.031H-268V145.031H-220V94.0312H-268V93.0312H-220V42.0312H-268V41.0312H-220V-9.96875H-268V-10.9688H-220V-61.9688H-268V-62.9688H-220V-63H-219V-62.9688ZM-219 457.031H-168V406.031H-219V457.031ZM-167 457.031H-116V406.031H-167V457.031ZM-115 457.031H-64V406.031H-115V457.031ZM-63 457.031H-12V406.031H-63V457.031ZM-11 457.031H40V406.031H-11V457.031ZM41 457.031H92V406.031H41V457.031ZM93 457.031H144V406.031H93V457.031ZM145 457.031H196V406.031H145V457.031ZM197 457.031H248V406.031H197V457.031ZM249 457.031H300V406.031H249V457.031ZM301 457.031H352V406.031H301V457.031ZM353 457.031H404V406.031H353V457.031ZM405 457.031H456V406.031H405V457.031ZM457 457.031H508V406.031H457V457.031ZM509 457.031H560V406.031H509V457.031ZM561 457.031H612V406.031H561V457.031ZM613 457.031H664V406.031H613V457.031ZM665 457.031H716V406.031H665V457.031ZM717 457.031H768V406.031H717V457.031ZM769 457.031H820V406.031H769V457.031ZM821 457.031H872V406.031H821V457.031ZM873 457.031H924V406.031H873V457.031ZM925 457.031H976V406.031H925V457.031ZM977 457.031H1028V406.031H977V457.031ZM1029 457.031H1080V406.031H1029V457.031ZM1081 457.031H1132V406.031H1081V457.031ZM1133 457.031H1184V406.031H1133V457.031ZM-219 405.031H-168V354.031H-219V405.031ZM-167 405.031H-116V354.031H-167V405.031ZM-115 405.031H-64V354.031H-115V405.031ZM-63 405.031H-12V354.031H-63V405.031ZM-11 405.031H40V354.031H-11V405.031ZM41 405.031H92V354.031H41V405.031ZM93 405.031H144V354.031H93V405.031ZM145 405.031H196V354.031H145V405.031ZM197 405.031H248V354.031H197V405.031ZM249 405.031H300V354.031H249V405.031ZM301 405.031H352V354.031H301V405.031ZM353 405.031H404V354.031H353V405.031ZM405 405.031H456V354.031H405V405.031ZM457 405.031H508V354.031H457V405.031ZM509 405.031H560V354.031H509V405.031ZM561 405.031H612V354.031H561V405.031ZM613 405.031H664V354.031H613V405.031ZM665 405.031H716V354.031H665V405.031ZM717 405.031H768V354.031H717V405.031ZM769 405.031H820V354.031H769V405.031ZM821 405.031H872V354.031H821V405.031ZM873 405.031H924V354.031H873V405.031ZM925 405.031H976V354.031H925V405.031ZM977 405.031H1028V354.031H977V405.031ZM1029 405.031H1080V354.031H1029V405.031ZM1081 405.031H1132V354.031H1081V405.031ZM1133 405.031H1184V354.031H1133V405.031ZM-219 353.031H-168V302.031H-219V353.031ZM-167 353.031H-116V302.031H-167V353.031ZM-115 353.031H-64V302.031H-115V353.031ZM-63 353.031H-12V302.031H-63V353.031ZM-11 353.031H40V302.031H-11V353.031ZM41 353.031H92V302.031H41V353.031ZM93 353.031H144V302.031H93V353.031ZM145 353.031H196V302.031H145V353.031ZM197 353.031H248V302.031H197V353.031ZM249 353.031H300V302.031H249V353.031ZM301 353.031H352V302.031H301V353.031ZM353 353.031H404V302.031H353V353.031ZM405 353.031H456V302.031H405V353.031ZM457 353.031H508V302.031H457V353.031ZM509 353.031H560V302.031H509V353.031ZM561 353.031H612V302.031H561V353.031ZM613 353.031H664V302.031H613V353.031ZM665 353.031H716V302.031H665V353.031ZM717 353.031H768V302.031H717V353.031ZM769 353.031H820V302.031H769V353.031ZM821 353.031H872V302.031H821V353.031ZM873 353.031H924V302.031H873V353.031ZM925 353.031H976V302.031H925V353.031ZM977 353.031H1028V302.031H977V353.031ZM1029 353.031H1080V302.031H1029V353.031ZM1081 353.031H1132V302.031H1081V353.031ZM1133 353.031H1184V302.031H1133V353.031ZM-219 301.031H-168V250.031H-219V301.031ZM-167 301.031H-116V250.031H-167V301.031ZM-115 301.031H-64V250.031H-115V301.031ZM-63 301.031H-12V250.031H-63V301.031ZM-11 301.031H40V250.031H-11V301.031ZM41 301.031H92V250.031H41V301.031ZM93 301.031H144V250.031H93V301.031ZM145 301.031H196V250.031H145V301.031ZM197 301.031H248V250.031H197V301.031ZM249 301.031H300V250.031H249V301.031ZM301 301.031H352V250.031H301V301.031ZM353 301.031H404V250.031H353V301.031ZM405 301.031H456V250.031H405V301.031ZM457 301.031H508V250.031H457V301.031ZM509 301.031H560V250.031H509V301.031ZM561 301.031H612V250.031H561V301.031ZM613 301.031H664V250.031H613V301.031ZM665 301.031H716V250.031H665V301.031ZM717 301.031H768V250.031H717V301.031ZM769 301.031H820V250.031H769V301.031ZM821 301.031H872V250.031H821V301.031ZM873 301.031H924V250.031H873V301.031ZM925 301.031H976V250.031H925V301.031ZM977 301.031H1028V250.031H977V301.031ZM1029 301.031H1080V250.031H1029V301.031ZM1081 301.031H1132V250.031H1081V301.031ZM1133 301.031H1184V250.031H1133V301.031ZM-219 249.031H-168V198.031H-219V249.031ZM-167 249.031H-116V198.031H-167V249.031ZM-115 249.031H-64V198.031H-115V249.031ZM-63 249.031H-12V198.031H-63V249.031ZM-11 249.031H40V198.031H-11V249.031ZM41 249.031H92V198.031H41V249.031ZM93 249.031H144V198.031H93V249.031ZM145 249.031H196V198.031H145V249.031ZM197 249.031H248V198.031H197V249.031ZM249 249.031H300V198.031H249V249.031ZM301 249.031H352V198.031H301V249.031ZM353 249.031H404V198.031H353V249.031ZM405 249.031H456V198.031H405V249.031ZM457 249.031H508V198.031H457V249.031ZM509 249.031H560V198.031H509V249.031ZM561 249.031H612V198.031H561V249.031ZM613 249.031H664V198.031H613V249.031ZM665 249.031H716V198.031H665V249.031ZM717 249.031H768V198.031H717V249.031ZM769 249.031H820V198.031H769V249.031ZM821 249.031H872V198.031H821V249.031ZM873 249.031H924V198.031H873V249.031ZM925 249.031H976V198.031H925V249.031ZM977 249.031H1028V198.031H977V249.031ZM1029 249.031H1080V198.031H1029V249.031ZM1081 249.031H1132V198.031H1081V249.031ZM1133 249.031H1184V198.031H1133V249.031ZM-219 197.031H-168V146.031H-219V197.031ZM-167 197.031H-116V146.031H-167V197.031ZM-115 197.031H-64V146.031H-115V197.031ZM-63 197.031H-12V146.031H-63V197.031ZM-11 197.031H40V146.031H-11V197.031ZM41 197.031H92V146.031H41V197.031ZM93 197.031H144V146.031H93V197.031ZM145 197.031H196V146.031H145V197.031ZM197 197.031H248V146.031H197V197.031ZM249 197.031H300V146.031H249V197.031ZM301 197.031H352V146.031H301V197.031ZM353 197.031H404V146.031H353V197.031ZM405 197.031H456V146.031H405V197.031ZM457 197.031H508V146.031H457V197.031ZM509 197.031H560V146.031H509V197.031ZM561 197.031H612V146.031H561V197.031ZM613 197.031H664V146.031H613V197.031ZM665 197.031H716V146.031H665V197.031ZM717 197.031H768V146.031H717V197.031ZM769 197.031H820V146.031H769V197.031ZM821 197.031H872V146.031H821V197.031ZM873 197.031H924V146.031H873V197.031ZM925 197.031H976V146.031H925V197.031ZM977 197.031H1028V146.031H977V197.031ZM1029 197.031H1080V146.031H1029V197.031ZM1081 197.031H1132V146.031H1081V197.031ZM1133 197.031H1184V146.031H1133V197.031ZM-219 145.031H-168V94.0312H-219V145.031ZM-167 145.031H-116V94.0312H-167V145.031ZM-115 145.031H-64V94.0312H-115V145.031ZM-63 145.031H-12V94.0312H-63V145.031ZM-11 145.031H40V94.0312H-11V145.031ZM41 145.031H92V94.0312H41V145.031ZM93 145.031H144V94.0312H93V145.031ZM145 145.031H196V94.0312H145V145.031ZM197 145.031H248V94.0312H197V145.031ZM249 145.031H300V94.0312H249V145.031ZM301 145.031H352V94.0312H301V145.031ZM353 145.031H404V94.0312H353V145.031ZM405 145.031H456V94.0312H405V145.031ZM457 145.031H508V94.0312H457V145.031ZM509 145.031H560V94.0312H509V145.031ZM561 145.031H612V94.0312H561V145.031ZM613 145.031H664V94.0312H613V145.031ZM665 145.031H716V94.0312H665V145.031ZM717 145.031H768V94.0312H717V145.031ZM769 145.031H820V94.0312H769V145.031ZM821 145.031H872V94.0312H821V145.031ZM873 145.031H924V94.0312H873V145.031ZM925 145.031H976V94.0312H925V145.031ZM977 145.031H1028V94.0312H977V145.031ZM1029 145.031H1080V94.0312H1029V145.031ZM1081 145.031H1132V94.0312H1081V145.031ZM1133 145.031H1184V94.0312H1133V145.031ZM-219 93.0312H-168V42.0312H-219V93.0312ZM-167 93.0312H-116V42.0312H-167V93.0312ZM-115 93.0312H-64V42.0312H-115V93.0312ZM-63 93.0312H-12V42.0312H-63V93.0312ZM-11 93.0312H40V42.0312H-11V93.0312ZM41 93.0312H92V42.0312H41V93.0312ZM93 93.0312H144V42.0312H93V93.0312ZM145 93.0312H196V42.0312H145V93.0312ZM197 93.0312H248V42.0312H197V93.0312ZM249 93.0312H300V42.0312H249V93.0312ZM301 93.0312H352V42.0312H301V93.0312ZM353 93.0312H404V42.0312H353V93.0312ZM405 93.0312H456V42.0312H405V93.0312ZM457 93.0312H508V42.0312H457V93.0312ZM509 93.0312H560V42.0312H509V93.0312ZM561 93.0312H612V42.0312H561V93.0312ZM613 93.0312H664V42.0312H613V93.0312ZM665 93.0312H716V42.0312H665V93.0312ZM717 93.0312H768V42.0312H717V93.0312ZM769 93.0312H820V42.0312H769V93.0312ZM821 93.0312H872V42.0312H821V93.0312ZM873 93.0312H924V42.0312H873V93.0312ZM925 93.0312H976V42.0312H925V93.0312ZM977 93.0312H1028V42.0312H977V93.0312ZM1029 93.0312H1080V42.0312H1029V93.0312ZM1081 93.0312H1132V42.0312H1081V93.0312ZM1133 93.0312H1184V42.0312H1133V93.0312ZM-219 41.0312H-168V-9.96875H-219V41.0312ZM-167 41.0312H-116V-9.96875H-167V41.0312ZM-115 41.0312H-64V-9.96875H-115V41.0312ZM-63 41.0312H-12V-9.96875H-63V41.0312ZM-11 41.0312H40V-9.96875H-11V41.0312ZM41 41.0312H92V-9.96875H41V41.0312ZM93 41.0312H144V-9.96875H93V41.0312ZM145 41.0312H196V-9.96875H145V41.0312ZM197 41.0312H248V-9.96875H197V41.0312ZM249 41.0312H300V-9.96875H249V41.0312ZM301 41.0312H352V-9.96875H301V41.0312ZM353 41.0312H404V-9.96875H353V41.0312ZM405 41.0312H456V-9.96875H405V41.0312ZM457 41.0312H508V-9.96875H457V41.0312ZM509 41.0312H560V-9.96875H509V41.0312ZM561 41.0312H612V-9.96875H561V41.0312ZM613 41.0312H664V-9.96875H613V41.0312ZM665 41.0312H716V-9.96875H665V41.0312ZM717 41.0312H768V-9.96875H717V41.0312ZM769 41.0312H820V-9.96875H769V41.0312ZM821 41.0312H872V-9.96875H821V41.0312ZM873 41.0312H924V-9.96875H873V41.0312ZM925 41.0312H976V-9.96875H925V41.0312ZM977 41.0312H1028V-9.96875H977V41.0312ZM1029 41.0312H1080V-9.96875H1029V41.0312ZM1081 41.0312H1132V-9.96875H1081V41.0312ZM1133 41.0312H1184V-9.96875H1133V41.0312ZM-219 -10.9688H-168V-61.9688H-219V-10.9688ZM-167 -10.9688H-116V-61.9688H-167V-10.9688ZM-115 -10.9688H-64V-61.9688H-115V-10.9688ZM-63 -10.9688H-12V-61.9688H-63V-10.9688ZM-11 -10.9688H40V-61.9688H-11V-10.9688ZM41 -10.9688H92V-61.9688H41V-10.9688ZM93 -10.9688H144V-61.9688H93V-10.9688ZM145 -10.9688H196V-61.9688H145V-10.9688ZM197 -10.9688H248V-61.9688H197V-10.9688ZM249 -10.9688H300V-61.9688H249V-10.9688ZM301 -10.9688H352V-61.9688H301V-10.9688ZM353 -10.9688H404V-61.9688H353V-10.9688ZM405 -10.9688H456V-61.9688H405V-10.9688ZM457 -10.9688H508V-61.9688H457V-10.9688ZM509 -10.9688H560V-61.9688H509V-10.9688ZM561 -10.9688H612V-61.9688H561V-10.9688ZM613 -10.9688H664V-61.9688H613V-10.9688ZM665 -10.9688H716V-61.9688H665V-10.9688ZM717 -10.9688H768V-61.9688H717V-10.9688ZM769 -10.9688H820V-61.9688H769V-10.9688ZM821 -10.9688H872V-61.9688H821V-10.9688ZM873 -10.9688H924V-61.9688H873V-10.9688ZM925 -10.9688H976V-61.9688H925V-10.9688ZM977 -10.9688H1028V-61.9688H977V-10.9688ZM1029 -10.9688H1080V-61.9688H1029V-10.9688ZM1081 -10.9688H1132V-61.9688H1081V-10.9688ZM1133 -10.9688H1184V-61.9688H1133V-10.9688Z" fill="#E9393F" fill-opacity="0.06"/>
<rect x="352" y="250" width="51" height="51" fill="#E9393F" fill-opacity="0.12"/>
<rect x="717" y="94" width="51" height="51" fill="#E9393F" fill-opacity="0.12"/>
</g>
<g class="ds-ill-ui">
<path d="M594.68 214.129C594.674 213.86 594.592 213.598 594.444 213.373C594.296 213.148 594.087 212.969 593.842 212.858C593.597 212.746 593.326 212.706 593.059 212.741C592.792 212.777 592.54 212.887 592.333 213.059C589.585 215.339 587.911 217.083 586.943 218.685C585.921 220.368 585.729 221.815 585.729 223.324C585.729 224.996 586.392 226.599 587.574 227.78C588.756 228.962 590.359 229.626 592.031 229.626C593.702 229.626 595.305 228.962 596.487 227.78C597.669 226.599 598.333 224.996 598.333 223.324C598.333 221.267 597.313 219.88 596.511 218.79L596.278 218.472C595.449 217.321 594.726 216.172 594.68 214.129ZM599.38 218.939C600.843 218.244 602.442 217.884 604.062 217.885C609.687 217.885 614.315 222.151 614.888 227.624H610.077C608.178 227.624 606.357 228.379 605.014 229.722C603.671 231.065 602.916 232.887 602.916 234.786V239.596C602.111 239.513 601.319 239.339 600.553 239.078C600.497 240.055 600.418 241.03 600.315 242.004C601.154 242.242 602.021 242.398 602.916 242.473V246.817C602.916 248.717 603.671 250.538 605.014 251.881C606.357 253.224 608.178 253.979 610.077 253.979H622.109C624.008 253.979 625.83 253.224 627.173 251.881C628.516 250.538 629.27 248.717 629.27 246.817V234.786C629.27 232.887 628.516 231.065 627.173 229.722C625.83 228.379 624.008 227.624 622.109 227.624H617.765C617.183 220.566 611.27 215.02 604.061 215.02C601.86 215.017 599.691 215.544 597.738 216.557C597.858 216.743 597.991 216.932 598.137 217.133L598.354 217.428C598.641 217.812 599.018 218.317 599.381 218.94M617.704 230.489H622.108C623.247 230.489 624.34 230.942 625.146 231.748C625.952 232.553 626.404 233.646 626.404 234.786V246.817C626.404 247.957 625.952 249.05 625.146 249.856C624.34 250.661 623.247 251.114 622.108 251.114H610.076C608.937 251.114 607.844 250.661 607.038 249.856C606.232 249.05 605.779 247.957 605.779 246.817V242.414C608.809 242.031 611.624 240.652 613.783 238.493C615.942 236.334 617.322 233.518 617.704 230.489ZM614.811 230.489C614.447 232.753 613.379 234.845 611.757 236.467C610.136 238.088 608.044 239.157 605.779 239.521V234.786C605.779 233.646 606.232 232.553 607.038 231.748C607.844 230.942 608.937 230.489 610.076 230.489H614.811ZM586.681 230.68C586.747 230.525 586.819 230.371 586.896 230.218C588.379 231.325 590.18 231.922 592.031 231.919C593.883 231.922 595.685 231.323 597.169 230.214C597.246 230.368 597.319 230.525 597.386 230.683C598.188 232.572 598.333 234.882 598.333 236.73C598.333 239.755 597.865 244.385 597.008 248.28C596.581 250.22 596.04 252.062 595.37 253.452C595.037 254.143 594.635 254.8 594.14 255.303C593.642 255.81 592.935 256.27 592.035 256.27C591.136 256.27 590.429 255.811 589.93 255.304C589.435 254.8 589.033 254.144 588.7 253.453C588.028 252.063 587.485 250.221 587.058 248.282C586.198 244.386 585.729 239.757 585.729 236.73C585.729 234.881 585.875 232.571 586.681 230.68Z" fill="#E9393F" fill-opacity="0.36"/>
<path d="M684 287H535C532.791 287 531 285.209 531 283V272H449C446.791 272 445 270.209 445 268V155.5V149C445 146.791 446.791 145 449 145H611.5C613.709 145 615.5 146.791 615.5 149V155.5V171H684C686.209 171 688 172.791 688 175V181V283C688 285.209 686.209 287 684 287Z" fill="url(#paint1_linear_2477_72)" fill-opacity="0.36"/>
<path d="M531 181V175C531 172.791 532.791 171 535 171H615.5M531 181H688M531 181V272M688 181V283C688 285.209 686.209 287 684 287H535C532.791 287 531 285.209 531 283V272M688 181V175C688 172.791 686.209 171 684 171H615.5M615.5 171V155.5M531 272H449C446.791 272 445 270.209 445 268V155.5M445 155.5V149C445 146.791 446.791 145 449 145H611.5C613.709 145 615.5 146.791 615.5 149V155.5M445 155.5H615.5M453.5 163H552M453.5 168H499" stroke="#E9393F" stroke-opacity="0.62"/>
<circle cx="538" cy="176" r="2" fill="#982B2F"/>
<circle cx="546" cy="176" r="2" fill="white" fill-opacity="0.46"/>
<circle cx="554" cy="176" r="2" fill="white" fill-opacity="0.46"/>
<circle cx="452" cy="150" r="2" fill="#982B2F"/>
<circle cx="460" cy="150" r="2" fill="white" fill-opacity="0.46"/>
<circle cx="468" cy="150" r="2" fill="white" fill-opacity="0.46"/>
</g>
</g>
</g>
<defs>
<linearGradient id="paint0_linear_2477_72" x1="0" y1="0" x2="537.5" y2="333" gradientUnits="userSpaceOnUse">
<stop stop-color="#E9393F"/>
<stop offset="0.640246" stop-color="#202020"/>
</linearGradient>
<linearGradient id="paint1_linear_2477_72" x1="566.5" y1="145" x2="566.5" y2="287" gradientUnits="userSpaceOnUse">
<stop stop-color="#E9393F"/>
<stop offset="1" stop-color="#202020"/>
</linearGradient>
<clipPath id="clip0_2477_72">
<rect width="793" height="345" fill="white"/>
</clipPath>
<clipPath id="clip1_2477_72">
<rect width="793" height="345" fill="white"/>
</clipPath>
</defs>
</svg>
