<svg width="138" height="33" viewBox="0 0 138 33" fill="none" xmlns="http://www.w3.org/2000/svg">
<path fill-rule="evenodd" clip-rule="evenodd" d="M117.842 32.8551V4.41499H121.778V7.43451C123.214 5.75261 125.68 4.41499 128.296 4.41499C131.046 4.41499 133.454 5.42067 135.172 7.26102C136.89 9.10003 137.894 11.7455 137.894 14.9846V15.2953C137.894 18.4703 136.961 21.1804 135.282 23.1023C133.599 25.0287 131.189 26.1367 128.296 26.1367C125.368 26.1367 123.14 24.8975 121.778 23.2305V32.8551H117.842ZM121.422 22.0914C121.53 22.2791 121.649 22.4639 121.778 22.6445C123.036 24.4069 125.266 25.7807 128.296 25.7807C133.888 25.7807 137.538 21.5089 137.538 15.2953V14.9846C137.538 8.65448 133.616 4.77098 128.296 4.77098C125.612 4.77098 123.09 6.24749 121.778 8.00406C121.647 8.17963 121.528 8.358 121.422 8.53797V4.77098H118.198V32.4992H121.422V22.0914ZM132.329 20.9015C133.308 19.692 133.842 17.8712 133.842 15.4506V15.1399C133.842 12.6413 133.152 10.8104 132.087 9.60905C131.025 8.41033 129.562 7.80658 127.946 7.80658C126.142 7.80658 124.583 8.39968 123.473 9.58694C122.361 10.7761 121.661 12.6023 121.661 15.1399V15.4506C121.661 17.9934 122.325 19.8081 123.42 20.9848C124.513 22.1583 126.079 22.7451 127.985 22.7451C129.918 22.7451 131.361 22.0987 132.329 20.9015ZM134.198 15.4506C134.198 20.3826 132.024 23.1011 127.985 23.1011C124.024 23.1011 121.305 20.6545 121.305 15.4506V15.1399C121.305 9.93603 124.179 7.45059 127.946 7.45059C131.364 7.45059 134.198 10.0137 134.198 15.1399V15.4506Z" fill="white"/>
<path fill-rule="evenodd" clip-rule="evenodd" d="M96.4502 10.7451C97.0301 6.39167 100.629 4.77098 104.449 4.77098C108.332 4.77098 111.866 6.36321 111.866 12.0331V25.7093H108.643V22.8681C108.526 23.0147 108.408 23.156 108.287 23.2919C106.84 24.9206 105.073 25.7807 102.313 25.7807C98.5461 25.7807 95.5558 23.9555 95.5558 19.8001C95.5558 15.1011 100.527 13.5088 105.731 13.5088H108.643V12.0331C108.643 8.80982 107.4 7.45059 104.294 7.45059C101.498 7.45059 99.9441 8.61564 99.6334 11.1011H96.4101C96.4213 10.9804 96.4347 10.8618 96.4502 10.7451ZM108.287 13.1529V12.0331C108.287 10.4543 107.98 9.42117 107.374 8.7771C106.773 8.13822 105.805 7.80658 104.294 7.80658C102.94 7.80658 101.941 8.08936 101.25 8.62517C100.566 9.15493 100.134 9.97056 99.9867 11.1452L99.9477 11.4571H96.0197L96.0557 11.0683C96.2786 8.65637 97.3609 6.97641 98.9176 5.90939C100.461 4.85128 102.442 4.41499 104.449 4.41499C106.43 4.41499 108.379 4.81974 109.838 5.99901C111.311 7.18989 112.222 9.11999 112.222 12.0331V26.0653H108.287V23.8158C107.668 24.457 106.982 24.9757 106.186 25.3588C105.108 25.8772 103.849 26.1367 102.313 26.1367C100.378 26.1367 98.6005 25.6685 97.2993 24.6265C95.9862 23.575 95.1998 21.9719 95.1998 19.8001C95.1998 17.2919 96.5413 15.6103 98.5273 14.5766C100.493 13.5535 103.102 13.1529 105.731 13.1529H108.287ZM106.698 21.6686C107.687 20.9063 108.287 19.7874 108.287 18.3244V16.1561H105.847C103.826 16.1561 102.126 16.4082 100.943 16.9974C100.356 17.2895 99.9083 17.6588 99.6061 18.1113C99.3053 18.5616 99.1351 19.1148 99.1351 19.8001C99.1351 20.7968 99.3749 21.5408 99.8869 22.0405C100.401 22.5422 101.255 22.8616 102.624 22.8616C104.276 22.8616 105.698 22.4386 106.698 21.6686ZM105.847 15.8001C101.769 15.8001 98.7791 16.8098 98.7791 19.8001C98.7791 21.8972 99.7888 23.2176 102.624 23.2176C106.041 23.2176 108.643 21.47 108.643 18.3244V15.8001H105.847Z" fill="white"/>
<path fill-rule="evenodd" clip-rule="evenodd" d="M92.1636 25.2752C91.5034 25.5082 90.7267 25.7024 89.4063 25.7024C85.717 25.7024 83.9306 23.5276 83.9306 20.3432V7.48232H81.0179V4.76387H83.9306V0.498497H87.1539V4.76387H91.8917V7.48232H87.1539V20.0325C87.1539 22.0131 88.0471 22.9839 89.6781 22.9839C90.5199 22.9839 91.1997 22.876 91.8076 22.6826C91.9289 22.644 92.0473 22.602 92.1636 22.5568V25.2752ZM87.5098 7.83831V20.0325C87.5098 20.9762 87.7234 21.6161 88.0727 22.0171C88.4145 22.4093 88.9348 22.628 89.6781 22.628C90.648 22.628 91.3805 22.4793 92.0345 22.225L92.5196 22.0364V25.5271L92.2821 25.6109C91.5858 25.8566 90.7691 26.0584 89.4063 26.0584C87.491 26.0584 86.0196 25.4921 85.0286 24.464C84.04 23.4383 83.5746 21.9999 83.5746 20.3432V7.83831H80.6619V4.40788H83.5746V0.142509H87.5098V4.40788H92.2477V7.83831H87.5098Z" fill="white"/>
<path d="M68.361 4.48306C62.4328 4.48306 57.6161 9.29976 57.6161 15.228C57.6161 18.6367 59.197 21.675 61.6671 23.6263V32.7163L68.3857 25.9729C74.314 25.9482 79.106 21.1562 79.106 15.228C79.1307 9.29976 74.314 4.48306 68.361 4.48306ZM68.6574 21.922C68.2622 21.9467 67.9411 22.0949 67.6694 22.3419L64.6559 25.3554V21.5762V21.5514C64.6559 21.0821 64.4583 20.6869 64.1125 20.4152C62.6057 19.1802 61.6424 17.3276 61.6424 15.228C61.6424 11.5228 64.6312 8.53403 68.3363 8.53403C72.0415 8.53403 75.0303 11.5228 75.0303 15.228C75.055 18.8343 72.2144 21.7738 68.6574 21.922Z" fill="#40BBFC"/>
<path d="M68.3627 18.5997C70.2322 18.5997 71.7478 17.0841 71.7478 15.2145C71.7478 13.3449 70.2322 11.8293 68.3627 11.8293C66.4931 11.8293 64.9775 13.3449 64.9775 15.2145C64.9775 17.0841 66.4931 18.5997 68.3627 18.5997Z" fill="#40BBFC"/>
<path d="M45.4915 25.7807C39.8216 25.7807 35.5497 21.7807 35.5497 15.4894V15.1788C35.5497 8.96516 39.9769 4.77099 45.4138 4.77099C49.6468 4.77099 53.608 6.71274 54.2293 11.8778H51.0449C50.54 8.65449 48.2099 7.4506 45.4138 7.4506C41.7245 7.4506 38.8895 10.4021 38.8895 15.1788V15.4894C38.8895 20.4603 41.608 23.1011 45.5303 23.1011C48.4041 23.1011 51.006 21.4312 51.3556 18.1302H54.3458C53.9187 22.5186 50.3847 25.7807 45.4915 25.7807Z" fill="white"/>
<path fill-rule="evenodd" clip-rule="evenodd" d="M32.4743 16.2726H17.1902C17.314 18.3519 17.8834 19.932 18.8445 21.0042C19.8544 22.1308 21.3404 22.7451 23.3416 22.7451C24.8763 22.7451 26.0421 22.46 26.8659 21.924C27.6775 21.3961 28.1911 20.6029 28.3893 19.5039L28.4421 19.2111H32.3852L32.3138 19.6273C31.9487 21.7574 30.8778 23.3958 29.292 24.4955C27.713 25.5907 25.6465 26.1367 23.3028 26.1367C20.3431 26.1367 17.7911 25.0951 15.9793 23.2276C14.168 21.3606 13.1215 18.6944 13.1215 15.4894V15.1788C13.1215 12.0349 14.1272 9.34315 15.8751 7.43353C17.6252 5.52164 20.1006 4.41499 22.9921 4.41499C25.4105 4.41499 27.7879 5.14492 29.5631 6.83867C31.3425 8.53648 32.4743 11.1623 32.4743 14.8681V16.2726ZM16.8336 16.2726C16.8268 16.1553 16.8214 16.0367 16.8173 15.9166H32.1183V14.8681C32.1183 7.60593 27.6911 4.77098 22.9921 4.77098C17.3998 4.77098 13.4775 9.04283 13.4775 15.1788V15.4894C13.4775 21.7419 17.5552 25.7807 23.3028 25.7807C27.75 25.7807 31.0634 23.769 31.8941 19.9231C31.9194 19.8061 31.9423 19.6875 31.963 19.5671H28.7397C28.3125 21.936 26.4872 23.1011 23.3416 23.1011C19.2942 23.1011 17.089 20.6694 16.8336 16.2726ZM28.8173 13.3147C28.8084 13.1939 28.7979 13.0753 28.7859 12.9587C28.3805 9.02573 26.2357 7.45059 22.9921 7.45059C19.8009 7.45059 17.626 9.55562 16.9936 12.9587C16.9719 13.0758 16.9519 13.1945 16.9338 13.3147H28.8173ZM17.3559 12.9587H28.428C28.2332 11.1259 27.6522 9.87474 26.7966 9.06897C25.8836 8.20922 24.605 7.80658 22.9921 7.80658C21.428 7.80658 20.141 8.33775 19.1783 9.28236C18.2881 10.1558 17.6559 11.4023 17.3559 12.9587Z" fill="white"/>
<path d="M0.999786 25.7035V5.3928H4.22309V9.04329C5.50464 6.75203 7.25222 5.15979 10.9027 5.04329V8.07242C6.82503 8.26659 4.22309 9.54815 4.22309 14.5579V25.7035H0.999786Z" fill="white"/>
<path d="M118.198 32.4991V4.77093H121.422V8.53792C122.587 6.55734 125.344 4.77093 128.296 4.77093C133.616 4.77093 137.538 8.65443 137.538 14.9845V15.2952C137.538 21.5088 133.888 25.7807 128.296 25.7807C124.956 25.7807 122.587 24.1108 121.422 22.0913V32.4991H118.198ZM127.985 23.101C132.024 23.101 134.198 20.3826 134.198 15.4505V15.1399C134.198 10.0136 131.364 7.45054 127.946 7.45054C124.179 7.45054 121.305 9.93598 121.305 15.1399V15.4505C121.305 20.6544 124.024 23.101 127.985 23.101Z" fill="white"/>
<path d="M102.313 25.7806C98.5461 25.7806 95.5558 23.9554 95.5558 19.8001C95.5558 15.101 100.527 13.5088 105.731 13.5088H108.643V12.0331C108.643 8.80976 107.4 7.45054 104.294 7.45054C101.498 7.45054 99.9441 8.61559 99.6334 11.101H96.4101C96.8373 6.47966 100.527 4.77093 104.449 4.77093C108.332 4.77093 111.866 6.36316 111.866 12.0331V25.7093H108.643V22.868C107.129 24.7709 105.303 25.7806 102.313 25.7806ZM102.624 23.2175C106.041 23.2175 108.643 21.47 108.643 18.3243V15.8001H105.847C101.769 15.8001 98.7791 16.8098 98.7791 19.8001C98.7791 21.8972 99.7888 23.2175 102.624 23.2175Z" fill="white"/>
<path d="M89.4063 25.7023C85.717 25.7023 83.9306 23.5276 83.9306 20.3431V7.48227H81.0179V4.76382H83.9306V0.498444H87.1539V4.76382H91.8917V7.48227H87.1539V20.0324C87.1539 22.013 88.0471 22.9839 89.6781 22.9839C90.6878 22.9839 91.4645 22.8285 92.1636 22.5567V25.2752C91.5034 25.5082 90.7267 25.7023 89.4063 25.7023Z" fill="white"/>
<path fill-rule="evenodd" clip-rule="evenodd" d="M54.6307 12.2337H50.7403L50.6931 11.9328C50.4537 10.404 49.79 9.38759 48.883 8.74603C47.9667 8.09796 46.7652 7.80653 45.4138 7.80653C43.6693 7.80653 42.1366 8.50195 41.0359 9.75798C39.9328 11.0166 39.2455 12.8602 39.2455 15.1787V15.4894C39.2455 17.9117 39.9072 19.7201 41.0019 20.9193C42.0936 22.1151 43.6519 22.745 45.5303 22.745C46.9004 22.745 48.1882 22.3469 49.1692 21.5739C50.1448 20.805 50.8365 19.6508 51.0015 18.0927L51.0352 17.7742H54.7381L54.7001 18.1647C54.2543 22.7447 50.5584 26.1366 45.4914 26.1366C42.5711 26.1366 39.9918 25.1052 38.1419 23.2453C36.2915 21.3847 35.1937 18.718 35.1937 15.4894V15.1787C35.1937 8.77575 39.7731 4.41494 45.4138 4.41494C47.5799 4.41494 49.7073 4.91117 51.3817 6.09692C53.0663 7.28999 54.2609 9.15978 54.5827 11.8352L54.6307 12.2337ZM54.304 18.4861C53.7251 22.6938 50.2514 25.7806 45.4914 25.7806C39.8215 25.7806 35.5497 21.7806 35.5497 15.4894V15.1787C35.5497 8.9651 39.9769 4.77093 45.4138 4.77093C49.5481 4.77093 53.4231 6.6232 54.1804 11.5217C54.1985 11.6387 54.2148 11.7573 54.2293 11.8777H51.0448C50.54 8.65442 48.2099 7.45054 45.4138 7.45054C41.7245 7.45054 38.8895 10.402 38.8895 15.1787V15.4894C38.8895 20.4603 41.6079 23.101 45.5303 23.101C48.4041 23.101 51.006 21.4311 51.3555 18.1302H54.3458C54.3342 18.2497 54.3202 18.3683 54.304 18.4861Z" fill="white"/>
<path d="M23.3027 25.7806C17.5552 25.7806 13.4775 21.7418 13.4775 15.4894V15.1787C13.4775 9.04277 17.3998 4.77093 22.9921 4.77093C27.6911 4.77093 32.1183 7.60588 32.1183 14.868V15.9166H16.8173C16.9726 20.5379 19.1862 23.101 23.3416 23.101C26.4872 23.101 28.3125 21.936 28.7396 19.5671H31.9629C31.2639 23.6447 27.8853 25.7806 23.3027 25.7806ZM16.9338 13.3146H28.8173C28.5066 9.12044 26.3319 7.45054 22.9921 7.45054C19.6911 7.45054 17.4775 9.70297 16.9338 13.3146Z" fill="white"/>
<path fill-rule="evenodd" clip-rule="evenodd" d="M0.643799 26.0594V5.03675H4.57908V7.80897C5.10011 7.07873 5.71253 6.43884 6.47771 5.93107C7.59703 5.18829 9.01426 4.74732 10.8914 4.68742L11.2587 4.67569V8.41179L10.9196 8.42793C8.8993 8.52414 7.32945 8.88918 6.26223 9.78225C5.21259 10.6606 4.57908 12.1122 4.57908 14.5578V26.0594H0.643799ZM4.57908 8.44591C4.456 8.63905 4.33768 8.83834 4.22309 9.04322V5.39274H0.999786V25.7034H4.22309V14.5578C4.22309 9.54808 6.82503 8.26652 10.9027 8.07235V5.04322C10.782 5.04707 10.6633 5.05254 10.5467 5.05959C7.45244 5.24673 5.78687 6.55045 4.57908 8.44591Z" fill="white"/>
</svg>
