<svg xmlns="http://www.w3.org/2000/svg" viewBox="0 0 540 400" fill="none" role="img" aria-label="RetrofitX preview">
  <rect width="540" height="400" fill="#FFFFFF"/>
  <path stroke="rgba(0,122,111,0.12)" stroke-width="1" d="M0 80H540M0 160H540M0 240H540M0 320H540M80 0V400M160 0V400M240 0V400M320 0V400M400 0V400"/>
  <rect x="48" y="48" width="200" height="120" rx="4" fill="#F4F8F7" stroke="rgba(0,122,111,0.25)" stroke-width="1"/>
  <text x="64" y="82" fill="#0F2626" font-family="system-ui, sans-serif" font-size="11" font-weight="600" letter-spacing="0.15em">PORTFOLIO</text>
  <rect x="64" y="96" width="72" height="8" rx="2" fill="#007A6F" opacity="0.95"/>
  <rect x="64" y="112" width="140" height="6" rx="2" fill="#B8C5C4"/>
  <rect x="64" y="126" width="120" height="6" rx="2" fill="#E0E0E0"/>
  <rect x="280" y="48" width="212" height="304" rx="4" fill="#0F2626" stroke="#E0E0E0" stroke-width="1"/>
  <rect x="300" y="72" width="32" height="180" rx="2" fill="#152e2c"/>
  <rect x="340" y="96" width="32" height="156" rx="2" fill="#152e2c"/>
  <rect x="380" y="64" width="32" height="188" rx="2" fill="#152e2c"/>
  <rect x="420" y="120" width="32" height="132" rx="2" fill="#152e2c"/>
  <rect x="300" y="210" width="152" height="10" rx="2" fill="#007A6F" opacity="0.35"/>
  <rect x="300" y="228" width="120" height="10" rx="2" fill="#007A6F" opacity="0.55"/>
  <rect x="300" y="246" width="96" height="10" rx="2" fill="#007A6F" opacity="0.75"/>
  <rect x="300" y="264" width="132" height="10" rx="2" fill="#007A6F" opacity="0.45"/>
  <text x="48" y="372" fill="#007A6F" font-family="system-ui, sans-serif" font-size="22" font-weight="700" letter-spacing="0.04em">RETROFITX</text>
</svg>
