<svg width="22" height="22" viewBox="0 0 22 22" fill="none" xmlns="http://www.w3.org/2000/svg">
<g clip-path="url(#clip0_169_5507)">
<path d="M13.2446 0.593799C6.35895 -1.24278 1.77428 3.02163 0.436575 8.15074C-0.893743 13.2528 1.51317 19.6978 8.48256 21.5566C9.85722 21.9236 11.1543 22.0591 12.3565 21.9766C12.6287 21.9581 12.8135 21.6908 12.7285 21.4309L11.8268 18.6779C11.7702 18.503 11.6051 18.3872 11.4216 18.3921C10.7823 18.4094 10.1048 18.3318 9.39408 18.1421C5.13952 17.0076 3.25118 12.4398 4.05307 9.20514C4.87836 5.88797 7.73855 2.69275 12.3565 3.92452C16.9744 5.1563 18.3959 9.56895 17.6913 12.7691C17.6563 12.9282 17.6591 12.9149 17.6123 13.0762C17.5396 13.325 17.6544 13.514 17.9118 13.546L20.894 14.2597C21.1009 14.2855 21.298 14.155 21.3485 13.9529C21.3485 13.9517 21.3485 13.9505 21.3498 13.9493C22.6086 8.89035 20.1302 2.42915 13.2446 0.593799Z" fill="#7AB38C"/>
</g>
<defs>
<clipPath id="clip0_169_5507">
<rect width="21.5787" height="21.8406" fill="white" transform="translate(0.0859375 0.159302)"/>
</clipPath>
</defs>
</svg>
