<svg width="20" height="18" viewBox="0 0 20 18" fill="none" xmlns="http://www.w3.org/2000/svg">
<g clip-path="url(#clip0_595_8385)">
<path d="M16 17.5L14.6 16.1L16.175 14.5H12V12.5H16.175L14.6 10.9L16 9.5L20 13.5L16 17.5ZM2 14.5C1.45 14.5 0.979167 14.3042 0.5875 13.9125C0.195833 13.5208 0 13.05 0 12.5V2.5C0 1.95 0.195833 1.47917 0.5875 1.0875C0.979167 0.695833 1.45 0.5 2 0.5H15C15.55 0.5 16.0208 0.695833 16.4125 1.0875C16.8042 1.47917 17 1.95 17 2.5V7.6C16.8333 7.56667 16.6667 7.54167 16.5 7.525C16.3333 7.50833 16.1667 7.5 16 7.5C15.8333 7.5 15.6667 7.50417 15.5 7.5125C15.3333 7.52083 15.1667 7.54167 15 7.575V3.9L8.4 8.5L2 3.925V12.5H10.075C10.0417 12.6667 10.0208 12.8333 10.0125 13C10.0042 13.1667 10 13.3333 10 13.5C10 13.6667 10.0083 13.8333 10.025 14C10.0417 14.1667 10.0667 14.3333 10.1 14.5H2ZM3.45 2.5L8.4 6.05L13.5 2.5H3.45Z" fill="white"/>
</g>
<defs>
<clipPath id="clip0_595_8385">
<rect width="20" height="17" fill="white" transform="translate(0 0.5)"/>
</clipPath>
</defs>
</svg>
