<svg width="56" height="16" viewBox="0 0 56 16" fill="none" xmlns="http://www.w3.org/2000/svg">
<g clip-path="url(#clip0_167_5465)">
<path fill-rule="evenodd" clip-rule="evenodd" d="M35.9568 15.0464C34.0784 15.0079 32.2878 14.2531 30.9594 12.9399C29.6309 11.6267 28.8673 9.85672 28.8284 7.99996C28.8284 6.13112 29.5794 4.33882 30.9162 3.01735C32.2531 1.69588 34.0662 0.953491 35.9568 0.953491C37.8473 0.953491 39.6605 1.69588 40.9973 3.01735C42.3341 4.33882 43.0852 6.13112 43.0852 7.99996C43.0489 9.85757 42.2862 11.6291 40.9572 12.9429C39.6281 14.2566 37.836 15.0106 35.9568 15.0464ZM35.9568 3.94878C34.8877 3.98627 33.8727 4.42285 33.1163 5.17058C32.3599 5.91831 31.9182 6.92162 31.8803 7.97841C31.8803 8.50758 31.9857 9.03158 32.1906 9.52048C32.3955 10.0094 32.6957 10.4536 33.0743 10.8278C33.4528 11.202 33.9022 11.4988 34.3968 11.7013C34.8913 11.9038 35.4214 12.008 35.9568 12.008C36.4921 12.008 37.0222 11.9038 37.5168 11.7013C38.0114 11.4988 38.4607 11.202 38.8393 10.8278C39.2178 10.4536 39.5181 10.0094 39.723 9.52048C39.9278 9.03158 40.0333 8.50758 40.0333 7.97841C39.9953 6.92162 39.5537 5.91831 38.7972 5.17058C38.0408 4.42285 37.0258 3.98627 35.9568 3.94878ZM10.6585 14.8417H0.227539L6.01528 3.88413H0.630827V1.14743H11.0291L5.1978 12.1266H10.6476L10.6585 14.8417ZM12.6096 14.8417V1.14743H15.6724V14.8417H12.6096ZM18.114 14.8417H21.1659L21.2204 9.99322L24.4903 14.8848H28.3597L24.3922 9.85315C25.3437 9.61134 26.1796 9.04802 26.7549 8.26084C27.3303 7.47367 27.6088 6.51229 27.5422 5.54339C27.5626 4.97875 27.4688 4.41577 27.2662 3.88745C27.0636 3.35914 26.7563 2.87611 26.3625 2.46669C25.9686 2.05727 25.496 1.72969 24.9724 1.50315C24.4488 1.27661 23.8847 1.15568 23.3132 1.14743H18.114V14.8417ZM21.1659 7.56898V3.52857L22.8009 3.50703C23.0573 3.51932 23.3086 3.58207 23.5401 3.6916C23.7717 3.80112 23.9788 3.95522 24.1493 4.14487C24.3198 4.33451 24.4504 4.55589 24.5333 4.79603C24.6162 5.03618 24.6497 5.29026 24.632 5.54339C24.6513 5.79629 24.6187 6.05043 24.5363 6.2906C24.4538 6.53077 24.3232 6.75203 24.1523 6.94114C23.9813 7.13025 23.7735 7.28333 23.5413 7.39121C23.3091 7.49908 23.0573 7.55955 22.8009 7.56898H21.1659ZM55.9031 14.8417V1.14743H52.655V6.61006H48.0881V1.14743H45.0361V14.8417H48.0881V9.34676H52.6332V14.8417H55.9031Z" fill="white"/>
</g>
<defs>
<clipPath id="clip0_167_5465">
<rect width="55.6755" height="14.0929" fill="white" transform="translate(0.227539 0.953491)"/>
</clipPath>
</defs>
</svg>
