<svg width="43" height="30" viewBox="0 0 43 30" fill="none" xmlns="http://www.w3.org/2000/svg">
<g clip-path="url(#clip0_170_5552)">
<path d="M0.176758 20.6338C0.176758 20.6338 9.79327 19.3964 17.3518 16.5689C22.8603 14.5081 26.8961 10.5003 27.187 10.9322C27.5523 11.4752 26.2952 13.4869 24.4348 15.0798C22.7846 16.4925 20.6203 17.5096 19.2796 17.8681C22.2897 17.8908 24.3176 17.2749 29.0475 14.3681C33.7773 11.4613 36.4964 6.54197 37.5257 7.10047C38.5551 7.65897 32.935 15.1657 26.4193 18.5093C26.4193 18.5093 31.2329 16.1603 34.311 13.4067C37.389 10.6532 40.3955 5.95959 41.0669 6.81079C41.7384 7.66198 34.8687 16.2805 27.4881 20.4855C27.4881 20.4855 31.1811 18.939 34.9117 15.8585C38.6423 12.778 40.1489 9.59205 40.9889 10.0705C41.8289 10.5489 37.6883 17.484 28.8172 22.4258C28.8172 22.4258 32.0138 21.2324 34.7199 19.1818C37.0875 17.3876 38.6842 14.4524 39.4965 15.2038C40.3088 15.9553 25.3608 36.3304 0.176758 20.6338Z" fill="#AFAF93"/>
<path d="M25.5571 25.2907C35.4037 19.1942 37.6929 14.2459 38.2524 9.83202C38.8158 5.37907 35.9218 0.77029 31.902 0.465653C28.9067 0.239384 26.5958 2.14256 25.6141 3.12771C24.6371 2.13614 22.3384 0.220819 19.3418 0.430734C15.32 0.711689 12.4008 5.30582 12.9415 9.76158C13.4779 14.1776 15.7396 19.1387 25.5571 25.2907Z" fill="url(#paint0_linear_170_5552)"/>
<path d="M0 20.6236C0 20.6236 9.69274 20.8633 17.5932 19.2183C23.3508 18.0195 27.9488 14.6722 28.1703 15.1433C28.4489 15.7353 26.9007 17.5326 24.8198 18.824C22.9743 19.9693 20.6806 20.6453 19.3012 20.7958C22.2729 21.2761 24.3708 20.9758 29.4874 18.8222C34.604 16.6686 38.039 12.2197 38.9715 12.9287C39.9041 13.6378 33.2086 20.2019 26.2606 22.5153C26.2606 22.5153 31.3752 20.9257 34.8359 18.6722C38.2965 16.4187 41.9813 12.237 42.5157 13.1805C43.05 14.124 34.9504 21.5969 27.0161 24.6307C27.0161 24.6307 30.9014 23.6638 35.0567 21.1865C39.212 18.7093 41.1854 15.7896 41.9428 16.3902C42.7002 16.9909 37.554 23.2154 28.035 26.7506C28.035 26.7506 31.3759 26.0572 34.3621 24.442C36.9749 23.0288 38.999 20.3706 39.6877 21.2369C40.3765 22.1033 22.506 39.968 0 20.6236Z" fill="#FFFFE3"/>
</g>
<defs>
<linearGradient id="paint0_linear_170_5552" x1="12.8769" y1="12.8528" x2="38.3226" y2="12.8528" gradientUnits="userSpaceOnUse">
<stop stop-color="#F7941D"/>
<stop offset="1" stop-color="#BE1E2D"/>
</linearGradient>
<clipPath id="clip0_170_5552">
<rect width="42.5407" height="29.1704" fill="white" transform="translate(0 0.414795)"/>
</clipPath>
</defs>
</svg>
