<svg width="30" height="14" viewBox="0 0 30 14" fill="none" xmlns="http://www.w3.org/2000/svg">
<g clip-path="url(#clip0_167_5466)">
<path fill-rule="evenodd" clip-rule="evenodd" d="M1.81944 0.249829V12.9744H6.17931V13.8795H1.03467C1.01707 13.8811 0.999313 13.8789 0.982677 13.873C0.966041 13.8671 0.950936 13.8576 0.938437 13.8453C0.925938 13.8329 0.916356 13.818 0.910379 13.8016C0.904403 13.7851 0.90218 13.7676 0.903868 13.7502V0.249829C0.90218 0.232436 0.904403 0.214888 0.910379 0.198444C0.916356 0.181999 0.925938 0.167064 0.938437 0.154708C0.950936 0.142352 0.966041 0.132882 0.982677 0.126974C0.999313 0.121066 1.01707 0.118868 1.03467 0.120537H1.68865C1.70624 0.118868 1.72399 0.121066 1.74063 0.126974C1.75726 0.132882 1.77237 0.142352 1.78487 0.154708C1.79737 0.167064 1.80695 0.181999 1.81293 0.198444C1.8189 0.214888 1.82112 0.232436 1.81944 0.249829ZM12.4955 13.8199C12.5113 13.8251 12.5281 13.8271 12.5447 13.8256L13.166 13.7933C13.2968 13.7933 13.2968 13.7394 13.2968 13.6424C13.2788 13.491 13.2583 13.3412 13.238 13.1932L13.238 13.1931L13.238 13.1931C13.1848 12.8043 13.1333 12.4284 13.1333 12.0694C13.0461 11.3583 13.0461 10.7872 13.0461 10.2808V9.70977V8.7724C13.0404 8.45868 13.015 8.14561 12.9698 7.83503C12.8998 7.23295 12.6406 6.66773 12.2286 6.21886C11.9368 5.95188 11.593 5.74639 11.2182 5.61488C10.8435 5.48337 10.4456 5.42859 10.0487 5.45388C9.39568 5.44699 8.74882 5.57928 8.15217 5.84176C7.95128 5.93426 7.75811 6.04234 7.57449 6.16499L7.36739 6.32661L7.2257 6.43435C7.20761 6.44479 7.19259 6.45973 7.18216 6.47769C7.17173 6.49565 7.16624 6.516 7.16624 6.53671C7.16624 6.55742 7.17173 6.57776 7.18216 6.59572C7.19259 6.61368 7.20761 6.62863 7.2257 6.63907L7.70528 7.07004C7.71543 7.08342 7.7286 7.09428 7.74373 7.10176C7.75887 7.10925 7.77556 7.11314 7.79248 7.11314C7.8094 7.11314 7.82609 7.10925 7.84123 7.10176C7.85636 7.09428 7.86953 7.08342 7.87968 7.07004L7.98867 6.98385L8.14127 6.8761C8.28915 6.78849 8.44199 6.70935 8.59905 6.63907C9.05827 6.45019 9.55134 6.35491 10.0487 6.35893C10.3306 6.33288 10.6149 6.36336 10.8846 6.44852C11.1543 6.53368 11.4039 6.67179 11.6183 6.85455C12.0528 7.41849 12.2657 8.11899 12.2177 8.82627H12.0761C11.9527 8.81703 11.8288 8.81703 11.7055 8.82627H11.2695H10.1795C9.75378 8.85381 9.33097 8.91506 8.91514 9.00944C8.41826 9.11692 7.95245 9.33425 7.55269 9.64513C7.31241 9.81977 7.11805 10.0488 6.98591 10.3131C6.84907 10.5781 6.76753 10.8676 6.74611 11.1643C6.68471 11.7516 6.83108 12.3417 7.1603 12.8344C7.34952 13.0838 7.59124 13.2896 7.86878 13.4377C8.1332 13.5711 8.41596 13.6655 8.70805 13.7179C9.23338 13.8209 9.77408 13.8209 10.2994 13.7179C10.7979 13.6033 11.2637 13.3786 11.6619 13.0606C11.8952 12.8747 12.1007 12.6571 12.2722 12.4141C12.3049 12.8128 12.3485 13.2438 12.4139 13.7071C12.4139 13.7236 12.4173 13.7399 12.424 13.7551C12.4307 13.7702 12.4405 13.7838 12.4528 13.7949C12.4651 13.8061 12.4797 13.8146 12.4955 13.8199ZM12.1197 10.8411C12.0429 11.129 11.9332 11.4073 11.7927 11.6707V11.6168C11.6172 11.9175 11.3795 12.1782 11.0951 12.3818C10.7926 12.6118 10.4429 12.7736 10.0705 12.8559C9.66407 12.9372 9.24529 12.9372 8.83885 12.8559C8.46184 12.8099 8.11778 12.6205 7.87968 12.328C7.66573 12.0104 7.56592 11.6309 7.59628 11.2505C7.60214 11.0718 7.64705 10.8964 7.72796 10.7365C7.80886 10.5765 7.92383 10.4358 8.06497 10.3239C8.36875 10.0983 8.71825 9.9403 9.08954 9.86062C9.44766 9.77867 9.8124 9.72819 10.1795 9.70977C10.2837 9.70977 10.3997 9.70392 10.517 9.698C10.7557 9.68596 10.9997 9.67366 11.1605 9.70977C11.4003 9.76364 11.651 9.76365 11.9235 9.76365H12.1197V10.6579V10.8411ZM19.3354 5.57239C20.2881 5.65966 21.1794 6.07539 21.8532 6.7468C22.5392 7.40749 22.9708 8.28374 23.074 9.22492C23.1442 9.82733 23.081 10.4376 22.8887 11.0135C22.7088 11.5618 22.4114 12.0652 22.0167 12.4896C21.6303 12.9172 21.1591 13.2619 20.6325 13.5024C20.0811 13.7481 19.4824 13.873 18.8776 13.8687C18.2474 13.8637 17.6263 13.7187 17.0603 13.4446C16.4944 13.1704 15.9979 12.7741 15.6077 12.2849V13.7394C15.6077 13.8256 15.6077 13.8687 15.466 13.8687H14.8338C14.7357 13.8687 14.6921 13.8687 14.6921 13.7394V0.271385V0.271379C14.6921 0.174413 14.6921 0.131317 14.8338 0.131317H15.466C15.5641 0.131317 15.6077 0.131317 15.6077 0.271385V7.12391C16.0465 6.57013 16.6215 6.13675 17.2779 5.86513C17.9343 5.59352 18.6502 5.49273 19.3572 5.57239H19.3354ZM18.8776 12.9744C19.5381 12.9917 20.1884 12.8109 20.7429 12.4556C21.2973 12.1004 21.7299 11.5874 21.9836 10.9844C22.2373 10.3813 22.3003 9.71641 22.1641 9.07729C22.028 8.43816 21.6992 7.85479 21.221 7.40404C20.7657 6.93214 20.1766 6.60743 19.5311 6.47258C18.8856 6.33774 18.2139 6.39905 17.6043 6.64847C16.9948 6.8979 16.4758 7.32376 16.1155 7.87012C15.7553 8.41648 15.5707 9.05778 15.5859 9.70977C15.5859 10.567 15.9304 11.3892 16.5436 11.9954C17.1569 12.6015 17.9886 12.9421 18.8558 12.9421L18.8776 12.9744ZM29.1897 6.95812C29.2056 6.9516 29.22 6.94203 29.2321 6.92998L29.57 6.69294C29.5885 6.68412 29.604 6.67034 29.6149 6.65319C29.6258 6.63604 29.6315 6.61621 29.6315 6.59597C29.6315 6.57573 29.6258 6.5559 29.6149 6.53875C29.604 6.5216 29.5885 6.50783 29.57 6.499L29.4937 6.43436L29.2757 6.26197L28.9706 6.08958C28.6827 5.93391 28.3747 5.8179 28.055 5.74479C27.8606 5.70715 27.664 5.68196 27.4664 5.66937H26.8015C26.5605 5.7052 26.3233 5.76291 26.093 5.84176C25.8245 5.94753 25.58 6.10502 25.3737 6.30506C25.1532 6.5267 24.9953 6.80161 24.9159 7.10237V7.21011V7.32863C24.9061 7.40374 24.9061 7.47979 24.9159 7.55489V7.66264V7.82425V7.95355C24.9299 8.04148 24.9518 8.12802 24.9813 8.21213C24.9777 8.25156 24.9777 8.29123 24.9813 8.33065L25.0467 8.44917C25.0808 8.52402 25.1209 8.59608 25.1666 8.66466L25.2429 8.76163L25.3301 8.8586C25.5395 9.08055 25.7821 9.2695 26.0494 9.41887C26.2953 9.56378 26.5501 9.69333 26.8124 9.80675H26.9105H26.9977L27.1721 9.89294L27.5536 10.0546C27.9997 10.2291 28.4042 10.4932 28.7417 10.8303C28.8635 10.9778 28.9493 11.1511 28.9924 11.3367V11.4121V11.4876V11.5953V11.7246V11.8108V11.9401C28.9628 12.116 28.8896 12.2819 28.7793 12.4229C28.669 12.5639 28.525 12.6757 28.3602 12.7482C28.1955 12.8335 28.0193 12.8952 27.837 12.9313C27.6532 12.9622 27.4675 12.9802 27.2811 12.9852H26.7579L26.311 12.8882C26.0759 12.8202 25.8492 12.7262 25.6353 12.6081L25.3846 12.4465C25.3289 12.4093 25.2777 12.3659 25.232 12.3172C25.2198 12.3051 25.2054 12.2956 25.1895 12.289C25.1736 12.2825 25.1565 12.2792 25.1393 12.2792C25.1221 12.2792 25.1051 12.2825 25.0892 12.289C25.0733 12.2956 25.0588 12.3051 25.0467 12.3172L24.578 12.7589C24.5621 12.771 24.5493 12.7865 24.5405 12.8043C24.5317 12.822 24.5271 12.8415 24.5271 12.8613C24.5271 12.8811 24.5317 12.9006 24.5405 12.9183C24.5493 12.9361 24.5621 12.9516 24.578 12.9636L24.8069 13.1468C24.9238 13.2323 25.0478 13.308 25.1775 13.3731C25.4588 13.5341 25.759 13.6608 26.0712 13.7502L26.6598 13.8687H27.3138C27.5522 13.8622 27.7894 13.8333 28.0223 13.7825C28.2851 13.7358 28.5389 13.6485 28.7744 13.5239C29.0474 13.3927 29.2861 13.201 29.4719 12.9636C29.6674 12.7137 29.8017 12.4223 29.8643 12.1125V11.9832V11.8539V11.4121V11.2828V11.1643C29.7901 10.795 29.6038 10.4567 29.3303 10.1946C29.1283 9.95322 28.8847 9.74896 28.6109 9.59126C28.3657 9.43866 28.1109 9.30189 27.8479 9.18183L27.4773 9.03099L27.292 8.94479H27.1939H27.0958C26.8124 8.8155 26.5835 8.70776 26.4091 8.61079C26.2179 8.50578 26.045 8.37119 25.8968 8.21213V8.15826L25.8423 8.10439V8.03974V7.98587V7.932V7.73806V7.67341V7.60877V7.44715C25.8377 7.40058 25.8377 7.35366 25.8423 7.30708V7.23166V7.16702C25.8778 7.00632 25.9613 6.8599 26.0821 6.74681C26.1936 6.62231 26.3365 6.52934 26.4963 6.47745C26.662 6.41647 26.8337 6.37313 27.0086 6.34816H27.5318C27.9132 6.36819 28.2853 6.4712 28.6218 6.64984C28.708 6.68956 28.7886 6.74028 28.8616 6.80069C28.9283 6.83639 28.9905 6.87979 29.0469 6.92998C29.059 6.94203 29.0734 6.9516 29.0893 6.95812C29.1052 6.96465 29.1223 6.96801 29.1395 6.96801C29.1567 6.96801 29.1738 6.96465 29.1897 6.95812Z" fill="white"/>
</g>
<defs>
<clipPath id="clip0_167_5466">
<rect width="28.961" height="13.76" fill="white" transform="translate(0.90332 0.119995)"/>
</clipPath>
</defs>
</svg>
