<svg width="17" height="18" viewBox="0 0 17 18" fill="none" xmlns="http://www.w3.org/2000/svg">
<g clip-path="url(#clip0_169_5506)">
<path d="M12.091 17.3993C12.091 17.7263 12.3561 17.9914 12.683 17.9914H15.4938C15.8208 17.9914 16.0859 17.7263 16.0859 17.3993V8.99246C16.0859 3.91703 12.9624 0.882941 9.16403 0.882941C7.13386 0.882941 6.10344 0.882941 4.06854 2.35496V0.683568C4.06854 0.323764 3.74832 0.0451672 3.40499 0.152815C1.63264 0.708529 0.0612231 2.45445 0.10642 4.86662V17.408C0.10642 17.7349 0.371478 18 0.698443 18H3.47652C3.80348 18 4.06854 17.7349 4.06854 17.408V8.89423C4.06854 6.62514 5.87314 4.72594 8.14223 4.7029C10.7303 4.67743 12.091 6.55237 12.091 9.02521V17.3993Z" fill="#B6EFC8"/>
</g>
<defs>
<clipPath id="clip0_169_5506">
<rect width="15.9804" height="17.9977" fill="white" transform="translate(0.105469 0.00231934)"/>
</clipPath>
</defs>
</svg>
