<svg width="21" height="24" viewBox="0 0 21 24" fill="none" xmlns="http://www.w3.org/2000/svg">
<g clip-path="url(#clip0_169_5505)">
<path d="M20.1053 13.7423V1.20372C20.1053 0.876752 19.8387 0.607405 19.5148 0.652024C17.4256 0.939828 15.8157 2.73303 15.8157 4.90126V13.7423C16.0929 17.4471 13.4986 20.253 10.1703 20.3739C6.60114 20.3739 4.02323 17.4169 4.28956 13.7423V1.20372C4.28956 0.876752 4.02302 0.607405 3.69912 0.652024C1.60983 0.939828 0 2.73303 0 4.90126V13.7423C0 19.5537 4.69233 24 10.1833 24C14.5429 24 19.9219 20.5768 20.1053 13.7423Z" fill="#B6EFC8"/>
</g>
<defs>
<clipPath id="clip0_169_5505">
<rect width="20.1053" height="23.3883" fill="white" transform="translate(0 0.611694)"/>
</clipPath>
</defs>
</svg>
