<svg width="106" height="32" viewBox="0 0 106 32" fill="none" xmlns="http://www.w3.org/2000/svg">
<path d="M12.0579 26L10.1286 24.0922L16.8274 17.3934H0V14.6066H16.8274L10.1286 7.91854L12.0579 6L22.0579 16L12.0579 26Z" fill="#4640DE"/>
<path d="M26.0579 25.7361H29.5671V17.715H38.0368V25.7361H41.5724V6.87071H38.0368V14.8918H29.5671V6.87071H26.0579V25.7361Z" fill="#030407"/>
<path d="M44.6324 25.7361H47.8251V11.9367H44.6324V25.7361ZM46.1892 9.66755C47.2446 9.66755 48.0889 8.87599 48.0889 7.84697C48.0889 6.79156 47.2446 6 46.1892 6C45.1338 6 44.2894 6.79156 44.2894 7.84697C44.2894 8.87599 45.1338 9.66755 46.1892 9.66755Z" fill="#030407"/>
<path d="M50.6611 25.7361H53.8537V18.5594C53.8537 15.6306 55.5423 14.7335 58.3391 14.7071V11.7256C56.0173 11.752 54.7244 12.781 53.8537 14.5224V11.9367H50.6611V25.7361Z" fill="#030407"/>
<path d="M65.9037 26C69.4393 26 71.7876 24.4169 72.2361 21.5145H69.1491C68.9116 22.8602 67.9089 23.6253 65.9828 23.6253C63.6082 23.6253 62.2889 22.1478 62.1834 19.5356H72.2889V18.6121C72.2889 13.6781 69.2018 11.6464 65.7717 11.6464C61.8404 11.6464 58.9116 14.496 58.9116 18.7704V18.9815C58.9116 23.3351 61.8403 26 65.9037 26ZM62.2361 17.3984C62.5527 15.2612 63.8456 13.9683 65.7717 13.9683C67.7506 13.9683 68.9644 15.0237 69.1227 17.3984H62.2361Z" fill="#030407"/>
<path d="M81.6049 26C86.5918 26 89.2567 23.2823 89.2567 18.3483V6.87071H85.721V18.058C85.721 21.9631 84.349 23.1768 81.6313 23.1768C78.8345 23.1768 77.7263 21.752 77.7263 18.2955V6.87071H74.1907V18.5594C74.1907 23.4142 76.882 26 81.6049 26Z" fill="#030407"/>
<path d="M92.361 25.7361H95.8703V18.5594H98.5088C102.546 18.5594 105.422 16.7916 105.422 12.8074V12.7018C105.422 8.74406 102.651 6.87071 98.4296 6.87071H92.361V25.7361ZM95.8703 16.0264V9.58839H98.4296C100.672 9.58839 101.992 10.4591 101.992 12.7018V12.8074C101.992 14.8918 100.752 16.0264 98.4296 16.0264H95.8703Z" fill="#030407"/>
</svg>
